# This file uses centimeters as units for non-parametric coordinates.

mtllib Button_WIP1.mtl
g default
v -11.990053 -0.138789 -0.463526
v -12.203112 -0.138789 -0.881678
v -12.534960 -0.138789 -1.213526
v -12.953113 -0.138789 -1.426586
v -13.416638 -0.138789 -1.500001
v -13.880164 -0.138789 -1.426585
v -14.298317 -0.138789 -1.213526
v -14.630164 -0.138789 -0.881678
v -14.843224 -0.138789 -0.463526
v -14.916638 -0.138789 0.000000
v -14.843224 -0.138789 0.463526
v -14.630164 -0.138789 0.881678
v -14.298316 -0.138789 1.213526
v -13.880164 -0.138789 1.426585
v -13.416638 -0.138789 1.500000
v -12.953113 -0.138789 1.426585
v -12.534961 -0.138789 1.213526
v -12.203113 -0.138789 0.881678
v -11.990053 -0.138789 0.463526
v -11.916638 -0.138789 0.000000
v -12.147575 0.167036 -0.412344
v -12.337109 0.167036 -0.784324
v -12.632315 0.167036 -1.079530
v -13.004295 0.167036 -1.269063
v -13.416638 0.167036 -1.334372
v -13.828981 0.167036 -1.269063
v -14.200962 0.167036 -1.079529
v -14.496167 0.167036 -0.784324
v -14.685701 0.167036 -0.412343
v -14.751010 0.167036 -0.000000
v -14.685701 0.167036 0.412343
v -14.496167 0.167036 0.784324
v -14.200962 0.167036 1.079529
v -13.828981 0.167036 1.269062
v -13.416638 0.167036 1.334371
v -13.004295 0.167036 1.269062
v -12.632315 0.167036 1.079529
v -12.337110 0.167036 0.784324
v -12.147576 0.167036 0.412343
v -12.082268 0.167036 -0.000000
v -13.416638 -0.138789 0.000000
v -13.416638 0.082147 1.500000
v -13.880164 0.082147 1.426585
v -14.298316 0.082147 1.213526
v -14.630164 0.082147 0.881678
v -14.843224 0.082147 0.463526
v -14.916638 0.082147 0.000000
v -14.843224 0.082147 -0.463526
v -14.630164 0.082147 -0.881678
v -14.298317 0.082147 -1.213526
v -13.880164 0.082147 -1.426585
v -13.416638 0.082147 -1.500001
v -12.953113 0.082147 -1.426585
v -12.534960 0.082147 -1.213526
v -12.203112 0.082147 -0.881678
v -11.990053 0.082147 -0.463526
v -11.916638 0.082147 0.000000
v -11.990053 0.082147 0.463526
v -12.203113 0.082147 0.881678
v -12.534961 0.082147 1.213526
v -12.953113 0.082147 1.426585
v -13.416638 -0.091627 1.500000
v -13.880164 -0.091627 1.426585
v -14.298316 -0.091627 1.213526
v -14.630164 -0.091627 0.881678
v -14.843224 -0.091627 0.463526
v -14.916638 -0.091627 0.000000
v -14.843224 -0.091627 -0.463526
v -14.630164 -0.091627 -0.881678
v -14.298317 -0.091627 -1.213526
v -13.880164 -0.091627 -1.426585
v -13.416638 -0.091627 -1.500001
v -12.953113 -0.091627 -1.426585
v -12.534960 -0.091627 -1.213526
v -12.203112 -0.091627 -0.881678
v -11.990053 -0.091627 -0.463526
v -11.916638 -0.091627 0.000000
v -11.990053 -0.091627 0.463526
v -12.203113 -0.091627 0.881678
v -12.534961 -0.091627 1.213526
v -12.953113 -0.091627 1.426585
v -12.211028 0.167036 -0.391726
v -12.391085 0.167036 -0.745108
v -12.671531 0.167036 -1.025553
v -13.024913 0.167036 -1.205610
v -13.416638 0.167036 -1.267653
v -13.808364 0.167036 -1.205610
v -14.161746 0.167036 -1.025553
v -14.442191 0.167036 -0.745108
v -14.622248 0.167036 -0.391726
v -14.684291 0.167036 -0.000000
v -14.622248 0.167036 0.391726
v -14.442191 0.167036 0.745107
v -14.161746 0.167036 1.025553
v -13.808364 0.167036 1.205609
v -13.416638 0.167036 1.267653
v -13.024913 0.167036 1.205609
v -12.671531 0.167036 1.025553
v -12.391087 0.167036 0.745107
v -12.211030 0.167036 0.391726
v -12.148986 0.167036 -0.000000
v -12.211028 0.052651 -0.391726
v -12.391085 0.052651 -0.745108
v -13.416638 0.056724 -0.000000
v -12.671531 0.052651 -1.025553
v -13.024913 0.052651 -1.205610
v -13.416638 0.052651 -1.267653
v -13.808364 0.052651 -1.205610
v -14.161746 0.052651 -1.025553
v -14.442191 0.052651 -0.745108
v -14.622248 0.052651 -0.391726
v -14.684291 0.052651 -0.000000
v -14.622248 0.052651 0.391726
v -14.442191 0.052651 0.745107
v -14.161746 0.052651 1.025553
v -13.808364 0.052651 1.205609
v -13.416638 0.052651 1.267653
v -13.024913 0.052651 1.205609
v -12.671531 0.052651 1.025553
v -12.391087 0.052651 0.745107
v -12.211030 0.052651 0.391726
v -12.148986 0.052651 -0.000000
v -12.364701 0.060798 -0.341795
v -12.521808 0.060798 -0.650133
v -12.766506 0.060798 -0.894831
v -13.074843 0.060798 -1.051937
v -13.416638 0.060798 -1.106071
v -13.758433 0.060798 -1.051937
v -14.066771 0.060798 -0.894831
v -14.311469 0.060798 -0.650132
v -14.468575 0.060798 -0.341795
v -14.522710 0.060798 0.000000
v -14.468575 0.060798 0.341795
v -14.311469 0.060798 0.650132
v -14.066771 0.060798 0.894830
v -13.758433 0.060798 1.051936
v -13.416638 0.060798 1.106071
v -13.074843 0.060798 1.051936
v -12.766506 0.060798 0.894830
v -12.521809 0.060798 0.650132
v -12.364702 0.060798 0.341795
v -12.310568 0.060798 0.000000
v -12.588102 0.418364 -0.269208
v -12.711843 0.418364 -0.512064
v -12.904575 0.418364 -0.704795
v -13.147430 0.418364 -0.828536
v -13.416638 0.418364 -0.871174
v -13.685846 0.418364 -0.828536
v -13.928701 0.418364 -0.704795
v -14.121433 0.418364 -0.512063
v -14.245174 0.418364 -0.269208
v -14.287812 0.418364 -0.000000
v -14.245174 0.418364 0.269208
v -14.121433 0.418364 0.512063
v -13.928701 0.418364 0.704795
v -13.685846 0.418364 0.828536
v -13.416638 0.418364 0.871174
v -13.147430 0.418364 0.828536
v -12.904575 0.418364 0.704795
v -12.711843 0.418364 0.512063
v -12.588102 0.418364 0.269208
v -12.545465 0.418364 -0.000000
v -13.416638 0.459232 0.000000
v -14.311469 0.323972 0.650132
v -14.468575 0.323972 0.341795
v -14.522710 0.323972 0.000000
v -14.468575 0.323972 -0.341795
v -14.311469 0.323972 -0.650132
v -14.066771 0.323972 -0.894831
v -13.758433 0.323972 -1.051937
v -13.416638 0.323972 -1.106071
v -13.074843 0.323972 -1.051937
v -12.766506 0.323972 -0.894831
v -12.521808 0.323972 -0.650133
v -12.364701 0.323972 -0.341795
v -12.310568 0.323972 0.000000
v -12.364702 0.323972 0.341795
v -12.521809 0.323972 0.650132
v -12.766506 0.323972 0.894830
v -13.074843 0.323972 1.051936
v -13.416638 0.323972 1.106071
v -13.758433 0.323972 1.051936
v -14.066771 0.323972 0.894830
v -14.318220 0.401257 0.292942
v -14.364617 0.401257 -0.000000
v -14.318220 0.401257 -0.292942
v -14.183570 0.401257 -0.557208
v -13.973846 0.401257 -0.766932
v -13.709580 0.401257 -0.901582
v -13.416638 0.401257 -0.947980
v -13.123696 0.401257 -0.901582
v -12.859430 0.401257 -0.766932
v -12.649707 0.401257 -0.557209
v -12.515057 0.401257 -0.292942
v -12.468659 0.401257 -0.000000
v -12.515057 0.401257 0.292942
v -12.649707 0.401257 0.557208
v -12.859430 0.401257 0.766931
v -13.123696 0.401257 0.901582
v -13.416638 0.401257 0.947979
v -13.709580 0.401257 0.901582
v -13.973846 0.401257 0.766931
v -14.183570 0.401257 0.557208
vt 0.648603 0.107966
vt 0.626409 0.064408
vt 0.591842 0.029841
vt 0.548284 0.007647
vt 0.500000 -0.000000
vt 0.451716 0.007647
vt 0.408159 0.029841
vt 0.373591 0.064409
vt 0.351397 0.107966
vt 0.343750 0.156250
vt 0.351397 0.204534
vt 0.373591 0.248091
vt 0.408159 0.282659
vt 0.451716 0.304853
vt 0.500000 0.312500
vt 0.548284 0.304853
vt 0.591841 0.282659
vt 0.626409 0.248091
vt 0.648603 0.204534
vt 0.656250 0.156250
vt 0.375000 0.312500
vt 0.387500 0.312500
vt 0.400000 0.312500
vt 0.412500 0.312500
vt 0.425000 0.312500
vt 0.437500 0.312500
vt 0.450000 0.312500
vt 0.462500 0.312500
vt 0.475000 0.312500
vt 0.487500 0.312500
vt 0.500000 0.312500
vt 0.512500 0.312500
vt 0.525000 0.312500
vt 0.537500 0.312500
vt 0.550000 0.312500
vt 0.562500 0.312500
vt 0.575000 0.312500
vt 0.587500 0.312500
vt 0.600000 0.312500
vt 0.612500 0.312500
vt 0.625000 0.312500
vt 0.375000 0.687500
vt 0.387500 0.687500
vt 0.400000 0.687500
vt 0.412500 0.687500
vt 0.425000 0.687500
vt 0.437500 0.687500
vt 0.450000 0.687500
vt 0.462500 0.687500
vt 0.475000 0.687500
vt 0.487500 0.687500
vt 0.500000 0.687500
vt 0.512500 0.687500
vt 0.525000 0.687500
vt 0.537500 0.687500
vt 0.550000 0.687500
vt 0.562500 0.687500
vt 0.575000 0.687500
vt 0.587500 0.687500
vt 0.600000 0.687500
vt 0.612500 0.687500
vt 0.625000 0.687500
vt 0.648603 0.795466
vt 0.626409 0.751908
vt 0.591842 0.717341
vt 0.548284 0.695147
vt 0.500000 0.687500
vt 0.451716 0.695147
vt 0.408159 0.717341
vt 0.373591 0.751909
vt 0.351397 0.795466
vt 0.343750 0.843750
vt 0.351397 0.892034
vt 0.373591 0.935591
vt 0.408159 0.970159
vt 0.451716 0.992353
vt 0.500000 1.000000
vt 0.548284 0.992353
vt 0.591841 0.970159
vt 0.626409 0.935591
vt 0.648603 0.892034
vt 0.656250 0.843750
vt 0.500000 0.156250
vt 0.500000 0.843750
vt 0.550000 0.610978
vt 0.537500 0.610978
vt 0.525000 0.610978
vt 0.512500 0.610978
vt 0.500000 0.610978
vt 0.487500 0.610978
vt 0.475000 0.610978
vt 0.462500 0.610978
vt 0.450000 0.610978
vt 0.437500 0.610978
vt 0.425000 0.610978
vt 0.412500 0.610978
vt 0.400000 0.610978
vt 0.387500 0.610978
vt 0.625000 0.610978
vt 0.375000 0.610978
vt 0.612500 0.610978
vt 0.600000 0.610978
vt 0.587500 0.610978
vt 0.575000 0.610978
vt 0.562500 0.610978
vt 0.550000 0.376214
vt 0.537500 0.376214
vt 0.525000 0.376214
vt 0.512500 0.376214
vt 0.500000 0.376214
vt 0.487500 0.376214
vt 0.475000 0.376214
vt 0.462500 0.376214
vt 0.450000 0.376214
vt 0.437500 0.376214
vt 0.425000 0.376214
vt 0.412500 0.376214
vt 0.400000 0.376214
vt 0.387500 0.376214
vt 0.625000 0.376214
vt 0.375000 0.376214
vt 0.612500 0.376214
vt 0.600000 0.376214
vt 0.587500 0.376214
vt 0.575000 0.376214
vt 0.562500 0.376214
vt 0.648603 0.892034
vt 0.626409 0.935591
vt 0.591841 0.970159
vt 0.548284 0.992353
vt 0.500000 1.000000
vt 0.451716 0.992353
vt 0.408159 0.970159
vt 0.373591 0.935591
vt 0.351397 0.892034
vt 0.343750 0.843750
vt 0.351397 0.795466
vt 0.373591 0.751909
vt 0.408159 0.717341
vt 0.451716 0.695147
vt 0.500000 0.687500
vt 0.548284 0.695147
vt 0.591842 0.717341
vt 0.626409 0.751908
vt 0.648603 0.795466
vt 0.656250 0.843750
vt 0.648603 0.892034
vt 0.626409 0.935591
vt 0.591841 0.970159
vt 0.548284 0.992353
vt 0.500000 1.000000
vt 0.451716 0.992353
vt 0.408159 0.970159
vt 0.373591 0.935591
vt 0.351397 0.892034
vt 0.343750 0.843750
vt 0.351397 0.795466
vt 0.373591 0.751909
vt 0.408159 0.717341
vt 0.451716 0.695147
vt 0.500000 0.687500
vt 0.548284 0.695147
vt 0.591842 0.717341
vt 0.626409 0.751908
vt 0.648603 0.795466
vt 0.656250 0.843750
vt 0.375000 0.312500
vt 0.387500 0.312500
vt 0.387500 0.641853
vt 0.375000 0.641853
vt 0.400000 0.312500
vt 0.400000 0.641853
vt 0.412500 0.312500
vt 0.412500 0.641853
vt 0.425000 0.312500
vt 0.425000 0.641853
vt 0.437500 0.312500
vt 0.437500 0.641853
vt 0.450000 0.312500
vt 0.450000 0.641853
vt 0.462500 0.312500
vt 0.462500 0.641853
vt 0.475000 0.312500
vt 0.475000 0.641853
vt 0.487500 0.312500
vt 0.487500 0.641853
vt 0.500000 0.312500
vt 0.500000 0.641853
vt 0.512500 0.312500
vt 0.512500 0.641853
vt 0.525000 0.312500
vt 0.525000 0.641853
vt 0.537500 0.312500
vt 0.537500 0.641853
vt 0.550000 0.312500
vt 0.550000 0.641853
vt 0.562500 0.312500
vt 0.562500 0.641853
vt 0.575000 0.312500
vt 0.575000 0.641853
vt 0.587500 0.312500
vt 0.587500 0.641853
vt 0.600000 0.312500
vt 0.600000 0.641853
vt 0.612500 0.312500
vt 0.612500 0.641853
vt 0.625000 0.312500
vt 0.625000 0.641853
vt 0.626409 0.064408
vt 0.648603 0.107966
vt 0.500000 0.156250
vt 0.591842 0.029841
vt 0.548284 0.007647
vt 0.500000 -0.000000
vt 0.451716 0.007647
vt 0.408159 0.029841
vt 0.373591 0.064409
vt 0.351397 0.107966
vt 0.343750 0.156250
vt 0.351397 0.204534
vt 0.373591 0.248091
vt 0.408159 0.282659
vt 0.451716 0.304853
vt 0.500000 0.312500
vt 0.548284 0.304853
vt 0.591841 0.282659
vt 0.626409 0.248091
vt 0.648603 0.204534
vt 0.656250 0.156250
vt 0.648603 0.892034
vt 0.626409 0.935591
vt 0.500000 0.843750
vt 0.591841 0.970159
vt 0.548284 0.992353
vt 0.500000 1.000000
vt 0.451716 0.992353
vt 0.408159 0.970159
vt 0.373591 0.935591
vt 0.351397 0.892034
vt 0.343750 0.843750
vt 0.351397 0.795466
vt 0.373591 0.751909
vt 0.408159 0.717341
vt 0.451716 0.695147
vt 0.500000 0.687500
vt 0.548284 0.695147
vt 0.591842 0.717341
vt 0.626409 0.751908
vt 0.648603 0.795466
vt 0.656250 0.843750
vt 0.512500 0.679227
vt 0.500000 0.679227
vt 0.487500 0.679227
vt 0.475000 0.679227
vt 0.462500 0.679227
vt 0.450000 0.679227
vt 0.437500 0.679227
vt 0.425000 0.679227
vt 0.412500 0.679227
vt 0.400000 0.679227
vt 0.387500 0.679227
vt 0.375000 0.679227
vt 0.625000 0.679227
vt 0.612500 0.679227
vt 0.600000 0.679227
vt 0.587500 0.679227
vt 0.575000 0.679227
vt 0.562500 0.679227
vt 0.550000 0.679227
vt 0.537500 0.679227
vt 0.525000 0.679227
vt 0.500000 0.687500
vt 0.487500 0.687500
vt 0.475000 0.687500
vt 0.462500 0.687500
vt 0.450000 0.687500
vt 0.437500 0.687500
vt 0.425000 0.687500
vt 0.412500 0.687500
vt 0.400000 0.687500
vt 0.387500 0.687500
vt 0.375000 0.687500
vt 0.625000 0.687500
vt 0.612500 0.687500
vt 0.600000 0.687500
vt 0.587500 0.687500
vt 0.575000 0.687500
vt 0.562500 0.687500
vt 0.550000 0.687500
vt 0.537500 0.687500
vt 0.525000 0.687500
vt 0.512500 0.687500
vn 0.951057 0.000000 -0.309016
vn 0.809017 -0.000011 -0.587785
vn 0.809017 0.000000 -0.587785
vn 0.951057 0.000000 -0.309016
vn 0.587785 -0.000007 -0.809017
vn 0.587785 -0.000000 -0.809017
vn 0.309017 0.000006 -0.951057
vn 0.309017 0.000000 -0.951057
vn -0.000000 0.000002 -1.000000
vn -0.000000 0.000000 -1.000000
vn -0.309017 0.000000 -0.951056
vn -0.309017 0.000000 -0.951057
vn -0.587786 0.000000 -0.809017
vn -0.587786 0.000000 -0.809017
vn -0.809017 0.000002 -0.587785
vn -0.809017 0.000000 -0.587785
vn -0.951057 0.000002 -0.309017
vn -0.951057 0.000000 -0.309017
vn -1.000000 0.000000 0.000000
vn -1.000000 0.000000 0.000000
vn -0.951057 0.000000 0.309017
vn -0.951057 0.000000 0.309017
vn -0.809017 0.000000 0.587786
vn -0.809017 0.000000 0.587786
vn -0.587785 0.000001 0.809017
vn -0.587785 0.000000 0.809017
vn -0.309017 0.000001 0.951056
vn -0.309017 0.000000 0.951056
vn 0.000000 0.000000 1.000000
vn 0.000000 0.000000 1.000000
vn 0.309017 0.000000 0.951056
vn 0.309017 0.000000 0.951056
vn 0.587785 0.000000 0.809017
vn 0.587785 0.000000 0.809017
vn 0.809017 0.000000 0.587786
vn 0.809017 0.000000 0.587786
vn 0.951057 0.000000 0.309017
vn 0.951057 0.000000 0.309017
vn 1.000000 0.000000 -0.000000
vn 1.000000 0.000000 0.000000
vn 0.000000 -1.000000 0.000000
vn 0.000000 -1.000000 0.000000
vn 0.000000 -1.000000 0.000000
vn 0.000000 -1.000000 -0.000000
vn 0.000000 -1.000000 0.000000
vn 0.000000 -1.000000 0.000000
vn 0.000000 -1.000000 -0.000000
vn 0.000000 -1.000000 -0.000000
vn 0.000000 -1.000000 0.000000
vn 0.000000 -1.000000 0.000000
vn 0.000000 -1.000000 0.000000
vn 0.000000 -1.000000 0.000000
vn 0.000000 -1.000000 0.000000
vn 0.000000 -1.000000 0.000000
vn 0.000000 -1.000000 0.000000
vn 0.000000 -1.000000 0.000000
vn 0.000000 -1.000000 0.000000
vn 0.000000 -1.000000 0.000000
vn 0.000000 -1.000000 -0.000000
vn 0.000000 -1.000000 -0.000000
vn 0.000000 -1.000000 0.000000
vn 0.003056 0.999995 -0.000993
vn 0.002600 0.999995 -0.001889
vn 0.000000 1.000000 0.000000
vn 0.001889 0.999995 -0.002600
vn 0.000993 0.999995 -0.003056
vn 0.000000 0.999995 -0.003213
vn -0.000993 0.999995 -0.003056
vn -0.001889 0.999995 -0.002600
vn -0.002600 0.999995 -0.001889
vn -0.003056 0.999995 -0.000993
vn -0.003213 0.999995 -0.000000
vn -0.003056 0.999995 0.000993
vn -0.002600 0.999995 0.001889
vn -0.001889 0.999995 0.002600
vn -0.000993 0.999995 0.003056
vn 0.000000 0.999995 0.003213
vn 0.000993 0.999995 0.003056
vn 0.001889 0.999995 0.002600
vn 0.002600 0.999995 0.001889
vn 0.003056 0.999995 0.000993
vn 0.003213 0.999995 0.000000
vn -0.267591 0.500144 0.823560
vn 0.000000 0.500143 0.865943
vn 0.000000 0.930851 0.365400
vn -0.112915 0.930851 0.347516
vn -0.508988 0.500144 0.700562
vn -0.214777 0.930851 0.295615
vn -0.700563 0.500142 0.508989
vn -0.295616 0.930850 0.214778
vn -0.823561 0.500142 0.267591
vn -0.347516 0.930850 0.112915
vn -0.865943 0.500143 -0.000000
vn -0.365400 0.930851 -0.000000
vn -0.823561 0.500142 -0.267591
vn -0.347517 0.930850 -0.112915
vn -0.700562 0.500144 -0.508988
vn -0.295615 0.930851 -0.214776
vn -0.508988 0.500146 -0.700561
vn -0.214776 0.930851 -0.295614
vn -0.267591 0.500144 -0.823560
vn -0.112915 0.930851 -0.347516
vn -0.000000 0.500143 -0.865943
vn -0.000000 0.930850 -0.365401
vn 0.267591 0.500144 -0.823560
vn 0.112914 0.930851 -0.347515
vn 0.508987 0.500146 -0.700561
vn 0.214776 0.930851 -0.295614
vn 0.700561 0.500146 -0.508987
vn 0.295615 0.930850 -0.214777
vn 0.823560 0.500144 -0.267590
vn 0.347518 0.930850 -0.112915
vn 0.865943 0.500143 0.000000
vn 0.365401 0.930850 0.000000
vn 0.823560 0.500144 0.267591
vn 0.347516 0.930851 0.112915
vn 0.700561 0.500145 0.508988
vn 0.295615 0.930851 0.214777
vn 0.508988 0.500145 0.700562
vn 0.214777 0.930851 0.295615
vn 0.267591 0.500144 0.823560
vn 0.112915 0.930851 0.347516
vn 0.000000 1.000000 -0.000000
vn 0.000000 1.000000 -0.000000
vn 0.000000 1.000000 -0.000000
vn 0.000000 1.000000 -0.000000
vn 0.000000 1.000000 -0.000000
vn 0.000000 1.000000 -0.000000
vn 0.000000 1.000000 -0.000000
vn 0.000000 1.000000 -0.000000
vn 0.000000 1.000000 0.000000
vn 0.000000 1.000000 0.000000
vn 0.000000 1.000000 -0.000000
vn 0.000000 1.000000 0.000000
vn 0.000000 1.000000 0.000000
vn 0.000000 1.000000 0.000000
vn 0.000000 1.000000 0.000000
vn 0.000000 1.000000 0.000000
vn 0.000000 1.000000 -0.000000
vn 0.000000 1.000000 -0.000000
vn 0.000000 1.000000 0.000000
vn 0.000000 1.000000 0.000000
vn -0.951057 0.000000 0.309015
vn -0.809017 0.000000 0.587786
vn -0.809017 0.000000 0.587786
vn -0.951057 0.000000 0.309015
vn -0.587784 0.000000 0.809018
vn -0.587784 0.000000 0.809018
vn -0.309017 0.000000 0.951057
vn -0.309017 0.000000 0.951057
vn 0.000000 0.000000 1.000000
vn 0.000000 0.000000 1.000000
vn 0.309017 0.000000 0.951056
vn 0.309017 0.000000 0.951056
vn 0.587785 0.000000 0.809017
vn 0.587785 0.000000 0.809017
vn 0.809017 0.000000 0.587785
vn 0.809017 0.000000 0.587785
vn 0.951057 0.000000 0.309017
vn 0.951057 0.000000 0.309017
vn 1.000000 0.000000 0.000000
vn 1.000000 0.000000 0.000000
vn 0.951057 0.000000 -0.309017
vn 0.951057 0.000000 -0.309017
vn 0.809017 0.000000 -0.587785
vn 0.809017 0.000000 -0.587785
vn 0.587785 0.000000 -0.809017
vn 0.587785 0.000000 -0.809017
vn 0.309017 0.000000 -0.951057
vn 0.309017 0.000000 -0.951057
vn 0.000000 0.000000 -1.000000
vn 0.000000 0.000000 -1.000000
vn -0.309017 0.000000 -0.951057
vn -0.309017 0.000000 -0.951057
vn -0.587785 0.000000 -0.809017
vn -0.587785 0.000000 -0.809017
vn -0.809018 0.000000 -0.587784
vn -0.809018 0.000000 -0.587784
vn -0.951056 0.000000 -0.309018
vn -0.951056 0.000000 -0.309018
vn -1.000000 0.000000 -0.000002
vn -1.000000 0.000000 -0.000002
vn 0.951057 0.000000 -0.309016
vn 0.809016 0.000000 -0.587786
vn 0.749395 0.376778 -0.544468
vn 0.880968 0.376777 -0.286242
vn 0.587785 0.000000 -0.809017
vn 0.544468 0.376778 -0.749395
vn 0.309017 -0.000000 -0.951057
vn 0.286243 0.376779 -0.880967
vn -0.000000 -0.000000 -1.000000
vn -0.000000 0.376778 -0.926304
vn -0.309017 0.000000 -0.951057
vn -0.286244 0.376778 -0.880967
vn -0.587785 0.000000 -0.809017
vn -0.544468 0.376777 -0.749396
vn -0.809017 0.000000 -0.587785
vn -0.749395 0.376778 -0.544468
vn -0.951057 0.000000 -0.309017
vn -0.880967 0.376778 -0.286243
vn -1.000000 0.000000 0.000000
vn -0.926305 0.376775 0.000000
vn -0.951057 0.000000 0.309017
vn -0.880968 0.376777 0.286244
vn -0.809017 0.000000 0.587785
vn -0.749395 0.376778 0.544468
vn -0.587785 0.000000 0.809017
vn -0.544467 0.376778 0.749395
vn -0.309017 0.000000 0.951057
vn -0.286244 0.376778 0.880967
vn 0.000000 0.000000 1.000000
vn 0.000000 0.376778 0.926304
vn 0.309017 0.000000 0.951057
vn 0.286244 0.376778 0.880967
vn 0.587786 0.000000 0.809017
vn 0.544468 0.376777 0.749395
vn 0.809017 0.000000 0.587785
vn 0.749395 0.376778 0.544468
vn 0.951057 0.000000 0.309017
vn 0.880967 0.376779 0.286243
vn 1.000000 0.000000 0.000001
vn 0.926304 0.376778 0.000001
vn 0.002979 -0.999993 -0.002165
vn 0.003502 -0.999993 -0.001138
vn -0.000000 -1.000000 0.000000
vn 0.002165 -0.999993 -0.002979
vn 0.001138 -0.999993 -0.003502
vn -0.000000 -0.999993 -0.003683
vn -0.001138 -0.999993 -0.003502
vn -0.002165 -0.999993 -0.002979
vn -0.002979 -0.999993 -0.002165
vn -0.003502 -0.999993 -0.001138
vn -0.003683 -0.999993 0.000000
vn -0.003502 -0.999993 0.001138
vn -0.002979 -0.999993 0.002165
vn -0.002165 -0.999993 0.002979
vn -0.001138 -0.999993 0.003502
vn 0.000000 -0.999993 0.003683
vn 0.001138 -0.999993 0.003502
vn 0.002165 -0.999993 0.002979
vn 0.002979 -0.999993 0.002165
vn 0.003502 -0.999993 0.001138
vn 0.003683 -0.999993 0.000000
vn 0.044567 0.998902 -0.014480
vn 0.037911 0.998901 -0.027544
vn -0.000000 1.000000 -0.000000
vn 0.027544 0.998901 -0.037911
vn 0.014481 0.998901 -0.044567
vn 0.000000 0.998902 -0.046860
vn -0.014481 0.998901 -0.044567
vn -0.027544 0.998901 -0.037911
vn -0.037911 0.998901 -0.027544
vn -0.044567 0.998902 -0.014480
vn -0.046860 0.998901 0.000000
vn -0.044567 0.998902 0.014480
vn -0.037911 0.998901 0.027544
vn -0.027544 0.998901 0.037911
vn -0.014481 0.998902 0.044567
vn 0.000000 0.998902 0.046860
vn 0.014480 0.998901 0.044566
vn 0.027544 0.998901 0.037911
vn 0.037911 0.998901 0.027544
vn 0.044567 0.998901 0.014480
vn 0.046860 0.998901 -0.000000
vn -0.312611 0.922328 0.227125
vn -0.367496 0.922328 0.119407
vn -0.386409 0.922327 0.000000
vn -0.367496 0.922328 -0.119407
vn -0.312610 0.922328 -0.227124
vn -0.227125 0.922328 -0.312610
vn -0.119407 0.922328 -0.367496
vn -0.000000 0.922328 -0.386409
vn 0.119407 0.922328 -0.367495
vn 0.227125 0.922328 -0.312611
vn 0.312610 0.922328 -0.227125
vn 0.367496 0.922328 -0.119406
vn 0.386409 0.922328 0.000000
vn 0.367496 0.922328 0.119406
vn 0.312611 0.922328 0.227125
vn 0.227126 0.922328 0.312611
vn 0.119407 0.922328 0.367496
vn 0.000000 0.922328 0.386408
vn -0.119406 0.922328 0.367496
vn -0.227125 0.922328 0.312611
vn -0.206762 0.976082 0.067181
vn -0.217400 0.976083 0.000000
vn -0.206763 0.976082 -0.067181
vn -0.175884 0.976082 -0.127787
vn -0.127787 0.976082 -0.175883
vn -0.067182 0.976082 -0.206763
vn 0.000000 0.976082 -0.217404
vn 0.067182 0.976082 -0.206764
vn 0.127787 0.976082 -0.175884
vn 0.175883 0.976082 -0.127787
vn 0.206763 0.976082 -0.067181
vn 0.217403 0.976082 -0.000000
vn 0.206764 0.976082 0.067181
vn 0.175884 0.976082 0.127787
vn 0.127787 0.976082 0.175884
vn 0.067182 0.976082 0.206764
vn -0.000000 0.976082 0.217404
vn -0.067182 0.976082 0.206763
vn -0.127787 0.976082 0.175884
vn -0.175885 0.976081 0.127788
s 1
g pCylinder7
usemtl initialShadingGroup
f 1/21/1 2/22/2 75/119/3 76/121/4
f 2/22/2 3/23/5 74/118/6 75/119/3
f 3/23/5 4/24/7 73/117/8 74/118/6
f 4/24/7 5/25/9 72/116/10 73/117/8
f 5/25/9 6/26/11 71/115/12 72/116/10
f 6/26/11 7/27/13 70/114/14 71/115/12
f 7/27/13 8/28/15 69/113/16 70/114/14
f 8/28/15 9/29/17 68/112/18 69/113/16
f 9/29/17 10/30/19 67/111/20 68/112/18
f 10/30/19 11/31/21 66/110/22 67/111/20
f 11/31/21 12/32/23 65/109/24 66/110/22
f 12/32/23 13/33/25 64/108/26 65/109/24
f 13/33/25 14/34/27 63/107/28 64/108/26
f 14/34/27 15/35/29 62/106/30 63/107/28
f 15/35/29 16/36/31 81/126/32 62/106/30
f 16/36/31 17/37/33 80/125/34 81/126/32
f 17/37/33 18/38/35 79/124/36 80/125/34
f 18/38/35 19/39/37 78/123/38 79/124/36
f 19/39/37 20/40/39 77/122/40 78/123/38
f 20/40/39 1/41/1 76/120/4 77/122/40
s 2
f 2/2/41 1/1/42 41/83/43
f 3/3/44 2/2/41 41/83/43
f 4/4/45 3/3/44 41/83/43
f 5/5/46 4/4/45 41/83/43
f 6/6/47 5/5/46 41/83/43
f 7/7/48 6/6/47 41/83/43
f 8/8/49 7/7/48 41/83/43
f 9/9/50 8/8/49 41/83/43
f 10/10/51 9/9/50 41/83/43
f 11/11/52 10/10/51 41/83/43
f 12/12/53 11/11/52 41/83/43
f 13/13/54 12/12/53 41/83/43
f 14/14/55 13/13/54 41/83/43
f 15/15/56 14/14/55 41/83/43
f 16/16/57 15/15/56 41/83/43
f 17/17/58 16/16/57 41/83/43
f 18/18/59 17/17/58 41/83/43
f 19/19/60 18/18/59 41/83/43
f 20/20/61 19/19/60 41/83/43
f 1/1/42 20/20/61 41/83/43
s 3
f 102/147/62 103/148/63 104/84/64
f 103/148/63 105/149/65 104/84/64
f 105/149/65 106/150/66 104/84/64
f 106/150/66 107/151/67 104/84/64
f 107/151/67 108/152/68 104/84/64
f 108/152/68 109/153/69 104/84/64
f 109/153/69 110/154/70 104/84/64
f 110/154/70 111/155/71 104/84/64
f 111/155/71 112/156/72 104/84/64
f 112/156/72 113/157/73 104/84/64
f 113/157/73 114/158/74 104/84/64
f 114/158/74 115/159/75 104/84/64
f 115/159/75 116/160/76 104/84/64
f 116/160/76 117/161/77 104/84/64
f 117/161/77 118/162/78 104/84/64
f 118/162/78 119/163/79 104/84/64
f 119/163/79 120/164/80 104/84/64
f 120/164/80 121/165/81 104/84/64
f 121/165/81 122/166/82 104/84/64
f 122/166/82 102/147/62 104/84/64
s 1
f 43/86/83 42/85/84 35/56/85 34/55/86
f 44/87/87 43/86/83 34/55/86 33/54/88
f 45/88/89 44/87/87 33/54/88 32/53/90
f 46/89/91 45/88/89 32/53/90 31/52/92
f 47/90/93 46/89/91 31/52/92 30/51/94
f 48/91/95 47/90/93 30/51/94 29/50/96
f 49/92/97 48/91/95 29/50/96 28/49/98
f 50/93/99 49/92/97 28/49/98 27/48/100
f 51/94/101 50/93/99 27/48/100 26/47/102
f 52/95/103 51/94/101 26/47/102 25/46/104
f 53/96/105 52/95/103 25/46/104 24/45/106
f 54/97/107 53/96/105 24/45/106 23/44/108
f 55/98/109 54/97/107 23/44/108 22/43/110
f 56/100/111 55/98/109 22/43/110 21/42/112
f 57/101/113 56/99/111 21/62/112 40/61/114
f 58/102/115 57/101/113 40/61/114 39/60/116
f 59/103/117 58/102/115 39/60/116 38/59/118
f 60/104/119 59/103/117 38/59/118 37/58/120
f 61/105/121 60/104/119 37/58/120 36/57/122
f 42/85/84 61/105/121 36/57/122 35/56/85
f 63/107/28 62/106/30 42/85/84 43/86/83
f 64/108/26 63/107/28 43/86/83 44/87/87
f 65/109/24 64/108/26 44/87/87 45/88/89
f 66/110/22 65/109/24 45/88/89 46/89/91
f 67/111/20 66/110/22 46/89/91 47/90/93
f 68/112/18 67/111/20 47/90/93 48/91/95
f 69/113/16 68/112/18 48/91/95 49/92/97
f 70/114/14 69/113/16 49/92/97 50/93/99
f 71/115/12 70/114/14 50/93/99 51/94/101
f 72/116/10 71/115/12 51/94/101 52/95/103
f 73/117/8 72/116/10 52/95/103 53/96/105
f 74/118/6 73/117/8 53/96/105 54/97/107
f 75/119/3 74/118/6 54/97/107 55/98/109
f 76/121/4 75/119/3 55/98/109 56/100/111
f 77/122/40 76/120/4 56/99/111 57/101/113
f 78/123/38 77/122/40 57/101/113 58/102/115
f 79/124/36 78/123/38 58/102/115 59/103/117
f 80/125/34 79/124/36 59/103/117 60/104/119
f 81/126/32 80/125/34 60/104/119 61/105/121
f 62/106/30 81/126/32 61/105/121 42/85/84
f 21/81/112 22/80/110 83/128/123 82/127/124
f 22/80/110 23/79/108 84/129/125 83/128/123
f 23/79/108 24/78/106 85/130/126 84/129/125
f 24/78/106 25/77/104 86/131/127 85/130/126
f 25/77/104 26/76/102 87/132/128 86/131/127
f 26/76/102 27/75/100 88/133/129 87/132/128
f 27/75/100 28/74/98 89/134/130 88/133/129
f 28/74/98 29/73/96 90/135/131 89/134/130
f 29/73/96 30/72/94 91/136/132 90/135/131
f 30/72/94 31/71/92 92/137/133 91/136/132
f 31/71/92 32/70/90 93/138/134 92/137/133
f 32/70/90 33/69/88 94/139/135 93/138/134
f 33/69/88 34/68/86 95/140/136 94/139/135
f 34/68/86 35/67/85 96/141/137 95/140/136
f 35/67/85 36/66/122 97/142/138 96/141/137
f 36/66/122 37/65/120 98/143/139 97/142/138
f 37/65/120 38/64/118 99/144/140 98/143/139
f 38/64/118 39/63/116 100/145/141 99/144/140
f 39/63/116 40/82/114 101/146/142 100/145/141
f 40/82/114 21/81/112 82/127/124 101/146/142
s 4
f 82/127/143 83/128/144 103/148/145 102/147/146
f 83/128/144 84/129/147 105/149/148 103/148/145
f 84/129/147 85/130/149 106/150/150 105/149/148
f 85/130/149 86/131/151 107/151/152 106/150/150
f 86/131/151 87/132/153 108/152/154 107/151/152
f 87/132/153 88/133/155 109/153/156 108/152/154
f 88/133/155 89/134/157 110/154/158 109/153/156
f 89/134/157 90/135/159 111/155/160 110/154/158
f 90/135/159 91/136/161 112/156/162 111/155/160
f 91/136/161 92/137/163 113/157/164 112/156/162
f 92/137/163 93/138/165 114/158/166 113/157/164
f 93/138/165 94/139/167 115/159/168 114/158/166
f 94/139/167 95/140/169 116/160/170 115/159/168
f 95/140/169 96/141/171 117/161/172 116/160/170
f 96/141/171 97/142/173 118/162/174 117/161/172
f 97/142/173 98/143/175 119/163/176 118/162/174
f 98/143/175 99/144/177 120/164/178 119/163/176
f 99/144/177 100/145/179 121/165/180 120/164/178
f 100/145/179 101/146/181 122/166/182 121/165/180
f 101/146/181 82/127/143 102/147/146 122/166/182
s 5
f 123/167/183 124/168/184 174/169/185 175/170/186
f 124/168/184 125/171/187 173/172/188 174/169/185
f 125/171/187 126/173/189 172/174/190 173/172/188
f 126/173/189 127/175/191 171/176/192 172/174/190
f 127/175/191 128/177/193 170/178/194 171/176/192
f 128/177/193 129/179/195 169/180/196 170/178/194
f 129/179/195 130/181/197 168/182/198 169/180/196
f 130/181/197 131/183/199 167/184/200 168/182/198
f 131/183/199 132/185/201 166/186/202 167/184/200
f 132/185/201 133/187/203 165/188/204 166/186/202
f 133/187/203 134/189/205 164/190/206 165/188/204
f 134/189/205 135/191/207 183/192/208 164/190/206
f 135/191/207 136/193/209 182/194/210 183/192/208
f 136/193/209 137/195/211 181/196/212 182/194/210
f 137/195/211 138/197/213 180/198/214 181/196/212
f 138/197/213 139/199/215 179/200/216 180/198/214
f 139/199/215 140/201/217 178/202/218 179/200/216
f 140/201/217 141/203/219 177/204/220 178/202/218
f 141/203/219 142/205/221 176/206/222 177/204/220
f 142/205/221 123/207/183 175/208/186 176/206/222
s 6
f 124/209/223 123/210/224 104/211/225
f 125/212/226 124/209/223 104/211/225
f 126/213/227 125/212/226 104/211/225
f 127/214/228 126/213/227 104/211/225
f 128/215/229 127/214/228 104/211/225
f 129/216/230 128/215/229 104/211/225
f 130/217/231 129/216/230 104/211/225
f 131/218/232 130/217/231 104/211/225
f 132/219/233 131/218/232 104/211/225
f 133/220/234 132/219/233 104/211/225
f 134/221/235 133/220/234 104/211/225
f 135/222/236 134/221/235 104/211/225
f 136/223/237 135/222/236 104/211/225
f 137/224/238 136/223/237 104/211/225
f 138/225/239 137/224/238 104/211/225
f 139/226/240 138/225/239 104/211/225
f 140/227/241 139/226/240 104/211/225
f 141/228/242 140/227/241 104/211/225
f 142/229/243 141/228/242 104/211/225
f 123/210/224 142/229/243 104/211/225
s 7
f 143/230/244 144/231/245 163/232/246
f 144/231/245 145/233/247 163/232/246
f 145/233/247 146/234/248 163/232/246
f 146/234/248 147/235/249 163/232/246
f 147/235/249 148/236/250 163/232/246
f 148/236/250 149/237/251 163/232/246
f 149/237/251 150/238/252 163/232/246
f 150/238/252 151/239/253 163/232/246
f 151/239/253 152/240/254 163/232/246
f 152/240/254 153/241/255 163/232/246
f 153/241/255 154/242/256 163/232/246
f 154/242/256 155/243/257 163/232/246
f 155/243/257 156/244/258 163/232/246
f 156/244/258 157/245/259 163/232/246
f 157/245/259 158/246/260 163/232/246
f 158/246/260 159/247/261 163/232/246
f 159/247/261 160/248/262 163/232/246
f 160/248/262 161/249/263 163/232/246
f 161/249/263 162/250/264 163/232/246
f 162/250/264 143/230/244 163/232/246
s 5
f 165/188/204 164/190/206 203/251/265 184/252/266
f 166/186/202 165/188/204 184/252/266 185/253/267
f 167/184/200 166/186/202 185/253/267 186/254/268
f 168/182/198 167/184/200 186/254/268 187/255/269
f 169/180/196 168/182/198 187/255/269 188/256/270
f 170/178/194 169/180/196 188/256/270 189/257/271
f 171/176/192 170/178/194 189/257/271 190/258/272
f 172/174/190 171/176/192 190/258/272 191/259/273
f 173/172/188 172/174/190 191/259/273 192/260/274
f 174/169/185 173/172/188 192/260/274 193/261/275
f 175/170/186 174/169/185 193/261/275 194/262/276
f 176/206/222 175/208/186 194/263/276 195/264/277
f 177/204/220 176/206/222 195/264/277 196/265/278
f 178/202/218 177/204/220 196/265/278 197/266/279
f 179/200/216 178/202/218 197/266/279 198/267/280
f 180/198/214 179/200/216 198/267/280 199/268/281
f 181/196/212 180/198/214 199/268/281 200/269/282
f 182/194/210 181/196/212 200/269/282 201/270/283
f 183/192/208 182/194/210 201/270/283 202/271/284
f 164/190/206 183/192/208 202/271/284 203/251/265
f 185/253/267 184/252/266 153/272/285 152/273/286
f 186/254/268 185/253/267 152/273/286 151/274/287
f 187/255/269 186/254/268 151/274/287 150/275/288
f 188/256/270 187/255/269 150/275/288 149/276/289
f 189/257/271 188/256/270 149/276/289 148/277/290
f 190/258/272 189/257/271 148/277/290 147/278/291
f 191/259/273 190/258/272 147/278/291 146/279/292
f 192/260/274 191/259/273 146/279/292 145/280/293
f 193/261/275 192/260/274 145/280/293 144/281/294
f 194/262/276 193/261/275 144/281/294 143/282/295
f 195/264/277 194/263/276 143/283/295 162/284/296
f 196/265/278 195/264/277 162/284/296 161/285/297
f 197/266/279 196/265/278 161/285/297 160/286/298
f 198/267/280 197/266/279 160/286/298 159/287/299
f 199/268/281 198/267/280 159/287/299 158/288/300
f 200/269/282 199/268/281 158/288/300 157/289/301
f 201/270/283 200/269/282 157/289/301 156/290/302
f 202/271/284 201/270/283 156/290/302 155/291/303
f 203/251/265 202/271/284 155/291/303 154/292/304
f 184/252/266 203/251/265 154/292/304 153/272/285
