# This file uses centimeters as units for non-parametric coordinates.

mtllib ButtonPressed_WIP1.mtl
g default
v -9.212041 -0.039647 3.433650
v -9.369148 -0.039647 3.125312
v -9.613846 -0.039647 2.880614
v -9.922183 -0.039647 2.723508
v -10.263978 -0.039647 2.669374
v -10.605773 -0.039647 2.723508
v -10.914111 -0.039647 2.880615
v -11.158809 -0.039647 3.125312
v -11.315915 -0.039647 3.433651
v -11.370050 -0.039647 3.775445
v -11.315915 -0.039647 4.117240
v -11.158809 -0.039647 4.425578
v -10.914111 -0.039647 4.670275
v -10.605773 -0.039647 4.827381
v -10.263978 -0.039647 4.881516
v -9.922183 -0.039647 4.827381
v -9.613846 -0.039647 4.670275
v -9.369149 -0.039647 4.425578
v -9.212042 -0.039647 4.117240
v -9.157908 -0.039647 3.775445
v -9.435442 0.101600 3.506238
v -9.559184 0.101600 3.263382
v -9.751915 0.101600 3.070650
v -9.994770 0.101600 2.946909
v -10.263978 0.101600 2.904271
v -10.533186 0.101600 2.946909
v -10.776041 0.101600 3.070650
v -10.968773 0.101600 3.263382
v -11.092514 0.101600 3.506238
v -11.135152 0.101600 3.775445
v -11.092514 0.101600 4.044653
v -10.968773 0.101600 4.287509
v -10.776041 0.101600 4.480240
v -10.533186 0.101600 4.603981
v -10.263978 0.101600 4.646619
v -9.994770 0.101600 4.603981
v -9.751915 0.101600 4.480240
v -9.559184 0.101600 4.287509
v -9.435442 0.101600 4.044653
v -9.392805 0.101600 3.775445
v -10.263978 -0.039647 3.775445
v -10.263978 0.117744 3.775445
v -11.158809 0.064313 4.425578
v -11.315915 0.064313 4.117240
v -11.370050 0.064313 3.775445
v -11.315915 0.064313 3.433651
v -11.158809 0.064313 3.125312
v -10.914111 0.064313 2.880615
v -10.605773 0.064313 2.723508
v -10.263978 0.064313 2.669374
v -9.922183 0.064313 2.723508
v -9.613846 0.064313 2.880614
v -9.369148 0.064313 3.125312
v -9.212041 0.064313 3.433650
v -9.157908 0.064313 3.775445
v -9.212042 0.064313 4.117240
v -9.369149 0.064313 4.425578
v -9.613846 0.064313 4.670275
v -9.922183 0.064313 4.827381
v -10.263978 0.064313 4.881516
v -10.605773 0.064313 4.827381
v -10.914111 0.064313 4.670275
v -11.165560 0.094842 4.068387
v -11.211957 0.094842 3.775445
v -11.165560 0.094842 3.482504
v -11.030910 0.094842 3.218237
v -10.821186 0.094842 3.008513
v -10.556920 0.094842 2.873863
v -10.263978 0.094842 2.827466
v -9.971036 0.094842 2.873863
v -9.706770 0.094842 3.008513
v -9.497047 0.094842 3.218237
v -9.362397 0.094842 3.482504
v -9.315999 0.094842 3.775445
v -9.362397 0.094842 4.068387
v -9.497047 0.094842 4.332654
v -9.706770 0.094842 4.542376
v -9.971036 0.094842 4.677027
v -10.263978 0.094842 4.723425
v -10.556920 0.094842 4.677027
v -10.821186 0.094842 4.542376
v -11.030910 0.094842 4.332654
v -8.837393 -0.138789 3.311919
v -9.050452 -0.138789 2.893767
v -9.382300 -0.138789 2.561919
v -9.800453 -0.138789 2.348859
v -10.263978 -0.138789 2.275445
v -10.727504 -0.138789 2.348859
v -11.145657 -0.138789 2.561919
v -11.477504 -0.138789 2.893767
v -11.690564 -0.138789 3.311920
v -11.763978 -0.138789 3.775445
v -11.690564 -0.138789 4.238970
v -11.477504 -0.138789 4.657123
v -11.145656 -0.138789 4.988970
v -10.727504 -0.138789 5.202030
v -10.263978 -0.138789 5.275446
v -9.800453 -0.138789 5.202030
v -9.382301 -0.138789 4.988970
v -9.050453 -0.138789 4.657123
v -8.837393 -0.138789 4.238970
v -8.763978 -0.138789 3.775445
v -8.994915 0.167036 3.363102
v -9.184449 0.167036 2.991121
v -9.479655 0.167036 2.695916
v -9.851635 0.167036 2.506383
v -10.263978 0.167036 2.441073
v -10.676321 0.167036 2.506383
v -11.048302 0.167036 2.695916
v -11.343507 0.167036 2.991121
v -11.533041 0.167036 3.363102
v -11.598350 0.167036 3.775445
v -11.533041 0.167036 4.187789
v -11.343507 0.167036 4.559768
v -11.048302 0.167036 4.854974
v -10.676321 0.167036 5.044508
v -10.263978 0.167036 5.109816
v -9.851635 0.167036 5.044508
v -9.479655 0.167036 4.854973
v -9.184450 0.167036 4.559768
v -8.994916 0.167036 4.187789
v -8.929608 0.167036 3.775445
v -10.263978 -0.138789 3.775445
v -10.263978 0.082147 5.275446
v -10.727504 0.082147 5.202030
v -11.145656 0.082147 4.988970
v -11.477504 0.082147 4.657123
v -11.690564 0.082147 4.238970
v -11.763978 0.082147 3.775445
v -11.690564 0.082147 3.311920
v -11.477504 0.082147 2.893767
v -11.145657 0.082147 2.561919
v -10.727504 0.082147 2.348859
v -10.263978 0.082147 2.275445
v -9.800453 0.082147 2.348859
v -9.382300 0.082147 2.561919
v -9.050452 0.082147 2.893767
v -8.837393 0.082147 3.311919
v -8.763978 0.082147 3.775445
v -8.837393 0.082147 4.238970
v -9.050453 0.082147 4.657123
v -9.382301 0.082147 4.988970
v -9.800453 0.082147 5.202030
v -10.263978 -0.091627 5.275446
v -10.727504 -0.091627 5.202030
v -11.145656 -0.091627 4.988970
v -11.477504 -0.091627 4.657123
v -11.690564 -0.091627 4.238970
v -11.763978 -0.091627 3.775445
v -11.690564 -0.091627 3.311920
v -11.477504 -0.091627 2.893767
v -11.145657 -0.091627 2.561919
v -10.727504 -0.091627 2.348859
v -10.263978 -0.091627 2.275445
v -9.800453 -0.091627 2.348859
v -9.382300 -0.091627 2.561919
v -9.050452 -0.091627 2.893767
v -8.837393 -0.091627 3.311919
v -8.763978 -0.091627 3.775445
v -8.837393 -0.091627 4.238970
v -9.050453 -0.091627 4.657123
v -9.382301 -0.091627 4.988970
v -9.800453 -0.091627 5.202030
v -9.058368 0.167036 3.383719
v -9.238425 0.167036 3.030337
v -9.518871 0.167036 2.749892
v -9.872253 0.167036 2.569835
v -10.263978 0.167036 2.507792
v -10.655704 0.167036 2.569835
v -11.009086 0.167036 2.749892
v -11.289531 0.167036 3.030337
v -11.469588 0.167036 3.383719
v -11.531631 0.167036 3.775445
v -11.469588 0.167036 4.167171
v -11.289531 0.167036 4.520552
v -11.009086 0.167036 4.800997
v -10.655704 0.167036 4.981054
v -10.263978 0.167036 5.043098
v -9.872253 0.167036 4.981054
v -9.518871 0.167036 4.800997
v -9.238427 0.167036 4.520552
v -9.058370 0.167036 4.167171
v -8.996326 0.167036 3.775445
v -9.058368 0.052651 3.383719
v -9.238425 0.052651 3.030337
v -10.263978 0.052651 3.775445
v -9.518871 0.052651 2.749892
v -9.872253 0.052651 2.569835
v -10.263978 0.052651 2.507792
v -10.655704 0.052651 2.569835
v -11.009086 0.052651 2.749892
v -11.289531 0.052651 3.030337
v -11.469588 0.052651 3.383719
v -11.531631 0.052651 3.775445
v -11.469588 0.052651 4.167171
v -11.289531 0.052651 4.520552
v -11.009086 0.052651 4.800997
v -10.655704 0.052651 4.981054
v -10.263978 0.052651 5.043098
v -9.872253 0.052651 4.981054
v -9.518871 0.052651 4.800997
v -9.238427 0.052651 4.520552
v -9.058370 0.052651 4.167171
v -8.996326 0.052651 3.775445
vt 0.648603 0.107966
vt 0.626409 0.064408
vt 0.591842 0.029841
vt 0.548284 0.007647
vt 0.500000 -0.000000
vt 0.451716 0.007647
vt 0.408159 0.029841
vt 0.373591 0.064409
vt 0.351397 0.107966
vt 0.343750 0.156250
vt 0.351397 0.204534
vt 0.373591 0.248091
vt 0.408159 0.282659
vt 0.451716 0.304853
vt 0.500000 0.312500
vt 0.548284 0.304853
vt 0.591841 0.282659
vt 0.626409 0.248091
vt 0.648603 0.204534
vt 0.656250 0.156250
vt 0.375000 0.312500
vt 0.387500 0.312500
vt 0.400000 0.312500
vt 0.412500 0.312500
vt 0.425000 0.312500
vt 0.437500 0.312500
vt 0.450000 0.312500
vt 0.462500 0.312500
vt 0.475000 0.312500
vt 0.487500 0.312500
vt 0.500000 0.312500
vt 0.512500 0.312500
vt 0.525000 0.312500
vt 0.537500 0.312500
vt 0.550000 0.312500
vt 0.562500 0.312500
vt 0.575000 0.312500
vt 0.587500 0.312500
vt 0.600000 0.312500
vt 0.612500 0.312500
vt 0.625000 0.312500
vt 0.375000 0.687500
vt 0.387500 0.687500
vt 0.400000 0.687500
vt 0.412500 0.687500
vt 0.425000 0.687500
vt 0.437500 0.687500
vt 0.450000 0.687500
vt 0.462500 0.687500
vt 0.475000 0.687500
vt 0.487500 0.687500
vt 0.500000 0.687500
vt 0.512500 0.687500
vt 0.525000 0.687500
vt 0.537500 0.687500
vt 0.550000 0.687500
vt 0.562500 0.687500
vt 0.575000 0.687500
vt 0.587500 0.687500
vt 0.600000 0.687500
vt 0.612500 0.687500
vt 0.625000 0.687500
vt 0.648603 0.795466
vt 0.626409 0.751908
vt 0.591842 0.717341
vt 0.548284 0.695147
vt 0.500000 0.687500
vt 0.451716 0.695147
vt 0.408159 0.717341
vt 0.373591 0.751909
vt 0.351397 0.795466
vt 0.343750 0.843750
vt 0.351397 0.892034
vt 0.373591 0.935591
vt 0.408159 0.970159
vt 0.451716 0.992353
vt 0.500000 1.000000
vt 0.548284 0.992353
vt 0.591841 0.970159
vt 0.626409 0.935591
vt 0.648603 0.892034
vt 0.656250 0.843750
vt 0.500000 0.156250
vt 0.500000 0.843750
vt 0.512500 0.641853
vt 0.500000 0.641853
vt 0.487500 0.641853
vt 0.475000 0.641853
vt 0.462500 0.641853
vt 0.450000 0.641853
vt 0.437500 0.641853
vt 0.425000 0.641853
vt 0.412500 0.641853
vt 0.400000 0.641853
vt 0.387500 0.641853
vt 0.625000 0.641853
vt 0.375000 0.641853
vt 0.612500 0.641853
vt 0.600000 0.641853
vt 0.587500 0.641853
vt 0.575000 0.641853
vt 0.562500 0.641853
vt 0.550000 0.641853
vt 0.537500 0.641853
vt 0.525000 0.641853
vt 0.500000 0.679227
vt 0.487500 0.679227
vt 0.475000 0.679227
vt 0.462500 0.679227
vt 0.450000 0.679227
vt 0.437500 0.679227
vt 0.425000 0.679227
vt 0.412500 0.679227
vt 0.400000 0.679227
vt 0.387500 0.679227
vt 0.625000 0.679227
vt 0.375000 0.679227
vt 0.612500 0.679227
vt 0.600000 0.679227
vt 0.587500 0.679227
vt 0.575000 0.679227
vt 0.562500 0.679227
vt 0.550000 0.679227
vt 0.537500 0.679227
vt 0.525000 0.679227
vt 0.512500 0.679227
vt 0.375000 0.312500
vt 0.387500 0.312500
vt 0.387500 0.376214
vt 0.375000 0.376214
vt 0.400000 0.312500
vt 0.400000 0.376214
vt 0.412500 0.312500
vt 0.412500 0.376214
vt 0.425000 0.312500
vt 0.425000 0.376214
vt 0.437500 0.312500
vt 0.437500 0.376214
vt 0.450000 0.312500
vt 0.450000 0.376214
vt 0.462500 0.312500
vt 0.462500 0.376214
vt 0.475000 0.312500
vt 0.475000 0.376214
vt 0.487500 0.312500
vt 0.487500 0.376214
vt 0.500000 0.312500
vt 0.500000 0.376214
vt 0.512500 0.312500
vt 0.512500 0.376214
vt 0.525000 0.312500
vt 0.525000 0.376214
vt 0.537500 0.312500
vt 0.537500 0.376214
vt 0.550000 0.312500
vt 0.550000 0.376214
vt 0.562500 0.312500
vt 0.562500 0.376214
vt 0.575000 0.312500
vt 0.575000 0.376214
vt 0.587500 0.312500
vt 0.587500 0.376214
vt 0.600000 0.312500
vt 0.600000 0.376214
vt 0.612500 0.312500
vt 0.612500 0.376214
vt 0.625000 0.312500
vt 0.625000 0.376214
vt 0.626409 0.064408
vt 0.648603 0.107966
vt 0.500000 0.156250
vt 0.591842 0.029841
vt 0.548284 0.007647
vt 0.500000 -0.000000
vt 0.451716 0.007647
vt 0.408159 0.029841
vt 0.373591 0.064409
vt 0.351397 0.107966
vt 0.343750 0.156250
vt 0.351397 0.204534
vt 0.373591 0.248091
vt 0.408159 0.282659
vt 0.451716 0.304853
vt 0.500000 0.312500
vt 0.548284 0.304853
vt 0.591841 0.282659
vt 0.626409 0.248091
vt 0.648603 0.204534
vt 0.656250 0.156250
vt 0.648603 0.892034
vt 0.626409 0.935591
vt 0.500000 0.843750
vt 0.591841 0.970159
vt 0.548284 0.992353
vt 0.500000 1.000000
vt 0.451716 0.992353
vt 0.408159 0.970159
vt 0.373591 0.935591
vt 0.351397 0.892034
vt 0.343750 0.843750
vt 0.351397 0.795466
vt 0.373591 0.751909
vt 0.408159 0.717341
vt 0.451716 0.695147
vt 0.500000 0.687500
vt 0.548284 0.695147
vt 0.591842 0.717341
vt 0.626409 0.751908
vt 0.648603 0.795466
vt 0.656250 0.843750
vt 0.537500 0.610978
vt 0.550000 0.610978
vt 0.550000 0.687500
vt 0.537500 0.687500
vt 0.525000 0.610978
vt 0.525000 0.687500
vt 0.512500 0.610978
vt 0.512500 0.687500
vt 0.500000 0.610978
vt 0.500000 0.687500
vt 0.487500 0.610978
vt 0.487500 0.687500
vt 0.475000 0.610978
vt 0.475000 0.687500
vt 0.462500 0.610978
vt 0.462500 0.687500
vt 0.450000 0.610978
vt 0.450000 0.687500
vt 0.437500 0.610978
vt 0.437500 0.687500
vt 0.425000 0.610978
vt 0.425000 0.687500
vt 0.412500 0.610978
vt 0.412500 0.687500
vt 0.400000 0.610978
vt 0.400000 0.687500
vt 0.387500 0.610978
vt 0.387500 0.687500
vt 0.375000 0.610978
vt 0.375000 0.687500
vt 0.612500 0.610978
vt 0.625000 0.610978
vt 0.625000 0.687500
vt 0.612500 0.687500
vt 0.600000 0.610978
vt 0.600000 0.687500
vt 0.587500 0.610978
vt 0.587500 0.687500
vt 0.575000 0.610978
vt 0.575000 0.687500
vt 0.562500 0.610978
vt 0.562500 0.687500
vt 0.648603 0.892034
vt 0.626409 0.935591
vt 0.626409 0.935591
vt 0.648603 0.892034
vt 0.591841 0.970159
vt 0.591841 0.970159
vt 0.548284 0.992353
vt 0.548284 0.992353
vt 0.500000 1.000000
vt 0.500000 1.000000
vt 0.451716 0.992353
vt 0.451716 0.992353
vt 0.408159 0.970159
vt 0.408159 0.970159
vt 0.373591 0.935591
vt 0.373591 0.935591
vt 0.351397 0.892034
vt 0.351397 0.892034
vt 0.343750 0.843750
vt 0.343750 0.843750
vt 0.351397 0.795466
vt 0.351397 0.795466
vt 0.373591 0.751909
vt 0.373591 0.751909
vt 0.408159 0.717341
vt 0.408159 0.717341
vt 0.451716 0.695147
vt 0.451716 0.695147
vt 0.500000 0.687500
vt 0.500000 0.687500
vt 0.548284 0.695147
vt 0.548284 0.695147
vt 0.591842 0.717341
vt 0.591842 0.717341
vt 0.626409 0.751908
vt 0.626409 0.751908
vt 0.648603 0.795466
vt 0.648603 0.795466
vt 0.656250 0.843750
vt 0.656250 0.843750
vn 0.951057 0.000000 -0.309016
vn 0.809017 0.000000 -0.587786
vn 0.565784 0.714781 -0.411067
vn 0.665120 0.714781 -0.216110
vn 0.587785 0.000000 -0.809017
vn 0.411067 0.714781 -0.565785
vn 0.309017 0.000000 -0.951057
vn 0.216110 0.714781 -0.665120
vn 0.000000 0.000000 -1.000000
vn 0.000000 0.714781 -0.699348
vn -0.309017 0.000000 -0.951056
vn -0.216111 0.714780 -0.665120
vn -0.587785 0.000000 -0.809017
vn -0.411067 0.714781 -0.565785
vn -0.809017 0.000000 -0.587785
vn -0.565785 0.714780 -0.411067
vn -0.951057 0.000000 -0.309017
vn -0.665119 0.714782 -0.216110
vn -1.000000 0.000000 0.000000
vn -0.699348 0.714782 0.000000
vn -0.951057 0.000000 0.309017
vn -0.665119 0.714782 0.216110
vn -0.809017 0.000000 0.587785
vn -0.565785 0.714780 0.411067
vn -0.587785 0.000000 0.809018
vn -0.411066 0.714781 0.565785
vn -0.309017 0.000000 0.951056
vn -0.216111 0.714780 0.665121
vn 0.000000 0.000000 1.000000
vn -0.000000 0.714780 0.699350
vn 0.309017 0.000000 0.951056
vn 0.216111 0.714780 0.665121
vn 0.587785 0.000000 0.809017
vn 0.411067 0.714780 0.565786
vn 0.809017 0.000000 0.587785
vn 0.565786 0.714780 0.411067
vn 0.951057 0.000000 0.309017
vn 0.665121 0.714780 0.216111
vn 1.000000 0.000000 0.000001
vn 0.699348 0.714781 0.000001
vn 0.000000 -1.000000 -0.000000
vn 0.000000 -1.000000 -0.000000
vn 0.000000 -1.000000 0.000000
vn 0.000000 -1.000000 0.000000
vn 0.000000 -1.000000 -0.000000
vn 0.000000 -1.000000 0.000000
vn 0.000000 -1.000000 0.000000
vn 0.000000 -1.000000 0.000000
vn 0.000000 -1.000000 0.000000
vn 0.000000 -1.000000 0.000000
vn 0.000000 -1.000000 0.000000
vn 0.000000 -1.000000 0.000000
vn 0.000000 -1.000000 0.000000
vn 0.000000 -1.000000 -0.000000
vn 0.000000 -1.000000 0.000000
vn 0.000000 -1.000000 0.000000
vn 0.000000 -1.000000 0.000000
vn 0.000000 -1.000000 0.000000
vn 0.000000 -1.000000 0.000000
vn 0.000000 -1.000000 0.000000
vn 0.000000 -1.000000 0.000000
vn 0.017621 0.999828 -0.005725
vn 0.014989 0.999828 -0.010890
vn -0.000000 1.000000 -0.000000
vn 0.010890 0.999828 -0.014989
vn 0.005725 0.999828 -0.017621
vn 0.000000 0.999828 -0.018528
vn -0.005725 0.999828 -0.017621
vn -0.010890 0.999828 -0.014989
vn -0.014989 0.999828 -0.010890
vn -0.017621 0.999828 -0.005725
vn -0.018528 0.999828 0.000000
vn -0.017621 0.999828 0.005725
vn -0.014989 0.999828 0.010890
vn -0.010891 0.999828 0.014990
vn -0.005725 0.999828 0.017621
vn 0.000000 0.999828 0.018528
vn 0.005725 0.999828 0.017621
vn 0.010891 0.999828 0.014989
vn 0.014989 0.999828 0.010890
vn 0.017621 0.999828 0.005725
vn 0.018528 0.999828 0.000000
vn -0.132248 0.986549 0.096084
vn -0.155467 0.986549 0.050514
vn -0.163467 0.986549 0.000000
vn -0.155467 0.986549 -0.050514
vn -0.132248 0.986549 -0.096084
vn -0.096084 0.986549 -0.132248
vn -0.050514 0.986549 -0.155467
vn 0.000000 0.986549 -0.163467
vn 0.050514 0.986549 -0.155467
vn 0.096084 0.986549 -0.132248
vn 0.132248 0.986549 -0.096084
vn 0.155466 0.986549 -0.050514
vn 0.163467 0.986549 0.000000
vn 0.155467 0.986549 0.050514
vn 0.132248 0.986549 0.096084
vn 0.096084 0.986549 0.132248
vn 0.050514 0.986549 0.155467
vn -0.000000 0.986549 0.163468
vn -0.050514 0.986549 0.155467
vn -0.096084 0.986549 0.132248
vn -0.083356 0.996152 0.027084
vn -0.087646 0.996152 0.000000
vn -0.083356 0.996152 -0.027084
vn -0.070907 0.996152 -0.051517
vn -0.051517 0.996152 -0.070907
vn -0.027084 0.996152 -0.083356
vn 0.000000 0.996152 -0.087646
vn 0.027084 0.996152 -0.083356
vn 0.051517 0.996152 -0.070907
vn 0.070907 0.996152 -0.051517
vn 0.083356 0.996152 -0.027084
vn 0.087646 0.996152 -0.000000
vn 0.083356 0.996152 0.027084
vn 0.070907 0.996152 0.051517
vn 0.051517 0.996152 0.070907
vn 0.027084 0.996152 0.083356
vn 0.000000 0.996152 0.087645
vn -0.027084 0.996152 0.083356
vn -0.051517 0.996152 0.070907
vn -0.070907 0.996152 0.051517
vn 0.951057 0.000000 -0.309016
vn 0.809017 0.000000 -0.587785
vn 0.809017 0.000000 -0.587785
vn 0.951057 0.000000 -0.309016
vn 0.587785 0.000000 -0.809017
vn 0.587785 0.000000 -0.809017
vn 0.309016 0.000000 -0.951057
vn 0.309016 0.000000 -0.951057
vn 0.000000 0.000000 -1.000000
vn 0.000000 0.000000 -1.000000
vn -0.309016 0.000000 -0.951057
vn -0.309016 0.000000 -0.951057
vn -0.587785 0.000000 -0.809017
vn -0.587786 0.000000 -0.809017
vn -0.809017 0.000000 -0.587785
vn -0.809017 0.000000 -0.587785
vn -0.951057 0.000000 -0.309017
vn -0.951057 0.000000 -0.309017
vn -1.000000 0.000000 0.000000
vn -1.000000 0.000000 0.000000
vn -0.951057 0.000000 0.309017
vn -0.951057 0.000000 0.309017
vn -0.809017 0.000000 0.587786
vn -0.809017 0.000000 0.587786
vn -0.587785 0.000000 0.809017
vn -0.587785 0.000000 0.809017
vn -0.309018 0.000000 0.951056
vn -0.309018 0.000000 0.951056
vn 0.000000 0.000000 1.000000
vn 0.000000 0.000000 1.000000
vn 0.309018 0.000000 0.951056
vn 0.309018 0.000000 0.951056
vn 0.587785 0.000000 0.809017
vn 0.587785 0.000000 0.809017
vn 0.809017 0.000000 0.587786
vn 0.809017 0.000000 0.587786
vn 0.951057 0.000000 0.309017
vn 0.951057 0.000000 0.309017
vn 1.000000 0.000000 0.000000
vn 1.000000 0.000000 0.000000
vn 0.000000 -1.000000 0.000000
vn 0.000000 -1.000000 0.000000
vn 0.000000 -1.000000 0.000000
vn 0.000000 -1.000000 -0.000000
vn 0.000000 -1.000000 0.000000
vn 0.000000 -1.000000 0.000000
vn 0.000000 -1.000000 -0.000000
vn 0.000000 -1.000000 -0.000000
vn 0.000000 -1.000000 0.000000
vn 0.000000 -1.000000 0.000000
vn 0.000000 -1.000000 0.000000
vn 0.000000 -1.000000 0.000000
vn 0.000000 -1.000000 0.000000
vn 0.000000 -1.000000 0.000000
vn 0.000000 -1.000000 0.000000
vn 0.000000 -1.000000 0.000000
vn 0.000000 -1.000000 0.000000
vn 0.000000 -1.000000 0.000000
vn 0.000000 -1.000000 -0.000000
vn 0.000000 -1.000000 -0.000000
vn 0.000000 -1.000000 -0.000000
vn 0.000000 1.000000 0.000000
vn 0.000000 1.000000 0.000000
vn 0.000000 1.000000 0.000000
vn 0.000000 1.000000 0.000000
vn 0.000000 1.000000 0.000000
vn 0.000000 1.000000 0.000000
vn 0.000000 1.000000 -0.000000
vn 0.000000 1.000000 -0.000000
vn 0.000000 1.000000 -0.000000
vn 0.000000 1.000000 -0.000000
vn 0.000000 1.000000 0.000000
vn 0.000000 1.000000 0.000000
vn 0.000000 1.000000 0.000000
vn 0.000000 1.000000 0.000000
vn 0.000000 1.000000 0.000000
vn 0.000000 1.000000 0.000000
vn 0.000000 1.000000 0.000000
vn 0.000000 1.000000 0.000000
vn 0.000000 1.000000 0.000000
vn 0.000000 1.000000 0.000000
vn 0.000000 1.000000 0.000000
vn -0.267591 0.500143 0.823560
vn 0.000000 0.500143 0.865943
vn 0.000000 0.930850 0.365401
vn -0.112915 0.930850 0.347516
vn -0.508988 0.500144 0.700562
vn -0.214777 0.930850 0.295615
vn -0.700562 0.500144 0.508989
vn -0.295615 0.930851 0.214777
vn -0.823561 0.500143 0.267591
vn -0.347517 0.930850 0.112915
vn -0.865943 0.500143 0.000000
vn -0.365401 0.930850 0.000000
vn -0.823561 0.500143 -0.267591
vn -0.347516 0.930850 -0.112915
vn -0.700562 0.500144 -0.508988
vn -0.295615 0.930851 -0.214777
vn -0.508988 0.500145 -0.700561
vn -0.214777 0.930851 -0.295615
vn -0.267591 0.500144 -0.823560
vn -0.112915 0.930851 -0.347516
vn -0.000000 0.500144 -0.865942
vn -0.000000 0.930850 -0.365401
vn 0.267590 0.500144 -0.823560
vn 0.112915 0.930851 -0.347516
vn 0.508988 0.500145 -0.700562
vn 0.214777 0.930851 -0.295615
vn 0.700562 0.500144 -0.508988
vn 0.295615 0.930850 -0.214777
vn 0.823561 0.500144 -0.267590
vn 0.347517 0.930850 -0.112915
vn 0.865942 0.500144 0.000000
vn 0.365400 0.930851 0.000000
vn 0.823560 0.500145 0.267590
vn 0.347516 0.930851 0.112915
vn 0.700561 0.500144 0.508988
vn 0.295615 0.930851 0.214777
vn 0.508988 0.500145 0.700562
vn 0.214777 0.930851 0.295615
vn 0.267591 0.500144 0.823560
vn 0.112915 0.930851 0.347516
vn 0.000000 1.000000 -0.000000
vn 0.000000 1.000000 -0.000000
vn 0.000000 1.000000 -0.000000
vn 0.000000 1.000000 -0.000000
vn 0.000000 1.000000 -0.000000
vn 0.000000 1.000000 -0.000000
vn 0.000000 1.000000 -0.000000
vn 0.000000 1.000000 -0.000000
vn 0.000000 1.000000 0.000000
vn 0.000000 1.000000 0.000000
vn 0.000000 1.000000 -0.000000
vn 0.000000 1.000000 -0.000000
vn 0.000000 1.000000 0.000000
vn 0.000000 1.000000 0.000000
vn 0.000000 1.000000 0.000000
vn 0.000000 1.000000 0.000000
vn 0.000000 1.000000 -0.000000
vn 0.000000 1.000000 -0.000000
vn 0.000000 1.000000 0.000000
vn 0.000000 1.000000 0.000000
vn -0.951057 0.000000 0.309015
vn -0.809017 0.000000 0.587786
vn -0.809017 0.000000 0.587786
vn -0.951057 0.000000 0.309015
vn -0.587784 0.000000 0.809018
vn -0.587784 0.000000 0.809018
vn -0.309017 0.000000 0.951057
vn -0.309017 0.000000 0.951057
vn 0.000000 0.000000 1.000000
vn 0.000000 0.000000 1.000000
vn 0.309017 0.000000 0.951056
vn 0.309017 0.000000 0.951056
vn 0.587785 0.000000 0.809017
vn 0.587785 0.000000 0.809017
vn 0.809017 0.000000 0.587785
vn 0.809017 0.000000 0.587785
vn 0.951057 0.000000 0.309017
vn 0.951057 0.000000 0.309017
vn 1.000000 0.000000 0.000000
vn 1.000000 0.000000 0.000000
vn 0.951057 0.000000 -0.309017
vn 0.951057 0.000000 -0.309017
vn 0.809017 0.000000 -0.587785
vn 0.809017 0.000000 -0.587785
vn 0.587785 0.000000 -0.809018
vn 0.587785 0.000000 -0.809018
vn 0.309017 0.000000 -0.951056
vn 0.309017 0.000000 -0.951056
vn 0.000000 0.000000 -1.000000
vn 0.000000 0.000000 -1.000000
vn -0.309017 0.000000 -0.951056
vn -0.309017 0.000000 -0.951056
vn -0.587785 0.000000 -0.809017
vn -0.587785 0.000000 -0.809017
vn -0.809018 0.000000 -0.587784
vn -0.809018 0.000000 -0.587784
vn -0.951056 0.000000 -0.309018
vn -0.951056 0.000000 -0.309018
vn -1.000000 0.000000 -0.000002
vn -1.000000 0.000000 -0.000002
s 1
g pCylinder13 Button_Mapp
usemtl initialShadingGroup
f 1/21/1 2/22/2 53/95/3 54/97/4
f 2/22/2 3/23/5 52/94/6 53/95/3
f 3/23/5 4/24/7 51/93/8 52/94/6
f 4/24/7 5/25/9 50/92/10 51/93/8
f 5/25/9 6/26/11 49/91/12 50/92/10
f 6/26/11 7/27/13 48/90/14 49/91/12
f 7/27/13 8/28/15 47/89/16 48/90/14
f 8/28/15 9/29/17 46/88/18 47/89/16
f 9/29/17 10/30/19 45/87/20 46/88/18
f 10/30/19 11/31/21 44/86/22 45/87/20
f 11/31/21 12/32/23 43/85/24 44/86/22
f 12/32/23 13/33/25 62/105/26 43/85/24
f 13/33/25 14/34/27 61/104/28 62/105/26
f 14/34/27 15/35/29 60/103/30 61/104/28
f 15/35/29 16/36/31 59/102/32 60/103/30
f 16/36/31 17/37/33 58/101/34 59/102/32
f 17/37/33 18/38/35 57/100/36 58/101/34
f 18/38/35 19/39/37 56/99/38 57/100/36
f 19/39/37 20/40/39 55/98/40 56/99/38
f 20/40/39 1/41/1 54/96/4 55/98/40
s 2
f 2/2/41 1/1/42 41/83/43
f 3/3/44 2/2/41 41/83/43
f 4/4/45 3/3/44 41/83/43
f 5/5/46 4/4/45 41/83/43
f 6/6/47 5/5/46 41/83/43
f 7/7/48 6/6/47 41/83/43
f 8/8/49 7/7/48 41/83/43
f 9/9/50 8/8/49 41/83/43
f 10/10/51 9/9/50 41/83/43
f 11/11/52 10/10/51 41/83/43
f 12/12/53 11/11/52 41/83/43
f 13/13/54 12/12/53 41/83/43
f 14/14/55 13/13/54 41/83/43
f 15/15/56 14/14/55 41/83/43
f 16/16/57 15/15/56 41/83/43
f 17/17/58 16/16/57 41/83/43
f 18/18/59 17/17/58 41/83/43
f 19/19/60 18/18/59 41/83/43
f 20/20/61 19/19/60 41/83/43
f 1/1/42 20/20/61 41/83/43
s 3
f 21/81/62 22/80/63 42/84/64
f 22/80/63 23/79/65 42/84/64
f 23/79/65 24/78/66 42/84/64
f 24/78/66 25/77/67 42/84/64
f 25/77/67 26/76/68 42/84/64
f 26/76/68 27/75/69 42/84/64
f 27/75/69 28/74/70 42/84/64
f 28/74/70 29/73/71 42/84/64
f 29/73/71 30/72/72 42/84/64
f 30/72/72 31/71/73 42/84/64
f 31/71/73 32/70/74 42/84/64
f 32/70/74 33/69/75 42/84/64
f 33/69/75 34/68/76 42/84/64
f 34/68/76 35/67/77 42/84/64
f 35/67/77 36/66/78 42/84/64
f 36/66/78 37/65/79 42/84/64
f 37/65/79 38/64/80 42/84/64
f 38/64/80 39/63/81 42/84/64
f 39/63/81 40/82/82 42/84/64
f 40/82/82 21/81/62 42/84/64
s 1
f 44/86/22 43/85/24 82/126/83 63/106/84
f 45/87/20 44/86/22 63/106/84 64/107/85
f 46/88/18 45/87/20 64/107/85 65/108/86
f 47/89/16 46/88/18 65/108/86 66/109/87
f 48/90/14 47/89/16 66/109/87 67/110/88
f 49/91/12 48/90/14 67/110/88 68/111/89
f 50/92/10 49/91/12 68/111/89 69/112/90
f 51/93/8 50/92/10 69/112/90 70/113/91
f 52/94/6 51/93/8 70/113/91 71/114/92
f 53/95/3 52/94/6 71/114/92 72/115/93
f 54/97/4 53/95/3 72/115/93 73/117/94
f 55/98/40 54/96/4 73/116/94 74/118/95
f 56/99/38 55/98/40 74/118/95 75/119/96
f 57/100/36 56/99/38 75/119/96 76/120/97
f 58/101/34 57/100/36 76/120/97 77/121/98
f 59/102/32 58/101/34 77/121/98 78/122/99
f 60/103/30 59/102/32 78/122/99 79/123/100
f 61/104/28 60/103/30 79/123/100 80/124/101
f 62/105/26 61/104/28 80/124/101 81/125/102
f 43/85/24 62/105/26 81/125/102 82/126/83
f 64/107/85 63/106/84 31/52/103 30/51/104
f 65/108/86 64/107/85 30/51/104 29/50/105
f 66/109/87 65/108/86 29/50/105 28/49/106
f 67/110/88 66/109/87 28/49/106 27/48/107
f 68/111/89 67/110/88 27/48/107 26/47/108
f 69/112/90 68/111/89 26/47/108 25/46/109
f 70/113/91 69/112/90 25/46/109 24/45/110
f 71/114/92 70/113/91 24/45/110 23/44/111
f 72/115/93 71/114/92 23/44/111 22/43/112
f 73/117/94 72/115/93 22/43/112 21/42/113
f 74/118/95 73/116/94 21/62/113 40/61/114
f 75/119/96 74/118/95 40/61/114 39/60/115
f 76/120/97 75/119/96 39/60/115 38/59/116
f 77/121/98 76/120/97 38/59/116 37/58/117
f 78/122/99 77/121/98 37/58/117 36/57/118
f 79/123/100 78/122/99 36/57/118 35/56/119
f 80/124/101 79/123/100 35/56/119 34/55/120
f 81/125/102 80/124/101 34/55/120 33/54/121
f 82/126/83 81/125/102 33/54/121 32/53/122
f 63/106/84 82/126/83 32/53/122 31/52/103
s 4
f 83/127/123 84/128/124 157/129/125 158/130/126
f 84/128/124 85/131/127 156/132/128 157/129/125
f 85/131/127 86/133/129 155/134/130 156/132/128
f 86/133/129 87/135/131 154/136/132 155/134/130
f 87/135/131 88/137/133 153/138/134 154/136/132
f 88/137/133 89/139/135 152/140/136 153/138/134
f 89/139/135 90/141/137 151/142/138 152/140/136
f 90/141/137 91/143/139 150/144/140 151/142/138
f 91/143/139 92/145/141 149/146/142 150/144/140
f 92/145/141 93/147/143 148/148/144 149/146/142
f 93/147/143 94/149/145 147/150/146 148/148/144
f 94/149/145 95/151/147 146/152/148 147/150/146
f 95/151/147 96/153/149 145/154/150 146/152/148
f 96/153/149 97/155/151 144/156/152 145/154/150
f 97/155/151 98/157/153 163/158/154 144/156/152
f 98/157/153 99/159/155 162/160/156 163/158/154
f 99/159/155 100/161/157 161/162/158 162/160/156
f 100/161/157 101/163/159 160/164/160 161/162/158
f 101/163/159 102/165/161 159/166/162 160/164/160
f 102/165/161 83/167/123 158/168/126 159/166/162
s 5
f 84/169/163 83/170/164 123/171/165
f 85/172/166 84/169/163 123/171/165
f 86/173/167 85/172/166 123/171/165
f 87/174/168 86/173/167 123/171/165
f 88/175/169 87/174/168 123/171/165
f 89/176/170 88/175/169 123/171/165
f 90/177/171 89/176/170 123/171/165
f 91/178/172 90/177/171 123/171/165
f 92/179/173 91/178/172 123/171/165
f 93/180/174 92/179/173 123/171/165
f 94/181/175 93/180/174 123/171/165
f 95/182/176 94/181/175 123/171/165
f 96/183/177 95/182/176 123/171/165
f 97/184/178 96/183/177 123/171/165
f 98/185/179 97/184/178 123/171/165
f 99/186/180 98/185/179 123/171/165
f 100/187/181 99/186/180 123/171/165
f 101/188/182 100/187/181 123/171/165
f 102/189/183 101/188/182 123/171/165
f 83/170/164 102/189/183 123/171/165
s 6
f 184/190/184 185/191/185 186/192/186
f 185/191/185 187/193/187 186/192/186
f 187/193/187 188/194/188 186/192/186
f 188/194/188 189/195/189 186/192/186
f 189/195/189 190/196/190 186/192/186
f 190/196/190 191/197/191 186/192/186
f 191/197/191 192/198/192 186/192/186
f 192/198/192 193/199/193 186/192/186
f 193/199/193 194/200/194 186/192/186
f 194/200/194 195/201/195 186/192/186
f 195/201/195 196/202/196 186/192/186
f 196/202/196 197/203/197 186/192/186
f 197/203/197 198/204/198 186/192/186
f 198/204/198 199/205/199 186/192/186
f 199/205/199 200/206/200 186/192/186
f 200/206/200 201/207/201 186/192/186
f 201/207/201 202/208/202 186/192/186
f 202/208/202 203/209/203 186/192/186
f 203/209/203 204/210/204 186/192/186
f 204/210/204 184/190/184 186/192/186
s 4
f 125/211/205 124/212/206 117/213/207 116/214/208
f 126/215/209 125/211/205 116/214/208 115/216/210
f 127/217/211 126/215/209 115/216/210 114/218/212
f 128/219/213 127/217/211 114/218/212 113/220/214
f 129/221/215 128/219/213 113/220/214 112/222/216
f 130/223/217 129/221/215 112/222/216 111/224/218
f 131/225/219 130/223/217 111/224/218 110/226/220
f 132/227/221 131/225/219 110/226/220 109/228/222
f 133/229/223 132/227/221 109/228/222 108/230/224
f 134/231/225 133/229/223 108/230/224 107/232/226
f 135/233/227 134/231/225 107/232/226 106/234/228
f 136/235/229 135/233/227 106/234/228 105/236/230
f 137/237/231 136/235/229 105/236/230 104/238/232
f 138/239/233 137/237/231 104/238/232 103/240/234
f 139/241/235 138/242/233 103/243/234 122/244/236
f 140/245/237 139/241/235 122/244/236 121/246/238
f 141/247/239 140/245/237 121/246/238 120/248/240
f 142/249/241 141/247/239 120/248/240 119/250/242
f 143/251/243 142/249/241 119/250/242 118/252/244
f 124/212/206 143/251/243 118/252/244 117/213/207
f 145/154/150 144/156/152 124/212/206 125/211/205
f 146/152/148 145/154/150 125/211/205 126/215/209
f 147/150/146 146/152/148 126/215/209 127/217/211
f 148/148/144 147/150/146 127/217/211 128/219/213
f 149/146/142 148/148/144 128/219/213 129/221/215
f 150/144/140 149/146/142 129/221/215 130/223/217
f 151/142/138 150/144/140 130/223/217 131/225/219
f 152/140/136 151/142/138 131/225/219 132/227/221
f 153/138/134 152/140/136 132/227/221 133/229/223
f 154/136/132 153/138/134 133/229/223 134/231/225
f 155/134/130 154/136/132 134/231/225 135/233/227
f 156/132/128 155/134/130 135/233/227 136/235/229
f 157/129/125 156/132/128 136/235/229 137/237/231
f 158/130/126 157/129/125 137/237/231 138/239/233
f 159/166/162 158/168/126 138/242/233 139/241/235
f 160/164/160 159/166/162 139/241/235 140/245/237
f 161/162/158 160/164/160 140/245/237 141/247/239
f 162/160/156 161/162/158 141/247/239 142/249/241
f 163/158/154 162/160/156 142/249/241 143/251/243
f 144/156/152 163/158/154 143/251/243 124/212/206
f 103/253/234 104/254/232 165/255/245 164/256/246
f 104/254/232 105/257/230 166/258/247 165/255/245
f 105/257/230 106/259/228 167/260/248 166/258/247
f 106/259/228 107/261/226 168/262/249 167/260/248
f 107/261/226 108/263/224 169/264/250 168/262/249
f 108/263/224 109/265/222 170/266/251 169/264/250
f 109/265/222 110/267/220 171/268/252 170/266/251
f 110/267/220 111/269/218 172/270/253 171/268/252
f 111/269/218 112/271/216 173/272/254 172/270/253
f 112/271/216 113/273/214 174/274/255 173/272/254
f 113/273/214 114/275/212 175/276/256 174/274/255
f 114/275/212 115/277/210 176/278/257 175/276/256
f 115/277/210 116/279/208 177/280/258 176/278/257
f 116/279/208 117/281/207 178/282/259 177/280/258
f 117/281/207 118/283/244 179/284/260 178/282/259
f 118/283/244 119/285/242 180/286/261 179/284/260
f 119/285/242 120/287/240 181/288/262 180/286/261
f 120/287/240 121/289/238 182/290/263 181/288/262
f 121/289/238 122/291/236 183/292/264 182/290/263
f 122/291/236 103/253/234 164/256/246 183/292/264
s 7
f 164/256/265 165/255/266 185/191/267 184/190/268
f 165/255/266 166/258/269 187/193/270 185/191/267
f 166/258/269 167/260/271 188/194/272 187/193/270
f 167/260/271 168/262/273 189/195/274 188/194/272
f 168/262/273 169/264/275 190/196/276 189/195/274
f 169/264/275 170/266/277 191/197/278 190/196/276
f 170/266/277 171/268/279 192/198/280 191/197/278
f 171/268/279 172/270/281 193/199/282 192/198/280
f 172/270/281 173/272/283 194/200/284 193/199/282
f 173/272/283 174/274/285 195/201/286 194/200/284
f 174/274/285 175/276/287 196/202/288 195/201/286
f 175/276/287 176/278/289 197/203/290 196/202/288
f 176/278/289 177/280/291 198/204/292 197/203/290
f 177/280/291 178/282/293 199/205/294 198/204/292
f 178/282/293 179/284/295 200/206/296 199/205/294
f 179/284/295 180/286/297 201/207/298 200/206/296
f 180/286/297 181/288/299 202/208/300 201/207/298
f 181/288/299 182/290/301 203/209/302 202/208/300
f 182/290/301 183/292/303 204/210/304 203/209/302
f 183/292/303 164/256/265 184/190/268 204/210/304
