# This file uses centimeters as units for non-parametric coordinates.

mtllib FactoryPuzzleBlock_WIP1.mtl
g default
v -7.301666 -0.500000 -1.738886
v -7.176666 -0.500000 -1.647665
v -7.051666 -0.500000 -1.647665
v -6.926666 -0.500000 -1.647665
v -6.801666 -0.500000 -1.647665
v -6.676666 -0.500000 -1.647665
v -6.551666 -0.500000 -1.647665
v -6.426666 -0.500000 -1.647665
v -6.301666 -0.500000 -1.738886
v -7.301666 -0.375000 -1.738886
v -7.176666 -0.375000 -1.647665
v -7.051666 -0.375000 -1.647665
v -6.926666 -0.375000 -1.647665
v -6.801666 -0.375000 -1.647665
v -6.676666 -0.375000 -1.647665
v -6.551666 -0.375000 -1.647665
v -6.426666 -0.375000 -1.647665
v -6.301666 -0.375000 -1.738886
v -7.301666 -0.250000 -1.738886
v -7.176666 -0.250000 -1.647665
v -7.051666 -0.250000 -1.647665
v -6.926666 -0.250000 -1.647665
v -6.801666 -0.250000 -1.647665
v -6.676666 -0.250000 -1.647665
v -6.551666 -0.250000 -1.647665
v -6.426666 -0.250000 -1.647665
v -6.301666 -0.250000 -1.738886
v -7.301666 -0.125000 -1.738886
v -7.176666 -0.125000 -1.647665
v -7.051666 -0.125000 -1.647665
v -6.926666 -0.125000 -1.647665
v -6.801666 -0.125000 -1.647665
v -6.676666 -0.125000 -1.647665
v -6.551666 -0.125000 -1.647665
v -6.426666 -0.125000 -1.647665
v -6.301666 -0.125000 -1.738886
v -7.301666 0.000000 -1.738886
v -7.176666 0.000000 -1.647665
v -7.051666 0.000000 -1.647665
v -6.926666 0.000000 -1.647665
v -6.801666 0.000000 -1.647665
v -6.676666 0.000000 -1.647665
v -6.551666 0.000000 -1.647665
v -6.426666 0.000000 -1.647665
v -6.301666 0.000000 -1.738886
v -7.301666 0.125000 -1.738886
v -7.176666 0.125000 -1.647665
v -7.051666 0.125000 -1.647665
v -6.926666 0.125000 -1.647665
v -6.801666 0.125000 -1.647665
v -6.676666 0.125000 -1.647665
v -6.551666 0.125000 -1.647665
v -6.426666 0.125000 -1.647665
v -6.301666 0.125000 -1.738886
v -7.301666 0.250000 -1.738886
v -7.176666 0.250000 -1.647665
v -7.051666 0.250000 -1.647665
v -6.926666 0.250000 -1.647665
v -6.801666 0.250000 -1.647665
v -6.676666 0.250000 -1.647665
v -6.551666 0.250000 -1.647665
v -6.426666 0.250000 -1.647665
v -6.301666 0.250000 -1.738886
v -7.301666 0.375000 -1.738886
v -7.176666 0.375000 -1.647665
v -7.051666 0.375000 -1.647665
v -6.926666 0.375000 -1.647665
v -6.801666 0.375000 -1.647665
v -6.676666 0.375000 -1.647665
v -6.551666 0.375000 -1.647665
v -6.426666 0.375000 -1.647665
v -6.301666 0.375000 -1.738886
v -7.301666 0.500000 -1.738886
v -7.176666 0.500000 -1.647665
v -7.051666 0.500000 -1.647665
v -6.926666 0.500000 -1.647665
v -6.801666 0.500000 -1.647665
v -6.676666 0.500000 -1.647665
v -6.551666 0.500000 -1.647665
v -6.426666 0.500000 -1.647665
v -6.301666 0.500000 -1.738886
v -7.301666 0.500000 -1.772665
v -7.176666 0.500000 -1.772665
v -7.051666 0.500000 -1.772665
v -6.926666 0.500000 -1.772665
v -6.801666 0.500000 -1.772665
v -6.676666 0.500000 -1.772665
v -6.551666 0.500000 -1.772665
v -6.426666 0.500000 -1.772665
v -6.301666 0.500000 -1.772665
v -7.301666 0.500000 -1.897665
v -7.176666 0.500000 -1.897665
v -6.426666 0.500000 -1.897665
v -6.301666 0.500000 -1.897665
v -7.301666 0.500000 -2.022665
v -7.176666 0.500000 -2.022665
v -6.426666 0.500000 -2.022665
v -6.301666 0.500000 -2.022665
v -7.301666 0.500000 -2.147665
v -7.176666 0.500000 -2.147665
v -6.426666 0.500000 -2.147665
v -6.301666 0.500000 -2.147665
v -7.301666 0.500000 -2.272665
v -7.176666 0.500000 -2.272665
v -6.426666 0.500000 -2.272665
v -6.301666 0.500000 -2.272665
v -7.301666 0.500000 -2.397665
v -7.176666 0.500000 -2.397665
v -6.426666 0.500000 -2.397665
v -6.301666 0.500000 -2.397665
v -7.301666 0.500000 -2.522665
v -7.176666 0.500000 -2.522665
v -7.051666 0.500000 -2.522665
v -6.926666 0.500000 -2.522665
v -6.801666 0.500000 -2.522665
v -6.676666 0.500000 -2.522665
v -6.551666 0.500000 -2.522665
v -6.426666 0.500000 -2.522665
v -6.301666 0.500000 -2.522665
v -7.301666 0.500000 -2.556444
v -7.176666 0.500000 -2.647665
v -7.051666 0.500000 -2.647665
v -6.926666 0.500000 -2.647665
v -6.801666 0.500000 -2.647665
v -6.676666 0.500000 -2.647665
v -6.551666 0.500000 -2.647665
v -6.426666 0.500000 -2.647665
v -6.301666 0.500000 -2.556444
v -7.301666 0.375000 -2.556444
v -7.176666 0.375000 -2.647665
v -7.051666 0.375000 -2.647665
v -6.926666 0.375000 -2.647665
v -6.801666 0.375000 -2.647665
v -6.676666 0.375000 -2.647665
v -6.551666 0.375000 -2.647665
v -6.426666 0.375000 -2.647665
v -6.301666 0.375000 -2.556444
v -7.301666 0.250000 -2.556444
v -7.176666 0.250000 -2.647665
v -7.051666 0.250000 -2.647665
v -6.926666 0.250000 -2.647665
v -6.801666 0.250000 -2.647665
v -6.676666 0.250000 -2.647665
v -6.551666 0.250000 -2.647665
v -6.426666 0.250000 -2.647665
v -6.301666 0.250000 -2.556444
v -7.301666 0.125000 -2.556444
v -7.176666 0.125000 -2.647665
v -7.051666 0.125000 -2.647665
v -6.926666 0.125000 -2.647665
v -6.801666 0.125000 -2.647665
v -6.676666 0.125000 -2.647665
v -6.551666 0.125000 -2.647665
v -6.426666 0.125000 -2.647665
v -6.301666 0.125000 -2.556444
v -7.301666 0.000000 -2.556444
v -7.176666 0.000000 -2.647665
v -7.051666 0.000000 -2.647665
v -6.926666 0.000000 -2.647665
v -6.801666 0.000000 -2.647665
v -6.676666 0.000000 -2.647665
v -6.551666 0.000000 -2.647665
v -6.426666 0.000000 -2.647665
v -6.301666 0.000000 -2.556444
v -7.301666 -0.125000 -2.556444
v -7.176666 -0.125000 -2.647665
v -7.051666 -0.125000 -2.647665
v -6.926666 -0.125000 -2.647665
v -6.801666 -0.125000 -2.647665
v -6.676666 -0.125000 -2.647665
v -6.551666 -0.125000 -2.647665
v -6.426666 -0.125000 -2.647665
v -6.301666 -0.125000 -2.556444
v -7.301666 -0.250000 -2.556444
v -7.176666 -0.250000 -2.647665
v -7.051666 -0.250000 -2.647665
v -6.926666 -0.250000 -2.647665
v -6.801666 -0.250000 -2.647665
v -6.676666 -0.250000 -2.647665
v -6.551666 -0.250000 -2.647665
v -6.426666 -0.250000 -2.647665
v -6.301666 -0.250000 -2.556444
v -7.301666 -0.375000 -2.556444
v -7.176666 -0.375000 -2.647665
v -7.051666 -0.375000 -2.647665
v -6.926666 -0.375000 -2.647665
v -6.801666 -0.375000 -2.647665
v -6.676666 -0.375000 -2.647665
v -6.551666 -0.375000 -2.647665
v -6.426666 -0.375000 -2.647665
v -6.301666 -0.375000 -2.556444
v -7.301666 -0.500000 -2.556444
v -7.176666 -0.500000 -2.647665
v -7.051666 -0.500000 -2.647665
v -6.926666 -0.500000 -2.647665
v -6.801666 -0.500000 -2.647665
v -6.676666 -0.500000 -2.647665
v -6.551666 -0.500000 -2.647665
v -6.426666 -0.500000 -2.647665
v -6.301666 -0.500000 -2.556444
v -7.301666 -0.500000 -2.522665
v -7.176666 -0.500000 -2.522665
v -6.926666 -0.500000 -2.522665
v -6.801666 -0.500000 -2.522665
v -6.676666 -0.500000 -2.522665
v -6.426666 -0.500000 -2.522665
v -6.301666 -0.500000 -2.522665
v -7.301666 -0.500000 -2.397665
v -7.176666 -0.500000 -2.397665
v -6.926666 -0.500000 -2.397665
v -6.801666 -0.500000 -2.397665
v -6.676666 -0.500000 -2.397665
v -6.426666 -0.500000 -2.397665
v -6.301666 -0.500000 -2.397665
v -7.301666 -0.500000 -2.272665
v -7.176666 -0.500000 -2.272665
v -6.926666 -0.500000 -2.272665
v -6.801666 -0.500000 -2.272665
v -6.676666 -0.500000 -2.272665
v -6.426666 -0.500000 -2.272665
v -6.301666 -0.500000 -2.272665
v -7.301666 -0.500000 -2.147665
v -7.176666 -0.500000 -2.147665
v -6.926666 -0.500000 -2.147665
v -6.801666 -0.500000 -2.147665
v -6.676666 -0.500000 -2.147665
v -6.426666 -0.500000 -2.147665
v -6.301666 -0.500000 -2.147665
v -7.301666 -0.500000 -2.022665
v -7.176666 -0.500000 -2.022665
v -6.926666 -0.500000 -2.022665
v -6.801666 -0.500000 -2.022665
v -6.676666 -0.500000 -2.022665
v -6.426666 -0.500000 -2.022665
v -6.301666 -0.500000 -2.022665
v -7.301666 -0.500000 -1.897665
v -7.176666 -0.500000 -1.897665
v -6.926666 -0.500000 -1.897665
v -6.801666 -0.500000 -1.897665
v -6.676666 -0.500000 -1.897665
v -6.426666 -0.500000 -1.897665
v -6.301666 -0.500000 -1.897665
v -7.301666 -0.500000 -1.772665
v -7.176666 -0.500000 -1.772665
v -6.926666 -0.500000 -1.772665
v -6.801666 -0.500000 -1.772665
v -6.676666 -0.500000 -1.772665
v -6.426666 -0.500000 -1.772665
v -6.301666 -0.500000 -1.772665
v -6.301666 -0.375000 -2.522665
v -6.301666 -0.375000 -2.397665
v -6.301666 -0.375000 -2.272665
v -6.301666 -0.375000 -2.147665
v -6.301666 -0.375000 -2.022665
v -6.301666 -0.375000 -1.897665
v -6.301666 -0.375000 -1.772665
v -6.301666 -0.250000 -2.522665
v -6.301666 -0.250000 -2.397665
v -6.301666 -0.250000 -2.272665
v -6.301666 -0.250000 -2.147665
v -6.301666 -0.250000 -2.022665
v -6.301666 -0.250000 -1.897665
v -6.301666 -0.250000 -1.772665
v -6.301666 -0.125000 -2.522665
v -6.301666 -0.125000 -2.397665
v -6.301666 -0.125000 -2.272665
v -6.301666 -0.125000 -2.147665
v -6.301666 -0.125000 -2.022665
v -6.301666 -0.125000 -1.897665
v -6.301666 -0.125000 -1.772665
v -6.301666 0.000000 -2.522665
v -6.301666 0.000000 -2.397665
v -6.301666 0.000000 -2.272665
v -6.301666 0.000000 -2.147665
v -6.301666 0.000000 -2.022665
v -6.301666 0.000000 -1.897665
v -6.301666 0.000000 -1.772665
v -6.301666 0.125000 -2.522665
v -6.301666 0.125000 -2.397665
v -6.301666 0.125000 -2.272665
v -6.301666 0.125000 -2.147665
v -6.301666 0.125000 -2.022665
v -6.301666 0.125000 -1.897665
v -6.301666 0.125000 -1.772665
v -6.301666 0.250000 -2.522665
v -6.301666 0.250000 -2.397665
v -6.301666 0.250000 -2.272665
v -6.301666 0.250000 -2.147665
v -6.301666 0.250000 -2.022665
v -6.301666 0.250000 -1.897665
v -6.301666 0.250000 -1.772665
v -6.301666 0.375000 -2.522665
v -6.301666 0.375000 -2.397665
v -6.301666 0.375000 -2.272665
v -6.301666 0.375000 -2.147665
v -6.301666 0.375000 -2.022665
v -6.301666 0.375000 -1.897665
v -6.301666 0.375000 -1.772665
v -7.301666 -0.375000 -2.522665
v -7.301666 -0.375000 -2.397665
v -7.301666 -0.375000 -2.272665
v -7.301666 -0.375000 -2.147665
v -7.301666 -0.375000 -2.022665
v -7.301666 -0.375000 -1.897665
v -7.301666 -0.375000 -1.772665
v -7.301666 -0.250000 -2.522665
v -7.301666 -0.250000 -2.397665
v -7.301666 -0.250000 -2.272665
v -7.301666 -0.250000 -2.147665
v -7.301666 -0.250000 -2.022665
v -7.301666 -0.250000 -1.897665
v -7.301666 -0.250000 -1.772665
v -7.301666 -0.125000 -2.522665
v -7.301666 -0.125000 -2.397665
v -7.301666 -0.125000 -2.272665
v -7.301666 -0.125000 -2.147665
v -7.301666 -0.125000 -2.022665
v -7.301666 -0.125000 -1.897665
v -7.301666 -0.125000 -1.772665
v -7.301666 0.000000 -2.522665
v -7.301666 0.000000 -2.397665
v -7.301666 0.000000 -2.272665
v -7.301666 0.000000 -2.147665
v -7.301666 0.000000 -2.022665
v -7.301666 0.000000 -1.897665
v -7.301666 0.000000 -1.772665
v -7.301666 0.125000 -2.522665
v -7.301666 0.125000 -2.397665
v -7.301666 0.125000 -2.272665
v -7.301666 0.125000 -2.147665
v -7.301666 0.125000 -2.022665
v -7.301666 0.125000 -1.897665
v -7.301666 0.125000 -1.772665
v -7.301666 0.250000 -2.522665
v -7.301666 0.250000 -2.397665
v -7.301666 0.250000 -2.272665
v -7.301666 0.250000 -2.147665
v -7.301666 0.250000 -2.022665
v -7.301666 0.250000 -1.897665
v -7.301666 0.250000 -1.772665
v -7.301666 0.375000 -2.522665
v -7.301666 0.375000 -2.397665
v -7.301666 0.375000 -2.272665
v -7.301666 0.375000 -2.147665
v -7.301666 0.375000 -2.022665
v -7.301666 0.375000 -1.897665
v -7.301666 0.375000 -1.772665
v -7.176666 -0.541353 -2.647665
v -7.051666 -0.541353 -2.647665
v -7.051666 -0.541353 -2.522665
v -7.176666 -0.541353 -2.522665
v -6.926666 -0.541353 -2.647665
v -6.926666 -0.541353 -2.522665
v -7.051666 -0.541353 -2.397665
v -7.176666 -0.541353 -2.397665
v -6.926666 -0.541353 -2.397665
v -7.051666 -0.541353 -2.272665
v -7.176666 -0.541353 -2.272665
v -6.926666 -0.541353 -2.272665
v -7.051666 -0.541353 -2.147665
v -7.176666 -0.541353 -2.147665
v -6.926666 -0.541353 -2.147665
v -7.051666 -0.541353 -2.022665
v -7.176666 -0.541353 -2.022665
v -6.926666 -0.541353 -2.022665
v -7.051666 -0.541353 -1.897665
v -7.176666 -0.541353 -1.897665
v -6.926666 -0.541353 -1.897665
v -7.051666 -0.541353 -1.772665
v -7.176666 -0.541353 -1.772665
v -6.926666 -0.541353 -1.772665
v -7.051666 -0.541353 -1.647665
v -7.176666 -0.541353 -1.647665
v -6.926666 -0.541353 -1.647665
v -6.676666 -0.541353 -2.647665
v -6.551666 -0.541353 -2.647665
v -6.551666 -0.541353 -2.522665
v -6.676666 -0.541353 -2.522665
v -6.426666 -0.541353 -2.647665
v -6.426666 -0.541353 -2.522665
v -6.551666 -0.541353 -2.397665
v -6.676666 -0.541353 -2.397665
v -6.426666 -0.541353 -2.397665
v -6.551666 -0.541353 -2.272665
v -6.676666 -0.541353 -2.272665
v -6.426666 -0.541353 -2.272665
v -6.551666 -0.541353 -2.147665
v -6.676666 -0.541353 -2.147665
v -6.426666 -0.541353 -2.147665
v -6.551666 -0.541353 -2.022665
v -6.676666 -0.541353 -2.022665
v -6.426666 -0.541353 -2.022665
v -6.551666 -0.541353 -1.897665
v -6.676666 -0.541353 -1.897665
v -6.426666 -0.541353 -1.897665
v -6.551666 -0.541353 -1.772665
v -6.676666 -0.541353 -1.772665
v -6.426666 -0.541353 -1.772665
v -6.551666 -0.541353 -1.647665
v -6.676666 -0.541353 -1.647665
v -6.426666 -0.541353 -1.647665
v -7.176666 0.467817 -1.772665
v -7.051666 0.467817 -1.772665
v -7.051666 0.467817 -1.897665
v -7.176666 0.467817 -1.897665
v -6.926666 0.467817 -1.772665
v -6.926666 0.467817 -1.897665
v -6.801666 0.467817 -1.772665
v -6.801666 0.467817 -1.897665
v -6.676666 0.467817 -1.772665
v -6.676666 0.467817 -1.897665
v -6.551666 0.467817 -1.772665
v -6.551666 0.467817 -1.897665
v -6.426666 0.467817 -1.772665
v -6.426666 0.467817 -1.897665
v -7.051666 0.467817 -2.022665
v -7.176666 0.467817 -2.022665
v -6.551666 0.467817 -2.022665
v -6.426666 0.467817 -2.022665
v -7.051666 0.467817 -2.147665
v -7.176666 0.467817 -2.147665
v -6.551666 0.467817 -2.147665
v -6.426666 0.467817 -2.147665
v -7.051666 0.467817 -2.272665
v -7.176666 0.467817 -2.272665
v -6.551666 0.467817 -2.272665
v -6.426666 0.467817 -2.272665
v -7.051666 0.467817 -2.397665
v -7.176666 0.467817 -2.397665
v -6.926666 0.467817 -2.397665
v -6.801666 0.467817 -2.397665
v -6.676666 0.467817 -2.397665
v -6.551666 0.467817 -2.397665
v -6.426666 0.467817 -2.397665
v -7.051666 0.467817 -2.522665
v -7.176666 0.467817 -2.522665
v -6.926666 0.467817 -2.522665
v -6.801666 0.467817 -2.522665
v -6.676666 0.467817 -2.522665
v -6.551666 0.467817 -2.522665
v -6.426666 0.467817 -2.522665
v -7.019495 0.489094 -1.929835
v -6.910581 0.489094 -1.929835
v -6.910581 0.489094 -2.038750
v -7.019495 0.489094 -2.038750
v -6.801666 0.489094 -1.929835
v -6.801666 0.489094 -2.038750
v -6.692751 0.489094 -1.929835
v -6.692751 0.489094 -2.038750
v -6.583836 0.489094 -1.929835
v -6.583836 0.489094 -2.038750
v -6.910581 0.489094 -2.147665
v -7.019495 0.489094 -2.147665
v -6.801666 0.489094 -2.147665
v -6.692751 0.489094 -2.147665
v -6.583836 0.489094 -2.147665
v -6.910581 0.489094 -2.256580
v -7.019495 0.489094 -2.256580
v -6.801666 0.489094 -2.256580
v -6.692751 0.489094 -2.256580
v -6.583836 0.489094 -2.256580
v -6.910581 0.489094 -2.365495
v -7.019495 0.489094 -2.365495
v -6.801666 0.489094 -2.365495
v -6.692751 0.489094 -2.365495
v -6.583836 0.489094 -2.365495
v -7.051666 0.526179 -1.647665
v -6.926666 0.526179 -1.647665
v -6.926666 0.515837 -1.772665
v -7.051666 0.515837 -1.772665
v -6.676666 0.526179 -1.647665
v -6.551666 0.526179 -1.647665
v -6.551666 0.515837 -1.772665
v -6.676666 0.515837 -1.772665
v -7.051666 0.515837 -2.522665
v -6.926666 0.515837 -2.522665
v -6.926666 0.526179 -2.647665
v -7.051666 0.526179 -2.647665
v -6.676666 0.515837 -2.522665
v -6.551666 0.515837 -2.522665
v -6.551666 0.526179 -2.647665
v -6.676666 0.526179 -2.647665
v -7.051666 0.250000 -1.617874
v -6.926666 0.250000 -1.617874
v -6.926666 0.375000 -1.605802
v -7.051666 0.375000 -1.605802
v -6.926666 0.491078 -1.605802
v -7.051666 0.491078 -1.605802
v -6.926666 0.523267 -1.630008
v -7.051666 0.523267 -1.630008
v -6.676666 0.250000 -1.617874
v -6.551666 0.250000 -1.617874
v -6.551666 0.375000 -1.605802
v -6.676666 0.375000 -1.605802
v -6.551666 0.491078 -1.605802
v -6.676666 0.491078 -1.605802
v -6.551666 0.523267 -1.630008
v -6.676666 0.523267 -1.630008
v -7.051666 0.491078 -2.689527
v -6.926666 0.491078 -2.689527
v -6.926666 0.375000 -2.689527
v -7.051666 0.375000 -2.689527
v -6.926666 0.250000 -2.677455
v -7.051666 0.250000 -2.677455
v -7.051666 0.523267 -2.665321
v -6.926666 0.523267 -2.665321
v -6.676666 0.491078 -2.689527
v -6.551666 0.491078 -2.689527
v -6.551666 0.375000 -2.689527
v -6.676666 0.375000 -2.689527
v -6.551666 0.250000 -2.677455
v -6.676666 0.250000 -2.677455
v -6.676666 0.523267 -2.665321
v -6.551666 0.523267 -2.665321
vt 0.375000 0.000000
vt 0.406250 0.000000
vt 0.437500 0.000000
vt 0.468750 0.000000
vt 0.500000 0.000000
vt 0.531250 0.000000
vt 0.562500 0.000000
vt 0.593750 0.000000
vt 0.625000 0.000000
vt 0.375000 0.031250
vt 0.406250 0.031250
vt 0.437500 0.031250
vt 0.468750 0.031250
vt 0.500000 0.031250
vt 0.531250 0.031250
vt 0.562500 0.031250
vt 0.593750 0.031250
vt 0.625000 0.031250
vt 0.375000 0.062500
vt 0.406250 0.062500
vt 0.437500 0.062500
vt 0.468750 0.062500
vt 0.500000 0.062500
vt 0.531250 0.062500
vt 0.562500 0.062500
vt 0.593750 0.062500
vt 0.625000 0.062500
vt 0.375000 0.093750
vt 0.406250 0.093750
vt 0.437500 0.093750
vt 0.468750 0.093750
vt 0.500000 0.093750
vt 0.531250 0.093750
vt 0.562500 0.093750
vt 0.593750 0.093750
vt 0.625000 0.093750
vt 0.375000 0.125000
vt 0.406250 0.125000
vt 0.437500 0.125000
vt 0.468750 0.125000
vt 0.500000 0.125000
vt 0.531250 0.125000
vt 0.562500 0.125000
vt 0.593750 0.125000
vt 0.625000 0.125000
vt 0.375000 0.156250
vt 0.406250 0.156250
vt 0.437500 0.156250
vt 0.468750 0.156250
vt 0.500000 0.156250
vt 0.531250 0.156250
vt 0.562500 0.156250
vt 0.593750 0.156250
vt 0.625000 0.156250
vt 0.375000 0.187500
vt 0.406250 0.187500
vt 0.437500 0.187500
vt 0.468750 0.187500
vt 0.500000 0.187500
vt 0.531250 0.187500
vt 0.562500 0.187500
vt 0.593750 0.187500
vt 0.625000 0.187500
vt 0.375000 0.218750
vt 0.406250 0.218750
vt 0.437500 0.218750
vt 0.468750 0.218750
vt 0.500000 0.218750
vt 0.531250 0.218750
vt 0.562500 0.218750
vt 0.593750 0.218750
vt 0.625000 0.218750
vt 0.375000 0.250000
vt 0.406250 0.250000
vt 0.437500 0.250000
vt 0.468750 0.250000
vt 0.500000 0.250000
vt 0.531250 0.250000
vt 0.562500 0.250000
vt 0.593750 0.250000
vt 0.625000 0.250000
vt 0.375000 0.281250
vt 0.406250 0.281250
vt 0.437500 0.281250
vt 0.468750 0.281250
vt 0.500000 0.281250
vt 0.531250 0.281250
vt 0.562500 0.281250
vt 0.593750 0.281250
vt 0.625000 0.281250
vt 0.375000 0.312500
vt 0.406250 0.312500
vt 0.437500 0.312500
vt 0.468750 0.312500
vt 0.500000 0.312500
vt 0.531250 0.312500
vt 0.562500 0.312500
vt 0.593750 0.312500
vt 0.625000 0.312500
vt 0.375000 0.343750
vt 0.406250 0.343750
vt 0.437500 0.343750
vt 0.468750 0.343750
vt 0.500000 0.343750
vt 0.531250 0.343750
vt 0.562500 0.343750
vt 0.593750 0.343750
vt 0.625000 0.343750
vt 0.375000 0.375000
vt 0.406250 0.375000
vt 0.437500 0.375000
vt 0.468750 0.375000
vt 0.500000 0.375000
vt 0.531250 0.375000
vt 0.562500 0.375000
vt 0.593750 0.375000
vt 0.625000 0.375000
vt 0.375000 0.406250
vt 0.406250 0.406250
vt 0.437500 0.406250
vt 0.468750 0.406250
vt 0.500000 0.406250
vt 0.531250 0.406250
vt 0.562500 0.406250
vt 0.593750 0.406250
vt 0.625000 0.406250
vt 0.375000 0.437500
vt 0.406250 0.437500
vt 0.437500 0.437500
vt 0.468750 0.437500
vt 0.500000 0.437500
vt 0.531250 0.437500
vt 0.562500 0.437500
vt 0.593750 0.437500
vt 0.625000 0.437500
vt 0.375000 0.468750
vt 0.406250 0.468750
vt 0.437500 0.468750
vt 0.468750 0.468750
vt 0.500000 0.468750
vt 0.531250 0.468750
vt 0.562500 0.468750
vt 0.593750 0.468750
vt 0.625000 0.468750
vt 0.375000 0.500000
vt 0.406250 0.500000
vt 0.437500 0.500000
vt 0.468750 0.500000
vt 0.500000 0.500000
vt 0.531250 0.500000
vt 0.562500 0.500000
vt 0.593750 0.500000
vt 0.625000 0.500000
vt 0.375000 0.531250
vt 0.406250 0.531250
vt 0.437500 0.531250
vt 0.468750 0.531250
vt 0.500000 0.531250
vt 0.531250 0.531250
vt 0.562500 0.531250
vt 0.593750 0.531250
vt 0.625000 0.531250
vt 0.375000 0.562500
vt 0.406250 0.562500
vt 0.437500 0.562500
vt 0.468750 0.562500
vt 0.500000 0.562500
vt 0.531250 0.562500
vt 0.562500 0.562500
vt 0.593750 0.562500
vt 0.625000 0.562500
vt 0.375000 0.593750
vt 0.406250 0.593750
vt 0.437500 0.593750
vt 0.468750 0.593750
vt 0.500000 0.593750
vt 0.531250 0.593750
vt 0.562500 0.593750
vt 0.593750 0.593750
vt 0.625000 0.593750
vt 0.375000 0.625000
vt 0.406250 0.625000
vt 0.437500 0.625000
vt 0.468750 0.625000
vt 0.500000 0.625000
vt 0.531250 0.625000
vt 0.562500 0.625000
vt 0.593750 0.625000
vt 0.625000 0.625000
vt 0.375000 0.656250
vt 0.406250 0.656250
vt 0.437500 0.656250
vt 0.468750 0.656250
vt 0.500000 0.656250
vt 0.531250 0.656250
vt 0.562500 0.656250
vt 0.593750 0.656250
vt 0.625000 0.656250
vt 0.375000 0.687500
vt 0.406250 0.687500
vt 0.437500 0.687500
vt 0.468750 0.687500
vt 0.500000 0.687500
vt 0.531250 0.687500
vt 0.562500 0.687500
vt 0.593750 0.687500
vt 0.625000 0.687500
vt 0.375000 0.718750
vt 0.406250 0.718750
vt 0.437500 0.718750
vt 0.468750 0.718750
vt 0.500000 0.718750
vt 0.531250 0.718750
vt 0.562500 0.718750
vt 0.593750 0.718750
vt 0.625000 0.718750
vt 0.375000 0.750000
vt 0.406250 0.750000
vt 0.437500 0.750000
vt 0.468750 0.750000
vt 0.500000 0.750000
vt 0.531250 0.750000
vt 0.562500 0.750000
vt 0.593750 0.750000
vt 0.625000 0.750000
vt 0.375000 0.781250
vt 0.406250 0.781250
vt 0.437500 0.781250
vt 0.468750 0.781250
vt 0.500000 0.781250
vt 0.531250 0.781250
vt 0.562500 0.781250
vt 0.593750 0.781250
vt 0.625000 0.781250
vt 0.375000 0.812500
vt 0.406250 0.812500
vt 0.437500 0.812500
vt 0.468750 0.812500
vt 0.500000 0.812500
vt 0.531250 0.812500
vt 0.562500 0.812500
vt 0.593750 0.812500
vt 0.625000 0.812500
vt 0.375000 0.843750
vt 0.406250 0.843750
vt 0.437500 0.843750
vt 0.468750 0.843750
vt 0.500000 0.843750
vt 0.531250 0.843750
vt 0.562500 0.843750
vt 0.593750 0.843750
vt 0.625000 0.843750
vt 0.375000 0.875000
vt 0.406250 0.875000
vt 0.437500 0.875000
vt 0.468750 0.875000
vt 0.500000 0.875000
vt 0.531250 0.875000
vt 0.562500 0.875000
vt 0.593750 0.875000
vt 0.625000 0.875000
vt 0.375000 0.906250
vt 0.406250 0.906250
vt 0.437500 0.906250
vt 0.468750 0.906250
vt 0.500000 0.906250
vt 0.531250 0.906250
vt 0.562500 0.906250
vt 0.593750 0.906250
vt 0.625000 0.906250
vt 0.375000 0.937500
vt 0.406250 0.937500
vt 0.437500 0.937500
vt 0.468750 0.937500
vt 0.500000 0.937500
vt 0.531250 0.937500
vt 0.562500 0.937500
vt 0.593750 0.937500
vt 0.625000 0.937500
vt 0.375000 0.968750
vt 0.406250 0.968750
vt 0.437500 0.968750
vt 0.468750 0.968750
vt 0.500000 0.968750
vt 0.531250 0.968750
vt 0.562500 0.968750
vt 0.593750 0.968750
vt 0.625000 0.968750
vt 0.375000 1.000000
vt 0.406250 1.000000
vt 0.437500 1.000000
vt 0.468750 1.000000
vt 0.500000 1.000000
vt 0.531250 1.000000
vt 0.562500 1.000000
vt 0.593750 1.000000
vt 0.625000 1.000000
vt 0.875000 0.000000
vt 0.843750 0.000000
vt 0.812500 0.000000
vt 0.781250 0.000000
vt 0.750000 0.000000
vt 0.718750 0.000000
vt 0.687500 0.000000
vt 0.656250 0.000000
vt 0.875000 0.031250
vt 0.843750 0.031250
vt 0.812500 0.031250
vt 0.781250 0.031250
vt 0.750000 0.031250
vt 0.718750 0.031250
vt 0.687500 0.031250
vt 0.656250 0.031250
vt 0.875000 0.062500
vt 0.843750 0.062500
vt 0.812500 0.062500
vt 0.781250 0.062500
vt 0.750000 0.062500
vt 0.718750 0.062500
vt 0.687500 0.062500
vt 0.656250 0.062500
vt 0.875000 0.093750
vt 0.843750 0.093750
vt 0.812500 0.093750
vt 0.781250 0.093750
vt 0.750000 0.093750
vt 0.718750 0.093750
vt 0.687500 0.093750
vt 0.656250 0.093750
vt 0.875000 0.125000
vt 0.843750 0.125000
vt 0.812500 0.125000
vt 0.781250 0.125000
vt 0.750000 0.125000
vt 0.718750 0.125000
vt 0.687500 0.125000
vt 0.656250 0.125000
vt 0.875000 0.156250
vt 0.843750 0.156250
vt 0.812500 0.156250
vt 0.781250 0.156250
vt 0.750000 0.156250
vt 0.718750 0.156250
vt 0.687500 0.156250
vt 0.656250 0.156250
vt 0.875000 0.187500
vt 0.843750 0.187500
vt 0.812500 0.187500
vt 0.781250 0.187500
vt 0.750000 0.187500
vt 0.718750 0.187500
vt 0.687500 0.187500
vt 0.656250 0.187500
vt 0.875000 0.218750
vt 0.843750 0.218750
vt 0.812500 0.218750
vt 0.781250 0.218750
vt 0.750000 0.218750
vt 0.718750 0.218750
vt 0.687500 0.218750
vt 0.656250 0.218750
vt 0.875000 0.250000
vt 0.843750 0.250000
vt 0.812500 0.250000
vt 0.781250 0.250000
vt 0.750000 0.250000
vt 0.718750 0.250000
vt 0.687500 0.250000
vt 0.656250 0.250000
vt 0.125000 0.000000
vt 0.156250 0.000000
vt 0.187500 0.000000
vt 0.218750 0.000000
vt 0.250000 0.000000
vt 0.281250 0.000000
vt 0.312500 0.000000
vt 0.343750 0.000000
vt 0.125000 0.031250
vt 0.156250 0.031250
vt 0.187500 0.031250
vt 0.218750 0.031250
vt 0.250000 0.031250
vt 0.281250 0.031250
vt 0.312500 0.031250
vt 0.343750 0.031250
vt 0.125000 0.062500
vt 0.156250 0.062500
vt 0.187500 0.062500
vt 0.218750 0.062500
vt 0.250000 0.062500
vt 0.281250 0.062500
vt 0.312500 0.062500
vt 0.343750 0.062500
vt 0.125000 0.093750
vt 0.156250 0.093750
vt 0.187500 0.093750
vt 0.218750 0.093750
vt 0.250000 0.093750
vt 0.281250 0.093750
vt 0.312500 0.093750
vt 0.343750 0.093750
vt 0.125000 0.125000
vt 0.156250 0.125000
vt 0.187500 0.125000
vt 0.218750 0.125000
vt 0.250000 0.125000
vt 0.281250 0.125000
vt 0.312500 0.125000
vt 0.343750 0.125000
vt 0.125000 0.156250
vt 0.156250 0.156250
vt 0.187500 0.156250
vt 0.218750 0.156250
vt 0.250000 0.156250
vt 0.281250 0.156250
vt 0.312500 0.156250
vt 0.343750 0.156250
vt 0.125000 0.187500
vt 0.156250 0.187500
vt 0.187500 0.187500
vt 0.218750 0.187500
vt 0.250000 0.187500
vt 0.281250 0.187500
vt 0.312500 0.187500
vt 0.343750 0.187500
vt 0.125000 0.218750
vt 0.156250 0.218750
vt 0.187500 0.218750
vt 0.218750 0.218750
vt 0.250000 0.218750
vt 0.281250 0.218750
vt 0.312500 0.218750
vt 0.343750 0.218750
vt 0.125000 0.250000
vt 0.156250 0.250000
vt 0.187500 0.250000
vt 0.218750 0.250000
vt 0.250000 0.250000
vt 0.281250 0.250000
vt 0.312500 0.250000
vt 0.343750 0.250000
vt 0.406250 0.750000
vt 0.437500 0.750000
vt 0.406250 0.781250
vt 0.468750 0.750000
vt 0.468750 0.781250
vt 0.531250 0.750000
vt 0.562500 0.750000
vt 0.531250 0.781250
vt 0.593750 0.750000
vt 0.593750 0.781250
vt 0.406250 0.812500
vt 0.468750 0.812500
vt 0.531250 0.812500
vt 0.593750 0.812500
vt 0.406250 0.843750
vt 0.468750 0.843750
vt 0.531250 0.843750
vt 0.593750 0.843750
vt 0.406250 0.875000
vt 0.468750 0.875000
vt 0.531250 0.875000
vt 0.593750 0.875000
vt 0.406250 0.906250
vt 0.468750 0.906250
vt 0.531250 0.906250
vt 0.593750 0.906250
vt 0.406250 0.937500
vt 0.468750 0.937500
vt 0.531250 0.937500
vt 0.593750 0.937500
vt 0.406250 0.968750
vt 0.468750 0.968750
vt 0.531250 0.968750
vt 0.593750 0.968750
vt 0.437500 1.000000
vt 0.406250 1.000000
vt 0.468750 1.000000
vt 0.562500 1.000000
vt 0.531250 1.000000
vt 0.593750 1.000000
vt 0.406250 0.281250
vt 0.437500 0.281250
vt 0.406250 0.312500
vt 0.468750 0.281250
vt 0.500000 0.281250
vt 0.531250 0.281250
vt 0.562500 0.281250
vt 0.593750 0.281250
vt 0.593750 0.312500
vt 0.406250 0.343750
vt 0.593750 0.343750
vt 0.406250 0.375000
vt 0.593750 0.375000
vt 0.406250 0.406250
vt 0.593750 0.406250
vt 0.406250 0.437500
vt 0.593750 0.437500
vt 0.437500 0.468750
vt 0.406250 0.468750
vt 0.468750 0.468750
vt 0.500000 0.468750
vt 0.531250 0.468750
vt 0.562500 0.468750
vt 0.593750 0.468750
vt 0.437500 0.312500
vt 0.468750 0.312500
vt 0.437500 0.343750
vt 0.500000 0.312500
vt 0.531250 0.312500
vt 0.562500 0.312500
vt 0.562500 0.343750
vt 0.437500 0.375000
vt 0.562500 0.375000
vt 0.437500 0.406250
vt 0.562500 0.406250
vt 0.468750 0.437500
vt 0.437500 0.437500
vt 0.500000 0.437500
vt 0.531250 0.437500
vt 0.562500 0.437500
vt 0.531250 0.750000
vt 0.562500 0.750000
vt 0.562500 0.750000
vt 0.531250 0.750000
vt 0.531250 0.781250
vt 0.531250 0.750000
vt 0.531250 0.750000
vt 0.531250 0.781250
vt 0.562500 0.750000
vt 0.593750 0.750000
vt 0.593750 0.750000
vt 0.562500 0.750000
vt 0.593750 0.750000
vt 0.593750 0.781250
vt 0.593750 0.781250
vt 0.593750 0.750000
vt 0.406250 0.812500
vt 0.406250 0.781250
vt 0.406250 0.781250
vt 0.406250 0.812500
vt 0.468750 0.781250
vt 0.468750 0.812500
vt 0.468750 0.812500
vt 0.468750 0.781250
vt 0.531250 0.812500
vt 0.531250 0.781250
vt 0.531250 0.781250
vt 0.531250 0.812500
vt 0.593750 0.781250
vt 0.593750 0.812500
vt 0.593750 0.812500
vt 0.593750 0.781250
vt 0.406250 0.843750
vt 0.406250 0.812500
vt 0.406250 0.812500
vt 0.406250 0.843750
vt 0.468750 0.812500
vt 0.468750 0.843750
vt 0.468750 0.843750
vt 0.468750 0.812500
vt 0.531250 0.843750
vt 0.531250 0.812500
vt 0.531250 0.812500
vt 0.531250 0.843750
vt 0.593750 0.812500
vt 0.593750 0.843750
vt 0.593750 0.843750
vt 0.593750 0.812500
vt 0.406250 0.875000
vt 0.406250 0.843750
vt 0.406250 0.843750
vt 0.406250 0.875000
vt 0.468750 0.843750
vt 0.468750 0.875000
vt 0.468750 0.875000
vt 0.468750 0.843750
vt 0.531250 0.875000
vt 0.531250 0.843750
vt 0.531250 0.843750
vt 0.531250 0.875000
vt 0.593750 0.843750
vt 0.593750 0.875000
vt 0.593750 0.875000
vt 0.593750 0.843750
vt 0.406250 0.906250
vt 0.406250 0.875000
vt 0.406250 0.875000
vt 0.406250 0.906250
vt 0.468750 0.875000
vt 0.468750 0.906250
vt 0.468750 0.906250
vt 0.468750 0.875000
vt 0.531250 0.906250
vt 0.531250 0.875000
vt 0.531250 0.875000
vt 0.531250 0.906250
vt 0.593750 0.875000
vt 0.593750 0.906250
vt 0.593750 0.906250
vt 0.593750 0.875000
vt 0.406250 0.937500
vt 0.406250 0.906250
vt 0.406250 0.906250
vt 0.406250 0.937500
vt 0.468750 0.906250
vt 0.468750 0.937500
vt 0.468750 0.937500
vt 0.468750 0.906250
vt 0.531250 0.937500
vt 0.531250 0.906250
vt 0.531250 0.906250
vt 0.531250 0.937500
vt 0.593750 0.906250
vt 0.593750 0.937500
vt 0.593750 0.937500
vt 0.593750 0.906250
vt 0.406250 0.968750
vt 0.406250 0.937500
vt 0.406250 0.937500
vt 0.406250 0.968750
vt 0.468750 0.937500
vt 0.468750 0.968750
vt 0.468750 0.968750
vt 0.468750 0.937500
vt 0.531250 0.968750
vt 0.531250 0.937500
vt 0.531250 0.937500
vt 0.531250 0.968750
vt 0.593750 0.937500
vt 0.593750 0.968750
vt 0.593750 0.968750
vt 0.593750 0.937500
vt 0.406250 1.000000
vt 0.406250 1.000000
vt 0.437500 1.000000
vt 0.406250 1.000000
vt 0.406250 0.968750
vt 0.406250 0.968750
vt 0.406250 1.000000
vt 0.468750 0.968750
vt 0.468750 1.000000
vt 0.468750 1.000000
vt 0.468750 0.968750
vt 0.468750 1.000000
vt 0.437500 1.000000
vt 0.437500 1.000000
vt 0.468750 1.000000
vt 0.437500 0.250000
vt 0.468750 0.250000
vt 0.468750 0.281250
vt 0.437500 0.281250
vt 0.531250 0.250000
vt 0.562500 0.250000
vt 0.562500 0.281250
vt 0.531250 0.281250
vt 0.437500 0.468750
vt 0.468750 0.468750
vt 0.468750 0.500000
vt 0.437500 0.500000
vt 0.531250 0.468750
vt 0.562500 0.468750
vt 0.562500 0.500000
vt 0.531250 0.500000
vt 0.437500 0.187500
vt 0.468750 0.187500
vt 0.468750 0.218750
vt 0.437500 0.218750
vt 0.531250 0.187500
vt 0.562500 0.187500
vt 0.562500 0.218750
vt 0.531250 0.218750
vt 0.468750 0.250000
vt 0.437500 0.250000
vt 0.562500 0.250000
vt 0.531250 0.250000
vt 0.468750 0.500000
vt 0.468750 0.531250
vt 0.437500 0.531250
vt 0.437500 0.500000
vt 0.562500 0.500000
vt 0.562500 0.531250
vt 0.531250 0.531250
vt 0.531250 0.500000
vt 0.468750 0.562500
vt 0.437500 0.562500
vt 0.562500 0.562500
vt 0.531250 0.562500
vt 0.468750 0.250000
vt 0.437500 0.250000
vt 0.562500 0.250000
vt 0.531250 0.250000
vt 0.437500 0.500000
vt 0.468750 0.500000
vt 0.531250 0.500000
vt 0.562500 0.500000
vn -0.589488 0.000000 0.807777
vn -0.298791 0.000000 0.954319
vn -0.342777 0.000000 0.939417
vn -0.589488 0.000000 0.807777
vn 0.000000 0.000000 1.000000
vn 0.000000 0.000000 1.000000
vn 0.000000 0.000000 1.000000
vn 0.000000 0.000000 1.000000
vn 0.000000 0.000000 1.000000
vn 0.000000 0.000000 1.000000
vn 0.000000 0.000000 1.000000
vn 0.000000 0.000000 1.000000
vn 0.000000 0.000000 1.000000
vn 0.000000 0.000000 1.000000
vn 0.298791 0.000000 0.954319
vn 0.342777 0.000000 0.939417
vn 0.589488 0.000000 0.807777
vn 0.589488 0.000000 0.807777
vn -0.342777 0.000000 0.939417
vn -0.589488 0.000000 0.807777
vn 0.000000 0.000000 1.000000
vn 0.000000 0.000000 1.000000
vn 0.000000 0.000000 1.000000
vn 0.000000 0.000000 1.000000
vn 0.000000 0.000000 1.000000
vn 0.342777 0.000000 0.939417
vn 0.589488 0.000000 0.807777
vn -0.342777 0.000000 0.939417
vn -0.589488 0.000000 0.807777
vn 0.000000 0.000000 1.000000
vn 0.000000 0.000000 1.000000
vn 0.000000 0.000000 1.000000
vn 0.000000 0.000000 1.000000
vn 0.000000 0.000000 1.000000
vn 0.342777 0.000000 0.939417
vn 0.589488 0.000000 0.807777
vn -0.342777 0.000000 0.939417
vn -0.589488 0.000000 0.807777
vn 0.000000 0.000000 1.000000
vn 0.000000 0.000000 1.000000
vn 0.000000 0.000000 1.000000
vn 0.000000 0.000000 1.000000
vn 0.000000 0.000000 1.000000
vn 0.342777 0.000000 0.939417
vn 0.589488 0.000000 0.807777
vn -0.342777 0.000000 0.939417
vn -0.589488 0.000000 0.807777
vn 0.000000 0.000000 1.000000
vn 0.000000 0.000000 1.000000
vn 0.000000 0.000000 1.000000
vn 0.000000 0.000000 1.000000
vn 0.000000 0.000000 1.000000
vn 0.342777 0.000000 0.939417
vn 0.589488 0.000000 0.807777
vn -0.342777 0.000000 0.939417
vn -0.589488 0.000000 0.807777
vn 0.000000 0.000000 1.000000
vn 0.000000 0.000000 1.000000
vn 0.000000 0.000000 1.000000
vn 0.000000 0.000000 1.000000
vn 0.000000 0.000000 1.000000
vn 0.342777 0.000000 0.939417
vn 0.589488 0.000000 0.807777
vn -0.342777 0.000000 0.939417
vn -0.589488 0.000000 0.807777
vn 0.000000 0.000000 1.000000
vn 0.000000 -0.096128 0.995369
vn 0.000000 -0.096128 0.995369
vn 0.000000 -0.050012 0.998749
vn 0.000000 -0.050012 0.998749
vn 0.000000 0.000000 1.000000
vn 0.000000 0.000000 1.000000
vn 0.000000 0.000000 1.000000
vn 0.000000 -0.096128 0.995369
vn 0.000000 -0.096128 0.995369
vn 0.000000 -0.050012 0.998749
vn 0.000000 -0.050012 0.998749
vn 0.342777 0.000000 0.939417
vn 0.000000 0.000000 1.000000
vn 0.589488 0.000000 0.807777
vn -0.342777 0.000000 0.939417
vn -0.589488 0.000000 0.807777
vn 0.000000 0.000000 1.000000
vn 0.000000 0.161126 0.986934
vn 0.000000 0.161126 0.986934
vn 0.000000 0.000000 1.000000
vn 0.000000 0.000000 1.000000
vn 0.000000 0.000000 1.000000
vn 0.000000 0.161126 0.986934
vn 0.000000 0.161126 0.986934
vn 0.342777 0.000000 0.939417
vn 0.000000 0.000000 1.000000
vn 0.589488 0.000000 0.807777
vn 0.000000 1.000000 0.000000
vn 0.000000 1.000000 0.000000
vn 0.000000 1.000000 0.000000
vn 0.000000 1.000000 0.000000
vn 0.000000 1.000000 0.000000
vn 0.000000 1.000000 0.000000
vn 0.000000 0.998646 -0.052012
vn 0.000000 0.998646 -0.052012
vn 0.000000 0.996595 -0.082453
vn 0.000000 0.996595 -0.082453
vn 0.000000 1.000000 0.000000
vn 0.000000 1.000000 0.000000
vn 0.000000 1.000000 0.000000
vn 0.000000 1.000000 0.000000
vn 0.000000 1.000000 0.000000
vn 0.000000 1.000000 0.000000
vn 0.000000 0.998646 -0.052012
vn 0.000000 0.998646 -0.052012
vn 0.000000 0.996595 -0.082453
vn 0.000000 0.996595 -0.082453
vn 0.000000 1.000000 0.000000
vn 0.000000 1.000000 0.000000
vn 0.000000 1.000000 0.000000
vn 0.000000 1.000000 0.000000
vn 0.000000 1.000000 0.000000
vn 0.000000 1.000000 0.000000
vn 0.000000 1.000000 0.000000
vn 0.000000 1.000000 0.000000
vn 0.000000 1.000000 0.000000
vn 0.000000 1.000000 0.000000
vn 0.000000 1.000000 0.000000
vn 0.000000 1.000000 0.000000
vn 0.000000 1.000000 0.000000
vn 0.000000 1.000000 0.000000
vn 0.000000 1.000000 0.000000
vn 0.000000 1.000000 0.000000
vn 0.000000 1.000000 0.000000
vn 0.000000 1.000000 0.000000
vn 0.000000 1.000000 0.000000
vn 0.000000 1.000000 0.000000
vn 0.000000 1.000000 0.000000
vn 0.000000 1.000000 0.000000
vn 0.000000 1.000000 0.000000
vn 0.000000 1.000000 0.000000
vn 0.000000 1.000000 0.000000
vn 0.000000 1.000000 0.000000
vn 0.000000 1.000000 0.000000
vn 0.000000 1.000000 0.000000
vn 0.000000 1.000000 0.000000
vn 0.000000 1.000000 0.000000
vn 0.000000 1.000000 0.000000
vn 0.000000 1.000000 0.000000
vn 0.000000 1.000000 0.000000
vn 0.000000 1.000000 0.000000
vn 0.000000 1.000000 0.000000
vn 0.000000 1.000000 0.000000
vn 0.000000 1.000000 0.000000
vn 0.000000 1.000000 0.000000
vn 0.000000 1.000000 0.000000
vn 0.000000 1.000000 0.000000
vn 0.000000 1.000000 0.000000
vn 0.000000 1.000000 0.000000
vn 0.000000 1.000000 0.000000
vn 0.000000 1.000000 0.000000
vn 0.000000 1.000000 0.000000
vn 0.000000 1.000000 0.000000
vn 0.000000 1.000000 0.000000
vn 0.000000 1.000000 0.000000
vn 0.000000 1.000000 0.000000
vn 0.000000 1.000000 0.000000
vn 0.000000 1.000000 0.000000
vn 0.000000 1.000000 0.000000
vn 0.000000 1.000000 0.000000
vn 0.000000 1.000000 0.000000
vn 0.000000 1.000000 0.000000
vn 0.000000 1.000000 0.000000
vn 0.000000 1.000000 0.000000
vn 0.000000 1.000000 0.000000
vn 0.000000 1.000000 0.000000
vn 0.000000 1.000000 0.000000
vn 0.000000 1.000000 0.000000
vn 0.000000 1.000000 0.000000
vn 0.000000 1.000000 0.000000
vn 0.000000 1.000000 0.000000
vn 0.000000 1.000000 0.000000
vn 0.000000 1.000000 0.000000
vn 0.000000 1.000000 0.000000
vn 0.000000 1.000000 0.000000
vn 0.000000 1.000000 0.000000
vn 0.000000 1.000000 0.000000
vn 0.000000 1.000000 0.000000
vn 0.000000 1.000000 0.000000
vn 0.000000 1.000000 0.000000
vn 0.000000 1.000000 0.000000
vn 0.000000 1.000000 0.000000
vn 0.000000 1.000000 0.000000
vn 0.000000 1.000000 0.000000
vn 0.000000 1.000000 0.000000
vn 0.000000 1.000000 0.000000
vn 0.000000 1.000000 0.000000
vn 0.000000 1.000000 0.000000
vn 0.000000 1.000000 0.000000
vn 0.000000 1.000000 0.000000
vn 0.000000 1.000000 0.000000
vn 0.000000 1.000000 0.000000
vn 0.000000 1.000000 0.000000
vn 0.000000 1.000000 0.000000
vn 0.000000 1.000000 0.000000
vn 0.000000 1.000000 0.000000
vn 0.000000 1.000000 0.000000
vn 0.000000 1.000000 0.000000
vn 0.000000 1.000000 0.000000
vn 0.000000 1.000000 0.000000
vn 0.000000 1.000000 0.000000
vn 0.000000 1.000000 0.000000
vn 0.000000 1.000000 0.000000
vn 0.000000 1.000000 0.000000
vn 0.000000 1.000000 0.000000
vn 0.000000 1.000000 0.000000
vn 0.000000 0.996595 0.082453
vn 0.000000 0.996595 0.082453
vn 0.000000 0.998646 0.052012
vn 0.000000 0.998646 0.052012
vn 0.000000 1.000000 0.000000
vn 0.000000 1.000000 0.000000
vn 0.000000 1.000000 0.000000
vn 0.000000 1.000000 0.000000
vn 0.000000 1.000000 0.000000
vn 0.000000 1.000000 0.000000
vn 0.000000 0.996595 0.082453
vn 0.000000 0.996595 0.082453
vn 0.000000 0.998646 0.052012
vn 0.000000 0.998646 0.052012
vn 0.000000 1.000000 0.000000
vn 0.000000 1.000000 0.000000
vn 0.000000 1.000000 0.000000
vn 0.000000 1.000000 0.000000
vn -0.589488 0.000000 -0.807777
vn -0.342777 0.000000 -0.939417
vn -0.342777 0.000000 -0.939417
vn -0.589488 0.000000 -0.807777
vn 0.000000 0.000000 -1.000000
vn 0.000000 0.000000 -1.000000
vn 0.000000 0.161126 -0.986934
vn 0.000000 0.161126 -0.986934
vn 0.000000 -0.050012 -0.998749
vn 0.000000 -0.050012 -0.998749
vn 0.000000 0.000000 -1.000000
vn 0.000000 0.000000 -1.000000
vn 0.000000 0.000000 -1.000000
vn 0.000000 0.000000 -1.000000
vn 0.000000 0.000000 -1.000000
vn 0.000000 0.000000 -1.000000
vn 0.000000 0.161126 -0.986934
vn 0.000000 0.161126 -0.986934
vn 0.000000 -0.050012 -0.998749
vn 0.000000 -0.050012 -0.998749
vn 0.000000 0.000000 -1.000000
vn 0.342777 0.000000 -0.939417
vn 0.342777 0.000000 -0.939417
vn 0.000000 0.000000 -1.000000
vn 0.589488 0.000000 -0.807777
vn 0.589488 0.000000 -0.807777
vn -0.342777 0.000000 -0.939417
vn -0.589488 0.000000 -0.807777
vn 0.000000 0.000000 -1.000000
vn 0.000000 -0.096128 -0.995369
vn 0.000000 -0.096128 -0.995369
vn 0.000000 0.000000 -1.000000
vn 0.000000 0.000000 -1.000000
vn 0.000000 0.000000 -1.000000
vn 0.000000 -0.096128 -0.995369
vn 0.000000 -0.096128 -0.995369
vn 0.342777 0.000000 -0.939417
vn 0.000000 0.000000 -1.000000
vn 0.589488 0.000000 -0.807777
vn -0.342777 0.000000 -0.939417
vn -0.589488 0.000000 -0.807777
vn 0.000000 0.000000 -1.000000
vn 0.000000 0.000000 -1.000000
vn 0.000000 0.000000 -1.000000
vn 0.000000 0.000000 -1.000000
vn 0.000000 0.000000 -1.000000
vn 0.342777 0.000000 -0.939417
vn 0.589488 0.000000 -0.807777
vn -0.342777 0.000000 -0.939417
vn -0.589488 0.000000 -0.807777
vn 0.000000 0.000000 -1.000000
vn 0.000000 0.000000 -1.000000
vn 0.000000 0.000000 -1.000000
vn 0.000000 0.000000 -1.000000
vn 0.000000 0.000000 -1.000000
vn 0.342777 0.000000 -0.939417
vn 0.589488 0.000000 -0.807777
vn -0.342777 0.000000 -0.939417
vn -0.589488 0.000000 -0.807777
vn 0.000000 0.000000 -1.000000
vn 0.000000 0.000000 -1.000000
vn 0.000000 0.000000 -1.000000
vn 0.000000 0.000000 -1.000000
vn 0.000000 0.000000 -1.000000
vn 0.342777 0.000000 -0.939417
vn 0.589488 0.000000 -0.807777
vn -0.342777 0.000000 -0.939417
vn -0.589488 0.000000 -0.807777
vn 0.000000 0.000000 -1.000000
vn 0.000000 0.000000 -1.000000
vn 0.000000 0.000000 -1.000000
vn 0.000000 0.000000 -1.000000
vn 0.000000 0.000000 -1.000000
vn 0.342777 0.000000 -0.939417
vn 0.589488 0.000000 -0.807777
vn -0.342777 0.000000 -0.939417
vn -0.589488 0.000000 -0.807777
vn 0.000000 0.000000 -1.000000
vn 0.000000 0.000000 -1.000000
vn 0.000000 0.000000 -1.000000
vn 0.000000 0.000000 -1.000000
vn 0.000000 0.000000 -1.000000
vn 0.342777 0.000000 -0.939417
vn 0.589488 0.000000 -0.807777
vn -0.298791 0.000000 -0.954319
vn -0.589488 0.000000 -0.807777
vn 0.000000 0.000000 -1.000000
vn 0.000000 0.000000 -1.000000
vn 0.000000 0.000000 -1.000000
vn 0.000000 0.000000 -1.000000
vn 0.000000 0.000000 -1.000000
vn 0.298791 0.000000 -0.954319
vn 0.589488 0.000000 -0.807777
vn 0.000000 -1.000000 0.000000
vn 0.000000 -1.000000 0.000000
vn 0.000000 -1.000000 0.000000
vn 0.000000 -1.000000 0.000000
vn 0.000000 -1.000000 0.000000
vn 0.000000 -1.000000 0.000000
vn 0.000000 -1.000000 0.000000
vn 0.000000 -1.000000 0.000000
vn 0.000000 -1.000000 0.000000
vn 0.000000 -1.000000 0.000000
vn 0.000000 -1.000000 0.000000
vn 0.000000 -1.000000 0.000000
vn 0.000000 -1.000000 0.000000
vn 0.000000 -1.000000 0.000000
vn 0.000000 -1.000000 0.000000
vn 0.000000 -1.000000 0.000000
vn 0.000000 -1.000000 0.000000
vn 0.000000 -1.000000 0.000000
vn 0.000000 -1.000000 0.000000
vn 0.000000 -1.000000 0.000000
vn 0.000000 -1.000000 0.000000
vn 0.000000 -1.000000 0.000000
vn 0.000000 -1.000000 0.000000
vn 0.000000 -1.000000 0.000000
vn 0.000000 -1.000000 0.000000
vn 0.000000 -1.000000 0.000000
vn 0.000000 -1.000000 0.000000
vn 0.000000 -1.000000 0.000000
vn 0.000000 -1.000000 0.000000
vn 0.000000 -1.000000 0.000000
vn 0.000000 -1.000000 0.000000
vn 0.000000 -1.000000 0.000000
vn 0.000000 -1.000000 0.000000
vn 0.000000 -1.000000 0.000000
vn 0.000000 -1.000000 0.000000
vn 0.000000 -1.000000 0.000000
vn 0.000000 -1.000000 0.000000
vn 0.000000 -1.000000 0.000000
vn 0.000000 -1.000000 0.000000
vn 0.000000 -1.000000 0.000000
vn 0.000000 -1.000000 0.000000
vn 0.000000 -1.000000 0.000000
vn 0.000000 -1.000000 0.000000
vn 0.000000 -1.000000 0.000000
vn 0.000000 -1.000000 0.000000
vn 0.000000 -1.000000 0.000000
vn 0.000000 -1.000000 0.000000
vn 0.000000 -1.000000 0.000000
vn 0.000000 -1.000000 0.000000
vn 0.000000 -1.000000 0.000000
vn 0.000000 -1.000000 0.000000
vn 0.000000 -1.000000 0.000000
vn 0.000000 -1.000000 0.000000
vn 0.000000 -1.000000 0.000000
vn 0.000000 -1.000000 0.000000
vn 0.000000 -1.000000 0.000000
vn 0.000000 -1.000000 0.000000
vn 0.000000 -1.000000 0.000000
vn 0.000000 -1.000000 0.000000
vn 0.000000 -1.000000 0.000000
vn 0.000000 -1.000000 0.000000
vn 0.000000 -1.000000 0.000000
vn 0.000000 -1.000000 0.000000
vn 0.000000 -1.000000 0.000000
vn 0.000000 -1.000000 0.000000
vn 0.000000 -1.000000 0.000000
vn 0.000000 -1.000000 0.000000
vn 0.000000 -1.000000 0.000000
vn 0.000000 -1.000000 0.000000
vn 0.000000 -1.000000 0.000000
vn 0.000000 -1.000000 0.000000
vn 0.000000 -1.000000 0.000000
vn 0.000000 -1.000000 0.000000
vn 0.000000 -1.000000 0.000000
vn 0.000000 -1.000000 0.000000
vn 0.000000 -1.000000 0.000000
vn 0.000000 -1.000000 0.000000
vn 0.000000 -1.000000 0.000000
vn 0.000000 -1.000000 0.000000
vn 0.000000 -1.000000 0.000000
vn 0.000000 -1.000000 0.000000
vn 0.000000 -1.000000 0.000000
vn 0.000000 -1.000000 0.000000
vn 0.000000 -1.000000 0.000000
vn 0.000000 -1.000000 0.000000
vn 0.000000 -1.000000 0.000000
vn 0.000000 -1.000000 0.000000
vn 0.000000 -1.000000 0.000000
vn 0.000000 -1.000000 0.000000
vn 0.000000 -1.000000 0.000000
vn 0.000000 -1.000000 0.000000
vn 0.000000 -1.000000 0.000000
vn 0.000000 -1.000000 0.000000
vn 0.000000 -1.000000 0.000000
vn 0.000000 -1.000000 0.000000
vn 0.000000 -1.000000 0.000000
vn 0.000000 -1.000000 0.000000
vn 0.000000 -1.000000 0.000000
vn 0.000000 -1.000000 0.000000
vn 0.000000 -1.000000 0.000000
vn 0.000000 -1.000000 0.000000
vn 0.000000 -1.000000 0.000000
vn 0.000000 -1.000000 0.000000
vn 0.000000 -1.000000 0.000000
vn 0.000000 -1.000000 0.000000
vn 0.000000 -1.000000 0.000000
vn 0.000000 -1.000000 0.000000
vn 0.000000 -1.000000 0.000000
vn 0.000000 -1.000000 0.000000
vn 0.000000 -1.000000 0.000000
vn 0.000000 -1.000000 0.000000
vn 0.000000 -1.000000 0.000000
vn 0.000000 -1.000000 0.000000
vn 0.000000 -1.000000 0.000000
vn 0.000000 -1.000000 0.000000
vn 0.000000 -1.000000 0.000000
vn 0.000000 -1.000000 0.000000
vn 1.000000 0.000000 0.000000
vn 1.000000 0.000000 0.000000
vn 1.000000 0.000000 0.000000
vn 1.000000 0.000000 0.000000
vn 1.000000 0.000000 0.000000
vn 1.000000 0.000000 0.000000
vn 1.000000 0.000000 0.000000
vn 1.000000 0.000000 0.000000
vn 1.000000 0.000000 0.000000
vn 1.000000 0.000000 0.000000
vn 1.000000 0.000000 0.000000
vn 1.000000 0.000000 0.000000
vn 1.000000 0.000000 0.000000
vn 1.000000 0.000000 0.000000
vn 1.000000 0.000000 0.000000
vn 1.000000 0.000000 0.000000
vn 1.000000 0.000000 0.000000
vn 1.000000 0.000000 0.000000
vn 1.000000 0.000000 0.000000
vn 1.000000 0.000000 0.000000
vn 1.000000 0.000000 0.000000
vn 1.000000 0.000000 0.000000
vn 1.000000 0.000000 0.000000
vn 1.000000 0.000000 0.000000
vn 1.000000 0.000000 0.000000
vn 1.000000 0.000000 0.000000
vn 1.000000 0.000000 0.000000
vn 1.000000 0.000000 0.000000
vn 1.000000 0.000000 0.000000
vn 1.000000 0.000000 0.000000
vn 1.000000 0.000000 0.000000
vn 1.000000 0.000000 0.000000
vn 1.000000 0.000000 0.000000
vn 1.000000 0.000000 0.000000
vn 1.000000 0.000000 0.000000
vn 1.000000 0.000000 0.000000
vn 1.000000 0.000000 0.000000
vn 1.000000 0.000000 0.000000
vn 1.000000 0.000000 0.000000
vn 1.000000 0.000000 0.000000
vn 1.000000 0.000000 0.000000
vn 1.000000 0.000000 0.000000
vn 1.000000 0.000000 0.000000
vn 1.000000 0.000000 0.000000
vn 1.000000 0.000000 0.000000
vn 1.000000 0.000000 0.000000
vn 1.000000 0.000000 0.000000
vn 1.000000 0.000000 0.000000
vn 1.000000 0.000000 0.000000
vn 1.000000 0.000000 0.000000
vn 1.000000 0.000000 0.000000
vn 1.000000 0.000000 0.000000
vn 1.000000 0.000000 0.000000
vn 1.000000 0.000000 0.000000
vn 1.000000 0.000000 0.000000
vn 1.000000 0.000000 0.000000
vn 1.000000 0.000000 0.000000
vn 1.000000 0.000000 0.000000
vn 1.000000 0.000000 0.000000
vn 1.000000 0.000000 0.000000
vn 1.000000 0.000000 0.000000
vn 1.000000 0.000000 0.000000
vn 1.000000 0.000000 0.000000
vn 1.000000 0.000000 0.000000
vn 1.000000 0.000000 0.000000
vn 1.000000 0.000000 0.000000
vn 1.000000 0.000000 0.000000
vn 1.000000 0.000000 0.000000
vn 1.000000 0.000000 0.000000
vn 1.000000 0.000000 0.000000
vn 1.000000 0.000000 0.000000
vn 1.000000 0.000000 0.000000
vn 1.000000 0.000000 0.000000
vn 1.000000 0.000000 0.000000
vn 1.000000 0.000000 0.000000
vn 1.000000 0.000000 0.000000
vn 1.000000 0.000000 0.000000
vn 1.000000 0.000000 0.000000
vn 1.000000 0.000000 0.000000
vn 1.000000 0.000000 0.000000
vn 1.000000 0.000000 0.000000
vn -1.000000 0.000000 0.000000
vn -1.000000 0.000000 0.000000
vn -1.000000 0.000000 0.000000
vn -1.000000 0.000000 0.000000
vn -1.000000 0.000000 0.000000
vn -1.000000 0.000000 0.000000
vn -1.000000 0.000000 0.000000
vn -1.000000 0.000000 0.000000
vn -1.000000 0.000000 0.000000
vn -1.000000 0.000000 0.000000
vn -1.000000 0.000000 0.000000
vn -1.000000 0.000000 0.000000
vn -1.000000 0.000000 0.000000
vn -1.000000 0.000000 0.000000
vn -1.000000 0.000000 0.000000
vn -1.000000 0.000000 0.000000
vn -1.000000 0.000000 0.000000
vn -1.000000 0.000000 0.000000
vn -1.000000 0.000000 0.000000
vn -1.000000 0.000000 0.000000
vn -1.000000 0.000000 0.000000
vn -1.000000 0.000000 0.000000
vn -1.000000 0.000000 0.000000
vn -1.000000 0.000000 0.000000
vn -1.000000 0.000000 0.000000
vn -1.000000 0.000000 0.000000
vn -1.000000 0.000000 0.000000
vn -1.000000 0.000000 0.000000
vn -1.000000 0.000000 0.000000
vn -1.000000 0.000000 0.000000
vn -1.000000 0.000000 0.000000
vn -1.000000 0.000000 0.000000
vn -1.000000 0.000000 0.000000
vn -1.000000 0.000000 0.000000
vn -1.000000 0.000000 0.000000
vn -1.000000 0.000000 0.000000
vn -1.000000 0.000000 0.000000
vn -1.000000 0.000000 0.000000
vn -1.000000 0.000000 0.000000
vn -1.000000 0.000000 0.000000
vn -1.000000 0.000000 0.000000
vn -1.000000 0.000000 0.000000
vn -1.000000 0.000000 0.000000
vn -1.000000 0.000000 0.000000
vn -1.000000 0.000000 0.000000
vn -1.000000 0.000000 0.000000
vn -1.000000 0.000000 0.000000
vn -1.000000 0.000000 0.000000
vn -1.000000 0.000000 0.000000
vn -1.000000 0.000000 0.000000
vn -1.000000 0.000000 0.000000
vn -1.000000 0.000000 0.000000
vn -1.000000 0.000000 0.000000
vn -1.000000 0.000000 0.000000
vn -1.000000 0.000000 0.000000
vn -1.000000 0.000000 0.000000
vn -1.000000 0.000000 0.000000
vn -1.000000 0.000000 0.000000
vn -1.000000 0.000000 0.000000
vn -1.000000 0.000000 0.000000
vn -1.000000 0.000000 0.000000
vn -1.000000 0.000000 0.000000
vn -1.000000 0.000000 0.000000
vn -1.000000 0.000000 0.000000
vn -1.000000 0.000000 0.000000
vn -1.000000 0.000000 0.000000
vn -1.000000 0.000000 0.000000
vn -1.000000 0.000000 0.000000
vn -1.000000 0.000000 0.000000
vn -1.000000 0.000000 0.000000
vn -1.000000 0.000000 0.000000
vn -1.000000 0.000000 0.000000
vn -1.000000 0.000000 0.000000
vn -1.000000 0.000000 0.000000
vn -1.000000 0.000000 0.000000
vn -1.000000 0.000000 0.000000
vn -1.000000 0.000000 0.000000
vn -1.000000 0.000000 0.000000
vn -1.000000 0.000000 0.000000
vn -1.000000 0.000000 0.000000
vn -1.000000 0.000000 0.000000
vn 0.000000 0.000000 -1.000000
vn 0.000000 0.000000 -1.000000
vn -1.000000 0.000000 0.000000
vn -1.000000 0.000000 0.000000
vn -1.000000 0.000000 0.000000
vn -1.000000 0.000000 0.000000
vn 0.000000 0.000000 -1.000000
vn 1.000000 0.000000 0.000000
vn 1.000000 0.000000 0.000000
vn 1.000000 0.000000 0.000000
vn 1.000000 0.000000 0.000000
vn -1.000000 0.000000 0.000000
vn -1.000000 0.000000 0.000000
vn 1.000000 0.000000 0.000000
vn 1.000000 0.000000 0.000000
vn -1.000000 0.000000 0.000000
vn -1.000000 0.000000 0.000000
vn 1.000000 0.000000 0.000000
vn 1.000000 0.000000 0.000000
vn -1.000000 0.000000 0.000000
vn -1.000000 0.000000 0.000000
vn 1.000000 0.000000 0.000000
vn 1.000000 0.000000 0.000000
vn -1.000000 0.000000 0.000000
vn -1.000000 0.000000 0.000000
vn 1.000000 0.000000 0.000000
vn 1.000000 0.000000 0.000000
vn -1.000000 0.000000 0.000000
vn -1.000000 0.000000 0.000000
vn 1.000000 0.000000 0.000000
vn 1.000000 0.000000 0.000000
vn -1.000000 0.000000 0.000000
vn -1.000000 0.000000 0.000000
vn 1.000000 0.000000 0.000000
vn 1.000000 0.000000 0.000000
vn 0.000000 0.000000 1.000000
vn 0.000000 0.000000 1.000000
vn -1.000000 0.000000 0.000000
vn -1.000000 0.000000 0.000000
vn 1.000000 0.000000 0.000000
vn 1.000000 0.000000 0.000000
vn 0.000000 0.000000 1.000000
vn 0.000000 0.000000 -1.000000
vn 0.000000 0.000000 -1.000000
vn -1.000000 0.000000 0.000000
vn -1.000000 0.000000 0.000000
vn -1.000000 0.000000 0.000000
vn -1.000000 0.000000 0.000000
vn 0.000000 0.000000 -1.000000
vn 1.000000 0.000000 0.000000
vn 1.000000 0.000000 0.000000
vn 1.000000 0.000000 0.000000
vn 1.000000 0.000000 0.000000
vn -1.000000 0.000000 0.000000
vn -1.000000 0.000000 0.000000
vn 1.000000 0.000000 0.000000
vn 1.000000 0.000000 0.000000
vn -1.000000 0.000000 0.000000
vn -1.000000 0.000000 0.000000
vn 1.000000 0.000000 0.000000
vn 1.000000 0.000000 0.000000
vn -1.000000 0.000000 0.000000
vn -1.000000 0.000000 0.000000
vn 1.000000 0.000000 0.000000
vn 1.000000 0.000000 0.000000
vn -1.000000 0.000000 0.000000
vn -1.000000 0.000000 0.000000
vn 1.000000 0.000000 0.000000
vn 1.000000 0.000000 0.000000
vn -1.000000 0.000000 0.000000
vn -1.000000 0.000000 0.000000
vn 1.000000 0.000000 0.000000
vn 1.000000 0.000000 0.000000
vn -1.000000 0.000000 0.000000
vn -1.000000 0.000000 0.000000
vn 1.000000 0.000000 0.000000
vn 1.000000 0.000000 0.000000
vn 0.000000 0.000000 1.000000
vn 0.000000 0.000000 1.000000
vn -1.000000 0.000000 0.000000
vn -1.000000 0.000000 0.000000
vn 1.000000 0.000000 0.000000
vn 1.000000 0.000000 0.000000
vn 0.000000 0.000000 1.000000
vn 0.000000 0.000000 -1.000000
vn 0.000000 0.000000 -1.000000
vn 0.000000 0.000000 -1.000000
vn 0.000000 0.000000 -1.000000
vn 1.000000 0.000000 0.000000
vn 1.000000 0.000000 0.000000
vn 1.000000 0.000000 0.000000
vn 1.000000 0.000000 0.000000
vn 0.000000 0.000000 -1.000000
vn 0.000000 0.000000 -1.000000
vn 0.000000 0.000000 -1.000000
vn 0.000000 0.000000 -1.000000
vn 0.000000 0.000000 -1.000000
vn 0.000000 0.000000 -1.000000
vn 0.000000 0.000000 -1.000000
vn 0.000000 0.000000 -1.000000
vn 0.000000 0.000000 -1.000000
vn 0.000000 0.000000 -1.000000
vn -1.000000 0.000000 0.000000
vn -1.000000 0.000000 0.000000
vn -1.000000 0.000000 0.000000
vn -1.000000 0.000000 0.000000
vn 1.000000 0.000000 0.000000
vn 1.000000 0.000000 0.000000
vn -1.000000 0.000000 0.000000
vn -1.000000 0.000000 0.000000
vn 1.000000 0.000000 0.000000
vn 1.000000 0.000000 0.000000
vn -1.000000 0.000000 0.000000
vn -1.000000 0.000000 0.000000
vn 1.000000 0.000000 0.000000
vn 1.000000 0.000000 0.000000
vn -1.000000 0.000000 0.000000
vn -1.000000 0.000000 0.000000
vn 1.000000 0.000000 0.000000
vn 1.000000 0.000000 0.000000
vn -1.000000 0.000000 0.000000
vn -1.000000 0.000000 0.000000
vn 0.000000 0.000000 1.000000
vn 0.000000 0.000000 1.000000
vn 0.000000 0.000000 1.000000
vn 0.000000 0.000000 1.000000
vn 1.000000 0.000000 0.000000
vn 1.000000 0.000000 0.000000
vn 0.000000 0.000000 1.000000
vn 0.000000 0.000000 1.000000
vn 0.000000 0.000000 1.000000
vn 0.000000 0.000000 1.000000
vn 0.000000 0.000000 1.000000
vn 0.000000 0.000000 1.000000
vn 0.000000 0.000000 1.000000
vn 0.000000 0.000000 1.000000
vn -1.000000 0.000000 0.000000
vn -1.000000 0.000000 0.000000
vn 0.000000 0.000000 1.000000
vn 0.000000 0.000000 1.000000
vn 0.000000 0.834075 0.551651
vn 0.000000 0.834076 0.551650
vn 0.000000 0.834076 0.551650
vn 0.000000 0.834075 0.551651
vn -0.551650 0.834076 0.000000
vn -0.551651 0.834075 0.000000
vn -0.551651 0.834075 0.000000
vn -0.551650 0.834076 0.000000
vn 0.000000 0.834075 0.551651
vn 0.000000 0.834075 0.551651
vn 0.000000 0.834075 0.551651
vn 0.000000 0.834075 0.551651
vn 0.000000 0.834076 0.551650
vn 0.000000 0.834076 0.551650
vn 0.551644 0.834080 0.000000
vn 0.551645 0.834079 0.000000
vn 0.551646 0.834079 0.000000
vn 0.551644 0.834080 0.000000
vn -0.551650 0.834076 0.000000
vn -0.551650 0.834076 0.000000
vn 0.551648 0.834077 0.000000
vn 0.551648 0.834077 0.000000
vn -0.551649 0.834076 0.000000
vn -0.551649 0.834076 0.000000
vn 0.551649 0.834077 0.000000
vn 0.551649 0.834076 0.000000
vn 0.000000 0.834075 -0.551651
vn 0.000000 0.834076 -0.551650
vn 0.000000 0.834076 -0.551650
vn 0.000000 0.834074 -0.551652
vn -0.551649 0.834076 0.000000
vn -0.551649 0.834076 0.000000
vn 0.000000 0.834074 -0.551653
vn 0.000000 0.834074 -0.551653
vn 0.000000 0.834075 -0.551652
vn 0.000000 0.834074 -0.551652
vn 0.551648 0.834077 0.000000
vn 0.551648 0.834077 0.000000
vn 0.000000 0.834075 -0.551651
vn 0.000000 0.834075 -0.551651
vn 0.000000 0.601017 0.799237
vn 0.000000 0.601017 0.799237
vn 1.000000 0.000004 0.000000
vn 1.000000 0.000000 0.000000
vn 1.000000 0.000000 0.000000
vn 1.000000 0.000008 0.000000
vn 0.000000 0.000000 -1.000000
vn 0.000000 0.000000 -1.000000
vn -1.000000 0.000000 0.000000
vn -1.000000 -0.000003 0.000000
vn -1.000000 -0.000006 0.000000
vn -1.000000 0.000000 0.000000
vn 0.000000 0.601017 0.799237
vn 0.000000 0.601017 0.799237
vn 1.000000 0.000004 0.000000
vn 1.000000 0.000000 0.000000
vn 1.000000 0.000000 0.000000
vn 1.000000 0.000008 0.000000
vn 0.000000 0.000000 -1.000000
vn 0.000000 0.000000 -1.000000
vn -1.000000 0.000000 0.000000
vn -1.000000 -0.000003 0.000000
vn -1.000000 -0.000006 0.000000
vn -1.000000 0.000000 0.000000
vn 0.000000 0.000000 1.000000
vn 0.000000 0.000000 1.000000
vn 1.000000 0.000000 0.000000
vn 1.000000 0.000003 0.000000
vn 1.000000 0.000006 0.000000
vn 1.000000 0.000000 0.000000
vn 0.000000 0.601017 -0.799237
vn 0.000000 0.601017 -0.799237
vn -1.000000 -0.000004 0.000000
vn -1.000000 0.000000 0.000000
vn -1.000000 0.000000 0.000000
vn -1.000000 -0.000008 0.000000
vn 0.000000 0.000000 1.000000
vn 0.000000 0.000000 1.000000
vn 1.000000 0.000000 0.000000
vn 1.000000 0.000003 0.000000
vn 1.000000 0.000006 0.000000
vn 1.000000 0.000000 0.000000
vn 0.000000 0.601017 -0.799237
vn 0.000000 0.601017 -0.799237
vn -1.000000 -0.000004 0.000000
vn -1.000000 0.000000 0.000000
vn -1.000000 0.000000 0.000000
vn -1.000000 -0.000008 0.000000
vn 0.000000 -1.000000 0.000000
vn 0.000000 -1.000000 0.000000
vn 0.000000 -1.000000 0.000000
vn 0.000000 -1.000000 0.000000
vn 1.000000 -0.000003 0.000000
vn 1.000000 -0.000002 0.000000
vn 1.000000 -0.000002 0.000000
vn 1.000000 -0.000003 0.000000
vn -1.000000 0.000003 0.000000
vn -1.000000 0.000007 0.000000
vn -1.000000 0.000007 0.000000
vn -1.000000 0.000003 0.000000
vn 1.000000 0.000002 0.000000
vn -1.000000 -0.000002 0.000000
vn 1.000000 0.000037 0.000000
vn 0.000000 0.986672 0.162722
vn 0.000000 0.986672 0.162722
vn -1.000000 -0.000028 0.000000
vn 0.000000 -1.000000 0.000000
vn 0.000000 -1.000000 0.000000
vn 0.000000 -1.000000 0.000000
vn 0.000000 -1.000000 0.000000
vn 1.000000 -0.000003 0.000000
vn 1.000000 -0.000002 0.000000
vn 1.000000 -0.000002 0.000000
vn 1.000000 -0.000003 0.000000
vn -1.000000 0.000003 0.000000
vn -1.000000 0.000007 0.000000
vn -1.000000 0.000007 0.000000
vn -1.000000 0.000003 0.000000
vn 1.000000 0.000002 0.000000
vn -1.000000 -0.000002 0.000000
vn 1.000000 0.000037 0.000000
vn 0.000000 0.986672 0.162722
vn 0.000000 0.986672 0.162722
vn -1.000000 -0.000028 0.000000
vn 1.000000 -0.000003 0.000000
vn 1.000000 -0.000003 0.000000
vn 1.000000 0.000002 0.000000
vn -1.000000 0.000002 0.000000
vn -1.000000 -0.000002 0.000000
vn -1.000000 0.000002 0.000000
vn 1.000000 -0.000007 0.000000
vn 1.000000 -0.000007 0.000000
vn 0.000000 -1.000000 0.000000
vn 0.000000 -1.000000 0.000000
vn 0.000000 -1.000000 0.000000
vn 0.000000 -1.000000 0.000000
vn -1.000000 0.000003 0.000000
vn -1.000000 0.000003 0.000000
vn -1.000000 -0.000037 0.000000
vn 0.000000 0.986672 -0.162722
vn 0.000000 0.986672 -0.162722
vn 1.000000 0.000028 0.000000
vn 1.000000 -0.000003 0.000000
vn 1.000000 -0.000003 0.000000
vn 1.000000 0.000002 0.000000
vn -1.000000 0.000002 0.000000
vn -1.000000 -0.000002 0.000000
vn -1.000000 0.000002 0.000000
vn 1.000000 -0.000007 0.000000
vn 1.000000 -0.000007 0.000000
vn 0.000000 -1.000000 0.000000
vn 0.000000 -1.000000 0.000000
vn 0.000000 -1.000000 0.000000
vn 0.000000 -1.000000 0.000000
vn -1.000000 0.000003 0.000000
vn -1.000000 0.000003 0.000000
vn -1.000000 -0.000037 0.000000
vn 0.000000 0.986672 -0.162722
vn 0.000000 0.986672 -0.162722
vn 1.000000 0.000028 0.000000
s 1
g pCube7
usemtl initialShadingGroup
f 1/1/1 2/2/2 11/11/3 10/10/4
f 2/2/2 3/3/5 12/12/6 11/11/3
f 3/3/5 4/4/7 13/13/8 12/12/6
f 4/4/7 5/5/9 14/14/10 13/13/8
f 5/5/9 6/6/11 15/15/12 14/14/10
f 6/6/11 7/7/13 16/16/14 15/15/12
f 7/7/13 8/8/15 17/17/16 16/16/14
f 8/8/15 9/9/17 18/18/18 17/17/16
f 10/10/4 11/11/3 20/20/19 19/19/20
f 11/11/3 12/12/6 21/21/21 20/20/19
f 12/12/6 13/13/8 22/22/22 21/21/21
f 13/13/8 14/14/10 23/23/23 22/22/22
f 14/14/10 15/15/12 24/24/24 23/23/23
f 15/15/12 16/16/14 25/25/25 24/24/24
f 16/16/14 17/17/16 26/26/26 25/25/25
f 17/17/16 18/18/18 27/27/27 26/26/26
f 19/19/20 20/20/19 29/29/28 28/28/29
f 20/20/19 21/21/21 30/30/30 29/29/28
f 21/21/21 22/22/22 31/31/31 30/30/30
f 22/22/22 23/23/23 32/32/32 31/31/31
f 23/23/23 24/24/24 33/33/33 32/32/32
f 24/24/24 25/25/25 34/34/34 33/33/33
f 25/25/25 26/26/26 35/35/35 34/34/34
f 26/26/26 27/27/27 36/36/36 35/35/35
f 28/28/29 29/29/28 38/38/37 37/37/38
f 29/29/28 30/30/30 39/39/39 38/38/37
f 30/30/30 31/31/31 40/40/40 39/39/39
f 31/31/31 32/32/32 41/41/41 40/40/40
f 32/32/32 33/33/33 42/42/42 41/41/41
f 33/33/33 34/34/34 43/43/43 42/42/42
f 34/34/34 35/35/35 44/44/44 43/43/43
f 35/35/35 36/36/36 45/45/45 44/44/44
f 37/37/38 38/38/37 47/47/46 46/46/47
f 38/38/37 39/39/39 48/48/48 47/47/46
f 39/39/39 40/40/40 49/49/49 48/48/48
f 40/40/40 41/41/41 50/50/50 49/49/49
f 41/41/41 42/42/42 51/51/51 50/50/50
f 42/42/42 43/43/43 52/52/52 51/51/51
f 43/43/43 44/44/44 53/53/53 52/52/52
f 44/44/44 45/45/45 54/54/54 53/53/53
f 46/46/47 47/47/46 56/56/55 55/55/56
f 47/47/46 48/48/48 57/57/57 56/56/55
f 48/48/48 49/49/49 58/58/58 57/57/57
f 49/49/49 50/50/50 59/59/59 58/58/58
f 50/50/50 51/51/51 60/60/60 59/59/59
f 51/51/51 52/52/52 61/61/61 60/60/60
f 52/52/52 53/53/53 62/62/62 61/61/61
f 53/53/53 54/54/54 63/63/63 62/62/62
f 55/55/56 56/56/55 65/65/64 64/64/65
f 56/56/55 57/57/57 66/66/66 65/65/64
s 2
f 483/665/67 484/666/68 485/667/69 486/668/70
s 1
f 58/58/58 59/59/59 68/68/71 67/67/72
f 59/59/59 60/60/60 69/69/73 68/68/71
s 3
f 491/669/74 492/670/75 493/671/76 494/672/77
s 1
f 61/61/61 62/62/62 71/71/78 70/70/79
f 62/62/62 63/63/63 72/72/80 71/71/78
f 64/64/65 65/65/64 74/74/81 73/73/82
f 65/65/64 66/66/66 75/75/83 74/74/81
s 2
f 486/668/70 485/667/69 487/673/84 488/674/85
s 1
f 67/67/72 68/68/71 77/77/86 76/76/87
f 68/68/71 69/69/73 78/78/88 77/77/86
s 3
f 494/672/77 493/671/76 495/675/89 496/676/90
s 1
f 70/70/79 71/71/78 80/80/91 79/79/92
f 71/71/78 72/72/80 81/81/93 80/80/91
s 4
f 73/73/94 74/74/95 83/83/96 82/82/97
f 74/74/95 75/75/98 84/84/99 83/83/96
s 5
f 467/649/100 468/650/101 469/651/102 470/652/103
s 6
f 76/76/104 77/77/105 86/86/106 85/85/107
f 77/77/105 78/78/108 87/87/109 86/86/106
s 7
f 471/653/110 472/654/111 473/655/112 474/656/113
s 8
f 79/79/114 80/80/115 89/89/116 88/88/117
f 80/80/115 81/81/118 90/90/119 89/89/116
s 4
f 82/82/97 83/83/96 92/92/120 91/91/121
s 9
f 402/482/122 403/483/123 404/93/124 405/484/125
f 403/483/123 406/485/126 407/94/127 404/93/124
f 406/485/126 408/486/128 409/95/129 407/94/127
f 408/486/128 410/487/130 411/96/131 409/95/129
f 410/487/130 412/488/132 413/97/133 411/96/131
f 412/488/132 414/489/134 415/490/135 413/97/133
s 8
f 89/89/116 90/90/119 94/99/136 93/98/137
s 4
f 91/91/121 92/92/120 96/101/138 95/100/139
s 9
f 405/484/125 404/93/124 416/102/140 417/491/141
s 10
f 442/506/142 443/507/143 444/103/144 445/508/145
f 443/507/143 446/509/146 447/104/147 444/103/144
f 446/509/146 448/510/148 449/105/149 447/104/147
f 448/510/148 450/511/150 451/512/151 449/105/149
s 9
f 413/97/133 415/490/135 419/492/152 418/106/153
s 8
f 93/98/137 94/99/136 98/108/154 97/107/155
s 4
f 95/100/139 96/101/138 100/110/156 99/109/157
s 9
f 417/491/141 416/102/140 420/111/158 421/493/159
s 10
f 445/508/145 444/103/144 452/112/160 453/513/161
f 444/103/144 447/104/147 454/113/162 452/112/160
f 447/104/147 449/105/149 455/114/163 454/113/162
f 449/105/149 451/512/151 456/514/164 455/114/163
s 9
f 418/106/153 419/492/152 423/494/165 422/115/166
s 8
f 97/107/155 98/108/154 102/117/167 101/116/168
s 4
f 99/109/157 100/110/156 104/119/169 103/118/170
s 9
f 421/493/159 420/111/158 424/120/171 425/495/172
s 10
f 453/513/161 452/112/160 457/121/173 458/515/174
f 452/112/160 454/113/162 459/122/175 457/121/173
f 454/113/162 455/114/163 460/123/176 459/122/175
f 455/114/163 456/514/164 461/516/177 460/123/176
s 9
f 422/115/166 423/494/165 427/496/178 426/124/179
s 8
f 101/116/168 102/117/167 106/126/180 105/125/181
s 4
f 103/118/170 104/119/169 108/128/182 107/127/183
s 9
f 425/495/172 424/120/171 428/129/184 429/497/185
s 10
f 458/515/174 457/121/173 462/517/186 463/518/187
f 457/121/173 459/122/175 464/519/188 462/517/186
f 459/122/175 460/123/176 465/520/189 464/519/188
f 460/123/176 461/516/177 466/521/190 465/520/189
s 9
f 426/124/179 427/496/178 434/498/191 433/133/192
s 8
f 105/125/181 106/126/180 110/135/193 109/134/194
s 4
f 107/127/183 108/128/182 112/137/195 111/136/196
s 9
f 429/497/185 428/129/184 435/499/197 436/500/198
f 428/129/184 430/130/199 437/501/200 435/499/197
f 430/130/199 431/131/201 438/502/202 437/501/200
f 431/131/201 432/132/203 439/503/204 438/502/202
f 432/132/203 433/133/192 440/504/205 439/503/204
f 433/133/192 434/498/191 441/505/206 440/504/205
s 8
f 109/134/194 110/135/193 119/144/207 118/143/208
s 4
f 111/136/196 112/137/195 121/146/209 120/145/210
f 112/137/195 113/138/211 122/147/212 121/146/209
s 11
f 475/657/213 476/658/214 477/659/215 478/660/216
s 12
f 114/139/217 115/140/218 124/149/219 123/148/220
f 115/140/218 116/141/221 125/150/222 124/149/219
s 13
f 479/661/223 480/662/224 481/663/225 482/664/226
s 8
f 117/142/227 118/143/208 127/152/228 126/151/229
f 118/143/208 119/144/207 128/153/230 127/152/228
s 14
f 120/145/231 121/146/232 130/155/233 129/154/234
f 121/146/232 122/147/235 131/156/236 130/155/233
s 15
f 499/680/237 500/677/238 501/678/239 502/679/240
s 14
f 123/148/241 124/149/242 133/158/243 132/157/244
f 124/149/242 125/150/245 134/159/246 133/158/243
s 17
f 507/684/247 508/681/248 509/682/249 510/683/250
s 14
f 126/151/251 127/152/252 136/161/253 135/160/254
f 127/152/252 128/153/255 137/162/256 136/161/253
f 129/154/234 130/155/233 139/164/257 138/163/258
f 130/155/233 131/156/236 140/165/259 139/164/257
s 15
f 502/679/240 501/678/239 503/685/260 504/686/261
s 14
f 132/157/244 133/158/243 142/167/262 141/166/263
f 133/158/243 134/159/246 143/168/264 142/167/262
s 17
f 510/683/250 509/682/249 511/687/265 512/688/266
s 14
f 135/160/254 136/161/253 145/170/267 144/169/268
f 136/161/253 137/162/256 146/171/269 145/170/267
f 138/163/258 139/164/257 148/173/270 147/172/271
f 139/164/257 140/165/259 149/174/272 148/173/270
f 140/165/259 141/166/263 150/175/273 149/174/272
f 141/166/263 142/167/262 151/176/274 150/175/273
f 142/167/262 143/168/264 152/177/275 151/176/274
f 143/168/264 144/169/268 153/178/276 152/177/275
f 144/169/268 145/170/267 154/179/277 153/178/276
f 145/170/267 146/171/269 155/180/278 154/179/277
f 147/172/271 148/173/270 157/182/279 156/181/280
f 148/173/270 149/174/272 158/183/281 157/182/279
f 149/174/272 150/175/273 159/184/282 158/183/281
f 150/175/273 151/176/274 160/185/283 159/184/282
f 151/176/274 152/177/275 161/186/284 160/185/283
f 152/177/275 153/178/276 162/187/285 161/186/284
f 153/178/276 154/179/277 163/188/286 162/187/285
f 154/179/277 155/180/278 164/189/287 163/188/286
f 156/181/280 157/182/279 166/191/288 165/190/289
f 157/182/279 158/183/281 167/192/290 166/191/288
f 158/183/281 159/184/282 168/193/291 167/192/290
f 159/184/282 160/185/283 169/194/292 168/193/291
f 160/185/283 161/186/284 170/195/293 169/194/292
f 161/186/284 162/187/285 171/196/294 170/195/293
f 162/187/285 163/188/286 172/197/295 171/196/294
f 163/188/286 164/189/287 173/198/296 172/197/295
f 165/190/289 166/191/288 175/200/297 174/199/298
f 166/191/288 167/192/290 176/201/299 175/200/297
f 167/192/290 168/193/291 177/202/300 176/201/299
f 168/193/291 169/194/292 178/203/301 177/202/300
f 169/194/292 170/195/293 179/204/302 178/203/301
f 170/195/293 171/196/294 180/205/303 179/204/302
f 171/196/294 172/197/295 181/206/304 180/205/303
f 172/197/295 173/198/296 182/207/305 181/206/304
f 174/199/298 175/200/297 184/209/306 183/208/307
f 175/200/297 176/201/299 185/210/308 184/209/306
f 176/201/299 177/202/300 186/211/309 185/210/308
f 177/202/300 178/203/301 187/212/310 186/211/309
f 178/203/301 179/204/302 188/213/311 187/212/310
f 179/204/302 180/205/303 189/214/312 188/213/311
f 180/205/303 181/206/304 190/215/313 189/214/312
f 181/206/304 182/207/305 191/216/314 190/215/313
f 183/208/307 184/209/306 193/218/315 192/217/316
f 184/209/306 185/210/308 194/219/317 193/218/315
f 185/210/308 186/211/309 195/220/318 194/219/317
f 186/211/309 187/212/310 196/221/319 195/220/318
f 187/212/310 188/213/311 197/222/320 196/221/319
f 188/213/311 189/214/312 198/223/321 197/222/320
f 189/214/312 190/215/313 199/224/322 198/223/321
f 190/215/313 191/216/314 200/225/323 199/224/322
s 19
f 192/217/324 193/218/325 202/227/326 201/226/327
s 20
f 348/442/328 349/443/329 350/228/330 351/444/331
f 349/443/329 352/445/332 353/446/333 350/228/330
s 21
f 195/220/334 196/221/335 204/230/336 203/229/337
f 196/221/335 197/222/338 205/231/339 204/230/336
s 22
f 375/447/340 376/448/341 377/232/342 378/449/343
f 376/448/341 379/450/344 380/451/345 377/232/342
s 23
f 199/224/346 200/225/347 207/234/348 206/233/349
s 19
f 201/226/327 202/227/326 209/236/350 208/235/351
s 20
f 351/444/331 350/228/330 354/237/352 355/452/353
f 350/228/330 353/446/333 356/453/354 354/237/352
s 21
f 203/229/337 204/230/336 211/239/355 210/238/356
f 204/230/336 205/231/339 212/240/357 211/239/355
s 22
f 378/449/343 377/232/342 381/241/358 382/454/359
f 377/232/342 380/451/345 383/455/360 381/241/358
s 23
f 206/233/349 207/234/348 214/243/361 213/242/362
s 19
f 208/235/351 209/236/350 216/245/363 215/244/364
s 20
f 355/452/353 354/237/352 357/246/365 358/456/366
f 354/237/352 356/453/354 359/457/367 357/246/365
s 21
f 210/238/356 211/239/355 218/248/368 217/247/369
f 211/239/355 212/240/357 219/249/370 218/248/368
s 22
f 382/454/359 381/241/358 384/250/371 385/458/372
f 381/241/358 383/455/360 386/459/373 384/250/371
s 23
f 213/242/362 214/243/361 221/252/374 220/251/375
s 19
f 215/244/364 216/245/363 223/254/376 222/253/377
s 20
f 358/456/366 357/246/365 360/255/378 361/460/379
f 357/246/365 359/457/367 362/461/380 360/255/378
s 21
f 217/247/369 218/248/368 225/257/381 224/256/382
f 218/248/368 219/249/370 226/258/383 225/257/381
s 22
f 385/458/372 384/250/371 387/259/384 388/462/385
f 384/250/371 386/459/373 389/463/386 387/259/384
s 23
f 220/251/375 221/252/374 228/261/387 227/260/388
s 19
f 222/253/377 223/254/376 230/263/389 229/262/390
s 20
f 361/460/379 360/255/378 363/264/391 364/464/392
f 360/255/378 362/461/380 365/465/393 363/264/391
s 21
f 224/256/382 225/257/381 232/266/394 231/265/395
f 225/257/381 226/258/383 233/267/396 232/266/394
s 22
f 388/462/385 387/259/384 390/268/397 391/466/398
f 387/259/384 389/463/386 392/467/399 390/268/397
s 23
f 227/260/388 228/261/387 235/270/400 234/269/401
s 19
f 229/262/390 230/263/389 237/272/402 236/271/403
s 20
f 364/464/392 363/264/391 366/273/404 367/468/405
f 363/264/391 365/465/393 368/469/406 366/273/404
s 21
f 231/265/395 232/266/394 239/275/407 238/274/408
f 232/266/394 233/267/396 240/276/409 239/275/407
s 22
f 391/466/398 390/268/397 393/277/410 394/470/411
f 390/268/397 392/467/399 395/471/412 393/277/410
s 23
f 234/269/401 235/270/400 242/279/413 241/278/414
s 19
f 236/271/403 237/272/402 244/281/415 243/280/416
s 20
f 367/468/405 366/273/404 369/282/417 370/472/418
f 366/273/404 368/469/406 371/473/419 369/282/417
s 21
f 238/274/408 239/275/407 246/284/420 245/283/421
f 239/275/407 240/276/409 247/285/422 246/284/420
s 22
f 394/470/411 393/277/410 396/286/423 397/474/424
f 393/277/410 395/471/412 398/475/425 396/286/423
s 23
f 241/278/414 242/279/413 249/288/426 248/287/427
s 19
f 243/280/416 244/281/415 2/290/428 1/289/429
s 20
f 370/472/418 369/282/417 372/476/430 373/477/431
f 369/282/417 371/473/419 374/478/432 372/476/430
s 21
f 245/283/421 246/284/420 5/293/433 4/292/434
f 246/284/420 247/285/422 6/294/435 5/293/433
s 22
f 397/474/424 396/286/423 399/479/436 400/480/437
f 396/286/423 398/475/425 401/481/438 399/479/436
s 23
f 248/287/427 249/288/426 9/297/439 8/296/440
s 24
f 207/299/441 200/298/442 191/306/443 250/307/444
f 214/300/445 207/299/441 250/307/444 251/308/446
f 221/301/447 214/300/445 251/308/446 252/309/448
f 228/302/449 221/301/447 252/309/448 253/310/450
f 235/303/451 228/302/449 253/310/450 254/311/452
f 242/304/453 235/303/451 254/311/452 255/312/454
f 249/305/455 242/304/453 255/312/454 256/313/456
f 9/9/457 249/305/455 256/313/456 18/18/458
f 250/307/444 191/306/443 182/314/459 257/315/460
f 251/308/446 250/307/444 257/315/460 258/316/461
f 252/309/448 251/308/446 258/316/461 259/317/462
f 253/310/450 252/309/448 259/317/462 260/318/463
f 254/311/452 253/310/450 260/318/463 261/319/464
f 255/312/454 254/311/452 261/319/464 262/320/465
f 256/313/456 255/312/454 262/320/465 263/321/466
f 18/18/458 256/313/456 263/321/466 27/27/467
f 257/315/460 182/314/459 173/322/468 264/323/469
f 258/316/461 257/315/460 264/323/469 265/324/470
f 259/317/462 258/316/461 265/324/470 266/325/471
f 260/318/463 259/317/462 266/325/471 267/326/472
f 261/319/464 260/318/463 267/326/472 268/327/473
f 262/320/465 261/319/464 268/327/473 269/328/474
f 263/321/466 262/320/465 269/328/474 270/329/475
f 27/27/467 263/321/466 270/329/475 36/36/476
f 264/323/469 173/322/468 164/330/477 271/331/478
f 265/324/470 264/323/469 271/331/478 272/332/479
f 266/325/471 265/324/470 272/332/479 273/333/480
f 267/326/472 266/325/471 273/333/480 274/334/481
f 268/327/473 267/326/472 274/334/481 275/335/482
f 269/328/474 268/327/473 275/335/482 276/336/483
f 270/329/475 269/328/474 276/336/483 277/337/484
f 36/36/476 270/329/475 277/337/484 45/45/485
f 271/331/478 164/330/477 155/338/486 278/339/487
f 272/332/479 271/331/478 278/339/487 279/340/488
f 273/333/480 272/332/479 279/340/488 280/341/489
f 274/334/481 273/333/480 280/341/489 281/342/490
f 275/335/482 274/334/481 281/342/490 282/343/491
f 276/336/483 275/335/482 282/343/491 283/344/492
f 277/337/484 276/336/483 283/344/492 284/345/493
f 45/45/485 277/337/484 284/345/493 54/54/494
f 278/339/487 155/338/486 146/346/495 285/347/496
f 279/340/488 278/339/487 285/347/496 286/348/497
f 280/341/489 279/340/488 286/348/497 287/349/498
f 281/342/490 280/341/489 287/349/498 288/350/499
f 282/343/491 281/342/490 288/350/499 289/351/500
f 283/344/492 282/343/491 289/351/500 290/352/501
f 284/345/493 283/344/492 290/352/501 291/353/502
f 54/54/494 284/345/493 291/353/502 63/63/503
f 285/347/496 146/346/495 137/354/504 292/355/505
f 286/348/497 285/347/496 292/355/505 293/356/506
f 287/349/498 286/348/497 293/356/506 294/357/507
f 288/350/499 287/349/498 294/357/507 295/358/508
f 289/351/500 288/350/499 295/358/508 296/359/509
f 290/352/501 289/351/500 296/359/509 297/360/510
f 291/353/502 290/352/501 297/360/510 298/361/511
f 63/63/503 291/353/502 298/361/511 72/72/512
f 292/355/505 137/354/504 128/362/513 119/363/514
f 293/356/506 292/355/505 119/363/514 110/364/515
f 294/357/507 293/356/506 110/364/515 106/365/516
f 295/358/508 294/357/507 106/365/516 102/366/517
f 296/359/509 295/358/508 102/366/517 98/367/518
f 297/360/510 296/359/509 98/367/518 94/368/519
f 298/361/511 297/360/510 94/368/519 90/369/520
f 72/72/512 298/361/511 90/369/520 81/81/521
s 25
f 192/370/522 201/371/523 299/379/524 183/378/525
f 201/371/523 208/372/526 300/380/527 299/379/524
f 208/372/526 215/373/528 301/381/529 300/380/527
f 215/373/528 222/374/530 302/382/531 301/381/529
f 222/374/530 229/375/532 303/383/533 302/382/531
f 229/375/532 236/376/534 304/384/535 303/383/533
f 236/376/534 243/377/536 305/385/537 304/384/535
f 243/377/536 1/1/538 10/10/539 305/385/537
f 183/378/525 299/379/524 306/387/540 174/386/541
f 299/379/524 300/380/527 307/388/542 306/387/540
f 300/380/527 301/381/529 308/389/543 307/388/542
f 301/381/529 302/382/531 309/390/544 308/389/543
f 302/382/531 303/383/533 310/391/545 309/390/544
f 303/383/533 304/384/535 311/392/546 310/391/545
f 304/384/535 305/385/537 312/393/547 311/392/546
f 305/385/537 10/10/539 19/19/548 312/393/547
f 174/386/541 306/387/540 313/395/549 165/394/550
f 306/387/540 307/388/542 314/396/551 313/395/549
f 307/388/542 308/389/543 315/397/552 314/396/551
f 308/389/543 309/390/544 316/398/553 315/397/552
f 309/390/544 310/391/545 317/399/554 316/398/553
f 310/391/545 311/392/546 318/400/555 317/399/554
f 311/392/546 312/393/547 319/401/556 318/400/555
f 312/393/547 19/19/548 28/28/557 319/401/556
f 165/394/550 313/395/549 320/403/558 156/402/559
f 313/395/549 314/396/551 321/404/560 320/403/558
f 314/396/551 315/397/552 322/405/561 321/404/560
f 315/397/552 316/398/553 323/406/562 322/405/561
f 316/398/553 317/399/554 324/407/563 323/406/562
f 317/399/554 318/400/555 325/408/564 324/407/563
f 318/400/555 319/401/556 326/409/565 325/408/564
f 319/401/556 28/28/557 37/37/566 326/409/565
f 156/402/559 320/403/558 327/411/567 147/410/568
f 320/403/558 321/404/560 328/412/569 327/411/567
f 321/404/560 322/405/561 329/413/570 328/412/569
f 322/405/561 323/406/562 330/414/571 329/413/570
f 323/406/562 324/407/563 331/415/572 330/414/571
f 324/407/563 325/408/564 332/416/573 331/415/572
f 325/408/564 326/409/565 333/417/574 332/416/573
f 326/409/565 37/37/566 46/46/575 333/417/574
f 147/410/568 327/411/567 334/419/576 138/418/577
f 327/411/567 328/412/569 335/420/578 334/419/576
f 328/412/569 329/413/570 336/421/579 335/420/578
f 329/413/570 330/414/571 337/422/580 336/421/579
f 330/414/571 331/415/572 338/423/581 337/422/580
f 331/415/572 332/416/573 339/424/582 338/423/581
f 332/416/573 333/417/574 340/425/583 339/424/582
f 333/417/574 46/46/575 55/55/584 340/425/583
f 138/418/577 334/419/576 341/427/585 129/426/586
f 334/419/576 335/420/578 342/428/587 341/427/585
f 335/420/578 336/421/579 343/429/588 342/428/587
f 336/421/579 337/422/580 344/430/589 343/429/588
f 337/422/580 338/423/581 345/431/590 344/430/589
f 338/423/581 339/424/582 346/432/591 345/431/590
f 339/424/582 340/425/583 347/433/592 346/432/591
f 340/425/583 55/55/584 64/64/593 347/433/592
f 129/426/586 341/427/585 111/435/594 120/434/595
f 341/427/585 342/428/587 107/436/596 111/435/594
f 342/428/587 343/429/588 103/437/597 107/436/596
f 343/429/588 344/430/589 99/438/598 103/437/597
f 344/430/589 345/431/590 95/439/599 99/438/598
f 345/431/590 346/432/591 91/440/600 95/439/599
f 346/432/591 347/433/592 82/441/601 91/440/600
f 347/433/592 64/64/593 73/73/602 82/441/601
s 14
f 193/218/315 194/219/317 349/443/603 348/442/604
s 26
f 202/227/605 193/218/606 348/442/607 351/444/608
s 14
f 194/219/317 195/220/318 352/445/609 349/443/603
s 27
f 195/220/610 203/229/611 353/446/612 352/445/613
s 26
f 209/522/614 202/523/605 351/524/608 355/525/615
s 27
f 203/526/611 210/527/616 356/528/617 353/529/612
s 26
f 216/530/618 209/531/614 355/532/615 358/533/619
s 27
f 210/534/616 217/535/620 359/536/621 356/537/617
s 26
f 223/538/622 216/539/618 358/540/619 361/541/623
s 27
f 217/542/620 224/543/624 362/544/625 359/545/621
s 26
f 230/546/626 223/547/622 361/548/623 364/549/627
s 27
f 224/550/624 231/551/628 365/552/629 362/553/625
s 26
f 237/554/630 230/555/626 364/556/627 367/557/631
s 27
f 231/558/628 238/559/632 368/560/633 365/561/629
s 26
f 244/562/634 237/563/630 367/564/631 370/565/635
s 27
f 238/566/632 245/567/636 371/568/637 368/569/633
s 1
f 3/570/5 2/571/2 373/572/638 372/573/639
s 26
f 2/574/640 244/575/634 370/576/635 373/577/641
s 27
f 245/578/636 4/579/642 374/580/643 371/581/637
s 1
f 4/582/7 3/583/5 372/584/639 374/585/644
s 14
f 197/586/320 198/587/321 376/588/645 375/589/646
s 28
f 205/590/647 197/591/648 375/592/649 378/593/650
s 14
f 198/594/321 199/595/322 379/596/651 376/597/645
s 29
f 199/598/652 206/599/653 380/600/654 379/601/655
s 28
f 212/602/656 205/603/647 378/604/650 382/605/657
s 29
f 206/606/653 213/607/658 383/608/659 380/609/654
s 28
f 219/610/660 212/611/656 382/612/657 385/613/661
s 29
f 213/614/658 220/615/662 386/616/663 383/617/659
s 28
f 226/618/664 219/619/660 385/620/661 388/621/665
s 29
f 220/622/662 227/623/666 389/624/667 386/625/663
s 28
f 233/626/668 226/627/664 388/628/665 391/629/669
s 29
f 227/630/666 234/631/670 392/632/671 389/633/667
s 28
f 240/291/672 233/634/668 391/635/669 394/636/673
s 29
f 234/637/670 241/638/674 395/639/675 392/640/671
s 28
f 247/641/676 240/642/672 394/643/673 397/644/677
s 29
f 241/645/674 248/646/678 398/647/679 395/648/675
s 1
f 7/295/13 6/294/11 400/480/680 399/479/681
s 28
f 6/294/682 247/285/676 397/474/677 400/480/683
s 29
f 248/287/678 8/296/684 401/481/685 398/475/679
s 1
f 8/296/15 7/295/13 399/479/681 401/481/686
s 30
f 83/83/687 84/84/688 403/483/689 402/482/690
s 31
f 92/92/691 83/83/692 402/482/693 405/484/694
s 30
f 84/84/688 85/85/695 406/485/696 403/483/689
f 85/85/695 86/86/697 408/486/698 406/485/696
f 86/86/697 87/87/699 410/487/700 408/486/698
f 87/87/699 88/88/701 412/488/702 410/487/700
f 88/88/701 89/89/703 414/489/704 412/488/702
s 32
f 89/89/705 93/98/706 415/490/707 414/489/708
s 31
f 96/101/709 92/92/691 405/484/694 417/491/710
s 32
f 93/98/706 97/107/711 419/492/712 415/490/707
s 31
f 100/110/713 96/101/709 417/491/710 421/493/714
s 32
f 97/107/711 101/116/715 423/494/716 419/492/712
s 31
f 104/119/717 100/110/713 421/493/714 425/495/718
s 32
f 101/116/715 105/125/719 427/496/720 423/494/716
s 31
f 108/128/721 104/119/717 425/495/718 429/497/722
s 32
f 105/125/719 109/134/723 434/498/724 427/496/720
s 33
f 113/138/725 112/137/726 436/500/727 435/499/728
s 31
f 112/137/729 108/128/721 429/497/722 436/500/730
s 33
f 114/139/731 113/138/725 435/499/728 437/501/732
f 115/140/733 114/139/731 437/501/732 438/502/734
f 116/141/735 115/140/733 438/502/734 439/503/736
f 117/142/737 116/141/735 439/503/736 440/504/738
s 32
f 109/134/723 118/143/739 441/505/740 434/498/724
s 33
f 118/143/741 117/142/737 440/504/738 441/505/742
s 34
f 404/93/743 407/94/744 443/507/745 442/506/746
s 35
f 416/102/747 404/93/748 442/506/749 445/508/750
s 34
f 407/94/744 409/95/751 446/509/752 443/507/745
f 409/95/751 411/96/753 448/510/754 446/509/752
f 411/96/753 413/97/755 450/511/756 448/510/754
s 36
f 413/97/757 418/106/758 451/512/759 450/511/760
s 35
f 420/111/761 416/102/747 445/508/750 453/513/762
s 36
f 418/106/758 422/115/763 456/514/764 451/512/759
s 35
f 424/120/765 420/111/761 453/513/762 458/515/766
s 36
f 422/115/763 426/124/767 461/516/768 456/514/764
s 37
f 430/130/769 428/129/770 463/518/771 462/517/772
s 35
f 428/129/773 424/120/765 458/515/766 463/518/774
s 37
f 431/131/775 430/130/769 462/517/772 464/519/776
f 432/132/777 431/131/775 464/519/776 465/520/778
s 36
f 426/124/767 433/133/779 466/521/780 461/516/768
s 37
f 433/133/781 432/132/777 465/520/778 466/521/782
s 2
f 488/674/85 487/673/84 489/689/783 490/690/784
s 38
f 76/76/785 85/85/786 469/651/787 468/650/788
s 30
f 85/85/695 84/84/688 470/652/789 469/651/790
s 39
f 84/84/791 75/75/792 467/649/793 470/652/794
s 3
f 496/676/90 495/675/89 497/691/795 498/692/796
s 40
f 79/79/797 88/88/798 473/655/799 472/654/800
s 30
f 88/88/701 87/87/699 474/656/801 473/655/802
s 41
f 87/87/803 78/78/804 471/653/805 474/656/806
s 33
f 113/138/725 114/139/731 476/658/807 475/657/808
s 42
f 114/139/809 123/148/810 477/659/811 476/658/812
s 15
f 500/677/238 499/680/237 505/693/813 506/694/814
s 43
f 122/147/815 113/138/816 475/657/817 478/660/818
s 33
f 116/141/735 117/142/737 480/662/819 479/661/820
s 44
f 117/142/821 126/151/822 481/663/823 480/662/824
s 17
f 508/681/248 507/684/247 513/695/825 514/696/826
s 45
f 125/150/827 116/141/828 479/661/829 482/664/830
s off
f 57/57/831 58/58/832 484/666/833 483/665/834
s 38
f 58/58/835 67/67/836 485/667/837 484/666/838
s 39
f 66/66/839 57/57/840 483/665/841 486/668/842
s 38
f 67/60/836 76/61/785 487/670/843 485/669/837
s 39
f 75/61/792 66/70/839 486/671/842 488/670/844
s 38
f 76/69/785 468/60/788 489/669/845 487/672/843
s 5
f 468/67/101 467/76/100 490/673/846 489/667/847
s 39
f 467/75/793 75/66/792 488/668/844 490/674/848
s off
f 60/70/849 61/79/850 492/675/851 491/671/852
s 40
f 61/78/853 70/69/854 493/672/855 492/676/856
s 41
f 69/148/857 60/157/858 491/678/859 494/677/860
s 40
f 70/156/854 79/147/797 495/680/861 493/679/855
s 41
f 78/151/804 69/160/857 494/682/860 496/681/862
s 40
f 79/159/797 472/150/800 497/684/863 495/683/861
s 7
f 472/157/111 471/166/110 498/685/864 497/678/865
s 41
f 471/166/805 78/165/804 496/686/862 498/685/866
s 42
f 123/165/810 132/156/867 501/679/868 500/686/869
s 43
f 131/160/870 122/169/815 499/687/871 502/682/872
s 42
f 132/169/867 141/168/873 503/688/874 501/687/868
s off
f 141/168/875 140/159/876 504/683/877 503/688/878
s 43
f 140/76/879 131/650/870 502/689/872 504/673/880
f 122/650/815 478/649/818 505/690/881 499/689/871
s 11
f 478/649/216 477/75/215 506/674/882 505/690/883
s 42
f 477/79/811 123/654/810 500/691/869 506/675/884
s 44
f 126/654/822 135/653/885 509/692/886 508/691/887
s 45
f 134/653/888 125/78/827 507/676/889 510/692/890
s 44
f 135/147/885 144/660/891 511/693/892 509/680/886
s off
f 144/660/893 143/659/894 512/694/895 511/693/896
s 45
f 143/659/897 134/148/888 510/677/890 512/694/898
f 125/150/827 482/664/830 513/695/899 507/684/889
s 13
f 482/664/226 481/663/225 514/696/900 513/695/901
s 44
f 481/663/823 126/151/822 508/681/887 514/696/902
