# This file uses centimeters as units for non-parametric coordinates.

mtllib FloatingIsland_1_WIP1.mtl
g default
v -102.609123 64.485466 -67.504852
v -119.403427 64.485466 -97.802559
v -84.767685 64.485466 -97.197998
v -102.260078 41.340748 -87.501801
v -108.640282 50.545242 -91.346413
v -96.045158 50.545242 -91.126564
v -102.533112 50.545242 -80.328789
v -115.643898 60.258568 -95.559128
v -89.020569 60.258568 -95.094421
v -102.734688 60.258568 -72.270302
v -102.507729 49.083359 -81.783142
v -107.393463 49.083359 -90.597237
v -97.317360 49.083359 -90.421371
v -90.397949 58.436111 -94.330925
v -102.707199 58.436111 -73.844887
v -114.293930 58.436111 -94.747910
v -92.324394 54.487030 -93.009239
v -102.458336 54.487030 -76.143539
v -111.997498 54.487030 -93.352638
v -102.360603 48.284729 -81.742683
v -107.197357 48.284729 -90.468430
v -97.222267 48.284729 -90.294304
v -94.969246 50.987469 -91.543175
v -102.405556 50.987469 -79.167076
v -109.405418 50.987469 -91.795166
v -89.679550 57.986427 -94.475304
v -114.589577 57.986427 -94.910103
v -102.511108 57.986427 -73.119995
v -87.601456 60.736023 -95.627220
v -102.552574 60.736023 -70.744362
v -116.626198 60.736023 -96.133835
v -102.410835 51.246788 -78.864716
v -109.664635 51.246788 -91.950912
v -94.704765 51.246788 -91.689789
v -102.603470 64.110519 -67.828804
v -85.051056 64.110519 -97.040924
v -119.125702 64.110519 -97.635696
v -84.767685 65.915710 -97.197998
v -102.609123 65.915710 -67.504852
v -119.403427 65.915710 -97.802559
vt 0.375000 0.033494
vt 0.375000 0.466506
vt 0.750000 0.250000
vt 0.250000 0.500000
vt 0.416667 0.500000
vt 0.583333 0.500000
vt 0.750000 0.500000
vt 0.500000 1.000000
vt 0.466667 0.800000
vt 0.533333 0.800000
vt 0.600000 0.800000
vt 0.400000 0.800000
vt 0.431667 0.590000
vt 0.568333 0.590000
vt 0.705000 0.590000
vt 0.295000 0.590000
vt 0.580000 0.840000
vt 0.420000 0.840000
vt 0.473333 0.840000
vt 0.526667 0.840000
vt 0.561333 0.632000
vt 0.684000 0.632000
vt 0.316000 0.632000
vt 0.438667 0.632000
vt 0.547333 0.716000
vt 0.642000 0.716000
vt 0.358000 0.716000
vt 0.452667 0.716000
vt 0.572000 0.856000
vt 0.428000 0.856000
vt 0.476000 0.856000
vt 0.524000 0.856000
vt 0.534733 0.791600
vt 0.604200 0.791600
vt 0.395800 0.791600
vt 0.465267 0.791600
vt 0.559933 0.640400
vt 0.440067 0.640400
vt 0.679800 0.640400
vt 0.320200 0.640400
vt 0.569833 0.581000
vt 0.709500 0.581000
vt 0.290500 0.581000
vt 0.430167 0.581000
vt 0.607980 0.784040
vt 0.392020 0.784040
vt 0.464007 0.784040
vt 0.535993 0.784040
vt 0.745950 0.508100
vt 0.254050 0.508100
vt 0.581983 0.508100
vt 0.418017 0.508100
vt 0.375000 0.033494
vt 0.750000 0.250000
vt 0.375000 0.466506
vn 0.000000 1.000000 0.000000
vn 0.000000 1.000000 0.000000
vn 0.000000 1.000000 0.000000
vn -0.826925 -0.325717 0.458371
vn -0.830222 -0.314561 0.460199
vn -0.807891 -0.383103 0.447821
vn 0.016534 -0.320078 -0.947247
vn 0.016476 -0.329731 -0.943931
vn 0.016120 -0.383105 -0.923564
vn 0.831965 -0.240708 0.499895
vn 0.831634 -0.242259 0.499696
vn 0.791770 -0.383104 0.475743
vn 0.014229 -0.579032 -0.815181
vn 0.014369 -0.567611 -0.823171
vn 0.013996 -0.597349 -0.801859
vn 0.014045 -0.593612 -0.804629
vn 0.629000 -0.679351 0.377945
vn 0.629984 -0.678108 0.378536
vn 0.595548 -0.719217 0.357840
vn 0.595895 -0.718825 0.358049
vn -0.716544 -0.573417 0.397187
vn -0.708436 -0.586439 0.392693
vn -0.698006 -0.602566 0.386912
vn -0.695208 -0.606781 0.385360
vn 0.015867 -0.416421 -0.909033
vn 0.015904 -0.411730 -0.911167
vn 0.013911 -0.603737 -0.797062
vn 0.013985 -0.598133 -0.801275
vn 0.768568 -0.442767 0.461802
vn 0.768841 -0.442121 0.461966
vn 0.582831 -0.733258 0.350200
vn 0.583325 -0.732723 0.350497
vn -0.796584 -0.412898 0.441554
vn -0.794441 -0.418260 0.440366
vn -0.694465 -0.607892 0.384950
vn -0.690234 -0.614159 0.382604
vn -0.807177 -0.385066 0.447425
vn -0.812015 -0.371530 0.450107
vn 0.016169 -0.376301 -0.926356
vn 0.016083 -0.388225 -0.921424
vn 0.814348 -0.312110 0.489310
vn 0.813879 -0.313772 0.489028
vn 0.851739 -0.112368 0.511776
vn 0.851459 -0.115213 0.511608
vn -0.843085 -0.266105 0.467329
vn -0.848536 -0.242399 0.470351
vn 0.016884 -0.252632 -0.967415
vn 0.016785 -0.273290 -0.961785
vn 0.834126 -0.230302 0.501193
vn 0.834973 -0.226086 0.501702
vn -0.832277 -0.307379 0.461339
vn -0.821130 -0.344346 0.455161
vn 0.016364 -0.347600 -0.937500
vn 0.016563 -0.315159 -0.948894
vn 0.789096 -0.390540 0.474137
vn 0.789096 -0.390540 0.474137
vn -0.805163 -0.390540 0.446309
vn -0.805163 -0.390540 0.446309
vn 0.016067 -0.390539 -0.920446
vn 0.016067 -0.390539 -0.920446
vn 0.016038 -0.394335 -0.918827
vn 0.016038 -0.394335 -0.918827
vn -0.803746 -0.394335 0.445524
vn -0.803746 -0.394335 0.445524
vn 0.787708 -0.394335 0.473302
vn 0.787708 -0.394335 0.473302
vn 0.855643 -0.059615 0.514122
vn 0.855643 -0.059615 0.514122
vn 0.786863 -0.396627 0.472793
vn 0.786863 -0.396627 0.472793
vn -0.873065 -0.059611 0.483947
vn -0.873065 -0.059612 0.483947
vn -0.802885 -0.396624 0.445046
vn -0.802885 -0.396624 0.445046
vn 0.017421 -0.059610 -0.998070
vn 0.017421 -0.059611 -0.998070
vn 0.016021 -0.396624 -0.917841
vn 0.016021 -0.396624 -0.917841
vn 0.857167 0.000000 0.515039
vn 0.857167 0.000000 0.515039
vn 0.017452 0.000000 -0.999848
vn 0.017452 0.000000 -0.999848
vn -0.874620 0.000000 0.484809
vn -0.874620 0.000000 0.484809
s off
g Island1
usemtl initialShadingGroup
f 39/53/1 38/54/2 40/55/3
s 1
f 20/30/4 21/31/5 4/8/6
s 2
f 21/31/7 22/32/8 4/8/9
s 3
f 22/32/10 20/29/11 4/8/12
s 2
f 25/36/13 23/33/14 6/10/15 5/9/16
s 3
f 23/33/17 24/34/18 7/11/19 6/10/20
s 1
f 24/35/21 25/36/22 5/9/23 7/12/24
s 2
f 31/44/25 29/41/26 9/14/27 8/13/28
s 3
f 29/41/29 30/42/30 10/15/31 9/14/32
s 1
f 30/43/33 31/44/34 8/13/35 10/16/36
f 7/12/24 5/9/23 12/19/37 11/18/38
s 2
f 5/9/16 6/10/15 13/20/39 12/19/40
s 3
f 6/10/20 7/11/19 11/17/41 13/20/42
f 9/14/32 10/15/31 15/22/43 14/21/44
s 1
f 10/16/36 8/13/35 16/24/45 15/23/46
s 2
f 8/13/28 9/14/27 14/21/47 16/24/48
s 3
f 14/21/44 15/22/43 28/39/49 26/37/50
s 1
f 15/23/46 16/24/45 27/38/51 28/40/52
s 2
f 16/24/48 14/21/47 26/37/53 27/38/54
s 1
f 11/18/38 12/19/37 21/31/5 20/30/4
s 2
f 12/19/40 13/20/39 22/32/8 21/31/7
s 3
f 13/20/42 11/17/41 20/29/11 22/32/10
f 34/48/55 32/45/56 24/34/18 23/33/17
s 1
f 32/46/57 33/47/58 25/36/22 24/35/21
s 2
f 33/47/59 34/48/60 23/33/14 25/36/13
f 27/38/54 26/37/53 17/25/61 19/28/62
s 1
f 28/40/52 27/38/51 19/28/63 18/27/64
s 3
f 26/37/50 28/39/49 18/26/65 17/25/66
f 3/6/67 1/7/68 35/49/69 36/51/70
s 1
f 1/4/71 2/5/72 37/52/73 35/50/74
s 2
f 2/5/75 3/6/76 36/51/77 37/52/78
s 1
f 18/27/64 19/28/63 33/47/58 32/46/57
s 2
f 19/28/62 17/25/61 34/48/60 33/47/59
s 3
f 17/25/66 18/26/65 32/45/56 34/48/55
f 36/51/70 35/49/69 30/42/30 29/41/29
s 2
f 37/52/78 36/51/77 29/41/26 31/44/25
s 1
f 35/50/74 37/52/73 31/44/34 30/43/33
s 3
f 1/1/68 3/3/67 38/54/79 39/53/80
s 2
f 3/3/76 2/2/75 40/55/81 38/54/82
s 1
f 2/2/72 1/1/71 39/53/83 40/55/84
