# This file uses centimeters as units for non-parametric coordinates.

mtllib FloatingIsland_Obelisk_WIP1.mtl
g default
v -10.000000 29.303349 -117.422440
v 10.000000 29.303349 -117.422440
v -10.000000 31.455891 -117.422440
v 10.000000 31.455891 -117.422440
v -10.000000 31.455891 -137.422440
v 10.000000 31.455891 -137.422440
v -10.000000 29.303349 -137.422440
v 10.000000 29.303349 -137.422440
v -10.000000 42.760227 -117.422440
v 10.000000 42.760227 -117.422440
v 10.000001 42.760227 -137.422440
v -10.000000 42.760227 -137.422440
v 0.000000 63.378983 -127.422440
v -9.750214 42.348015 -117.672226
v -9.750214 42.348015 -137.172501
v 9.750215 42.348015 -137.172806
v 9.750214 42.348015 -117.672226
v -9.750214 41.547493 -117.672226
v -9.750214 41.547493 -137.172501
v 9.750215 41.547493 -137.172806
v 9.750214 41.547493 -117.672226
v -10.000000 41.198921 -117.422440
v -10.000000 41.198921 -137.422440
v 10.000001 41.198921 -137.422440
v 10.000000 41.198921 -117.422440
v -9.647446 32.029827 -117.775070
v -9.647446 32.029827 -137.069962
v 9.647446 32.029827 -137.069962
v 9.647446 32.029827 -117.775070
v -9.647446 33.805546 -117.775070
v -9.647446 33.805546 -137.069962
v 9.647446 33.805546 -137.069962
v 9.647446 33.805546 -117.775070
v -10.000000 34.320377 -117.422440
v -10.000000 34.320377 -137.422440
v 10.000000 34.320377 -137.422440
v 10.000000 34.320377 -117.422440
vt 0.375000 0.000000
vt 0.625000 0.000000
vt 0.375000 0.250000
vt 0.625000 0.250000
vt 0.375000 0.500000
vt 0.625000 0.500000
vt 0.375000 0.750000
vt 0.625000 0.750000
vt 0.375000 1.000000
vt 0.625000 1.000000
vt 0.875000 0.000000
vt 0.875000 0.250000
vt 0.125000 0.000000
vt 0.125000 0.250000
vt 0.375000 0.250000
vt 0.625000 0.250000
vt 0.625000 0.500000
vt 0.375000 0.500000
vt 0.500000 0.375000
vt 0.375000 0.250000
vt 0.375000 0.500000
vt 0.625000 0.500000
vt 0.625000 0.250000
vt 0.375000 0.250000
vt 0.375000 0.500000
vt 0.625000 0.500000
vt 0.625000 0.250000
vt 0.375000 0.250000
vt 0.375000 0.500000
vt 0.625000 0.500000
vt 0.625000 0.250000
vt 0.375000 0.250000
vt 0.375000 0.500000
vt 0.625000 0.500000
vt 0.625000 0.250000
vt 0.375000 0.250000
vt 0.375000 0.500000
vt 0.625000 0.500000
vt 0.625000 0.250000
vt 0.375000 0.250000
vt 0.375000 0.500000
vt 0.625000 0.500000
vt 0.625000 0.250000
vn 0.000000 0.000000 1.000000
vn 0.000000 0.000000 1.000000
vn 0.000000 0.000000 1.000000
vn 0.000000 0.000000 1.000000
vn -0.583125 0.565625 0.583124
vn 0.583125 0.565625 0.583124
vn 0.000000 1.000000 -0.000000
vn 0.000000 0.000000 -1.000000
vn 0.000000 0.000000 -1.000000
vn 0.000000 0.000000 -1.000000
vn 0.000000 0.000000 -1.000000
vn 0.000000 -1.000000 0.000000
vn 0.000000 -1.000000 0.000000
vn 0.000000 -1.000000 0.000000
vn 0.000000 -1.000000 0.000000
vn 1.000000 0.000000 0.000000
vn 1.000000 0.000000 0.000000
vn 1.000000 0.000000 0.000000
vn 1.000000 0.000000 0.000000
vn -1.000000 0.000000 0.000000
vn -1.000000 0.000000 0.000000
vn -1.000000 0.000000 0.000000
vn -1.000000 0.000000 0.000000
vn 0.000000 0.523492 0.852030
vn 0.000000 0.523492 0.852030
vn 0.000000 0.181719 0.983351
vn 0.000000 0.181719 0.983351
vn 0.852081 0.523411 0.000000
vn 0.852081 0.523411 0.000000
vn 0.983358 0.181677 0.000000
vn 0.983356 0.181688 0.000000
vn 0.000000 0.523328 -0.852131
vn 0.000000 0.523328 -0.852131
vn 0.000000 0.181646 -0.983364
vn 0.000000 0.181646 -0.983364
vn -0.852080 0.523411 0.000000
vn -0.852080 0.523411 0.000000
vn -0.983356 0.181688 0.000000
vn -0.983358 0.181677 0.000000
vn 0.583125 0.565625 -0.583124
vn -0.583125 0.565625 -0.583124
vn -0.971196 -0.238282 0.000000
vn -0.971200 -0.238265 0.000000
vn -0.855234 -0.518242 0.000000
vn -0.855234 -0.518242 0.000000
vn -0.000012 -0.238270 -0.971199
vn -0.000012 -0.238260 -0.971201
vn -0.000007 -0.518244 -0.855233
vn -0.000007 -0.518244 -0.855233
vn 0.971201 -0.238264 0.000000
vn 0.971205 -0.238247 0.000000
vn 0.855235 -0.518241 0.000000
vn 0.855235 -0.518241 0.000000
vn 0.000000 -0.238265 0.971200
vn 0.000000 -0.238265 0.971200
vn 0.000000 -0.518244 0.855233
vn 0.000000 -0.518244 0.855233
vn -0.966474 0.256764 0.000000
vn -0.966479 0.256745 0.000000
vn -0.000012 0.256752 -0.966477
vn -0.000012 0.256738 -0.966481
vn 0.966480 0.256744 0.000000
vn 0.966485 0.256725 0.000000
vn 0.000000 0.256745 0.966479
vn 0.000000 0.256745 0.966479
vn -0.999735 0.023041 0.000000
vn -0.999734 0.023047 0.000000
vn -0.000000 0.023045 -0.999735
vn -0.000000 0.023049 -0.999734
vn 0.999734 0.023047 0.000000
vn 0.999734 0.023052 0.000000
vn 0.000000 0.023047 0.999734
vn 0.000000 0.023047 0.999734
vn -0.981915 -0.189324 0.000000
vn -0.981917 -0.189312 0.000000
vn 0.000000 -0.189280 -0.981923
vn 0.000000 -0.189280 -0.981923
vn 0.981917 -0.189312 0.000000
vn 0.981915 -0.189324 0.000000
vn 0.000000 -0.189356 0.981909
vn 0.000000 -0.189356 0.981909
vn -0.999480 -0.032250 0.000000
vn -0.999480 -0.032255 0.000000
vn 0.000000 -0.032245 -0.999480
vn 0.000000 -0.032245 -0.999480
vn 0.999480 -0.032255 0.000000
vn 0.999480 -0.032250 0.000000
vn 0.000000 -0.032261 0.999479
vn 0.000000 -0.032261 0.999479
s off
g Obelilsk
usemtl initialShadingGroup
f 1/1/1 2/2/2 4/4/3 3/3/4
s 1
f 9/15/5 10/16/6 13/19/7
s off
f 5/5/8 6/6/9 8/8/10 7/7/11
f 7/7/12 8/8/13 2/10/14 1/9/15
f 2/2/16 8/11/17 6/12/18 4/4/19
f 7/13/20 1/1/21 3/3/22 5/14/23
s 2
f 3/3/24 4/4/25 29/35/26 26/32/27
s 3
f 4/4/28 6/6/29 28/34/30 29/35/31
s 4
f 6/6/32 5/5/33 27/33/34 28/34/35
s 5
f 5/5/36 3/3/37 26/32/38 27/33/39
s 1
f 11/17/40 13/19/7 10/16/6
f 12/18/41 13/19/7 11/17/40
f 9/15/5 13/19/7 12/18/41
s 5
f 15/21/42 14/20/43 9/15/44 12/18/45
s 4
f 16/22/46 15/21/47 12/18/48 11/17/49
s 3
f 17/23/50 16/22/51 11/17/52 10/16/53
s 2
f 14/20/54 17/23/55 10/16/56 9/15/57
s 5
f 19/25/58 18/24/59 14/20/43 15/21/42
s 4
f 20/26/60 19/25/61 15/21/47 16/22/46
s 3
f 21/27/62 20/26/63 16/22/51 17/23/50
s 2
f 18/24/64 21/27/65 17/23/55 14/20/54
s 5
f 23/29/66 22/28/67 18/24/59 19/25/58
s 4
f 24/30/68 23/29/69 19/25/61 20/26/60
s 3
f 25/31/70 24/30/71 20/26/63 21/27/62
s 2
f 22/28/72 25/31/73 21/27/65 18/24/64
s 5
f 27/33/39 26/32/38 30/36/74 31/37/75
s 4
f 28/34/35 27/33/34 31/37/76 32/38/77
s 3
f 29/35/31 28/34/30 32/38/78 33/39/79
s 2
f 26/32/27 29/35/26 33/39/80 30/36/81
s 5
f 31/37/75 30/36/74 34/40/82 35/41/83
s 4
f 32/38/77 31/37/76 35/41/84 36/42/85
s 3
f 33/39/79 32/38/78 36/42/86 37/43/87
s 2
f 30/36/81 33/39/80 37/43/88 34/40/89
s 5
f 35/41/83 34/40/82 22/28/67 23/29/66
s 4
f 36/42/85 35/41/84 23/29/69 24/30/68
s 3
f 37/43/87 36/42/86 24/30/71 25/31/70
s 2
f 34/40/89 37/43/88 25/31/73 22/28/72
g default
v -10.000000 21.797291 -117.422440
v -6.666667 21.797291 -117.422440
v -3.333333 21.797291 -117.422440
v 0.000001 21.797291 -117.422440
v 3.333334 21.797291 -117.422440
v 6.666667 21.797291 -117.422440
v 10.000001 21.797291 -117.422440
v -10.000000 22.479122 -117.422440
v -6.666667 22.479122 -117.422440
v -3.333333 22.479122 -117.422440
v 0.000001 22.479122 -117.422440
v 3.333334 22.479122 -117.422440
v 6.666667 22.479122 -117.422440
v 10.000001 22.479122 -117.422440
v -10.000000 23.160955 -117.422440
v -6.666667 23.160955 -117.422440
v -3.333333 23.160955 -117.422440
v 0.000001 23.160955 -117.422440
v 3.333334 23.160955 -117.422440
v 6.666667 23.160955 -117.422440
v 10.000001 23.160955 -117.422440
v -10.000000 23.842789 -117.422440
v -6.666667 23.842789 -117.422440
v -3.333333 23.842789 -117.422440
v 0.000001 23.842789 -117.422440
v 3.333334 23.842789 -117.422440
v 6.666667 23.842789 -117.422440
v 10.000001 23.842789 -117.422440
v -10.000000 24.524616 -117.422440
v -6.666667 24.524616 -117.422440
v -3.333333 24.524616 -117.422440
v 0.000001 24.524616 -117.422440
v 3.333334 24.524616 -117.422440
v 6.666667 24.524616 -117.422440
v 10.000001 24.524616 -117.422440
v -10.000000 25.206448 -117.422440
v -6.666667 25.206448 -117.422440
v -3.333333 25.206448 -117.422440
v 0.000001 25.206448 -117.422440
v 3.333334 25.206448 -117.422440
v 6.666667 25.206448 -117.422440
v 10.000001 25.206448 -117.422440
v -10.000000 25.888273 -117.422440
v -6.666667 25.888273 -117.422440
v -3.333333 25.888273 -117.422440
v 0.000001 25.888273 -117.422440
v 3.333334 25.888273 -117.422440
v 6.666667 25.888273 -117.422440
v 10.000001 25.888273 -117.422440
v -10.000000 25.888273 -120.755775
v -6.666667 25.888273 -120.755775
v -3.333333 25.888273 -120.755775
v 0.000001 25.888273 -120.755775
v 3.333334 25.888273 -120.755775
v 6.666667 25.888273 -120.755775
v 10.000001 25.888273 -120.755775
v -10.000000 25.888273 -124.089111
v -6.666667 25.888273 -124.089111
v -3.333333 25.888273 -124.089111
v 0.000001 25.888273 -124.089111
v 3.333334 25.888273 -124.089111
v 6.666667 25.888273 -124.089111
v 10.000001 25.888273 -124.089111
v -10.000000 25.888273 -127.422440
v -6.666667 25.888273 -127.422440
v -3.333333 25.888273 -127.422440
v 0.000001 25.888273 -127.422440
v 3.333334 25.888273 -127.422440
v 6.666667 25.888273 -127.422440
v 10.000001 25.888273 -127.422440
v -10.000000 25.888273 -130.755783
v -6.666667 25.888273 -130.755783
v -3.333333 25.888273 -130.755783
v 0.000001 25.888273 -130.755783
v 3.333334 25.888273 -130.755783
v 6.666667 25.888273 -130.755783
v 10.000001 25.888273 -130.755783
v -10.000000 25.888273 -134.089111
v -6.666667 25.888273 -134.089111
v -3.333333 25.888273 -134.089111
v 0.000001 25.888273 -134.089111
v 3.333334 25.888273 -134.089111
v 6.666667 25.888273 -134.089111
v 10.000001 25.888273 -134.089111
v -10.000000 25.888273 -137.422440
v -6.666667 25.888273 -137.422440
v -3.333333 25.888273 -137.422440
v 0.000001 25.888273 -137.422440
v 3.333334 25.888273 -137.422440
v 6.666667 25.888273 -137.422440
v 10.000001 25.888273 -137.422440
v -10.000000 25.206444 -137.422440
v -6.666667 25.206444 -137.422440
v -3.333333 25.206444 -137.422440
v 0.000001 25.206444 -137.422440
v 3.333334 25.206444 -137.422440
v 6.666667 25.206444 -137.422440
v 10.000001 25.206444 -137.422440
v -10.000000 24.524616 -137.422440
v -6.666667 24.524616 -137.422440
v -3.333333 24.524616 -137.422440
v 0.000001 24.524616 -137.422440
v 3.333334 24.524616 -137.422440
v 6.666667 24.524616 -137.422440
v 10.000001 24.524616 -137.422440
v -10.000000 23.842789 -137.422440
v -6.666667 23.842789 -137.422440
v -3.333333 23.842789 -137.422440
v 0.000001 23.842789 -137.422440
v 3.333334 23.842789 -137.422440
v 6.666667 23.842789 -137.422440
v 10.000001 23.842789 -137.422440
v -10.000000 23.160955 -137.422440
v -6.666667 23.160955 -137.422440
v -3.333333 23.160955 -137.422440
v 0.000001 23.160955 -137.422440
v 3.333334 23.160955 -137.422440
v 6.666667 23.160955 -137.422440
v 10.000001 23.160955 -137.422440
v -10.000000 22.479118 -137.422440
v -6.666667 22.479118 -137.422440
v -3.333333 22.479118 -137.422440
v 0.000001 22.479118 -137.422440
v 3.333334 22.479118 -137.422440
v 6.666667 22.479118 -137.422440
v 10.000001 22.479118 -137.422440
v -10.000000 21.797291 -137.422440
v -6.666667 21.797291 -137.422440
v -3.333333 21.797291 -137.422440
v 0.000001 21.797291 -137.422440
v 3.333334 21.797291 -137.422440
v 6.666667 21.797291 -137.422440
v 10.000001 21.797291 -137.422440
v -10.000000 21.797291 -134.089096
v -6.666667 21.797291 -134.089096
v -3.333333 21.797291 -134.089096
v 0.000001 21.797291 -134.089096
v 3.333334 21.797291 -134.089096
v 6.666667 21.797291 -134.089096
v 10.000001 21.797291 -134.089096
v -10.000000 21.797291 -130.755783
v -6.666667 21.797291 -130.755783
v -3.333333 21.797291 -130.755783
v 0.000001 21.797291 -130.755783
v 10.000001 21.797291 -130.755783
v -10.000000 21.797291 -127.422440
v -6.666667 21.797291 -127.422440
v -3.333333 21.797291 -127.422440
v 0.000001 21.797291 -127.422440
v 3.333334 21.797291 -127.422440
v 10.000001 21.797291 -127.422440
v -10.000000 21.797291 -124.089104
v -6.666667 21.797291 -124.089104
v -3.333333 21.797291 -124.089104
v 0.000001 21.797291 -124.089104
v 3.333334 21.797291 -124.089104
v 6.666667 21.797291 -124.089104
v 10.000001 21.797291 -124.089104
v -10.000000 21.797291 -120.755768
v -6.666667 21.797291 -120.755768
v -3.333333 21.797291 -120.755768
v 0.000001 21.797291 -120.755768
v 3.333334 21.797291 -120.755768
v 6.666667 21.797291 -120.755768
v 10.000001 21.797291 -120.755768
v 10.000000 22.479122 -134.089096
v 10.000000 22.479122 -130.755783
v 10.000000 22.479122 -127.422440
v 10.000000 22.479122 -124.089104
v 10.000000 22.479122 -120.755768
v 10.000000 23.160955 -134.089096
v 10.000000 23.160955 -130.755783
v 10.000000 23.160955 -127.422440
v 10.000000 23.160955 -124.089104
v 10.000000 23.160955 -120.755768
v 10.000000 23.842789 -134.089096
v 10.000000 23.842789 -130.755783
v 10.000000 23.842789 -127.422440
v 10.000000 23.842789 -124.089104
v 10.000000 23.842789 -120.755768
v 10.000000 24.524616 -134.089096
v 10.000000 24.524616 -130.755783
v 10.000000 24.524616 -127.422440
v 10.000000 24.524616 -124.089104
v 10.000000 24.524616 -120.755768
v 10.000000 25.206448 -134.089096
v 10.000000 25.206448 -130.755783
v 10.000000 25.206448 -127.422440
v 10.000000 25.206448 -124.089104
v 10.000000 25.206448 -120.755768
v -10.000000 22.479122 -134.089096
v -10.000000 22.479122 -130.755783
v -10.000000 22.479122 -127.422440
v -10.000000 22.479122 -124.089104
v -10.000000 22.479122 -120.755768
v -10.000000 23.160955 -134.089096
v -10.000000 23.160955 -130.755783
v -10.000000 23.160955 -127.422440
v -10.000000 23.160955 -124.089104
v -10.000000 23.160955 -120.755768
v -10.000000 23.842789 -134.089096
v -10.000000 23.842789 -130.755783
v -10.000000 23.842789 -127.422440
v -10.000000 23.842789 -124.089104
v -10.000000 23.842789 -120.755768
v -10.000000 24.524616 -134.089096
v -10.000000 24.524616 -130.755783
v -10.000000 24.524616 -127.422440
v -10.000000 24.524616 -124.089104
v -10.000000 24.524616 -120.755768
v -10.000000 25.206448 -134.089096
v -10.000000 25.206448 -130.755783
v -10.000000 25.206448 -127.422440
v -10.000000 25.206448 -124.089104
v -10.000000 25.206448 -120.755768
v -3.333333 17.305643 -134.089096
v 0.000001 17.305643 -134.089096
v 0.000001 17.305643 -130.755783
v -3.333333 17.305643 -130.755783
v 3.333334 17.305643 -134.089096
v 3.333334 17.305643 -130.755783
v 6.666667 17.305643 -134.089096
v 6.666667 17.305643 -130.755783
v 10.000001 17.305643 -134.089096
v 10.000001 17.305643 -130.755783
v 3.333334 17.305643 -127.422440
v 0.000001 17.305643 -127.422440
v 6.666667 17.305643 -127.422440
v 10.000001 17.305643 -127.422440
v 6.666667 17.305643 -124.089104
v 3.333334 17.305643 -124.089104
v 10.000001 17.305643 -124.089104
v -6.666667 19.185276 -127.422440
v -3.333333 19.185276 -127.422440
v -3.333333 19.185276 -124.089104
v -6.666667 19.185276 -124.089104
v -3.333333 19.185276 -120.755768
v -6.666667 19.185276 -120.755768
v -6.666667 15.371064 -127.422440
v -3.333333 15.371064 -127.422440
v -3.333333 15.371064 -124.089104
v -3.333333 15.371064 -120.755768
v -6.666667 15.371064 -120.755768
v -3.333333 12.956126 -127.422440
v -3.333333 12.956126 -124.089104
v -3.333333 12.956126 -120.755768
v -9.971357 19.185276 -127.422440
v -9.971357 19.185276 -124.089104
v -9.971357 15.371064 -127.422440
v -9.971357 15.371064 -124.089104
v -9.971357 19.185276 -120.755768
v -9.971357 15.371064 -120.755768
v -9.971357 12.956126 -127.422440
v -9.971357 12.956126 -124.089104
v -9.971357 12.956126 -120.755768
v -6.666667 10.456836 -127.422440
v -3.333333 10.456836 -127.422440
v -3.333333 10.456836 -124.089104
v -6.666667 10.456836 -124.089104
v -3.333333 10.456836 -120.755768
v -6.666667 10.456836 -120.755768
v -9.971357 10.456836 -124.089104
v -9.971357 10.456836 -127.422440
v -9.971357 10.456836 -120.755768
v -6.666667 15.371064 -133.494659
v -3.333333 15.371064 -133.494659
v -3.333333 12.956126 -133.494659
v -6.666667 12.956126 -133.494659
v -9.971357 12.956126 -133.494659
v -9.971357 15.371064 -133.494659
v -3.333333 10.456836 -133.494659
v -6.666667 10.456836 -133.494659
v -9.971357 10.456836 -133.494659
v -6.666667 15.371064 -114.683540
v -3.333333 15.371064 -114.683540
v -6.666667 12.956126 -114.683540
v -3.333333 12.956126 -114.683540
v -9.971357 15.371064 -114.683540
v -9.971357 12.956126 -114.683540
v -6.666667 10.456836 -114.683540
v -3.333333 10.456836 -114.683540
v -9.971357 10.456836 -114.683540
vt 0.375000 0.000000
vt 0.416667 0.000000
vt 0.458333 0.000000
vt 0.500000 0.000000
vt 0.541667 0.000000
vt 0.583333 0.000000
vt 0.625000 0.000000
vt 0.375000 0.041667
vt 0.416667 0.041667
vt 0.458333 0.041667
vt 0.500000 0.041667
vt 0.541667 0.041667
vt 0.583333 0.041667
vt 0.625000 0.041667
vt 0.375000 0.083333
vt 0.416667 0.083333
vt 0.458333 0.083333
vt 0.500000 0.083333
vt 0.541667 0.083333
vt 0.583333 0.083333
vt 0.625000 0.083333
vt 0.375000 0.125000
vt 0.416667 0.125000
vt 0.458333 0.125000
vt 0.500000 0.125000
vt 0.541667 0.125000
vt 0.583333 0.125000
vt 0.625000 0.125000
vt 0.375000 0.166667
vt 0.416667 0.166667
vt 0.458333 0.166667
vt 0.500000 0.166667
vt 0.541667 0.166667
vt 0.583333 0.166667
vt 0.625000 0.166667
vt 0.375000 0.208333
vt 0.416667 0.208333
vt 0.458333 0.208333
vt 0.500000 0.208333
vt 0.541667 0.208333
vt 0.583333 0.208333
vt 0.625000 0.208333
vt 0.375000 0.250000
vt 0.416667 0.250000
vt 0.458333 0.250000
vt 0.500000 0.250000
vt 0.541667 0.250000
vt 0.583333 0.250000
vt 0.625000 0.250000
vt 0.375000 0.291667
vt 0.416667 0.291667
vt 0.458333 0.291667
vt 0.500000 0.291667
vt 0.541667 0.291667
vt 0.583333 0.291667
vt 0.625000 0.291667
vt 0.375000 0.333333
vt 0.416667 0.333333
vt 0.458333 0.333333
vt 0.500000 0.333333
vt 0.541667 0.333333
vt 0.583333 0.333333
vt 0.625000 0.333333
vt 0.375000 0.375000
vt 0.416667 0.375000
vt 0.458333 0.375000
vt 0.500000 0.375000
vt 0.541667 0.375000
vt 0.583333 0.375000
vt 0.625000 0.375000
vt 0.375000 0.416667
vt 0.416667 0.416667
vt 0.458333 0.416667
vt 0.500000 0.416667
vt 0.541667 0.416667
vt 0.583333 0.416667
vt 0.625000 0.416667
vt 0.375000 0.458333
vt 0.416667 0.458333
vt 0.458333 0.458333
vt 0.500000 0.458333
vt 0.541667 0.458333
vt 0.583333 0.458333
vt 0.625000 0.458333
vt 0.375000 0.500000
vt 0.416667 0.500000
vt 0.458333 0.500000
vt 0.500000 0.500000
vt 0.541667 0.500000
vt 0.583333 0.500000
vt 0.625000 0.500000
vt 0.375000 0.541667
vt 0.416667 0.541667
vt 0.458333 0.541667
vt 0.500000 0.541667
vt 0.541667 0.541667
vt 0.583333 0.541667
vt 0.625000 0.541667
vt 0.375000 0.583333
vt 0.416667 0.583333
vt 0.458333 0.583333
vt 0.500000 0.583333
vt 0.541667 0.583333
vt 0.583333 0.583333
vt 0.625000 0.583333
vt 0.375000 0.625000
vt 0.416667 0.625000
vt 0.458333 0.625000
vt 0.500000 0.625000
vt 0.541667 0.625000
vt 0.583333 0.625000
vt 0.625000 0.625000
vt 0.375000 0.666667
vt 0.416667 0.666667
vt 0.458333 0.666667
vt 0.500000 0.666667
vt 0.541667 0.666667
vt 0.583333 0.666667
vt 0.625000 0.666667
vt 0.375000 0.708333
vt 0.416667 0.708333
vt 0.458333 0.708333
vt 0.500000 0.708333
vt 0.541667 0.708333
vt 0.583333 0.708333
vt 0.625000 0.708333
vt 0.375000 0.750000
vt 0.416667 0.750000
vt 0.458333 0.750000
vt 0.500000 0.750000
vt 0.541667 0.750000
vt 0.583333 0.750000
vt 0.625000 0.750000
vt 0.375000 0.791667
vt 0.416667 0.791667
vt 0.458333 0.791667
vt 0.500000 0.791667
vt 0.541667 0.791667
vt 0.583333 0.791667
vt 0.625000 0.791667
vt 0.375000 0.833333
vt 0.416667 0.833333
vt 0.458333 0.833333
vt 0.500000 0.833333
vt 0.541667 0.833333
vt 0.583333 0.833333
vt 0.625000 0.833333
vt 0.375000 0.875000
vt 0.416667 0.875000
vt 0.458333 0.875000
vt 0.500000 0.875000
vt 0.541667 0.875000
vt 0.583333 0.875000
vt 0.625000 0.875000
vt 0.375000 0.916667
vt 0.416667 0.916667
vt 0.458333 0.916667
vt 0.500000 0.916667
vt 0.541667 0.916667
vt 0.583333 0.916667
vt 0.625000 0.916667
vt 0.375000 0.958333
vt 0.416667 0.958333
vt 0.458333 0.958333
vt 0.500000 0.958333
vt 0.541667 0.958333
vt 0.583333 0.958333
vt 0.625000 0.958333
vt 0.375000 1.000000
vt 0.416667 1.000000
vt 0.458333 1.000000
vt 0.500000 1.000000
vt 0.541667 1.000000
vt 0.583333 1.000000
vt 0.625000 1.000000
vt 0.875000 0.000000
vt 0.833333 0.000000
vt 0.791667 0.000000
vt 0.750000 0.000000
vt 0.708333 0.000000
vt 0.666667 0.000000
vt 0.875000 0.041667
vt 0.833333 0.041667
vt 0.791667 0.041667
vt 0.750000 0.041667
vt 0.708333 0.041667
vt 0.666667 0.041667
vt 0.875000 0.083333
vt 0.833333 0.083333
vt 0.791667 0.083333
vt 0.750000 0.083333
vt 0.708333 0.083333
vt 0.666667 0.083333
vt 0.875000 0.125000
vt 0.833333 0.125000
vt 0.791667 0.125000
vt 0.750000 0.125000
vt 0.708333 0.125000
vt 0.666667 0.125000
vt 0.875000 0.166667
vt 0.833333 0.166667
vt 0.791667 0.166667
vt 0.750000 0.166667
vt 0.708333 0.166667
vt 0.666667 0.166667
vt 0.875000 0.208333
vt 0.833333 0.208333
vt 0.791667 0.208333
vt 0.750000 0.208333
vt 0.708333 0.208333
vt 0.666667 0.208333
vt 0.875000 0.250000
vt 0.833333 0.250000
vt 0.791667 0.250000
vt 0.750000 0.250000
vt 0.708333 0.250000
vt 0.666667 0.250000
vt 0.125000 0.000000
vt 0.166667 0.000000
vt 0.208333 0.000000
vt 0.250000 0.000000
vt 0.291667 0.000000
vt 0.333333 0.000000
vt 0.125000 0.041667
vt 0.166667 0.041667
vt 0.208333 0.041667
vt 0.250000 0.041667
vt 0.291667 0.041667
vt 0.333333 0.041667
vt 0.125000 0.083333
vt 0.166667 0.083333
vt 0.208333 0.083333
vt 0.250000 0.083333
vt 0.291667 0.083333
vt 0.333333 0.083333
vt 0.125000 0.125000
vt 0.166667 0.125000
vt 0.208333 0.125000
vt 0.250000 0.125000
vt 0.291667 0.125000
vt 0.333333 0.125000
vt 0.125000 0.166667
vt 0.166667 0.166667
vt 0.208333 0.166667
vt 0.250000 0.166667
vt 0.291667 0.166667
vt 0.333333 0.166667
vt 0.125000 0.208333
vt 0.166667 0.208333
vt 0.208333 0.208333
vt 0.250000 0.208333
vt 0.291667 0.208333
vt 0.333333 0.208333
vt 0.125000 0.250000
vt 0.166667 0.250000
vt 0.208333 0.250000
vt 0.250000 0.250000
vt 0.291667 0.250000
vt 0.333333 0.250000
vt 0.458333 0.791667
vt 0.500000 0.791667
vt 0.500000 0.833333
vt 0.458333 0.833333
vt 0.541667 0.791667
vt 0.583333 0.791667
vt 0.625000 0.791667
vt 0.625000 0.833333
vt 0.541667 0.875000
vt 0.500000 0.875000
vt 0.625000 0.875000
vt 0.583333 0.916667
vt 0.541667 0.916667
vt 0.625000 0.916667
vt 0.416667 0.875000
vt 0.458333 0.875000
vt 0.458333 0.916667
vt 0.416667 0.916667
vt 0.458333 0.958333
vt 0.416667 0.958333
vt 0.416667 0.875000
vt 0.458333 0.875000
vt 0.458333 0.916667
vt 0.416667 0.916667
vt 0.458333 0.958333
vt 0.416667 0.958333
vt 0.416667 0.875000
vt 0.458333 0.875000
vt 0.458333 0.916667
vt 0.416667 0.916667
vt 0.458333 0.958333
vt 0.416667 0.958333
vt 0.416667 0.916667
vt 0.416667 0.875000
vt 0.416667 0.875000
vt 0.416667 0.958333
vt 0.416667 0.958333
vt 0.416667 0.875000
vt 0.416667 0.916667
vt 0.416667 0.958333
vt 0.416667 0.875000
vt 0.458333 0.875000
vt 0.458333 0.916667
vt 0.458333 0.958333
vt 0.416667 0.958333
vt 0.416667 0.916667
vt 0.416667 0.875000
vt 0.416667 0.958333
vt 0.416667 0.875000
vt 0.458333 0.875000
vt 0.458333 0.875000
vt 0.458333 0.958333
vt 0.416667 0.958333
vt 0.458333 0.958333
vt 0.416667 0.875000
vt 0.416667 0.875000
vt 0.416667 0.958333
vt 0.416667 0.958333
vt 0.458333 0.875000
vt 0.416667 0.875000
vt 0.416667 0.958333
vt 0.458333 0.958333
vt 0.416667 0.875000
vt 0.416667 0.958333
vn 0.000000 0.000000 1.000000
vn 0.000000 0.000000 1.000000
vn 0.000000 0.000000 1.000000
vn 0.000000 0.000000 1.000000
vn 0.000000 0.000000 1.000000
vn 0.000000 0.000000 1.000000
vn 0.000000 0.000000 1.000000
vn 0.000000 0.000000 1.000000
vn 0.000000 0.000000 1.000000
vn 0.000000 0.000000 1.000000
vn 0.000000 0.000000 1.000000
vn 0.000000 0.000000 1.000000
vn 0.000000 0.000000 1.000000
vn 0.000000 0.000000 1.000000
vn 0.000000 0.000000 1.000000
vn 0.000000 0.000000 1.000000
vn 0.000000 0.000000 1.000000
vn 0.000000 0.000000 1.000000
vn 0.000000 0.000000 1.000000
vn 0.000000 0.000000 1.000000
vn 0.000000 0.000000 1.000000
vn 0.000000 0.000000 1.000000
vn 0.000000 0.000000 1.000000
vn 0.000000 0.000000 1.000000
vn 0.000000 0.000000 1.000000
vn 0.000000 0.000000 1.000000
vn 0.000000 0.000000 1.000000
vn 0.000000 0.000000 1.000000
vn 0.000000 0.000000 1.000000
vn 0.000000 0.000000 1.000000
vn 0.000000 0.000000 1.000000
vn 0.000000 0.000000 1.000000
vn 0.000000 0.000000 1.000000
vn 0.000000 0.000000 1.000000
vn 0.000000 0.000000 1.000000
vn 0.000000 0.000000 1.000000
vn 0.000000 0.000000 1.000000
vn 0.000000 0.000000 1.000000
vn 0.000000 0.000000 1.000000
vn 0.000000 0.000000 1.000000
vn 0.000000 0.000000 1.000000
vn 0.000000 0.000000 1.000000
vn 0.000000 0.000000 1.000000
vn 0.000000 0.000000 1.000000
vn 0.000000 0.000000 1.000000
vn 0.000000 0.000000 1.000000
vn 0.000000 0.000000 1.000000
vn 0.000000 0.000000 1.000000
vn 0.000000 0.000000 1.000000
vn 0.000000 1.000000 0.000000
vn 0.000000 1.000000 0.000000
vn 0.000000 1.000000 0.000000
vn 0.000000 1.000000 0.000000
vn 0.000000 1.000000 0.000000
vn 0.000000 1.000000 0.000000
vn 0.000000 1.000000 0.000000
vn 0.000000 1.000000 0.000000
vn 0.000000 1.000000 0.000000
vn 0.000000 1.000000 0.000000
vn 0.000000 1.000000 0.000000
vn 0.000000 1.000000 0.000000
vn 0.000000 1.000000 0.000000
vn 0.000000 1.000000 0.000000
vn 0.000000 1.000000 0.000000
vn 0.000000 1.000000 0.000000
vn 0.000000 1.000000 0.000000
vn 0.000000 1.000000 0.000000
vn 0.000000 1.000000 0.000000
vn 0.000000 1.000000 0.000000
vn 0.000000 1.000000 0.000000
vn 0.000000 1.000000 0.000000
vn 0.000000 1.000000 0.000000
vn 0.000000 1.000000 0.000000
vn 0.000000 1.000000 0.000000
vn 0.000000 1.000000 0.000000
vn 0.000000 1.000000 0.000000
vn 0.000000 1.000000 0.000000
vn 0.000000 1.000000 0.000000
vn 0.000000 1.000000 0.000000
vn 0.000000 1.000000 0.000000
vn 0.000000 1.000000 0.000000
vn 0.000000 1.000000 0.000000
vn 0.000000 1.000000 0.000000
vn 0.000000 1.000000 0.000000
vn 0.000000 1.000000 0.000000
vn 0.000000 1.000000 0.000000
vn 0.000000 1.000000 0.000000
vn 0.000000 1.000000 0.000000
vn 0.000000 1.000000 0.000000
vn 0.000000 1.000000 0.000000
vn 0.000000 1.000000 0.000000
vn 0.000000 1.000000 0.000000
vn 0.000000 1.000000 0.000000
vn 0.000000 1.000000 0.000000
vn 0.000000 1.000000 0.000000
vn 0.000000 1.000000 0.000000
vn 0.000000 1.000000 0.000000
vn 0.000000 1.000000 0.000000
vn 0.000000 0.000000 -1.000000
vn 0.000000 0.000000 -1.000000
vn 0.000000 0.000000 -1.000000
vn 0.000000 0.000000 -1.000000
vn 0.000000 0.000000 -1.000000
vn 0.000000 0.000000 -1.000000
vn 0.000000 0.000000 -1.000000
vn 0.000000 0.000000 -1.000000
vn 0.000000 0.000000 -1.000000
vn 0.000000 0.000000 -1.000000
vn 0.000000 0.000000 -1.000000
vn 0.000000 0.000000 -1.000000
vn 0.000000 0.000000 -1.000000
vn 0.000000 0.000000 -1.000000
vn 0.000000 0.000000 -1.000000
vn 0.000000 0.000000 -1.000000
vn 0.000000 0.000000 -1.000000
vn 0.000000 0.000000 -1.000000
vn 0.000000 0.000000 -1.000000
vn 0.000000 0.000000 -1.000000
vn 0.000000 0.000000 -1.000000
vn 0.000000 0.000000 -1.000000
vn 0.000000 0.000000 -1.000000
vn 0.000000 0.000000 -1.000000
vn 0.000000 0.000000 -1.000000
vn 0.000000 0.000000 -1.000000
vn 0.000000 0.000000 -1.000000
vn 0.000000 0.000000 -1.000000
vn 0.000000 0.000000 -1.000000
vn 0.000000 0.000000 -1.000000
vn 0.000000 0.000000 -1.000000
vn 0.000000 0.000000 -1.000000
vn 0.000000 0.000000 -1.000000
vn 0.000000 0.000000 -1.000000
vn 0.000000 0.000000 -1.000000
vn 0.000000 0.000000 -1.000000
vn 0.000000 0.000000 -1.000000
vn 0.000000 0.000000 -1.000000
vn 0.000000 0.000000 -1.000000
vn 0.000000 0.000000 -1.000000
vn 0.000000 0.000000 -1.000000
vn 0.000000 0.000000 -1.000000
vn 0.000000 0.000000 -1.000000
vn 0.000000 0.000000 -1.000000
vn 0.000000 0.000000 -1.000000
vn 0.000000 0.000000 -1.000000
vn 0.000000 0.000000 -1.000000
vn 0.000000 0.000000 -1.000000
vn 0.000000 0.000000 -1.000000
vn 0.000000 -1.000000 0.000000
vn 0.000000 -1.000000 0.000000
vn 0.000000 -1.000000 0.000000
vn 0.000000 -1.000000 0.000000
vn 0.000000 -1.000000 0.000000
vn 0.000000 -1.000000 0.000000
vn 0.000000 -1.000000 0.000000
vn 0.000000 -1.000000 0.000000
vn 0.000000 -1.000000 0.000000
vn 0.000000 -1.000000 0.000000
vn 0.000000 -1.000000 0.000000
vn 0.000000 -1.000000 0.000000
vn 0.000000 -1.000000 0.000000
vn 0.000000 -1.000000 0.000000
vn 0.000000 -1.000000 0.000000
vn 0.000000 -1.000000 0.000000
vn 0.000000 -1.000000 0.000000
vn 0.000000 -1.000000 0.000000
vn 0.000000 -1.000000 0.000000
vn 0.000000 -1.000000 0.000000
vn 0.000000 -1.000000 0.000000
vn 0.000000 -1.000000 0.000000
vn 0.000000 -1.000000 0.000000
vn 0.000000 -1.000000 0.000000
vn 0.000000 -1.000000 0.000000
vn 0.000000 -1.000000 0.000000
vn 0.000000 -1.000000 0.000000
vn 0.000000 -1.000000 0.000000
vn 0.000000 -1.000000 0.000000
vn 0.000000 -1.000000 0.000000
vn 0.000000 -1.000000 0.000000
vn 0.000000 -1.000000 0.000000
vn 0.000000 -1.000000 0.000000
vn 0.000000 -1.000000 0.000000
vn 0.000000 -1.000000 0.000000
vn 0.000000 -1.000000 0.000000
vn 0.000000 -1.000000 0.000000
vn 0.000000 -1.000000 0.000000
vn 0.000000 -1.000000 0.000000
vn 0.000000 -1.000000 0.000000
vn 0.000000 -1.000000 0.000000
vn 0.000000 -1.000000 0.000000
vn 0.000000 -1.000000 0.000000
vn 0.000000 -1.000000 0.000000
vn 0.000000 -1.000000 0.000000
vn 0.000000 -1.000000 0.000000
vn 0.000000 -1.000000 0.000000
vn 0.000000 -1.000000 0.000000
vn 0.000000 -1.000000 0.000000
vn 0.000000 -1.000000 0.000000
vn 0.000000 -1.000000 0.000000
vn 0.000000 -1.000000 0.000000
vn 0.000000 -1.000000 0.000000
vn 0.000000 -1.000000 0.000000
vn 0.000000 -1.000000 0.000000
vn 0.000000 -1.000000 0.000000
vn 0.000000 -1.000000 0.000000
vn 0.000000 -1.000000 0.000000
vn 0.000000 -1.000000 0.000000
vn 0.000000 -1.000000 0.000000
vn 0.000000 -1.000000 0.000000
vn 0.000000 -1.000000 0.000000
vn 0.000000 -1.000000 0.000000
vn 0.000000 -1.000000 0.000000
vn 0.000000 -1.000000 0.000000
vn 0.000000 -1.000000 0.000000
vn 0.000000 -1.000000 0.000000
vn 1.000000 0.000000 0.000000
vn 1.000000 0.000002 0.000000
vn 1.000000 0.000001 0.000000
vn 1.000000 0.000001 0.000000
vn 1.000000 0.000000 0.000000
vn 1.000000 0.000001 0.000000
vn 1.000000 0.000000 0.000000
vn 1.000000 0.000001 0.000000
vn 1.000000 0.000000 0.000000
vn 1.000000 0.000001 0.000000
vn 1.000000 0.000002 -0.000000
vn 1.000000 0.000001 -0.000000
vn 1.000000 0.000002 -0.000000
vn 1.000000 0.000001 -0.000000
vn 1.000000 0.000000 0.000000
vn 1.000000 0.000000 0.000000
vn 1.000000 0.000000 0.000000
vn 1.000000 0.000000 0.000000
vn 1.000000 0.000000 0.000000
vn 1.000000 0.000000 -0.000000
vn 1.000000 0.000000 -0.000000
vn 1.000000 0.000000 0.000000
vn 1.000000 0.000000 0.000000
vn 1.000000 0.000000 0.000000
vn 1.000000 0.000000 0.000000
vn 1.000000 0.000000 0.000000
vn 1.000000 0.000000 -0.000000
vn 1.000000 0.000000 -0.000000
vn 1.000000 0.000000 0.000000
vn 1.000000 0.000000 0.000000
vn 1.000000 0.000000 0.000000
vn 1.000000 0.000000 0.000000
vn 1.000000 0.000000 0.000000
vn 1.000000 0.000000 -0.000000
vn 1.000000 0.000000 -0.000000
vn 1.000000 -0.000001 0.000000
vn 1.000000 -0.000001 0.000000
vn 1.000000 -0.000001 0.000000
vn 1.000000 -0.000001 0.000000
vn 1.000000 -0.000001 0.000000
vn 1.000000 -0.000001 -0.000000
vn 1.000000 -0.000001 -0.000000
vn 1.000000 -0.000002 0.000000
vn 1.000000 -0.000002 0.000000
vn 1.000000 -0.000002 0.000000
vn 1.000000 -0.000002 0.000000
vn 1.000000 -0.000002 0.000000
vn 1.000000 -0.000002 -0.000000
vn 1.000000 -0.000002 -0.000000
vn -1.000000 0.000000 0.000000
vn -1.000000 0.000000 0.000000
vn -1.000000 0.000000 0.000000
vn -1.000000 0.000000 0.000000
vn -1.000000 0.000000 0.000000
vn -1.000000 0.000000 0.000000
vn -1.000000 0.000000 0.000000
vn -1.000000 0.000000 0.000000
vn -1.000000 0.000000 0.000000
vn -1.000000 0.000000 0.000000
vn -1.000000 0.000000 0.000000
vn -1.000000 0.000000 0.000000
vn -1.000000 0.000000 0.000000
vn -1.000000 0.000000 0.000000
vn -1.000000 0.000000 0.000000
vn -1.000000 0.000000 0.000000
vn -1.000000 0.000000 0.000000
vn -1.000000 0.000000 0.000000
vn -1.000000 0.000000 0.000000
vn -1.000000 0.000000 0.000000
vn -1.000000 0.000000 0.000000
vn -1.000000 0.000000 0.000000
vn -1.000000 0.000000 0.000000
vn -1.000000 0.000000 0.000000
vn -1.000000 0.000000 0.000000
vn -1.000000 0.000000 0.000000
vn -1.000000 0.000000 0.000000
vn -1.000000 0.000000 0.000000
vn -1.000000 0.000000 0.000000
vn -1.000000 0.000000 0.000000
vn -1.000000 0.000000 0.000000
vn -1.000000 0.000000 0.000000
vn -1.000000 0.000000 0.000000
vn -1.000000 0.000000 0.000000
vn -1.000000 0.000000 0.000000
vn -1.000000 0.000000 0.000000
vn -1.000000 0.000000 0.000000
vn -1.000000 0.000000 0.000000
vn -1.000000 0.000000 0.000000
vn -1.000000 0.000000 0.000000
vn -1.000000 0.000000 0.000000
vn -1.000000 0.000000 0.000000
vn -1.000000 0.000000 0.000000
vn -1.000000 0.000000 0.000000
vn -1.000000 0.000000 0.000000
vn -1.000000 0.000000 0.000000
vn -1.000000 0.000000 0.000000
vn -1.000000 0.000000 0.000000
vn -1.000000 0.000000 0.000000
vn 0.000000 0.000000 -1.000000
vn 0.000000 0.000000 -1.000000
vn 0.000000 0.000000 -1.000000
vn 0.000000 0.000000 -1.000000
vn 0.000000 0.000000 1.000000
vn 0.000000 0.000000 1.000000
vn 0.000000 0.000000 1.000000
vn 0.000000 0.000000 1.000000
vn -1.000000 0.000000 0.000000
vn -1.000000 0.000000 0.000000
vn -1.000000 0.000000 0.000000
vn -1.000000 0.000000 0.000000
vn 0.000000 0.000000 -1.000000
vn 0.000000 0.000000 -1.000000
vn 0.000000 0.000000 -1.000000
vn 0.000000 0.000000 -1.000000
vn 0.000000 0.000000 -1.000000
vn 0.000000 0.000000 -1.000000
vn 1.000000 0.000000 0.000000
vn 1.000000 0.000000 0.000000
vn 0.000000 0.000000 1.000000
vn 0.000000 0.000000 1.000000
vn 0.000000 0.000000 1.000000
vn 0.000000 0.000000 1.000000
vn -1.000000 0.000000 0.000000
vn -1.000000 0.000000 0.000000
vn -1.000000 0.000000 0.000000
vn -1.000000 0.000000 0.000000
vn 1.000000 0.000000 0.000000
vn 0.000000 0.000000 1.000000
vn 0.000000 0.000000 1.000000
vn 0.000000 0.000000 1.000000
vn 0.000000 0.000000 1.000000
vn -1.000000 0.000000 0.000000
vn -1.000000 0.000000 0.000000
vn -1.000000 0.000000 0.000000
vn -1.000000 0.000000 0.000000
vn 1.000000 0.000000 0.000000
vn 0.000000 0.000000 1.000000
vn 0.000000 0.000000 1.000000
vn 0.000000 0.000000 -1.000000
vn 0.000000 0.000000 -1.000000
vn 0.000000 0.000000 -1.000000
vn 0.000000 0.000000 -1.000000
vn 1.000000 0.000000 0.000000
vn 1.000000 0.000000 0.000000
vn 1.000000 0.000000 0.000000
vn 1.000000 0.000000 0.000000
vn -1.000000 0.000000 0.000000
vn -1.000000 0.000000 0.000000
vn -1.000000 0.000000 0.000000
vn -1.000000 0.000000 0.000000
vn 1.000000 0.000000 0.000000
vn 1.000000 0.000000 0.000000
vn 0.000000 0.000000 1.000000
vn 0.000000 0.000000 1.000000
vn 0.000000 0.000000 1.000000
vn 0.000000 0.000000 1.000000
vn -1.000000 0.000000 0.000000
vn -1.000000 0.000000 0.000000
vn 0.000000 0.000000 -1.000000
vn 0.000000 0.000000 -1.000000
vn 1.000000 0.000000 0.000000
vn 1.000000 0.000000 0.000000
vn -1.000000 0.000000 0.000000
vn -1.000000 0.000000 0.000000
vn -1.000000 0.000000 0.000000
vn -1.000000 0.000000 0.000000
vn 1.000000 0.000000 0.000000
vn 0.000000 0.000000 1.000000
vn 0.000000 0.000000 1.000000
vn -1.000000 0.000000 0.000000
vn -1.000000 0.000000 0.000000
vn 0.000000 0.000000 -1.000000
vn 0.000000 0.000000 -1.000000
vn 0.000000 0.000000 -1.000000
vn 0.000000 0.000000 -1.000000
vn 1.000000 0.000000 0.000000
vn 1.000000 0.000000 0.000000
vn -1.000000 0.000000 0.000000
vn -1.000000 0.000000 0.000000
vn 1.000000 0.000000 0.000000
vn 0.000000 0.000000 1.000000
vn 0.000000 0.000000 1.000000
vn 0.000000 0.000000 1.000000
vn 0.000000 0.000000 1.000000
vn -1.000000 0.000000 0.000000
vn 0.000000 1.000000 0.000000
vn 0.000000 1.000000 0.000000
vn 0.000000 1.000000 0.000000
vn 0.000000 1.000000 0.000000
vn 0.000000 0.000000 -1.000000
vn 0.000000 0.000000 -1.000000
vn 0.000000 1.000000 0.000000
vn 0.000000 1.000000 0.000000
vn 0.000000 0.000000 1.000000
vn 0.000000 0.000000 1.000000
vn 0.000000 0.000000 -1.000000
vn 0.000000 0.000000 -1.000000
vn 0.000000 -1.000000 0.000000
vn 0.000000 -1.000000 0.000000
vn 0.000000 -1.000000 0.000000
vn 0.000000 0.000000 1.000000
vn 0.000000 0.000000 1.000000
vn 0.000000 0.000000 -1.000000
vn 0.000000 0.000000 -1.000000
vn 1.000000 0.000000 0.000000
vn 1.000000 0.000000 0.000000
vn 1.000000 0.000000 0.000000
vn 0.000000 0.000000 1.000000
vn 0.000000 0.000000 1.000000
vn -1.000000 0.000000 0.000000
vn -1.000000 0.000000 0.000000
vn 0.000000 0.000000 -1.000000
vn 0.000000 0.000000 1.000000
vn -1.000000 0.000000 0.000000
vn 0.000000 1.000000 0.000000
vn 0.000000 1.000000 0.000000
vn 0.000000 1.000000 0.000000
vn 0.000000 1.000000 0.000000
vn 1.000000 0.000000 0.000000
vn 1.000000 0.000000 0.000000
vn -1.000000 0.000000 0.000000
vn -1.000000 0.000000 0.000000
vn 0.000000 1.000000 0.000000
vn 0.000000 1.000000 0.000000
vn 1.000000 0.000000 0.000000
vn 0.000000 -1.000000 0.000000
vn 0.000000 -1.000000 0.000000
vn 0.000000 -1.000000 0.000000
vn -1.000000 0.000000 0.000000
vn 0.000000 1.000000 0.000000
vn 0.000000 1.000000 0.000000
vn 0.000000 1.000000 0.000000
vn 0.000000 1.000000 0.000000
vn 1.000000 0.000000 0.000000
vn 1.000000 0.000000 0.000000
vn 0.000000 1.000000 0.000000
vn 0.000000 1.000000 0.000000
vn -1.000000 0.000000 0.000000
vn -1.000000 0.000000 0.000000
vn 0.000000 -1.000000 0.000000
vn 0.000000 -1.000000 0.000000
vn 1.000000 0.000000 0.000000
vn -1.000000 0.000000 0.000000
vn 0.000000 -1.000000 0.000000
s 1
g pCube9
usemtl initialShadingGroup
f 38/44/90 39/45/91 46/52/92 45/51/93
f 39/45/91 40/46/94 47/53/95 46/52/92
f 40/46/94 41/47/96 48/54/97 47/53/95
f 41/47/96 42/48/98 49/55/99 48/54/97
f 42/48/98 43/49/100 50/56/101 49/55/99
f 43/49/100 44/50/102 51/57/103 50/56/101
f 45/51/93 46/52/92 53/59/104 52/58/105
f 46/52/92 47/53/95 54/60/106 53/59/104
f 47/53/95 48/54/97 55/61/107 54/60/106
f 48/54/97 49/55/99 56/62/108 55/61/107
f 49/55/99 50/56/101 57/63/109 56/62/108
f 50/56/101 51/57/103 58/64/110 57/63/109
f 52/58/105 53/59/104 60/66/111 59/65/112
f 53/59/104 54/60/106 61/67/113 60/66/111
f 54/60/106 55/61/107 62/68/114 61/67/113
f 55/61/107 56/62/108 63/69/115 62/68/114
f 56/62/108 57/63/109 64/70/116 63/69/115
f 57/63/109 58/64/110 65/71/117 64/70/116
f 59/65/112 60/66/111 67/73/118 66/72/119
f 60/66/111 61/67/113 68/74/120 67/73/118
f 61/67/113 62/68/114 69/75/121 68/74/120
f 62/68/114 63/69/115 70/76/122 69/75/121
f 63/69/115 64/70/116 71/77/123 70/76/122
f 64/70/116 65/71/117 72/78/124 71/77/123
f 66/72/119 67/73/118 74/80/125 73/79/126
f 67/73/118 68/74/120 75/81/127 74/80/125
f 68/74/120 69/75/121 76/82/128 75/81/127
f 69/75/121 70/76/122 77/83/129 76/82/128
f 70/76/122 71/77/123 78/84/130 77/83/129
f 71/77/123 72/78/124 79/85/131 78/84/130
f 73/79/126 74/80/125 81/87/132 80/86/133
f 74/80/125 75/81/127 82/88/134 81/87/132
f 75/81/127 76/82/128 83/89/135 82/88/134
f 76/82/128 77/83/129 84/90/136 83/89/135
f 77/83/129 78/84/130 85/91/137 84/90/136
f 78/84/130 79/85/131 86/92/138 85/91/137
s 2
f 80/86/139 81/87/140 88/94/141 87/93/142
f 81/87/140 82/88/143 89/95/144 88/94/141
f 82/88/143 83/89/145 90/96/146 89/95/144
f 83/89/145 84/90/147 91/97/148 90/96/146
f 84/90/147 85/91/149 92/98/150 91/97/148
f 85/91/149 86/92/151 93/99/152 92/98/150
f 87/93/142 88/94/141 95/101/153 94/100/154
f 88/94/141 89/95/144 96/102/155 95/101/153
f 89/95/144 90/96/146 97/103/156 96/102/155
f 90/96/146 91/97/148 98/104/157 97/103/156
f 91/97/148 92/98/150 99/105/158 98/104/157
f 92/98/150 93/99/152 100/106/159 99/105/158
f 94/100/154 95/101/153 102/108/160 101/107/161
f 95/101/153 96/102/155 103/109/162 102/108/160
f 96/102/155 97/103/156 104/110/163 103/109/162
f 97/103/156 98/104/157 105/111/164 104/110/163
f 98/104/157 99/105/158 106/112/165 105/111/164
f 99/105/158 100/106/159 107/113/166 106/112/165
f 101/107/161 102/108/160 109/115/167 108/114/168
f 102/108/160 103/109/162 110/116/169 109/115/167
f 103/109/162 104/110/163 111/117/170 110/116/169
f 104/110/163 105/111/164 112/118/171 111/117/170
f 105/111/164 106/112/165 113/119/172 112/118/171
f 106/112/165 107/113/166 114/120/173 113/119/172
f 108/114/168 109/115/167 116/122/174 115/121/175
f 109/115/167 110/116/169 117/123/176 116/122/174
f 110/116/169 111/117/170 118/124/177 117/123/176
f 111/117/170 112/118/171 119/125/178 118/124/177
f 112/118/171 113/119/172 120/126/179 119/125/178
f 113/119/172 114/120/173 121/127/180 120/126/179
f 115/121/175 116/122/174 123/129/181 122/128/182
f 116/122/174 117/123/176 124/130/183 123/129/181
f 117/123/176 118/124/177 125/131/184 124/130/183
f 118/124/177 119/125/178 126/132/185 125/131/184
f 119/125/178 120/126/179 127/133/186 126/132/185
f 120/126/179 121/127/180 128/134/187 127/133/186
s 3
f 122/128/188 123/129/189 130/136/190 129/135/191
f 123/129/189 124/130/192 131/137/193 130/136/190
f 124/130/192 125/131/194 132/138/195 131/137/193
f 125/131/194 126/132/196 133/139/197 132/138/195
f 126/132/196 127/133/198 134/140/199 133/139/197
f 127/133/198 128/134/200 135/141/201 134/140/199
f 129/135/191 130/136/190 137/143/202 136/142/203
f 130/136/190 131/137/193 138/144/204 137/143/202
f 131/137/193 132/138/195 139/145/205 138/144/204
f 132/138/195 133/139/197 140/146/206 139/145/205
f 133/139/197 134/140/199 141/147/207 140/146/206
f 134/140/199 135/141/201 142/148/208 141/147/207
f 136/142/203 137/143/202 144/150/209 143/149/210
f 137/143/202 138/144/204 145/151/211 144/150/209
f 138/144/204 139/145/205 146/152/212 145/151/211
f 139/145/205 140/146/206 147/153/213 146/152/212
f 140/146/206 141/147/207 148/154/214 147/153/213
f 141/147/207 142/148/208 149/155/215 148/154/214
f 143/149/210 144/150/209 151/157/216 150/156/217
f 144/150/209 145/151/211 152/158/218 151/157/216
f 145/151/211 146/152/212 153/159/219 152/158/218
f 146/152/212 147/153/213 154/160/220 153/159/219
f 147/153/213 148/154/214 155/161/221 154/160/220
f 148/154/214 149/155/215 156/162/222 155/161/221
f 150/156/217 151/157/216 158/164/223 157/163/224
f 151/157/216 152/158/218 159/165/225 158/164/223
f 152/158/218 153/159/219 160/166/226 159/165/225
f 153/159/219 154/160/220 161/167/227 160/166/226
f 154/160/220 155/161/221 162/168/228 161/167/227
f 155/161/221 156/162/222 163/169/229 162/168/228
f 157/163/224 158/164/223 165/171/230 164/170/231
f 158/164/223 159/165/225 166/172/232 165/171/230
f 159/165/225 160/166/226 167/173/233 166/172/232
f 160/166/226 161/167/227 168/174/234 167/173/233
f 161/167/227 162/168/228 169/175/235 168/174/234
f 162/168/228 163/169/229 170/176/236 169/175/235
s 4
f 164/170/237 165/171/238 172/178/239 171/177/240
f 165/171/238 166/172/241 173/179/242 172/178/239
f 166/172/241 167/173/243 174/180/244 173/179/242
f 167/173/243 168/174/245 175/181/246 174/180/244
f 168/174/245 169/175/247 176/182/248 175/181/246
f 169/175/247 170/176/249 177/183/250 176/182/248
f 171/177/240 172/178/239 179/185/251 178/184/252
f 172/178/239 173/179/242 180/186/253 179/185/251
s 5
f 253/303/254 254/304/255 255/305/256 256/306/257
f 254/304/255 257/307/258 258/188/259 255/305/256
f 257/307/258 259/308/260 260/189/261 258/188/259
f 259/308/260 261/309/262 262/310/263 260/189/261
s 4
f 178/184/252 179/185/251 184/192/264 183/191/265
f 179/185/251 180/186/253 185/193/266 184/192/264
f 180/186/253 181/187/267 186/194/268 185/193/266
s 5
f 255/305/256 258/188/259 263/311/269 264/312/270
f 258/188/259 260/189/261 265/196/271 263/311/269
f 260/189/261 262/310/263 266/313/272 265/196/271
s 4
f 183/191/265 184/192/264 190/199/273 189/198/274
s 6
f 293/343/275 294/344/276 295/345/277 296/332/278
s 4
f 185/193/266 186/194/268 192/201/279 191/200/280
f 186/194/268 187/195/281 193/202/282 192/201/279
s 5
f 263/311/269 265/196/271 267/314/283 268/315/284
f 265/196/271 266/313/272 269/316/285 267/314/283
s 4
f 189/198/274 190/199/273 197/206/286 196/205/287
s 6
f 296/332/278 295/345/277 297/346/288 298/347/289
s 4
f 191/200/280 192/201/279 199/208/290 198/207/291
f 192/201/279 193/202/282 200/209/292 199/208/290
f 193/202/282 194/203/293 201/210/294 200/209/292
f 194/203/293 195/204/295 202/211/296 201/210/294
f 196/205/287 197/206/286 39/213/297 38/212/298
f 197/206/286 198/207/291 40/214/299 39/213/297
f 198/207/291 199/208/290 41/215/300 40/214/299
f 199/208/290 200/209/292 42/216/301 41/215/300
f 200/209/292 201/210/294 43/217/302 42/216/301
f 201/210/294 202/211/296 44/218/303 43/217/302
s 7
f 177/220/304 170/219/305 163/225/306 203/226/307
f 182/221/308 177/220/304 203/226/307 204/227/309
f 188/222/310 182/221/308 204/227/309 205/228/311
f 195/223/312 188/222/310 205/228/311 206/229/313
f 202/224/314 195/223/312 206/229/313 207/230/315
f 44/50/316 202/224/314 207/230/315 51/57/317
f 203/226/307 163/225/306 156/231/318 208/232/319
f 204/227/309 203/226/307 208/232/319 209/233/320
f 205/228/311 204/227/309 209/233/320 210/234/321
f 206/229/313 205/228/311 210/234/321 211/235/322
f 207/230/315 206/229/313 211/235/322 212/236/323
f 51/57/317 207/230/315 212/236/323 58/64/324
f 208/232/319 156/231/318 149/237/325 213/238/326
f 209/233/320 208/232/319 213/238/326 214/239/327
f 210/234/321 209/233/320 214/239/327 215/240/328
f 211/235/322 210/234/321 215/240/328 216/241/329
f 212/236/323 211/235/322 216/241/329 217/242/330
f 58/64/324 212/236/323 217/242/330 65/71/331
f 213/238/326 149/237/325 142/243/332 218/244/333
f 214/239/327 213/238/326 218/244/333 219/245/334
f 215/240/328 214/239/327 219/245/334 220/246/335
f 216/241/329 215/240/328 220/246/335 221/247/336
f 217/242/330 216/241/329 221/247/336 222/248/337
f 65/71/331 217/242/330 222/248/337 72/78/338
f 218/244/333 142/243/332 135/249/339 223/250/340
f 219/245/334 218/244/333 223/250/340 224/251/341
f 220/246/335 219/245/334 224/251/341 225/252/342
f 221/247/336 220/246/335 225/252/342 226/253/343
f 222/248/337 221/247/336 226/253/343 227/254/344
f 72/78/338 222/248/337 227/254/344 79/85/345
f 223/250/340 135/249/339 128/255/346 121/256/347
f 224/251/341 223/250/340 121/256/347 114/257/348
f 225/252/342 224/251/341 114/257/348 107/258/349
f 226/253/343 225/252/342 107/258/349 100/259/350
f 227/254/344 226/253/343 100/259/350 93/260/351
f 79/85/345 227/254/344 93/260/351 86/92/352
s 8
f 164/261/353 171/262/354 228/268/355 157/267/356
f 171/262/354 178/263/357 229/269/358 228/268/355
f 178/263/357 183/264/359 230/270/360 229/269/358
f 183/264/359 189/265/361 231/271/362 230/270/360
f 189/265/361 196/266/363 232/272/364 231/271/362
f 196/266/363 38/44/365 45/51/366 232/272/364
f 157/267/356 228/268/355 233/274/367 150/273/368
f 228/268/355 229/269/358 234/275/369 233/274/367
f 229/269/358 230/270/360 235/276/370 234/275/369
f 230/270/360 231/271/362 236/277/371 235/276/370
f 231/271/362 232/272/364 237/278/372 236/277/371
f 232/272/364 45/51/366 52/58/373 237/278/372
f 150/273/368 233/274/367 238/280/374 143/279/375
f 233/274/367 234/275/369 239/281/376 238/280/374
f 234/275/369 235/276/370 240/282/377 239/281/376
f 235/276/370 236/277/371 241/283/378 240/282/377
f 236/277/371 237/278/372 242/284/379 241/283/378
f 237/278/372 52/58/373 59/65/380 242/284/379
f 143/279/375 238/280/374 243/286/381 136/285/382
f 238/280/374 239/281/376 244/287/383 243/286/381
f 239/281/376 240/282/377 245/288/384 244/287/383
f 240/282/377 241/283/378 246/289/385 245/288/384
f 241/283/378 242/284/379 247/290/386 246/289/385
f 242/284/379 59/65/380 66/72/387 247/290/386
f 136/285/382 243/286/381 248/292/388 129/291/389
f 243/286/381 244/287/383 249/293/390 248/292/388
f 244/287/383 245/288/384 250/294/391 249/293/390
f 245/288/384 246/289/385 251/295/392 250/294/391
f 246/289/385 247/290/386 252/296/393 251/295/392
f 247/290/386 66/72/387 73/79/394 252/296/393
f 129/291/389 248/292/388 115/298/395 122/297/396
f 248/292/388 249/293/390 108/299/397 115/298/395
f 249/293/390 250/294/391 101/300/398 108/299/397
f 250/294/391 251/295/392 94/301/399 101/300/398
f 251/295/392 252/296/393 87/302/400 94/301/399
f 252/296/393 73/79/394 80/86/401 87/302/400
s 9
f 173/179/402 174/180/403 254/304/404 253/303/405
s off
f 181/187/406 180/186/407 256/306/408 255/305/409
f 180/186/410 173/179/411 253/303/412 256/306/413
s 9
f 174/180/403 175/181/414 257/307/415 254/304/404
f 175/181/414 176/182/416 259/308/417 257/307/415
f 176/182/416 177/183/418 261/309/419 259/308/417
s 7
f 177/183/304 182/190/308 262/310/420 261/309/421
s off
f 187/195/422 186/194/423 264/312/424 263/311/425
f 186/194/426 181/187/427 255/305/428 264/312/429
s 7
f 182/190/308 188/197/310 266/313/430 262/310/420
s 10
f 194/203/431 193/202/432 268/315/433 267/314/434
s off
f 193/202/435 187/195/436 263/311/437 268/315/438
s 7
f 188/197/310 195/204/312 269/316/439 266/313/430
s 10
f 195/204/440 194/203/431 267/314/434 269/316/441
s 11
f 184/192/442 185/193/443 271/318/444 270/317/445
s 12
f 185/193/446 191/200/447 272/319/448 271/318/449
s 13
f 190/199/450 184/192/451 270/317/452 273/320/453
s 12
f 191/200/447 198/207/454 274/321/455 272/319/448
s 14
f 198/207/456 197/206/457 275/322/458 274/321/459
s 13
f 197/206/460 190/199/450 273/320/453 275/322/461
s 11
f 270/317/445 271/318/444 277/324/462 276/323/463
s 12
f 271/318/449 272/319/448 278/325/464 277/324/465
s 15
f 285/335/466 284/336/467 286/337/468 287/326/469
s 12
f 272/319/448 274/321/455 279/327/470 278/325/464
s 14
f 274/321/459 275/322/458 280/328/471 279/327/472
s 15
f 288/338/473 285/335/466 287/326/469 289/339/474
s 16
f 302/351/475 303/352/476 304/353/477 305/329/478
s 12
f 277/324/465 278/325/464 282/331/479 281/330/480
s 15
f 287/326/469 286/337/468 290/340/481 291/341/482
s 12
f 278/325/464 279/327/470 283/333/483 282/331/479
s 17
f 312/354/484 311/355/485 313/334/486 314/356/487
s 15
f 289/339/474 287/326/469 291/341/482 292/342/488
s 18
f 273/320/489 270/317/490 284/336/491 285/335/492
s 11
f 270/317/445 276/323/463 286/337/493 284/336/494
s 18
f 275/322/495 273/320/489 285/335/492 288/338/496
s 14
f 280/328/471 275/322/458 288/338/497 289/339/498
s 16
f 302/351/475 305/329/478 306/357/499 307/358/500
s 6
f 293/343/275 296/332/278 299/348/501 300/349/502
f 296/332/278 298/347/289 301/350/503 299/348/501
s 17
f 313/334/486 311/355/485 315/359/504 316/360/505
s 16
f 305/329/478 304/353/477 308/361/506 309/362/507
s 12
f 281/330/480 282/331/479 295/345/508 294/344/509
f 282/331/479 283/333/483 297/346/510 295/345/508
s 17
f 314/356/487 313/334/486 317/363/511 318/364/512
s 15
f 291/341/482 290/340/481 300/349/513 299/348/514
s 16
f 306/357/499 305/329/478 309/362/507 310/365/515
s 17
f 313/334/486 316/360/505 319/366/516 317/363/511
s 15
f 292/342/488 291/341/482 299/348/514 301/350/517
s 19
f 276/323/518 277/324/519 303/352/520 302/351/521
s 12
f 277/324/465 281/330/480 304/353/522 303/352/523
s 15
f 290/327/481 286/328/468 307/355/524 306/354/525
s 19
f 286/333/526 276/327/518 302/354/521 307/356/527
s 12
f 281/340/480 294/337/509 308/358/528 304/357/522
s 6
f 294/337/276 293/323/275 309/351/529 308/358/530
f 293/328/275 300/339/502 310/359/531 309/355/529
s 15
f 300/339/513 290/342/481 306/360/525 310/359/532
s 20
f 279/330/533 280/344/534 311/361/535 312/353/536
s 12
f 283/344/483 279/343/470 312/362/537 314/361/538
s 20
f 280/347/534 289/346/539 315/364/540 311/363/535
s 15
f 289/346/474 292/333/488 316/356/541 315/364/542
s 6
f 298/343/289 297/349/288 318/365/543 317/362/544
s 12
f 297/349/510 283/340/483 314/357/538 318/365/545
s 15
f 292/342/488 301/350/517 319/366/546 316/360/541
s 6
f 301/350/503 298/347/289 317/363/544 319/366/547
