# This file uses centimeters as units for non-parametric coordinates.

mtllib FloatingIsland_1_WIP3.mtl
g default
v -100.020986 47.984506 -33.087530
v -117.341493 47.984506 -63.087538
v -82.700481 47.984506 -63.087546
v -100.021006 24.839791 -53.087536
v -106.467320 34.044286 -56.820208
v -93.870270 34.044286 -56.820211
v -100.168797 34.044286 -45.910847
v -113.543389 43.757606 -60.910054
v -86.916002 43.757606 -60.910053
v -100.229691 43.757606 -37.850062
v -100.168790 32.582391 -47.365437
v -105.207613 32.582391 -56.092915
v -95.129983 32.582391 -56.092915
v -88.279842 41.935154 -60.122640
v -100.229702 41.935154 -39.424904
v -112.179552 41.935154 -60.122650
v -90.182952 37.985993 -58.767540
v -100.020989 37.985993 -41.727548
v -109.859040 37.985993 -58.767543
v -100.020985 31.783770 -47.327546
v -105.009289 31.783770 -55.967552
v -95.032690 31.783770 -55.967542
v -92.801797 34.486509 -57.255538
v -100.020988 34.486509 -44.751533
v -107.240170 34.486509 -57.255542
v -87.564090 41.485468 -60.279540
v -112.477892 41.485468 -60.279532
v -100.020989 41.485468 -38.703542
v -85.506399 44.235064 -61.467549
v -100.020986 44.235064 -36.327533
v -114.535578 44.235064 -61.467526
v -100.020983 34.745828 -44.449133
v -107.502075 34.745828 -57.406745
v -92.539919 34.745828 -57.406744
v -100.020992 47.609559 -33.411541
v -82.981075 47.609559 -62.925545
v -117.060902 47.609559 -62.925541
v -82.700481 49.862071 -63.087546
v -100.020986 49.862071 -33.087530
v -117.341493 49.862071 -63.087538
v -82.700481 50.206886 -63.087546
v -100.020986 50.206886 -33.087530
v -117.341493 50.206886 -63.087538
v -100.017002 76.549855 -52.064706
vt 0.375000 0.033494
vt 0.375000 0.466506
vt 0.750000 0.250000
vt 0.250000 0.500000
vt 0.416667 0.500000
vt 0.583333 0.500000
vt 0.750000 0.500000
vt 0.500000 1.000000
vt 0.466667 0.800000
vt 0.533333 0.800000
vt 0.600000 0.800000
vt 0.400000 0.800000
vt 0.431667 0.590000
vt 0.568333 0.590000
vt 0.705000 0.590000
vt 0.295000 0.590000
vt 0.580000 0.840000
vt 0.420000 0.840000
vt 0.473333 0.840000
vt 0.526667 0.840000
vt 0.561333 0.632000
vt 0.684000 0.632000
vt 0.316000 0.632000
vt 0.438667 0.632000
vt 0.547333 0.716000
vt 0.642000 0.716000
vt 0.358000 0.716000
vt 0.452667 0.716000
vt 0.572000 0.856000
vt 0.428000 0.856000
vt 0.476000 0.856000
vt 0.524000 0.856000
vt 0.534733 0.791600
vt 0.604200 0.791600
vt 0.395800 0.791600
vt 0.465267 0.791600
vt 0.559933 0.640400
vt 0.440067 0.640400
vt 0.679800 0.640400
vt 0.320200 0.640400
vt 0.569833 0.581000
vt 0.709500 0.581000
vt 0.290500 0.581000
vt 0.430167 0.581000
vt 0.607980 0.784040
vt 0.392020 0.784040
vt 0.464007 0.784040
vt 0.535993 0.784040
vt 0.745950 0.508100
vt 0.254050 0.508100
vt 0.581983 0.508100
vt 0.418017 0.508100
vt 0.375000 0.033494
vt 0.750000 0.250000
vt 0.375000 0.466506
vt 0.375000 0.033494
vt 0.750000 0.250000
vt 0.375000 0.466506
vt 0.586572 0.265093
vn -0.818799 -0.325717 0.472733
vn -0.822064 -0.314561 0.474618
vn -0.799953 -0.383102 0.461853
vn 0.000001 -0.320077 -0.947391
vn 0.000001 -0.329730 -0.944075
vn 0.000001 -0.383106 -0.923705
vn 0.840562 -0.240712 0.485298
vn 0.840227 -0.242263 0.485105
vn 0.799952 -0.383106 0.461852
vn 0.000000 -0.579037 -0.815301
vn 0.000000 -0.567617 -0.823292
vn -0.000000 -0.597350 -0.801980
vn -0.000000 -0.593613 -0.804750
vn 0.635504 -0.679348 0.366908
vn 0.636497 -0.678106 0.367482
vn 0.601703 -0.719216 0.347393
vn 0.602054 -0.718824 0.347596
vn -0.709506 -0.573412 0.409634
vn -0.701478 -0.586434 0.404998
vn -0.691147 -0.602567 0.399034
vn -0.688376 -0.606782 0.397434
vn -0.000000 -0.416421 -0.909172
vn -0.000000 -0.411730 -0.911306
vn -0.000000 -0.603727 -0.797191
vn -0.000000 -0.598121 -0.801406
vn 0.776510 -0.442767 0.448318
vn 0.776786 -0.442121 0.448478
vn 0.588853 -0.733260 0.339974
vn 0.589353 -0.732724 0.340263
vn -0.788757 -0.412897 0.455389
vn -0.786635 -0.418259 0.454164
vn -0.687643 -0.607890 0.397011
vn -0.683449 -0.614163 0.394590
vn -0.799245 -0.385068 0.461444
vn -0.804035 -0.371533 0.464210
vn -0.000000 -0.376297 -0.926499
vn -0.000000 -0.388221 -0.921566
vn 0.822763 -0.312115 0.475022
vn 0.822289 -0.313776 0.474748
vn 0.860540 -0.112370 0.496833
vn 0.860258 -0.115214 0.496671
vn -0.834798 -0.266112 0.481971
vn -0.840198 -0.242397 0.485089
vn 0.000000 -0.252633 -0.967562
vn 0.000000 -0.273290 -0.961932
vn 0.842746 -0.230302 0.486559
vn 0.843602 -0.226087 0.487053
vn -0.824105 -0.307357 0.475797
vn -0.813063 -0.344342 0.469422
vn -0.000000 -0.347601 -0.937643
vn -0.000000 -0.315161 -0.949038
vn 0.797249 -0.390544 0.460292
vn 0.797249 -0.390544 0.460292
vn -0.797248 -0.390546 0.460292
vn -0.797248 -0.390546 0.460292
vn 0.000000 -0.390546 -0.920583
vn 0.000000 -0.390546 -0.920583
vn -0.000000 -0.394332 -0.918968
vn -0.000000 -0.394332 -0.918968
vn -0.795849 -0.394333 0.459484
vn -0.795849 -0.394333 0.459484
vn 0.795850 -0.394333 0.459484
vn 0.795850 -0.394333 0.459484
vn 0.865069 -0.046990 0.499447
vn 0.865069 -0.046990 0.499448
vn 0.794994 -0.396627 0.458990
vn 0.794994 -0.396627 0.458990
vn -0.865069 -0.046988 0.499448
vn -0.865069 -0.046989 0.499448
vn -0.794994 -0.396625 0.458990
vn -0.794994 -0.396625 0.458990
vn -0.000000 -0.046988 -0.998895
vn -0.000000 -0.046988 -0.998895
vn -0.000000 -0.396627 -0.917980
vn -0.000000 -0.396627 -0.917980
vn 0.866026 0.000000 0.500000
vn 0.866026 0.000000 0.500000
vn -0.000000 -0.000000 -1.000000
vn -0.000000 -0.000000 -1.000000
vn -0.866025 -0.000000 0.500000
vn -0.866025 -0.000000 0.500000
vn 0.818481 0.326781 0.472550
vn 0.818328 0.327291 0.472462
vn -0.000000 0.373232 -0.927738
vn -0.000000 0.373235 -0.927737
vn -0.818264 0.327505 0.472425
vn -0.818417 0.326993 0.472513
vn 0.814816 0.338772 0.470434
vn -0.000000 0.386005 -0.922496
vn -0.814748 0.338990 0.470395
s 1
g pCone2
usemtl initialShadingGroup
f 20/30/1 21/31/2 4/8/3
s 2
f 21/31/4 22/32/5 4/8/6
s 3
f 22/32/7 20/29/8 4/8/9
s 2
f 25/36/10 23/33/11 6/10/12 5/9/13
s 3
f 23/33/14 24/34/15 7/11/16 6/10/17
s 1
f 24/35/18 25/36/19 5/9/20 7/12/21
s 2
f 31/44/22 29/41/23 9/14/24 8/13/25
s 3
f 29/41/26 30/42/27 10/15/28 9/14/29
s 1
f 30/43/30 31/44/31 8/13/32 10/16/33
f 7/12/21 5/9/20 12/19/34 11/18/35
s 2
f 5/9/13 6/10/12 13/20/36 12/19/37
s 3
f 6/10/17 7/11/16 11/17/38 13/20/39
f 9/14/29 10/15/28 15/22/40 14/21/41
s 1
f 10/16/33 8/13/32 16/24/42 15/23/43
s 2
f 8/13/25 9/14/24 14/21/44 16/24/45
s 3
f 14/21/41 15/22/40 28/39/46 26/37/47
s 1
f 15/23/43 16/24/42 27/38/48 28/40/49
s 2
f 16/24/45 14/21/44 26/37/50 27/38/51
s 1
f 11/18/35 12/19/34 21/31/2 20/30/1
s 2
f 12/19/37 13/20/36 22/32/5 21/31/4
s 3
f 13/20/39 11/17/38 20/29/8 22/32/7
f 34/48/52 32/45/53 24/34/15 23/33/14
s 1
f 32/46/54 33/47/55 25/36/19 24/35/18
s 2
f 33/47/56 34/48/57 23/33/11 25/36/10
f 27/38/51 26/37/50 17/25/58 19/28/59
s 1
f 28/40/49 27/38/48 19/28/60 18/27/61
s 3
f 26/37/47 28/39/46 18/26/62 17/25/63
f 3/6/64 1/7/65 35/49/66 36/51/67
s 1
f 1/4/68 2/5/69 37/52/70 35/50/71
s 2
f 2/5/72 3/6/73 36/51/74 37/52/75
s 1
f 18/27/61 19/28/60 33/47/55 32/46/54
s 2
f 19/28/59 17/25/58 34/48/57 33/47/56
s 3
f 17/25/63 18/26/62 32/45/53 34/48/52
f 36/51/67 35/49/66 30/42/27 29/41/26
s 2
f 37/52/75 36/51/74 29/41/23 31/44/22
s 1
f 35/50/71 37/52/70 31/44/31 30/43/30
s 3
f 1/1/65 3/3/64 38/54/76 39/53/77
s 2
f 3/3/73 2/2/72 40/55/78 38/54/79
s 1
f 2/2/69 1/1/68 39/53/80 40/55/81
s 3
f 39/53/77 38/54/76 41/57/82 42/56/83
s 2
f 38/54/79 40/55/78 43/58/84 41/57/85
s 1
f 40/55/81 39/53/80 42/56/86 43/58/87
s 3
f 42/56/83 41/57/82 44/59/88
s 2
f 41/57/85 43/58/84 44/59/89
s 1
f 43/58/87 42/56/86 44/59/90
