# This file uses centimeters as units for non-parametric coordinates.

mtllib FloatingIsland_1_WIP4.mtl
g default
v -124.499557 47.984505 -103.475555
v -141.293869 47.984505 -133.773254
v -106.658119 47.984505 -133.168686
v -124.150513 23.152988 -123.472496
v -130.530731 32.357330 -127.317108
v -117.935593 32.357330 -127.097267
v -124.423416 32.357330 -116.299568
v -137.534332 43.757607 -131.529831
v -110.911011 43.757607 -131.065125
v -124.625122 43.757607 -108.240997
v -124.398155 30.895590 -117.753830
v -129.283920 30.895590 -126.567940
v -119.207802 30.895590 -126.392075
v -112.288239 41.935154 -130.301712
v -124.597641 41.935154 -109.815590
v -136.184433 41.935154 -130.718719
v -114.214844 37.985840 -128.979950
v -124.348770 37.985840 -112.114243
v -133.887924 37.985840 -129.323334
v -124.251030 30.096970 -117.713379
v -129.087799 30.096970 -126.439117
v -119.112701 30.096970 -126.264999
v -116.859680 34.486511 -127.513870
v -124.295998 34.486511 -115.137772
v -131.295868 34.486511 -127.765854
v -111.569977 41.485466 -130.445999
v -136.480011 41.485466 -130.880798
v -124.401543 41.485466 -109.090698
v -109.491890 44.235065 -131.597900
v -124.443016 44.235065 -106.715057
v -138.516647 44.235065 -132.104523
v -124.301270 34.745827 -114.835403
v -131.555069 34.745827 -127.921600
v -116.595200 34.745827 -127.660492
v -124.493904 47.609406 -103.799500
v -106.941498 47.609406 -133.011627
v -141.016129 47.609406 -133.606400
v -106.658119 49.414661 -133.168686
v -124.499557 49.414661 -103.475555
v -141.293869 49.414661 -133.773254
v -131.295868 32.799709 -127.765854
v -116.859680 32.799709 -127.513870
v -124.295998 32.799709 -115.137772
v -131.295868 33.131870 -127.765854
v -116.859680 33.131870 -127.513870
v -124.295998 33.131870 -115.137772
vt 0.375000 0.033494
vt 0.375000 0.466506
vt 0.750000 0.250000
vt 0.250000 0.500000
vt 0.416667 0.500000
vt 0.583333 0.500000
vt 0.750000 0.500000
vt 0.500000 1.000000
vt 0.466667 0.800000
vt 0.533333 0.800000
vt 0.600000 0.800000
vt 0.400000 0.800000
vt 0.431667 0.590000
vt 0.568333 0.590000
vt 0.705000 0.590000
vt 0.295000 0.590000
vt 0.580000 0.840000
vt 0.420000 0.840000
vt 0.473333 0.840000
vt 0.526667 0.840000
vt 0.561333 0.632000
vt 0.684000 0.632000
vt 0.316000 0.632000
vt 0.438667 0.632000
vt 0.547333 0.716000
vt 0.642000 0.716000
vt 0.358000 0.716000
vt 0.452667 0.716000
vt 0.572000 0.856000
vt 0.428000 0.856000
vt 0.476000 0.856000
vt 0.524000 0.856000
vt 0.534733 0.791600
vt 0.604200 0.791600
vt 0.395800 0.791600
vt 0.465267 0.791600
vt 0.559933 0.640400
vt 0.440067 0.640400
vt 0.679800 0.640400
vt 0.320200 0.640400
vt 0.569833 0.581000
vt 0.709500 0.581000
vt 0.290500 0.581000
vt 0.430167 0.581000
vt 0.607980 0.784040
vt 0.392020 0.784040
vt 0.464007 0.784040
vt 0.535993 0.784040
vt 0.745950 0.508100
vt 0.254050 0.508100
vt 0.581983 0.508100
vt 0.418017 0.508100
vt 0.375000 0.033494
vt 0.750000 0.250000
vt 0.375000 0.466506
vt 0.465267 0.791600
vt 0.534733 0.791600
vt 0.604200 0.791600
vt 0.395800 0.791600
vt 0.000000 0.000000
vt 1.000000 0.000000
vt 1.000000 1.000000
vt 0.000000 1.000000
vt 0.000000 0.000000
vt 1.000000 0.000000
vt 1.000000 1.000000
vt 0.000000 1.000000
vt 0.000000 0.000000
vt 1.000000 0.000000
vt 1.000000 1.000000
vt 0.000000 1.000000
vn 0.000000 1.000000 -0.000000
vn 0.000000 1.000000 -0.000000
vn 0.000000 1.000000 -0.000000
vn -0.826922 -0.325722 0.458372
vn -0.830219 -0.314567 0.460200
vn -0.807890 -0.383103 0.447823
vn 0.016536 -0.320082 -0.947246
vn 0.016478 -0.329735 -0.943930
vn 0.016123 -0.383105 -0.923564
vn 0.831964 -0.240708 0.499895
vn 0.831634 -0.242259 0.499696
vn 0.791769 -0.383106 0.475744
vn 0.012439 -0.701397 -0.712662
vn 0.012439 -0.701397 -0.712662
vn 0.013996 -0.597296 -0.801899
vn 0.014045 -0.593561 -0.804667
vn 0.454377 -0.847941 0.273016
vn 0.454377 -0.847941 0.273016
vn 0.595591 -0.719169 0.357864
vn 0.595937 -0.718779 0.358073
vn -0.611952 -0.714456 0.339216
vn -0.611952 -0.714456 0.339216
vn -0.698016 -0.602548 0.386923
vn -0.695219 -0.606760 0.385373
vn 0.015867 -0.416438 -0.909025
vn 0.015904 -0.411748 -0.911159
vn 0.013912 -0.603709 -0.797084
vn 0.013985 -0.598107 -0.801294
vn 0.768560 -0.442785 0.461797
vn 0.768834 -0.442138 0.461962
vn 0.582832 -0.733258 0.350201
vn 0.583332 -0.732716 0.350501
vn -0.796578 -0.412911 0.441551
vn -0.794435 -0.418274 0.440363
vn -0.694465 -0.607893 0.384947
vn -0.690231 -0.614165 0.382600
vn -0.807176 -0.385062 0.447432
vn -0.812014 -0.371526 0.450113
vn 0.016168 -0.376326 -0.926346
vn 0.016082 -0.388252 -0.921413
vn 0.814340 -0.312148 0.489300
vn 0.813869 -0.313813 0.489018
vn 0.851739 -0.112362 0.511777
vn 0.851459 -0.115212 0.511609
vn -0.843084 -0.266108 0.467329
vn -0.848537 -0.242394 0.470351
vn 0.016884 -0.252641 -0.967413
vn 0.016786 -0.273294 -0.961784
vn 0.834126 -0.230302 0.501194
vn 0.834976 -0.226070 0.501705
vn -0.832284 -0.307352 0.461343
vn -0.821135 -0.344333 0.455163
vn 0.016363 -0.347590 -0.937504
vn 0.016562 -0.315162 -0.948893
vn 0.789090 -0.390558 0.474132
vn 0.789090 -0.390558 0.474132
vn 0.740485 -0.503704 0.444932
vn 0.740485 -0.503704 0.444932
vn -0.805155 -0.390561 0.446304
vn -0.805155 -0.390561 0.446304
vn -0.755552 -0.503726 0.418809
vn -0.755552 -0.503726 0.418809
vn 0.016066 -0.390563 -0.920436
vn 0.016066 -0.390563 -0.920436
vn 0.015076 -0.503722 -0.863734
vn 0.015076 -0.503722 -0.863734
vn 0.016038 -0.394324 -0.918832
vn 0.016038 -0.394324 -0.918832
vn -0.803750 -0.394327 0.445526
vn -0.803750 -0.394327 0.445526
vn 0.787712 -0.394325 0.473305
vn 0.787712 -0.394326 0.473305
vn 0.855642 -0.059622 0.514123
vn 0.855642 -0.059621 0.514123
vn 0.786869 -0.396608 0.472800
vn 0.786869 -0.396608 0.472800
vn -0.873064 -0.059623 0.483948
vn -0.873064 -0.059623 0.483947
vn -0.802890 -0.396609 0.445049
vn -0.802890 -0.396609 0.445049
vn 0.017421 -0.059612 -0.998070
vn 0.017421 -0.059614 -0.998070
vn 0.016021 -0.396606 -0.917849
vn 0.016021 -0.396606 -0.917849
vn 0.857167 0.000000 0.515038
vn 0.857167 0.000000 0.515038
vn 0.017452 0.000000 -0.999848
vn 0.017452 0.000000 -0.999848
vn -0.874619 0.000000 0.484810
vn -0.874619 0.000000 0.484810
vn 0.017452 0.000000 -0.999848
vn 0.017452 0.000000 -0.999848
vn 0.017452 0.000000 -0.999848
vn 0.017452 0.000000 -0.999848
vn 0.857168 0.000000 0.515037
vn 0.857168 0.000000 0.515037
vn 0.857168 0.000000 0.515037
vn 0.857168 0.000000 0.515037
vn -0.874619 0.000000 0.484811
vn -0.874619 0.000000 0.484811
vn -0.874619 0.000000 0.484811
vn -0.874619 0.000000 0.484811
s off
g Island2
usemtl initialShadingGroup
f 39/53/1 38/54/2 40/55/3
s 1
f 20/30/4 21/31/5 4/8/6
s 2
f 21/31/7 22/32/8 4/8/9
s 3
f 22/32/10 20/29/11 4/8/12
s 2
f 41/56/13 42/57/14 6/10/15 5/9/16
s 3
f 42/57/17 43/58/18 7/11/19 6/10/20
s 1
f 43/35/21 41/56/22 5/9/23 7/12/24
s 7
f 31/44/25 29/41/26 9/14/27 8/13/28
s 8
f 29/41/29 30/42/30 10/15/31 9/14/32
s 9
f 30/43/33 31/44/34 8/13/35 10/16/36
s 1
f 7/12/24 5/9/23 12/19/37 11/18/38
s 2
f 5/9/16 6/10/15 13/20/39 12/19/40
s 3
f 6/10/20 7/11/19 11/17/41 13/20/42
s 8
f 9/14/32 10/15/31 15/22/43 14/21/44
s 9
f 10/16/36 8/13/35 16/24/45 15/23/46
s 7
f 8/13/28 9/14/27 14/21/47 16/24/48
s 8
f 14/21/44 15/22/43 28/39/49 26/37/50
s 9
f 15/23/46 16/24/45 27/38/51 28/40/52
s 7
f 16/24/48 14/21/47 26/37/53 27/38/54
s 1
f 11/18/38 12/19/37 21/31/5 20/30/4
s 2
f 12/19/40 13/20/39 22/32/8 21/31/7
s 3
f 13/20/42 11/17/41 20/29/11 22/32/10
s 8
f 34/48/55 32/45/56 24/34/57 23/33/58
s 9
f 32/46/59 33/47/60 25/36/61 24/59/62
s 7
f 33/47/63 34/48/64 23/33/65 25/36/66
f 27/38/54 26/37/53 17/25/67 19/28/68
s 9
f 28/40/52 27/38/51 19/28/69 18/27/70
s 8
f 26/37/50 28/39/49 18/26/71 17/25/72
f 3/6/73 1/7/74 35/49/75 36/51/76
s 9
f 1/4/77 2/5/78 37/52/79 35/50/80
s 7
f 2/5/81 3/6/82 36/51/83 37/52/84
s 9
f 18/27/70 19/28/69 33/47/60 32/46/59
s 7
f 19/28/68 17/25/67 34/48/64 33/47/63
s 8
f 17/25/72 18/26/71 32/45/56 34/48/55
f 36/51/76 35/49/75 30/42/30 29/41/29
s 7
f 37/52/84 36/51/83 29/41/26 31/44/25
s 9
f 35/50/80 37/52/79 31/44/34 30/43/33
s 8
f 1/1/74 3/3/73 38/54/85 39/53/86
s 7
f 3/3/82 2/2/81 40/55/87 38/54/88
s 9
f 2/2/78 1/1/77 39/53/89 40/55/90
s off
f 42/60/91 41/61/92 44/62/93 45/63/94
f 43/64/95 42/65/96 45/66/97 46/67/98
f 41/68/99 43/69/100 46/70/101 44/71/102
