# This file uses centimeters as units for non-parametric coordinates.

mtllib FloatingIsland_1_WIP2.mtl
g default
v -52.274679 47.617244 -82.975971
v -51.274679 47.617244 -82.975971
v -52.274679 48.617244 -82.975971
v -51.274679 48.617244 -82.975971
v -52.274679 48.617244 -83.975971
v -51.274679 48.617244 -83.975971
v -52.274679 47.617244 -83.975971
v -51.274679 47.617244 -83.975971
vt 0.375000 0.000000
vt 0.625000 0.000000
vt 0.375000 0.250000
vt 0.625000 0.250000
vt 0.375000 0.500000
vt 0.625000 0.500000
vt 0.375000 0.750000
vt 0.625000 0.750000
vt 0.375000 1.000000
vt 0.625000 1.000000
vt 0.875000 0.000000
vt 0.875000 0.250000
vt 0.125000 0.000000
vt 0.125000 0.250000
vn 0.000000 0.000000 1.000000
vn 0.000000 0.000000 1.000000
vn 0.000000 0.000000 1.000000
vn 0.000000 0.000000 1.000000
vn 0.000000 1.000000 0.000000
vn 0.000000 1.000000 0.000000
vn 0.000000 1.000000 0.000000
vn 0.000000 1.000000 0.000000
vn 0.000000 0.000000 -1.000000
vn 0.000000 0.000000 -1.000000
vn 0.000000 0.000000 -1.000000
vn 0.000000 0.000000 -1.000000
vn 0.000000 -1.000000 0.000000
vn 0.000000 -1.000000 0.000000
vn 0.000000 -1.000000 0.000000
vn 0.000000 -1.000000 0.000000
vn 1.000000 0.000000 0.000000
vn 1.000000 0.000000 0.000000
vn 1.000000 0.000000 0.000000
vn 1.000000 0.000000 0.000000
vn -1.000000 0.000000 0.000000
vn -1.000000 0.000000 0.000000
vn -1.000000 0.000000 0.000000
vn -1.000000 0.000000 0.000000
s off
g City_Miniture
usemtl initialShadingGroup
f 1/1/1 2/2/2 4/4/3 3/3/4
f 3/3/5 4/4/6 6/6/7 5/5/8
f 5/5/9 6/6/10 8/8/11 7/7/12
f 7/7/13 8/8/14 2/10/15 1/9/16
f 2/2/17 8/11/18 6/12/19 4/4/20
f 7/13/21 1/1/22 3/3/23 5/14/24
g default
v -54.627679 47.432515 -68.174499
v -53.627679 47.432515 -68.174499
v -54.627679 49.313540 -68.174499
v -53.627679 49.313540 -68.174499
v -54.627679 49.313540 -69.174499
v -53.627679 49.313540 -69.174499
v -54.627679 47.432515 -69.174499
v -53.627679 47.432515 -69.174499
vt 0.375000 0.000000
vt 0.625000 0.000000
vt 0.375000 0.250000
vt 0.625000 0.250000
vt 0.375000 0.500000
vt 0.625000 0.500000
vt 0.375000 0.750000
vt 0.625000 0.750000
vt 0.375000 1.000000
vt 0.625000 1.000000
vt 0.875000 0.000000
vt 0.875000 0.250000
vt 0.125000 0.000000
vt 0.125000 0.250000
vn 0.000000 0.000000 1.000000
vn 0.000000 0.000000 1.000000
vn 0.000000 0.000000 1.000000
vn 0.000000 0.000000 1.000000
vn 0.000000 1.000000 0.000000
vn 0.000000 1.000000 0.000000
vn 0.000000 1.000000 0.000000
vn 0.000000 1.000000 0.000000
vn 0.000000 0.000000 -1.000000
vn 0.000000 0.000000 -1.000000
vn 0.000000 0.000000 -1.000000
vn 0.000000 0.000000 -1.000000
vn 0.000000 -1.000000 0.000000
vn 0.000000 -1.000000 0.000000
vn 0.000000 -1.000000 0.000000
vn 0.000000 -1.000000 0.000000
vn 1.000000 0.000000 0.000000
vn 1.000000 0.000000 0.000000
vn 1.000000 0.000000 0.000000
vn 1.000000 0.000000 0.000000
vn -1.000000 0.000000 0.000000
vn -1.000000 0.000000 0.000000
vn -1.000000 0.000000 0.000000
vn -1.000000 0.000000 0.000000
s off
g City_Miniture pCube33
usemtl initialShadingGroup
f 9/15/25 10/16/26 12/18/27 11/17/28
f 11/17/29 12/18/30 14/20/31 13/19/32
f 13/19/33 14/20/34 16/22/35 15/21/36
f 15/21/37 16/22/38 10/24/39 9/23/40
f 10/16/41 16/25/42 14/26/43 12/18/44
f 15/27/45 9/15/46 11/17/47 13/28/48
g default
v -62.186339 47.432515 -66.653322
v -61.186339 47.432515 -66.653322
v -62.186339 49.313540 -66.653322
v -61.186339 49.313540 -66.653322
v -62.186339 49.313540 -67.653322
v -61.186339 49.313540 -67.653322
v -62.186339 47.432515 -67.653322
v -61.186339 47.432515 -67.653322
vt 0.375000 0.000000
vt 0.625000 0.000000
vt 0.375000 0.250000
vt 0.625000 0.250000
vt 0.375000 0.500000
vt 0.625000 0.500000
vt 0.375000 0.750000
vt 0.625000 0.750000
vt 0.375000 1.000000
vt 0.625000 1.000000
vt 0.875000 0.000000
vt 0.875000 0.250000
vt 0.125000 0.000000
vt 0.125000 0.250000
vn 0.000000 0.000000 1.000000
vn 0.000000 0.000000 1.000000
vn 0.000000 0.000000 1.000000
vn 0.000000 0.000000 1.000000
vn 0.000000 1.000000 0.000000
vn 0.000000 1.000000 0.000000
vn 0.000000 1.000000 0.000000
vn 0.000000 1.000000 0.000000
vn 0.000000 0.000000 -1.000000
vn 0.000000 0.000000 -1.000000
vn 0.000000 0.000000 -1.000000
vn 0.000000 0.000000 -1.000000
vn 0.000000 -1.000000 0.000000
vn 0.000000 -1.000000 0.000000
vn 0.000000 -1.000000 0.000000
vn 0.000000 -1.000000 0.000000
vn 1.000000 0.000000 0.000000
vn 1.000000 0.000000 0.000000
vn 1.000000 0.000000 0.000000
vn 1.000000 0.000000 0.000000
vn -1.000000 0.000000 0.000000
vn -1.000000 0.000000 0.000000
vn -1.000000 0.000000 0.000000
vn -1.000000 0.000000 0.000000
s off
g City_Miniture pCube32
usemtl initialShadingGroup
f 17/29/49 18/30/50 20/32/51 19/31/52
f 19/31/53 20/32/54 22/34/55 21/33/56
f 21/33/57 22/34/58 24/36/59 23/35/60
f 23/35/61 24/36/62 18/38/63 17/37/64
f 18/30/65 24/39/66 22/40/67 20/32/68
f 23/41/69 17/29/70 19/31/71 21/42/72
g default
v -53.690083 47.501993 -66.528062
v -52.690083 47.501993 -66.528062
v -53.690083 50.707414 -66.528062
v -52.690083 50.707414 -66.528062
v -53.690083 50.707414 -67.528062
v -52.690083 50.707414 -67.528062
v -53.690083 47.501993 -67.528062
v -52.690083 47.501993 -67.528062
vt 0.375000 0.000000
vt 0.625000 0.000000
vt 0.375000 0.250000
vt 0.625000 0.250000
vt 0.375000 0.500000
vt 0.625000 0.500000
vt 0.375000 0.750000
vt 0.625000 0.750000
vt 0.375000 1.000000
vt 0.625000 1.000000
vt 0.875000 0.000000
vt 0.875000 0.250000
vt 0.125000 0.000000
vt 0.125000 0.250000
vn 0.000000 0.000000 1.000000
vn 0.000000 0.000000 1.000000
vn 0.000000 0.000000 1.000000
vn 0.000000 0.000000 1.000000
vn 0.000000 1.000000 0.000000
vn 0.000000 1.000000 0.000000
vn 0.000000 1.000000 0.000000
vn 0.000000 1.000000 0.000000
vn 0.000000 0.000000 -1.000000
vn 0.000000 0.000000 -1.000000
vn 0.000000 0.000000 -1.000000
vn 0.000000 0.000000 -1.000000
vn 0.000000 -1.000000 0.000000
vn 0.000000 -1.000000 0.000000
vn 0.000000 -1.000000 0.000000
vn 0.000000 -1.000000 0.000000
vn 1.000000 0.000000 0.000000
vn 1.000000 0.000000 0.000000
vn 1.000000 0.000000 0.000000
vn 1.000000 0.000000 0.000000
vn -1.000000 0.000000 0.000000
vn -1.000000 0.000000 0.000000
vn -1.000000 0.000000 0.000000
vn -1.000000 0.000000 0.000000
s off
g City_Miniture pCube31
usemtl initialShadingGroup
f 25/43/73 26/44/74 28/46/75 27/45/76
f 27/45/77 28/46/78 30/48/79 29/47/80
f 29/47/81 30/48/82 32/50/83 31/49/84
f 31/49/85 32/50/86 26/52/87 25/51/88
f 26/44/89 32/53/90 30/54/91 28/46/92
f 31/55/93 25/43/94 27/45/95 29/56/96
g default
v -49.901914 47.617244 -76.494927
v -48.901914 47.617244 -76.494927
v -49.901914 48.617244 -76.494927
v -48.901914 48.617244 -76.494927
v -49.901914 48.617244 -77.494927
v -48.901914 48.617244 -77.494927
v -49.901914 47.617244 -77.494927
v -48.901914 47.617244 -77.494927
vt 0.375000 0.000000
vt 0.625000 0.000000
vt 0.375000 0.250000
vt 0.625000 0.250000
vt 0.375000 0.500000
vt 0.625000 0.500000
vt 0.375000 0.750000
vt 0.625000 0.750000
vt 0.375000 1.000000
vt 0.625000 1.000000
vt 0.875000 0.000000
vt 0.875000 0.250000
vt 0.125000 0.000000
vt 0.125000 0.250000
vn 0.000000 0.000000 1.000000
vn 0.000000 0.000000 1.000000
vn 0.000000 0.000000 1.000000
vn 0.000000 0.000000 1.000000
vn 0.000000 1.000000 0.000000
vn 0.000000 1.000000 0.000000
vn 0.000000 1.000000 0.000000
vn 0.000000 1.000000 0.000000
vn 0.000000 0.000000 -1.000000
vn 0.000000 0.000000 -1.000000
vn 0.000000 0.000000 -1.000000
vn 0.000000 0.000000 -1.000000
vn 0.000000 -1.000000 0.000000
vn 0.000000 -1.000000 0.000000
vn 0.000000 -1.000000 0.000000
vn 0.000000 -1.000000 0.000000
vn 1.000000 0.000000 0.000000
vn 1.000000 0.000000 0.000000
vn 1.000000 0.000000 0.000000
vn 1.000000 0.000000 0.000000
vn -1.000000 0.000000 0.000000
vn -1.000000 0.000000 0.000000
vn -1.000000 0.000000 0.000000
vn -1.000000 0.000000 0.000000
s off
g City_Miniture pCube30
usemtl initialShadingGroup
f 33/57/97 34/58/98 36/60/99 35/59/100
f 35/59/101 36/60/102 38/62/103 37/61/104
f 37/61/105 38/62/106 40/64/107 39/63/108
f 39/63/109 40/64/110 34/66/111 33/65/112
f 34/58/113 40/67/114 38/68/115 36/60/116
f 39/69/117 33/57/118 35/59/119 37/70/120
g default
v -48.648920 47.432515 -76.546157
v -47.648920 47.432515 -76.546157
v -48.648920 49.313540 -76.546157
v -47.648920 49.313540 -76.546157
v -48.648920 49.313540 -77.546157
v -47.648920 49.313540 -77.546157
v -48.648920 47.432515 -77.546157
v -47.648920 47.432515 -77.546157
vt 0.375000 0.000000
vt 0.625000 0.000000
vt 0.375000 0.250000
vt 0.625000 0.250000
vt 0.375000 0.500000
vt 0.625000 0.500000
vt 0.375000 0.750000
vt 0.625000 0.750000
vt 0.375000 1.000000
vt 0.625000 1.000000
vt 0.875000 0.000000
vt 0.875000 0.250000
vt 0.125000 0.000000
vt 0.125000 0.250000
vn 0.000000 0.000000 1.000000
vn 0.000000 0.000000 1.000000
vn 0.000000 0.000000 1.000000
vn 0.000000 0.000000 1.000000
vn 0.000000 1.000000 0.000000
vn 0.000000 1.000000 0.000000
vn 0.000000 1.000000 0.000000
vn 0.000000 1.000000 0.000000
vn 0.000000 0.000000 -1.000000
vn 0.000000 0.000000 -1.000000
vn 0.000000 0.000000 -1.000000
vn 0.000000 0.000000 -1.000000
vn 0.000000 -1.000000 0.000000
vn 0.000000 -1.000000 0.000000
vn 0.000000 -1.000000 0.000000
vn 0.000000 -1.000000 0.000000
vn 1.000000 0.000000 0.000000
vn 1.000000 0.000000 0.000000
vn 1.000000 0.000000 0.000000
vn 1.000000 0.000000 0.000000
vn -1.000000 0.000000 0.000000
vn -1.000000 0.000000 0.000000
vn -1.000000 0.000000 0.000000
vn -1.000000 0.000000 0.000000
s off
g City_Miniture pCube29
usemtl initialShadingGroup
f 41/71/121 42/72/122 44/74/123 43/73/124
f 43/73/125 44/74/126 46/76/127 45/75/128
f 45/75/129 46/76/130 48/78/131 47/77/132
f 47/77/133 48/78/134 42/80/135 41/79/136
f 42/72/137 48/81/138 46/82/139 44/74/140
f 47/83/141 41/71/142 43/73/143 45/84/144
g default
v -63.957731 47.501993 -69.016676
v -62.997201 47.501993 -69.294850
v -63.957731 50.707414 -69.016676
v -62.997201 50.707414 -69.294850
v -64.235906 50.707414 -69.977206
v -63.275375 50.707414 -70.255381
v -64.235906 47.501993 -69.977206
v -63.275375 47.501993 -70.255381
vt 0.375000 0.000000
vt 0.625000 0.000000
vt 0.375000 0.250000
vt 0.625000 0.250000
vt 0.375000 0.500000
vt 0.625000 0.500000
vt 0.375000 0.750000
vt 0.625000 0.750000
vt 0.375000 1.000000
vt 0.625000 1.000000
vt 0.875000 0.000000
vt 0.875000 0.250000
vt 0.125000 0.000000
vt 0.125000 0.250000
vn 0.278175 0.000000 0.960531
vn 0.278175 0.000000 0.960531
vn 0.278175 0.000000 0.960531
vn 0.278175 0.000000 0.960531
vn 0.000000 1.000000 0.000000
vn 0.000000 1.000000 0.000000
vn 0.000000 1.000000 0.000000
vn 0.000000 1.000000 0.000000
vn -0.278175 0.000000 -0.960531
vn -0.278175 0.000000 -0.960531
vn -0.278175 0.000000 -0.960531
vn -0.278175 0.000000 -0.960531
vn 0.000000 -1.000000 0.000000
vn 0.000000 -1.000000 0.000000
vn 0.000000 -1.000000 0.000000
vn 0.000000 -1.000000 0.000000
vn 0.960531 0.000000 -0.278175
vn 0.960531 0.000000 -0.278175
vn 0.960531 0.000000 -0.278175
vn 0.960531 0.000000 -0.278175
vn -0.960531 0.000000 0.278175
vn -0.960531 0.000000 0.278175
vn -0.960531 0.000000 0.278175
vn -0.960531 0.000000 0.278175
s off
g City_Miniture pCube28
usemtl initialShadingGroup
f 49/85/145 50/86/146 52/88/147 51/87/148
f 51/87/149 52/88/150 54/90/151 53/89/152
f 53/89/153 54/90/154 56/92/155 55/91/156
f 55/91/157 56/92/158 50/94/159 49/93/160
f 50/86/161 56/95/162 54/96/163 52/88/164
f 55/97/165 49/85/166 51/87/167 53/98/168
g default
v -46.850955 47.501993 -78.465775
v -45.890425 47.501993 -78.743950
v -46.850955 50.707414 -78.465775
v -45.890425 50.707414 -78.743950
v -47.129130 50.707414 -79.426305
v -46.168600 50.707414 -79.704480
v -47.129130 47.501993 -79.426305
v -46.168600 47.501993 -79.704480
vt 0.375000 0.000000
vt 0.625000 0.000000
vt 0.375000 0.250000
vt 0.625000 0.250000
vt 0.375000 0.500000
vt 0.625000 0.500000
vt 0.375000 0.750000
vt 0.625000 0.750000
vt 0.375000 1.000000
vt 0.625000 1.000000
vt 0.875000 0.000000
vt 0.875000 0.250000
vt 0.125000 0.000000
vt 0.125000 0.250000
vn 0.278175 0.000000 0.960531
vn 0.278175 0.000000 0.960531
vn 0.278175 0.000000 0.960531
vn 0.278175 0.000000 0.960531
vn 0.000000 1.000000 0.000000
vn 0.000000 1.000000 0.000000
vn 0.000000 1.000000 0.000000
vn 0.000000 1.000000 0.000000
vn -0.278175 0.000000 -0.960531
vn -0.278175 0.000000 -0.960531
vn -0.278175 0.000000 -0.960531
vn -0.278175 0.000000 -0.960531
vn 0.000000 -1.000000 0.000000
vn 0.000000 -1.000000 0.000000
vn 0.000000 -1.000000 0.000000
vn 0.000000 -1.000000 0.000000
vn 0.960531 0.000000 -0.278175
vn 0.960531 0.000000 -0.278175
vn 0.960531 0.000000 -0.278175
vn 0.960531 0.000000 -0.278175
vn -0.960531 0.000000 0.278175
vn -0.960531 0.000000 0.278175
vn -0.960531 0.000000 0.278175
vn -0.960531 0.000000 0.278175
s off
g City_Miniture pCube27
usemtl initialShadingGroup
f 57/99/169 58/100/170 60/102/171 59/101/172
f 59/101/173 60/102/174 62/104/175 61/103/176
f 61/103/177 62/104/178 64/106/179 63/105/180
f 63/105/181 64/106/182 58/108/183 57/107/184
f 58/100/185 64/109/186 62/110/187 60/102/188
f 63/111/189 57/99/190 59/101/191 61/112/192
g default
v -47.533179 47.595912 -80.295055
v -45.814259 47.595912 -80.295055
v -47.533179 52.275911 -80.295055
v -45.814259 52.275911 -80.295055
v -47.533179 52.275911 -82.013975
v -45.814259 52.275911 -82.013975
v -47.533179 47.595912 -82.013975
v -45.814259 47.595912 -82.013975
vt 0.375000 0.000000
vt 0.625000 0.000000
vt 0.375000 0.250000
vt 0.625000 0.250000
vt 0.375000 0.500000
vt 0.625000 0.500000
vt 0.375000 0.750000
vt 0.625000 0.750000
vt 0.375000 1.000000
vt 0.625000 1.000000
vt 0.875000 0.000000
vt 0.875000 0.250000
vt 0.125000 0.000000
vt 0.125000 0.250000
vn 0.000000 0.000000 1.000000
vn 0.000000 0.000000 1.000000
vn 0.000000 0.000000 1.000000
vn 0.000000 0.000000 1.000000
vn 0.000000 1.000000 0.000000
vn 0.000000 1.000000 0.000000
vn 0.000000 1.000000 0.000000
vn 0.000000 1.000000 0.000000
vn 0.000000 0.000000 -1.000000
vn 0.000000 0.000000 -1.000000
vn 0.000000 0.000000 -1.000000
vn 0.000000 0.000000 -1.000000
vn 0.000000 -1.000000 0.000000
vn 0.000000 -1.000000 0.000000
vn 0.000000 -1.000000 0.000000
vn 0.000000 -1.000000 0.000000
vn 1.000000 0.000000 0.000000
vn 1.000000 0.000000 0.000000
vn 1.000000 0.000000 0.000000
vn 1.000000 0.000000 0.000000
vn -1.000000 0.000000 0.000000
vn -1.000000 0.000000 0.000000
vn -1.000000 0.000000 0.000000
vn -1.000000 0.000000 0.000000
s off
g City_Miniture pCube26
usemtl initialShadingGroup
f 65/113/193 66/114/194 68/116/195 67/115/196
f 67/115/197 68/116/198 70/118/199 69/117/200
f 69/117/201 70/118/202 72/120/203 71/119/204
f 71/119/205 72/120/206 66/122/207 65/121/208
f 66/114/209 72/123/210 70/124/211 68/116/212
f 71/125/213 65/113/214 67/115/215 69/126/216
g default
v -46.573449 47.595912 -83.516692
v -44.854529 47.595912 -83.516692
v -46.573449 52.275911 -83.516692
v -44.854529 52.275911 -83.516692
v -46.573449 52.275911 -85.235612
v -44.854529 52.275911 -85.235612
v -46.573449 47.595912 -85.235612
v -44.854529 47.595912 -85.235612
vt 0.375000 0.000000
vt 0.625000 0.000000
vt 0.375000 0.250000
vt 0.625000 0.250000
vt 0.375000 0.500000
vt 0.625000 0.500000
vt 0.375000 0.750000
vt 0.625000 0.750000
vt 0.375000 1.000000
vt 0.625000 1.000000
vt 0.875000 0.000000
vt 0.875000 0.250000
vt 0.125000 0.000000
vt 0.125000 0.250000
vn 0.000000 0.000000 1.000000
vn 0.000000 0.000000 1.000000
vn 0.000000 0.000000 1.000000
vn 0.000000 0.000000 1.000000
vn 0.000000 1.000000 0.000000
vn 0.000000 1.000000 0.000000
vn 0.000000 1.000000 0.000000
vn 0.000000 1.000000 0.000000
vn 0.000000 0.000000 -1.000000
vn 0.000000 0.000000 -1.000000
vn 0.000000 0.000000 -1.000000
vn 0.000000 0.000000 -1.000000
vn 0.000000 -1.000000 0.000000
vn 0.000000 -1.000000 0.000000
vn 0.000000 -1.000000 0.000000
vn 0.000000 -1.000000 0.000000
vn 1.000000 0.000000 0.000000
vn 1.000000 0.000000 0.000000
vn 1.000000 0.000000 0.000000
vn 1.000000 0.000000 0.000000
vn -1.000000 0.000000 0.000000
vn -1.000000 0.000000 0.000000
vn -1.000000 0.000000 0.000000
vn -1.000000 0.000000 0.000000
s off
g City_Miniture pCube25
usemtl initialShadingGroup
f 73/127/217 74/128/218 76/130/219 75/129/220
f 75/129/221 76/130/222 78/132/223 77/131/224
f 77/131/225 78/132/226 80/134/227 79/133/228
f 79/133/229 80/134/230 74/136/231 73/135/232
f 74/128/233 80/137/234 78/138/235 76/130/236
f 79/139/237 73/127/238 75/129/239 77/140/240
g default
v -64.415874 47.595912 -83.516692
v -62.696954 47.595912 -83.516692
v -64.415874 52.275911 -83.516692
v -62.696954 52.275911 -83.516692
v -64.415874 52.275911 -85.235612
v -62.696954 52.275911 -85.235612
v -64.415874 47.595912 -85.235612
v -62.696954 47.595912 -85.235612
vt 0.375000 0.000000
vt 0.625000 0.000000
vt 0.375000 0.250000
vt 0.625000 0.250000
vt 0.375000 0.500000
vt 0.625000 0.500000
vt 0.375000 0.750000
vt 0.625000 0.750000
vt 0.375000 1.000000
vt 0.625000 1.000000
vt 0.875000 0.000000
vt 0.875000 0.250000
vt 0.125000 0.000000
vt 0.125000 0.250000
vn 0.000000 0.000000 1.000000
vn 0.000000 0.000000 1.000000
vn 0.000000 0.000000 1.000000
vn 0.000000 0.000000 1.000000
vn 0.000000 1.000000 0.000000
vn 0.000000 1.000000 0.000000
vn 0.000000 1.000000 0.000000
vn 0.000000 1.000000 0.000000
vn 0.000000 0.000000 -1.000000
vn 0.000000 0.000000 -1.000000
vn 0.000000 0.000000 -1.000000
vn 0.000000 0.000000 -1.000000
vn 0.000000 -1.000000 0.000000
vn 0.000000 -1.000000 0.000000
vn 0.000000 -1.000000 0.000000
vn 0.000000 -1.000000 0.000000
vn 1.000000 0.000000 0.000000
vn 1.000000 0.000000 0.000000
vn 1.000000 0.000000 0.000000
vn 1.000000 0.000000 0.000000
vn -1.000000 0.000000 0.000000
vn -1.000000 0.000000 0.000000
vn -1.000000 0.000000 0.000000
vn -1.000000 0.000000 0.000000
s off
g City_Miniture pCube24
usemtl initialShadingGroup
f 81/141/241 82/142/242 84/144/243 83/143/244
f 83/143/245 84/144/246 86/146/247 85/145/248
f 85/145/249 86/146/250 88/148/251 87/147/252
f 87/147/253 88/148/254 82/150/255 81/149/256
f 82/142/257 88/151/258 86/152/259 84/144/260
f 87/153/261 81/141/262 83/143/263 85/154/264
g default
v -61.378509 47.432515 -65.229845
v -60.378509 47.432515 -65.229845
v -61.378509 49.313540 -65.229845
v -60.378509 49.313540 -65.229845
v -61.378509 49.313540 -66.229845
v -60.378509 49.313540 -66.229845
v -61.378509 47.432515 -66.229845
v -60.378509 47.432515 -66.229845
vt 0.375000 0.000000
vt 0.625000 0.000000
vt 0.375000 0.250000
vt 0.625000 0.250000
vt 0.375000 0.500000
vt 0.625000 0.500000
vt 0.375000 0.750000
vt 0.625000 0.750000
vt 0.375000 1.000000
vt 0.625000 1.000000
vt 0.875000 0.000000
vt 0.875000 0.250000
vt 0.125000 0.000000
vt 0.125000 0.250000
vn 0.000000 0.000000 1.000000
vn 0.000000 0.000000 1.000000
vn 0.000000 0.000000 1.000000
vn 0.000000 0.000000 1.000000
vn 0.000000 1.000000 0.000000
vn 0.000000 1.000000 0.000000
vn 0.000000 1.000000 0.000000
vn 0.000000 1.000000 0.000000
vn 0.000000 0.000000 -1.000000
vn 0.000000 0.000000 -1.000000
vn 0.000000 0.000000 -1.000000
vn 0.000000 0.000000 -1.000000
vn 0.000000 -1.000000 0.000000
vn 0.000000 -1.000000 0.000000
vn 0.000000 -1.000000 0.000000
vn 0.000000 -1.000000 0.000000
vn 1.000000 0.000000 0.000000
vn 1.000000 0.000000 0.000000
vn 1.000000 0.000000 0.000000
vn 1.000000 0.000000 0.000000
vn -1.000000 0.000000 0.000000
vn -1.000000 0.000000 0.000000
vn -1.000000 0.000000 0.000000
vn -1.000000 0.000000 0.000000
s off
g City_Miniture pCube23
usemtl initialShadingGroup
f 89/155/265 90/156/266 92/158/267 91/157/268
f 91/157/269 92/158/270 94/160/271 93/159/272
f 93/159/273 94/160/274 96/162/275 95/161/276
f 95/161/277 96/162/278 90/164/279 89/163/280
f 90/156/281 96/165/282 94/166/283 92/158/284
f 95/167/285 89/155/286 91/157/287 93/168/288
g default
v -63.512022 47.432515 -72.100397
v -62.512022 47.432515 -72.100397
v -63.512022 49.313540 -72.100397
v -62.512022 49.313540 -72.100397
v -63.512022 49.313540 -73.100397
v -62.512022 49.313540 -73.100397
v -63.512022 47.432515 -73.100397
v -62.512022 47.432515 -73.100397
vt 0.375000 0.000000
vt 0.625000 0.000000
vt 0.375000 0.250000
vt 0.625000 0.250000
vt 0.375000 0.500000
vt 0.625000 0.500000
vt 0.375000 0.750000
vt 0.625000 0.750000
vt 0.375000 1.000000
vt 0.625000 1.000000
vt 0.875000 0.000000
vt 0.875000 0.250000
vt 0.125000 0.000000
vt 0.125000 0.250000
vn 0.000000 0.000000 1.000000
vn 0.000000 0.000000 1.000000
vn 0.000000 0.000000 1.000000
vn 0.000000 0.000000 1.000000
vn 0.000000 1.000000 0.000000
vn 0.000000 1.000000 0.000000
vn 0.000000 1.000000 0.000000
vn 0.000000 1.000000 0.000000
vn 0.000000 0.000000 -1.000000
vn 0.000000 0.000000 -1.000000
vn 0.000000 0.000000 -1.000000
vn 0.000000 0.000000 -1.000000
vn 0.000000 -1.000000 0.000000
vn 0.000000 -1.000000 0.000000
vn 0.000000 -1.000000 0.000000
vn 0.000000 -1.000000 0.000000
vn 1.000000 0.000000 0.000000
vn 1.000000 0.000000 0.000000
vn 1.000000 0.000000 0.000000
vn 1.000000 0.000000 0.000000
vn -1.000000 0.000000 0.000000
vn -1.000000 0.000000 0.000000
vn -1.000000 0.000000 0.000000
vn -1.000000 0.000000 0.000000
s off
g City_Miniture pCube22
usemtl initialShadingGroup
f 97/169/289 98/170/290 100/172/291 99/171/292
f 99/171/293 100/172/294 102/174/295 101/173/296
f 101/173/297 102/174/298 104/176/299 103/175/300
f 103/175/301 104/176/302 98/178/303 97/177/304
f 98/170/305 104/179/306 102/180/307 100/172/308
f 103/181/309 97/169/310 99/171/311 101/182/312
g default
v -63.039003 47.432515 -76.480658
v -62.039003 47.432515 -76.480658
v -63.039003 49.313540 -76.480658
v -62.039003 49.313540 -76.480658
v -63.039003 49.313540 -77.480658
v -62.039003 49.313540 -77.480658
v -63.039003 47.432515 -77.480658
v -62.039003 47.432515 -77.480658
vt 0.375000 0.000000
vt 0.625000 0.000000
vt 0.375000 0.250000
vt 0.625000 0.250000
vt 0.375000 0.500000
vt 0.625000 0.500000
vt 0.375000 0.750000
vt 0.625000 0.750000
vt 0.375000 1.000000
vt 0.625000 1.000000
vt 0.875000 0.000000
vt 0.875000 0.250000
vt 0.125000 0.000000
vt 0.125000 0.250000
vn 0.000000 0.000000 1.000000
vn 0.000000 0.000000 1.000000
vn 0.000000 0.000000 1.000000
vn 0.000000 0.000000 1.000000
vn 0.000000 1.000000 0.000000
vn 0.000000 1.000000 0.000000
vn 0.000000 1.000000 0.000000
vn 0.000000 1.000000 0.000000
vn 0.000000 0.000000 -1.000000
vn 0.000000 0.000000 -1.000000
vn 0.000000 0.000000 -1.000000
vn 0.000000 0.000000 -1.000000
vn 0.000000 -1.000000 0.000000
vn 0.000000 -1.000000 0.000000
vn 0.000000 -1.000000 0.000000
vn 0.000000 -1.000000 0.000000
vn 1.000000 0.000000 0.000000
vn 1.000000 0.000000 0.000000
vn 1.000000 0.000000 0.000000
vn 1.000000 0.000000 0.000000
vn -1.000000 0.000000 0.000000
vn -1.000000 0.000000 0.000000
vn -1.000000 0.000000 0.000000
vn -1.000000 0.000000 0.000000
s off
g City_Miniture pCube21
usemtl initialShadingGroup
f 105/183/313 106/184/314 108/186/315 107/185/316
f 107/185/317 108/186/318 110/188/319 109/187/320
f 109/187/321 110/188/322 112/190/323 111/189/324
f 111/189/325 112/190/326 106/192/327 105/191/328
f 106/184/329 112/193/330 110/194/331 108/186/332
f 111/195/333 105/183/334 107/185/335 109/196/336
g default
v -63.281863 47.432515 -74.572022
v -62.281863 47.432515 -74.572022
v -63.281863 49.313540 -74.572022
v -62.281863 49.313540 -74.572022
v -63.281863 49.313540 -75.572022
v -62.281863 49.313540 -75.572022
v -63.281863 47.432515 -75.572022
v -62.281863 47.432515 -75.572022
vt 0.375000 0.000000
vt 0.625000 0.000000
vt 0.375000 0.250000
vt 0.625000 0.250000
vt 0.375000 0.500000
vt 0.625000 0.500000
vt 0.375000 0.750000
vt 0.625000 0.750000
vt 0.375000 1.000000
vt 0.625000 1.000000
vt 0.875000 0.000000
vt 0.875000 0.250000
vt 0.125000 0.000000
vt 0.125000 0.250000
vn 0.000000 0.000000 1.000000
vn 0.000000 0.000000 1.000000
vn 0.000000 0.000000 1.000000
vn 0.000000 0.000000 1.000000
vn 0.000000 1.000000 0.000000
vn 0.000000 1.000000 0.000000
vn 0.000000 1.000000 0.000000
vn 0.000000 1.000000 0.000000
vn 0.000000 0.000000 -1.000000
vn 0.000000 0.000000 -1.000000
vn 0.000000 0.000000 -1.000000
vn 0.000000 0.000000 -1.000000
vn 0.000000 -1.000000 0.000000
vn 0.000000 -1.000000 0.000000
vn 0.000000 -1.000000 0.000000
vn 0.000000 -1.000000 0.000000
vn 1.000000 0.000000 0.000000
vn 1.000000 0.000000 0.000000
vn 1.000000 0.000000 0.000000
vn 1.000000 0.000000 0.000000
vn -1.000000 0.000000 0.000000
vn -1.000000 0.000000 0.000000
vn -1.000000 0.000000 0.000000
vn -1.000000 0.000000 0.000000
s off
g City_Miniture pCube20
usemtl initialShadingGroup
f 113/197/337 114/198/338 116/200/339 115/199/340
f 115/199/341 116/200/342 118/202/343 117/201/344
f 117/201/345 118/202/346 120/204/347 119/203/348
f 119/203/349 120/204/350 114/206/351 113/205/352
f 114/198/353 120/207/354 118/208/355 116/200/356
f 119/209/357 113/197/358 115/199/359 117/210/360
g default
v -65.339657 47.595912 -80.196231
v -63.620737 47.595912 -80.196231
v -65.339657 52.275911 -80.196231
v -63.620737 52.275911 -80.196231
v -65.339657 52.275911 -81.915151
v -63.620737 52.275911 -81.915151
v -65.339657 47.595912 -81.915151
v -63.620737 47.595912 -81.915151
vt 0.375000 0.000000
vt 0.625000 0.000000
vt 0.375000 0.250000
vt 0.625000 0.250000
vt 0.375000 0.500000
vt 0.625000 0.500000
vt 0.375000 0.750000
vt 0.625000 0.750000
vt 0.375000 1.000000
vt 0.625000 1.000000
vt 0.875000 0.000000
vt 0.875000 0.250000
vt 0.125000 0.000000
vt 0.125000 0.250000
vn 0.000000 0.000000 1.000000
vn 0.000000 0.000000 1.000000
vn 0.000000 0.000000 1.000000
vn 0.000000 0.000000 1.000000
vn 0.000000 1.000000 0.000000
vn 0.000000 1.000000 0.000000
vn 0.000000 1.000000 0.000000
vn 0.000000 1.000000 0.000000
vn 0.000000 0.000000 -1.000000
vn 0.000000 0.000000 -1.000000
vn 0.000000 0.000000 -1.000000
vn 0.000000 0.000000 -1.000000
vn 0.000000 -1.000000 0.000000
vn 0.000000 -1.000000 0.000000
vn 0.000000 -1.000000 0.000000
vn 0.000000 -1.000000 0.000000
vn 1.000000 0.000000 0.000000
vn 1.000000 0.000000 0.000000
vn 1.000000 0.000000 0.000000
vn 1.000000 0.000000 0.000000
vn -1.000000 0.000000 0.000000
vn -1.000000 0.000000 0.000000
vn -1.000000 0.000000 0.000000
vn -1.000000 0.000000 0.000000
s off
g City_Miniture pCube19
usemtl initialShadingGroup
f 121/211/361 122/212/362 124/214/363 123/213/364
f 123/213/365 124/214/366 126/216/367 125/215/368
f 125/215/369 126/216/370 128/218/371 127/217/372
f 127/217/373 128/218/374 122/220/375 121/219/376
f 122/212/377 128/221/378 126/222/379 124/214/380
f 127/223/381 121/211/382 123/213/383 125/224/384
g default
v -65.532824 47.595912 -75.096510
v -63.813904 47.595912 -75.096510
v -65.532824 52.275911 -75.096510
v -63.813904 52.275911 -75.096510
v -65.532824 52.275911 -76.815430
v -63.813904 52.275911 -76.815430
v -65.532824 47.595912 -76.815430
v -63.813904 47.595912 -76.815430
vt 0.375000 0.000000
vt 0.625000 0.000000
vt 0.375000 0.250000
vt 0.625000 0.250000
vt 0.375000 0.500000
vt 0.625000 0.500000
vt 0.375000 0.750000
vt 0.625000 0.750000
vt 0.375000 1.000000
vt 0.625000 1.000000
vt 0.875000 0.000000
vt 0.875000 0.250000
vt 0.125000 0.000000
vt 0.125000 0.250000
vn 0.000000 0.000000 1.000000
vn 0.000000 0.000000 1.000000
vn 0.000000 0.000000 1.000000
vn 0.000000 0.000000 1.000000
vn 0.000000 1.000000 0.000000
vn 0.000000 1.000000 0.000000
vn 0.000000 1.000000 0.000000
vn 0.000000 1.000000 0.000000
vn 0.000000 0.000000 -1.000000
vn 0.000000 0.000000 -1.000000
vn 0.000000 0.000000 -1.000000
vn 0.000000 0.000000 -1.000000
vn 0.000000 -1.000000 0.000000
vn 0.000000 -1.000000 0.000000
vn 0.000000 -1.000000 0.000000
vn 0.000000 -1.000000 0.000000
vn 1.000000 0.000000 0.000000
vn 1.000000 0.000000 0.000000
vn 1.000000 0.000000 0.000000
vn 1.000000 0.000000 0.000000
vn -1.000000 0.000000 0.000000
vn -1.000000 0.000000 0.000000
vn -1.000000 0.000000 0.000000
vn -1.000000 0.000000 0.000000
s off
g City_Miniture pCube18
usemtl initialShadingGroup
f 129/225/385 130/226/386 132/228/387 131/227/388
f 131/227/389 132/228/390 134/230/391 133/229/392
f 133/229/393 134/230/394 136/232/395 135/231/396
f 135/231/397 136/232/398 130/234/399 129/233/400
f 130/226/401 136/235/402 134/236/403 132/228/404
f 135/237/405 129/225/406 131/227/407 133/238/408
g default
v -63.436741 47.595912 -81.529393
v -61.717821 47.595912 -81.529393
v -63.436741 52.275911 -81.529393
v -61.717821 52.275911 -81.529393
v -63.436741 52.275911 -83.248313
v -61.717821 52.275911 -83.248313
v -63.436741 47.595912 -83.248313
v -61.717821 47.595912 -83.248313
vt 0.375000 0.000000
vt 0.625000 0.000000
vt 0.375000 0.250000
vt 0.625000 0.250000
vt 0.375000 0.500000
vt 0.625000 0.500000
vt 0.375000 0.750000
vt 0.625000 0.750000
vt 0.375000 1.000000
vt 0.625000 1.000000
vt 0.875000 0.000000
vt 0.875000 0.250000
vt 0.125000 0.000000
vt 0.125000 0.250000
vn 0.000000 0.000000 1.000000
vn 0.000000 0.000000 1.000000
vn 0.000000 0.000000 1.000000
vn 0.000000 0.000000 1.000000
vn 0.000000 1.000000 0.000000
vn 0.000000 1.000000 0.000000
vn 0.000000 1.000000 0.000000
vn 0.000000 1.000000 0.000000
vn 0.000000 0.000000 -1.000000
vn 0.000000 0.000000 -1.000000
vn 0.000000 0.000000 -1.000000
vn 0.000000 0.000000 -1.000000
vn 0.000000 -1.000000 0.000000
vn 0.000000 -1.000000 0.000000
vn 0.000000 -1.000000 0.000000
vn 0.000000 -1.000000 0.000000
vn 1.000000 0.000000 0.000000
vn 1.000000 0.000000 0.000000
vn 1.000000 0.000000 0.000000
vn 1.000000 0.000000 0.000000
vn -1.000000 0.000000 0.000000
vn -1.000000 0.000000 0.000000
vn -1.000000 0.000000 0.000000
vn -1.000000 0.000000 0.000000
s off
g City_Miniture pCube17
usemtl initialShadingGroup
f 137/239/409 138/240/410 140/242/411 139/241/412
f 139/241/413 140/242/414 142/244/415 141/243/416
f 141/243/417 142/244/418 144/246/419 143/245/420
f 143/245/421 144/246/422 138/248/423 137/247/424
f 138/240/425 144/249/426 142/250/427 140/242/428
f 143/251/429 137/239/430 139/241/431 141/252/432
g default
v -48.210478 47.501993 -78.465775
v -47.249948 47.501993 -78.743950
v -48.210478 50.707414 -78.465775
v -47.249948 50.707414 -78.743950
v -48.488653 50.707414 -79.426305
v -47.528123 50.707414 -79.704480
v -48.488653 47.501993 -79.426305
v -47.528123 47.501993 -79.704480
vt 0.375000 0.000000
vt 0.625000 0.000000
vt 0.375000 0.250000
vt 0.625000 0.250000
vt 0.375000 0.500000
vt 0.625000 0.500000
vt 0.375000 0.750000
vt 0.625000 0.750000
vt 0.375000 1.000000
vt 0.625000 1.000000
vt 0.875000 0.000000
vt 0.875000 0.250000
vt 0.125000 0.000000
vt 0.125000 0.250000
vn 0.278175 0.000000 0.960531
vn 0.278175 0.000000 0.960531
vn 0.278175 0.000000 0.960531
vn 0.278175 0.000000 0.960531
vn 0.000000 1.000000 0.000000
vn 0.000000 1.000000 0.000000
vn 0.000000 1.000000 0.000000
vn 0.000000 1.000000 0.000000
vn -0.278175 0.000000 -0.960531
vn -0.278175 0.000000 -0.960531
vn -0.278175 0.000000 -0.960531
vn -0.278175 0.000000 -0.960531
vn 0.000000 -1.000000 0.000000
vn 0.000000 -1.000000 0.000000
vn 0.000000 -1.000000 0.000000
vn 0.000000 -1.000000 0.000000
vn 0.960531 0.000000 -0.278175
vn 0.960531 0.000000 -0.278175
vn 0.960531 0.000000 -0.278175
vn 0.960531 0.000000 -0.278175
vn -0.960531 0.000000 0.278175
vn -0.960531 0.000000 0.278175
vn -0.960531 0.000000 0.278175
vn -0.960531 0.000000 0.278175
s off
g City_Miniture pCube16
usemtl initialShadingGroup
f 145/253/433 146/254/434 148/256/435 147/255/436
f 147/255/437 148/256/438 150/258/439 149/257/440
f 149/257/441 150/258/442 152/260/443 151/259/444
f 151/259/445 152/260/446 146/262/447 145/261/448
f 146/254/449 152/263/450 150/264/451 148/256/452
f 151/265/453 145/253/454 147/255/455 149/266/456
g default
v -59.463335 47.432515 -78.423413
v -58.463335 47.432515 -78.423413
v -59.463335 49.313540 -78.423413
v -58.463335 49.313540 -78.423413
v -59.463335 49.313540 -79.423413
v -58.463335 49.313540 -79.423413
v -59.463335 47.432515 -79.423413
v -58.463335 47.432515 -79.423413
vt 0.375000 0.000000
vt 0.625000 0.000000
vt 0.375000 0.250000
vt 0.625000 0.250000
vt 0.375000 0.500000
vt 0.625000 0.500000
vt 0.375000 0.750000
vt 0.625000 0.750000
vt 0.375000 1.000000
vt 0.625000 1.000000
vt 0.875000 0.000000
vt 0.875000 0.250000
vt 0.125000 0.000000
vt 0.125000 0.250000
vn 0.000000 0.000000 1.000000
vn 0.000000 0.000000 1.000000
vn 0.000000 0.000000 1.000000
vn 0.000000 0.000000 1.000000
vn 0.000000 1.000000 0.000000
vn 0.000000 1.000000 0.000000
vn 0.000000 1.000000 0.000000
vn 0.000000 1.000000 0.000000
vn 0.000000 0.000000 -1.000000
vn 0.000000 0.000000 -1.000000
vn 0.000000 0.000000 -1.000000
vn 0.000000 0.000000 -1.000000
vn 0.000000 -1.000000 0.000000
vn 0.000000 -1.000000 0.000000
vn 0.000000 -1.000000 0.000000
vn 0.000000 -1.000000 0.000000
vn 1.000000 0.000000 0.000000
vn 1.000000 0.000000 0.000000
vn 1.000000 0.000000 0.000000
vn 1.000000 0.000000 0.000000
vn -1.000000 0.000000 0.000000
vn -1.000000 0.000000 0.000000
vn -1.000000 0.000000 0.000000
vn -1.000000 0.000000 0.000000
s off
g City_Miniture pCube15
usemtl initialShadingGroup
f 153/267/457 154/268/458 156/270/459 155/269/460
f 155/269/461 156/270/462 158/272/463 157/271/464
f 157/271/465 158/272/466 160/274/467 159/273/468
f 159/273/469 160/274/470 154/276/471 153/275/472
f 154/268/473 160/277/474 158/278/475 156/270/476
f 159/279/477 153/267/478 155/269/479 157/280/480
g default
v -61.549418 47.595912 -76.848823
v -60.055841 47.595912 -75.997991
v -61.549418 52.275911 -76.848823
v -60.055841 52.275911 -75.997991
v -60.698586 52.275911 -78.342399
v -59.205009 52.275911 -77.491567
v -60.698586 47.595912 -78.342399
v -59.205009 47.595912 -77.491567
vt 0.375000 0.000000
vt 0.625000 0.000000
vt 0.375000 0.250000
vt 0.625000 0.250000
vt 0.375000 0.500000
vt 0.625000 0.500000
vt 0.375000 0.750000
vt 0.625000 0.750000
vt 0.375000 1.000000
vt 0.625000 1.000000
vt 0.875000 0.000000
vt 0.875000 0.250000
vt 0.125000 0.000000
vt 0.125000 0.250000
vn -0.494981 0.000000 0.868904
vn -0.494981 0.000000 0.868904
vn -0.494981 0.000000 0.868904
vn -0.494981 0.000000 0.868904
vn 0.000000 1.000000 0.000000
vn 0.000000 1.000000 0.000000
vn 0.000000 1.000000 0.000000
vn 0.000000 1.000000 0.000000
vn 0.494981 0.000000 -0.868904
vn 0.494981 0.000000 -0.868904
vn 0.494981 0.000000 -0.868904
vn 0.494981 0.000000 -0.868904
vn 0.000000 -1.000000 0.000000
vn 0.000000 -1.000000 0.000000
vn 0.000000 -1.000000 0.000000
vn 0.000000 -1.000000 0.000000
vn 0.868904 0.000000 0.494981
vn 0.868904 0.000000 0.494981
vn 0.868904 0.000000 0.494981
vn 0.868904 0.000000 0.494981
vn -0.868904 0.000000 -0.494981
vn -0.868904 0.000000 -0.494981
vn -0.868904 0.000000 -0.494981
vn -0.868904 0.000000 -0.494981
s off
g City_Miniture pCube14
usemtl initialShadingGroup
f 161/281/481 162/282/482 164/284/483 163/283/484
f 163/283/485 164/284/486 166/286/487 165/285/488
f 165/285/489 166/286/490 168/288/491 167/287/492
f 167/287/493 168/288/494 162/290/495 161/289/496
f 162/282/497 168/291/498 166/292/499 164/284/500
f 167/293/501 161/281/502 163/283/503 165/294/504
g default
v -58.637900 47.595912 -81.529393
v -56.918980 47.595912 -81.529393
v -58.637900 52.275911 -81.529393
v -56.918980 52.275911 -81.529393
v -58.637900 52.275911 -83.248313
v -56.918980 52.275911 -83.248313
v -58.637900 47.595912 -83.248313
v -56.918980 47.595912 -83.248313
vt 0.375000 0.000000
vt 0.625000 0.000000
vt 0.375000 0.250000
vt 0.625000 0.250000
vt 0.375000 0.500000
vt 0.625000 0.500000
vt 0.375000 0.750000
vt 0.625000 0.750000
vt 0.375000 1.000000
vt 0.625000 1.000000
vt 0.875000 0.000000
vt 0.875000 0.250000
vt 0.125000 0.000000
vt 0.125000 0.250000
vn 0.000000 0.000000 1.000000
vn 0.000000 0.000000 1.000000
vn 0.000000 0.000000 1.000000
vn 0.000000 0.000000 1.000000
vn 0.000000 1.000000 0.000000
vn 0.000000 1.000000 0.000000
vn 0.000000 1.000000 0.000000
vn 0.000000 1.000000 0.000000
vn 0.000000 0.000000 -1.000000
vn 0.000000 0.000000 -1.000000
vn 0.000000 0.000000 -1.000000
vn 0.000000 0.000000 -1.000000
vn 0.000000 -1.000000 0.000000
vn 0.000000 -1.000000 0.000000
vn 0.000000 -1.000000 0.000000
vn 0.000000 -1.000000 0.000000
vn 1.000000 0.000000 0.000000
vn 1.000000 0.000000 0.000000
vn 1.000000 0.000000 0.000000
vn 1.000000 0.000000 0.000000
vn -1.000000 0.000000 0.000000
vn -1.000000 0.000000 0.000000
vn -1.000000 0.000000 0.000000
vn -1.000000 0.000000 0.000000
s off
g City_Miniture pCube13
usemtl initialShadingGroup
f 169/295/505 170/296/506 172/298/507 171/297/508
f 171/297/509 172/298/510 174/300/511 173/299/512
f 173/299/513 174/300/514 176/302/515 175/301/516
f 175/301/517 176/302/518 170/304/519 169/303/520
f 170/296/521 176/305/522 174/306/523 172/298/524
f 175/307/525 169/295/526 171/297/527 173/308/528
g default
v -54.515088 47.501993 -81.791768
v -53.515088 47.501993 -81.791768
v -54.515088 50.707414 -81.791768
v -53.515088 50.707414 -81.791768
v -54.515088 50.707414 -82.791768
v -53.515088 50.707414 -82.791768
v -54.515088 47.501993 -82.791768
v -53.515088 47.501993 -82.791768
vt 0.375000 0.000000
vt 0.625000 0.000000
vt 0.375000 0.250000
vt 0.625000 0.250000
vt 0.375000 0.500000
vt 0.625000 0.500000
vt 0.375000 0.750000
vt 0.625000 0.750000
vt 0.375000 1.000000
vt 0.625000 1.000000
vt 0.875000 0.000000
vt 0.875000 0.250000
vt 0.125000 0.000000
vt 0.125000 0.250000
vn 0.000000 0.000000 1.000000
vn 0.000000 0.000000 1.000000
vn 0.000000 0.000000 1.000000
vn 0.000000 0.000000 1.000000
vn 0.000000 1.000000 0.000000
vn 0.000000 1.000000 0.000000
vn 0.000000 1.000000 0.000000
vn 0.000000 1.000000 0.000000
vn 0.000000 0.000000 -1.000000
vn 0.000000 0.000000 -1.000000
vn 0.000000 0.000000 -1.000000
vn 0.000000 0.000000 -1.000000
vn 0.000000 -1.000000 0.000000
vn 0.000000 -1.000000 0.000000
vn 0.000000 -1.000000 0.000000
vn 0.000000 -1.000000 0.000000
vn 1.000000 0.000000 0.000000
vn 1.000000 0.000000 0.000000
vn 1.000000 0.000000 0.000000
vn 1.000000 0.000000 0.000000
vn -1.000000 0.000000 0.000000
vn -1.000000 0.000000 0.000000
vn -1.000000 0.000000 0.000000
vn -1.000000 0.000000 0.000000
s off
g City_Miniture pCube12
usemtl initialShadingGroup
f 177/309/529 178/310/530 180/312/531 179/311/532
f 179/311/533 180/312/534 182/314/535 181/313/536
f 181/313/537 182/314/538 184/316/539 183/315/540
f 183/315/541 184/316/542 178/318/543 177/317/544
f 178/310/545 184/319/546 182/320/547 180/312/548
f 183/321/549 177/309/550 179/311/551 181/322/552
g default
v -54.515088 47.501993 -81.791768
v -53.515088 47.501993 -81.791768
v -54.515088 50.707414 -81.791768
v -53.515088 50.707414 -81.791768
v -54.515088 50.707414 -82.791768
v -53.515088 50.707414 -82.791768
v -54.515088 47.501993 -82.791768
v -53.515088 47.501993 -82.791768
vt 0.375000 0.000000
vt 0.625000 0.000000
vt 0.375000 0.250000
vt 0.625000 0.250000
vt 0.375000 0.500000
vt 0.625000 0.500000
vt 0.375000 0.750000
vt 0.625000 0.750000
vt 0.375000 1.000000
vt 0.625000 1.000000
vt 0.875000 0.000000
vt 0.875000 0.250000
vt 0.125000 0.000000
vt 0.125000 0.250000
vn 0.000000 0.000000 1.000000
vn 0.000000 0.000000 1.000000
vn 0.000000 0.000000 1.000000
vn 0.000000 0.000000 1.000000
vn 0.000000 1.000000 0.000000
vn 0.000000 1.000000 0.000000
vn 0.000000 1.000000 0.000000
vn 0.000000 1.000000 0.000000
vn 0.000000 0.000000 -1.000000
vn 0.000000 0.000000 -1.000000
vn 0.000000 0.000000 -1.000000
vn 0.000000 0.000000 -1.000000
vn 0.000000 -1.000000 0.000000
vn 0.000000 -1.000000 0.000000
vn 0.000000 -1.000000 0.000000
vn 0.000000 -1.000000 0.000000
vn 1.000000 0.000000 0.000000
vn 1.000000 0.000000 0.000000
vn 1.000000 0.000000 0.000000
vn 1.000000 0.000000 0.000000
vn -1.000000 0.000000 0.000000
vn -1.000000 0.000000 0.000000
vn -1.000000 0.000000 0.000000
vn -1.000000 0.000000 0.000000
s off
g City_Miniture pCube12
f 185/323/553 186/324/554 188/326/555 187/325/556
f 187/325/557 188/326/558 190/328/559 189/327/560
f 189/327/561 190/328/562 192/330/563 191/329/564
f 191/329/565 192/330/566 186/332/567 185/331/568
f 186/324/569 192/333/570 190/334/571 188/326/572
f 191/335/573 185/323/574 187/325/575 189/336/576
g default
v -65.532824 47.595912 -75.096510
v -63.813904 47.595912 -75.096510
v -65.532824 52.275911 -75.096510
v -63.813904 52.275911 -75.096510
v -65.532824 52.275911 -76.815430
v -63.813904 52.275911 -76.815430
v -65.532824 47.595912 -76.815430
v -63.813904 47.595912 -76.815430
vt 0.375000 0.000000
vt 0.625000 0.000000
vt 0.375000 0.250000
vt 0.625000 0.250000
vt 0.375000 0.500000
vt 0.625000 0.500000
vt 0.375000 0.750000
vt 0.625000 0.750000
vt 0.375000 1.000000
vt 0.625000 1.000000
vt 0.875000 0.000000
vt 0.875000 0.250000
vt 0.125000 0.000000
vt 0.125000 0.250000
vn 0.000000 0.000000 1.000000
vn 0.000000 0.000000 1.000000
vn 0.000000 0.000000 1.000000
vn 0.000000 0.000000 1.000000
vn 0.000000 1.000000 0.000000
vn 0.000000 1.000000 0.000000
vn 0.000000 1.000000 0.000000
vn 0.000000 1.000000 0.000000
vn 0.000000 0.000000 -1.000000
vn 0.000000 0.000000 -1.000000
vn 0.000000 0.000000 -1.000000
vn 0.000000 0.000000 -1.000000
vn 0.000000 -1.000000 0.000000
vn 0.000000 -1.000000 0.000000
vn 0.000000 -1.000000 0.000000
vn 0.000000 -1.000000 0.000000
vn 1.000000 0.000000 0.000000
vn 1.000000 0.000000 0.000000
vn 1.000000 0.000000 0.000000
vn 1.000000 0.000000 0.000000
vn -1.000000 0.000000 0.000000
vn -1.000000 0.000000 0.000000
vn -1.000000 0.000000 0.000000
vn -1.000000 0.000000 0.000000
s off
g City_Miniture pCube18
f 193/337/577 194/338/578 196/340/579 195/339/580
f 195/339/581 196/340/582 198/342/583 197/341/584
f 197/341/585 198/342/586 200/344/587 199/343/588
f 199/343/589 200/344/590 194/346/591 193/345/592
f 194/338/593 200/347/594 198/348/595 196/340/596
f 199/349/597 193/337/598 195/339/599 197/350/600
g default
v -61.549418 47.595912 -76.848823
v -60.055841 47.595912 -75.997991
v -61.549418 52.275911 -76.848823
v -60.055841 52.275911 -75.997991
v -60.698586 52.275911 -78.342399
v -59.205009 52.275911 -77.491567
v -60.698586 47.595912 -78.342399
v -59.205009 47.595912 -77.491567
vt 0.375000 0.000000
vt 0.625000 0.000000
vt 0.375000 0.250000
vt 0.625000 0.250000
vt 0.375000 0.500000
vt 0.625000 0.500000
vt 0.375000 0.750000
vt 0.625000 0.750000
vt 0.375000 1.000000
vt 0.625000 1.000000
vt 0.875000 0.000000
vt 0.875000 0.250000
vt 0.125000 0.000000
vt 0.125000 0.250000
vn -0.494981 0.000000 0.868904
vn -0.494981 0.000000 0.868904
vn -0.494981 0.000000 0.868904
vn -0.494981 0.000000 0.868904
vn 0.000000 1.000000 0.000000
vn 0.000000 1.000000 0.000000
vn 0.000000 1.000000 0.000000
vn 0.000000 1.000000 0.000000
vn 0.494981 0.000000 -0.868904
vn 0.494981 0.000000 -0.868904
vn 0.494981 0.000000 -0.868904
vn 0.494981 0.000000 -0.868904
vn 0.000000 -1.000000 0.000000
vn 0.000000 -1.000000 0.000000
vn 0.000000 -1.000000 0.000000
vn 0.000000 -1.000000 0.000000
vn 0.868904 0.000000 0.494981
vn 0.868904 0.000000 0.494981
vn 0.868904 0.000000 0.494981
vn 0.868904 0.000000 0.494981
vn -0.868904 0.000000 -0.494981
vn -0.868904 0.000000 -0.494981
vn -0.868904 0.000000 -0.494981
vn -0.868904 0.000000 -0.494981
s off
g City_Miniture pCube14
f 201/351/601 202/352/602 204/354/603 203/353/604
f 203/353/605 204/354/606 206/356/607 205/355/608
f 205/355/609 206/356/610 208/358/611 207/357/612
f 207/357/613 208/358/614 202/360/615 201/359/616
f 202/352/617 208/361/618 206/362/619 204/354/620
f 207/363/621 201/351/622 203/353/623 205/364/624
g default
v -47.533179 47.595912 -80.295055
v -45.814259 47.595912 -80.295055
v -47.533179 52.275911 -80.295055
v -45.814259 52.275911 -80.295055
v -47.533179 52.275911 -82.013975
v -45.814259 52.275911 -82.013975
v -47.533179 47.595912 -82.013975
v -45.814259 47.595912 -82.013975
vt 0.375000 0.000000
vt 0.625000 0.000000
vt 0.375000 0.250000
vt 0.625000 0.250000
vt 0.375000 0.500000
vt 0.625000 0.500000
vt 0.375000 0.750000
vt 0.625000 0.750000
vt 0.375000 1.000000
vt 0.625000 1.000000
vt 0.875000 0.000000
vt 0.875000 0.250000
vt 0.125000 0.000000
vt 0.125000 0.250000
vn 0.000000 0.000000 1.000000
vn 0.000000 0.000000 1.000000
vn 0.000000 0.000000 1.000000
vn 0.000000 0.000000 1.000000
vn 0.000000 1.000000 0.000000
vn 0.000000 1.000000 0.000000
vn 0.000000 1.000000 0.000000
vn 0.000000 1.000000 0.000000
vn 0.000000 0.000000 -1.000000
vn 0.000000 0.000000 -1.000000
vn 0.000000 0.000000 -1.000000
vn 0.000000 0.000000 -1.000000
vn 0.000000 -1.000000 0.000000
vn 0.000000 -1.000000 0.000000
vn 0.000000 -1.000000 0.000000
vn 0.000000 -1.000000 0.000000
vn 1.000000 0.000000 0.000000
vn 1.000000 0.000000 0.000000
vn 1.000000 0.000000 0.000000
vn 1.000000 0.000000 0.000000
vn -1.000000 0.000000 0.000000
vn -1.000000 0.000000 0.000000
vn -1.000000 0.000000 0.000000
vn -1.000000 0.000000 0.000000
s off
g City_Miniture pCube26
f 209/365/625 210/366/626 212/368/627 211/367/628
f 211/367/629 212/368/630 214/370/631 213/369/632
f 213/369/633 214/370/634 216/372/635 215/371/636
f 215/371/637 216/372/638 210/374/639 209/373/640
f 210/366/641 216/375/642 214/376/643 212/368/644
f 215/377/645 209/365/646 211/367/647 213/378/648
g default
v -64.415874 47.595912 -83.516692
v -62.696954 47.595912 -83.516692
v -64.415874 52.275911 -83.516692
v -62.696954 52.275911 -83.516692
v -64.415874 52.275911 -85.235612
v -62.696954 52.275911 -85.235612
v -64.415874 47.595912 -85.235612
v -62.696954 47.595912 -85.235612
vt 0.375000 0.000000
vt 0.625000 0.000000
vt 0.375000 0.250000
vt 0.625000 0.250000
vt 0.375000 0.500000
vt 0.625000 0.500000
vt 0.375000 0.750000
vt 0.625000 0.750000
vt 0.375000 1.000000
vt 0.625000 1.000000
vt 0.875000 0.000000
vt 0.875000 0.250000
vt 0.125000 0.000000
vt 0.125000 0.250000
vn 0.000000 0.000000 1.000000
vn 0.000000 0.000000 1.000000
vn 0.000000 0.000000 1.000000
vn 0.000000 0.000000 1.000000
vn 0.000000 1.000000 0.000000
vn 0.000000 1.000000 0.000000
vn 0.000000 1.000000 0.000000
vn 0.000000 1.000000 0.000000
vn 0.000000 0.000000 -1.000000
vn 0.000000 0.000000 -1.000000
vn 0.000000 0.000000 -1.000000
vn 0.000000 0.000000 -1.000000
vn 0.000000 -1.000000 0.000000
vn 0.000000 -1.000000 0.000000
vn 0.000000 -1.000000 0.000000
vn 0.000000 -1.000000 0.000000
vn 1.000000 0.000000 0.000000
vn 1.000000 0.000000 0.000000
vn 1.000000 0.000000 0.000000
vn 1.000000 0.000000 0.000000
vn -1.000000 0.000000 0.000000
vn -1.000000 0.000000 0.000000
vn -1.000000 0.000000 0.000000
vn -1.000000 0.000000 0.000000
s off
g City_Miniture pCube24
f 217/379/649 218/380/650 220/382/651 219/381/652
f 219/381/653 220/382/654 222/384/655 221/383/656
f 221/383/657 222/384/658 224/386/659 223/385/660
f 223/385/661 224/386/662 218/388/663 217/387/664
f 218/380/665 224/389/666 222/390/667 220/382/668
f 223/391/669 217/379/670 219/381/671 221/392/672
g default
v -58.090296 47.984506 -56.445250
v -74.884596 47.984506 -86.742955
v -40.248856 47.984506 -86.138396
v -57.741246 24.839791 -76.442195
v -64.121457 34.044286 -80.286811
v -51.526327 34.044286 -80.066953
v -58.014279 34.044286 -69.269170
v -71.125069 43.757606 -84.499529
v -44.501744 43.757606 -84.034824
v -58.215849 43.757606 -61.210695
v -57.988897 32.582391 -70.723543
v -62.874633 32.582391 -79.537634
v -52.798532 32.582391 -79.361769
v -45.879111 41.935154 -83.271315
v -58.188369 41.935154 -62.785279
v -69.775181 41.935154 -83.688443
v -47.805564 37.985993 -81.949633
v -57.939500 37.985993 -65.083930
v -67.478669 37.985993 -82.293036
v -57.841774 31.783770 -70.683080
v -62.678529 31.783770 -79.408817
v -52.703441 31.783770 -79.234707
v -50.450422 34.486509 -80.483576
v -57.886730 34.486509 -68.107472
v -64.886590 34.486509 -80.735557
v -45.160718 41.485468 -83.415707
v -70.070739 41.485468 -83.850508
v -57.992281 41.485468 -62.060382
v -43.082626 44.235064 -84.567623
v -58.033743 44.235064 -59.684747
v -72.107366 44.235064 -85.074240
v -57.892007 34.745828 -67.805126
v -65.145807 34.745828 -80.891302
v -50.185935 34.745828 -80.630184
v -58.084631 47.609559 -56.769193
v -40.532228 47.609559 -85.981321
v -74.606879 47.609559 -86.576094
v -40.248856 49.414659 -86.138396
v -58.090296 49.414659 -56.445250
v -74.884596 49.414659 -86.742955
v -41.415017 49.414659 -85.491993
v -58.067024 49.414659 -57.778380
v -73.741712 49.414659 -86.056247
v -41.415017 47.661296 -85.491993
v -58.067024 47.661296 -57.778380
v -73.741712 47.661296 -86.056247
vt 0.375000 0.033494
vt 0.375000 0.466506
vt 0.750000 0.250000
vt 0.250000 0.500000
vt 0.416667 0.500000
vt 0.583333 0.500000
vt 0.750000 0.500000
vt 0.500000 1.000000
vt 0.466667 0.800000
vt 0.533333 0.800000
vt 0.600000 0.800000
vt 0.400000 0.800000
vt 0.431667 0.590000
vt 0.568333 0.590000
vt 0.705000 0.590000
vt 0.295000 0.590000
vt 0.580000 0.840000
vt 0.420000 0.840000
vt 0.473333 0.840000
vt 0.526667 0.840000
vt 0.561333 0.632000
vt 0.684000 0.632000
vt 0.316000 0.632000
vt 0.438667 0.632000
vt 0.547333 0.716000
vt 0.642000 0.716000
vt 0.358000 0.716000
vt 0.452667 0.716000
vt 0.572000 0.856000
vt 0.428000 0.856000
vt 0.476000 0.856000
vt 0.524000 0.856000
vt 0.534733 0.791600
vt 0.604200 0.791600
vt 0.395800 0.791600
vt 0.465267 0.791600
vt 0.559933 0.640400
vt 0.440067 0.640400
vt 0.679800 0.640400
vt 0.320200 0.640400
vt 0.569833 0.581000
vt 0.709500 0.581000
vt 0.290500 0.581000
vt 0.430167 0.581000
vt 0.607980 0.784040
vt 0.392020 0.784040
vt 0.464007 0.784040
vt 0.535993 0.784040
vt 0.745950 0.508100
vt 0.254050 0.508100
vt 0.581983 0.508100
vt 0.418017 0.508100
vt 0.375000 0.033494
vt 0.750000 0.250000
vt 0.375000 0.466506
vt 0.375000 0.033494
vt 0.750000 0.250000
vt 0.375000 0.466506
vt 0.375000 0.033494
vt 0.750000 0.250000
vt 0.375000 0.466506
vn 0.000000 1.000000 0.000000
vn 0.000000 1.000000 0.000000
vn 0.000000 1.000000 0.000000
vn -0.826924 -0.325719 0.458371
vn -0.830221 -0.314562 0.460199
vn -0.807891 -0.383104 0.447821
vn 0.016534 -0.320080 -0.947246
vn 0.016476 -0.329733 -0.943931
vn 0.016120 -0.383105 -0.923564
vn 0.831965 -0.240708 0.499894
vn 0.831634 -0.242260 0.499696
vn 0.791770 -0.383104 0.475743
vn 0.014229 -0.579030 -0.815182
vn 0.014368 -0.567609 -0.823173
vn 0.013997 -0.597349 -0.801859
vn 0.014045 -0.593613 -0.804628
vn 0.629005 -0.679346 0.377944
vn 0.629988 -0.678105 0.378535
vn 0.595552 -0.719212 0.357843
vn 0.595899 -0.718820 0.358052
vn -0.716550 -0.573408 0.397190
vn -0.708441 -0.586431 0.392696
vn -0.698007 -0.602565 0.386912
vn -0.695208 -0.606781 0.385360
vn 0.015867 -0.416420 -0.909034
vn 0.015904 -0.411728 -0.911168
vn 0.013913 -0.603727 -0.797069
vn 0.013987 -0.598122 -0.801283
vn 0.768567 -0.442770 0.461801
vn 0.768840 -0.442123 0.461965
vn 0.582830 -0.733260 0.350199
vn 0.583324 -0.732725 0.350496
vn -0.796584 -0.412899 0.441554
vn -0.794441 -0.418260 0.440366
vn -0.694469 -0.607886 0.384951
vn -0.690235 -0.614159 0.382603
vn -0.807177 -0.385066 0.447426
vn -0.812015 -0.371530 0.450108
vn 0.016169 -0.376299 -0.926357
vn 0.016083 -0.388222 -0.921426
vn 0.814347 -0.312116 0.489308
vn 0.813878 -0.313778 0.489026
vn 0.851739 -0.112361 0.511777
vn 0.851460 -0.115206 0.511609
vn -0.843083 -0.266111 0.467329
vn -0.848536 -0.242395 0.470352
vn 0.016887 -0.252634 -0.967414
vn 0.016788 -0.273292 -0.961785
vn 0.834126 -0.230301 0.501193
vn 0.834973 -0.226086 0.501702
vn -0.832283 -0.307357 0.461342
vn -0.821132 -0.344342 0.455161
vn 0.016364 -0.347603 -0.937499
vn 0.016563 -0.315162 -0.948893
vn 0.789093 -0.390549 0.474135
vn 0.789093 -0.390549 0.474135
vn -0.805160 -0.390546 0.446308
vn -0.805160 -0.390546 0.446308
vn 0.016066 -0.390546 -0.920443
vn 0.016066 -0.390546 -0.920443
vn 0.016038 -0.394333 -0.918828
vn 0.016038 -0.394333 -0.918828
vn -0.803747 -0.394333 0.445524
vn -0.803747 -0.394333 0.445524
vn 0.787709 -0.394333 0.473303
vn 0.787709 -0.394333 0.473303
vn 0.855643 -0.059614 0.514122
vn 0.855643 -0.059613 0.514122
vn 0.786864 -0.396624 0.472795
vn 0.786864 -0.396624 0.472795
vn -0.873064 -0.059618 0.483947
vn -0.873064 -0.059618 0.483947
vn -0.802883 -0.396628 0.445045
vn -0.802883 -0.396628 0.445045
vn 0.017421 -0.059614 -0.998070
vn 0.017421 -0.059614 -0.998069
vn 0.016021 -0.396623 -0.917842
vn 0.016021 -0.396623 -0.917842
vn 0.857167 0.000000 0.515038
vn 0.857167 0.000000 0.515038
vn 0.017452 -0.000000 -0.999848
vn 0.017452 -0.000000 -0.999848
vn -0.874620 0.000000 0.484810
vn -0.874620 0.000000 0.484810
vn 0.000000 1.000000 0.000000
vn 0.000000 1.000000 0.000000
vn 0.000000 1.000000 0.000000
vn 0.000000 1.000000 0.000000
vn 0.000000 1.000000 0.000000
vn 0.000000 1.000000 0.000000
vn -0.857167 -0.000000 -0.515038
vn -0.857167 -0.000000 -0.515038
vn -0.857167 -0.000000 -0.515038
vn -0.857167 -0.000000 -0.515038
vn -0.017452 0.000000 0.999848
vn -0.017452 0.000000 0.999848
vn -0.017452 0.000000 0.999848
vn -0.017452 0.000000 0.999848
vn 0.874620 -0.000000 -0.484810
vn 0.874620 -0.000000 -0.484810
vn 0.874620 -0.000000 -0.484810
vn 0.874620 -0.000000 -0.484810
s off
g pCone3
usemtl initialShadingGroup
f 269/451/673 268/452/674 270/453/675
s 1
f 244/422/676 245/423/677 228/400/678
s 2
f 245/423/679 246/424/680 228/400/681
s 3
f 246/424/682 244/421/683 228/400/684
s 2
f 249/428/685 247/425/686 230/402/687 229/401/688
s 3
f 247/425/689 248/426/690 231/403/691 230/402/692
s 1
f 248/427/693 249/428/694 229/401/695 231/404/696
s 2
f 255/436/697 253/433/698 233/406/699 232/405/700
s 3
f 253/433/701 254/434/702 234/407/703 233/406/704
s 1
f 254/435/705 255/436/706 232/405/707 234/408/708
f 231/404/696 229/401/695 236/411/709 235/410/710
s 2
f 229/401/688 230/402/687 237/412/711 236/411/712
s 3
f 230/402/692 231/403/691 235/409/713 237/412/714
f 233/406/704 234/407/703 239/414/715 238/413/716
s 1
f 234/408/708 232/405/707 240/416/717 239/415/718
s 2
f 232/405/700 233/406/699 238/413/719 240/416/720
s 3
f 238/413/716 239/414/715 252/431/721 250/429/722
s 1
f 239/415/718 240/416/717 251/430/723 252/432/724
s 2
f 240/416/720 238/413/719 250/429/725 251/430/726
s 1
f 235/410/710 236/411/709 245/423/677 244/422/676
s 2
f 236/411/712 237/412/711 246/424/680 245/423/679
s 3
f 237/412/714 235/409/713 244/421/683 246/424/682
f 258/440/727 256/437/728 248/426/690 247/425/689
s 1
f 256/438/729 257/439/730 249/428/694 248/427/693
s 2
f 257/439/731 258/440/732 247/425/686 249/428/685
f 251/430/726 250/429/725 241/417/733 243/420/734
s 1
f 252/432/724 251/430/723 243/420/735 242/419/736
s 3
f 250/429/722 252/431/721 242/418/737 241/417/738
f 227/398/739 225/399/740 259/441/741 260/443/742
s 1
f 225/396/743 226/397/744 261/444/745 259/442/746
s 2
f 226/397/747 227/398/748 260/443/749 261/444/750
s 1
f 242/419/736 243/420/735 257/439/730 256/438/729
s 2
f 243/420/734 241/417/733 258/440/732 257/439/731
s 3
f 241/417/738 242/418/737 256/437/728 258/440/727
f 260/443/742 259/441/741 254/434/702 253/433/701
s 2
f 261/444/750 260/443/749 253/433/698 255/436/697
s 1
f 259/442/746 261/444/745 255/436/706 254/435/705
s 3
f 225/393/740 227/395/739 262/446/751 263/445/752
s 2
f 227/395/748 226/394/747 264/447/753 262/446/754
s 1
f 226/394/744 225/393/743 263/445/755 264/447/756
s 13
f 263/445/757 262/446/758 265/449/759 266/448/760
f 262/446/758 264/447/761 267/450/762 265/449/759
f 264/447/761 263/445/757 266/448/760 267/450/762
s off
f 266/448/763 265/449/764 268/452/765 269/451/766
f 265/449/767 267/450/768 270/453/769 268/452/770
f 267/450/771 266/448/772 269/451/773 270/453/774
g default
v -61.378509 47.432515 -65.229845
v -60.378509 47.432515 -65.229845
v -61.378509 49.313540 -65.229845
v -60.378509 49.313540 -65.229845
v -61.378509 49.313540 -66.229845
v -60.378509 49.313540 -66.229845
v -61.378509 47.432515 -66.229845
v -60.378509 47.432515 -66.229845
vt 0.375000 0.000000
vt 0.625000 0.000000
vt 0.375000 0.250000
vt 0.625000 0.250000
vt 0.375000 0.500000
vt 0.625000 0.500000
vt 0.375000 0.750000
vt 0.625000 0.750000
vt 0.375000 1.000000
vt 0.625000 1.000000
vt 0.875000 0.000000
vt 0.875000 0.250000
vt 0.125000 0.000000
vt 0.125000 0.250000
vn 0.000000 0.000000 1.000000
vn 0.000000 0.000000 1.000000
vn 0.000000 0.000000 1.000000
vn 0.000000 0.000000 1.000000
vn 0.000000 1.000000 0.000000
vn 0.000000 1.000000 0.000000
vn 0.000000 1.000000 0.000000
vn 0.000000 1.000000 0.000000
vn 0.000000 0.000000 -1.000000
vn 0.000000 0.000000 -1.000000
vn 0.000000 0.000000 -1.000000
vn 0.000000 0.000000 -1.000000
vn 0.000000 -1.000000 0.000000
vn 0.000000 -1.000000 0.000000
vn 0.000000 -1.000000 0.000000
vn 0.000000 -1.000000 0.000000
vn 1.000000 0.000000 0.000000
vn 1.000000 0.000000 0.000000
vn 1.000000 0.000000 0.000000
vn 1.000000 0.000000 0.000000
vn -1.000000 0.000000 0.000000
vn -1.000000 0.000000 0.000000
vn -1.000000 0.000000 0.000000
vn -1.000000 0.000000 0.000000
s off
g City_Miniture pCube23
f 271/454/775 272/455/776 274/457/777 273/456/778
f 273/456/779 274/457/780 276/459/781 275/458/782
f 275/458/783 276/459/784 278/461/785 277/460/786
f 277/460/787 278/461/788 272/463/789 271/462/790
f 272/455/791 278/464/792 276/465/793 274/457/794
f 277/466/795 271/454/796 273/456/797 275/467/798
g default
v -53.690083 47.501993 -66.528062
v -52.690083 47.501993 -66.528062
v -53.690083 50.707414 -66.528062
v -52.690083 50.707414 -66.528062
v -53.690083 50.707414 -67.528062
v -52.690083 50.707414 -67.528062
v -53.690083 47.501993 -67.528062
v -52.690083 47.501993 -67.528062
vt 0.375000 0.000000
vt 0.625000 0.000000
vt 0.375000 0.250000
vt 0.625000 0.250000
vt 0.375000 0.500000
vt 0.625000 0.500000
vt 0.375000 0.750000
vt 0.625000 0.750000
vt 0.375000 1.000000
vt 0.625000 1.000000
vt 0.875000 0.000000
vt 0.875000 0.250000
vt 0.125000 0.000000
vt 0.125000 0.250000
vn 0.000000 0.000000 1.000000
vn 0.000000 0.000000 1.000000
vn 0.000000 0.000000 1.000000
vn 0.000000 0.000000 1.000000
vn 0.000000 1.000000 0.000000
vn 0.000000 1.000000 0.000000
vn 0.000000 1.000000 0.000000
vn 0.000000 1.000000 0.000000
vn 0.000000 0.000000 -1.000000
vn 0.000000 0.000000 -1.000000
vn 0.000000 0.000000 -1.000000
vn 0.000000 0.000000 -1.000000
vn 0.000000 -1.000000 0.000000
vn 0.000000 -1.000000 0.000000
vn 0.000000 -1.000000 0.000000
vn 0.000000 -1.000000 0.000000
vn 1.000000 0.000000 0.000000
vn 1.000000 0.000000 0.000000
vn 1.000000 0.000000 0.000000
vn 1.000000 0.000000 0.000000
vn -1.000000 0.000000 0.000000
vn -1.000000 0.000000 0.000000
vn -1.000000 0.000000 0.000000
vn -1.000000 0.000000 0.000000
s off
g City_Miniture pCube31
f 279/468/799 280/469/800 282/471/801 281/470/802
f 281/470/803 282/471/804 284/473/805 283/472/806
f 283/472/807 284/473/808 286/475/809 285/474/810
f 285/474/811 286/475/812 280/477/813 279/476/814
f 280/469/815 286/478/816 284/479/817 282/471/818
f 285/480/819 279/468/820 281/470/821 283/481/822
g default
v -63.957731 47.501993 -69.016676
v -62.997201 47.501993 -69.294850
v -63.957731 50.707414 -69.016676
v -62.997201 50.707414 -69.294850
v -64.235906 50.707414 -69.977206
v -63.275375 50.707414 -70.255381
v -64.235906 47.501993 -69.977206
v -63.275375 47.501993 -70.255381
vt 0.375000 0.000000
vt 0.625000 0.000000
vt 0.375000 0.250000
vt 0.625000 0.250000
vt 0.375000 0.500000
vt 0.625000 0.500000
vt 0.375000 0.750000
vt 0.625000 0.750000
vt 0.375000 1.000000
vt 0.625000 1.000000
vt 0.875000 0.000000
vt 0.875000 0.250000
vt 0.125000 0.000000
vt 0.125000 0.250000
vn 0.278175 0.000000 0.960531
vn 0.278175 0.000000 0.960531
vn 0.278175 0.000000 0.960531
vn 0.278175 0.000000 0.960531
vn 0.000000 1.000000 0.000000
vn 0.000000 1.000000 0.000000
vn 0.000000 1.000000 0.000000
vn 0.000000 1.000000 0.000000
vn -0.278175 0.000000 -0.960531
vn -0.278175 0.000000 -0.960531
vn -0.278175 0.000000 -0.960531
vn -0.278175 0.000000 -0.960531
vn 0.000000 -1.000000 0.000000
vn 0.000000 -1.000000 0.000000
vn 0.000000 -1.000000 0.000000
vn 0.000000 -1.000000 0.000000
vn 0.960531 0.000000 -0.278175
vn 0.960531 0.000000 -0.278175
vn 0.960531 0.000000 -0.278175
vn 0.960531 0.000000 -0.278175
vn -0.960531 0.000000 0.278175
vn -0.960531 0.000000 0.278175
vn -0.960531 0.000000 0.278175
vn -0.960531 0.000000 0.278175
s off
g City_Miniture pCube28
f 287/482/823 288/483/824 290/485/825 289/484/826
f 289/484/827 290/485/828 292/487/829 291/486/830
f 291/486/831 292/487/832 294/489/833 293/488/834
f 293/488/835 294/489/836 288/491/837 287/490/838
f 288/483/839 294/492/840 292/493/841 290/485/842
f 293/494/843 287/482/844 289/484/845 291/495/846
g default
v -48.210478 47.501993 -78.465775
v -47.249948 47.501993 -78.743950
v -48.210478 50.707414 -78.465775
v -47.249948 50.707414 -78.743950
v -48.488653 50.707414 -79.426305
v -47.528123 50.707414 -79.704480
v -48.488653 47.501993 -79.426305
v -47.528123 47.501993 -79.704480
vt 0.375000 0.000000
vt 0.625000 0.000000
vt 0.375000 0.250000
vt 0.625000 0.250000
vt 0.375000 0.500000
vt 0.625000 0.500000
vt 0.375000 0.750000
vt 0.625000 0.750000
vt 0.375000 1.000000
vt 0.625000 1.000000
vt 0.875000 0.000000
vt 0.875000 0.250000
vt 0.125000 0.000000
vt 0.125000 0.250000
vn 0.278175 0.000000 0.960531
vn 0.278175 0.000000 0.960531
vn 0.278175 0.000000 0.960531
vn 0.278175 0.000000 0.960531
vn 0.000000 1.000000 0.000000
vn 0.000000 1.000000 0.000000
vn 0.000000 1.000000 0.000000
vn 0.000000 1.000000 0.000000
vn -0.278175 0.000000 -0.960531
vn -0.278175 0.000000 -0.960531
vn -0.278175 0.000000 -0.960531
vn -0.278175 0.000000 -0.960531
vn 0.000000 -1.000000 0.000000
vn 0.000000 -1.000000 0.000000
vn 0.000000 -1.000000 0.000000
vn 0.000000 -1.000000 0.000000
vn 0.960531 0.000000 -0.278175
vn 0.960531 0.000000 -0.278175
vn 0.960531 0.000000 -0.278175
vn 0.960531 0.000000 -0.278175
vn -0.960531 0.000000 0.278175
vn -0.960531 0.000000 0.278175
vn -0.960531 0.000000 0.278175
vn -0.960531 0.000000 0.278175
s off
g City_Miniture pCube16
f 295/496/847 296/497/848 298/499/849 297/498/850
f 297/498/851 298/499/852 300/501/853 299/500/854
f 299/500/855 300/501/856 302/503/857 301/502/858
f 301/502/859 302/503/860 296/505/861 295/504/862
f 296/497/863 302/506/864 300/507/865 298/499/866
f 301/508/867 295/496/868 297/498/869 299/509/870
g default
v -65.339657 47.595912 -80.196231
v -63.620737 47.595912 -80.196231
v -65.339657 52.275911 -80.196231
v -63.620737 52.275911 -80.196231
v -65.339657 52.275911 -81.915151
v -63.620737 52.275911 -81.915151
v -65.339657 47.595912 -81.915151
v -63.620737 47.595912 -81.915151
vt 0.375000 0.000000
vt 0.625000 0.000000
vt 0.375000 0.250000
vt 0.625000 0.250000
vt 0.375000 0.500000
vt 0.625000 0.500000
vt 0.375000 0.750000
vt 0.625000 0.750000
vt 0.375000 1.000000
vt 0.625000 1.000000
vt 0.875000 0.000000
vt 0.875000 0.250000
vt 0.125000 0.000000
vt 0.125000 0.250000
vn 0.000000 0.000000 1.000000
vn 0.000000 0.000000 1.000000
vn 0.000000 0.000000 1.000000
vn 0.000000 0.000000 1.000000
vn 0.000000 1.000000 0.000000
vn 0.000000 1.000000 0.000000
vn 0.000000 1.000000 0.000000
vn 0.000000 1.000000 0.000000
vn 0.000000 0.000000 -1.000000
vn 0.000000 0.000000 -1.000000
vn 0.000000 0.000000 -1.000000
vn 0.000000 0.000000 -1.000000
vn 0.000000 -1.000000 0.000000
vn 0.000000 -1.000000 0.000000
vn 0.000000 -1.000000 0.000000
vn 0.000000 -1.000000 0.000000
vn 1.000000 0.000000 0.000000
vn 1.000000 0.000000 0.000000
vn 1.000000 0.000000 0.000000
vn 1.000000 0.000000 0.000000
vn -1.000000 0.000000 0.000000
vn -1.000000 0.000000 0.000000
vn -1.000000 0.000000 0.000000
vn -1.000000 0.000000 0.000000
s off
g City_Miniture pCube19
f 303/510/871 304/511/872 306/513/873 305/512/874
f 305/512/875 306/513/876 308/515/877 307/514/878
f 307/514/879 308/515/880 310/517/881 309/516/882
f 309/516/883 310/517/884 304/519/885 303/518/886
f 304/511/887 310/520/888 308/521/889 306/513/890
f 309/522/891 303/510/892 305/512/893 307/523/894
g default
v -62.186339 47.432515 -66.653322
v -61.186339 47.432515 -66.653322
v -62.186339 49.313540 -66.653322
v -61.186339 49.313540 -66.653322
v -62.186339 49.313540 -67.653322
v -61.186339 49.313540 -67.653322
v -62.186339 47.432515 -67.653322
v -61.186339 47.432515 -67.653322
vt 0.375000 0.000000
vt 0.625000 0.000000
vt 0.375000 0.250000
vt 0.625000 0.250000
vt 0.375000 0.500000
vt 0.625000 0.500000
vt 0.375000 0.750000
vt 0.625000 0.750000
vt 0.375000 1.000000
vt 0.625000 1.000000
vt 0.875000 0.000000
vt 0.875000 0.250000
vt 0.125000 0.000000
vt 0.125000 0.250000
vn 0.000000 0.000000 1.000000
vn 0.000000 0.000000 1.000000
vn 0.000000 0.000000 1.000000
vn 0.000000 0.000000 1.000000
vn 0.000000 1.000000 0.000000
vn 0.000000 1.000000 0.000000
vn 0.000000 1.000000 0.000000
vn 0.000000 1.000000 0.000000
vn 0.000000 0.000000 -1.000000
vn 0.000000 0.000000 -1.000000
vn 0.000000 0.000000 -1.000000
vn 0.000000 0.000000 -1.000000
vn 0.000000 -1.000000 0.000000
vn 0.000000 -1.000000 0.000000
vn 0.000000 -1.000000 0.000000
vn 0.000000 -1.000000 0.000000
vn 1.000000 0.000000 0.000000
vn 1.000000 0.000000 0.000000
vn 1.000000 0.000000 0.000000
vn 1.000000 0.000000 0.000000
vn -1.000000 0.000000 0.000000
vn -1.000000 0.000000 0.000000
vn -1.000000 0.000000 0.000000
vn -1.000000 0.000000 0.000000
s off
g City_Miniture pCube32
f 311/524/895 312/525/896 314/527/897 313/526/898
f 313/526/899 314/527/900 316/529/901 315/528/902
f 315/528/903 316/529/904 318/531/905 317/530/906
f 317/530/907 318/531/908 312/533/909 311/532/910
f 312/525/911 318/534/912 316/535/913 314/527/914
f 317/536/915 311/524/916 313/526/917 315/537/918
g default
v -63.512022 47.432515 -72.100397
v -62.512022 47.432515 -72.100397
v -63.512022 49.313540 -72.100397
v -62.512022 49.313540 -72.100397
v -63.512022 49.313540 -73.100397
v -62.512022 49.313540 -73.100397
v -63.512022 47.432515 -73.100397
v -62.512022 47.432515 -73.100397
vt 0.375000 0.000000
vt 0.625000 0.000000
vt 0.375000 0.250000
vt 0.625000 0.250000
vt 0.375000 0.500000
vt 0.625000 0.500000
vt 0.375000 0.750000
vt 0.625000 0.750000
vt 0.375000 1.000000
vt 0.625000 1.000000
vt 0.875000 0.000000
vt 0.875000 0.250000
vt 0.125000 0.000000
vt 0.125000 0.250000
vn 0.000000 0.000000 1.000000
vn 0.000000 0.000000 1.000000
vn 0.000000 0.000000 1.000000
vn 0.000000 0.000000 1.000000
vn 0.000000 1.000000 0.000000
vn 0.000000 1.000000 0.000000
vn 0.000000 1.000000 0.000000
vn 0.000000 1.000000 0.000000
vn 0.000000 0.000000 -1.000000
vn 0.000000 0.000000 -1.000000
vn 0.000000 0.000000 -1.000000
vn 0.000000 0.000000 -1.000000
vn 0.000000 -1.000000 0.000000
vn 0.000000 -1.000000 0.000000
vn 0.000000 -1.000000 0.000000
vn 0.000000 -1.000000 0.000000
vn 1.000000 0.000000 0.000000
vn 1.000000 0.000000 0.000000
vn 1.000000 0.000000 0.000000
vn 1.000000 0.000000 0.000000
vn -1.000000 0.000000 0.000000
vn -1.000000 0.000000 0.000000
vn -1.000000 0.000000 0.000000
vn -1.000000 0.000000 0.000000
s off
g City_Miniture pCube22
f 319/538/919 320/539/920 322/541/921 321/540/922
f 321/540/923 322/541/924 324/543/925 323/542/926
f 323/542/927 324/543/928 326/545/929 325/544/930
f 325/544/931 326/545/932 320/547/933 319/546/934
f 320/539/935 326/548/936 324/549/937 322/541/938
f 325/550/939 319/538/940 321/540/941 323/551/942
g default
v -63.039003 47.432515 -76.480658
v -62.039003 47.432515 -76.480658
v -63.039003 49.313540 -76.480658
v -62.039003 49.313540 -76.480658
v -63.039003 49.313540 -77.480658
v -62.039003 49.313540 -77.480658
v -63.039003 47.432515 -77.480658
v -62.039003 47.432515 -77.480658
vt 0.375000 0.000000
vt 0.625000 0.000000
vt 0.375000 0.250000
vt 0.625000 0.250000
vt 0.375000 0.500000
vt 0.625000 0.500000
vt 0.375000 0.750000
vt 0.625000 0.750000
vt 0.375000 1.000000
vt 0.625000 1.000000
vt 0.875000 0.000000
vt 0.875000 0.250000
vt 0.125000 0.000000
vt 0.125000 0.250000
vn 0.000000 0.000000 1.000000
vn 0.000000 0.000000 1.000000
vn 0.000000 0.000000 1.000000
vn 0.000000 0.000000 1.000000
vn 0.000000 1.000000 0.000000
vn 0.000000 1.000000 0.000000
vn 0.000000 1.000000 0.000000
vn 0.000000 1.000000 0.000000
vn 0.000000 0.000000 -1.000000
vn 0.000000 0.000000 -1.000000
vn 0.000000 0.000000 -1.000000
vn 0.000000 0.000000 -1.000000
vn 0.000000 -1.000000 0.000000
vn 0.000000 -1.000000 0.000000
vn 0.000000 -1.000000 0.000000
vn 0.000000 -1.000000 0.000000
vn 1.000000 0.000000 0.000000
vn 1.000000 0.000000 0.000000
vn 1.000000 0.000000 0.000000
vn 1.000000 0.000000 0.000000
vn -1.000000 0.000000 0.000000
vn -1.000000 0.000000 0.000000
vn -1.000000 0.000000 0.000000
vn -1.000000 0.000000 0.000000
s off
g City_Miniture pCube21
f 327/552/943 328/553/944 330/555/945 329/554/946
f 329/554/947 330/555/948 332/557/949 331/556/950
f 331/556/951 332/557/952 334/559/953 333/558/954
f 333/558/955 334/559/956 328/561/957 327/560/958
f 328/553/959 334/562/960 332/563/961 330/555/962
f 333/564/963 327/552/964 329/554/965 331/565/966
g default
v -63.281863 47.432515 -74.572022
v -62.281863 47.432515 -74.572022
v -63.281863 49.313540 -74.572022
v -62.281863 49.313540 -74.572022
v -63.281863 49.313540 -75.572022
v -62.281863 49.313540 -75.572022
v -63.281863 47.432515 -75.572022
v -62.281863 47.432515 -75.572022
vt 0.375000 0.000000
vt 0.625000 0.000000
vt 0.375000 0.250000
vt 0.625000 0.250000
vt 0.375000 0.500000
vt 0.625000 0.500000
vt 0.375000 0.750000
vt 0.625000 0.750000
vt 0.375000 1.000000
vt 0.625000 1.000000
vt 0.875000 0.000000
vt 0.875000 0.250000
vt 0.125000 0.000000
vt 0.125000 0.250000
vn 0.000000 0.000000 1.000000
vn 0.000000 0.000000 1.000000
vn 0.000000 0.000000 1.000000
vn 0.000000 0.000000 1.000000
vn 0.000000 1.000000 0.000000
vn 0.000000 1.000000 0.000000
vn 0.000000 1.000000 0.000000
vn 0.000000 1.000000 0.000000
vn 0.000000 0.000000 -1.000000
vn 0.000000 0.000000 -1.000000
vn 0.000000 0.000000 -1.000000
vn 0.000000 0.000000 -1.000000
vn 0.000000 -1.000000 0.000000
vn 0.000000 -1.000000 0.000000
vn 0.000000 -1.000000 0.000000
vn 0.000000 -1.000000 0.000000
vn 1.000000 0.000000 0.000000
vn 1.000000 0.000000 0.000000
vn 1.000000 0.000000 0.000000
vn 1.000000 0.000000 0.000000
vn -1.000000 0.000000 0.000000
vn -1.000000 0.000000 0.000000
vn -1.000000 0.000000 0.000000
vn -1.000000 0.000000 0.000000
s off
g City_Miniture pCube20
f 335/566/967 336/567/968 338/569/969 337/568/970
f 337/568/971 338/569/972 340/571/973 339/570/974
f 339/570/975 340/571/976 342/573/977 341/572/978
f 341/572/979 342/573/980 336/575/981 335/574/982
f 336/567/983 342/576/984 340/577/985 338/569/986
f 341/578/987 335/566/988 337/568/989 339/579/990
g default
v -48.648920 47.432515 -76.546157
v -47.648920 47.432515 -76.546157
v -48.648920 49.313540 -76.546157
v -47.648920 49.313540 -76.546157
v -48.648920 49.313540 -77.546157
v -47.648920 49.313540 -77.546157
v -48.648920 47.432515 -77.546157
v -47.648920 47.432515 -77.546157
vt 0.375000 0.000000
vt 0.625000 0.000000
vt 0.375000 0.250000
vt 0.625000 0.250000
vt 0.375000 0.500000
vt 0.625000 0.500000
vt 0.375000 0.750000
vt 0.625000 0.750000
vt 0.375000 1.000000
vt 0.625000 1.000000
vt 0.875000 0.000000
vt 0.875000 0.250000
vt 0.125000 0.000000
vt 0.125000 0.250000
vn 0.000000 0.000000 1.000000
vn 0.000000 0.000000 1.000000
vn 0.000000 0.000000 1.000000
vn 0.000000 0.000000 1.000000
vn 0.000000 1.000000 0.000000
vn 0.000000 1.000000 0.000000
vn 0.000000 1.000000 0.000000
vn 0.000000 1.000000 0.000000
vn 0.000000 0.000000 -1.000000
vn 0.000000 0.000000 -1.000000
vn 0.000000 0.000000 -1.000000
vn 0.000000 0.000000 -1.000000
vn 0.000000 -1.000000 0.000000
vn 0.000000 -1.000000 0.000000
vn 0.000000 -1.000000 0.000000
vn 0.000000 -1.000000 0.000000
vn 1.000000 0.000000 0.000000
vn 1.000000 0.000000 0.000000
vn 1.000000 0.000000 0.000000
vn 1.000000 0.000000 0.000000
vn -1.000000 0.000000 0.000000
vn -1.000000 0.000000 0.000000
vn -1.000000 0.000000 0.000000
vn -1.000000 0.000000 0.000000
s off
g City_Miniture pCube29
f 343/580/991 344/581/992 346/583/993 345/582/994
f 345/582/995 346/583/996 348/585/997 347/584/998
f 347/584/999 348/585/1000 350/587/1001 349/586/1002
f 349/586/1003 350/587/1004 344/589/1005 343/588/1006
f 344/581/1007 350/590/1008 348/591/1009 346/583/1010
f 349/592/1011 343/580/1012 345/582/1013 347/593/1014
g default
v -54.627679 47.432515 -68.174499
v -53.627679 47.432515 -68.174499
v -54.627679 49.313540 -68.174499
v -53.627679 49.313540 -68.174499
v -54.627679 49.313540 -69.174499
v -53.627679 49.313540 -69.174499
v -54.627679 47.432515 -69.174499
v -53.627679 47.432515 -69.174499
vt 0.375000 0.000000
vt 0.625000 0.000000
vt 0.375000 0.250000
vt 0.625000 0.250000
vt 0.375000 0.500000
vt 0.625000 0.500000
vt 0.375000 0.750000
vt 0.625000 0.750000
vt 0.375000 1.000000
vt 0.625000 1.000000
vt 0.875000 0.000000
vt 0.875000 0.250000
vt 0.125000 0.000000
vt 0.125000 0.250000
vn 0.000000 0.000000 1.000000
vn 0.000000 0.000000 1.000000
vn 0.000000 0.000000 1.000000
vn 0.000000 0.000000 1.000000
vn 0.000000 1.000000 0.000000
vn 0.000000 1.000000 0.000000
vn 0.000000 1.000000 0.000000
vn 0.000000 1.000000 0.000000
vn 0.000000 0.000000 -1.000000
vn 0.000000 0.000000 -1.000000
vn 0.000000 0.000000 -1.000000
vn 0.000000 0.000000 -1.000000
vn 0.000000 -1.000000 0.000000
vn 0.000000 -1.000000 0.000000
vn 0.000000 -1.000000 0.000000
vn 0.000000 -1.000000 0.000000
vn 1.000000 0.000000 0.000000
vn 1.000000 0.000000 0.000000
vn 1.000000 0.000000 0.000000
vn 1.000000 0.000000 0.000000
vn -1.000000 0.000000 0.000000
vn -1.000000 0.000000 0.000000
vn -1.000000 0.000000 0.000000
vn -1.000000 0.000000 0.000000
s off
g City_Miniture pCube33
f 351/594/1015 352/595/1016 354/597/1017 353/596/1018
f 353/596/1019 354/597/1020 356/599/1021 355/598/1022
f 355/598/1023 356/599/1024 358/601/1025 357/600/1026
f 357/600/1027 358/601/1028 352/603/1029 351/602/1030
f 352/595/1031 358/604/1032 356/605/1033 354/597/1034
f 357/606/1035 351/594/1036 353/596/1037 355/607/1038
g default
v -46.573449 47.595912 -83.516692
v -44.854529 47.595912 -83.516692
v -46.573449 52.275911 -83.516692
v -44.854529 52.275911 -83.516692
v -46.573449 52.275911 -85.235612
v -44.854529 52.275911 -85.235612
v -46.573449 47.595912 -85.235612
v -44.854529 47.595912 -85.235612
vt 0.375000 0.000000
vt 0.625000 0.000000
vt 0.375000 0.250000
vt 0.625000 0.250000
vt 0.375000 0.500000
vt 0.625000 0.500000
vt 0.375000 0.750000
vt 0.625000 0.750000
vt 0.375000 1.000000
vt 0.625000 1.000000
vt 0.875000 0.000000
vt 0.875000 0.250000
vt 0.125000 0.000000
vt 0.125000 0.250000
vn 0.000000 0.000000 1.000000
vn 0.000000 0.000000 1.000000
vn 0.000000 0.000000 1.000000
vn 0.000000 0.000000 1.000000
vn 0.000000 1.000000 0.000000
vn 0.000000 1.000000 0.000000
vn 0.000000 1.000000 0.000000
vn 0.000000 1.000000 0.000000
vn 0.000000 0.000000 -1.000000
vn 0.000000 0.000000 -1.000000
vn 0.000000 0.000000 -1.000000
vn 0.000000 0.000000 -1.000000
vn 0.000000 -1.000000 0.000000
vn 0.000000 -1.000000 0.000000
vn 0.000000 -1.000000 0.000000
vn 0.000000 -1.000000 0.000000
vn 1.000000 0.000000 0.000000
vn 1.000000 0.000000 0.000000
vn 1.000000 0.000000 0.000000
vn 1.000000 0.000000 0.000000
vn -1.000000 0.000000 0.000000
vn -1.000000 0.000000 0.000000
vn -1.000000 0.000000 0.000000
vn -1.000000 0.000000 0.000000
s off
g City_Miniture pCube25
f 359/608/1039 360/609/1040 362/611/1041 361/610/1042
f 361/610/1043 362/611/1044 364/613/1045 363/612/1046
f 363/612/1047 364/613/1048 366/615/1049 365/614/1050
f 365/614/1051 366/615/1052 360/617/1053 359/616/1054
f 360/609/1055 366/618/1056 364/619/1057 362/611/1058
f 365/620/1059 359/608/1060 361/610/1061 363/621/1062
g default
v -49.901914 47.617244 -76.494927
v -48.901914 47.617244 -76.494927
v -49.901914 48.617244 -76.494927
v -48.901914 48.617244 -76.494927
v -49.901914 48.617244 -77.494927
v -48.901914 48.617244 -77.494927
v -49.901914 47.617244 -77.494927
v -48.901914 47.617244 -77.494927
vt 0.375000 0.000000
vt 0.625000 0.000000
vt 0.375000 0.250000
vt 0.625000 0.250000
vt 0.375000 0.500000
vt 0.625000 0.500000
vt 0.375000 0.750000
vt 0.625000 0.750000
vt 0.375000 1.000000
vt 0.625000 1.000000
vt 0.875000 0.000000
vt 0.875000 0.250000
vt 0.125000 0.000000
vt 0.125000 0.250000
vn 0.000000 0.000000 1.000000
vn 0.000000 0.000000 1.000000
vn 0.000000 0.000000 1.000000
vn 0.000000 0.000000 1.000000
vn 0.000000 1.000000 0.000000
vn 0.000000 1.000000 0.000000
vn 0.000000 1.000000 0.000000
vn 0.000000 1.000000 0.000000
vn 0.000000 0.000000 -1.000000
vn 0.000000 0.000000 -1.000000
vn 0.000000 0.000000 -1.000000
vn 0.000000 0.000000 -1.000000
vn 0.000000 -1.000000 0.000000
vn 0.000000 -1.000000 0.000000
vn 0.000000 -1.000000 0.000000
vn 0.000000 -1.000000 0.000000
vn 1.000000 0.000000 0.000000
vn 1.000000 0.000000 0.000000
vn 1.000000 0.000000 0.000000
vn 1.000000 0.000000 0.000000
vn -1.000000 0.000000 0.000000
vn -1.000000 0.000000 0.000000
vn -1.000000 0.000000 0.000000
vn -1.000000 0.000000 0.000000
s off
g City_Miniture pCube30
f 367/622/1063 368/623/1064 370/625/1065 369/624/1066
f 369/624/1067 370/625/1068 372/627/1069 371/626/1070
f 371/626/1071 372/627/1072 374/629/1073 373/628/1074
f 373/628/1075 374/629/1076 368/631/1077 367/630/1078
f 368/623/1079 374/632/1080 372/633/1081 370/625/1082
f 373/634/1083 367/622/1084 369/624/1085 371/635/1086
g default
v -58.637900 47.595912 -81.529393
v -56.918980 47.595912 -81.529393
v -58.637900 52.275911 -81.529393
v -56.918980 52.275911 -81.529393
v -58.637900 52.275911 -83.248313
v -56.918980 52.275911 -83.248313
v -58.637900 47.595912 -83.248313
v -56.918980 47.595912 -83.248313
vt 0.375000 0.000000
vt 0.625000 0.000000
vt 0.375000 0.250000
vt 0.625000 0.250000
vt 0.375000 0.500000
vt 0.625000 0.500000
vt 0.375000 0.750000
vt 0.625000 0.750000
vt 0.375000 1.000000
vt 0.625000 1.000000
vt 0.875000 0.000000
vt 0.875000 0.250000
vt 0.125000 0.000000
vt 0.125000 0.250000
vn 0.000000 0.000000 1.000000
vn 0.000000 0.000000 1.000000
vn 0.000000 0.000000 1.000000
vn 0.000000 0.000000 1.000000
vn 0.000000 1.000000 0.000000
vn 0.000000 1.000000 0.000000
vn 0.000000 1.000000 0.000000
vn 0.000000 1.000000 0.000000
vn 0.000000 0.000000 -1.000000
vn 0.000000 0.000000 -1.000000
vn 0.000000 0.000000 -1.000000
vn 0.000000 0.000000 -1.000000
vn 0.000000 -1.000000 0.000000
vn 0.000000 -1.000000 0.000000
vn 0.000000 -1.000000 0.000000
vn 0.000000 -1.000000 0.000000
vn 1.000000 0.000000 0.000000
vn 1.000000 0.000000 0.000000
vn 1.000000 0.000000 0.000000
vn 1.000000 0.000000 0.000000
vn -1.000000 0.000000 0.000000
vn -1.000000 0.000000 0.000000
vn -1.000000 0.000000 0.000000
vn -1.000000 0.000000 0.000000
s off
g City_Miniture pCube13
f 375/636/1087 376/637/1088 378/639/1089 377/638/1090
f 377/638/1091 378/639/1092 380/641/1093 379/640/1094
f 379/640/1095 380/641/1096 382/643/1097 381/642/1098
f 381/642/1099 382/643/1100 376/645/1101 375/644/1102
f 376/637/1103 382/646/1104 380/647/1105 378/639/1106
f 381/648/1107 375/636/1108 377/638/1109 379/649/1110
g default
v -59.463335 47.432515 -78.423413
v -58.463335 47.432515 -78.423413
v -59.463335 49.313540 -78.423413
v -58.463335 49.313540 -78.423413
v -59.463335 49.313540 -79.423413
v -58.463335 49.313540 -79.423413
v -59.463335 47.432515 -79.423413
v -58.463335 47.432515 -79.423413
vt 0.375000 0.000000
vt 0.625000 0.000000
vt 0.375000 0.250000
vt 0.625000 0.250000
vt 0.375000 0.500000
vt 0.625000 0.500000
vt 0.375000 0.750000
vt 0.625000 0.750000
vt 0.375000 1.000000
vt 0.625000 1.000000
vt 0.875000 0.000000
vt 0.875000 0.250000
vt 0.125000 0.000000
vt 0.125000 0.250000
vn 0.000000 0.000000 1.000000
vn 0.000000 0.000000 1.000000
vn 0.000000 0.000000 1.000000
vn 0.000000 0.000000 1.000000
vn 0.000000 1.000000 0.000000
vn 0.000000 1.000000 0.000000
vn 0.000000 1.000000 0.000000
vn 0.000000 1.000000 0.000000
vn 0.000000 0.000000 -1.000000
vn 0.000000 0.000000 -1.000000
vn 0.000000 0.000000 -1.000000
vn 0.000000 0.000000 -1.000000
vn 0.000000 -1.000000 0.000000
vn 0.000000 -1.000000 0.000000
vn 0.000000 -1.000000 0.000000
vn 0.000000 -1.000000 0.000000
vn 1.000000 0.000000 0.000000
vn 1.000000 0.000000 0.000000
vn 1.000000 0.000000 0.000000
vn 1.000000 0.000000 0.000000
vn -1.000000 0.000000 0.000000
vn -1.000000 0.000000 0.000000
vn -1.000000 0.000000 0.000000
vn -1.000000 0.000000 0.000000
s off
g City_Miniture pCube15
f 383/650/1111 384/651/1112 386/653/1113 385/652/1114
f 385/652/1115 386/653/1116 388/655/1117 387/654/1118
f 387/654/1119 388/655/1120 390/657/1121 389/656/1122
f 389/656/1123 390/657/1124 384/659/1125 383/658/1126
f 384/651/1127 390/660/1128 388/661/1129 386/653/1130
f 389/662/1131 383/650/1132 385/652/1133 387/663/1134
g default
v -46.850955 47.501993 -78.465775
v -45.890425 47.501993 -78.743950
v -46.850955 50.707414 -78.465775
v -45.890425 50.707414 -78.743950
v -47.129130 50.707414 -79.426305
v -46.168600 50.707414 -79.704480
v -47.129130 47.501993 -79.426305
v -46.168600 47.501993 -79.704480
vt 0.375000 0.000000
vt 0.625000 0.000000
vt 0.375000 0.250000
vt 0.625000 0.250000
vt 0.375000 0.500000
vt 0.625000 0.500000
vt 0.375000 0.750000
vt 0.625000 0.750000
vt 0.375000 1.000000
vt 0.625000 1.000000
vt 0.875000 0.000000
vt 0.875000 0.250000
vt 0.125000 0.000000
vt 0.125000 0.250000
vn 0.278175 0.000000 0.960531
vn 0.278175 0.000000 0.960531
vn 0.278175 0.000000 0.960531
vn 0.278175 0.000000 0.960531
vn 0.000000 1.000000 0.000000
vn 0.000000 1.000000 0.000000
vn 0.000000 1.000000 0.000000
vn 0.000000 1.000000 0.000000
vn -0.278175 0.000000 -0.960531
vn -0.278175 0.000000 -0.960531
vn -0.278175 0.000000 -0.960531
vn -0.278175 0.000000 -0.960531
vn 0.000000 -1.000000 0.000000
vn 0.000000 -1.000000 0.000000
vn 0.000000 -1.000000 0.000000
vn 0.000000 -1.000000 0.000000
vn 0.960531 0.000000 -0.278175
vn 0.960531 0.000000 -0.278175
vn 0.960531 0.000000 -0.278175
vn 0.960531 0.000000 -0.278175
vn -0.960531 0.000000 0.278175
vn -0.960531 0.000000 0.278175
vn -0.960531 0.000000 0.278175
vn -0.960531 0.000000 0.278175
s off
g City_Miniture pCube27
f 391/664/1135 392/665/1136 394/667/1137 393/666/1138
f 393/666/1139 394/667/1140 396/669/1141 395/668/1142
f 395/668/1143 396/669/1144 398/671/1145 397/670/1146
f 397/670/1147 398/671/1148 392/673/1149 391/672/1150
f 392/665/1151 398/674/1152 396/675/1153 394/667/1154
f 397/676/1155 391/664/1156 393/666/1157 395/677/1158
g default
v -63.436741 47.595912 -81.529393
v -61.717821 47.595912 -81.529393
v -63.436741 52.275911 -81.529393
v -61.717821 52.275911 -81.529393
v -63.436741 52.275911 -83.248313
v -61.717821 52.275911 -83.248313
v -63.436741 47.595912 -83.248313
v -61.717821 47.595912 -83.248313
vt 0.375000 0.000000
vt 0.625000 0.000000
vt 0.375000 0.250000
vt 0.625000 0.250000
vt 0.375000 0.500000
vt 0.625000 0.500000
vt 0.375000 0.750000
vt 0.625000 0.750000
vt 0.375000 1.000000
vt 0.625000 1.000000
vt 0.875000 0.000000
vt 0.875000 0.250000
vt 0.125000 0.000000
vt 0.125000 0.250000
vn 0.000000 0.000000 1.000000
vn 0.000000 0.000000 1.000000
vn 0.000000 0.000000 1.000000
vn 0.000000 0.000000 1.000000
vn 0.000000 1.000000 0.000000
vn 0.000000 1.000000 0.000000
vn 0.000000 1.000000 0.000000
vn 0.000000 1.000000 0.000000
vn 0.000000 0.000000 -1.000000
vn 0.000000 0.000000 -1.000000
vn 0.000000 0.000000 -1.000000
vn 0.000000 0.000000 -1.000000
vn 0.000000 -1.000000 0.000000
vn 0.000000 -1.000000 0.000000
vn 0.000000 -1.000000 0.000000
vn 0.000000 -1.000000 0.000000
vn 1.000000 0.000000 0.000000
vn 1.000000 0.000000 0.000000
vn 1.000000 0.000000 0.000000
vn 1.000000 0.000000 0.000000
vn -1.000000 0.000000 0.000000
vn -1.000000 0.000000 0.000000
vn -1.000000 0.000000 0.000000
vn -1.000000 0.000000 0.000000
s off
g City_Miniture pCube17
f 399/678/1159 400/679/1160 402/681/1161 401/680/1162
f 401/680/1163 402/681/1164 404/683/1165 403/682/1166
f 403/682/1167 404/683/1168 406/685/1169 405/684/1170
f 405/684/1171 406/685/1172 400/687/1173 399/686/1174
f 400/679/1175 406/688/1176 404/689/1177 402/681/1178
f 405/690/1179 399/678/1180 401/680/1181 403/691/1182
