# This file uses centimeters as units for non-parametric coordinates.

mtllib FloatingIsland_3_WIP1.mtl
g default
v -124.499561 47.984506 -103.475551
v -141.293868 47.984506 -133.773264
v -106.658122 47.984506 -133.168685
v -124.150512 23.152989 -123.472495
v -130.530730 32.357484 -127.317108
v -117.935594 32.357484 -127.097264
v -124.423553 32.357484 -116.299488
v -137.534335 43.757606 -131.529829
v -110.911009 43.757606 -131.065114
v -124.625117 43.757606 -108.240993
v -124.398159 30.895589 -117.753835
v -129.283908 30.895589 -126.567940
v -119.207801 30.895589 -126.392068
v -112.288374 41.935154 -130.301628
v -124.597644 41.935154 -109.815585
v -136.184443 41.935154 -130.718724
v -114.214845 37.985993 -128.979948
v -124.348772 37.985993 -112.114238
v -133.887935 37.985993 -129.323325
v -124.251034 30.096971 -117.713373
v -129.087798 30.096971 -126.439115
v -119.112705 30.096971 -126.264997
v -116.859682 34.486509 -127.513868
v -124.296003 34.486509 -115.137768
v -131.295869 34.486509 -127.765861
v -111.569980 41.485468 -130.445998
v -136.480006 41.485468 -130.880808
v -124.401544 41.485468 -109.090695
v -109.491889 44.235064 -131.597903
v -124.443016 44.235064 -106.715054
v -138.516640 44.235064 -132.104524
v -124.301271 34.745828 -114.835406
v -131.555078 34.745828 -127.921600
v -116.595202 34.745828 -127.660494
v -124.493909 47.609559 -103.799498
v -106.941501 47.609559 -133.011628
v -141.016138 47.609559 -133.606398
v -106.658122 49.414659 -133.168685
v -124.499561 49.414659 -103.475551
v -141.293868 49.414659 -133.773264
v -131.295869 32.799710 -127.765861
v -116.859682 32.799710 -127.513868
v -124.296003 32.799710 -115.137768
v -131.295869 33.131872 -127.765861
v -116.859682 33.131872 -127.513868
v -124.296003 33.131872 -115.137768
vt 0.375000 0.033494
vt 0.375000 0.466506
vt 0.750000 0.250000
vt 0.250000 0.500000
vt 0.416667 0.500000
vt 0.583333 0.500000
vt 0.750000 0.500000
vt 0.500000 1.000000
vt 0.466667 0.800000
vt 0.533333 0.800000
vt 0.600000 0.800000
vt 0.400000 0.800000
vt 0.431667 0.590000
vt 0.568333 0.590000
vt 0.705000 0.590000
vt 0.295000 0.590000
vt 0.580000 0.840000
vt 0.420000 0.840000
vt 0.473333 0.840000
vt 0.526667 0.840000
vt 0.561333 0.632000
vt 0.684000 0.632000
vt 0.316000 0.632000
vt 0.438667 0.632000
vt 0.547333 0.716000
vt 0.642000 0.716000
vt 0.358000 0.716000
vt 0.452667 0.716000
vt 0.572000 0.856000
vt 0.428000 0.856000
vt 0.476000 0.856000
vt 0.524000 0.856000
vt 0.534733 0.791600
vt 0.604200 0.791600
vt 0.395800 0.791600
vt 0.465267 0.791600
vt 0.559933 0.640400
vt 0.440067 0.640400
vt 0.679800 0.640400
vt 0.320200 0.640400
vt 0.569833 0.581000
vt 0.709500 0.581000
vt 0.290500 0.581000
vt 0.430167 0.581000
vt 0.607980 0.784040
vt 0.392020 0.784040
vt 0.464007 0.784040
vt 0.535993 0.784040
vt 0.745950 0.508100
vt 0.254050 0.508100
vt 0.581983 0.508100
vt 0.418017 0.508100
vt 0.375000 0.033494
vt 0.750000 0.250000
vt 0.375000 0.466506
vt 0.465267 0.791600
vt 0.534733 0.791600
vt 0.604200 0.791600
vt 0.395800 0.791600
vt 0.000000 0.000000
vt 1.000000 0.000000
vt 1.000000 1.000000
vt 0.000000 1.000000
vt 0.000000 0.000000
vt 1.000000 0.000000
vt 1.000000 1.000000
vt 0.000000 1.000000
vt 0.000000 0.000000
vt 1.000000 0.000000
vt 1.000000 1.000000
vt 0.000000 1.000000
vn -0.000000 1.000000 -0.000000
vn -0.000000 1.000000 -0.000000
vn -0.000000 1.000000 -0.000000
vn -0.826923 -0.325720 0.458372
vn -0.830221 -0.314563 0.460199
vn -0.807890 -0.383104 0.447821
vn 0.016534 -0.320082 -0.947245
vn 0.016476 -0.329735 -0.943930
vn 0.016121 -0.383105 -0.923564
vn 0.831965 -0.240707 0.499894
vn 0.831634 -0.242259 0.499695
vn 0.791770 -0.383105 0.475743
vn 0.012437 -0.701524 -0.712537
vn 0.012437 -0.701524 -0.712537
vn 0.013996 -0.597345 -0.801862
vn 0.014045 -0.593609 -0.804631
vn 0.454250 -0.848033 0.272941
vn 0.454250 -0.848033 0.272941
vn 0.595550 -0.719214 0.357842
vn 0.595897 -0.718822 0.358051
vn -0.611895 -0.714522 0.339179
vn -0.611895 -0.714522 0.339179
vn -0.698006 -0.602567 0.386911
vn -0.695207 -0.606782 0.385360
vn 0.015867 -0.416423 -0.909032
vn 0.015904 -0.411733 -0.911166
vn 0.013913 -0.603721 -0.797074
vn 0.013986 -0.598116 -0.801288
vn 0.768568 -0.442768 0.461802
vn 0.768841 -0.442121 0.461966
vn 0.582830 -0.733260 0.350200
vn 0.583325 -0.732724 0.350497
vn -0.796584 -0.412897 0.441554
vn -0.794441 -0.418259 0.440366
vn -0.694467 -0.607889 0.384950
vn -0.690233 -0.614161 0.382602
vn -0.807176 -0.385067 0.447426
vn -0.812015 -0.371531 0.450108
vn 0.016169 -0.376301 -0.926356
vn 0.016083 -0.388224 -0.921425
vn 0.814349 -0.312109 0.489309
vn 0.813879 -0.313771 0.489027
vn 0.851739 -0.112363 0.511776
vn 0.851460 -0.115208 0.511609
vn -0.843083 -0.266112 0.467329
vn -0.848536 -0.242398 0.470351
vn 0.016886 -0.252634 -0.967415
vn 0.016788 -0.273292 -0.961785
vn 0.834127 -0.230300 0.501193
vn 0.834973 -0.226084 0.501702
vn -0.832282 -0.307360 0.461342
vn -0.821132 -0.344342 0.455161
vn 0.016364 -0.347602 -0.937499
vn 0.016563 -0.315161 -0.948894
vn 0.789095 -0.390545 0.474135
vn 0.789095 -0.390545 0.474135
vn 0.740490 -0.503698 0.444931
vn 0.740490 -0.503698 0.444931
vn -0.805160 -0.390545 0.446308
vn -0.805160 -0.390545 0.446308
vn -0.755565 -0.503701 0.418817
vn -0.755565 -0.503701 0.418817
vn 0.016065 -0.390546 -0.920443
vn 0.016065 -0.390546 -0.920443
vn 0.015076 -0.503713 -0.863740
vn 0.015076 -0.503713 -0.863740
vn 0.016038 -0.394332 -0.918828
vn 0.016038 -0.394332 -0.918828
vn -0.803747 -0.394332 0.445525
vn -0.803747 -0.394332 0.445525
vn 0.787709 -0.394335 0.473303
vn 0.787709 -0.394335 0.473303
vn 0.855642 -0.059620 0.514122
vn 0.855642 -0.059619 0.514122
vn 0.786862 -0.396628 0.472794
vn 0.786862 -0.396628 0.472794
vn -0.873064 -0.059617 0.483948
vn -0.873064 -0.059618 0.483948
vn -0.802884 -0.396626 0.445046
vn -0.802884 -0.396626 0.445046
vn 0.017422 -0.059610 -0.998070
vn 0.017422 -0.059610 -0.998070
vn 0.016021 -0.396624 -0.917841
vn 0.016021 -0.396624 -0.917841
vn 0.857167 0.000000 0.515038
vn 0.857167 0.000000 0.515038
vn 0.017453 -0.000000 -0.999848
vn 0.017453 -0.000000 -0.999848
vn -0.874620 0.000000 0.484810
vn -0.874620 0.000000 0.484810
vn 0.017453 -0.000000 -0.999848
vn 0.017453 -0.000000 -0.999848
vn 0.017453 -0.000000 -0.999848
vn 0.017453 -0.000000 -0.999848
vn 0.857167 0.000000 0.515038
vn 0.857167 0.000000 0.515038
vn 0.857167 0.000000 0.515038
vn 0.857167 0.000000 0.515038
vn -0.874620 -0.000000 0.484810
vn -0.874620 -0.000000 0.484810
vn -0.874620 -0.000000 0.484810
vn -0.874620 -0.000000 0.484810
s off
g pCone6
usemtl initialShadingGroup
f 39/53/1 38/54/2 40/55/3
s 1
f 20/30/4 21/31/5 4/8/6
s 2
f 21/31/7 22/32/8 4/8/9
s 3
f 22/32/10 20/29/11 4/8/12
s 2
f 41/56/13 42/57/14 6/10/15 5/9/16
s 3
f 42/57/17 43/58/18 7/11/19 6/10/20
s 1
f 43/35/21 41/56/22 5/9/23 7/12/24
s 7
f 31/44/25 29/41/26 9/14/27 8/13/28
s 8
f 29/41/29 30/42/30 10/15/31 9/14/32
s 9
f 30/43/33 31/44/34 8/13/35 10/16/36
s 1
f 7/12/24 5/9/23 12/19/37 11/18/38
s 2
f 5/9/16 6/10/15 13/20/39 12/19/40
s 3
f 6/10/20 7/11/19 11/17/41 13/20/42
s 8
f 9/14/32 10/15/31 15/22/43 14/21/44
s 9
f 10/16/36 8/13/35 16/24/45 15/23/46
s 7
f 8/13/28 9/14/27 14/21/47 16/24/48
s 8
f 14/21/44 15/22/43 28/39/49 26/37/50
s 9
f 15/23/46 16/24/45 27/38/51 28/40/52
s 7
f 16/24/48 14/21/47 26/37/53 27/38/54
s 1
f 11/18/38 12/19/37 21/31/5 20/30/4
s 2
f 12/19/40 13/20/39 22/32/8 21/31/7
s 3
f 13/20/42 11/17/41 20/29/11 22/32/10
s 8
f 34/48/55 32/45/56 24/34/57 23/33/58
s 9
f 32/46/59 33/47/60 25/36/61 24/59/62
s 7
f 33/47/63 34/48/64 23/33/65 25/36/66
f 27/38/54 26/37/53 17/25/67 19/28/68
s 9
f 28/40/52 27/38/51 19/28/69 18/27/70
s 8
f 26/37/50 28/39/49 18/26/71 17/25/72
f 3/6/73 1/7/74 35/49/75 36/51/76
s 9
f 1/4/77 2/5/78 37/52/79 35/50/80
s 7
f 2/5/81 3/6/82 36/51/83 37/52/84
s 9
f 18/27/70 19/28/69 33/47/60 32/46/59
s 7
f 19/28/68 17/25/67 34/48/64 33/47/63
s 8
f 17/25/72 18/26/71 32/45/56 34/48/55
f 36/51/76 35/49/75 30/42/30 29/41/29
s 7
f 37/52/84 36/51/83 29/41/26 31/44/25
s 9
f 35/50/80 37/52/79 31/44/34 30/43/33
s 8
f 1/1/74 3/3/73 38/54/85 39/53/86
s 7
f 3/3/82 2/2/81 40/55/87 38/54/88
s 9
f 2/2/78 1/1/77 39/53/89 40/55/90
s off
f 42/60/91 41/61/92 44/62/93 45/63/94
f 43/64/95 42/65/96 45/66/97 46/67/98
f 41/68/99 43/69/100 46/70/101 44/71/102
