# This file uses centimeters as units for non-parametric coordinates.

mtllib FloatingPlattform_1_WIP1.mtl
g default
v 6.610110 0.864517 6.124280
v 7.110109 0.864517 6.124280
v 7.610110 0.864517 6.124280
v 8.110110 0.864517 6.124280
v 8.610109 0.864517 6.124280
v 6.610110 0.947851 6.124280
v 7.110109 0.947851 6.124280
v 7.610110 0.947851 6.124280
v 8.110110 0.947851 6.124280
v 8.610109 0.947851 6.124280
v 6.610110 1.031184 6.124280
v 7.110109 1.031184 6.124280
v 7.610110 1.031184 6.124280
v 8.110110 1.031184 6.124280
v 8.610109 1.031184 6.124280
v 6.610110 1.114517 6.124280
v 7.110109 1.114517 6.124280
v 7.610110 1.114517 6.124280
v 8.110110 1.114517 6.124280
v 8.610109 1.114517 6.124280
v 6.610110 1.197851 6.124280
v 7.110109 1.197851 6.124280
v 7.610110 1.197851 6.124280
v 8.110110 1.197851 6.124280
v 8.610109 1.197851 6.124280
v 6.610110 1.281184 5.695709
v 7.110109 1.281184 5.695709
v 7.610110 1.281184 5.695709
v 8.110110 1.281184 5.695709
v 8.610109 1.281184 5.695709
v 6.610110 1.281184 5.267137
v 7.110109 1.281184 5.267137
v 7.610110 1.281184 5.267137
v 8.110110 1.281184 5.267137
v 8.610109 1.281184 5.267137
v 6.610110 1.281184 4.838565
v 7.110109 1.281184 4.838565
v 7.610110 1.281184 4.838565
v 8.110110 1.281184 4.838565
v 8.610109 1.281184 4.838565
v 6.610110 1.281184 4.409994
v 7.110109 1.281184 4.409994
v 7.610110 1.281184 4.409994
v 8.110110 1.281184 4.409994
v 8.610109 1.281184 4.409994
v 6.610110 1.281184 3.981423
v 7.110109 1.281184 3.981423
v 7.610110 1.281184 3.981423
v 8.110110 1.281184 3.981423
v 8.610109 1.281184 3.981423
v 6.610110 1.281184 3.552851
v 7.110109 1.281184 3.552851
v 7.610110 1.281184 3.552851
v 8.110110 1.281184 3.552851
v 8.610109 1.281184 3.552851
v 6.610110 1.197851 3.124280
v 7.110109 1.197851 3.124280
v 7.610110 1.197851 3.124280
v 8.110110 1.197851 3.124280
v 8.610109 1.197851 3.124280
v 6.610110 1.114517 3.124280
v 7.110109 1.114517 3.124280
v 7.610110 1.114517 3.124280
v 8.110110 1.114517 3.124280
v 8.610109 1.114517 3.124280
v 6.610110 1.031184 3.124280
v 7.110109 1.031184 3.124280
v 7.610110 1.031184 3.124280
v 8.110110 1.031184 3.124280
v 8.610109 1.031184 3.124280
v 6.610110 0.947851 3.124280
v 7.110109 0.947851 3.124280
v 7.610110 0.947851 3.124280
v 8.110110 0.947851 3.124280
v 8.610109 0.947851 3.124280
v 6.610110 0.864517 3.124280
v 7.110109 0.864517 3.124280
v 7.610110 0.864517 3.124280
v 8.110110 0.864517 3.124280
v 8.610109 0.864517 3.124280
v 6.610110 0.781184 3.552851
v 7.110109 0.781184 3.552851
v 7.610110 0.781184 3.552851
v 8.110110 0.781184 3.552851
v 8.610109 0.781184 3.552851
v 6.610110 0.781184 3.981423
v 7.110109 0.781184 3.981423
v 7.610110 0.781184 3.981423
v 8.110110 0.781184 3.981423
v 8.610109 0.781184 3.981423
v 6.610110 0.781184 4.409994
v 7.110109 0.781184 4.409994
v 7.610110 0.781184 4.409994
v 8.110110 0.781184 4.409994
v 8.610109 0.781184 4.409994
v 6.610110 0.781184 4.838565
v 7.110109 0.781184 4.838565
v 7.610110 0.781184 4.838565
v 8.110110 0.781184 4.838565
v 8.610109 0.781184 4.838565
v 6.610110 0.781184 5.267137
v 7.110109 0.781184 5.267137
v 7.610110 0.781184 5.267137
v 8.110110 0.781184 5.267137
v 8.610109 0.781184 5.267137
v 6.610110 0.781184 5.695709
v 7.110109 0.781184 5.695709
v 7.610110 0.781184 5.695709
v 8.110110 0.781184 5.695709
v 8.610109 0.781184 5.695709
v 9.110110 0.864517 3.552851
v 9.110110 0.864517 3.981423
v 9.110110 0.864517 4.409994
v 9.110110 0.864517 4.838565
v 9.110110 0.864517 5.267137
v 9.110110 0.864517 5.695709
v 9.110110 0.947851 3.552851
v 9.110110 0.947851 3.981423
v 9.110110 0.947851 4.409994
v 9.110110 0.947851 4.838565
v 9.110110 0.947851 5.267137
v 9.110110 0.947851 5.695709
v 9.110110 1.031184 3.552851
v 9.110110 1.031184 3.981423
v 9.110110 1.031184 4.409994
v 9.110110 1.031184 4.838565
v 9.110110 1.031184 5.267137
v 9.110110 1.031184 5.695709
v 9.110110 1.114517 3.552851
v 9.110110 1.114517 3.981423
v 9.110110 1.114517 4.409994
v 9.110110 1.114517 4.838565
v 9.110110 1.114517 5.267137
v 9.110110 1.114517 5.695709
v 9.110110 1.197851 3.552851
v 9.110110 1.197851 3.981423
v 9.110110 1.197851 4.409994
v 9.110110 1.197851 4.838565
v 9.110110 1.197851 5.267137
v 9.110110 1.197851 5.695709
v 6.110110 0.864517 3.552851
v 6.110110 0.864517 3.981423
v 6.110110 0.864517 4.409994
v 6.110110 0.864517 4.838565
v 6.110110 0.864517 5.267137
v 6.110110 0.864517 5.695709
v 6.110110 0.947851 3.552851
v 6.110110 0.947851 3.981423
v 6.110110 0.947851 4.409994
v 6.110110 0.947851 4.838565
v 6.110110 0.947851 5.267137
v 6.110110 0.947851 5.695709
v 6.110110 1.031184 3.552851
v 6.110110 1.031184 3.981423
v 6.110110 1.031184 4.409994
v 6.110110 1.031184 4.838565
v 6.110110 1.031184 5.267137
v 6.110110 1.031184 5.695709
v 6.110110 1.114517 3.552851
v 6.110110 1.114517 3.981423
v 6.110110 1.114517 4.409994
v 6.110110 1.114517 4.838565
v 6.110110 1.114517 5.267137
v 6.110110 1.114517 5.695709
v 6.110110 1.197851 3.552851
v 6.110110 1.197851 3.981423
v 6.110110 1.197851 4.409994
v 6.110110 1.197851 4.838565
v 6.110110 1.197851 5.267137
v 6.110110 1.197851 5.695709
v 6.035109 0.768684 6.199279
v 6.560110 0.768684 6.199279
v 6.560110 0.856184 6.199279
v 6.035109 0.856184 6.199279
v 7.085109 0.768684 6.199279
v 7.085109 0.856184 6.199279
v 7.610110 0.768684 6.199279
v 7.610110 0.856184 6.199279
v 8.135109 0.768684 6.199279
v 8.135109 0.856184 6.199279
v 8.660109 0.768684 6.199279
v 8.660109 0.856184 6.199279
v 9.185111 0.768684 6.199279
v 9.185111 0.856184 6.199279
v 6.560110 0.943684 6.199279
v 6.035109 0.943684 6.199279
v 9.185111 0.943684 6.199279
v 8.660109 0.943684 6.199279
v 6.560110 1.031184 6.199279
v 6.035109 1.031184 6.199279
v 9.185111 1.031184 6.199279
v 8.660109 1.031184 6.199279
v 6.560110 1.118684 6.199279
v 6.035109 1.118684 6.199279
v 9.185111 1.118684 6.199279
v 8.660109 1.118684 6.199279
v 6.560110 1.206184 6.199279
v 6.035109 1.206184 6.199279
v 9.185111 1.206184 6.199279
v 8.660109 1.206184 6.199279
v 6.560110 1.293684 6.199279
v 6.035109 1.293684 6.199279
v 7.085109 1.206184 6.199279
v 7.085109 1.293684 6.199279
v 7.610110 1.206184 6.199279
v 7.610110 1.293684 6.199279
v 8.135109 1.206184 6.199279
v 8.135109 1.293684 6.199279
v 8.660109 1.293684 6.199279
v 9.185111 1.293684 6.199279
v 6.560110 1.293684 5.749281
v 6.035109 1.293684 5.749281
v 7.085109 1.293684 5.749281
v 7.610110 1.293684 5.749281
v 8.135109 1.293684 5.749281
v 8.660109 1.293684 5.749281
v 9.185111 1.293684 5.749281
v 6.560110 1.293684 5.299280
v 6.035109 1.293684 5.299280
v 9.185111 1.293684 5.299280
v 8.660109 1.293684 5.299280
v 6.560110 1.293684 4.849280
v 6.035109 1.293684 4.849280
v 9.185111 1.293684 4.849280
v 8.660109 1.293684 4.849280
v 6.560110 1.293684 4.399280
v 6.035109 1.293684 4.399280
v 9.185111 1.293684 4.399280
v 8.660109 1.293684 4.399280
v 6.560110 1.293684 3.949280
v 6.035109 1.293684 3.949280
v 9.185111 1.293684 3.949280
v 8.660109 1.293684 3.949280
v 6.560110 1.293684 3.499280
v 6.035109 1.293684 3.499280
v 9.185111 1.293684 3.499280
v 8.660109 1.293684 3.499280
v 6.560110 1.293684 3.049280
v 6.035109 1.293684 3.049280
v 7.085109 1.293684 3.499280
v 7.085109 1.293684 3.049280
v 7.610110 1.293684 3.499280
v 7.610110 1.293684 3.049280
v 8.135109 1.293684 3.499280
v 8.135109 1.293684 3.049280
v 8.660109 1.293684 3.049280
v 9.185111 1.293684 3.049280
v 6.560110 1.206184 3.049280
v 6.035109 1.206184 3.049280
v 7.085109 1.206184 3.049280
v 7.610110 1.206184 3.049280
v 8.135109 1.206184 3.049280
v 8.660109 1.206184 3.049280
v 9.185111 1.206184 3.049280
v 6.560110 1.118684 3.049280
v 6.035109 1.118684 3.049280
v 9.185111 1.118684 3.049280
v 8.660109 1.118684 3.049280
v 6.560110 1.031184 3.049280
v 6.035109 1.031184 3.049280
v 9.185111 1.031184 3.049280
v 8.660109 1.031184 3.049280
v 6.560110 0.943684 3.049280
v 6.035109 0.943684 3.049280
v 9.185111 0.943684 3.049280
v 8.660109 0.943684 3.049280
v 6.560110 0.856184 3.049280
v 6.035109 0.856184 3.049280
v 9.185111 0.856184 3.049280
v 8.660109 0.856184 3.049280
v 6.560110 0.768684 3.049280
v 6.035109 0.768684 3.049280
v 7.085109 0.856184 3.049280
v 7.085109 0.768684 3.049280
v 7.610110 0.856184 3.049280
v 7.610110 0.768684 3.049280
v 8.135109 0.856184 3.049280
v 8.135109 0.768684 3.049280
v 8.660109 0.768684 3.049280
v 9.185111 0.768684 3.049280
v 6.560110 0.768684 3.499280
v 6.035109 0.768684 3.499280
v 7.085109 0.768684 3.499280
v 7.610110 0.768684 3.499280
v 8.135109 0.768684 3.499280
v 8.660109 0.768684 3.499280
v 9.185111 0.768684 3.499280
v 6.560110 0.768684 3.949280
v 6.035109 0.768684 3.949280
v 9.185111 0.768684 3.949280
v 8.660109 0.768684 3.949280
v 6.560110 0.768684 4.399280
v 6.035109 0.768684 4.399280
v 9.185111 0.768684 4.399280
v 8.660109 0.768684 4.399280
v 6.560110 0.768684 4.849280
v 6.035109 0.768684 4.849280
v 9.185111 0.768684 4.849280
v 8.660109 0.768684 4.849280
v 6.560110 0.768684 5.299280
v 6.035109 0.768684 5.299280
v 9.185111 0.768684 5.299280
v 8.660109 0.768684 5.299280
v 6.560110 0.768684 5.749281
v 6.035109 0.768684 5.749281
v 9.185111 0.768684 5.749281
v 8.660109 0.768684 5.749281
v 7.085109 0.768684 5.749281
v 7.610110 0.768684 5.749281
v 8.135109 0.768684 5.749281
v 9.185111 0.856184 3.499280
v 9.185111 0.856184 3.949280
v 9.185111 0.856184 4.399280
v 9.185111 0.856184 4.849280
v 9.185111 0.856184 5.299280
v 9.185111 0.856184 5.749281
v 9.185111 0.943684 3.499280
v 9.185111 0.943684 5.749281
v 9.185111 1.031184 3.499280
v 9.185111 1.031184 5.749281
v 9.185111 1.118684 3.499280
v 9.185111 1.118684 5.749281
v 9.185111 1.206184 3.499280
v 9.185111 1.206184 5.749281
v 9.185111 1.206184 3.949280
v 9.185111 1.206184 4.399280
v 9.185111 1.206184 4.849280
v 9.185111 1.206184 5.299280
v 6.035109 0.856184 3.499280
v 6.035109 0.856184 3.949280
v 6.035109 0.856184 4.399280
v 6.035109 0.856184 4.849280
v 6.035109 0.856184 5.299280
v 6.035109 0.856184 5.749281
v 6.035109 0.943684 3.499280
v 6.035109 0.943684 5.749281
v 6.035109 1.031184 3.499280
v 6.035109 1.031184 5.749281
v 6.035109 1.118684 3.499280
v 6.035109 1.118684 5.749281
v 6.035109 1.206184 3.499280
v 6.035109 1.206184 5.749281
v 6.035109 1.206184 3.949280
v 6.035109 1.206184 4.399280
v 6.035109 1.206184 4.849280
v 6.035109 1.206184 5.299280
vt 0.375000 0.000000
vt 0.416667 0.000000
vt 0.458333 0.000000
vt 0.500000 0.000000
vt 0.541667 0.000000
vt 0.583333 0.000000
vt 0.625000 0.000000
vt 0.375000 0.041667
vt 0.416667 0.041667
vt 0.458333 0.041667
vt 0.500000 0.041667
vt 0.541667 0.041667
vt 0.583333 0.041667
vt 0.625000 0.041667
vt 0.375000 0.083333
vt 0.416667 0.083333
vt 0.458333 0.083333
vt 0.500000 0.083333
vt 0.541667 0.083333
vt 0.583333 0.083333
vt 0.625000 0.083333
vt 0.375000 0.125000
vt 0.416667 0.125000
vt 0.458333 0.125000
vt 0.500000 0.125000
vt 0.541667 0.125000
vt 0.583333 0.125000
vt 0.625000 0.125000
vt 0.375000 0.166667
vt 0.416667 0.166667
vt 0.458333 0.166667
vt 0.500000 0.166667
vt 0.541667 0.166667
vt 0.583333 0.166667
vt 0.625000 0.166667
vt 0.375000 0.208333
vt 0.416667 0.208333
vt 0.458333 0.208333
vt 0.500000 0.208333
vt 0.541667 0.208333
vt 0.583333 0.208333
vt 0.625000 0.208333
vt 0.375000 0.250000
vt 0.416667 0.250000
vt 0.458333 0.250000
vt 0.500000 0.250000
vt 0.541667 0.250000
vt 0.583333 0.250000
vt 0.625000 0.250000
vt 0.375000 0.285714
vt 0.416667 0.285714
vt 0.458333 0.285714
vt 0.500000 0.285714
vt 0.541667 0.285714
vt 0.583333 0.285714
vt 0.625000 0.285714
vt 0.375000 0.321429
vt 0.416667 0.321429
vt 0.458333 0.321429
vt 0.500000 0.321429
vt 0.541667 0.321429
vt 0.583333 0.321429
vt 0.625000 0.321429
vt 0.375000 0.357143
vt 0.416667 0.357143
vt 0.458333 0.357143
vt 0.500000 0.357143
vt 0.541667 0.357143
vt 0.583333 0.357143
vt 0.625000 0.357143
vt 0.375000 0.392857
vt 0.416667 0.392857
vt 0.458333 0.392857
vt 0.500000 0.392857
vt 0.541667 0.392857
vt 0.583333 0.392857
vt 0.625000 0.392857
vt 0.375000 0.428571
vt 0.416667 0.428571
vt 0.458333 0.428571
vt 0.500000 0.428571
vt 0.541667 0.428571
vt 0.583333 0.428571
vt 0.625000 0.428571
vt 0.375000 0.464286
vt 0.416667 0.464286
vt 0.458333 0.464286
vt 0.500000 0.464286
vt 0.541667 0.464286
vt 0.583333 0.464286
vt 0.625000 0.464286
vt 0.375000 0.500000
vt 0.416667 0.500000
vt 0.458333 0.500000
vt 0.500000 0.500000
vt 0.541667 0.500000
vt 0.583333 0.500000
vt 0.625000 0.500000
vt 0.375000 0.541667
vt 0.416667 0.541667
vt 0.458333 0.541667
vt 0.500000 0.541667
vt 0.541667 0.541667
vt 0.583333 0.541667
vt 0.625000 0.541667
vt 0.375000 0.583333
vt 0.416667 0.583333
vt 0.458333 0.583333
vt 0.500000 0.583333
vt 0.541667 0.583333
vt 0.583333 0.583333
vt 0.625000 0.583333
vt 0.375000 0.625000
vt 0.416667 0.625000
vt 0.458333 0.625000
vt 0.500000 0.625000
vt 0.541667 0.625000
vt 0.583333 0.625000
vt 0.625000 0.625000
vt 0.375000 0.666667
vt 0.416667 0.666667
vt 0.458333 0.666667
vt 0.500000 0.666667
vt 0.541667 0.666667
vt 0.583333 0.666667
vt 0.625000 0.666667
vt 0.375000 0.708333
vt 0.416667 0.708333
vt 0.458333 0.708333
vt 0.500000 0.708333
vt 0.541667 0.708333
vt 0.583333 0.708333
vt 0.625000 0.708333
vt 0.375000 0.750000
vt 0.416667 0.750000
vt 0.458333 0.750000
vt 0.500000 0.750000
vt 0.541667 0.750000
vt 0.583333 0.750000
vt 0.625000 0.750000
vt 0.375000 0.785714
vt 0.416667 0.785714
vt 0.458333 0.785714
vt 0.500000 0.785714
vt 0.541667 0.785714
vt 0.583333 0.785714
vt 0.625000 0.785714
vt 0.375000 0.821429
vt 0.416667 0.821429
vt 0.458333 0.821429
vt 0.500000 0.821429
vt 0.541667 0.821429
vt 0.583333 0.821429
vt 0.625000 0.821429
vt 0.375000 0.857143
vt 0.416667 0.857143
vt 0.458333 0.857143
vt 0.500000 0.857143
vt 0.541667 0.857143
vt 0.583333 0.857143
vt 0.625000 0.857143
vt 0.375000 0.892857
vt 0.416667 0.892857
vt 0.458333 0.892857
vt 0.500000 0.892857
vt 0.541667 0.892857
vt 0.583333 0.892857
vt 0.625000 0.892857
vt 0.375000 0.928572
vt 0.416667 0.928572
vt 0.458333 0.928572
vt 0.500000 0.928572
vt 0.541667 0.928572
vt 0.583333 0.928572
vt 0.625000 0.928572
vt 0.375000 0.964286
vt 0.416667 0.964286
vt 0.458333 0.964286
vt 0.500000 0.964286
vt 0.541667 0.964286
vt 0.583333 0.964286
vt 0.625000 0.964286
vt 0.375000 1.000000
vt 0.416667 1.000000
vt 0.458333 1.000000
vt 0.500000 1.000000
vt 0.541667 1.000000
vt 0.583333 1.000000
vt 0.625000 1.000000
vt 0.875000 0.000000
vt 0.839286 0.000000
vt 0.803571 0.000000
vt 0.767857 0.000000
vt 0.732143 0.000000
vt 0.696429 0.000000
vt 0.660714 0.000000
vt 0.875000 0.041667
vt 0.839286 0.041667
vt 0.803571 0.041667
vt 0.767857 0.041667
vt 0.732143 0.041667
vt 0.696429 0.041667
vt 0.660714 0.041667
vt 0.875000 0.083333
vt 0.839286 0.083333
vt 0.803571 0.083333
vt 0.767857 0.083333
vt 0.732143 0.083333
vt 0.696429 0.083333
vt 0.660714 0.083333
vt 0.875000 0.125000
vt 0.839286 0.125000
vt 0.803571 0.125000
vt 0.767857 0.125000
vt 0.732143 0.125000
vt 0.696429 0.125000
vt 0.660714 0.125000
vt 0.875000 0.166667
vt 0.839286 0.166667
vt 0.803571 0.166667
vt 0.767857 0.166667
vt 0.732143 0.166667
vt 0.696429 0.166667
vt 0.660714 0.166667
vt 0.875000 0.208333
vt 0.839286 0.208333
vt 0.803571 0.208333
vt 0.767857 0.208333
vt 0.732143 0.208333
vt 0.696429 0.208333
vt 0.660714 0.208333
vt 0.875000 0.250000
vt 0.839286 0.250000
vt 0.803571 0.250000
vt 0.767857 0.250000
vt 0.732143 0.250000
vt 0.696429 0.250000
vt 0.660714 0.250000
vt 0.125000 0.000000
vt 0.160714 0.000000
vt 0.196429 0.000000
vt 0.232143 0.000000
vt 0.267857 0.000000
vt 0.303571 0.000000
vt 0.339286 0.000000
vt 0.125000 0.041667
vt 0.160714 0.041667
vt 0.196429 0.041667
vt 0.232143 0.041667
vt 0.267857 0.041667
vt 0.303571 0.041667
vt 0.339286 0.041667
vt 0.125000 0.083333
vt 0.160714 0.083333
vt 0.196429 0.083333
vt 0.232143 0.083333
vt 0.267857 0.083333
vt 0.303571 0.083333
vt 0.339286 0.083333
vt 0.125000 0.125000
vt 0.160714 0.125000
vt 0.196429 0.125000
vt 0.232143 0.125000
vt 0.267857 0.125000
vt 0.303571 0.125000
vt 0.339286 0.125000
vt 0.125000 0.166667
vt 0.160714 0.166667
vt 0.196429 0.166667
vt 0.232143 0.166667
vt 0.267857 0.166667
vt 0.303571 0.166667
vt 0.339286 0.166667
vt 0.125000 0.208333
vt 0.160714 0.208333
vt 0.196429 0.208333
vt 0.232143 0.208333
vt 0.267857 0.208333
vt 0.303571 0.208333
vt 0.339286 0.208333
vt 0.125000 0.250000
vt 0.160714 0.250000
vt 0.196429 0.250000
vt 0.232143 0.250000
vt 0.267857 0.250000
vt 0.303571 0.250000
vt 0.339286 0.250000
vt 0.458333 0.041667
vt 0.416667 0.041667
vt 0.500000 0.041667
vt 0.541667 0.041667
vt 0.583333 0.041667
vt 0.416667 0.083333
vt 0.583333 0.083333
vt 0.416667 0.125000
vt 0.583333 0.125000
vt 0.416667 0.166667
vt 0.583333 0.166667
vt 0.416667 0.208333
vt 0.583333 0.208333
vt 0.458333 0.208333
vt 0.500000 0.208333
vt 0.541667 0.208333
vt 0.458333 0.285714
vt 0.416667 0.285714
vt 0.500000 0.285714
vt 0.541667 0.285714
vt 0.583333 0.285714
vt 0.416667 0.321429
vt 0.583333 0.321429
vt 0.416667 0.357143
vt 0.583333 0.357143
vt 0.416667 0.392857
vt 0.583333 0.392857
vt 0.416667 0.428571
vt 0.583333 0.428571
vt 0.416667 0.464286
vt 0.583333 0.464286
vt 0.458333 0.464286
vt 0.500000 0.464286
vt 0.541667 0.464286
vt 0.458333 0.541667
vt 0.416667 0.541667
vt 0.500000 0.541667
vt 0.541667 0.541667
vt 0.583333 0.541667
vt 0.416667 0.583333
vt 0.583333 0.583333
vt 0.416667 0.625000
vt 0.583333 0.625000
vt 0.416667 0.666667
vt 0.583333 0.666667
vt 0.416667 0.708333
vt 0.583333 0.708333
vt 0.458333 0.708333
vt 0.500000 0.708333
vt 0.541667 0.708333
vt 0.458333 0.785714
vt 0.416667 0.785714
vt 0.500000 0.785714
vt 0.541667 0.785714
vt 0.583333 0.785714
vt 0.416667 0.821429
vt 0.583333 0.821429
vt 0.416667 0.857143
vt 0.583333 0.857143
vt 0.416667 0.892857
vt 0.583333 0.892857
vt 0.416667 0.928572
vt 0.583333 0.928572
vt 0.416667 0.964286
vt 0.583333 0.964286
vt 0.458333 0.964286
vt 0.500000 0.964286
vt 0.541667 0.964286
vt 0.839286 0.041667
vt 0.803571 0.041667
vt 0.767857 0.041667
vt 0.732143 0.041667
vt 0.696429 0.041667
vt 0.660714 0.041667
vt 0.839286 0.083333
vt 0.660714 0.083333
vt 0.839286 0.125000
vt 0.660714 0.125000
vt 0.839286 0.166667
vt 0.660714 0.166667
vt 0.839286 0.208333
vt 0.660714 0.208333
vt 0.803571 0.208333
vt 0.767857 0.208333
vt 0.732143 0.208333
vt 0.696429 0.208333
vt 0.196429 0.041667
vt 0.160714 0.041667
vt 0.232143 0.041667
vt 0.267857 0.041667
vt 0.303571 0.041667
vt 0.339286 0.041667
vt 0.160714 0.083333
vt 0.339286 0.083333
vt 0.160714 0.125000
vt 0.339286 0.125000
vt 0.160714 0.166667
vt 0.339286 0.166667
vt 0.160714 0.208333
vt 0.339286 0.208333
vt 0.196429 0.208333
vt 0.232143 0.208333
vt 0.267857 0.208333
vt 0.303571 0.208333
vn 0.000000 0.000000 1.000000
vn 0.000000 0.000000 1.000000
vn 0.000000 0.000000 1.000000
vn 0.000000 0.000000 1.000000
vn 0.000000 0.000000 1.000000
vn 0.000000 0.000000 1.000000
vn 0.000000 0.000000 1.000000
vn 0.000000 0.000000 1.000000
vn 0.000000 0.000000 1.000000
vn 0.000000 0.000000 1.000000
vn 0.000000 0.000000 1.000000
vn 0.000000 0.000000 1.000000
vn 0.000000 0.000000 1.000000
vn 0.000000 0.000000 1.000000
vn 0.000000 0.000000 1.000000
vn 0.000000 0.000000 1.000000
vn 0.000000 0.000000 1.000000
vn 0.000000 0.000000 1.000000
vn 0.000000 0.000000 1.000000
vn 0.000000 0.000000 1.000000
vn 0.000000 0.000000 1.000000
vn 0.000000 0.000000 1.000000
vn 0.000000 0.000000 1.000000
vn 0.000000 0.000000 1.000000
vn 0.000000 0.000000 1.000000
vn 0.000000 0.000000 1.000000
vn 0.000000 0.000000 1.000000
vn 0.000000 0.000000 1.000000
vn 0.000000 0.000000 1.000000
vn 0.000000 0.000000 1.000000
vn 0.000000 0.000000 1.000000
vn 0.000000 0.000000 1.000000
vn 0.000000 0.000000 1.000000
vn 0.000000 0.000000 1.000000
vn 0.000000 0.000000 1.000000
vn 0.000000 0.000000 1.000000
vn 0.000000 0.000000 1.000000
vn 0.000000 0.000000 1.000000
vn 0.000000 0.000000 1.000000
vn 0.000000 0.000000 1.000000
vn 0.000000 0.000000 1.000000
vn 0.000000 0.000000 1.000000
vn 0.000000 0.000000 1.000000
vn 0.000000 0.000000 1.000000
vn 0.000000 0.000000 1.000000
vn 0.000000 0.000000 1.000000
vn 0.000000 0.000000 1.000000
vn 0.000000 0.000000 1.000000
vn 0.000000 0.000000 1.000000
vn 0.000000 0.000000 1.000000
vn 0.000000 0.000000 1.000000
vn 0.000000 0.000000 1.000000
vn 0.000000 0.000000 1.000000
vn 0.000000 0.000000 1.000000
vn 0.000000 0.000000 1.000000
vn 0.000000 0.000000 1.000000
vn 0.000000 0.000000 1.000000
vn 0.000000 0.000000 1.000000
vn 0.000000 0.000000 1.000000
vn 0.000000 0.000000 1.000000
vn 0.000000 0.000000 1.000000
vn 0.000000 0.000000 1.000000
vn 0.000000 0.000000 1.000000
vn 0.000000 0.000000 1.000000
vn 0.000000 0.000000 1.000000
vn 0.000000 1.000000 0.000000
vn 0.000000 1.000000 0.000000
vn 0.000000 1.000000 0.000000
vn 0.000000 1.000000 0.000000
vn 0.000000 1.000000 0.000000
vn 0.000000 1.000000 0.000000
vn 0.000000 1.000000 0.000000
vn 0.000000 1.000000 0.000000
vn 0.000000 1.000000 0.000000
vn 0.000000 1.000000 0.000000
vn 0.000000 1.000000 0.000000
vn 0.000000 1.000000 0.000000
vn 0.000000 1.000000 0.000000
vn 0.000000 1.000000 0.000000
vn 0.000000 1.000000 0.000000
vn 0.000000 1.000000 0.000000
vn 0.000000 1.000000 0.000000
vn 0.000000 1.000000 0.000000
vn 0.000000 1.000000 0.000000
vn 0.000000 1.000000 0.000000
vn 0.000000 1.000000 0.000000
vn 0.000000 1.000000 0.000000
vn 0.000000 1.000000 0.000000
vn 0.000000 1.000000 0.000000
vn 0.000000 1.000000 0.000000
vn 0.000000 1.000000 0.000000
vn 0.000000 1.000000 0.000000
vn 0.000000 1.000000 0.000000
vn 0.000000 1.000000 0.000000
vn 0.000000 1.000000 0.000000
vn 0.000000 1.000000 0.000000
vn 0.000000 1.000000 0.000000
vn 0.000000 1.000000 0.000000
vn 0.000000 1.000000 0.000000
vn 0.000000 1.000000 0.000000
vn 0.000000 1.000000 0.000000
vn 0.000000 1.000000 0.000000
vn 0.000000 1.000000 0.000000
vn 0.000000 1.000000 0.000000
vn 0.000000 1.000000 0.000000
vn 0.000000 1.000000 0.000000
vn 0.000000 1.000000 0.000000
vn 0.000000 1.000000 0.000000
vn 0.000000 1.000000 0.000000
vn 0.000000 1.000000 0.000000
vn 0.000000 1.000000 0.000000
vn 0.000000 1.000000 0.000000
vn 0.000000 1.000000 0.000000
vn 0.000000 1.000000 0.000000
vn 0.000000 1.000000 0.000000
vn 0.000000 1.000000 0.000000
vn 0.000000 1.000000 0.000000
vn 0.000000 1.000000 0.000000
vn 0.000000 1.000000 0.000000
vn 0.000000 1.000000 0.000000
vn 0.000000 1.000000 0.000000
vn 0.000000 1.000000 0.000000
vn 0.000000 1.000000 0.000000
vn 0.000000 1.000000 0.000000
vn 0.000000 1.000000 0.000000
vn 0.000000 1.000000 0.000000
vn 0.000000 1.000000 0.000000
vn 0.000000 1.000000 0.000000
vn 0.000000 1.000000 0.000000
vn 0.000000 1.000000 0.000000
vn 0.000000 1.000000 0.000000
vn 0.000000 1.000000 0.000000
vn 0.000000 1.000000 0.000000
vn 0.000000 1.000000 0.000000
vn 0.000000 1.000000 0.000000
vn 0.000000 1.000000 0.000000
vn 0.000000 1.000000 0.000000
vn 0.000000 1.000000 0.000000
vn 0.000000 1.000000 0.000000
vn 0.000000 0.000000 -1.000000
vn 0.000000 0.000000 -1.000000
vn 0.000000 0.000000 -1.000000
vn 0.000000 0.000000 -1.000000
vn 0.000000 0.000000 -1.000000
vn 0.000000 0.000000 -1.000000
vn 0.000000 0.000000 -1.000000
vn 0.000000 0.000000 -1.000000
vn 0.000000 0.000000 -1.000000
vn 0.000000 0.000000 -1.000000
vn 0.000000 0.000000 -1.000000
vn 0.000000 0.000000 -1.000000
vn 0.000000 0.000000 -1.000000
vn 0.000000 0.000000 -1.000000
vn 0.000000 0.000000 -1.000000
vn 0.000000 0.000000 -1.000000
vn 0.000000 0.000000 -1.000000
vn 0.000000 0.000000 -1.000000
vn 0.000000 0.000000 -1.000000
vn 0.000000 0.000000 -1.000000
vn 0.000000 0.000000 -1.000000
vn 0.000000 0.000000 -1.000000
vn 0.000000 0.000000 -1.000000
vn 0.000000 0.000000 -1.000000
vn 0.000000 0.000000 -1.000000
vn 0.000000 0.000000 -1.000000
vn 0.000000 0.000000 -1.000000
vn 0.000000 0.000000 -1.000000
vn 0.000000 0.000000 -1.000000
vn 0.000000 0.000000 -1.000000
vn 0.000000 0.000000 -1.000000
vn 0.000000 0.000000 -1.000000
vn 0.000000 0.000000 -1.000000
vn 0.000000 0.000000 -1.000000
vn 0.000000 0.000000 -1.000000
vn 0.000000 0.000000 -1.000000
vn 0.000000 0.000000 -1.000000
vn 0.000000 0.000000 -1.000000
vn 0.000000 0.000000 -1.000000
vn 0.000000 0.000000 -1.000000
vn 0.000000 0.000000 -1.000000
vn 0.000000 0.000000 -1.000000
vn 0.000000 0.000000 -1.000000
vn 0.000000 0.000000 -1.000000
vn 0.000000 0.000000 -1.000000
vn 0.000000 0.000000 -1.000000
vn 0.000000 0.000000 -1.000000
vn 0.000000 0.000000 -1.000000
vn 0.000000 0.000000 -1.000000
vn 0.000000 0.000000 -1.000000
vn 0.000000 0.000000 -1.000000
vn 0.000000 0.000000 -1.000000
vn 0.000000 0.000000 -1.000000
vn 0.000000 0.000000 -1.000000
vn 0.000000 0.000000 -1.000000
vn 0.000000 0.000000 -1.000000
vn 0.000000 0.000000 -1.000000
vn 0.000000 0.000000 -1.000000
vn 0.000000 0.000000 -1.000000
vn 0.000000 0.000000 -1.000000
vn 0.000000 0.000000 -1.000000
vn 0.000000 0.000000 -1.000000
vn 0.000000 0.000000 -1.000000
vn 0.000000 0.000000 -1.000000
vn 0.000000 0.000000 -1.000000
vn 0.000000 -1.000000 0.000000
vn 0.000000 -1.000000 0.000000
vn 0.000000 -1.000000 0.000000
vn 0.000000 -1.000000 0.000000
vn 0.000000 -1.000000 0.000000
vn 0.000000 -1.000000 0.000000
vn 0.000000 -1.000000 0.000000
vn 0.000000 -1.000000 0.000000
vn 0.000000 -1.000000 0.000000
vn 0.000000 -1.000000 0.000000
vn 0.000000 -1.000000 0.000000
vn 0.000000 -1.000000 0.000000
vn 0.000000 -1.000000 0.000000
vn 0.000000 -1.000000 0.000000
vn 0.000000 -1.000000 0.000000
vn 0.000000 -1.000000 0.000000
vn 0.000000 -1.000000 0.000000
vn 0.000000 -1.000000 0.000000
vn 0.000000 -1.000000 0.000000
vn 0.000000 -1.000000 0.000000
vn 0.000000 -1.000000 0.000000
vn 0.000000 -1.000000 0.000000
vn 0.000000 -1.000000 0.000000
vn 0.000000 -1.000000 0.000000
vn 0.000000 -1.000000 0.000000
vn 0.000000 -1.000000 0.000000
vn 0.000000 -1.000000 0.000000
vn 0.000000 -1.000000 0.000000
vn 0.000000 -1.000000 0.000000
vn 0.000000 -1.000000 0.000000
vn 0.000000 -1.000000 0.000000
vn 0.000000 -1.000000 0.000000
vn 0.000000 -1.000000 0.000000
vn 0.000000 -1.000000 0.000000
vn 0.000000 -1.000000 0.000000
vn 0.000000 -1.000000 0.000000
vn 0.000000 -1.000000 0.000000
vn 0.000000 -1.000000 0.000000
vn 0.000000 -1.000000 0.000000
vn 0.000000 -1.000000 0.000000
vn 0.000000 -1.000000 0.000000
vn 0.000000 -1.000000 0.000000
vn 0.000000 -1.000000 0.000000
vn 0.000000 -1.000000 0.000000
vn 0.000000 -1.000000 0.000000
vn 0.000000 -1.000000 0.000000
vn 0.000000 -1.000000 0.000000
vn 0.000000 -1.000000 0.000000
vn 0.000000 -1.000000 0.000000
vn 0.000000 -1.000000 0.000000
vn 0.000000 -1.000000 0.000000
vn 0.000000 -1.000000 0.000000
vn 0.000000 -1.000000 0.000000
vn 0.000000 -1.000000 0.000000
vn 0.000000 -1.000000 0.000000
vn 0.000000 -1.000000 0.000000
vn 0.000000 -1.000000 0.000000
vn 0.000000 -1.000000 0.000000
vn 0.000000 -1.000000 0.000000
vn 0.000000 -1.000000 0.000000
vn 0.000000 -1.000000 0.000000
vn 0.000000 -1.000000 0.000000
vn 0.000000 -1.000000 0.000000
vn 0.000000 -1.000000 0.000000
vn 0.000000 -1.000000 0.000000
vn 0.000000 -1.000000 0.000000
vn 0.000000 -1.000000 0.000000
vn 0.000000 -1.000000 0.000000
vn 0.000000 -1.000000 0.000000
vn 0.000000 -1.000000 0.000000
vn 0.000000 -1.000000 0.000000
vn 0.000000 -1.000000 0.000000
vn 0.000000 -1.000000 0.000000
vn 0.000000 -1.000000 0.000000
vn 1.000000 0.000000 0.000000
vn 1.000000 0.000000 0.000000
vn 1.000000 0.000000 0.000000
vn 1.000000 0.000000 0.000000
vn 1.000000 0.000000 0.000000
vn 1.000000 0.000000 0.000000
vn 1.000000 0.000000 0.000000
vn 1.000000 0.000000 0.000000
vn 1.000000 0.000000 0.000000
vn 1.000000 0.000000 0.000000
vn 1.000000 0.000000 0.000000
vn 1.000000 0.000000 0.000000
vn 1.000000 0.000000 0.000000
vn 1.000000 0.000000 0.000000
vn 1.000000 0.000000 0.000000
vn 1.000000 0.000000 0.000000
vn 1.000000 0.000000 0.000000
vn 1.000000 0.000000 0.000000
vn 1.000000 0.000000 0.000000
vn 1.000000 0.000000 0.000000
vn 1.000000 0.000000 0.000000
vn 1.000000 0.000000 0.000000
vn 1.000000 0.000000 0.000000
vn 1.000000 0.000000 0.000000
vn 1.000000 0.000000 0.000000
vn 1.000000 0.000000 0.000000
vn 1.000000 0.000000 0.000000
vn 1.000000 0.000000 0.000000
vn 1.000000 0.000000 0.000000
vn 1.000000 0.000000 0.000000
vn 1.000000 0.000000 0.000000
vn 1.000000 0.000000 0.000000
vn 1.000000 0.000000 0.000000
vn 1.000000 0.000000 0.000000
vn 1.000000 0.000000 0.000000
vn 1.000000 0.000000 0.000000
vn 1.000000 0.000000 0.000000
vn 1.000000 0.000000 0.000000
vn 1.000000 0.000000 0.000000
vn 1.000000 0.000000 0.000000
vn 1.000000 0.000000 0.000000
vn 1.000000 0.000000 0.000000
vn 1.000000 0.000000 0.000000
vn 1.000000 0.000000 0.000000
vn 1.000000 0.000000 0.000000
vn 1.000000 0.000000 0.000000
vn 1.000000 0.000000 0.000000
vn 1.000000 0.000000 0.000000
vn 1.000000 0.000000 0.000000
vn 1.000000 0.000000 0.000000
vn 1.000000 0.000000 0.000000
vn 1.000000 0.000000 0.000000
vn 1.000000 0.000000 0.000000
vn 1.000000 0.000000 0.000000
vn 1.000000 0.000000 0.000000
vn 1.000000 0.000000 0.000000
vn 1.000000 0.000000 0.000000
vn 1.000000 0.000000 0.000000
vn 1.000000 0.000000 0.000000
vn 1.000000 0.000000 0.000000
vn 1.000000 0.000000 0.000000
vn 1.000000 0.000000 0.000000
vn 1.000000 0.000000 0.000000
vn 1.000000 0.000000 0.000000
vn 1.000000 0.000000 0.000000
vn 1.000000 0.000000 0.000000
vn 1.000000 0.000000 0.000000
vn 1.000000 0.000000 0.000000
vn 1.000000 0.000000 0.000000
vn 1.000000 0.000000 0.000000
vn 1.000000 0.000000 0.000000
vn 1.000000 0.000000 0.000000
vn 1.000000 0.000000 0.000000
vn 1.000000 0.000000 0.000000
vn -1.000000 0.000000 0.000000
vn -1.000000 0.000000 0.000000
vn -1.000000 0.000000 0.000000
vn -1.000000 0.000000 0.000000
vn -1.000000 0.000000 0.000000
vn -1.000000 0.000000 0.000000
vn -1.000000 0.000000 0.000000
vn -1.000000 0.000000 0.000000
vn -1.000000 0.000000 0.000000
vn -1.000000 0.000000 0.000000
vn -1.000000 0.000000 0.000000
vn -1.000000 0.000000 0.000000
vn -1.000000 0.000000 0.000000
vn -1.000000 0.000000 0.000000
vn -1.000000 0.000000 0.000000
vn -1.000000 0.000000 0.000000
vn -1.000000 0.000000 0.000000
vn -1.000000 0.000000 0.000000
vn -1.000000 0.000000 0.000000
vn -1.000000 0.000000 0.000000
vn -1.000000 0.000000 0.000000
vn -1.000000 0.000000 0.000000
vn -1.000000 0.000000 0.000000
vn -1.000000 0.000000 0.000000
vn -1.000000 0.000000 0.000000
vn -1.000000 0.000000 0.000000
vn -1.000000 0.000000 0.000000
vn -1.000000 0.000000 0.000000
vn -1.000000 0.000000 0.000000
vn -1.000000 0.000000 0.000000
vn -1.000000 0.000000 0.000000
vn -1.000000 0.000000 0.000000
vn -1.000000 0.000000 0.000000
vn -1.000000 0.000000 0.000000
vn -1.000000 0.000000 0.000000
vn -1.000000 0.000000 0.000000
vn -1.000000 0.000000 0.000000
vn -1.000000 0.000000 0.000000
vn -1.000000 0.000000 0.000000
vn -1.000000 0.000000 0.000000
vn -1.000000 0.000000 0.000000
vn -1.000000 0.000000 0.000000
vn -1.000000 0.000000 0.000000
vn -1.000000 0.000000 0.000000
vn -1.000000 0.000000 0.000000
vn -1.000000 0.000000 0.000000
vn -1.000000 0.000000 0.000000
vn -1.000000 0.000000 0.000000
vn -1.000000 0.000000 0.000000
vn -1.000000 0.000000 0.000000
vn -1.000000 0.000000 0.000000
vn -1.000000 0.000000 0.000000
vn -1.000000 0.000000 0.000000
vn -1.000000 0.000000 0.000000
vn -1.000000 0.000000 0.000000
vn -1.000000 0.000000 0.000000
vn -1.000000 0.000000 0.000000
vn -1.000000 0.000000 0.000000
vn -1.000000 0.000000 0.000000
vn -1.000000 0.000000 0.000000
vn -1.000000 0.000000 0.000000
vn -1.000000 0.000000 0.000000
vn -1.000000 0.000000 0.000000
vn -1.000000 0.000000 0.000000
vn -1.000000 0.000000 0.000000
vn -1.000000 0.000000 0.000000
vn -1.000000 0.000000 0.000000
vn -1.000000 0.000000 0.000000
vn -1.000000 0.000000 0.000000
vn -1.000000 0.000000 0.000000
vn -1.000000 0.000000 0.000000
vn -1.000000 0.000000 0.000000
vn -1.000000 0.000000 0.000000
vn -1.000000 0.000000 0.000000
vn 0.000000 0.993884 0.110432
vn 0.000000 0.993884 0.110432
vn 0.000000 0.993884 0.110432
vn 0.000000 0.993884 0.110432
vn 0.000000 0.993884 0.110432
vn 0.000000 0.993884 0.110432
vn 0.000000 0.993884 0.110432
vn 0.000000 0.993884 0.110432
vn 0.000000 0.993884 0.110432
vn 0.000000 0.993884 0.110432
vn 0.832049 0.000000 0.554702
vn 0.832049 0.000000 0.554702
vn 0.832049 0.000000 0.554702
vn 0.832049 0.000000 0.554702
vn -0.832053 0.000000 0.554697
vn -0.832053 0.000000 0.554697
vn -0.832053 0.000000 0.554697
vn -0.832053 0.000000 0.554697
vn 0.832049 0.000000 0.554702
vn 0.832049 0.000000 0.554702
vn -0.832053 0.000000 0.554697
vn -0.832053 0.000000 0.554697
vn 0.832049 0.000000 0.554702
vn 0.832049 0.000000 0.554702
vn -0.832053 0.000000 0.554697
vn -0.832053 0.000000 0.554697
vn 0.832049 0.000000 0.554702
vn 0.832049 0.000000 0.554702
vn -0.832053 0.000000 0.554697
vn -0.832053 0.000000 0.554697
vn 0.000000 -0.993884 0.110432
vn 0.000000 -0.993884 0.110432
vn 0.000000 -0.993884 0.110432
vn 0.000000 -0.993884 0.110432
vn 0.000000 -0.993884 0.110432
vn 0.000000 -0.993884 0.110432
vn 0.000000 -0.993884 0.110432
vn 0.000000 -0.993884 0.110432
vn 0.000000 -0.993884 0.110432
vn 0.000000 -0.993884 0.110432
vn 0.000000 0.973842 -0.227228
vn 0.000000 0.973841 -0.227229
vn 0.000000 0.973841 -0.227229
vn 0.000000 0.973842 -0.227228
vn 0.000000 0.973841 -0.227228
vn 0.000000 0.973841 -0.227228
vn 0.000000 0.973841 -0.227229
vn 0.000000 0.973841 -0.227229
vn 0.000000 0.973841 -0.227228
vn 0.000000 0.973841 -0.227228
vn 0.242537 0.970142 0.000000
vn 0.242537 0.970142 0.000000
vn 0.242537 0.970142 0.000000
vn 0.242537 0.970142 0.000000
vn -0.242540 0.970141 0.000000
vn -0.242540 0.970141 0.000000
vn -0.242540 0.970141 0.000000
vn -0.242540 0.970141 0.000000
vn 0.242537 0.970142 0.000000
vn 0.242537 0.970142 0.000000
vn -0.242540 0.970141 0.000000
vn -0.242540 0.970141 0.000000
vn 0.242537 0.970142 0.000000
vn 0.242537 0.970142 0.000000
vn -0.242540 0.970141 0.000000
vn -0.242540 0.970141 0.000000
vn 0.242537 0.970142 0.000000
vn 0.242537 0.970142 0.000000
vn -0.242540 0.970141 0.000000
vn -0.242540 0.970141 0.000000
vn 0.242537 0.970142 0.000000
vn 0.242537 0.970142 0.000000
vn -0.242540 0.970141 0.000000
vn -0.242540 0.970141 0.000000
vn 0.000000 0.973841 0.227231
vn 0.000000 0.973841 0.227231
vn 0.000000 0.973841 0.227231
vn 0.000000 0.973841 0.227231
vn 0.000000 0.973841 0.227231
vn 0.000000 0.973841 0.227231
vn 0.000000 0.973841 0.227231
vn 0.000000 0.973841 0.227231
vn 0.000000 0.973841 0.227231
vn 0.000000 0.973841 0.227231
vn 0.000000 -0.993884 -0.110432
vn 0.000000 -0.993884 -0.110432
vn 0.000000 -0.993884 -0.110432
vn 0.000000 -0.993884 -0.110432
vn 0.000000 -0.993884 -0.110432
vn 0.000000 -0.993884 -0.110432
vn 0.000000 -0.993884 -0.110432
vn 0.000000 -0.993884 -0.110432
vn 0.000000 -0.993884 -0.110432
vn 0.000000 -0.993884 -0.110432
vn 0.832049 0.000000 -0.554702
vn 0.832049 0.000000 -0.554702
vn 0.832049 0.000000 -0.554702
vn 0.832049 0.000000 -0.554702
vn -0.832053 0.000000 -0.554697
vn -0.832053 0.000000 -0.554697
vn -0.832053 0.000000 -0.554697
vn -0.832053 0.000000 -0.554697
vn 0.832049 0.000000 -0.554702
vn 0.832049 0.000000 -0.554702
vn -0.832053 0.000000 -0.554697
vn -0.832053 0.000000 -0.554697
vn 0.832049 0.000000 -0.554702
vn 0.832049 0.000000 -0.554702
vn -0.832053 0.000000 -0.554697
vn -0.832053 0.000000 -0.554697
vn 0.832049 0.000000 -0.554702
vn 0.832049 0.000000 -0.554702
vn -0.832053 0.000000 -0.554697
vn -0.832053 0.000000 -0.554697
vn 0.000000 0.993884 -0.110432
vn 0.000000 0.993884 -0.110432
vn 0.000000 0.993884 -0.110432
vn 0.000000 0.993884 -0.110432
vn 0.000000 0.993884 -0.110432
vn 0.000000 0.993884 -0.110432
vn 0.000000 0.993884 -0.110432
vn 0.000000 0.993884 -0.110432
vn 0.000000 0.993884 -0.110432
vn 0.000000 0.993884 -0.110432
vn 0.000000 -0.973841 0.227230
vn 0.000000 -0.973841 0.227230
vn 0.000000 -0.973841 0.227230
vn 0.000000 -0.973841 0.227230
vn 0.000000 -0.973841 0.227230
vn 0.000000 -0.973841 0.227230
vn 0.000000 -0.973841 0.227230
vn 0.000000 -0.973841 0.227230
vn 0.000000 -0.973841 0.227230
vn 0.000000 -0.973841 0.227230
vn 0.242535 -0.970143 0.000000
vn 0.242536 -0.970143 0.000000
vn 0.242536 -0.970143 0.000000
vn 0.242535 -0.970143 0.000000
vn -0.242539 -0.970142 0.000000
vn -0.242539 -0.970142 0.000000
vn -0.242539 -0.970142 0.000000
vn -0.242539 -0.970142 0.000000
vn 0.242536 -0.970142 0.000000
vn 0.242536 -0.970142 0.000000
vn -0.242539 -0.970142 0.000000
vn -0.242539 -0.970142 0.000000
vn 0.242536 -0.970142 0.000000
vn 0.242536 -0.970142 0.000000
vn -0.242539 -0.970142 0.000000
vn -0.242539 -0.970142 0.000000
vn 0.242536 -0.970142 0.000000
vn 0.242536 -0.970142 0.000000
vn -0.242539 -0.970142 0.000000
vn -0.242539 -0.970142 0.000000
vn 0.242536 -0.970142 0.000000
vn 0.242536 -0.970142 0.000000
vn -0.242539 -0.970142 0.000000
vn -0.242539 -0.970142 0.000000
vn 0.000000 -0.973842 -0.227227
vn 0.000000 -0.973842 -0.227227
vn 0.000000 -0.973842 -0.227227
vn 0.000000 -0.973842 -0.227227
vn 0.000000 -0.973842 -0.227227
vn 0.000000 -0.973842 -0.227227
vn 0.000000 -0.973842 -0.227227
vn 0.000000 -0.973842 -0.227227
vn 0.000000 -0.973842 -0.227227
vn 0.000000 -0.973842 -0.227227
vn 0.110431 0.993884 0.000000
vn 0.110431 0.993884 0.000000
vn 0.110431 0.993884 0.000000
vn 0.110431 0.993884 0.000000
vn 0.110431 0.993884 0.000000
vn 0.110431 0.993884 0.000000
vn 0.110431 0.993884 0.000000
vn 0.110431 0.993884 0.000000
vn 0.110431 0.993884 0.000000
vn 0.110431 0.993884 0.000000
vn 0.110431 0.993884 0.000000
vn 0.110431 0.993884 0.000000
vn 0.581235 0.000000 0.813736
vn 0.581236 0.000000 0.813735
vn 0.581236 0.000000 0.813735
vn 0.581235 0.000000 0.813736
vn 0.581241 0.000000 -0.813731
vn 0.581241 0.000000 -0.813732
vn 0.581241 0.000000 -0.813731
vn 0.581241 0.000000 -0.813731
vn 0.581235 0.000000 0.813736
vn 0.581235 0.000000 0.813736
vn 0.581241 0.000000 -0.813732
vn 0.581241 0.000000 -0.813732
vn 0.581235 0.000000 0.813736
vn 0.581235 0.000000 0.813736
vn 0.581240 0.000000 -0.813732
vn 0.581240 0.000000 -0.813732
vn 0.581235 0.000000 0.813736
vn 0.581235 0.000000 0.813736
vn 0.581240 0.000000 -0.813732
vn 0.581240 0.000000 -0.813732
vn 0.110431 -0.993884 0.000000
vn 0.110431 -0.993884 0.000000
vn 0.110431 -0.993884 0.000000
vn 0.110431 -0.993884 0.000000
vn 0.110431 -0.993884 0.000000
vn 0.110431 -0.993884 0.000000
vn 0.110431 -0.993884 0.000000
vn 0.110431 -0.993884 0.000000
vn 0.110431 -0.993884 0.000000
vn 0.110431 -0.993884 0.000000
vn 0.110431 -0.993884 0.000000
vn 0.110431 -0.993884 0.000000
vn -0.110431 0.993884 0.000000
vn -0.110431 0.993884 0.000000
vn -0.110431 0.993884 0.000000
vn -0.110431 0.993884 0.000000
vn -0.110431 0.993884 0.000000
vn -0.110431 0.993884 0.000000
vn -0.110431 0.993884 0.000000
vn -0.110431 0.993884 0.000000
vn -0.110431 0.993884 0.000000
vn -0.110431 0.993884 0.000000
vn -0.110431 0.993884 0.000000
vn -0.110431 0.993884 0.000000
vn -0.581235 0.000000 0.813736
vn -0.581235 0.000000 0.813736
vn -0.581235 0.000000 0.813736
vn -0.581235 0.000000 0.813736
vn -0.581241 0.000000 -0.813732
vn -0.581240 0.000000 -0.813732
vn -0.581240 0.000000 -0.813732
vn -0.581240 0.000000 -0.813732
vn -0.581236 0.000000 0.813735
vn -0.581236 0.000000 0.813735
vn -0.581241 0.000000 -0.813732
vn -0.581241 0.000000 -0.813732
vn -0.581235 0.000000 0.813736
vn -0.581235 0.000000 0.813736
vn -0.581241 0.000000 -0.813732
vn -0.581241 0.000000 -0.813732
vn -0.581235 0.000000 0.813736
vn -0.581235 0.000000 0.813736
vn -0.581241 0.000000 -0.813732
vn -0.581241 0.000000 -0.813732
vn -0.110431 -0.993884 0.000000
vn -0.110431 -0.993884 0.000000
vn -0.110431 -0.993884 0.000000
vn -0.110431 -0.993884 0.000000
vn -0.110431 -0.993884 0.000000
vn -0.110431 -0.993884 0.000000
vn -0.110431 -0.993884 0.000000
vn -0.110431 -0.993884 0.000000
vn -0.110431 -0.993884 0.000000
vn -0.110431 -0.993884 0.000000
vn -0.110431 -0.993884 0.000000
vn -0.110431 -0.993884 0.000000
s 1
g Plattform
usemtl initialShadingGroup
f 171/1/1 172/2/2 173/289/3 174/8/4
f 172/2/2 175/3/5 176/288/6 173/289/3
f 175/3/5 177/4/7 178/290/8 176/288/6
f 177/4/7 179/5/9 180/291/10 178/290/8
f 179/5/9 181/6/11 182/292/12 180/291/10
f 181/6/11 183/7/13 184/14/14 182/292/12
f 174/8/4 173/289/3 185/293/15 186/15/16
s 2
f 1/9/17 2/10/18 7/17/19 6/16/20
f 2/10/18 3/11/21 8/18/22 7/17/19
f 3/11/21 4/12/23 9/19/24 8/18/22
f 4/12/23 5/13/25 10/20/26 9/19/24
s 1
f 182/292/12 184/14/14 187/21/27 188/294/28
f 186/15/16 185/293/15 189/295/29 190/22/30
s 2
f 6/16/20 7/17/19 12/24/31 11/23/32
f 7/17/19 8/18/22 13/25/33 12/24/31
f 8/18/22 9/19/24 14/26/34 13/25/33
f 9/19/24 10/20/26 15/27/35 14/26/34
s 1
f 188/294/28 187/21/27 191/28/36 192/296/37
f 190/22/30 189/295/29 193/297/38 194/29/39
s 2
f 11/23/32 12/24/31 17/31/40 16/30/41
f 12/24/31 13/25/33 18/32/42 17/31/40
f 13/25/33 14/26/34 19/33/43 18/32/42
f 14/26/34 15/27/35 20/34/44 19/33/43
s 1
f 192/296/37 191/28/36 195/35/45 196/298/46
f 194/29/39 193/297/38 197/299/47 198/36/48
s 2
f 16/30/41 17/31/40 22/38/49 21/37/50
f 17/31/40 18/32/42 23/39/51 22/38/49
f 18/32/42 19/33/43 24/40/52 23/39/51
f 19/33/43 20/34/44 25/41/53 24/40/52
s 1
f 196/298/46 195/35/45 199/42/54 200/300/55
f 198/36/48 197/299/47 201/44/56 202/43/57
f 197/299/47 203/301/58 204/45/59 201/44/56
f 203/301/58 205/302/60 206/46/61 204/45/59
f 205/302/60 207/303/62 208/47/63 206/46/61
f 207/303/62 200/300/55 209/48/64 208/47/63
f 200/300/55 199/42/54 210/49/65 209/48/64
s 3
f 202/43/66 201/44/67 211/305/68 212/50/69
f 201/44/67 204/45/70 213/304/71 211/305/68
f 204/45/70 206/46/72 214/306/73 213/304/71
f 206/46/72 208/47/74 215/307/75 214/306/73
f 208/47/74 209/48/76 216/308/77 215/307/75
f 209/48/76 210/49/78 217/56/79 216/308/77
f 212/50/69 211/305/68 218/309/80 219/57/81
s 4
f 26/51/82 27/52/83 32/59/84 31/58/85
f 27/52/83 28/53/86 33/60/87 32/59/84
f 28/53/86 29/54/88 34/61/89 33/60/87
f 29/54/88 30/55/90 35/62/91 34/61/89
s 3
f 216/308/77 217/56/79 220/63/92 221/310/93
f 219/57/81 218/309/80 222/311/94 223/64/95
s 4
f 31/58/85 32/59/84 37/66/96 36/65/97
f 32/59/84 33/60/87 38/67/98 37/66/96
f 33/60/87 34/61/89 39/68/99 38/67/98
f 34/61/89 35/62/91 40/69/100 39/68/99
s 3
f 221/310/93 220/63/92 224/70/101 225/312/102
f 223/64/95 222/311/94 226/313/103 227/71/104
s 4
f 36/65/97 37/66/96 42/73/105 41/72/106
f 37/66/96 38/67/98 43/74/107 42/73/105
f 38/67/98 39/68/99 44/75/108 43/74/107
f 39/68/99 40/69/100 45/76/109 44/75/108
s 3
f 225/312/102 224/70/101 228/77/110 229/314/111
f 227/71/104 226/313/103 230/315/112 231/78/113
s 4
f 41/72/106 42/73/105 47/80/114 46/79/115
f 42/73/105 43/74/107 48/81/116 47/80/114
f 43/74/107 44/75/108 49/82/117 48/81/116
f 44/75/108 45/76/109 50/83/118 49/82/117
s 3
f 229/314/111 228/77/110 232/84/119 233/316/120
f 231/78/113 230/315/112 234/317/121 235/85/122
s 4
f 46/79/115 47/80/114 52/87/123 51/86/124
f 47/80/114 48/81/116 53/88/125 52/87/123
f 48/81/116 49/82/117 54/89/126 53/88/125
f 49/82/117 50/83/118 55/90/127 54/89/126
s 3
f 233/316/120 232/84/119 236/91/128 237/318/129
f 235/85/122 234/317/121 238/93/130 239/92/131
f 234/317/121 240/319/132 241/94/133 238/93/130
f 240/319/132 242/320/134 243/95/135 241/94/133
f 242/320/134 244/321/136 245/96/137 243/95/135
f 244/321/136 237/318/129 246/97/138 245/96/137
f 237/318/129 236/91/128 247/98/139 246/97/138
s 5
f 239/92/140 238/93/141 248/323/142 249/99/143
f 238/93/141 241/94/144 250/322/145 248/323/142
f 241/94/144 243/95/146 251/324/147 250/322/145
f 243/95/146 245/96/148 252/325/149 251/324/147
f 245/96/148 246/97/150 253/326/151 252/325/149
f 246/97/150 247/98/152 254/105/153 253/326/151
f 249/99/143 248/323/142 255/327/154 256/106/155
s 6
f 56/100/156 57/101/157 62/108/158 61/107/159
f 57/101/157 58/102/160 63/109/161 62/108/158
f 58/102/160 59/103/162 64/110/163 63/109/161
f 59/103/162 60/104/164 65/111/165 64/110/163
s 5
f 253/326/151 254/105/153 257/112/166 258/328/167
f 256/106/155 255/327/154 259/329/168 260/113/169
s 6
f 61/107/159 62/108/158 67/115/170 66/114/171
f 62/108/158 63/109/161 68/116/172 67/115/170
f 63/109/161 64/110/163 69/117/173 68/116/172
f 64/110/163 65/111/165 70/118/174 69/117/173
s 5
f 258/328/167 257/112/166 261/119/175 262/330/176
f 260/113/169 259/329/168 263/331/177 264/120/178
s 6
f 66/114/171 67/115/170 72/122/179 71/121/180
f 67/115/170 68/116/172 73/123/181 72/122/179
f 68/116/172 69/117/173 74/124/182 73/123/181
f 69/117/173 70/118/174 75/125/183 74/124/182
s 5
f 262/330/176 261/119/175 265/126/184 266/332/185
f 264/120/178 263/331/177 267/333/186 268/127/187
s 6
f 71/121/180 72/122/179 77/129/188 76/128/189
f 72/122/179 73/123/181 78/130/190 77/129/188
f 73/123/181 74/124/182 79/131/191 78/130/190
f 74/124/182 75/125/183 80/132/192 79/131/191
s 5
f 266/332/185 265/126/184 269/133/193 270/334/194
f 268/127/187 267/333/186 271/135/195 272/134/196
f 267/333/186 273/335/197 274/136/198 271/135/195
f 273/335/197 275/336/199 276/137/200 274/136/198
f 275/336/199 277/337/201 278/138/202 276/137/200
f 277/337/201 270/334/194 279/139/203 278/138/202
f 270/334/194 269/133/193 280/140/204 279/139/203
s 7
f 272/134/205 271/135/206 281/339/207 282/141/208
f 271/135/206 274/136/209 283/338/210 281/339/207
f 274/136/209 276/137/211 284/340/212 283/338/210
f 276/137/211 278/138/213 285/341/214 284/340/212
f 278/138/213 279/139/215 286/342/216 285/341/214
f 279/139/215 280/140/217 287/147/218 286/342/216
f 282/141/208 281/339/207 288/343/219 289/148/220
s 8
f 81/142/221 82/143/222 87/150/223 86/149/224
f 82/143/222 83/144/225 88/151/226 87/150/223
f 83/144/225 84/145/227 89/152/228 88/151/226
f 84/145/227 85/146/229 90/153/230 89/152/228
s 7
f 286/342/216 287/147/218 290/154/231 291/344/232
f 289/148/220 288/343/219 292/345/233 293/155/234
s 8
f 86/149/224 87/150/223 92/157/235 91/156/236
f 87/150/223 88/151/226 93/158/237 92/157/235
f 88/151/226 89/152/228 94/159/238 93/158/237
f 89/152/228 90/153/230 95/160/239 94/159/238
s 7
f 291/344/232 290/154/231 294/161/240 295/346/241
f 293/155/234 292/345/233 296/347/242 297/162/243
s 8
f 91/156/236 92/157/235 97/164/244 96/163/245
f 92/157/235 93/158/237 98/165/246 97/164/244
f 93/158/237 94/159/238 99/166/247 98/165/246
f 94/159/238 95/160/239 100/167/248 99/166/247
s 7
f 295/346/241 294/161/240 298/168/249 299/348/250
f 297/162/243 296/347/242 300/349/251 301/169/252
s 8
f 96/163/245 97/164/244 102/171/253 101/170/254
f 97/164/244 98/165/246 103/172/255 102/171/253
f 98/165/246 99/166/247 104/173/256 103/172/255
f 99/166/247 100/167/248 105/174/257 104/173/256
s 7
f 299/348/250 298/168/249 302/175/258 303/350/259
f 301/169/252 300/349/251 304/351/260 305/176/261
s 8
f 101/170/254 102/171/253 107/178/262 106/177/263
f 102/171/253 103/172/255 108/179/264 107/178/262
f 103/172/255 104/173/256 109/180/265 108/179/264
f 104/173/256 105/174/257 110/181/266 109/180/265
s 7
f 303/350/259 302/175/258 306/182/267 307/352/268
f 305/176/261 304/351/260 172/184/269 171/183/270
f 304/351/260 308/353/271 175/185/272 172/184/269
f 308/353/271 309/354/273 177/186/274 175/185/272
f 309/354/273 310/355/275 179/187/276 177/186/274
f 310/355/275 307/352/268 181/188/277 179/187/276
f 307/352/268 306/182/267 183/189/278 181/188/277
s 9
f 287/191/279 280/190/280 269/197/281 311/356/282
f 290/192/283 287/191/279 311/356/282 312/357/284
f 294/193/285 290/192/283 312/357/284 313/358/286
f 298/194/287 294/193/285 313/358/286 314/359/288
f 302/195/289 298/194/287 314/359/288 315/360/290
f 306/196/291 302/195/289 315/360/290 316/361/292
f 183/7/293 306/196/291 316/361/292 184/14/294
f 311/356/282 269/197/281 265/204/295 317/362/296
s 10
f 112/199/297 111/198/298 117/205/299 118/206/300
f 113/200/301 112/199/297 118/206/300 119/207/302
f 114/201/303 113/200/301 119/207/302 120/208/304
f 115/202/305 114/201/303 120/208/304 121/209/306
f 116/203/307 115/202/305 121/209/306 122/210/308
s 9
f 184/14/294 316/361/292 318/363/309 187/21/310
f 317/362/296 265/204/295 261/211/311 319/364/312
s 10
f 118/206/300 117/205/299 123/212/313 124/213/314
f 119/207/302 118/206/300 124/213/314 125/214/315
f 120/208/304 119/207/302 125/214/315 126/215/316
f 121/209/306 120/208/304 126/215/316 127/216/317
f 122/210/308 121/209/306 127/216/317 128/217/318
s 9
f 187/21/310 318/363/309 320/365/319 191/28/320
f 319/364/312 261/211/311 257/218/321 321/366/322
s 10
f 124/213/314 123/212/313 129/219/323 130/220/324
f 125/214/315 124/213/314 130/220/324 131/221/325
f 126/215/316 125/214/315 131/221/325 132/222/326
f 127/216/317 126/215/316 132/222/326 133/223/327
f 128/217/318 127/216/317 133/223/327 134/224/328
s 9
f 191/28/320 320/365/319 322/367/329 195/35/330
f 321/366/322 257/218/321 254/225/331 323/368/332
s 10
f 130/220/324 129/219/323 135/226/333 136/227/334
f 131/221/325 130/220/324 136/227/334 137/228/335
f 132/222/326 131/221/325 137/228/335 138/229/336
f 133/223/327 132/222/326 138/229/336 139/230/337
f 134/224/328 133/223/327 139/230/337 140/231/338
s 9
f 195/35/330 322/367/329 324/369/339 199/42/340
f 323/368/332 254/225/331 247/232/341 236/233/342
f 325/370/343 323/368/332 236/233/342 232/234/344
f 326/371/345 325/370/343 232/234/344 228/235/346
f 327/372/347 326/371/345 228/235/346 224/236/348
f 328/373/349 327/372/347 224/236/348 220/237/350
f 324/369/339 328/373/349 220/237/350 217/238/351
f 199/42/340 324/369/339 217/238/351 210/49/352
s 11
f 272/239/353 282/240/354 329/375/355 268/246/356
f 282/240/354 289/241/357 330/374/358 329/375/355
f 289/241/357 293/242/359 331/376/360 330/374/358
f 293/242/359 297/243/361 332/377/362 331/376/360
f 297/243/361 301/244/363 333/378/364 332/377/362
f 301/244/363 305/245/365 334/379/366 333/378/364
f 305/245/365 171/1/367 174/8/368 334/379/366
f 268/246/356 329/375/355 335/380/369 264/253/370
s 12
f 141/247/371 142/248/372 148/255/373 147/254/374
f 142/248/372 143/249/375 149/256/376 148/255/373
f 143/249/375 144/250/377 150/257/378 149/256/376
f 144/250/377 145/251/379 151/258/380 150/257/378
f 145/251/379 146/252/381 152/259/382 151/258/380
s 11
f 334/379/366 174/8/368 186/15/383 336/381/384
f 264/253/370 335/380/369 337/382/385 260/260/386
s 12
f 147/254/374 148/255/373 154/262/387 153/261/388
f 148/255/373 149/256/376 155/263/389 154/262/387
f 149/256/376 150/257/378 156/264/390 155/263/389
f 150/257/378 151/258/380 157/265/391 156/264/390
f 151/258/380 152/259/382 158/266/392 157/265/391
s 11
f 336/381/384 186/15/383 190/22/393 338/383/394
f 260/260/386 337/382/385 339/384/395 256/267/396
s 12
f 153/261/388 154/262/387 160/269/397 159/268/398
f 154/262/387 155/263/389 161/270/399 160/269/397
f 155/263/389 156/264/390 162/271/400 161/270/399
f 156/264/390 157/265/391 163/272/401 162/271/400
f 157/265/391 158/266/392 164/273/402 163/272/401
s 11
f 338/383/394 190/22/393 194/29/403 340/385/404
f 256/267/396 339/384/395 341/386/405 249/274/406
s 12
f 159/268/398 160/269/397 166/276/407 165/275/408
f 160/269/397 161/270/399 167/277/409 166/276/407
f 161/270/399 162/271/400 168/278/410 167/277/409
f 162/271/400 163/272/401 169/279/411 168/278/410
f 163/272/401 164/273/402 170/280/412 169/279/411
s 11
f 340/385/404 194/29/403 198/36/413 342/387/414
f 249/274/406 341/386/405 235/282/415 239/281/416
f 341/386/405 343/388/417 231/283/418 235/282/415
f 343/388/417 344/389/419 227/284/420 231/283/418
f 344/389/419 345/390/421 223/285/422 227/284/420
f 345/390/421 346/391/423 219/286/424 223/285/422
f 346/391/423 342/387/414 212/287/425 219/286/424
f 342/387/414 198/36/413 202/43/426 212/287/425
s 13
f 2/10/427 1/9/428 173/289/429 176/288/430
f 3/11/431 2/10/427 176/288/430 178/290/432
f 4/12/433 3/11/431 178/290/432 180/291/434
f 5/13/435 4/12/433 180/291/434 182/292/436
s 14
f 1/9/437 6/16/438 185/293/439 173/289/440
s 15
f 10/20/441 5/13/442 182/292/443 188/294/444
s 14
f 6/16/438 11/23/445 189/295/446 185/293/439
s 15
f 15/27/447 10/20/441 188/294/444 192/296/448
s 14
f 11/23/445 16/30/449 193/297/450 189/295/446
s 15
f 20/34/451 15/27/447 192/296/448 196/298/452
s 14
f 16/30/449 21/37/453 197/299/454 193/297/450
s 15
f 25/41/455 20/34/451 196/298/452 200/300/456
s 16
f 21/37/457 22/38/458 203/301/459 197/299/460
f 22/38/458 23/39/461 205/302/462 203/301/459
f 23/39/461 24/40/463 207/303/464 205/302/462
f 24/40/463 25/41/465 200/300/466 207/303/464
s 17
f 27/52/467 26/51/468 211/305/469 213/304/470
f 28/53/471 27/52/467 213/304/470 214/306/472
f 29/54/473 28/53/471 214/306/472 215/307/474
f 30/55/475 29/54/473 215/307/474 216/308/476
s 18
f 26/51/477 31/58/478 218/309/479 211/305/480
s 19
f 35/62/481 30/55/482 216/308/483 221/310/484
s 18
f 31/58/478 36/65/485 222/311/486 218/309/479
s 19
f 40/69/487 35/62/481 221/310/484 225/312/488
s 18
f 36/65/485 41/72/489 226/313/490 222/311/486
s 19
f 45/76/491 40/69/487 225/312/488 229/314/492
s 18
f 41/72/489 46/79/493 230/315/494 226/313/490
s 19
f 50/83/495 45/76/491 229/314/492 233/316/496
s 18
f 46/79/493 51/86/497 234/317/498 230/315/494
s 19
f 55/90/499 50/83/495 233/316/496 237/318/500
s 20
f 51/86/501 52/87/502 240/319/503 234/317/504
f 52/87/502 53/88/505 242/320/506 240/319/503
f 53/88/505 54/89/507 244/321/508 242/320/506
f 54/89/507 55/90/509 237/318/510 244/321/508
s 21
f 57/101/511 56/100/512 248/323/513 250/322/514
f 58/102/515 57/101/511 250/322/514 251/324/516
f 59/103/517 58/102/515 251/324/516 252/325/518
f 60/104/519 59/103/517 252/325/518 253/326/520
s 22
f 56/100/521 61/107/522 255/327/523 248/323/524
s 23
f 65/111/525 60/104/526 253/326/527 258/328/528
s 22
f 61/107/522 66/114/529 259/329/530 255/327/523
s 23
f 70/118/531 65/111/525 258/328/528 262/330/532
s 22
f 66/114/529 71/121/533 263/331/534 259/329/530
s 23
f 75/125/535 70/118/531 262/330/532 266/332/536
s 22
f 71/121/533 76/128/537 267/333/538 263/331/534
s 23
f 80/132/539 75/125/535 266/332/536 270/334/540
s 24
f 76/128/541 77/129/542 273/335/543 267/333/544
f 77/129/542 78/130/545 275/336/546 273/335/543
f 78/130/545 79/131/547 277/337/548 275/336/546
f 79/131/547 80/132/549 270/334/550 277/337/548
s 25
f 82/143/551 81/142/552 281/339/553 283/338/554
f 83/144/555 82/143/551 283/338/554 284/340/556
f 84/145/557 83/144/555 284/340/556 285/341/558
f 85/146/559 84/145/557 285/341/558 286/342/560
s 26
f 81/142/561 86/149/562 288/343/563 281/339/564
s 27
f 90/153/565 85/146/566 286/342/567 291/344/568
s 26
f 86/149/562 91/156/569 292/345/570 288/343/563
s 27
f 95/160/571 90/153/565 291/344/568 295/346/572
s 26
f 91/156/569 96/163/573 296/347/574 292/345/570
s 27
f 100/167/575 95/160/571 295/346/572 299/348/576
s 26
f 96/163/573 101/170/577 300/349/578 296/347/574
s 27
f 105/174/579 100/167/575 299/348/576 303/350/580
s 26
f 101/170/577 106/177/581 304/351/582 300/349/578
s 27
f 110/181/583 105/174/579 303/350/580 307/352/584
s 28
f 106/177/585 107/178/586 308/353/587 304/351/588
f 107/178/586 108/179/589 309/354/590 308/353/587
f 108/179/589 109/180/591 310/355/592 309/354/590
f 109/180/591 110/181/593 307/352/594 310/355/592
s 29
f 111/198/595 112/199/596 312/357/597 311/356/598
f 112/199/596 113/200/599 313/358/600 312/357/597
f 113/200/599 114/201/601 314/359/602 313/358/600
f 114/201/601 115/202/603 315/360/604 314/359/602
f 115/202/603 116/203/605 316/361/606 315/360/604
s 30
f 117/205/607 111/198/608 311/356/609 317/362/610
s 31
f 116/203/611 122/210/612 318/363/613 316/361/614
s 30
f 123/212/615 117/205/607 317/362/610 319/364/616
s 31
f 122/210/612 128/217/617 320/365/618 318/363/613
s 30
f 129/219/619 123/212/615 319/364/616 321/366/620
s 31
f 128/217/617 134/224/621 322/367/622 320/365/618
s 30
f 135/226/623 129/219/619 321/366/620 323/368/624
s 31
f 134/224/621 140/231/625 324/369/626 322/367/622
s 32
f 136/227/627 135/226/628 323/368/629 325/370/630
f 137/228/631 136/227/627 325/370/630 326/371/632
f 138/229/633 137/228/631 326/371/632 327/372/634
f 139/230/635 138/229/633 327/372/634 328/373/636
f 140/231/637 139/230/635 328/373/636 324/369/638
s 33
f 142/248/639 141/247/640 329/375/641 330/374/642
f 143/249/643 142/248/639 330/374/642 331/376/644
f 144/250/645 143/249/643 331/376/644 332/377/646
f 145/251/647 144/250/645 332/377/646 333/378/648
f 146/252/649 145/251/647 333/378/648 334/379/650
s 34
f 141/247/651 147/254/652 335/380/653 329/375/654
s 35
f 152/259/655 146/252/656 334/379/657 336/381/658
s 34
f 147/254/652 153/261/659 337/382/660 335/380/653
s 35
f 158/266/661 152/259/655 336/381/658 338/383/662
s 34
f 153/261/659 159/268/663 339/384/664 337/382/660
s 35
f 164/273/665 158/266/661 338/383/662 340/385/666
s 34
f 159/268/663 165/275/667 341/386/668 339/384/664
s 35
f 170/280/669 164/273/665 340/385/666 342/387/670
s 36
f 165/275/671 166/276/672 343/388/673 341/386/674
f 166/276/672 167/277/675 344/389/676 343/388/673
f 167/277/675 168/278/677 345/390/678 344/389/676
f 168/278/677 169/279/679 346/391/680 345/390/678
f 169/279/679 170/280/681 342/387/682 346/391/680
