# This file uses centimeters as units for non-parametric coordinates.

mtllib Powerupp_Pedestal_WIP1.mtl
g default
v 0.433013 0.000167 4.743680
v 0.250000 0.000167 4.560667
v 0.000000 0.000167 4.493680
v -0.250000 0.000167 4.560667
v -0.433013 0.000167 4.743680
v -0.500000 0.000167 4.993680
v -0.433013 0.000167 5.243680
v -0.250000 0.000167 5.426692
v 0.000000 0.000167 5.493680
v 0.250000 0.000167 5.426692
v 0.433013 0.000167 5.243680
v 0.500000 0.000167 4.993680
v 0.433013 1.400166 4.743680
v 0.250000 1.400166 4.560667
v 0.000000 1.400166 4.493680
v -0.250000 1.400166 4.560667
v -0.433013 1.400166 4.743680
v -0.500000 1.400166 4.993680
v -0.433013 1.400166 5.243680
v -0.250000 1.400166 5.426692
v 0.000000 1.400166 5.493680
v 0.250000 1.400166 5.426692
v 0.433013 1.400166 5.243680
v 0.500000 1.400166 4.993680
v 0.000000 0.000167 4.993680
v 0.404145 1.400166 4.760346
v 0.233333 1.400166 4.589534
v 0.000000 1.400166 4.527013
v -0.233333 1.400166 4.589534
v -0.404145 1.400166 4.760346
v -0.466667 1.400166 4.993680
v -0.404145 1.400166 5.227013
v -0.233333 1.400166 5.397825
v 0.000000 1.400166 5.460346
v 0.233333 1.400166 5.397825
v 0.404145 1.400166 5.227013
v 0.466667 1.400166 4.993680
v 0.336788 1.338979 4.799235
v 0.194444 1.338979 4.656892
v 0.000000 1.338979 4.604791
v -0.194444 1.338979 4.656892
v -0.336788 1.338979 4.799235
v -0.388889 1.338979 4.993680
v -0.336788 1.338979 5.188124
v -0.194444 1.338979 5.330467
v 0.000000 1.338979 5.382568
v 0.194444 1.338979 5.330467
v 0.336788 1.338979 5.188124
v 0.388889 1.338979 4.993680
v 0.433013 1.337367 4.743680
v 0.500000 1.337367 4.993680
v 0.433013 1.337367 5.243680
v 0.250000 1.337367 5.426692
v 0.000000 1.337367 5.493680
v -0.250000 1.337367 5.426692
v -0.433013 1.337367 5.243680
v -0.500000 1.337367 4.993680
v -0.433013 1.337367 4.743680
v -0.250000 1.337367 4.560667
v -0.000000 1.337367 4.493680
v 0.250000 1.337367 4.560667
v 0.433013 0.134598 4.743680
v 0.500000 0.134598 4.993680
v 0.433013 0.134598 5.243680
v 0.250000 0.134598 5.426692
v 0.000000 0.134598 5.493680
v -0.250000 0.134598 5.426692
v -0.433013 0.134598 5.243680
v -0.500000 0.134598 4.993680
v -0.433013 0.134598 4.743680
v -0.250000 0.134598 4.560667
v 0.000000 0.134598 4.493680
v 0.250000 0.134598 4.560667
v 0.318882 1.338979 4.809573
v 0.184106 1.338979 4.674798
v 0.000000 1.338979 4.625466
v -0.184106 1.338979 4.674798
v -0.318882 1.338979 4.809573
v -0.368213 1.338979 4.993680
v -0.318882 1.338979 5.177785
v -0.184106 1.338979 5.312561
v 0.000000 1.338979 5.361892
v 0.184106 1.338979 5.312561
v 0.318882 1.338979 5.177785
v 0.368213 1.338979 4.993680
v 0.239161 1.401492 4.855599
v 0.138080 1.401492 4.754518
v 0.000000 1.401492 4.717520
v -0.138080 1.401492 4.754518
v -0.239161 1.401492 4.855599
v -0.276160 1.401492 4.993680
v -0.239161 1.401492 5.131759
v -0.138080 1.401492 5.232841
v 0.000000 1.401492 5.269839
v 0.138080 1.401492 5.232841
v 0.239161 1.401492 5.131759
v 0.276160 1.401492 4.993680
v 0.219231 1.401492 4.867106
v 0.126573 1.401492 4.774448
v 0.000000 1.401492 4.740533
v -0.126573 1.401492 4.774448
v -0.219231 1.401492 4.867106
v -0.253146 1.401492 4.993679
v -0.219231 1.401492 5.120252
v -0.126573 1.401492 5.212910
v 0.000000 1.401492 5.246825
v 0.126573 1.401492 5.212910
v 0.219231 1.401492 5.120252
v 0.253146 1.401492 4.993679
v 0.197308 1.384801 4.879764
v 0.113916 1.384801 4.796371
v 0.000000 1.384801 4.993679
v 0.000000 1.384801 4.765848
v -0.113916 1.384801 4.796371
v -0.197308 1.384801 4.879764
v -0.227832 1.384801 4.993679
v -0.197308 1.384801 5.107594
v -0.113916 1.384801 5.190987
v 0.000000 1.384801 5.221511
v 0.113916 1.384801 5.190987
v 0.197308 1.384801 5.107594
v 0.227832 1.384801 4.993679
v 0.522863 -0.006892 4.691804
v 0.301875 -0.006892 4.470817
v 0.301875 0.075262 4.470817
v 0.522863 0.075262 4.691804
v 0.000000 -0.006892 4.389929
v 0.000000 0.075262 4.389929
v -0.301875 -0.006892 4.470817
v -0.301875 0.075262 4.470817
v -0.522863 -0.006892 4.691804
v -0.522863 0.075262 4.691804
v -0.603750 -0.006892 4.993680
v -0.603750 0.075262 4.993680
v -0.522863 -0.006892 5.295554
v -0.522863 0.075262 5.295554
v -0.301875 -0.006892 5.516542
v -0.301875 0.075262 5.516542
v 0.000000 -0.006892 5.597429
v 0.000000 0.075262 5.597429
v 0.301875 -0.006892 5.516542
v 0.301875 0.075262 5.516542
v 0.522863 -0.006892 5.295554
v 0.522863 0.075262 5.295554
v 0.603750 -0.006892 4.993680
v 0.603750 0.075262 4.993680
vt 0.635316 0.078125
vt 0.578125 0.020934
vt 0.500000 0.000000
vt 0.421875 0.020934
vt 0.364684 0.078125
vt 0.343750 0.156250
vt 0.364684 0.234375
vt 0.421875 0.291566
vt 0.500000 0.312500
vt 0.578125 0.291566
vt 0.635316 0.234375
vt 0.656250 0.156250
vt 0.375000 0.312500
vt 0.395833 0.312500
vt 0.416667 0.312500
vt 0.437500 0.312500
vt 0.458333 0.312500
vt 0.479167 0.312500
vt 0.500000 0.312500
vt 0.520833 0.312500
vt 0.541667 0.312500
vt 0.562500 0.312500
vt 0.583333 0.312500
vt 0.604167 0.312500
vt 0.625000 0.312500
vt 0.375000 0.687500
vt 0.395833 0.687500
vt 0.416667 0.687500
vt 0.437500 0.687500
vt 0.458333 0.687500
vt 0.479167 0.687500
vt 0.500000 0.687500
vt 0.520833 0.687500
vt 0.541667 0.687500
vt 0.562500 0.687500
vt 0.583333 0.687500
vt 0.604167 0.687500
vt 0.625000 0.687500
vt 0.635316 0.765625
vt 0.578125 0.708434
vt 0.500000 0.687500
vt 0.421875 0.708434
vt 0.364684 0.765625
vt 0.343750 0.843750
vt 0.364684 0.921875
vt 0.421875 0.979066
vt 0.500000 1.000000
vt 0.578125 0.979066
vt 0.635316 0.921875
vt 0.656250 0.843750
vt 0.500000 0.156250
vt 0.500000 0.843750
vt 0.635316 0.921875
vt 0.578125 0.979066
vt 0.500000 1.000000
vt 0.421875 0.979066
vt 0.364684 0.921875
vt 0.343750 0.843750
vt 0.364684 0.765625
vt 0.421875 0.708434
vt 0.500000 0.687500
vt 0.578125 0.708434
vt 0.635316 0.765625
vt 0.656250 0.843750
vt 0.635316 0.921875
vt 0.578125 0.979066
vt 0.500000 1.000000
vt 0.421875 0.979066
vt 0.364684 0.921875
vt 0.343750 0.843750
vt 0.364684 0.765625
vt 0.421875 0.708434
vt 0.500000 0.687500
vt 0.578125 0.708434
vt 0.635316 0.765625
vt 0.656250 0.843750
vt 0.625000 0.670679
vt 0.375000 0.670679
vt 0.604167 0.670679
vt 0.583333 0.670679
vt 0.562500 0.670679
vt 0.541667 0.670679
vt 0.520833 0.670679
vt 0.500000 0.670679
vt 0.479167 0.670679
vt 0.458333 0.670679
vt 0.437500 0.670679
vt 0.416667 0.670679
vt 0.395833 0.670679
vt 0.625000 0.330724
vt 0.375000 0.330724
vt 0.604167 0.330724
vt 0.583333 0.330724
vt 0.562500 0.330724
vt 0.541667 0.330724
vt 0.520833 0.330724
vt 0.500000 0.330724
vt 0.479167 0.330724
vt 0.458333 0.330724
vt 0.437500 0.330724
vt 0.416667 0.330724
vt 0.395833 0.330724
vt 0.635316 0.921875
vt 0.578125 0.979066
vt 0.500000 1.000000
vt 0.421875 0.979066
vt 0.364684 0.921875
vt 0.343750 0.843750
vt 0.364684 0.765625
vt 0.421875 0.708434
vt 0.500000 0.687500
vt 0.578125 0.708434
vt 0.635316 0.765625
vt 0.656250 0.843750
vt 0.635316 0.921875
vt 0.578125 0.979066
vt 0.500000 1.000000
vt 0.421875 0.979066
vt 0.364684 0.921875
vt 0.343750 0.843750
vt 0.364684 0.765625
vt 0.421875 0.708434
vt 0.500000 0.687500
vt 0.578125 0.708434
vt 0.635316 0.765625
vt 0.656250 0.843750
vt 0.635316 0.921875
vt 0.578125 0.979066
vt 0.500000 1.000000
vt 0.421875 0.979066
vt 0.364684 0.921875
vt 0.343750 0.843750
vt 0.364684 0.765625
vt 0.421875 0.708434
vt 0.500000 0.687500
vt 0.578125 0.708434
vt 0.635316 0.765625
vt 0.656250 0.843750
vt 0.635316 0.921875
vt 0.578125 0.979066
vt 0.500000 1.000000
vt 0.421875 0.979066
vt 0.364684 0.921875
vt 0.343750 0.843750
vt 0.364684 0.765625
vt 0.421875 0.708434
vt 0.500000 0.687500
vt 0.578125 0.708434
vt 0.635316 0.765625
vt 0.656250 0.843750
vt 0.375000 0.312500
vt 0.395833 0.312500
vt 0.395833 0.330724
vt 0.375000 0.330724
vt 0.416667 0.312500
vt 0.416667 0.330724
vt 0.437500 0.312500
vt 0.437500 0.330724
vt 0.458333 0.312500
vt 0.458333 0.330724
vt 0.479167 0.312500
vt 0.479167 0.330724
vt 0.500000 0.312500
vt 0.500000 0.330724
vt 0.520833 0.312500
vt 0.520833 0.330724
vt 0.541667 0.312500
vt 0.541667 0.330724
vt 0.562500 0.312500
vt 0.562500 0.330724
vt 0.583333 0.312500
vt 0.583333 0.330724
vt 0.604167 0.312500
vt 0.604167 0.330724
vt 0.625000 0.312500
vt 0.625000 0.330724
vn 0.707107 0.000000 -0.707107
vn 0.707107 0.000000 -0.707107
vn 0.707107 0.000000 -0.707107
vn 0.707107 0.000000 -0.707107
vn 0.258820 0.000000 -0.965926
vn 0.258820 0.000000 -0.965926
vn 0.258820 0.000000 -0.965926
vn 0.258820 0.000000 -0.965926
vn -0.258820 0.000000 -0.965926
vn -0.258820 0.000000 -0.965926
vn -0.258820 0.000000 -0.965926
vn -0.258820 0.000000 -0.965926
vn -0.707107 0.000000 -0.707107
vn -0.707107 0.000000 -0.707107
vn -0.707107 0.000000 -0.707107
vn -0.707107 0.000000 -0.707107
vn -0.965926 0.000000 -0.258819
vn -0.965926 0.000000 -0.258819
vn -0.965926 0.000000 -0.258819
vn -0.965926 0.000000 -0.258819
vn -0.965926 0.000000 0.258820
vn -0.965926 0.000000 0.258820
vn -0.965926 0.000000 0.258820
vn -0.965926 0.000000 0.258820
vn -0.707107 0.000000 0.707107
vn -0.707107 0.000000 0.707107
vn -0.707107 0.000000 0.707107
vn -0.707107 0.000000 0.707107
vn -0.258820 0.000000 0.965926
vn -0.258820 0.000000 0.965926
vn -0.258820 0.000000 0.965926
vn -0.258820 0.000000 0.965926
vn 0.258820 0.000000 0.965926
vn 0.258820 0.000000 0.965926
vn 0.258820 0.000000 0.965926
vn 0.258820 0.000000 0.965926
vn 0.707107 0.000000 0.707107
vn 0.707107 0.000000 0.707107
vn 0.707107 0.000000 0.707107
vn 0.707107 0.000000 0.707107
vn 0.965926 0.000000 0.258820
vn 0.965926 0.000000 0.258820
vn 0.965926 0.000000 0.258820
vn 0.965926 0.000000 0.258820
vn 0.965926 0.000000 -0.258819
vn 0.965926 0.000000 -0.258819
vn 0.965926 0.000000 -0.258819
vn 0.965926 0.000000 -0.258819
vn -0.013284 -0.999647 0.023009
vn -0.023009 -0.999647 0.013284
vn 0.000000 -1.000000 0.000000
vn 0.000000 -0.999647 0.026568
vn 0.013284 -0.999647 0.023009
vn 0.023009 -0.999647 0.013284
vn 0.026568 -0.999647 0.000000
vn 0.023009 -0.999647 -0.013284
vn 0.013284 -0.999647 -0.023009
vn 0.000000 -0.999647 -0.026568
vn -0.013284 -0.999647 -0.023009
vn -0.023009 -0.999647 -0.013284
vn -0.026568 -0.999647 0.000000
vn 0.000000 1.000000 0.000000
vn 0.000000 1.000000 0.000000
vn 0.000000 1.000000 0.000000
vn 0.000000 1.000000 0.000000
vn 0.000000 1.000000 0.000001
vn 0.000000 1.000000 0.000001
vn 0.000000 1.000000 0.000000
vn 0.000000 1.000000 0.000000
vn 0.000000 1.000000 0.000000
vn 0.000000 1.000000 0.000000
vn 0.000000 1.000000 -0.000001
vn 0.000000 1.000000 -0.000001
vn 0.000000 1.000000 0.000000
vn 0.000000 1.000000 0.000001
vn 0.000000 1.000000 0.000001
vn 0.000000 1.000000 0.000001
vn 0.000000 1.000000 0.000001
vn 0.000000 1.000000 0.000001
vn 0.000000 1.000000 0.000001
vn 0.000000 1.000000 0.000000
vn 0.000000 1.000000 0.000000
vn 0.000000 1.000000 0.000001
vn 0.000000 1.000000 0.000001
vn 0.000000 1.000000 -0.000000
vn 0.000000 1.000000 -0.000000
vn 0.000000 1.000000 -0.000001
vn 0.000000 1.000000 -0.000001
vn 0.000000 1.000000 -0.000001
vn 0.000000 1.000000 -0.000001
vn 0.000000 1.000000 -0.000001
vn 0.000000 1.000000 -0.000001
vn 0.000000 1.000000 -0.000000
vn 0.000000 1.000000 -0.000000
vn 0.000000 1.000000 -0.000001
vn 0.000000 1.000000 -0.000001
vn 0.000000 1.000000 0.000000
vn 0.000000 1.000000 0.000000
vn -0.535460 0.785945 0.309148
vn -0.309148 0.785946 0.535460
vn -0.309148 0.785946 0.535460
vn -0.535460 0.785945 0.309148
vn -0.000000 0.785946 0.618295
vn -0.000000 0.785946 0.618295
vn 0.309148 0.785946 0.535459
vn 0.309148 0.785946 0.535459
vn 0.535460 0.785945 0.309148
vn 0.535460 0.785945 0.309148
vn 0.618295 0.785946 -0.000000
vn 0.618295 0.785946 -0.000000
vn 0.535460 0.785945 -0.309148
vn 0.535460 0.785945 -0.309148
vn 0.309148 0.785946 -0.535460
vn 0.309148 0.785946 -0.535460
vn 0.000000 0.785946 -0.618295
vn 0.000000 0.785946 -0.618295
vn -0.309148 0.785946 -0.535459
vn -0.309148 0.785946 -0.535459
vn -0.535460 0.785945 -0.309148
vn -0.535460 0.785945 -0.309148
vn -0.618295 0.785946 0.000000
vn -0.618295 0.785946 0.000000
vn 0.965926 0.000000 -0.258819
vn 0.965926 0.000000 -0.258819
vn 0.965926 0.000000 -0.258819
vn 0.965926 0.000000 -0.258819
vn 0.965926 0.000000 0.258819
vn 0.965926 0.000000 0.258819
vn 0.965926 0.000000 0.258819
vn 0.965926 0.000000 0.258819
vn 0.707106 0.000000 0.707107
vn 0.707106 0.000000 0.707107
vn 0.707106 0.000000 0.707108
vn 0.707106 0.000000 0.707108
vn 0.258820 0.000000 0.965926
vn 0.258820 0.000000 0.965926
vn 0.258821 0.000000 0.965925
vn 0.258821 0.000000 0.965925
vn -0.258820 0.000000 0.965926
vn -0.258820 0.000000 0.965926
vn -0.258821 0.000000 0.965925
vn -0.258821 0.000000 0.965925
vn -0.707106 0.000000 0.707107
vn -0.707106 0.000000 0.707107
vn -0.707106 0.000000 0.707108
vn -0.707106 0.000000 0.707108
vn -0.965926 0.000000 0.258819
vn -0.965926 0.000000 0.258819
vn -0.965926 0.000000 0.258819
vn -0.965926 0.000000 0.258819
vn -0.965926 0.000000 -0.258819
vn -0.965926 0.000000 -0.258819
vn -0.965926 0.000000 -0.258819
vn -0.965926 0.000000 -0.258819
vn -0.707106 0.000000 -0.707107
vn -0.707106 0.000000 -0.707107
vn -0.707107 0.000000 -0.707107
vn -0.707107 0.000000 -0.707107
vn -0.258820 0.000000 -0.965926
vn -0.258820 0.000000 -0.965926
vn -0.258819 0.000000 -0.965926
vn -0.258819 0.000000 -0.965926
vn 0.258820 0.000000 -0.965926
vn 0.258820 0.000000 -0.965926
vn 0.258819 0.000000 -0.965926
vn 0.258819 0.000000 -0.965926
vn 0.707106 0.000000 -0.707107
vn 0.707106 0.000000 -0.707107
vn 0.707107 0.000000 -0.707107
vn 0.707107 0.000000 -0.707107
vn 0.965926 0.000000 -0.258819
vn 0.965926 0.000000 -0.258819
vn 0.965926 0.000000 0.258819
vn 0.965926 0.000000 0.258819
vn 0.707106 0.000000 0.707107
vn 0.707106 0.000000 0.707107
vn 0.258820 0.000000 0.965925
vn 0.258820 0.000000 0.965925
vn -0.258820 0.000000 0.965925
vn -0.258820 0.000000 0.965925
vn -0.707106 0.000000 0.707107
vn -0.707106 0.000000 0.707107
vn -0.965926 0.000000 0.258819
vn -0.965926 0.000000 0.258819
vn -0.965926 0.000000 -0.258819
vn -0.965926 0.000000 -0.258819
vn -0.707106 0.000000 -0.707107
vn -0.707106 0.000000 -0.707107
vn -0.258820 0.000000 -0.965925
vn -0.258820 0.000000 -0.965925
vn 0.258820 0.000000 -0.965925
vn 0.258820 0.000000 -0.965925
vn 0.707106 0.000000 -0.707107
vn 0.707106 0.000000 -0.707107
vn 0.000000 1.000000 -0.000001
vn 0.000000 1.000000 -0.000001
vn 0.000000 1.000000 -0.000001
vn 0.000000 1.000000 -0.000001
vn 0.000000 1.000000 -0.000001
vn 0.000000 1.000000 -0.000001
vn 0.000000 1.000000 0.000001
vn 0.000000 1.000000 0.000001
vn 0.000000 1.000000 0.000000
vn 0.000000 1.000000 0.000000
vn 0.000000 1.000000 -0.000000
vn 0.000000 1.000000 -0.000000
vn 0.000000 1.000000 0.000001
vn 0.000000 1.000000 0.000001
vn 0.000000 1.000000 0.000001
vn 0.000000 1.000000 0.000001
vn 0.000000 1.000000 0.000001
vn 0.000000 1.000000 0.000001
vn 0.000000 1.000000 -0.000001
vn 0.000000 1.000000 -0.000001
vn 0.000000 1.000000 -0.000000
vn 0.000000 1.000000 -0.000000
vn 0.000000 1.000000 0.000000
vn 0.000000 1.000000 0.000000
vn 0.486532 0.827274 -0.280899
vn 0.280899 0.827274 -0.486532
vn 0.280899 0.827274 -0.486532
vn 0.486532 0.827274 -0.280899
vn 0.000000 0.827274 -0.561798
vn 0.000000 0.827275 -0.561798
vn -0.280899 0.827274 -0.486532
vn -0.280899 0.827274 -0.486532
vn -0.486532 0.827274 -0.280899
vn -0.486532 0.827274 -0.280900
vn -0.561798 0.827274 -0.000000
vn -0.561798 0.827274 -0.000000
vn -0.486532 0.827274 0.280899
vn -0.486532 0.827274 0.280899
vn -0.280900 0.827274 0.486531
vn -0.280901 0.827274 0.486531
vn 0.000000 0.827274 0.561798
vn 0.000000 0.827275 0.561798
vn 0.280900 0.827274 0.486531
vn 0.280901 0.827274 0.486531
vn 0.486532 0.827274 0.280900
vn 0.486532 0.827274 0.280899
vn 0.561798 0.827274 0.000000
vn 0.561798 0.827274 0.000000
vn 0.000000 1.000000 0.000001
vn 0.000000 1.000000 0.000002
vn 0.000000 1.000000 0.000002
vn 0.000000 1.000000 0.000001
vn 0.000000 1.000000 0.000001
vn 0.000000 1.000000 0.000001
vn 0.000000 1.000000 0.000000
vn 0.000000 1.000000 0.000000
vn 0.000000 1.000000 0.000000
vn 0.000000 1.000000 0.000000
vn 0.000000 1.000000 0.000000
vn 0.000000 1.000000 0.000000
vn 0.000000 1.000000 -0.000001
vn 0.000000 1.000000 -0.000001
vn 0.000000 1.000000 -0.000002
vn 0.000000 1.000000 -0.000002
vn 0.000000 1.000000 -0.000001
vn 0.000000 1.000000 -0.000001
vn 0.000000 1.000000 0.000000
vn 0.000000 1.000000 0.000000
vn 0.000000 1.000000 -0.000000
vn 0.000000 1.000000 -0.000000
vn 0.000000 1.000000 -0.000000
vn 0.000000 1.000000 -0.000000
vn -0.476707 0.834865 0.275229
vn -0.275228 0.834864 0.476708
vn -0.275228 0.834864 0.476708
vn -0.476708 0.834865 0.275228
vn 0.000000 0.834865 0.550455
vn 0.000000 0.834865 0.550455
vn 0.275229 0.834865 0.476707
vn 0.275228 0.834865 0.476707
vn 0.476707 0.834865 0.275229
vn 0.476708 0.834865 0.275227
vn 0.550455 0.834865 0.000000
vn 0.550455 0.834865 0.000000
vn 0.476709 0.834864 -0.275229
vn 0.476709 0.834864 -0.275230
vn 0.275230 0.834863 -0.476711
vn 0.275230 0.834863 -0.476711
vn -0.000000 0.834863 -0.550458
vn -0.000000 0.834863 -0.550458
vn -0.275230 0.834863 -0.476710
vn -0.275230 0.834863 -0.476710
vn -0.476709 0.834864 -0.275229
vn -0.476709 0.834864 -0.275229
vn -0.550455 0.834865 -0.000000
vn -0.550455 0.834865 -0.000000
vn -0.033940 -0.997694 0.058785
vn -0.058786 -0.997694 0.033940
vn 0.248226 0.868064 -0.429940
vn 0.429940 0.868064 -0.248226
vn 0.429940 0.868064 -0.248226
vn 0.248226 0.868064 -0.429940
vn 0.000000 -0.997694 0.067880
vn 0.000000 0.868065 -0.496451
vn 0.000000 0.868065 -0.496451
vn 0.033940 -0.997694 0.058785
vn -0.248226 0.868064 -0.429940
vn -0.248226 0.868064 -0.429940
vn 0.058786 -0.997694 0.033940
vn -0.429940 0.868064 -0.248226
vn -0.429940 0.868064 -0.248226
vn 0.067880 -0.997694 0.000000
vn -0.496453 0.868064 0.000000
vn -0.496453 0.868064 0.000000
vn 0.058786 -0.997694 -0.033940
vn -0.429941 0.868064 0.248227
vn -0.429941 0.868064 0.248226
vn 0.033940 -0.997694 -0.058786
vn -0.248227 0.868064 0.429941
vn -0.248227 0.868064 0.429941
vn 0.000000 -0.997694 -0.067880
vn 0.000000 0.868064 0.496453
vn 0.000000 0.868064 0.496453
vn -0.033940 -0.997694 -0.058786
vn 0.248227 0.868064 0.429941
vn 0.248227 0.868064 0.429941
vn -0.058786 -0.997694 -0.033940
vn 0.429941 0.868064 0.248227
vn 0.429941 0.868064 0.248226
vn -0.067880 -0.997694 0.000000
vn 0.496453 0.868064 -0.000000
vn 0.496453 0.868064 -0.000000
s off
g Pedestal
usemtl initialShadingGroup
f 123/151/1 124/152/2 125/153/3 126/154/4
f 124/152/5 127/155/6 128/156/7 125/153/8
f 127/155/9 129/157/10 130/158/11 128/156/12
f 129/157/13 131/159/14 132/160/15 130/158/16
f 131/159/17 133/161/18 134/162/19 132/160/20
f 133/161/21 135/163/22 136/164/23 134/162/24
f 135/163/25 137/165/26 138/166/27 136/164/28
f 137/165/29 139/167/30 140/168/31 138/166/32
f 139/167/33 141/169/34 142/170/35 140/168/36
f 141/169/37 143/171/38 144/172/39 142/170/40
f 143/171/41 145/173/42 146/174/43 144/172/44
f 145/173/45 123/175/46 126/176/47 146/174/48
s 1
f 2/2/49 1/1/50 25/51/51
f 3/3/52 2/2/49 25/51/51
f 4/4/53 3/3/52 25/51/51
f 5/5/54 4/4/53 25/51/51
f 6/6/55 5/5/54 25/51/51
f 7/7/56 6/6/55 25/51/51
f 8/8/57 7/7/56 25/51/51
f 9/9/58 8/8/57 25/51/51
f 10/10/59 9/9/58 25/51/51
f 11/11/60 10/10/59 25/51/51
f 12/12/61 11/11/60 25/51/51
f 1/1/50 12/12/61 25/51/51
s 2
f 110/139/62 111/140/63 112/52/64
f 111/140/63 113/141/65 112/52/64
f 113/141/65 114/142/66 112/52/64
f 114/142/66 115/143/67 112/52/64
f 115/143/67 116/144/68 112/52/64
f 116/144/68 117/145/69 112/52/64
f 117/145/69 118/146/70 112/52/64
f 118/146/70 119/147/71 112/52/64
f 119/147/71 120/148/72 112/52/64
f 120/148/72 121/149/73 112/52/64
f 121/149/73 122/150/74 112/52/64
f 122/150/74 110/139/62 112/52/64
s 3
f 13/49/75 14/48/76 27/54/77 26/53/78
f 14/48/76 15/47/79 28/55/80 27/54/77
f 15/47/79 16/46/81 29/56/82 28/55/80
f 16/46/81 17/45/83 30/57/84 29/56/82
f 17/45/83 18/44/85 31/58/86 30/57/84
f 18/44/85 19/43/87 32/59/88 31/58/86
f 19/43/87 20/42/89 33/60/90 32/59/88
f 20/42/89 21/41/91 34/61/92 33/60/90
f 21/41/91 22/40/93 35/62/94 34/61/92
f 22/40/93 23/39/95 36/63/96 35/62/94
f 23/39/95 24/50/97 37/64/98 36/63/96
f 24/50/97 13/49/75 26/53/78 37/64/98
s 4
f 26/53/99 27/54/100 39/66/101 38/65/102
f 27/54/100 28/55/103 40/67/104 39/66/101
f 28/55/103 29/56/105 41/68/106 40/67/104
f 29/56/105 30/57/107 42/69/108 41/68/106
f 30/57/107 31/58/109 43/70/110 42/69/108
f 31/58/109 32/59/111 44/71/112 43/70/110
f 32/59/111 33/60/113 45/72/114 44/71/112
f 33/60/113 34/61/115 46/73/116 45/72/114
f 34/61/115 35/62/117 47/74/118 46/73/116
f 35/62/117 36/63/119 48/75/120 47/74/118
f 36/63/119 37/64/121 49/76/122 48/75/120
f 37/64/121 26/53/99 38/65/102 49/76/122
s 5
f 51/79/123 50/77/124 13/38/125 24/37/126
s 6
f 52/80/127 51/79/128 24/37/129 23/36/130
s 7
f 53/81/131 52/80/132 23/36/133 22/35/134
s 8
f 54/82/135 53/81/136 22/35/137 21/34/138
s 9
f 55/83/139 54/82/140 21/34/141 20/33/142
s 10
f 56/84/143 55/83/144 20/33/145 19/32/146
s 11
f 57/85/147 56/84/148 19/32/149 18/31/150
s 12
f 58/86/151 57/85/152 18/31/153 17/30/154
s 13
f 59/87/155 58/86/156 17/30/157 16/29/158
s 14
f 60/88/159 59/87/160 16/29/161 15/28/162
s 15
f 61/89/163 60/88/164 15/28/165 14/27/166
s 16
f 50/78/167 61/89/168 14/27/169 13/26/170
s 5
f 63/92/171 62/90/172 50/77/124 51/79/123
s 6
f 64/93/173 63/92/174 51/79/128 52/80/127
s 7
f 65/94/175 64/93/176 52/80/132 53/81/131
s 8
f 66/95/177 65/94/178 53/81/136 54/82/135
s 9
f 67/96/179 66/95/180 54/82/140 55/83/139
s 10
f 68/97/181 67/96/182 55/83/144 56/84/143
s 11
f 69/98/183 68/97/184 56/84/148 57/85/147
s 12
f 70/99/185 69/98/186 57/85/152 58/86/151
s 13
f 71/100/187 70/99/188 58/86/156 59/87/155
s 14
f 72/101/189 71/100/190 59/87/160 60/88/159
s 15
f 73/102/191 72/101/192 60/88/164 61/89/163
s 16
f 62/91/193 73/102/194 61/89/168 50/78/167
s 17
f 38/65/195 39/66/196 75/104/197 74/103/198
f 39/66/196 40/67/199 76/105/200 75/104/197
f 40/67/199 41/68/201 77/106/202 76/105/200
f 41/68/201 42/69/203 78/107/204 77/106/202
f 42/69/203 43/70/205 79/108/206 78/107/204
f 43/70/205 44/71/207 80/109/208 79/108/206
f 44/71/207 45/72/209 81/110/210 80/109/208
f 45/72/209 46/73/211 82/111/212 81/110/210
f 46/73/211 47/74/213 83/112/214 82/111/212
f 47/74/213 48/75/215 84/113/216 83/112/214
f 48/75/215 49/76/217 85/114/218 84/113/216
f 49/76/217 38/65/195 74/103/198 85/114/218
s 18
f 74/103/219 75/104/220 87/116/221 86/115/222
f 75/104/220 76/105/223 88/117/224 87/116/221
f 76/105/223 77/106/225 89/118/226 88/117/224
f 77/106/225 78/107/227 90/119/228 89/118/226
f 78/107/227 79/108/229 91/120/230 90/119/228
f 79/108/229 80/109/231 92/121/232 91/120/230
f 80/109/231 81/110/233 93/122/234 92/121/232
f 81/110/233 82/111/235 94/123/236 93/122/234
f 82/111/235 83/112/237 95/124/238 94/123/236
f 83/112/237 84/113/239 96/125/240 95/124/238
f 84/113/239 85/114/241 97/126/242 96/125/240
f 85/114/241 74/103/219 86/115/222 97/126/242
s 19
f 86/115/243 87/116/244 99/128/245 98/127/246
f 87/116/244 88/117/247 100/129/248 99/128/245
f 88/117/247 89/118/249 101/130/250 100/129/248
f 89/118/249 90/119/251 102/131/252 101/130/250
f 90/119/251 91/120/253 103/132/254 102/131/252
f 91/120/253 92/121/255 104/133/256 103/132/254
f 92/121/255 93/122/257 105/134/258 104/133/256
f 93/122/257 94/123/259 106/135/260 105/134/258
f 94/123/259 95/124/261 107/136/262 106/135/260
f 95/124/261 96/125/263 108/137/264 107/136/262
f 96/125/263 97/126/265 109/138/266 108/137/264
f 97/126/265 86/115/243 98/127/246 109/138/266
s 20
f 98/127/267 99/128/268 111/140/269 110/139/270
f 99/128/268 100/129/271 113/141/272 111/140/269
f 100/129/271 101/130/273 114/142/274 113/141/272
f 101/130/273 102/131/275 115/143/276 114/142/274
f 102/131/275 103/132/277 116/144/278 115/143/276
f 103/132/277 104/133/279 117/145/280 116/144/278
f 104/133/279 105/134/281 118/146/282 117/145/280
f 105/134/281 106/135/283 119/147/284 118/146/282
f 106/135/283 107/136/285 120/148/286 119/147/284
f 107/136/285 108/137/287 121/149/288 120/148/286
f 108/137/287 109/138/289 122/150/290 121/149/288
f 109/138/289 98/127/267 110/139/270 122/150/290
s 1
f 1/13/50 2/14/49 124/152/291 123/151/292
s 21
f 73/102/293 62/91/294 126/154/295 125/153/296
s 1
f 2/14/49 3/15/52 127/155/297 124/152/291
s 21
f 72/101/298 73/102/293 125/153/296 128/156/299
s 1
f 3/15/52 4/16/53 129/157/300 127/155/297
s 21
f 71/100/301 72/101/298 128/156/299 130/158/302
s 1
f 4/16/53 5/17/54 131/159/303 129/157/300
s 21
f 70/99/304 71/100/301 130/158/302 132/160/305
s 1
f 5/17/54 6/18/55 133/161/306 131/159/303
s 21
f 69/98/307 70/99/304 132/160/305 134/162/308
s 1
f 6/18/55 7/19/56 135/163/309 133/161/306
s 21
f 68/97/310 69/98/307 134/162/308 136/164/311
s 1
f 7/19/56 8/20/57 137/165/312 135/163/309
s 21
f 67/96/313 68/97/310 136/164/311 138/166/314
s 1
f 8/20/57 9/21/58 139/167/315 137/165/312
s 21
f 66/95/316 67/96/313 138/166/314 140/168/317
s 1
f 9/21/58 10/22/59 141/169/318 139/167/315
s 21
f 65/94/319 66/95/316 140/168/317 142/170/320
s 1
f 10/22/59 11/23/60 143/171/321 141/169/318
s 21
f 64/93/322 65/94/319 142/170/320 144/172/323
s 1
f 11/23/60 12/24/61 145/173/324 143/171/321
s 21
f 63/92/325 64/93/322 144/172/323 146/174/326
s 1
f 12/24/61 1/25/50 123/175/292 145/173/324
s 21
f 62/90/294 63/92/325 146/174/326 126/176/295
