# This file uses centimeters as units for non-parametric coordinates.

mtllib SmallTower_WIP1.mtl
g default
v 5.059290 17.952357 -13.697668
v 5.059289 17.952357 -6.769465
v 11.059290 17.952355 -10.233566
v 7.059290 23.861142 -10.233566
v 11.059290 -0.068104 -10.233566
v 5.059290 -0.068104 -13.697668
v 5.059289 -0.068104 -6.769465
v 5.059289 17.530728 -6.769465
v 11.059290 17.530726 -10.233566
v 5.059290 17.530728 -13.697668
v 5.059289 0.495449 -6.769465
v 11.059290 0.495449 -10.233566
v 5.059290 0.495449 -13.697668
v 5.059289 17.228764 -6.769465
v 11.059290 17.228762 -10.233566
v 5.059290 17.228764 -13.697668
vt 0.375000 0.033494
vt 0.375000 0.466506
vt 0.750000 0.250000
vt 0.250000 0.500000
vt 0.416667 0.500000
vt 0.583333 0.500000
vt 0.750000 0.500000
vt 0.500000 1.000000
vt 0.375000 0.033494
vt 0.750000 0.250000
vt 0.375000 0.466506
vt 0.375000 0.466506
vt 0.750000 0.250000
vt 0.375000 0.033494
vt 0.375000 0.466506
vt 0.750000 0.250000
vt 0.375000 0.033494
vt 0.375000 0.466506
vt 0.750000 0.250000
vt 0.375000 0.033494
vn 0.000000 -1.000000 0.000000
vn 0.000000 -1.000000 0.000000
vn 0.000000 -1.000000 0.000000
vn -0.963071 0.269246 -0.000000
vn -0.963071 0.269246 -0.000000
vn -0.947211 0.320611 0.000000
vn 0.481536 0.269246 0.834044
vn 0.481536 0.269246 0.834044
vn 0.473605 0.320611 0.820309
vn 0.481536 0.269246 -0.834044
vn 0.481536 0.269246 -0.834044
vn 0.473606 0.320611 -0.820309
vn 0.500001 0.000000 -0.866025
vn 0.500001 0.000000 -0.866025
vn 0.500001 -0.000000 0.866025
vn 0.500001 -0.000000 0.866025
vn -1.000000 0.000000 -0.000000
vn -1.000000 0.000000 -0.000000
vn 0.500000 -0.000000 0.866025
vn 0.500000 -0.000000 0.866026
vn 0.500000 0.000000 -0.866025
vn 0.500000 0.000000 -0.866025
vn -1.000000 0.000000 -0.000000
vn -1.000000 0.000000 -0.000000
vn 0.500000 0.000000 0.866025
vn 0.500000 0.000000 0.866025
vn 0.500000 0.000000 0.866025
vn 0.500000 0.000000 0.866025
vn 0.500000 0.000000 -0.866025
vn 0.500000 0.000000 -0.866025
vn 0.500000 0.000000 -0.866025
vn 0.500000 0.000000 -0.866025
vn -1.000000 0.000000 -0.000000
vn -1.000000 0.000000 -0.000000
vn -1.000000 0.000000 -0.000000
vn -1.000000 0.000000 -0.000000
s off
g Torn
usemtl initialShadingGroup
f 6/9/1 5/10/2 7/11/3
s 1
f 1/4/4 2/5/5 4/8/6
s 2
f 2/5/7 3/6/8 4/8/9
s 3
f 3/6/10 1/7/11 4/8/12
f 1/1/11 3/3/10 9/13/13 10/14/14
s 2
f 3/3/8 2/2/7 8/12/15 9/13/16
s 1
f 2/2/5 1/1/4 10/14/17 8/12/18
s 2
f 9/13/16 8/12/15 14/18/19 15/19/20
s 3
f 10/14/14 9/13/13 15/19/21 16/20/22
s 1
f 8/12/18 10/14/17 16/20/23 14/18/24
s 2
f 12/16/25 11/15/26 7/11/27 5/10/28
s 3
f 13/17/29 12/16/30 5/10/31 6/9/32
s 1
f 11/15/33 13/17/34 6/9/35 7/11/36
s 2
f 15/19/20 14/18/19 11/15/26 12/16/25
s 3
f 16/20/22 15/19/21 12/16/30 13/17/29
s 1
f 14/18/24 16/20/23 13/17/34 11/15/33
