# This file uses centimeters as units for non-parametric coordinates.

mtllib TutorialGround_1_WIP1.mtl
g default
v 10.000372 -0.104319 10.736989
v 11.250372 -0.104319 10.736989
v 12.500372 -0.104319 10.736989
v 13.750372 -0.104319 10.736989
v 15.000372 -0.104319 10.736989
v 16.250372 -0.104319 10.736989
v 17.500372 -0.104319 10.736989
v 18.750372 -0.104319 10.736989
v 20.000370 -0.104319 10.736989
v 10.000372 0.895681 10.736989
v 11.250372 0.895681 10.736989
v 12.500372 0.895681 10.736989
v 13.750372 0.895681 10.736989
v 15.000372 0.895681 10.736989
v 16.250372 0.895681 10.736989
v 17.500372 0.895681 10.736989
v 18.750372 0.895681 10.736989
v 20.000370 0.895681 10.736989
v 10.000372 0.895681 9.486988
v 11.250372 0.895681 9.486988
v 12.500372 0.895681 9.486988
v 13.750372 0.895681 9.486988
v 15.000372 0.895681 9.486988
v 16.250372 0.895681 9.486988
v 17.500372 0.895681 9.486988
v 20.000370 0.895681 9.486988
v 10.000372 0.895681 8.236988
v 11.250372 0.895681 8.236988
v 12.500372 0.895681 8.236988
v 13.750372 0.895681 8.236988
v 15.000372 0.895681 8.236988
v 16.250372 0.895681 8.236988
v 17.500372 0.895681 8.236988
v 20.000370 0.895681 8.236988
v 10.000372 0.895681 6.986988
v 11.250372 0.895681 6.986988
v 12.500372 0.895681 6.986988
v 13.750372 0.895681 6.986988
v 15.000372 0.895681 6.986988
v 16.250372 0.895681 6.986988
v 17.500372 0.895681 6.986988
v 18.750372 0.895681 6.986988
v 20.000370 0.895681 6.986988
v 10.000372 0.895681 5.736988
v 11.250372 0.895681 5.736988
v 12.500372 0.895681 5.736988
v 13.750372 0.895681 5.736988
v 15.000372 0.895681 5.736988
v 16.250372 0.895681 5.736988
v 17.500372 0.895681 5.736988
v 18.750372 0.895681 5.736988
v 20.000370 0.895681 5.736988
v 10.000372 0.895681 4.486988
v 12.500372 0.895681 4.486988
v 13.750372 0.895681 4.486988
v 15.000372 0.895681 4.486988
v 16.250372 0.895681 4.486988
v 17.500372 0.895681 4.486988
v 18.750372 0.895681 4.486988
v 20.000370 0.895681 4.486988
v 10.000372 0.895681 3.236988
v 12.500372 0.895681 3.236988
v 13.750372 0.895681 3.236988
v 15.000372 0.895681 3.236988
v 16.250372 0.895681 3.236988
v 17.500372 0.895681 3.236988
v 20.000370 0.895681 3.236988
v 10.000372 0.895681 1.986988
v 12.500372 0.895681 1.986988
v 13.750372 0.895681 1.986988
v 15.000372 0.895681 1.986988
v 16.250372 0.895681 1.986988
v 17.500372 0.895681 1.986988
v 20.000370 0.895681 1.986988
v 10.000372 0.895681 0.736988
v 11.250372 0.895681 0.736988
v 12.500372 0.895681 0.736988
v 13.750372 0.895681 0.736988
v 15.000372 0.895681 0.736988
v 16.250372 0.895681 0.736988
v 17.500372 0.895681 0.736988
v 18.750372 0.895681 0.736988
v 20.000370 0.895681 0.736988
v 10.000372 -0.104319 0.736988
v 11.250372 -0.104319 0.736988
v 12.500372 -0.104319 0.736988
v 13.750372 -0.104319 0.736988
v 15.000372 -0.104319 0.736988
v 16.250372 -0.104319 0.736988
v 17.500372 -0.104319 0.736988
v 18.750372 -0.104319 0.736988
v 20.000370 -0.104319 0.736988
v 10.000372 -0.104319 1.986988
v 11.250372 -0.104319 1.986988
v 12.500372 -0.104319 1.986988
v 13.750372 -0.104319 1.986988
v 15.000372 -0.104319 1.986988
v 16.250372 -0.104319 1.986988
v 17.500372 -0.104319 1.986988
v 18.750372 -0.104319 1.986988
v 20.000370 -0.104319 1.986988
v 10.000372 -0.104319 3.236988
v 11.250372 -0.104319 3.236988
v 12.500372 -0.104319 3.236988
v 13.750372 -0.104319 3.236988
v 15.000372 -0.104319 3.236988
v 16.250372 -0.104319 3.236988
v 17.500372 -0.104319 3.236988
v 18.750372 -0.104319 3.236988
v 20.000370 -0.104319 3.236988
v 10.000372 -0.104319 4.486988
v 11.250372 -0.104319 4.486988
v 12.500372 -0.104319 4.486988
v 13.750372 -0.104319 4.486988
v 15.000372 -0.104319 4.486988
v 16.250372 -0.104319 4.486988
v 17.500372 -0.104319 4.486988
v 18.750372 -0.104319 4.486988
v 20.000370 -0.104319 4.486988
v 10.000372 -0.104319 5.736988
v 11.250372 -0.104319 5.736988
v 12.500372 -0.104319 5.736988
v 13.750372 -0.104319 5.736988
v 15.000372 -0.104319 5.736988
v 16.250372 -0.104319 5.736988
v 17.500372 -0.104319 5.736988
v 18.750372 -0.104319 5.736988
v 20.000370 -0.104319 5.736988
v 10.000372 -0.104319 6.986988
v 11.250372 -0.104319 6.986988
v 12.500372 -0.104319 6.986988
v 13.750372 -0.104319 6.986988
v 15.000372 -0.104319 6.986988
v 16.250372 -0.104319 6.986988
v 17.500372 -0.104319 6.986988
v 18.750372 -0.104319 6.986988
v 20.000370 -0.104319 6.986988
v 10.000372 -0.104319 8.236988
v 11.250372 -0.104319 8.236988
v 12.500372 -0.104319 8.236988
v 13.750372 -0.104319 8.236988
v 15.000372 -0.104319 8.236988
v 16.250372 -0.104319 8.236988
v 17.500372 -0.104319 8.236988
v 18.750372 -0.104319 8.236988
v 20.000370 -0.104319 8.236988
v 10.000372 -0.104319 9.486988
v 11.250372 -0.104319 9.486988
v 12.500372 -0.104319 9.486988
v 13.750372 -0.104319 9.486988
v 15.000372 -0.104319 9.486988
v 16.250372 -0.104319 9.486988
v 17.500372 -0.104319 9.486988
v 18.750372 -0.104319 9.486988
v 20.000370 -0.104319 9.486988
v 10.000372 1.023803 10.736989
v 11.250372 1.023803 10.736989
v 11.250372 1.023803 9.486988
v 10.000372 1.023803 9.486988
v 11.250372 1.023803 8.236988
v 10.000372 1.023803 8.236988
v 12.500372 1.023803 9.486988
v 12.500372 1.023803 8.236988
v 12.500372 1.023803 6.986988
v 11.250372 1.023803 6.986988
v 13.750372 1.023803 8.236988
v 13.750372 1.023803 6.986988
v 12.500372 1.023803 10.736989
v 13.750372 1.023803 10.736989
v 13.750372 1.023803 9.486988
v 12.500372 1.023803 9.486988
v 17.500372 1.023803 10.736989
v 18.750372 1.023803 10.736989
v 18.750372 1.023803 9.486988
v 17.500372 1.023803 9.486988
v 20.000370 1.023803 10.736989
v 20.000370 1.023803 9.486988
v 16.250372 1.023803 9.486988
v 17.500372 1.023803 8.236988
v 16.250372 1.023803 8.236988
v 18.750372 1.023803 8.236988
v 20.000370 1.023803 8.236988
v 18.750372 1.023803 6.986988
v 17.500372 1.023803 6.986988
v 20.000370 1.023803 6.986988
v 20.000370 1.023803 5.736988
v 18.750372 1.023803 5.736988
v 10.000372 1.023803 6.986988
v 11.250372 1.023803 6.986988
v 11.250372 1.023803 5.736988
v 10.000372 1.023803 5.736988
v 11.250372 1.023803 4.486988
v 10.000372 1.023803 4.486988
v 12.500372 1.023803 5.736988
v 12.500372 1.023803 4.486988
v 13.750372 1.023803 5.736988
v 13.750372 1.023803 4.486988
v 11.250372 1.023803 3.236988
v 10.000372 1.023803 3.236988
v 12.500372 1.023803 3.236988
v 11.250372 1.023803 1.986988
v 10.000372 1.023803 1.986988
v 12.500372 1.023803 1.986988
v 11.250372 1.023803 0.736988
v 10.000372 1.023803 0.736988
v 12.500372 1.023803 0.736988
v 15.000372 1.023803 6.986988
v 16.250372 1.023803 6.986988
v 16.250372 1.023803 5.736988
v 15.000372 1.023803 5.736988
v 16.250372 1.023803 4.486988
v 15.000372 1.023803 4.486988
v 17.500372 1.023803 4.486988
v 18.750372 1.023803 4.486988
v 18.750372 1.023803 3.236988
v 17.500372 1.023803 3.236988
v 20.000370 1.023803 4.486988
v 20.000370 1.023803 3.236988
v 16.250372 1.023803 3.236988
v 17.500372 1.023803 1.986988
v 16.250372 1.023803 1.986988
v 18.750372 1.023803 1.986988
v 20.000370 1.023803 1.986988
v 18.750372 1.023803 0.736988
v 17.500372 1.023803 0.736988
v 20.000370 1.023803 0.736988
v 13.750372 1.023803 3.236988
v 15.000372 1.023803 3.236988
v 15.000372 1.023803 1.986988
v 13.750372 1.023803 1.986988
v 15.000372 1.023803 1.986988
v 16.250372 1.023803 1.986988
v 16.250372 1.023803 0.736988
v 15.000372 1.023803 0.736988
v 10.000372 1.241380 10.736989
v 11.250372 1.241380 10.736989
v 11.250372 1.241380 9.486988
v 10.000372 1.241380 9.486988
v 11.250372 1.241380 8.236988
v 10.000372 1.241380 8.236988
v 12.500372 1.241380 10.736989
v 13.750372 1.241380 10.736989
v 13.750372 1.241380 9.486988
v 12.500372 1.241380 9.486988
v 17.500372 1.241380 9.486988
v 18.750372 1.241380 9.486988
v 18.750372 1.241380 8.236988
v 17.500372 1.241380 8.236988
v 20.000370 1.241380 9.486988
v 20.000370 1.241380 8.236988
v 20.000370 1.241380 6.986988
v 18.750372 1.241380 6.986988
v 20.000370 1.241380 5.736988
v 18.750372 1.241380 5.736988
v 11.250372 1.241380 8.236988
v 12.500372 1.241380 8.236988
v 12.500372 1.241380 6.986988
v 11.250372 1.241380 6.986988
v 13.750372 1.241380 8.236988
v 13.750372 1.241380 6.986988
v 10.000372 1.241380 6.986988
v 11.250372 1.241380 6.986988
v 11.250372 1.241380 5.736988
v 10.000372 1.241380 5.736988
v 11.250372 1.241380 5.736988
v 12.500372 1.241380 5.736988
v 12.500372 1.241380 4.486988
v 11.250372 1.241380 4.486988
v 13.750372 1.241380 5.736988
v 13.750372 1.241380 4.486988
v 10.000372 1.241380 4.486988
v 11.250372 1.241380 3.236988
v 10.000372 1.241380 3.236988
v 12.500372 1.241380 3.236988
v 15.000372 1.241380 5.736988
v 16.250372 1.241380 5.736988
v 16.250372 1.241380 4.486988
v 15.000372 1.241380 4.486988
v 13.750372 1.241380 3.236988
v 15.000372 1.241380 3.236988
v 15.000372 1.241380 1.986988
v 13.750372 1.241380 1.986988
v 17.500372 1.241380 3.236988
v 18.750372 1.241380 3.236988
v 18.750372 1.241380 1.986988
v 17.500372 1.241380 1.986988
v 18.750372 1.241380 0.736988
v 17.500372 1.241380 0.736988
v 20.000370 1.241380 1.986988
v 20.000370 1.241380 0.736988
v 11.250372 1.241380 1.986988
v 12.500372 1.241380 1.986988
v 12.500372 1.241380 0.736988
v 11.250372 1.241380 0.736988
v 15.000372 1.241380 1.986988
v 16.250372 1.241380 1.986988
v 16.250372 1.241380 0.736988
v 15.000372 1.241380 0.736988
v 13.750372 0.962411 10.736989
v 15.000372 0.962411 10.736989
v 15.000372 0.962411 9.486988
v 13.750372 0.962411 9.486988
v 13.750372 0.962411 6.986988
v 15.000372 0.962411 6.986988
v 15.000372 0.962411 5.736988
v 13.750372 0.962411 5.736988
vt 0.375000 0.000000
vt 0.406250 0.000000
vt 0.437500 0.000000
vt 0.468750 0.000000
vt 0.500000 0.000000
vt 0.531250 0.000000
vt 0.562500 0.000000
vt 0.593750 0.000000
vt 0.625000 0.000000
vt 0.375000 0.250000
vt 0.406250 0.250000
vt 0.437500 0.250000
vt 0.468750 0.250000
vt 0.500000 0.250000
vt 0.531250 0.250000
vt 0.562500 0.250000
vt 0.593750 0.250000
vt 0.625000 0.250000
vt 0.375000 0.281250
vt 0.406250 0.281250
vt 0.437500 0.281250
vt 0.468750 0.281250
vt 0.500000 0.281250
vt 0.531250 0.281250
vt 0.562500 0.281250
vt 0.593750 0.281250
vt 0.625000 0.281250
vt 0.375000 0.312500
vt 0.406250 0.312500
vt 0.437500 0.312500
vt 0.468750 0.312500
vt 0.500000 0.312500
vt 0.531250 0.312500
vt 0.562500 0.312500
vt 0.593750 0.312500
vt 0.625000 0.312500
vt 0.375000 0.343750
vt 0.406250 0.343750
vt 0.437500 0.343750
vt 0.468750 0.343750
vt 0.500000 0.343750
vt 0.531250 0.343750
vt 0.562500 0.343750
vt 0.593750 0.343750
vt 0.625000 0.343750
vt 0.375000 0.375000
vt 0.406250 0.375000
vt 0.437500 0.375000
vt 0.468750 0.375000
vt 0.500000 0.375000
vt 0.531250 0.375000
vt 0.562500 0.375000
vt 0.593750 0.375000
vt 0.625000 0.375000
vt 0.375000 0.406250
vt 0.406250 0.406250
vt 0.437500 0.406250
vt 0.468750 0.406250
vt 0.500000 0.406250
vt 0.531250 0.406250
vt 0.562500 0.406250
vt 0.593750 0.406250
vt 0.625000 0.406250
vt 0.375000 0.437500
vt 0.406250 0.437500
vt 0.437500 0.437500
vt 0.468750 0.437500
vt 0.500000 0.437500
vt 0.531250 0.437500
vt 0.562500 0.437500
vt 0.593750 0.437500
vt 0.625000 0.437500
vt 0.375000 0.468750
vt 0.406250 0.468750
vt 0.437500 0.468750
vt 0.468750 0.468750
vt 0.500000 0.468750
vt 0.531250 0.468750
vt 0.562500 0.468750
vt 0.593750 0.468750
vt 0.625000 0.468750
vt 0.375000 0.500000
vt 0.406250 0.500000
vt 0.437500 0.500000
vt 0.468750 0.500000
vt 0.500000 0.500000
vt 0.531250 0.500000
vt 0.562500 0.500000
vt 0.593750 0.500000
vt 0.625000 0.500000
vt 0.375000 0.750000
vt 0.406250 0.750000
vt 0.437500 0.750000
vt 0.468750 0.750000
vt 0.500000 0.750000
vt 0.531250 0.750000
vt 0.562500 0.750000
vt 0.593750 0.750000
vt 0.625000 0.750000
vt 0.375000 0.781250
vt 0.406250 0.781250
vt 0.437500 0.781250
vt 0.468750 0.781250
vt 0.500000 0.781250
vt 0.531250 0.781250
vt 0.562500 0.781250
vt 0.593750 0.781250
vt 0.625000 0.781250
vt 0.375000 0.812500
vt 0.406250 0.812500
vt 0.437500 0.812500
vt 0.468750 0.812500
vt 0.500000 0.812500
vt 0.531250 0.812500
vt 0.562500 0.812500
vt 0.593750 0.812500
vt 0.625000 0.812500
vt 0.375000 0.843750
vt 0.406250 0.843750
vt 0.437500 0.843750
vt 0.468750 0.843750
vt 0.500000 0.843750
vt 0.531250 0.843750
vt 0.562500 0.843750
vt 0.593750 0.843750
vt 0.625000 0.843750
vt 0.375000 0.875000
vt 0.406250 0.875000
vt 0.437500 0.875000
vt 0.468750 0.875000
vt 0.500000 0.875000
vt 0.531250 0.875000
vt 0.562500 0.875000
vt 0.593750 0.875000
vt 0.625000 0.875000
vt 0.375000 0.906250
vt 0.406250 0.906250
vt 0.437500 0.906250
vt 0.468750 0.906250
vt 0.500000 0.906250
vt 0.531250 0.906250
vt 0.562500 0.906250
vt 0.593750 0.906250
vt 0.625000 0.906250
vt 0.375000 0.937500
vt 0.406250 0.937500
vt 0.437500 0.937500
vt 0.468750 0.937500
vt 0.500000 0.937500
vt 0.531250 0.937500
vt 0.562500 0.937500
vt 0.593750 0.937500
vt 0.625000 0.937500
vt 0.375000 0.968750
vt 0.406250 0.968750
vt 0.437500 0.968750
vt 0.468750 0.968750
vt 0.500000 0.968750
vt 0.531250 0.968750
vt 0.562500 0.968750
vt 0.593750 0.968750
vt 0.625000 0.968750
vt 0.375000 1.000000
vt 0.406250 1.000000
vt 0.437500 1.000000
vt 0.468750 1.000000
vt 0.500000 1.000000
vt 0.531250 1.000000
vt 0.562500 1.000000
vt 0.593750 1.000000
vt 0.625000 1.000000
vt 0.875000 0.000000
vt 0.843750 0.000000
vt 0.812500 0.000000
vt 0.781250 0.000000
vt 0.750000 0.000000
vt 0.718750 0.000000
vt 0.687500 0.000000
vt 0.656250 0.000000
vt 0.875000 0.250000
vt 0.843750 0.250000
vt 0.812500 0.250000
vt 0.781250 0.250000
vt 0.750000 0.250000
vt 0.718750 0.250000
vt 0.687500 0.250000
vt 0.656250 0.250000
vt 0.125000 0.000000
vt 0.156250 0.000000
vt 0.187500 0.000000
vt 0.218750 0.000000
vt 0.250000 0.000000
vt 0.281250 0.000000
vt 0.312500 0.000000
vt 0.343750 0.000000
vt 0.125000 0.250000
vt 0.156250 0.250000
vt 0.187500 0.250000
vt 0.218750 0.250000
vt 0.250000 0.250000
vt 0.281250 0.250000
vt 0.312500 0.250000
vt 0.343750 0.250000
vt 0.375000 0.250000
vt 0.406250 0.250000
vt 0.406250 0.281250
vt 0.375000 0.281250
vt 0.437500 0.250000
vt 0.468750 0.250000
vt 0.468750 0.281250
vt 0.437500 0.281250
vt 0.562500 0.250000
vt 0.593750 0.250000
vt 0.562500 0.281250
vt 0.625000 0.250000
vt 0.625000 0.281250
vt 0.406250 0.312500
vt 0.375000 0.312500
vt 0.437500 0.312500
vt 0.531250 0.281250
vt 0.562500 0.312500
vt 0.531250 0.312500
vt 0.625000 0.312500
vt 0.437500 0.343750
vt 0.406250 0.343750
vt 0.468750 0.312500
vt 0.468750 0.343750
vt 0.593750 0.343750
vt 0.562500 0.343750
vt 0.625000 0.343750
vt 0.375000 0.343750
vt 0.406250 0.375000
vt 0.375000 0.375000
vt 0.500000 0.343750
vt 0.531250 0.343750
vt 0.531250 0.375000
vt 0.500000 0.375000
vt 0.625000 0.375000
vt 0.593750 0.375000
vt 0.375000 0.406250
vt 0.437500 0.375000
vt 0.468750 0.375000
vt 0.468750 0.406250
vt 0.437500 0.406250
vt 0.531250 0.406250
vt 0.500000 0.406250
vt 0.375000 0.437500
vt 0.437500 0.437500
vt 0.562500 0.406250
vt 0.593750 0.406250
vt 0.562500 0.437500
vt 0.625000 0.406250
vt 0.625000 0.437500
vt 0.375000 0.468750
vt 0.437500 0.468750
vt 0.468750 0.437500
vt 0.500000 0.437500
vt 0.500000 0.468750
vt 0.468750 0.468750
vt 0.531250 0.437500
vt 0.562500 0.468750
vt 0.531250 0.468750
vt 0.625000 0.468750
vt 0.406250 0.500000
vt 0.375000 0.500000
vt 0.437500 0.500000
vt 0.531250 0.500000
vt 0.500000 0.500000
vt 0.593750 0.500000
vt 0.562500 0.500000
vt 0.625000 0.500000
vt 0.375000 0.250000
vt 0.406250 0.250000
vt 0.406250 0.281250
vt 0.375000 0.281250
vt 0.437500 0.250000
vt 0.468750 0.250000
vt 0.468750 0.281250
vt 0.437500 0.281250
vt 0.406250 0.312500
vt 0.375000 0.312500
vt 0.562500 0.281250
vt 0.593750 0.281250
vt 0.593750 0.312500
vt 0.562500 0.312500
vt 0.625000 0.281250
vt 0.625000 0.312500
vt 0.437500 0.312500
vt 0.437500 0.343750
vt 0.406250 0.343750
vt 0.468750 0.312500
vt 0.468750 0.343750
vt 0.625000 0.343750
vt 0.593750 0.343750
vt 0.375000 0.343750
vt 0.406250 0.375000
vt 0.375000 0.375000
vt 0.625000 0.375000
vt 0.593750 0.375000
vt 0.437500 0.375000
vt 0.406250 0.406250
vt 0.468750 0.375000
vt 0.468750 0.406250
vt 0.437500 0.406250
vt 0.500000 0.375000
vt 0.531250 0.375000
vt 0.531250 0.406250
vt 0.500000 0.406250
vt 0.375000 0.406250
vt 0.406250 0.437500
vt 0.375000 0.437500
vt 0.437500 0.437500
vt 0.468750 0.437500
vt 0.500000 0.437500
vt 0.500000 0.468750
vt 0.468750 0.468750
vt 0.562500 0.437500
vt 0.593750 0.437500
vt 0.593750 0.468750
vt 0.562500 0.468750
vt 0.406250 0.468750
vt 0.437500 0.468750
vt 0.437500 0.500000
vt 0.406250 0.500000
vt 0.531250 0.468750
vt 0.531250 0.500000
vt 0.500000 0.500000
vt 0.593750 0.500000
vt 0.562500 0.500000
vt 0.625000 0.468750
vt 0.625000 0.500000
vt 0.468750 0.250000
vt 0.500000 0.250000
vt 0.500000 0.281250
vt 0.468750 0.281250
vt 0.468750 0.343750
vt 0.500000 0.343750
vt 0.500000 0.375000
vt 0.468750 0.375000
vn 0.000000 0.000000 1.000000
vn 0.000000 0.000000 1.000000
vn 0.000000 0.000000 1.000000
vn 0.000000 0.000000 1.000000
vn 0.000000 0.000000 1.000000
vn 0.000000 0.000000 1.000000
vn 0.000000 0.000000 1.000000
vn 0.000000 0.000000 1.000000
vn 0.000000 0.000000 1.000000
vn 0.000000 0.000000 1.000000
vn 0.000000 0.000000 1.000000
vn 0.000000 0.000000 1.000000
vn 0.000000 0.000000 1.000000
vn 0.000000 0.000000 1.000000
vn 0.000000 0.000000 1.000000
vn 0.000000 0.000000 1.000000
vn 0.000000 0.000000 1.000000
vn 0.000000 0.000000 1.000000
vn 0.000000 1.000000 0.000000
vn 0.000000 1.000000 0.000000
vn 0.000000 1.000000 0.000000
vn 0.000000 1.000000 0.000000
vn 0.000000 1.000000 0.000000
vn 0.000000 1.000000 0.000000
vn 0.000000 1.000000 0.000000
vn 0.000000 1.000000 0.000000
vn 0.000000 1.000000 0.000000
vn 0.000000 1.000000 0.000000
vn 0.000000 1.000000 0.000000
vn 0.000000 1.000000 0.000000
vn 0.000000 1.000000 0.000000
vn 0.000000 1.000000 0.000000
vn 0.000000 1.000000 0.000000
vn 0.000000 1.000000 0.000000
vn 0.000000 1.000000 0.000000
vn 0.000000 1.000000 0.000000
vn 0.000000 1.000000 0.000000
vn 0.000000 1.000000 0.000000
vn 0.000000 1.000000 0.000000
vn 0.000000 1.000000 0.000000
vn 0.000000 1.000000 0.000000
vn 0.000000 1.000000 0.000000
vn 0.000000 1.000000 0.000000
vn 0.000000 1.000000 0.000000
vn 0.000000 1.000000 0.000000
vn 0.000000 1.000000 0.000000
vn 0.000000 1.000000 0.000000
vn 0.000000 1.000000 0.000000
vn 0.000000 1.000000 0.000000
vn 0.000000 1.000000 0.000000
vn 0.000000 1.000000 0.000000
vn 0.000000 1.000000 0.000000
vn 0.000000 1.000000 0.000000
vn 0.000000 1.000000 0.000000
vn 0.000000 1.000000 0.000000
vn 0.000000 1.000000 0.000000
vn 0.000000 1.000000 0.000000
vn 0.000000 1.000000 0.000000
vn 0.000000 1.000000 0.000000
vn 0.000000 1.000000 0.000000
vn 0.000000 1.000000 0.000000
vn 0.000000 1.000000 0.000000
vn 0.000000 1.000000 0.000000
vn 0.000000 1.000000 0.000000
vn 0.000000 1.000000 0.000000
vn 0.000000 1.000000 0.000000
vn 0.000000 1.000000 0.000000
vn 0.000000 1.000000 0.000000
vn 0.000000 1.000000 0.000000
vn 0.000000 1.000000 0.000000
vn 0.000000 1.000000 0.000000
vn 0.000000 1.000000 0.000000
vn 0.000000 1.000000 0.000000
vn 0.000000 1.000000 0.000000
vn 0.000000 1.000000 0.000000
vn 0.000000 1.000000 0.000000
vn 0.000000 1.000000 0.000000
vn 0.000000 1.000000 0.000000
vn 0.000000 1.000000 0.000000
vn 0.000000 1.000000 0.000000
vn 0.000000 1.000000 0.000000
vn 0.000000 1.000000 0.000000
vn 0.000000 1.000000 0.000000
vn 0.000000 1.000000 0.000000
vn 0.000000 1.000000 0.000000
vn 0.000000 1.000000 0.000000
vn 0.000000 1.000000 0.000000
vn 0.000000 1.000000 0.000000
vn 0.000000 1.000000 0.000000
vn 0.000000 1.000000 0.000000
vn 0.000000 1.000000 0.000000
vn 0.000000 1.000000 0.000000
vn 0.000000 1.000000 0.000000
vn 0.000000 1.000000 0.000000
vn 0.000000 1.000000 0.000000
vn 0.000000 1.000000 0.000000
vn 0.000000 1.000000 0.000000
vn 0.000000 1.000000 0.000000
vn 0.000000 1.000000 0.000000
vn 0.000000 1.000000 0.000000
vn 0.000000 1.000000 0.000000
vn 0.000000 1.000000 0.000000
vn 0.000000 1.000000 0.000000
vn 0.000000 1.000000 0.000000
vn 0.000000 1.000000 0.000000
vn 0.000000 1.000000 0.000000
vn 0.000000 1.000000 0.000000
vn 0.000000 1.000000 0.000000
vn 0.000000 1.000000 0.000000
vn 0.000000 1.000000 0.000000
vn 0.000000 1.000000 0.000000
vn 0.000000 1.000000 0.000000
vn 0.000000 1.000000 0.000000
vn 0.000000 1.000000 0.000000
vn 0.000000 1.000000 0.000000
vn 0.000000 1.000000 0.000000
vn 0.000000 1.000000 0.000000
vn 0.000000 1.000000 0.000000
vn 0.000000 1.000000 0.000000
vn 0.000000 1.000000 0.000000
vn 0.000000 1.000000 0.000000
vn 0.000000 1.000000 0.000000
vn 0.000000 1.000000 0.000000
vn 0.000000 1.000000 0.000000
vn 0.000000 1.000000 0.000000
vn 0.000000 1.000000 0.000000
vn 0.000000 1.000000 0.000000
vn 0.000000 1.000000 0.000000
vn 0.000000 1.000000 0.000000
vn 0.000000 1.000000 0.000000
vn 0.000000 1.000000 0.000000
vn 0.000000 1.000000 0.000000
vn 0.000000 1.000000 0.000000
vn 0.000000 1.000000 0.000000
vn 0.000000 1.000000 0.000000
vn 0.000000 1.000000 0.000000
vn 0.000000 1.000000 0.000000
vn 0.000000 1.000000 0.000000
vn 0.000000 1.000000 0.000000
vn 0.000000 1.000000 0.000000
vn 0.000000 1.000000 0.000000
vn 0.000000 1.000000 0.000000
vn 0.000000 1.000000 0.000000
vn 0.000000 1.000000 0.000000
vn 0.000000 1.000000 0.000000
vn 0.000000 1.000000 0.000000
vn 0.000000 1.000000 0.000000
vn 0.000000 1.000000 0.000000
vn 0.000000 1.000000 0.000000
vn 0.000000 1.000000 0.000000
vn 0.000000 1.000000 0.000000
vn 0.000000 1.000000 0.000000
vn 0.000000 1.000000 0.000000
vn 0.000000 1.000000 0.000000
vn 0.000000 1.000000 0.000000
vn 0.000000 1.000000 0.000000
vn 0.000000 1.000000 0.000000
vn 0.000000 1.000000 0.000000
vn 0.000000 1.000000 0.000000
vn 0.000000 1.000000 0.000000
vn 0.000000 1.000000 0.000000
vn 0.000000 1.000000 0.000000
vn 0.000000 1.000000 0.000000
vn 0.000000 1.000000 0.000000
vn 0.000000 1.000000 0.000000
vn 0.000000 1.000000 0.000000
vn 0.000000 1.000000 0.000000
vn 0.000000 1.000000 0.000000
vn 0.000000 1.000000 0.000000
vn 0.000000 1.000000 0.000000
vn 0.000000 1.000000 0.000000
vn 0.000000 1.000000 0.000000
vn 0.000000 1.000000 0.000000
vn 0.000000 1.000000 0.000000
vn 0.000000 1.000000 0.000000
vn 0.000000 1.000000 0.000000
vn 0.000000 1.000000 0.000000
vn 0.000000 1.000000 0.000000
vn 0.000000 1.000000 0.000000
vn 0.000000 1.000000 0.000000
vn 0.000000 1.000000 0.000000
vn 0.000000 1.000000 0.000000
vn 0.000000 1.000000 0.000000
vn 0.000000 1.000000 0.000000
vn 0.000000 1.000000 0.000000
vn 0.000000 1.000000 0.000000
vn 0.000000 1.000000 0.000000
vn 0.000000 1.000000 0.000000
vn 0.000000 1.000000 0.000000
vn 0.000000 1.000000 0.000000
vn 0.000000 1.000000 0.000000
vn 0.000000 1.000000 0.000000
vn 0.000000 1.000000 0.000000
vn 0.000000 1.000000 0.000000
vn 0.000000 1.000000 0.000000
vn 0.000000 1.000000 0.000000
vn 0.000000 1.000000 0.000000
vn 0.000000 1.000000 0.000000
vn 0.000000 0.000000 -1.000000
vn 0.000000 0.000000 -1.000000
vn 0.000000 0.000000 -1.000000
vn 0.000000 0.000000 -1.000000
vn 0.000000 0.000000 -1.000000
vn 0.000000 0.000000 -1.000000
vn 0.000000 0.000000 -1.000000
vn 0.000000 0.000000 -1.000000
vn 0.000000 0.000000 -1.000000
vn 0.000000 0.000000 -1.000000
vn 0.000000 0.000000 -1.000000
vn 0.000000 0.000000 -1.000000
vn 0.000000 0.000000 -1.000000
vn 0.000000 0.000000 -1.000000
vn 0.000000 0.000000 -1.000000
vn 0.000000 0.000000 -1.000000
vn 0.000000 0.000000 -1.000000
vn 0.000000 0.000000 -1.000000
vn 0.000000 -1.000000 0.000000
vn 0.000000 -1.000000 0.000000
vn 0.000000 -1.000000 0.000000
vn 0.000000 -1.000000 0.000000
vn 0.000000 -1.000000 0.000000
vn 0.000000 -1.000000 0.000000
vn 0.000000 -1.000000 0.000000
vn 0.000000 -1.000000 0.000000
vn 0.000000 -1.000000 0.000000
vn 0.000000 -1.000000 0.000000
vn 0.000000 -1.000000 0.000000
vn 0.000000 -1.000000 0.000000
vn 0.000000 -1.000000 0.000000
vn 0.000000 -1.000000 0.000000
vn 0.000000 -1.000000 0.000000
vn 0.000000 -1.000000 0.000000
vn 0.000000 -1.000000 0.000000
vn 0.000000 -1.000000 0.000000
vn 0.000000 -1.000000 0.000000
vn 0.000000 -1.000000 0.000000
vn 0.000000 -1.000000 0.000000
vn 0.000000 -1.000000 0.000000
vn 0.000000 -1.000000 0.000000
vn 0.000000 -1.000000 0.000000
vn 0.000000 -1.000000 0.000000
vn 0.000000 -1.000000 0.000000
vn 0.000000 -1.000000 0.000000
vn 0.000000 -1.000000 0.000000
vn 0.000000 -1.000000 0.000000
vn 0.000000 -1.000000 0.000000
vn 0.000000 -1.000000 0.000000
vn 0.000000 -1.000000 0.000000
vn 0.000000 -1.000000 0.000000
vn 0.000000 -1.000000 0.000000
vn 0.000000 -1.000000 0.000000
vn 0.000000 -1.000000 0.000000
vn 0.000000 -1.000000 0.000000
vn 0.000000 -1.000000 0.000000
vn 0.000000 -1.000000 0.000000
vn 0.000000 -1.000000 0.000000
vn 0.000000 -1.000000 0.000000
vn 0.000000 -1.000000 0.000000
vn 0.000000 -1.000000 0.000000
vn 0.000000 -1.000000 0.000000
vn 0.000000 -1.000000 0.000000
vn 0.000000 -1.000000 0.000000
vn 0.000000 -1.000000 0.000000
vn 0.000000 -1.000000 0.000000
vn 0.000000 -1.000000 0.000000
vn 0.000000 -1.000000 0.000000
vn 0.000000 -1.000000 0.000000
vn 0.000000 -1.000000 0.000000
vn 0.000000 -1.000000 0.000000
vn 0.000000 -1.000000 0.000000
vn 0.000000 -1.000000 0.000000
vn 0.000000 -1.000000 0.000000
vn 0.000000 -1.000000 0.000000
vn 0.000000 -1.000000 0.000000
vn 0.000000 -1.000000 0.000000
vn 0.000000 -1.000000 0.000000
vn 0.000000 -1.000000 0.000000
vn 0.000000 -1.000000 0.000000
vn 0.000000 -1.000000 0.000000
vn 0.000000 -1.000000 0.000000
vn 0.000000 -1.000000 0.000000
vn 0.000000 -1.000000 0.000000
vn 0.000000 -1.000000 0.000000
vn 0.000000 -1.000000 0.000000
vn 0.000000 -1.000000 0.000000
vn 0.000000 -1.000000 0.000000
vn 0.000000 -1.000000 0.000000
vn 0.000000 -1.000000 0.000000
vn 0.000000 -1.000000 0.000000
vn 0.000000 -1.000000 0.000000
vn 0.000000 -1.000000 0.000000
vn 0.000000 -1.000000 0.000000
vn 0.000000 -1.000000 0.000000
vn 0.000000 -1.000000 0.000000
vn 0.000000 -1.000000 0.000000
vn 0.000000 -1.000000 0.000000
vn 0.000000 -1.000000 0.000000
vn 1.000000 0.000000 0.000000
vn 1.000000 0.000000 0.000000
vn 1.000000 0.000000 0.000000
vn 1.000000 0.000000 0.000000
vn 1.000000 0.000000 0.000000
vn 1.000000 0.000000 0.000000
vn 1.000000 0.000000 0.000000
vn 1.000000 0.000000 0.000000
vn 1.000000 0.000000 0.000000
vn 1.000000 0.000000 0.000000
vn 1.000000 0.000000 0.000000
vn 1.000000 0.000000 0.000000
vn 1.000000 0.000000 0.000000
vn 1.000000 0.000000 0.000000
vn 1.000000 0.000000 0.000000
vn 1.000000 0.000000 0.000000
vn 1.000000 0.000000 0.000000
vn 1.000000 0.000000 0.000000
vn -1.000000 0.000000 0.000000
vn -1.000000 0.000000 0.000000
vn -1.000000 0.000000 0.000000
vn -1.000000 0.000000 0.000000
vn -1.000000 0.000000 0.000000
vn -1.000000 0.000000 0.000000
vn -1.000000 0.000000 0.000000
vn -1.000000 0.000000 0.000000
vn -1.000000 0.000000 0.000000
vn -1.000000 0.000000 0.000000
vn -1.000000 0.000000 0.000000
vn -1.000000 0.000000 0.000000
vn -1.000000 0.000000 0.000000
vn -1.000000 0.000000 0.000000
vn -1.000000 0.000000 0.000000
vn -1.000000 0.000000 0.000000
vn -1.000000 0.000000 0.000000
vn -1.000000 0.000000 0.000000
vn 0.000000 0.000000 1.000000
vn 0.000000 0.000000 1.000000
vn 1.000000 0.000000 0.000000
vn 1.000000 0.000000 0.000000
vn 1.000000 0.000000 0.000000
vn 1.000000 0.000000 0.000000
vn -1.000000 0.000000 0.000000
vn -1.000000 0.000000 0.000000
vn 0.000000 0.000000 -1.000000
vn 0.000000 0.000000 -1.000000
vn 0.000000 0.000000 -1.000000
vn 0.000000 0.000000 -1.000000
vn -1.000000 0.000000 0.000000
vn 0.000000 0.000000 1.000000
vn 0.000000 0.000000 1.000000
vn 0.000000 0.000000 1.000000
vn 0.000000 0.000000 1.000000
vn 1.000000 0.000000 0.000000
vn 1.000000 0.000000 0.000000
vn 1.000000 0.000000 0.000000
vn 1.000000 0.000000 0.000000
vn 0.000000 0.000000 -1.000000
vn 0.000000 0.000000 -1.000000
vn 0.000000 0.000000 -1.000000
vn 0.000000 0.000000 -1.000000
vn -1.000000 0.000000 0.000000
vn -1.000000 0.000000 0.000000
vn -1.000000 0.000000 0.000000
vn -1.000000 0.000000 0.000000
vn 0.000000 0.000000 1.000000
vn 0.000000 0.000000 1.000000
vn 0.000000 0.000000 1.000000
vn 0.000000 0.000000 1.000000
vn 1.000000 0.000000 0.000000
vn 1.000000 0.000000 0.000000
vn 1.000000 0.000000 0.000000
vn 1.000000 0.000000 0.000000
vn 0.000000 0.000000 -1.000000
vn 0.000000 0.000000 -1.000000
vn 0.000000 0.000000 1.000000
vn 0.000000 0.000000 1.000000
vn 1.000000 0.000000 0.000000
vn 1.000000 0.000000 0.000000
vn 1.000000 0.000000 0.000000
vn 1.000000 0.000000 0.000000
vn 0.000000 0.000000 -1.000000
vn 0.000000 0.000000 -1.000000
vn 0.000000 0.000000 -1.000000
vn 0.000000 0.000000 -1.000000
vn -1.000000 0.000000 0.000000
vn -1.000000 0.000000 0.000000
vn -1.000000 0.000000 0.000000
vn -1.000000 0.000000 0.000000
vn 0.000000 0.000000 1.000000
vn 0.000000 0.000000 1.000000
vn -1.000000 0.000000 0.000000
vn -1.000000 0.000000 0.000000
vn -1.000000 0.000000 0.000000
vn -1.000000 0.000000 0.000000
vn 0.000000 0.000000 1.000000
vn 1.000000 0.000000 0.000000
vn 1.000000 0.000000 0.000000
vn 0.000000 0.000000 1.000000
vn 0.000000 0.000000 1.000000
vn 0.000000 0.000000 1.000000
vn 0.000000 0.000000 1.000000
vn 0.000000 0.000000 -1.000000
vn 0.000000 0.000000 -1.000000
vn 0.000000 0.000000 -1.000000
vn 0.000000 0.000000 -1.000000
vn -1.000000 0.000000 0.000000
vn -1.000000 0.000000 0.000000
vn -1.000000 0.000000 0.000000
vn -1.000000 0.000000 0.000000
vn 1.000000 0.000000 0.000000
vn 0.000000 0.000000 -1.000000
vn 0.000000 0.000000 -1.000000
vn 0.000000 0.000000 -1.000000
vn 0.000000 0.000000 -1.000000
vn -1.000000 0.000000 0.000000
vn -1.000000 0.000000 0.000000
vn -1.000000 0.000000 0.000000
vn -1.000000 0.000000 0.000000
vn 1.000000 0.000000 0.000000
vn 1.000000 0.000000 0.000000
vn 0.000000 0.000000 -1.000000
vn 0.000000 0.000000 -1.000000
vn 0.000000 0.000000 -1.000000
vn 0.000000 0.000000 -1.000000
vn -1.000000 0.000000 0.000000
vn -1.000000 0.000000 0.000000
vn -1.000000 0.000000 0.000000
vn -1.000000 0.000000 0.000000
vn 0.000000 0.000000 1.000000
vn 0.000000 0.000000 1.000000
vn 0.000000 0.000000 1.000000
vn 0.000000 0.000000 1.000000
vn 1.000000 0.000000 0.000000
vn 1.000000 0.000000 0.000000
vn 1.000000 0.000000 0.000000
vn 1.000000 0.000000 0.000000
vn -1.000000 0.000000 0.000000
vn -1.000000 0.000000 0.000000
vn -1.000000 0.000000 0.000000
vn 0.000000 0.000000 1.000000
vn 0.000000 0.000000 1.000000
vn 0.000000 0.000000 1.000000
vn 0.000000 0.000000 1.000000
vn 0.000000 0.000000 1.000000
vn 0.000000 0.000000 1.000000
vn 1.000000 0.000000 0.000000
vn 1.000000 0.000000 0.000000
vn 1.000000 0.000000 0.000000
vn 1.000000 0.000000 0.000000
vn 0.000000 0.000000 -1.000000
vn 0.000000 0.000000 -1.000000
vn 0.000000 0.000000 -1.000000
vn 0.000000 0.000000 -1.000000
vn -1.000000 0.000000 0.000000
vn 1.000000 0.000000 0.000000
vn 1.000000 0.000000 0.000000
vn 1.000000 0.000000 0.000000
vn 1.000000 0.000000 0.000000
vn -1.000000 0.000000 0.000000
vn 1.000000 0.000000 0.000000
vn 1.000000 0.000000 0.000000
vn 0.000000 0.000000 -1.000000
vn 0.000000 0.000000 -1.000000
vn -1.000000 0.000000 0.000000
vn 1.000000 0.000000 0.000000
vn 1.000000 0.000000 0.000000
vn 0.000000 0.000000 -1.000000
vn 0.000000 0.000000 1.000000
vn 0.000000 0.000000 1.000000
vn 0.000000 0.000000 1.000000
vn 0.000000 0.000000 1.000000
vn 1.000000 0.000000 0.000000
vn 1.000000 0.000000 0.000000
vn 1.000000 0.000000 0.000000
vn 1.000000 0.000000 0.000000
vn -1.000000 0.000000 0.000000
vn -1.000000 0.000000 0.000000
vn -1.000000 0.000000 0.000000
vn -1.000000 0.000000 0.000000
vn 1.000000 0.000000 0.000000
vn 1.000000 0.000000 0.000000
vn 0.000000 0.000000 -1.000000
vn 0.000000 0.000000 -1.000000
vn 0.000000 0.000000 -1.000000
vn 0.000000 0.000000 -1.000000
vn -1.000000 0.000000 0.000000
vn -1.000000 0.000000 0.000000
vn 0.000000 0.000000 1.000000
vn 0.000000 0.000000 1.000000
vn 0.000000 0.000000 1.000000
vn 0.000000 0.000000 1.000000
vn -1.000000 0.000000 0.000000
vn -1.000000 0.000000 0.000000
vn -1.000000 0.000000 0.000000
vn -1.000000 0.000000 0.000000
vn 0.000000 0.000000 1.000000
vn 0.000000 0.000000 1.000000
vn 1.000000 0.000000 0.000000
vn 1.000000 0.000000 0.000000
vn 0.000000 0.000000 1.000000
vn 0.000000 0.000000 1.000000
vn 0.000000 0.000000 1.000000
vn 0.000000 0.000000 1.000000
vn 0.000000 0.000000 -1.000000
vn 0.000000 0.000000 -1.000000
vn 0.000000 0.000000 -1.000000
vn 0.000000 0.000000 -1.000000
vn -1.000000 0.000000 0.000000
vn -1.000000 0.000000 0.000000
vn -1.000000 0.000000 0.000000
vn -1.000000 0.000000 0.000000
vn 1.000000 0.000000 0.000000
vn 0.000000 0.000000 -1.000000
vn 0.000000 0.000000 -1.000000
vn -1.000000 0.000000 0.000000
vn -1.000000 0.000000 0.000000
vn -1.000000 0.000000 0.000000
vn -1.000000 0.000000 0.000000
vn 1.000000 0.000000 0.000000
vn 0.000000 0.000000 -1.000000
vn 0.000000 0.000000 1.000000
vn 0.000000 0.000000 1.000000
vn 0.000000 0.000000 1.000000
vn 0.000000 0.000000 1.000000
vn 1.000000 0.000000 0.000000
vn 1.000000 0.000000 0.000000
vn 1.000000 0.000000 0.000000
vn 1.000000 0.000000 0.000000
vn 0.000000 0.000000 -1.000000
vn 0.000000 0.000000 -1.000000
vn 0.000000 0.000000 -1.000000
vn 0.000000 0.000000 -1.000000
vn -1.000000 0.000000 0.000000
vn -1.000000 0.000000 0.000000
vn -1.000000 0.000000 0.000000
vn -1.000000 0.000000 0.000000
vn 0.000000 0.000000 1.000000
vn 0.000000 0.000000 1.000000
vn 0.000000 0.000000 1.000000
vn 0.000000 0.000000 1.000000
vn 1.000000 0.000000 0.000000
vn 1.000000 0.000000 0.000000
vn 1.000000 0.000000 0.000000
vn 1.000000 0.000000 0.000000
vn 0.000000 0.000000 -1.000000
vn 0.000000 0.000000 -1.000000
vn -1.000000 0.000000 0.000000
vn -1.000000 0.000000 0.000000
vn -1.000000 0.000000 0.000000
vn -1.000000 0.000000 0.000000
vn 0.000000 0.000000 1.000000
vn 0.000000 0.000000 1.000000
vn 1.000000 0.000000 0.000000
vn 1.000000 0.000000 0.000000
vn -1.000000 0.000000 0.000000
vn -1.000000 0.000000 0.000000
vn 1.000000 0.000000 0.000000
vn 1.000000 0.000000 0.000000
vn 0.000000 0.000000 -1.000000
vn 0.000000 0.000000 -1.000000
vn -1.000000 0.000000 0.000000
vn 0.000000 0.000000 1.000000
vn 0.000000 0.000000 1.000000
vn 1.000000 0.000000 0.000000
vn 1.000000 0.000000 0.000000
vn 0.000000 0.000000 -1.000000
vn 0.000000 0.000000 -1.000000
vn -1.000000 0.000000 0.000000
vn -1.000000 0.000000 0.000000
vn 0.000000 0.000000 1.000000
vn 0.000000 0.000000 1.000000
vn 0.000000 0.000000 1.000000
vn 0.000000 0.000000 1.000000
vn 0.000000 0.000000 -1.000000
vn 0.000000 0.000000 -1.000000
vn 0.000000 0.000000 -1.000000
vn 0.000000 0.000000 -1.000000
vn -1.000000 0.000000 0.000000
vn -1.000000 0.000000 0.000000
vn -1.000000 0.000000 0.000000
vn -1.000000 0.000000 0.000000
vn 0.000000 0.000000 1.000000
vn 0.000000 0.000000 1.000000
vn 1.000000 0.000000 0.000000
vn 1.000000 0.000000 0.000000
vn 1.000000 0.000000 0.000000
vn -1.000000 0.000000 0.000000
vn -1.000000 0.000000 0.000000
vn -1.000000 0.000000 0.000000
vn 1.000000 0.000000 0.000000
vn 0.000000 0.000000 -1.000000
vn 0.000000 0.000000 -1.000000
vn -1.000000 0.000000 0.000000
vn 0.000000 0.000000 1.000000
vn 0.000000 0.000000 1.000000
vn 0.000000 0.000000 1.000000
vn 0.000000 0.000000 -1.000000
vn 0.000000 0.000000 -1.000000
vn -1.000000 0.000000 0.000000
vn -1.000000 0.000000 0.000000
vn 0.000000 0.000000 1.000000
vn 1.000000 0.000000 0.000000
vn 1.000000 0.000000 0.000000
vn 0.000000 0.000000 -1.000000
vn 0.000000 0.000000 1.000000
vn 0.000000 0.000000 1.000000
vn 1.000000 0.000000 0.000000
vn 1.000000 0.000000 0.000000
vn 0.000000 0.000000 -1.000000
vn 0.000000 0.000000 -1.000000
vn 0.000000 0.000000 -1.000000
vn 0.000000 0.000000 -1.000000
vn -1.000000 0.000000 0.000000
vn -1.000000 0.000000 0.000000
vn 0.000000 0.000000 1.000000
vn 0.000000 0.000000 1.000000
vn -1.000000 0.000000 0.000000
vn -1.000000 0.000000 0.000000
vn -1.000000 0.000000 0.000000
vn -1.000000 0.000000 0.000000
vn 0.000000 0.000000 1.000000
vn 1.000000 0.000000 0.000000
vn 1.000000 0.000000 0.000000
vn 0.000000 0.000000 -1.000000
vn 0.000000 0.000000 -1.000000
vn 0.000000 0.000000 1.000000
vn 0.000000 0.000000 1.000000
vn 0.000000 0.000000 1.000000
vn 0.000000 0.000000 1.000000
vn 0.000000 0.000000 -1.000000
vn 0.000000 0.000000 -1.000000
vn 0.000000 0.000000 -1.000000
vn 0.000000 0.000000 -1.000000
vn -1.000000 0.000000 0.000000
vn -1.000000 0.000000 0.000000
vn 1.000000 0.000000 0.000000
vn 1.000000 0.000000 0.000000
vn 0.000000 0.000000 -1.000000
vn 0.000000 0.000000 -1.000000
vn 0.000000 0.000000 1.000000
vn 0.000000 0.000000 1.000000
vn 0.000000 0.000000 1.000000
vn 0.000000 0.000000 1.000000
vn 1.000000 0.000000 0.000000
vn 1.000000 0.000000 0.000000
vn 0.000000 0.000000 -1.000000
vn 0.000000 0.000000 -1.000000
vn -1.000000 0.000000 0.000000
vn -1.000000 0.000000 0.000000
vn 0.000000 0.000000 1.000000
vn 0.000000 0.000000 1.000000
vn 1.000000 0.000000 0.000000
vn 1.000000 0.000000 0.000000
vn 0.000000 0.000000 -1.000000
vn 0.000000 0.000000 -1.000000
vn -1.000000 0.000000 0.000000
vn -1.000000 0.000000 0.000000
vn 0.000000 0.000000 1.000000
vn 0.000000 0.000000 1.000000
vn 0.000000 0.000000 1.000000
vn 0.000000 0.000000 1.000000
vn 1.000000 0.000000 0.000000
vn 1.000000 0.000000 0.000000
vn 1.000000 0.000000 0.000000
vn 1.000000 0.000000 0.000000
vn -1.000000 0.000000 0.000000
vn -1.000000 0.000000 0.000000
vn -1.000000 0.000000 0.000000
vn 0.000000 0.000000 -1.000000
vn 0.000000 0.000000 -1.000000
vn -1.000000 0.000000 0.000000
vn 0.000000 0.000000 1.000000
vn 0.000000 0.000000 1.000000
vn 0.000000 0.000000 1.000000
vn 0.000000 0.000000 1.000000
vn 1.000000 0.000000 0.000000
vn 1.000000 0.000000 0.000000
vn 0.000000 0.000000 -1.000000
vn 0.000000 0.000000 1.000000
vn 0.000000 0.000000 1.000000
vn 0.000000 0.000000 1.000000
vn 0.000000 0.000000 1.000000
vn 1.000000 0.000000 0.000000
vn 1.000000 0.000000 0.000000
vn 0.000000 0.000000 -1.000000
vn 0.000000 0.000000 -1.000000
vn -1.000000 0.000000 0.000000
vn -1.000000 0.000000 0.000000
vn -1.000000 0.000000 0.000000
vn -1.000000 0.000000 0.000000
vn 0.000000 0.000000 1.000000
vn 0.000000 0.000000 1.000000
vn 1.000000 0.000000 0.000000
vn 1.000000 0.000000 0.000000
vn 0.000000 0.000000 -1.000000
vn 0.000000 0.000000 -1.000000
vn -1.000000 0.000000 0.000000
vn -1.000000 0.000000 0.000000
vn 0.000000 0.000000 1.000000
vn 0.000000 0.000000 1.000000
vn 1.000000 0.000000 0.000000
vn 1.000000 0.000000 0.000000
vn 1.000000 0.000000 0.000000
vn 1.000000 0.000000 0.000000
vn 0.000000 0.000000 -1.000000
vn 0.000000 0.000000 -1.000000
vn 0.000000 0.000000 -1.000000
vn 0.000000 0.000000 -1.000000
vn -1.000000 0.000000 0.000000
vn -1.000000 0.000000 0.000000
vn -1.000000 0.000000 0.000000
vn -1.000000 0.000000 0.000000
vn 0.000000 0.000000 1.000000
vn 0.000000 0.000000 1.000000
vn 0.000000 0.000000 1.000000
vn 0.000000 0.000000 1.000000
vn 1.000000 0.000000 0.000000
vn 1.000000 0.000000 0.000000
vn 1.000000 0.000000 0.000000
vn 1.000000 0.000000 0.000000
vn 0.000000 0.000000 -1.000000
vn 0.000000 0.000000 -1.000000
vn 0.000000 0.000000 -1.000000
vn 0.000000 0.000000 -1.000000
vn -1.000000 0.000000 0.000000
vn -1.000000 0.000000 0.000000
vn -1.000000 0.000000 0.000000
vn -1.000000 0.000000 0.000000
s 1
g pCube38
usemtl initialShadingGroup
f 1/1/1 2/2/2 11/11/3 10/10/4
f 2/2/2 3/3/5 12/12/6 11/11/3
f 3/3/5 4/4/7 13/13/8 12/12/6
f 4/4/7 5/5/9 14/14/10 13/13/8
f 5/5/9 6/6/11 15/15/12 14/14/10
f 6/6/11 7/7/13 16/16/14 15/15/12
f 7/7/13 8/8/15 17/17/16 16/16/14
f 8/8/15 9/9/17 18/18/18 17/17/16
s 2
f 235/272/19 236/273/20 237/274/21 238/275/22
s off
f 11/11/23 12/12/24 21/21/25 20/20/26
f 241/276/27 242/277/28 243/278/29 244/279/30
f 299/332/31 300/333/32 301/334/33 302/335/34
s 3
f 14/14/35 15/15/36 24/24/37 23/23/38
f 15/15/36 16/16/39 25/25/40 24/24/37
s 4
f 172/212/41 173/213/42 174/26/43 175/214/44
f 173/213/42 176/215/45 177/216/46 174/26/43
s 2
f 238/275/22 237/274/21 239/280/47 240/281/48
s off
f 158/206/49 162/211/50 163/219/51 160/217/52
s 3
f 21/21/53 22/22/54 30/31/55 29/30/56
f 22/22/54 23/23/38 31/32/57 30/31/55
f 23/23/38 24/24/37 32/33/58 31/32/57
s off
f 178/220/59 175/214/60 179/221/61 180/222/62
s 6
f 245/282/63 246/283/64 247/284/65 248/285/66
f 246/283/64 249/286/67 250/287/68 247/284/65
s off
f 27/28/69 28/29/70 36/38/71 35/37/72
s 7
f 255/280/73 256/288/74 257/289/75 258/290/76
f 256/288/74 259/291/77 260/292/78 257/289/75
s 3
f 30/31/55 31/32/57 39/41/79 38/40/80
f 31/32/57 32/33/58 40/42/81 39/41/79
f 32/33/58 33/34/82 41/43/83 40/42/81
s off
f 179/221/84 181/35/85 183/228/86 184/229/87
s 6
f 247/284/65 250/287/68 251/293/88 252/294/89
s off
f 261/295/90 262/290/91 263/296/92 264/297/93
s 8
f 36/38/94 37/39/95 46/48/96 45/47/97
f 37/39/95 38/40/98 47/49/99 46/48/96
s off
f 303/336/100 304/337/101 305/338/102 306/339/103
f 207/234/104 208/235/105 209/236/106 210/237/107
s 3
f 40/42/81 41/43/83 50/52/108 49/51/109
f 41/43/83 42/44/110 51/53/111 50/52/108
s 6
f 252/294/89 251/293/88 253/298/112 254/299/113
s off
f 191/233/114 190/232/115 192/56/116 193/240/117
s 9
f 265/296/118 266/300/119 267/304/120 268/301/121
f 266/300/119 269/302/122 270/303/123 267/304/120
s 3
f 47/49/124 48/50/125 56/59/126 55/58/127
s off
f 275/305/128 276/306/129 277/307/130 278/308/131
s 3
f 49/51/109 50/52/108 58/61/132 57/60/133
f 50/52/108 51/53/111 59/62/134 58/61/132
f 51/53/111 52/54/135 60/63/136 59/62/134
s 9
f 271/309/137 268/301/121 272/310/138 273/311/139
f 268/301/121 267/304/120 274/312/140 272/310/138
s 3
f 54/57/141 55/58/127 63/67/142 62/66/143
f 55/58/127 56/59/126 64/68/144 63/67/142
f 56/59/126 57/60/133 65/69/145 64/68/144
f 57/60/133 58/61/132 66/70/146 65/69/145
s 11
f 213/249/147 214/250/148 215/71/149 216/251/150
f 214/250/148 217/252/151 218/253/152 215/71/149
s 12
f 199/247/153 198/65/154 201/74/155 202/254/156
f 198/65/154 200/248/157 203/255/158 201/74/155
s 3
f 62/66/143 63/67/142 70/76/159 69/75/160
s off
f 279/313/161 280/314/162 281/315/163 282/316/164
s 3
f 64/68/144 65/69/145 72/78/165 71/77/166
s off
f 219/260/167 216/251/168 220/261/169 221/262/170
s 13
f 283/317/171 284/318/172 285/319/173 286/320/174
s 11
f 215/71/149 218/253/152 223/263/175 222/80/176
s 12
f 202/254/156 201/74/155 204/264/177 205/265/178
s off
f 291/321/179 292/322/180 293/323/181 294/324/182
s 3
f 69/75/160 70/76/159 78/85/183 77/84/184
f 70/76/159 71/77/185 79/86/186 78/85/183
s off
f 295/315/187 296/325/188 297/326/189 298/327/190
f 72/78/191 73/79/192 81/88/193 80/87/194
s 13
f 286/320/174 285/319/173 287/328/195 288/329/196
f 285/319/173 289/330/197 290/331/198 287/328/195
s 14
f 75/82/199 76/83/200 85/92/201 84/91/202
f 76/83/200 77/84/203 86/93/204 85/92/201
f 77/84/203 78/85/205 87/94/206 86/93/204
f 78/85/205 79/86/207 88/95/208 87/94/206
f 79/86/207 80/87/209 89/96/210 88/95/208
f 80/87/209 81/88/211 90/97/212 89/96/210
f 81/88/211 82/89/213 91/98/214 90/97/212
f 82/89/213 83/90/215 92/99/216 91/98/214
s 15
f 84/91/217 85/92/218 94/101/219 93/100/220
f 85/92/218 86/93/221 95/102/222 94/101/219
f 86/93/221 87/94/223 96/103/224 95/102/222
f 87/94/223 88/95/225 97/104/226 96/103/224
f 88/95/225 89/96/227 98/105/228 97/104/226
f 89/96/227 90/97/229 99/106/230 98/105/228
f 90/97/229 91/98/231 100/107/232 99/106/230
f 91/98/231 92/99/233 101/108/234 100/107/232
f 93/100/220 94/101/219 103/110/235 102/109/236
f 94/101/219 95/102/222 104/111/237 103/110/235
f 95/102/222 96/103/224 105/112/238 104/111/237
f 96/103/224 97/104/226 106/113/239 105/112/238
f 97/104/226 98/105/228 107/114/240 106/113/239
f 98/105/228 99/106/230 108/115/241 107/114/240
f 99/106/230 100/107/232 109/116/242 108/115/241
f 100/107/232 101/108/234 110/117/243 109/116/242
f 102/109/236 103/110/235 112/119/244 111/118/245
f 103/110/235 104/111/237 113/120/246 112/119/244
f 104/111/237 105/112/238 114/121/247 113/120/246
f 105/112/238 106/113/239 115/122/248 114/121/247
f 106/113/239 107/114/240 116/123/249 115/122/248
f 107/114/240 108/115/241 117/124/250 116/123/249
f 108/115/241 109/116/242 118/125/251 117/124/250
f 109/116/242 110/117/243 119/126/252 118/125/251
f 111/118/245 112/119/244 121/128/253 120/127/254
f 112/119/244 113/120/246 122/129/255 121/128/253
f 113/120/246 114/121/247 123/130/256 122/129/255
f 114/121/247 115/122/248 124/131/257 123/130/256
f 115/122/248 116/123/249 125/132/258 124/131/257
f 116/123/249 117/124/250 126/133/259 125/132/258
f 117/124/250 118/125/251 127/134/260 126/133/259
f 118/125/251 119/126/252 128/135/261 127/134/260
f 120/127/254 121/128/253 130/137/262 129/136/263
f 121/128/253 122/129/255 131/138/264 130/137/262
f 122/129/255 123/130/256 132/139/265 131/138/264
f 123/130/256 124/131/257 133/140/266 132/139/265
f 124/131/257 125/132/258 134/141/267 133/140/266
f 125/132/258 126/133/259 135/142/268 134/141/267
f 126/133/259 127/134/260 136/143/269 135/142/268
f 127/134/260 128/135/261 137/144/270 136/143/269
f 129/136/263 130/137/262 139/146/271 138/145/272
f 130/137/262 131/138/264 140/147/273 139/146/271
f 131/138/264 132/139/265 141/148/274 140/147/273
f 132/139/265 133/140/266 142/149/275 141/148/274
f 133/140/266 134/141/267 143/150/276 142/149/275
f 134/141/267 135/142/268 144/151/277 143/150/276
f 135/142/268 136/143/269 145/152/278 144/151/277
f 136/143/269 137/144/270 146/153/279 145/152/278
f 138/145/272 139/146/271 148/155/280 147/154/281
f 139/146/271 140/147/273 149/156/282 148/155/280
f 140/147/273 141/148/274 150/157/283 149/156/282
f 141/148/274 142/149/275 151/158/284 150/157/283
f 142/149/275 143/150/276 152/159/285 151/158/284
f 143/150/276 144/151/277 153/160/286 152/159/285
f 144/151/277 145/152/278 154/161/287 153/160/286
f 145/152/278 146/153/279 155/162/288 154/161/287
f 147/154/281 148/155/280 2/164/289 1/163/290
f 148/155/280 149/156/282 3/165/291 2/164/289
f 149/156/282 150/157/283 4/166/292 3/165/291
f 150/157/283 151/158/284 5/167/293 4/166/292
f 151/158/284 152/159/285 6/168/294 5/167/293
f 152/159/285 153/160/286 7/169/295 6/168/294
f 153/160/286 154/161/287 8/170/296 7/169/295
f 154/161/287 155/162/288 9/171/297 8/170/296
s 16
f 101/173/298 92/172/299 83/180/300 74/181/301
f 110/174/302 101/173/298 74/181/301 67/182/303
f 119/175/304 110/174/302 67/182/303 60/183/305
f 128/176/306 119/175/304 60/183/305 52/184/307
f 137/177/308 128/176/306 52/184/307 43/185/309
f 146/178/310 137/177/308 43/185/309 34/186/311
f 155/179/312 146/178/310 34/186/311 26/187/313
f 9/9/314 155/179/312 26/187/313 18/18/315
s 17
f 84/188/316 93/189/317 68/197/318 75/196/319
f 93/189/317 102/190/320 61/198/321 68/197/318
f 102/190/320 111/191/322 53/199/323 61/198/321
f 111/191/322 120/192/324 44/200/325 53/199/323
f 120/192/324 129/193/326 35/201/327 44/200/325
f 129/193/326 138/194/328 27/202/329 35/201/327
f 138/194/328 147/195/330 19/203/331 27/202/329
f 147/195/330 1/1/332 10/10/333 19/203/331
s 1
f 10/10/4 11/11/3 157/205/334 156/204/335
s 18
f 11/11/336 20/20/337 158/206/338 157/205/339
s 17
f 19/19/331 10/10/333 156/204/340 159/207/341
s 19
f 28/12/342 27/13/343 161/209/344 160/208/345
s 17
f 27/13/329 19/22/331 159/210/341 161/209/346
s off
f 20/22/347 21/21/348 162/211/349 158/210/350
f 21/21/351 29/12/352 163/208/353 162/211/354
s 20
f 37/16/355 36/17/356 165/213/357 164/212/358
s 21
f 36/25/359 28/16/360 160/212/361 165/214/362
s 22
f 29/17/363 30/18/364 166/215/365 163/213/366
s 23
f 30/18/367 38/27/368 167/216/369 166/215/370
s 20
f 38/29/371 37/28/355 164/218/358 167/217/372
s 1
f 12/28/6 13/19/8 169/207/373 168/218/374
s 24
f 13/20/375 22/21/376 170/211/377 169/206/378
s 25
f 22/21/379 21/30/380 171/219/381 170/211/382
s 26
f 21/24/383 12/25/384 168/214/385 171/220/386
s 1
f 16/34/14 17/33/16 173/222/387 172/221/388
s off
f 25/33/389 16/24/390 172/220/391 175/222/392
s 1
f 17/27/16 18/36/18 176/223/393 173/216/387
s 16
f 18/39/315 26/38/313 177/225/394 176/224/395
s off
f 24/38/396 25/29/397 175/217/398 178/225/399
f 33/30/400 32/31/401 180/226/402 179/219/403
f 32/31/404 24/40/405 178/227/406 180/226/407
s 16
f 26/40/313 34/39/311 182/224/408 177/227/394
s off
f 42/44/409 41/43/410 184/229/411 183/228/412
f 41/43/413 33/34/414 179/221/415 184/229/416
s 16
f 34/36/311 43/45/309 185/230/417 182/223/408
f 43/37/309 52/38/307 186/225/418 185/231/417
s 27
f 52/38/419 51/47/420 187/232/421 186/225/422
s 28
f 51/46/423 42/37/424 183/231/425 187/233/426
s 29
f 35/41/427 36/42/428 189/235/429 188/234/430
s 30
f 36/42/431 45/51/432 190/236/433 189/235/434
s 17
f 44/50/325 35/41/327 188/234/435 191/237/436
f 53/45/323 44/54/325 191/238/436 193/230/437
s 31
f 45/54/438 46/53/439 194/239/440 190/238/441
f 46/53/439 47/44/442 196/228/443 194/239/440
s 32
f 47/55/444 55/46/445 197/233/446 196/240/447
s 33
f 55/47/448 54/48/449 195/241/450 197/232/451
s 17
f 61/48/321 53/49/323 193/242/437 199/241/452
s 34
f 54/49/453 62/58/454 200/243/455 195/242/456
s 17
f 68/58/318 61/57/321 199/244/452 202/243/457
s 34
f 62/51/454 69/60/458 203/245/459 200/236/455
s 14
f 76/60/200 75/59/199 205/246/460 204/245/461
s 17
f 75/59/319 68/50/318 202/237/457 205/246/462
s 34
f 69/64/458 77/55/463 206/240/464 203/247/459
s 14
f 77/57/203 76/66/200 204/248/461 206/244/465
s off
f 39/61/466 40/62/467 208/250/468 207/249/469
s 35
f 40/70/470 49/61/471 209/249/472 208/251/473
s 36
f 48/62/474 39/63/475 207/252/476 210/250/477
s 35
f 49/63/471 57/72/478 211/253/479 209/252/472
s 37
f 57/73/480 56/64/481 212/247/482 211/254/483
s 36
f 56/66/484 48/75/474 210/255/477 212/248/485
s 38
f 58/67/486 59/68/487 214/257/488 213/256/489
s off
f 66/68/490 58/77/491 213/258/492 216/257/493
s 38
f 59/77/487 60/76/494 217/259/495 214/258/488
s 16
f 60/76/305 67/67/303 218/256/496 217/259/497
s off
f 65/69/498 66/70/499 216/251/500 219/260/501
f 73/79/502 72/78/503 221/262/504 220/261/505
f 72/78/506 65/69/507 219/260/508 221/262/509
s 16
f 67/72/303 74/81/301 223/263/510 218/253/496
s 14
f 82/83/213 81/82/211 225/265/511 224/264/512
s 39
f 81/82/513 73/73/514 220/254/515 225/265/516
s 16
f 74/75/301 83/84/300 226/266/517 223/255/510
s 14
f 83/84/215 82/83/213 224/264/512 226/266/518
s 40
f 63/77/519 64/78/520 228/262/521 227/258/522
s 41
f 64/78/523 71/87/524 229/267/525 228/262/526
s 42
f 71/87/527 70/86/528 230/268/529 229/267/530
s 43
f 70/86/531 63/77/532 227/258/533 230/268/534
s 44
f 71/89/535 72/88/536 232/270/537 231/269/538
s 45
f 72/88/539 80/79/540 233/261/541 232/270/542
s 14
f 80/81/209 79/90/207 234/271/543 233/263/544
s 46
f 79/90/545 71/89/546 231/269/547 234/271/548
s 1
f 156/204/335 157/205/334 236/273/549 235/272/550
s 18
f 157/205/339 158/206/338 237/274/551 236/273/552
s 17
f 159/207/341 156/204/340 235/272/553 238/275/554
s 18
f 158/208/338 160/209/555 239/277/556 237/276/551
s 19
f 160/209/345 161/210/344 240/278/557 239/277/558
s 17
f 161/210/346 159/211/341 238/279/554 240/278/559
s 1
f 168/211/374 169/208/373 242/276/560 241/279/561
s 24
f 169/206/378 170/217/377 243/280/562 242/274/563
s 25
f 170/217/382 171/218/381 244/281/564 243/280/565
s 26
f 171/218/386 168/207/385 241/275/566 244/281/567
s 47
f 175/214/568 174/26/569 246/283/570 245/282/571
s off
f 181/35/572 179/221/573 248/285/574 247/284/575
f 179/221/576 175/214/577 245/282/578 248/285/579
s 47
f 174/26/569 177/216/580 249/286/581 246/283/570
s 16
f 177/216/394 182/223/408 250/287/582 249/286/583
f 182/217/408 185/219/417 251/288/584 250/280/582
s 28
f 183/224/425 181/225/585 247/290/586 252/289/587
s 16
f 185/225/417 186/217/418 253/280/588 251/290/584
s 27
f 186/219/422 187/226/421 254/291/589 253/288/590
s 28
f 187/226/426 183/227/425 252/292/587 254/291/591
s 22
f 160/227/592 163/224/366 256/289/593 255/292/594
s 20
f 164/223/358 165/230/357 258/293/595 257/287/596
s 21
f 165/228/362 160/35/361 255/284/597 258/294/598
s 22
f 163/231/366 166/225/365 259/290/599 256/295/593
s 23
f 166/225/370 167/232/369 260/296/600 259/290/601
s 20
f 167/232/372 164/233/358 257/297/596 260/296/602
s 29
f 188/233/430 189/231/429 262/295/603 261/297/604
s 30
f 189/230/434 190/238/433 263/298/605 262/293/606
s off
f 190/238/607 191/239/608 264/299/609 263/298/610
s 17
f 191/239/436 188/228/435 261/294/611 264/299/612
s 31
f 190/232/441 194/241/440 266/300/613 265/296/614
s off
f 192/56/615 190/232/616 265/296/617 268/301/618
s 31
f 194/241/440 196/242/443 269/302/619 266/300/613
s 32
f 196/242/447 197/243/446 270/303/620 269/302/621
s 33
f 197/243/451 195/244/450 267/304/622 270/303/623
s off
f 193/237/624 192/236/625 268/306/626 271/305/627
s 48
f 198/236/628 199/245/629 273/307/630 272/306/631
s 17
f 199/245/452 193/246/437 271/308/632 273/307/633
s 34
f 195/246/456 200/237/455 274/305/634 267/308/635
s 48
f 200/240/636 198/56/628 272/301/631 274/309/637
s off
f 210/65/638 209/247/639 276/311/640 275/310/641
s 35
f 209/247/472 211/240/479 277/309/642 276/311/643
s 37
f 211/244/483 212/248/482 278/312/644 277/304/645
s 36
f 212/248/485 210/65/477 275/310/646 278/312/647
s 40
f 227/256/522 228/257/521 280/314/648 279/313/649
s 41
f 228/257/526 229/258/525 281/315/650 280/314/651
s 42
f 229/258/530 230/259/529 282/316/652 281/315/653
s 43
f 230/259/534 227/256/533 279/313/654 282/316/655
s off
f 216/251/656 215/71/657 284/318/658 283/317/659
f 215/71/660 222/80/661 285/319/662 284/318/663
s 39
f 220/261/515 216/251/664 283/317/665 286/320/666
s 14
f 224/74/512 225/255/511 288/322/667 287/321/668
s 39
f 225/255/516 220/266/515 286/323/666 288/322/669
s off
f 222/266/670 223/264/671 289/324/672 285/323/673
s 16
f 223/264/510 226/74/517 290/321/674 289/324/675
s 14
f 226/258/518 224/262/512 287/325/668 290/315/676
s off
f 201/262/677 203/267/678 292/326/679 291/325/680
s 34
f 203/267/459 206/268/464 293/327/681 292/326/682
s 14
f 206/268/465 204/258/461 294/315/683 293/327/684
s off
f 204/269/685 201/270/686 291/329/687 294/328/688
s 44
f 231/270/538 232/261/537 296/320/689 295/329/690
s 45
f 232/80/542 233/263/541 297/330/691 296/319/692
s 14
f 233/263/544 234/271/543 298/331/693 297/330/694
s 46
f 234/271/548 231/269/547 295/328/695 298/331/696
s 1
f 13/13/8 14/14/10 300/333/697 299/332/698
s off
f 14/14/699 23/23/700 301/334/701 300/333/702
f 23/23/703 22/22/704 302/335/705 301/334/706
f 22/22/707 13/13/708 299/332/709 302/335/710
f 38/40/711 39/41/712 304/337/713 303/336/714
f 39/41/715 48/50/716 305/338/717 304/337/718
f 48/50/719 47/49/720 306/339/721 305/338/722
f 47/49/723 38/40/724 303/336/725 306/339/726
