# This file uses centimeters as units for non-parametric coordinates.

mtllib TutorialBlock_WIP1.mtl
g default
v 0.555447 -0.375000 -5.199492
v 0.680447 -0.375000 -5.199492
v 0.805447 -0.375000 -5.199492
v 0.930447 -0.375000 -5.199492
v 1.055447 -0.375000 -5.199492
v 1.180447 -0.375000 -5.199492
v 1.305447 -0.375000 -5.199492
v 0.555447 -0.311558 -5.199492
v 0.680447 -0.311558 -5.199492
v 0.805447 -0.311558 -5.199492
v 0.930447 -0.311558 -5.199492
v 1.055447 -0.311558 -5.199492
v 1.180447 -0.311558 -5.199492
v 1.305447 -0.311558 -5.199492
v 0.555447 -0.276083 -5.199492
v 0.680447 -0.276083 -5.199492
v 0.805447 -0.276083 -5.199492
v 0.930447 -0.276083 -5.199492
v 1.055447 -0.276083 -5.199492
v 1.180447 -0.276083 -5.199492
v 1.305447 -0.276083 -5.199492
v 0.555447 0.000000 -5.199492
v 0.680447 0.000000 -5.199492
v 0.805447 0.000000 -5.199492
v 0.930447 0.000000 -5.199492
v 1.055447 0.000000 -5.199492
v 1.180447 0.000000 -5.199492
v 1.305447 0.000000 -5.199492
v 0.555447 0.276083 -5.199492
v 0.680447 0.276083 -5.199492
v 0.805447 0.276083 -5.199492
v 0.930447 0.276083 -5.199492
v 1.055447 0.276083 -5.199492
v 1.180447 0.276083 -5.199492
v 1.305447 0.276083 -5.199492
v 0.555447 0.311558 -5.199492
v 0.680447 0.311558 -5.199492
v 0.805447 0.311558 -5.199492
v 0.930447 0.311558 -5.199492
v 1.055447 0.311558 -5.199492
v 1.180447 0.311558 -5.199492
v 1.305447 0.311558 -5.199492
v 0.555447 0.375000 -5.199492
v 0.680447 0.375000 -5.199492
v 0.805447 0.375000 -5.199492
v 0.930447 0.375000 -5.199492
v 1.055447 0.375000 -5.199492
v 1.180447 0.375000 -5.199492
v 1.305447 0.375000 -5.199492
v 0.555447 0.500000 -5.324492
v 0.680447 0.500000 -5.324492
v 0.805447 0.500000 -5.324492
v 0.930447 0.500000 -5.324492
v 1.055447 0.500000 -5.324492
v 1.180447 0.500000 -5.324492
v 1.305447 0.500000 -5.324492
v 0.555447 0.500000 -5.449492
v 0.680447 0.500000 -5.449492
v 0.805447 0.500000 -5.449492
v 0.930447 0.500000 -5.449492
v 1.055447 0.500000 -5.449492
v 1.180447 0.500000 -5.449492
v 1.305447 0.500000 -5.449492
v 0.555447 0.500000 -5.574492
v 0.680447 0.500000 -5.574492
v 0.805447 0.500000 -5.574492
v 0.930447 0.500000 -5.574492
v 1.055447 0.500000 -5.574492
v 1.180447 0.500000 -5.574492
v 1.305447 0.500000 -5.574492
v 0.555447 0.500000 -5.699492
v 0.680447 0.500000 -5.699492
v 0.805447 0.500000 -5.699492
v 0.930447 0.500000 -5.699492
v 1.055447 0.500000 -5.699492
v 1.180447 0.500000 -5.699492
v 1.305447 0.500000 -5.699492
v 0.555447 0.500000 -5.824492
v 0.680447 0.500000 -5.824492
v 0.805447 0.500000 -5.824492
v 0.930447 0.500000 -5.824492
v 1.055447 0.500000 -5.824492
v 1.180447 0.500000 -5.824492
v 1.305447 0.500000 -5.824492
v 0.555447 0.500000 -5.949492
v 0.680447 0.500000 -5.949492
v 0.805447 0.500000 -5.949492
v 0.930447 0.500000 -5.949492
v 1.055447 0.500000 -5.949492
v 1.180447 0.500000 -5.949492
v 1.305447 0.500000 -5.949492
v 0.555447 0.500000 -6.074492
v 0.680447 0.500000 -6.074492
v 0.805447 0.500000 -6.074492
v 0.930447 0.500000 -6.074492
v 1.055447 0.500000 -6.074492
v 1.180447 0.500000 -6.074492
v 1.305447 0.500000 -6.074492
v 0.555447 0.375000 -6.199492
v 0.680447 0.375000 -6.199492
v 0.805447 0.375000 -6.199492
v 0.930447 0.375000 -6.199492
v 1.055447 0.375000 -6.199492
v 1.180447 0.375000 -6.199492
v 1.305447 0.375000 -6.199492
v 0.555447 0.311558 -6.199492
v 0.680447 0.311558 -6.199492
v 0.805447 0.311558 -6.199492
v 0.930447 0.311558 -6.199492
v 1.055447 0.311558 -6.199492
v 1.180447 0.311558 -6.199492
v 1.305447 0.311558 -6.199492
v 0.555447 0.276083 -6.199492
v 0.680447 0.276083 -6.199492
v 0.805447 0.276083 -6.199492
v 0.930447 0.276083 -6.199492
v 1.055447 0.276083 -6.199492
v 1.180447 0.276083 -6.199492
v 1.305447 0.276083 -6.199492
v 0.555447 0.000000 -6.199492
v 0.680447 0.000000 -6.199492
v 0.805447 0.000000 -6.199492
v 0.930447 0.000000 -6.199492
v 1.055447 0.000000 -6.199492
v 1.180447 0.000000 -6.199492
v 1.305447 0.000000 -6.199492
v 0.555447 -0.276083 -6.199492
v 0.680447 -0.276083 -6.199492
v 0.805447 -0.276083 -6.199492
v 0.930447 -0.276083 -6.199492
v 1.055447 -0.276083 -6.199492
v 1.180447 -0.276083 -6.199492
v 1.305447 -0.276083 -6.199492
v 0.555447 -0.311558 -6.199492
v 0.680447 -0.311558 -6.199492
v 0.805447 -0.311558 -6.199492
v 0.930447 -0.311558 -6.199492
v 1.055447 -0.311558 -6.199492
v 1.180447 -0.311558 -6.199492
v 1.305447 -0.311558 -6.199492
v 0.555447 -0.375000 -6.199492
v 0.680447 -0.375000 -6.199492
v 0.805447 -0.375000 -6.199492
v 0.930447 -0.375000 -6.199492
v 1.055447 -0.375000 -6.199492
v 1.180447 -0.375000 -6.199492
v 1.305447 -0.375000 -6.199492
v 0.555447 -0.500000 -6.074492
v 0.680447 -0.500000 -6.074492
v 0.805447 -0.500000 -6.074492
v 0.930447 -0.500000 -6.074492
v 1.055447 -0.500000 -6.074492
v 1.180447 -0.500000 -6.074492
v 1.305447 -0.500000 -6.074492
v 0.555447 -0.500000 -5.949492
v 0.680447 -0.500000 -5.949492
v 0.805447 -0.500000 -5.949492
v 0.930447 -0.500000 -5.949492
v 1.055447 -0.500000 -5.949492
v 1.180447 -0.500000 -5.949492
v 1.305447 -0.500000 -5.949492
v 0.555447 -0.500000 -5.824492
v 0.680447 -0.500000 -5.824492
v 0.805447 -0.500000 -5.824492
v 0.930447 -0.500000 -5.824492
v 1.055447 -0.500000 -5.824492
v 1.180447 -0.500000 -5.824492
v 1.305447 -0.500000 -5.824492
v 0.555447 -0.500000 -5.699492
v 0.680447 -0.500000 -5.699492
v 0.805447 -0.500000 -5.699492
v 0.930447 -0.500000 -5.699492
v 1.055447 -0.500000 -5.699492
v 1.180447 -0.500000 -5.699492
v 1.305447 -0.500000 -5.699492
v 0.555447 -0.500000 -5.574492
v 0.680447 -0.500000 -5.574492
v 0.805447 -0.500000 -5.574492
v 0.930447 -0.500000 -5.574492
v 1.055447 -0.500000 -5.574492
v 1.180447 -0.500000 -5.574492
v 1.305447 -0.500000 -5.574492
v 0.555447 -0.500000 -5.449492
v 0.680447 -0.500000 -5.449492
v 0.805447 -0.500000 -5.449492
v 0.930447 -0.500000 -5.449492
v 1.055447 -0.500000 -5.449492
v 1.180447 -0.500000 -5.449492
v 1.305447 -0.500000 -5.449492
v 0.555447 -0.500000 -5.324492
v 0.680447 -0.500000 -5.324492
v 0.805447 -0.500000 -5.324492
v 0.930447 -0.500000 -5.324492
v 1.055447 -0.500000 -5.324492
v 1.180447 -0.500000 -5.324492
v 1.305447 -0.500000 -5.324492
v 1.430447 -0.375000 -6.074492
v 1.430447 -0.375000 -5.949492
v 1.430447 -0.375000 -5.824492
v 1.430447 -0.375000 -5.699492
v 1.430447 -0.375000 -5.574492
v 1.430447 -0.375000 -5.449492
v 1.430447 -0.375000 -5.324492
v 1.430447 -0.311558 -6.074492
v 1.430447 -0.311558 -5.949492
v 1.430447 -0.311558 -5.824492
v 1.430447 -0.311558 -5.699492
v 1.430447 -0.311558 -5.574492
v 1.430447 -0.311558 -5.449492
v 1.430447 -0.311558 -5.324492
v 1.430447 -0.276083 -6.074492
v 1.430447 -0.276083 -5.949492
v 1.430447 -0.276083 -5.824492
v 1.430447 -0.276083 -5.699492
v 1.430447 -0.276083 -5.574492
v 1.430447 -0.276083 -5.449492
v 1.430447 -0.276083 -5.324492
v 1.430447 -0.000000 -6.074492
v 1.430447 -0.000000 -5.949492
v 1.430447 -0.000000 -5.824492
v 1.430447 -0.000000 -5.699492
v 1.430447 -0.000000 -5.574492
v 1.430447 -0.000000 -5.449492
v 1.430447 -0.000000 -5.324492
v 1.430447 0.276083 -6.074492
v 1.430447 0.276083 -5.949492
v 1.430447 0.276083 -5.824492
v 1.430447 0.276083 -5.699492
v 1.430447 0.276083 -5.574492
v 1.430447 0.276083 -5.449492
v 1.430447 0.276083 -5.324492
v 1.430447 0.311558 -6.074492
v 1.430447 0.311558 -5.949492
v 1.430447 0.311558 -5.824492
v 1.430447 0.311558 -5.699492
v 1.430447 0.311558 -5.574492
v 1.430447 0.311558 -5.449492
v 1.430447 0.311558 -5.324492
v 1.430447 0.375000 -6.074492
v 1.430447 0.375000 -5.949492
v 1.430447 0.375000 -5.824492
v 1.430447 0.375000 -5.699492
v 1.430447 0.375000 -5.574492
v 1.430447 0.375000 -5.449492
v 1.430447 0.375000 -5.324492
v 0.430447 -0.375000 -6.074492
v 0.430447 -0.375000 -5.949492
v 0.430447 -0.375000 -5.824492
v 0.430447 -0.375000 -5.699492
v 0.430447 -0.375000 -5.574492
v 0.430447 -0.375000 -5.449492
v 0.430447 -0.375000 -5.324492
v 0.430447 -0.311558 -6.074492
v 0.430447 -0.311558 -5.949492
v 0.430447 -0.311558 -5.824492
v 0.430447 -0.311558 -5.699492
v 0.430447 -0.311558 -5.574492
v 0.430447 -0.311558 -5.449492
v 0.430447 -0.311558 -5.324492
v 0.430447 -0.276083 -6.074492
v 0.430447 -0.276083 -5.949492
v 0.430447 -0.276083 -5.824492
v 0.430447 -0.276083 -5.699492
v 0.430447 -0.276083 -5.574492
v 0.430447 -0.276083 -5.449492
v 0.430447 -0.276083 -5.324492
v 0.430447 -0.000000 -6.074492
v 0.430447 -0.000000 -5.949492
v 0.430447 -0.000000 -5.824492
v 0.430447 -0.000000 -5.699492
v 0.430447 -0.000000 -5.574492
v 0.430447 -0.000000 -5.449492
v 0.430447 -0.000000 -5.324492
v 0.430447 0.276083 -6.074492
v 0.430447 0.276083 -5.949492
v 0.430447 0.276083 -5.824492
v 0.430447 0.276083 -5.699492
v 0.430447 0.276083 -5.574492
v 0.430447 0.276083 -5.449492
v 0.430447 0.276083 -5.324492
v 0.430447 0.311558 -6.074492
v 0.430447 0.311558 -5.949492
v 0.430447 0.311558 -5.824492
v 0.430447 0.311558 -5.699492
v 0.430447 0.311558 -5.574492
v 0.430447 0.311558 -5.449492
v 0.430447 0.311558 -5.324492
v 0.430447 0.375000 -6.074492
v 0.430447 0.375000 -5.949492
v 0.430447 0.375000 -5.824492
v 0.430447 0.375000 -5.699492
v 0.430447 0.375000 -5.574492
v 0.430447 0.375000 -5.449492
v 0.430447 0.375000 -5.324492
v 0.555447 0.362312 -5.199492
v 0.680447 0.362312 -5.199492
v 0.805447 0.362312 -5.199492
v 0.930447 0.362312 -5.199492
v 1.055447 0.362312 -5.199492
v 1.180447 0.362312 -5.199492
v 1.305447 0.362312 -5.199492
v 1.430447 0.362312 -5.324492
v 1.430447 0.362312 -5.449492
v 1.430447 0.362312 -5.574492
v 1.430447 0.362312 -5.699492
v 1.430447 0.362312 -5.824492
v 1.430447 0.362312 -5.949492
v 1.430447 0.362312 -6.074492
v 1.305447 0.362312 -6.199492
v 1.180447 0.362312 -6.199492
v 1.055447 0.362312 -6.199492
v 0.930447 0.362312 -6.199492
v 0.805447 0.362312 -6.199492
v 0.680447 0.362312 -6.199492
v 0.555447 0.362312 -6.199492
v 0.430447 0.362312 -6.074492
v 0.430447 0.362312 -5.949492
v 0.430447 0.362312 -5.824492
v 0.430447 0.362312 -5.699492
v 0.430447 0.362312 -5.574492
v 0.430447 0.362312 -5.449492
v 0.430447 0.362312 -5.324492
v 0.555447 -0.362312 -5.199492
v 0.680447 -0.362312 -5.199492
v 0.805447 -0.362312 -5.199492
v 0.930447 -0.362312 -5.199492
v 1.055447 -0.362312 -5.199492
v 1.180447 -0.362312 -5.199492
v 1.305447 -0.362312 -5.199492
v 1.430447 -0.362312 -5.324492
v 1.430447 -0.362312 -5.449492
v 1.430447 -0.362312 -5.574492
v 1.430447 -0.362312 -5.699492
v 1.430447 -0.362312 -5.824492
v 1.430447 -0.362312 -5.949492
v 1.430447 -0.362312 -6.074492
v 1.305447 -0.362312 -6.199492
v 1.180447 -0.362312 -6.199492
v 1.055447 -0.362312 -6.199492
v 0.930447 -0.362312 -6.199492
v 0.805447 -0.362312 -6.199492
v 0.680447 -0.362312 -6.199492
v 0.555447 -0.362312 -6.199492
v 0.430447 -0.362312 -6.074492
v 0.430447 -0.362312 -5.949492
v 0.430447 -0.362312 -5.824492
v 0.430447 -0.362312 -5.699492
v 0.430447 -0.362312 -5.574492
v 0.430447 -0.362312 -5.449492
v 0.430447 -0.362312 -5.324492
v 0.388780 -0.541667 -5.157825
v 0.524197 -0.541667 -5.157825
v 0.524197 -0.406250 -5.157825
v 0.388780 -0.406250 -5.157825
v 0.659614 -0.541667 -5.157825
v 0.659614 -0.406250 -5.157825
v 0.795030 -0.541667 -5.157825
v 0.795030 -0.406250 -5.157825
v 0.930447 -0.541667 -5.157825
v 0.930447 -0.406250 -5.157825
v 1.065864 -0.541667 -5.157825
v 1.065864 -0.406250 -5.157825
v 1.201280 -0.541667 -5.157825
v 1.201280 -0.406250 -5.157825
v 1.336697 -0.541667 -5.157825
v 1.336697 -0.406250 -5.157825
v 1.472114 -0.541667 -5.157825
v 1.472114 -0.406250 -5.157825
v 0.388780 -0.392504 -5.157825
v 0.524197 -0.392504 -5.157825
v 0.524197 -0.337521 -5.157825
v 0.388780 -0.337521 -5.157825
v 1.336697 -0.392504 -5.157825
v 1.472114 -0.392504 -5.157825
v 1.472114 -0.337521 -5.157825
v 1.336697 -0.337521 -5.157825
v 0.524197 -0.299090 -5.157825
v 0.388780 -0.299090 -5.157825
v 1.472114 -0.299090 -5.157825
v 1.336697 -0.299090 -5.157825
v 0.524197 -0.000000 -5.157825
v 0.388780 -0.000000 -5.157825
v 1.472114 -0.000000 -5.157825
v 1.336697 -0.000000 -5.157825
v 0.524197 0.299090 -5.157825
v 0.388780 0.299090 -5.157825
v 1.472114 0.299090 -5.157825
v 1.336697 0.299090 -5.157825
v 0.524197 0.337521 -5.157825
v 0.388780 0.337521 -5.157825
v 1.472114 0.337521 -5.157825
v 1.336697 0.337521 -5.157825
v 0.388780 0.392504 -5.157825
v 0.524197 0.392504 -5.157825
v 0.524197 0.406250 -5.157825
v 0.388780 0.406250 -5.157825
v 1.336697 0.392504 -5.157825
v 1.472114 0.392504 -5.157825
v 1.472114 0.406250 -5.157825
v 1.336697 0.406250 -5.157825
v 0.524197 0.541667 -5.157825
v 0.388780 0.541667 -5.157825
v 0.659614 0.406250 -5.157825
v 0.659614 0.541667 -5.157825
v 0.795030 0.406250 -5.157825
v 0.795030 0.541667 -5.157825
v 0.930447 0.406250 -5.157825
v 0.930447 0.541667 -5.157825
v 1.065864 0.406250 -5.157825
v 1.065864 0.541667 -5.157825
v 1.201280 0.406250 -5.157825
v 1.201280 0.541667 -5.157825
v 1.336697 0.541667 -5.157825
v 1.472114 0.541667 -5.157825
v 0.524197 0.541667 -5.293242
v 0.388780 0.541667 -5.293242
v 0.659614 0.541667 -5.293242
v 0.795030 0.541667 -5.293242
v 0.930447 0.541667 -5.293242
v 1.065864 0.541667 -5.293242
v 1.201280 0.541667 -5.293242
v 1.336697 0.541667 -5.293242
v 1.472114 0.541667 -5.293242
v 0.524197 0.541667 -5.428658
v 0.388780 0.541667 -5.428658
v 1.472114 0.541667 -5.428658
v 1.336697 0.541667 -5.428658
v 0.524197 0.541667 -5.564075
v 0.388780 0.541667 -5.564075
v 1.472114 0.541667 -5.564075
v 1.336697 0.541667 -5.564075
v 0.524197 0.541667 -5.699492
v 0.388780 0.541667 -5.699492
v 1.472114 0.541667 -5.699492
v 1.336697 0.541667 -5.699492
v 0.524197 0.541667 -5.834908
v 0.388780 0.541667 -5.834908
v 1.472114 0.541667 -5.834908
v 1.336697 0.541667 -5.834908
v 0.524197 0.541667 -5.970325
v 0.388780 0.541667 -5.970325
v 1.472114 0.541667 -5.970325
v 1.336697 0.541667 -5.970325
v 0.524197 0.541667 -6.105742
v 0.388780 0.541667 -6.105742
v 1.472114 0.541667 -6.105742
v 1.336697 0.541667 -6.105742
v 0.524197 0.541667 -6.241158
v 0.388780 0.541667 -6.241158
v 0.659614 0.541667 -6.105742
v 0.659614 0.541667 -6.241158
v 0.795030 0.541667 -6.105742
v 0.795030 0.541667 -6.241158
v 0.930447 0.541667 -6.105742
v 0.930447 0.541667 -6.241158
v 1.065864 0.541667 -6.105742
v 1.065864 0.541667 -6.241158
v 1.201280 0.541667 -6.105742
v 1.201280 0.541667 -6.241158
v 1.336697 0.541667 -6.241158
v 1.472114 0.541667 -6.241158
v 0.524197 0.406250 -6.241158
v 0.388780 0.406250 -6.241158
v 0.659614 0.406250 -6.241158
v 0.795030 0.406250 -6.241158
v 0.930447 0.406250 -6.241158
v 1.065864 0.406250 -6.241158
v 1.201280 0.406250 -6.241158
v 1.336697 0.406250 -6.241158
v 1.472114 0.406250 -6.241158
v 0.524197 0.392504 -6.241158
v 0.388780 0.392504 -6.241158
v 1.472114 0.392504 -6.241158
v 1.336697 0.392504 -6.241158
v 0.388780 0.337521 -6.241158
v 0.524197 0.337521 -6.241158
v 0.524197 0.299090 -6.241158
v 0.388780 0.299090 -6.241158
v 1.336697 0.337521 -6.241158
v 1.472114 0.337521 -6.241158
v 1.472114 0.299090 -6.241158
v 1.336697 0.299090 -6.241158
v 0.524197 0.000000 -6.241158
v 0.388780 0.000000 -6.241158
v 1.472114 0.000000 -6.241158
v 1.336697 0.000000 -6.241158
v 0.524197 -0.299090 -6.241158
v 0.388780 -0.299090 -6.241158
v 1.472114 -0.299090 -6.241158
v 1.336697 -0.299090 -6.241158
v 0.524197 -0.337521 -6.241158
v 0.388780 -0.337521 -6.241158
v 1.472114 -0.337521 -6.241158
v 1.336697 -0.337521 -6.241158
v 0.524197 -0.392504 -6.241158
v 0.388780 -0.392504 -6.241158
v 1.472114 -0.392504 -6.241158
v 1.336697 -0.392504 -6.241158
v 0.388780 -0.406250 -6.241158
v 0.524197 -0.406250 -6.241158
v 0.524197 -0.541667 -6.241158
v 0.388780 -0.541667 -6.241158
v 0.659614 -0.406250 -6.241158
v 0.659614 -0.541667 -6.241158
v 0.795030 -0.406250 -6.241158
v 0.795030 -0.541667 -6.241158
v 0.930447 -0.406250 -6.241158
v 0.930447 -0.541667 -6.241158
v 1.065864 -0.406250 -6.241158
v 1.065864 -0.541667 -6.241158
v 1.201280 -0.406250 -6.241158
v 1.201280 -0.541667 -6.241158
v 1.336697 -0.406250 -6.241158
v 1.336697 -0.541667 -6.241158
v 1.472114 -0.406250 -6.241158
v 1.472114 -0.541667 -6.241158
v 0.524197 -0.541667 -6.105742
v 0.388780 -0.541667 -6.105742
v 0.659614 -0.541667 -6.105742
v 0.795030 -0.541667 -6.105742
v 0.930447 -0.541667 -6.105742
v 1.065864 -0.541667 -6.105742
v 1.201280 -0.541667 -6.105742
v 1.336697 -0.541667 -6.105742
v 1.472114 -0.541667 -6.105742
v 0.524197 -0.541667 -5.970325
v 0.388780 -0.541667 -5.970325
v 1.472114 -0.541667 -5.970325
v 1.336697 -0.541667 -5.970325
v 0.524197 -0.541667 -5.834908
v 0.388780 -0.541667 -5.834908
v 1.472114 -0.541667 -5.834908
v 1.336697 -0.541667 -5.834908
v 0.524197 -0.541667 -5.699492
v 0.388780 -0.541667 -5.699492
v 1.472114 -0.541667 -5.699492
v 1.336697 -0.541667 -5.699492
v 0.524197 -0.541667 -5.564075
v 0.388780 -0.541667 -5.564075
v 1.472114 -0.541667 -5.564075
v 1.336697 -0.541667 -5.564075
v 0.524197 -0.541667 -5.428658
v 0.388780 -0.541667 -5.428658
v 1.472114 -0.541667 -5.428658
v 1.336697 -0.541667 -5.428658
v 0.524197 -0.541667 -5.293242
v 0.388780 -0.541667 -5.293242
v 1.472114 -0.541667 -5.293242
v 1.336697 -0.541667 -5.293242
v 0.659614 -0.541667 -5.293242
v 0.795030 -0.541667 -5.293242
v 0.930447 -0.541667 -5.293242
v 1.065864 -0.541667 -5.293242
v 1.201280 -0.541667 -5.293242
v 1.472114 -0.406250 -6.105742
v 1.472114 -0.406250 -5.970325
v 1.472114 -0.406250 -5.834908
v 1.472114 -0.406250 -5.699492
v 1.472114 -0.406250 -5.564075
v 1.472114 -0.406250 -5.428658
v 1.472114 -0.406250 -5.293242
v 1.472114 -0.392504 -6.105742
v 1.472114 -0.337521 -6.105742
v 1.472114 -0.392504 -5.293242
v 1.472114 -0.337521 -5.293242
v 1.472114 -0.299090 -6.105742
v 1.472114 -0.299090 -5.293242
v 1.472114 0.000000 -6.105742
v 1.472114 0.000000 -5.293242
v 1.472114 0.299090 -6.105742
v 1.472114 0.299090 -5.293242
v 1.472114 0.337521 -6.105742
v 1.472114 0.337521 -5.293242
v 1.472114 0.392504 -6.105742
v 1.472114 0.406250 -6.105742
v 1.472114 0.392504 -5.293242
v 1.472114 0.406250 -5.293242
v 1.472114 0.406250 -5.970325
v 1.472114 0.406250 -5.834908
v 1.472114 0.406250 -5.699492
v 1.472114 0.406250 -5.564075
v 1.472114 0.406250 -5.428658
v 0.388780 -0.406250 -6.105742
v 0.388780 -0.406250 -5.970325
v 0.388780 -0.406250 -5.834908
v 0.388780 -0.406250 -5.699492
v 0.388780 -0.406250 -5.564075
v 0.388780 -0.406250 -5.428658
v 0.388780 -0.406250 -5.293242
v 0.388780 -0.392504 -6.105742
v 0.388780 -0.337521 -6.105742
v 0.388780 -0.392504 -5.293242
v 0.388780 -0.337521 -5.293242
v 0.388780 -0.299090 -6.105742
v 0.388780 -0.299090 -5.293242
v 0.388780 0.000000 -6.105742
v 0.388780 0.000000 -5.293242
v 0.388780 0.299090 -6.105742
v 0.388780 0.299090 -5.293242
v 0.388780 0.337521 -6.105742
v 0.388780 0.337521 -5.293242
v 0.388780 0.392504 -6.105742
v 0.388780 0.406250 -6.105742
v 0.388780 0.392504 -5.293242
v 0.388780 0.406250 -5.293242
v 0.388780 0.406250 -5.970325
v 0.388780 0.406250 -5.834908
v 0.388780 0.406250 -5.699492
v 0.388780 0.406250 -5.564075
v 0.388780 0.406250 -5.428658
vt 0.375000 0.000000
vt 0.406250 0.000000
vt 0.437500 0.000000
vt 0.468750 0.000000
vt 0.500000 0.000000
vt 0.531250 0.000000
vt 0.562500 0.000000
vt 0.593750 0.000000
vt 0.625000 0.000000
vt 0.375000 0.031250
vt 0.406250 0.031250
vt 0.437500 0.031250
vt 0.468750 0.031250
vt 0.500000 0.031250
vt 0.531250 0.031250
vt 0.562500 0.031250
vt 0.593750 0.031250
vt 0.625000 0.031250
vt 0.375000 0.062500
vt 0.406250 0.062500
vt 0.437500 0.062500
vt 0.468750 0.062500
vt 0.500000 0.062500
vt 0.531250 0.062500
vt 0.562500 0.062500
vt 0.593750 0.062500
vt 0.625000 0.062500
vt 0.375000 0.093750
vt 0.406250 0.093750
vt 0.437500 0.093750
vt 0.468750 0.093750
vt 0.500000 0.093750
vt 0.531250 0.093750
vt 0.562500 0.093750
vt 0.593750 0.093750
vt 0.625000 0.093750
vt 0.375000 0.125000
vt 0.406250 0.125000
vt 0.437500 0.125000
vt 0.468750 0.125000
vt 0.500000 0.125000
vt 0.531250 0.125000
vt 0.562500 0.125000
vt 0.593750 0.125000
vt 0.625000 0.125000
vt 0.375000 0.156250
vt 0.406250 0.156250
vt 0.437500 0.156250
vt 0.468750 0.156250
vt 0.500000 0.156250
vt 0.531250 0.156250
vt 0.562500 0.156250
vt 0.593750 0.156250
vt 0.625000 0.156250
vt 0.375000 0.187500
vt 0.406250 0.187500
vt 0.437500 0.187500
vt 0.468750 0.187500
vt 0.500000 0.187500
vt 0.531250 0.187500
vt 0.562500 0.187500
vt 0.593750 0.187500
vt 0.625000 0.187500
vt 0.375000 0.218750
vt 0.406250 0.218750
vt 0.437500 0.218750
vt 0.468750 0.218750
vt 0.500000 0.218750
vt 0.531250 0.218750
vt 0.562500 0.218750
vt 0.593750 0.218750
vt 0.625000 0.218750
vt 0.375000 0.250000
vt 0.406250 0.250000
vt 0.437500 0.250000
vt 0.468750 0.250000
vt 0.500000 0.250000
vt 0.531250 0.250000
vt 0.562500 0.250000
vt 0.593750 0.250000
vt 0.625000 0.250000
vt 0.375000 0.281250
vt 0.406250 0.281250
vt 0.437500 0.281250
vt 0.468750 0.281250
vt 0.500000 0.281250
vt 0.531250 0.281250
vt 0.562500 0.281250
vt 0.593750 0.281250
vt 0.625000 0.281250
vt 0.375000 0.312500
vt 0.406250 0.312500
vt 0.437500 0.312500
vt 0.468750 0.312500
vt 0.500000 0.312500
vt 0.531250 0.312500
vt 0.562500 0.312500
vt 0.593750 0.312500
vt 0.625000 0.312500
vt 0.375000 0.343750
vt 0.406250 0.343750
vt 0.437500 0.343750
vt 0.468750 0.343750
vt 0.500000 0.343750
vt 0.531250 0.343750
vt 0.562500 0.343750
vt 0.593750 0.343750
vt 0.625000 0.343750
vt 0.375000 0.375000
vt 0.406250 0.375000
vt 0.437500 0.375000
vt 0.468750 0.375000
vt 0.500000 0.375000
vt 0.531250 0.375000
vt 0.562500 0.375000
vt 0.593750 0.375000
vt 0.625000 0.375000
vt 0.375000 0.406250
vt 0.406250 0.406250
vt 0.437500 0.406250
vt 0.468750 0.406250
vt 0.500000 0.406250
vt 0.531250 0.406250
vt 0.562500 0.406250
vt 0.593750 0.406250
vt 0.625000 0.406250
vt 0.375000 0.437500
vt 0.406250 0.437500
vt 0.437500 0.437500
vt 0.468750 0.437500
vt 0.500000 0.437500
vt 0.531250 0.437500
vt 0.562500 0.437500
vt 0.593750 0.437500
vt 0.625000 0.437500
vt 0.375000 0.468750
vt 0.406250 0.468750
vt 0.437500 0.468750
vt 0.468750 0.468750
vt 0.500000 0.468750
vt 0.531250 0.468750
vt 0.562500 0.468750
vt 0.593750 0.468750
vt 0.625000 0.468750
vt 0.375000 0.500000
vt 0.406250 0.500000
vt 0.437500 0.500000
vt 0.468750 0.500000
vt 0.500000 0.500000
vt 0.531250 0.500000
vt 0.562500 0.500000
vt 0.593750 0.500000
vt 0.625000 0.500000
vt 0.375000 0.531250
vt 0.406250 0.531250
vt 0.437500 0.531250
vt 0.468750 0.531250
vt 0.500000 0.531250
vt 0.531250 0.531250
vt 0.562500 0.531250
vt 0.593750 0.531250
vt 0.625000 0.531250
vt 0.375000 0.562500
vt 0.406250 0.562500
vt 0.437500 0.562500
vt 0.468750 0.562500
vt 0.500000 0.562500
vt 0.531250 0.562500
vt 0.562500 0.562500
vt 0.593750 0.562500
vt 0.625000 0.562500
vt 0.375000 0.593750
vt 0.406250 0.593750
vt 0.437500 0.593750
vt 0.468750 0.593750
vt 0.500000 0.593750
vt 0.531250 0.593750
vt 0.562500 0.593750
vt 0.593750 0.593750
vt 0.625000 0.593750
vt 0.375000 0.625000
vt 0.406250 0.625000
vt 0.437500 0.625000
vt 0.468750 0.625000
vt 0.500000 0.625000
vt 0.531250 0.625000
vt 0.562500 0.625000
vt 0.593750 0.625000
vt 0.625000 0.625000
vt 0.375000 0.656250
vt 0.406250 0.656250
vt 0.437500 0.656250
vt 0.468750 0.656250
vt 0.500000 0.656250
vt 0.531250 0.656250
vt 0.562500 0.656250
vt 0.593750 0.656250
vt 0.625000 0.656250
vt 0.375000 0.687500
vt 0.406250 0.687500
vt 0.437500 0.687500
vt 0.468750 0.687500
vt 0.500000 0.687500
vt 0.531250 0.687500
vt 0.562500 0.687500
vt 0.593750 0.687500
vt 0.625000 0.687500
vt 0.375000 0.718750
vt 0.406250 0.718750
vt 0.437500 0.718750
vt 0.468750 0.718750
vt 0.500000 0.718750
vt 0.531250 0.718750
vt 0.562500 0.718750
vt 0.593750 0.718750
vt 0.625000 0.718750
vt 0.375000 0.750000
vt 0.406250 0.750000
vt 0.437500 0.750000
vt 0.468750 0.750000
vt 0.500000 0.750000
vt 0.531250 0.750000
vt 0.562500 0.750000
vt 0.593750 0.750000
vt 0.625000 0.750000
vt 0.375000 0.781250
vt 0.406250 0.781250
vt 0.437500 0.781250
vt 0.468750 0.781250
vt 0.500000 0.781250
vt 0.531250 0.781250
vt 0.562500 0.781250
vt 0.593750 0.781250
vt 0.625000 0.781250
vt 0.375000 0.812500
vt 0.406250 0.812500
vt 0.437500 0.812500
vt 0.468750 0.812500
vt 0.500000 0.812500
vt 0.531250 0.812500
vt 0.562500 0.812500
vt 0.593750 0.812500
vt 0.625000 0.812500
vt 0.375000 0.843750
vt 0.406250 0.843750
vt 0.437500 0.843750
vt 0.468750 0.843750
vt 0.500000 0.843750
vt 0.531250 0.843750
vt 0.562500 0.843750
vt 0.593750 0.843750
vt 0.625000 0.843750
vt 0.375000 0.875000
vt 0.406250 0.875000
vt 0.437500 0.875000
vt 0.468750 0.875000
vt 0.500000 0.875000
vt 0.531250 0.875000
vt 0.562500 0.875000
vt 0.593750 0.875000
vt 0.625000 0.875000
vt 0.375000 0.906250
vt 0.406250 0.906250
vt 0.437500 0.906250
vt 0.468750 0.906250
vt 0.500000 0.906250
vt 0.531250 0.906250
vt 0.562500 0.906250
vt 0.593750 0.906250
vt 0.625000 0.906250
vt 0.375000 0.937500
vt 0.406250 0.937500
vt 0.437500 0.937500
vt 0.468750 0.937500
vt 0.500000 0.937500
vt 0.531250 0.937500
vt 0.562500 0.937500
vt 0.593750 0.937500
vt 0.625000 0.937500
vt 0.375000 0.968750
vt 0.406250 0.968750
vt 0.437500 0.968750
vt 0.468750 0.968750
vt 0.500000 0.968750
vt 0.531250 0.968750
vt 0.562500 0.968750
vt 0.593750 0.968750
vt 0.625000 0.968750
vt 0.375000 1.000000
vt 0.406250 1.000000
vt 0.437500 1.000000
vt 0.468750 1.000000
vt 0.500000 1.000000
vt 0.531250 1.000000
vt 0.562500 1.000000
vt 0.593750 1.000000
vt 0.625000 1.000000
vt 0.875000 0.000000
vt 0.843750 0.000000
vt 0.812500 0.000000
vt 0.781250 0.000000
vt 0.750000 0.000000
vt 0.718750 0.000000
vt 0.687500 0.000000
vt 0.656250 0.000000
vt 0.875000 0.031250
vt 0.843750 0.031250
vt 0.812500 0.031250
vt 0.781250 0.031250
vt 0.750000 0.031250
vt 0.718750 0.031250
vt 0.687500 0.031250
vt 0.656250 0.031250
vt 0.875000 0.062500
vt 0.843750 0.062500
vt 0.812500 0.062500
vt 0.781250 0.062500
vt 0.750000 0.062500
vt 0.718750 0.062500
vt 0.687500 0.062500
vt 0.656250 0.062500
vt 0.875000 0.093750
vt 0.843750 0.093750
vt 0.812500 0.093750
vt 0.781250 0.093750
vt 0.750000 0.093750
vt 0.718750 0.093750
vt 0.687500 0.093750
vt 0.656250 0.093750
vt 0.875000 0.125000
vt 0.843750 0.125000
vt 0.812500 0.125000
vt 0.781250 0.125000
vt 0.750000 0.125000
vt 0.718750 0.125000
vt 0.687500 0.125000
vt 0.656250 0.125000
vt 0.875000 0.156250
vt 0.843750 0.156250
vt 0.812500 0.156250
vt 0.781250 0.156250
vt 0.750000 0.156250
vt 0.718750 0.156250
vt 0.687500 0.156250
vt 0.656250 0.156250
vt 0.875000 0.187500
vt 0.843750 0.187500
vt 0.812500 0.187500
vt 0.781250 0.187500
vt 0.750000 0.187500
vt 0.718750 0.187500
vt 0.687500 0.187500
vt 0.656250 0.187500
vt 0.875000 0.218750
vt 0.843750 0.218750
vt 0.812500 0.218750
vt 0.781250 0.218750
vt 0.750000 0.218750
vt 0.718750 0.218750
vt 0.687500 0.218750
vt 0.656250 0.218750
vt 0.875000 0.250000
vt 0.843750 0.250000
vt 0.812500 0.250000
vt 0.781250 0.250000
vt 0.750000 0.250000
vt 0.718750 0.250000
vt 0.687500 0.250000
vt 0.656250 0.250000
vt 0.125000 0.000000
vt 0.156250 0.000000
vt 0.187500 0.000000
vt 0.218750 0.000000
vt 0.250000 0.000000
vt 0.281250 0.000000
vt 0.312500 0.000000
vt 0.343750 0.000000
vt 0.125000 0.031250
vt 0.156250 0.031250
vt 0.187500 0.031250
vt 0.218750 0.031250
vt 0.250000 0.031250
vt 0.281250 0.031250
vt 0.312500 0.031250
vt 0.343750 0.031250
vt 0.125000 0.062500
vt 0.156250 0.062500
vt 0.187500 0.062500
vt 0.218750 0.062500
vt 0.250000 0.062500
vt 0.281250 0.062500
vt 0.312500 0.062500
vt 0.343750 0.062500
vt 0.125000 0.093750
vt 0.156250 0.093750
vt 0.187500 0.093750
vt 0.218750 0.093750
vt 0.250000 0.093750
vt 0.281250 0.093750
vt 0.312500 0.093750
vt 0.343750 0.093750
vt 0.125000 0.125000
vt 0.156250 0.125000
vt 0.187500 0.125000
vt 0.218750 0.125000
vt 0.250000 0.125000
vt 0.281250 0.125000
vt 0.312500 0.125000
vt 0.343750 0.125000
vt 0.125000 0.156250
vt 0.156250 0.156250
vt 0.187500 0.156250
vt 0.218750 0.156250
vt 0.250000 0.156250
vt 0.281250 0.156250
vt 0.312500 0.156250
vt 0.343750 0.156250
vt 0.125000 0.187500
vt 0.156250 0.187500
vt 0.187500 0.187500
vt 0.218750 0.187500
vt 0.250000 0.187500
vt 0.281250 0.187500
vt 0.312500 0.187500
vt 0.343750 0.187500
vt 0.125000 0.218750
vt 0.156250 0.218750
vt 0.187500 0.218750
vt 0.218750 0.218750
vt 0.250000 0.218750
vt 0.281250 0.218750
vt 0.312500 0.218750
vt 0.343750 0.218750
vt 0.125000 0.250000
vt 0.156250 0.250000
vt 0.187500 0.250000
vt 0.218750 0.250000
vt 0.250000 0.250000
vt 0.281250 0.250000
vt 0.312500 0.250000
vt 0.343750 0.250000
vt 0.375000 0.212500
vt 0.406250 0.212500
vt 0.437500 0.212500
vt 0.468750 0.212500
vt 0.500000 0.212500
vt 0.531250 0.212500
vt 0.562500 0.212500
vt 0.593750 0.212500
vt 0.625000 0.212500
vt 0.656250 0.212500
vt 0.687500 0.212500
vt 0.718750 0.212500
vt 0.750000 0.212500
vt 0.781250 0.212500
vt 0.812500 0.212500
vt 0.843750 0.212500
vt 0.625000 0.537500
vt 0.875000 0.212500
vt 0.593750 0.537500
vt 0.562500 0.537500
vt 0.531250 0.537500
vt 0.500000 0.537500
vt 0.468750 0.537500
vt 0.437500 0.537500
vt 0.406250 0.537500
vt 0.125000 0.212500
vt 0.375000 0.537500
vt 0.156250 0.212500
vt 0.187500 0.212500
vt 0.218750 0.212500
vt 0.250000 0.212500
vt 0.281250 0.212500
vt 0.312500 0.212500
vt 0.343750 0.212500
vt 0.375000 0.037500
vt 0.406250 0.037500
vt 0.437500 0.037500
vt 0.468750 0.037500
vt 0.500000 0.037500
vt 0.531250 0.037500
vt 0.562500 0.037500
vt 0.593750 0.037500
vt 0.625000 0.037500
vt 0.656250 0.037500
vt 0.687500 0.037500
vt 0.718750 0.037500
vt 0.750000 0.037500
vt 0.781250 0.037500
vt 0.812500 0.037500
vt 0.843750 0.037500
vt 0.625000 0.712500
vt 0.875000 0.037500
vt 0.593750 0.712500
vt 0.562500 0.712500
vt 0.531250 0.712500
vt 0.500000 0.712500
vt 0.468750 0.712500
vt 0.437500 0.712500
vt 0.406250 0.712500
vt 0.125000 0.037500
vt 0.375000 0.712500
vt 0.156250 0.037500
vt 0.187500 0.037500
vt 0.218750 0.037500
vt 0.250000 0.037500
vt 0.281250 0.037500
vt 0.312500 0.037500
vt 0.343750 0.037500
vt 0.437500 0.031250
vt 0.406250 0.031250
vt 0.468750 0.031250
vt 0.500000 0.031250
vt 0.531250 0.031250
vt 0.562500 0.031250
vt 0.593750 0.031250
vt 0.406250 0.037500
vt 0.406250 0.062500
vt 0.593750 0.062500
vt 0.593750 0.037500
vt 0.406250 0.093750
vt 0.593750 0.093750
vt 0.406250 0.125000
vt 0.593750 0.125000
vt 0.406250 0.156250
vt 0.593750 0.156250
vt 0.406250 0.187500
vt 0.593750 0.187500
vt 0.406250 0.212500
vt 0.406250 0.218750
vt 0.593750 0.218750
vt 0.593750 0.212500
vt 0.437500 0.218750
vt 0.468750 0.218750
vt 0.500000 0.218750
vt 0.531250 0.218750
vt 0.562500 0.218750
vt 0.437500 0.281250
vt 0.406250 0.281250
vt 0.468750 0.281250
vt 0.500000 0.281250
vt 0.531250 0.281250
vt 0.562500 0.281250
vt 0.593750 0.281250
vt 0.406250 0.312500
vt 0.593750 0.312500
vt 0.406250 0.343750
vt 0.593750 0.343750
vt 0.406250 0.375000
vt 0.593750 0.375000
vt 0.406250 0.406250
vt 0.593750 0.406250
vt 0.406250 0.437500
vt 0.593750 0.437500
vt 0.406250 0.468750
vt 0.593750 0.468750
vt 0.437500 0.468750
vt 0.468750 0.468750
vt 0.500000 0.468750
vt 0.531250 0.468750
vt 0.562500 0.468750
vt 0.437500 0.531250
vt 0.406250 0.531250
vt 0.468750 0.531250
vt 0.500000 0.531250
vt 0.531250 0.531250
vt 0.562500 0.531250
vt 0.593750 0.531250
vt 0.406250 0.537500
vt 0.593750 0.537500
vt 0.406250 0.562500
vt 0.406250 0.593750
vt 0.593750 0.593750
vt 0.593750 0.562500
vt 0.406250 0.625000
vt 0.593750 0.625000
vt 0.406250 0.656250
vt 0.593750 0.656250
vt 0.406250 0.687500
vt 0.593750 0.687500
vt 0.406250 0.712500
vt 0.593750 0.712500
vt 0.406250 0.718750
vt 0.437500 0.718750
vt 0.468750 0.718750
vt 0.500000 0.718750
vt 0.531250 0.718750
vt 0.562500 0.718750
vt 0.593750 0.718750
vt 0.437500 0.781250
vt 0.406250 0.781250
vt 0.468750 0.781250
vt 0.500000 0.781250
vt 0.531250 0.781250
vt 0.562500 0.781250
vt 0.593750 0.781250
vt 0.406250 0.812500
vt 0.593750 0.812500
vt 0.406250 0.843750
vt 0.593750 0.843750
vt 0.406250 0.875000
vt 0.593750 0.875000
vt 0.406250 0.906250
vt 0.593750 0.906250
vt 0.406250 0.937500
vt 0.593750 0.937500
vt 0.406250 0.968750
vt 0.593750 0.968750
vt 0.437500 0.968750
vt 0.468750 0.968750
vt 0.500000 0.968750
vt 0.531250 0.968750
vt 0.562500 0.968750
vt 0.843750 0.031250
vt 0.812500 0.031250
vt 0.781250 0.031250
vt 0.750000 0.031250
vt 0.718750 0.031250
vt 0.687500 0.031250
vt 0.656250 0.031250
vt 0.843750 0.062500
vt 0.843750 0.037500
vt 0.656250 0.037500
vt 0.656250 0.062500
vt 0.843750 0.093750
vt 0.656250 0.093750
vt 0.843750 0.125000
vt 0.656250 0.125000
vt 0.843750 0.156250
vt 0.656250 0.156250
vt 0.843750 0.187500
vt 0.656250 0.187500
vt 0.843750 0.218750
vt 0.843750 0.212500
vt 0.656250 0.212500
vt 0.656250 0.218750
vt 0.812500 0.218750
vt 0.781250 0.218750
vt 0.750000 0.218750
vt 0.718750 0.218750
vt 0.687500 0.218750
vt 0.187500 0.031250
vt 0.156250 0.031250
vt 0.218750 0.031250
vt 0.250000 0.031250
vt 0.281250 0.031250
vt 0.312500 0.031250
vt 0.343750 0.031250
vt 0.156250 0.037500
vt 0.156250 0.062500
vt 0.343750 0.062500
vt 0.343750 0.037500
vt 0.156250 0.093750
vt 0.343750 0.093750
vt 0.156250 0.125000
vt 0.343750 0.125000
vt 0.156250 0.156250
vt 0.343750 0.156250
vt 0.156250 0.187500
vt 0.343750 0.187500
vt 0.156250 0.212500
vt 0.156250 0.218750
vt 0.343750 0.218750
vt 0.343750 0.212500
vt 0.187500 0.218750
vt 0.218750 0.218750
vt 0.250000 0.218750
vt 0.281250 0.218750
vt 0.312500 0.218750
vn 0.000000 0.000000 1.000000
vn 0.000000 0.000000 1.000000
vn 0.000000 0.000000 1.000000
vn 0.000000 0.000000 1.000000
vn 0.000000 0.000000 1.000000
vn 0.000000 0.000000 1.000000
vn 0.000000 0.000000 1.000000
vn 0.000000 0.000000 1.000000
vn 0.000000 0.000000 1.000000
vn 0.000000 0.000000 1.000000
vn 0.000000 0.000000 1.000000
vn 0.000000 0.000000 1.000000
vn 0.000000 0.000000 1.000000
vn 0.000000 0.000000 1.000000
vn 0.000000 0.000000 1.000000
vn 0.000000 0.000000 1.000000
vn 0.000000 0.000000 1.000000
vn 0.000000 0.000000 1.000000
vn 0.000000 0.000000 1.000000
vn 0.000000 0.000000 1.000000
vn 0.000000 0.000000 1.000000
vn 0.000000 0.000000 1.000000
vn 0.000000 0.000000 1.000000
vn 0.000000 0.000000 1.000000
vn 0.000000 0.000000 1.000000
vn 0.000000 0.000000 1.000000
vn 0.000000 0.000000 1.000000
vn 0.000000 0.000000 1.000000
vn 0.000000 0.000000 1.000000
vn 0.000000 0.000000 1.000000
vn 0.000000 0.000000 1.000000
vn 0.000000 0.000000 1.000000
vn 0.000000 0.000000 1.000000
vn 0.000000 0.000000 1.000000
vn 0.000000 0.000000 1.000000
vn 0.000000 0.000000 1.000000
vn 0.000000 0.000000 1.000000
vn 0.000000 0.000000 1.000000
vn 0.000000 0.000000 1.000000
vn 0.000000 0.000000 1.000000
vn 0.000000 0.000000 1.000000
vn 0.000000 0.000000 1.000000
vn 0.000000 0.000000 1.000000
vn 0.000000 0.000000 1.000000
vn 0.000000 0.000000 1.000000
vn 0.000000 0.000000 1.000000
vn 0.000000 0.000000 1.000000
vn 0.000000 0.000000 1.000000
vn 0.000000 0.000000 1.000000
vn 0.000000 0.000000 1.000000
vn 0.000000 0.000000 1.000000
vn 0.000000 0.000000 1.000000
vn 0.000000 0.000000 1.000000
vn 0.000000 0.000000 1.000000
vn 0.000000 0.000000 1.000000
vn 0.000000 0.000000 1.000000
vn 0.000000 0.000000 1.000000
vn 0.000000 0.000000 1.000000
vn 0.000000 0.000000 1.000000
vn 0.000000 0.000000 1.000000
vn 0.000000 0.000000 1.000000
vn 0.000000 0.000000 1.000000
vn 0.000000 0.000000 1.000000
vn 0.000000 0.000000 1.000000
vn 0.000000 0.000000 1.000000
vn 0.000000 0.000000 1.000000
vn 0.000000 0.000000 1.000000
vn 0.000000 0.000000 1.000000
vn 0.000000 0.000000 1.000000
vn 0.000000 0.000000 1.000000
vn 0.000000 0.000000 1.000000
vn 0.000000 0.000000 1.000000
vn 0.000000 0.000000 1.000000
vn 0.000000 0.000000 1.000000
vn 0.000000 0.000000 1.000000
vn 0.000000 0.000000 1.000000
vn 0.000000 0.000000 1.000000
vn 0.000000 0.000000 1.000000
vn 0.000000 0.000000 1.000000
vn 0.000000 0.000000 1.000000
vn 0.000000 0.000000 1.000000
vn 0.000000 0.000000 1.000000
vn 0.000000 0.000000 1.000000
vn 0.000000 0.000000 1.000000
vn 0.000000 0.000000 1.000000
vn 0.000000 0.000000 1.000000
vn 0.000000 0.000000 1.000000
vn 0.000000 0.000000 1.000000
vn 0.000000 0.000000 1.000000
vn 0.000000 0.000000 1.000000
vn 0.000000 0.000000 1.000000
vn 0.000000 0.000000 1.000000
vn 0.000000 0.000000 1.000000
vn 0.000000 0.000000 1.000000
vn 0.000000 0.000000 1.000000
vn 0.000000 0.000000 1.000000
vn 0.000000 0.000000 1.000000
vn 0.000000 0.000000 1.000000
vn 0.000000 0.000000 1.000000
vn 0.000000 0.000000 1.000000
vn 0.000000 0.000000 1.000000
vn 0.000000 0.000000 1.000000
vn 0.000000 0.000000 1.000000
vn 0.000000 0.000000 1.000000
vn 0.000000 0.000000 1.000000
vn 0.000000 0.000000 1.000000
vn 0.000000 0.000000 1.000000
vn 0.000000 0.000000 1.000000
vn 0.000000 0.000000 1.000000
vn 0.000000 0.000000 1.000000
vn 0.000000 0.000000 1.000000
vn 0.000000 0.000000 1.000000
vn 0.000000 0.000000 1.000000
vn 0.000000 0.000000 1.000000
vn 0.000000 0.000000 1.000000
vn 0.000000 0.000000 1.000000
vn 0.000000 0.000000 1.000000
vn 0.000000 0.000000 1.000000
vn 0.000000 0.000000 1.000000
vn 0.000000 0.000000 1.000000
vn 0.000000 1.000000 0.000000
vn 0.000000 1.000000 0.000000
vn 0.000000 1.000000 0.000000
vn 0.000000 1.000000 0.000000
vn 0.000000 1.000000 0.000000
vn 0.000000 1.000000 0.000000
vn 0.000000 1.000000 0.000000
vn 0.000000 1.000000 0.000000
vn 0.000000 1.000000 0.000000
vn 0.000000 1.000000 0.000000
vn 0.000000 1.000000 0.000000
vn 0.000000 1.000000 0.000000
vn 0.000000 1.000000 0.000000
vn 0.000000 1.000000 0.000000
vn 0.000000 1.000000 0.000000
vn 0.000000 1.000000 0.000000
vn 0.000000 1.000000 0.000000
vn 0.000000 1.000000 0.000000
vn 0.000000 1.000000 0.000000
vn 0.000000 1.000000 0.000000
vn 0.000000 1.000000 0.000000
vn 0.000000 1.000000 0.000000
vn 0.000000 1.000000 0.000000
vn 0.000000 1.000000 0.000000
vn 0.000000 1.000000 0.000000
vn 0.000000 1.000000 0.000000
vn 0.000000 1.000000 0.000000
vn 0.000000 1.000000 0.000000
vn 0.000000 1.000000 0.000000
vn 0.000000 1.000000 0.000000
vn 0.000000 1.000000 0.000000
vn 0.000000 1.000000 0.000000
vn 0.000000 1.000000 0.000000
vn 0.000000 1.000000 0.000000
vn 0.000000 1.000000 0.000000
vn 0.000000 1.000000 0.000000
vn 0.000000 1.000000 0.000000
vn 0.000000 1.000000 0.000000
vn 0.000000 1.000000 0.000000
vn 0.000000 1.000000 0.000000
vn 0.000000 1.000000 0.000000
vn 0.000000 1.000000 0.000000
vn 0.000000 1.000000 0.000000
vn 0.000000 1.000000 0.000000
vn 0.000000 1.000000 0.000000
vn 0.000000 1.000000 0.000000
vn 0.000000 1.000000 0.000000
vn 0.000000 1.000000 0.000000
vn 0.000000 1.000000 0.000000
vn 0.000000 1.000000 0.000000
vn 0.000000 1.000000 0.000000
vn 0.000000 1.000000 0.000000
vn 0.000000 1.000000 0.000000
vn 0.000000 1.000000 0.000000
vn 0.000000 1.000000 0.000000
vn 0.000000 1.000000 0.000000
vn 0.000000 1.000000 0.000000
vn 0.000000 1.000000 0.000000
vn 0.000000 1.000000 0.000000
vn 0.000000 1.000000 0.000000
vn 0.000000 1.000000 0.000000
vn 0.000000 1.000000 0.000000
vn 0.000000 1.000000 0.000000
vn 0.000000 1.000000 0.000000
vn 0.000000 1.000000 0.000000
vn 0.000000 1.000000 0.000000
vn 0.000000 1.000000 0.000000
vn 0.000000 1.000000 0.000000
vn 0.000000 1.000000 0.000000
vn 0.000000 1.000000 0.000000
vn 0.000000 1.000000 0.000000
vn 0.000000 1.000000 0.000000
vn 0.000000 1.000000 0.000000
vn 0.000000 1.000000 0.000000
vn 0.000000 1.000000 0.000000
vn 0.000000 1.000000 0.000000
vn 0.000000 1.000000 0.000000
vn 0.000000 1.000000 0.000000
vn 0.000000 1.000000 0.000000
vn 0.000000 1.000000 0.000000
vn 0.000000 1.000000 0.000000
vn 0.000000 1.000000 0.000000
vn 0.000000 1.000000 0.000000
vn 0.000000 1.000000 0.000000
vn 0.000000 1.000000 0.000000
vn 0.000000 1.000000 0.000000
vn 0.000000 1.000000 0.000000
vn 0.000000 1.000000 0.000000
vn 0.000000 1.000000 0.000000
vn 0.000000 1.000000 0.000000
vn 0.000000 1.000000 0.000000
vn 0.000000 1.000000 0.000000
vn 0.000000 1.000000 0.000000
vn 0.000000 1.000000 0.000000
vn 0.000000 1.000000 0.000000
vn 0.000000 1.000000 0.000000
vn 0.000000 1.000000 0.000000
vn 0.000000 1.000000 0.000000
vn 0.000000 1.000000 0.000000
vn 0.000000 1.000000 0.000000
vn 0.000000 1.000000 0.000000
vn 0.000000 1.000000 0.000000
vn 0.000000 1.000000 0.000000
vn 0.000000 1.000000 0.000000
vn 0.000000 1.000000 0.000000
vn 0.000000 0.000000 -1.000000
vn 0.000000 0.000000 -1.000000
vn 0.000000 0.000000 -1.000000
vn 0.000000 0.000000 -1.000000
vn 0.000000 0.000000 -1.000000
vn 0.000000 0.000000 -1.000000
vn 0.000000 0.000000 -1.000000
vn 0.000000 0.000000 -1.000000
vn 0.000000 0.000000 -1.000000
vn 0.000000 0.000000 -1.000000
vn 0.000000 0.000000 -1.000000
vn 0.000000 0.000000 -1.000000
vn 0.000000 0.000000 -1.000000
vn 0.000000 0.000000 -1.000000
vn 0.000000 0.000000 -1.000000
vn 0.000000 0.000000 -1.000000
vn 0.000000 0.000000 -1.000000
vn 0.000000 0.000000 -1.000000
vn 0.000000 0.000000 -1.000000
vn 0.000000 0.000000 -1.000000
vn 0.000000 0.000000 -1.000000
vn 0.000000 0.000000 -1.000000
vn 0.000000 0.000000 -1.000000
vn 0.000000 0.000000 -1.000000
vn 0.000000 0.000000 -1.000000
vn 0.000000 0.000000 -1.000000
vn 0.000000 0.000000 -1.000000
vn 0.000000 0.000000 -1.000000
vn 0.000000 0.000000 -1.000000
vn 0.000000 0.000000 -1.000000
vn 0.000000 0.000000 -1.000000
vn 0.000000 0.000000 -1.000000
vn 0.000000 0.000000 -1.000000
vn 0.000000 0.000000 -1.000000
vn 0.000000 0.000000 -1.000000
vn 0.000000 0.000000 -1.000000
vn 0.000000 0.000000 -1.000000
vn 0.000000 0.000000 -1.000000
vn 0.000000 0.000000 -1.000000
vn 0.000000 0.000000 -1.000000
vn 0.000000 0.000000 -1.000000
vn 0.000000 0.000000 -1.000000
vn 0.000000 0.000000 -1.000000
vn 0.000000 0.000000 -1.000000
vn 0.000000 0.000000 -1.000000
vn 0.000000 0.000000 -1.000000
vn 0.000000 0.000000 -1.000000
vn 0.000000 0.000000 -1.000000
vn 0.000000 0.000000 -1.000000
vn 0.000000 0.000000 -1.000000
vn 0.000000 0.000000 -1.000000
vn 0.000000 0.000000 -1.000000
vn 0.000000 0.000000 -1.000000
vn 0.000000 0.000000 -1.000000
vn 0.000000 0.000000 -1.000000
vn 0.000000 0.000000 -1.000000
vn 0.000000 0.000000 -1.000000
vn 0.000000 0.000000 -1.000000
vn 0.000000 0.000000 -1.000000
vn 0.000000 0.000000 -1.000000
vn 0.000000 0.000000 -1.000000
vn 0.000000 0.000000 -1.000000
vn 0.000000 0.000000 -1.000000
vn 0.000000 0.000000 -1.000000
vn 0.000000 0.000000 -1.000000
vn 0.000000 0.000000 -1.000000
vn 0.000000 0.000000 -1.000000
vn 0.000000 0.000000 -1.000000
vn 0.000000 0.000000 -1.000000
vn 0.000000 0.000000 -1.000000
vn 0.000000 0.000000 -1.000000
vn 0.000000 0.000000 -1.000000
vn 0.000000 0.000000 -1.000000
vn 0.000000 0.000000 -1.000000
vn 0.000000 0.000000 -1.000000
vn 0.000000 0.000000 -1.000000
vn 0.000000 0.000000 -1.000000
vn 0.000000 0.000000 -1.000000
vn 0.000000 0.000000 -1.000000
vn 0.000000 0.000000 -1.000000
vn 0.000000 0.000000 -1.000000
vn 0.000000 0.000000 -1.000000
vn 0.000000 0.000000 -1.000000
vn 0.000000 0.000000 -1.000000
vn 0.000000 0.000000 -1.000000
vn 0.000000 0.000000 -1.000000
vn 0.000000 0.000000 -1.000000
vn 0.000000 0.000000 -1.000000
vn 0.000000 0.000000 -1.000000
vn 0.000000 0.000000 -1.000000
vn 0.000000 0.000000 -1.000000
vn 0.000000 0.000000 -1.000000
vn 0.000000 0.000000 -1.000000
vn 0.000000 0.000000 -1.000000
vn 0.000000 0.000000 -1.000000
vn 0.000000 0.000000 -1.000000
vn 0.000000 0.000000 -1.000000
vn 0.000000 0.000000 -1.000000
vn 0.000000 0.000000 -1.000000
vn 0.000000 0.000000 -1.000000
vn 0.000000 0.000000 -1.000000
vn 0.000000 0.000000 -1.000000
vn 0.000000 0.000000 -1.000000
vn 0.000000 0.000000 -1.000000
vn 0.000000 0.000000 -1.000000
vn 0.000000 0.000000 -1.000000
vn 0.000000 0.000000 -1.000000
vn 0.000000 0.000000 -1.000000
vn 0.000000 0.000000 -1.000000
vn 0.000000 0.000000 -1.000000
vn 0.000000 0.000000 -1.000000
vn 0.000000 0.000000 -1.000000
vn 0.000000 0.000000 -1.000000
vn 0.000000 0.000000 -1.000000
vn 0.000000 0.000000 -1.000000
vn 0.000000 0.000000 -1.000000
vn 0.000000 0.000000 -1.000000
vn 0.000000 0.000000 -1.000000
vn 0.000000 0.000000 -1.000000
vn 0.000000 0.000000 -1.000000
vn 0.000000 -1.000000 0.000000
vn 0.000000 -1.000000 0.000000
vn 0.000000 -1.000000 0.000000
vn 0.000000 -1.000000 0.000000
vn 0.000000 -1.000000 0.000000
vn 0.000000 -1.000000 0.000000
vn 0.000000 -1.000000 0.000000
vn 0.000000 -1.000000 0.000000
vn 0.000000 -1.000000 0.000000
vn 0.000000 -1.000000 0.000000
vn 0.000000 -1.000000 0.000000
vn 0.000000 -1.000000 0.000000
vn 0.000000 -1.000000 0.000000
vn 0.000000 -1.000000 0.000000
vn 0.000000 -1.000000 0.000000
vn 0.000000 -1.000000 0.000000
vn 0.000000 -1.000000 0.000000
vn 0.000000 -1.000000 0.000000
vn 0.000000 -1.000000 0.000000
vn 0.000000 -1.000000 0.000000
vn 0.000000 -1.000000 0.000000
vn 0.000000 -1.000000 0.000000
vn 0.000000 -1.000000 0.000000
vn 0.000000 -1.000000 0.000000
vn 0.000000 -1.000000 0.000000
vn 0.000000 -1.000000 0.000000
vn 0.000000 -1.000000 0.000000
vn 0.000000 -1.000000 0.000000
vn 0.000000 -1.000000 0.000000
vn 0.000000 -1.000000 0.000000
vn 0.000000 -1.000000 0.000000
vn 0.000000 -1.000000 0.000000
vn 0.000000 -1.000000 0.000000
vn 0.000000 -1.000000 0.000000
vn 0.000000 -1.000000 0.000000
vn 0.000000 -1.000000 0.000000
vn 0.000000 -1.000000 0.000000
vn 0.000000 -1.000000 0.000000
vn 0.000000 -1.000000 0.000000
vn 0.000000 -1.000000 0.000000
vn 0.000000 -1.000000 0.000000
vn 0.000000 -1.000000 0.000000
vn 0.000000 -1.000000 0.000000
vn 0.000000 -1.000000 0.000000
vn 0.000000 -1.000000 0.000000
vn 0.000000 -1.000000 0.000000
vn 0.000000 -1.000000 0.000000
vn 0.000000 -1.000000 0.000000
vn 0.000000 -1.000000 0.000000
vn 0.000000 -1.000000 0.000000
vn 0.000000 -1.000000 0.000000
vn 0.000000 -1.000000 0.000000
vn 0.000000 -1.000000 0.000000
vn 0.000000 -1.000000 0.000000
vn 0.000000 -1.000000 0.000000
vn 0.000000 -1.000000 0.000000
vn 0.000000 -1.000000 0.000000
vn 0.000000 -1.000000 0.000000
vn 0.000000 -1.000000 0.000000
vn 0.000000 -1.000000 0.000000
vn 0.000000 -1.000000 0.000000
vn 0.000000 -1.000000 0.000000
vn 0.000000 -1.000000 0.000000
vn 0.000000 -1.000000 0.000000
vn 0.000000 -1.000000 0.000000
vn 0.000000 -1.000000 0.000000
vn 0.000000 -1.000000 0.000000
vn 0.000000 -1.000000 0.000000
vn 0.000000 -1.000000 0.000000
vn 0.000000 -1.000000 0.000000
vn 0.000000 -1.000000 0.000000
vn 0.000000 -1.000000 0.000000
vn 0.000000 -1.000000 0.000000
vn 0.000000 -1.000000 0.000000
vn 0.000000 -1.000000 0.000000
vn 0.000000 -1.000000 0.000000
vn 0.000000 -1.000000 0.000000
vn 0.000000 -1.000000 0.000000
vn 0.000000 -1.000000 0.000000
vn 0.000000 -1.000000 0.000000
vn 0.000000 -1.000000 0.000000
vn 0.000000 -1.000000 0.000000
vn 0.000000 -1.000000 0.000000
vn 0.000000 -1.000000 0.000000
vn 0.000000 -1.000000 0.000000
vn 0.000000 -1.000000 0.000000
vn 0.000000 -1.000000 0.000000
vn 0.000000 -1.000000 0.000000
vn 0.000000 -1.000000 0.000000
vn 0.000000 -1.000000 0.000000
vn 0.000000 -1.000000 0.000000
vn 0.000000 -1.000000 0.000000
vn 0.000000 -1.000000 0.000000
vn 0.000000 -1.000000 0.000000
vn 0.000000 -1.000000 0.000000
vn 0.000000 -1.000000 0.000000
vn 0.000000 -1.000000 0.000000
vn 0.000000 -1.000000 0.000000
vn 0.000000 -1.000000 0.000000
vn 0.000000 -1.000000 0.000000
vn 0.000000 -1.000000 0.000000
vn 0.000000 -1.000000 0.000000
vn 0.000000 -1.000000 0.000000
vn 0.000000 -1.000000 0.000000
vn 0.000000 -1.000000 0.000000
vn 1.000000 0.000000 0.000000
vn 1.000000 0.000000 0.000000
vn 1.000000 0.000000 0.000000
vn 1.000000 0.000000 0.000000
vn 1.000000 0.000000 0.000000
vn 1.000000 0.000000 0.000000
vn 1.000000 0.000000 0.000000
vn 1.000000 0.000000 0.000000
vn 1.000000 0.000000 0.000000
vn 1.000000 0.000000 0.000000
vn 1.000000 0.000000 0.000000
vn 1.000000 0.000000 0.000000
vn 1.000000 0.000000 0.000000
vn 1.000000 0.000000 0.000000
vn 1.000000 0.000000 0.000000
vn 1.000000 0.000000 0.000000
vn 1.000000 0.000000 0.000000
vn 1.000000 0.000000 0.000000
vn 1.000000 0.000000 0.000000
vn 1.000000 0.000000 0.000000
vn 1.000000 0.000000 0.000000
vn 1.000000 0.000000 0.000000
vn 1.000000 0.000000 0.000000
vn 1.000000 0.000000 0.000000
vn 1.000000 0.000000 0.000000
vn 1.000000 0.000000 0.000000
vn 1.000000 0.000000 0.000000
vn 1.000000 0.000000 0.000000
vn 1.000000 0.000000 0.000000
vn 1.000000 0.000000 0.000000
vn 1.000000 0.000000 0.000000
vn 1.000000 0.000000 0.000000
vn 1.000000 0.000000 0.000000
vn 1.000000 0.000000 0.000000
vn 1.000000 0.000000 0.000000
vn 1.000000 0.000000 0.000000
vn 1.000000 0.000000 0.000000
vn 1.000000 0.000000 0.000000
vn 1.000000 0.000000 0.000000
vn 1.000000 0.000000 0.000000
vn 1.000000 0.000000 0.000000
vn 1.000000 0.000000 0.000000
vn 1.000000 0.000000 0.000000
vn 1.000000 0.000000 0.000000
vn 1.000000 0.000000 0.000000
vn 1.000000 0.000000 0.000000
vn 1.000000 0.000000 0.000000
vn 1.000000 0.000000 0.000000
vn 1.000000 0.000000 0.000000
vn 1.000000 0.000000 0.000000
vn 1.000000 0.000000 0.000000
vn 1.000000 0.000000 0.000000
vn 1.000000 0.000000 0.000000
vn 1.000000 0.000000 0.000000
vn 1.000000 0.000000 0.000000
vn 1.000000 0.000000 0.000000
vn 1.000000 0.000000 0.000000
vn 1.000000 0.000000 0.000000
vn 1.000000 0.000000 0.000000
vn 1.000000 0.000000 0.000000
vn 1.000000 0.000000 0.000000
vn 1.000000 0.000000 0.000000
vn 1.000000 0.000000 0.000000
vn 1.000000 0.000000 0.000000
vn 1.000000 0.000000 0.000000
vn 1.000000 0.000000 0.000000
vn 1.000000 0.000000 0.000000
vn 1.000000 0.000000 0.000000
vn 1.000000 0.000000 0.000000
vn 1.000000 0.000000 0.000000
vn 1.000000 0.000000 0.000000
vn 1.000000 0.000000 0.000000
vn 1.000000 0.000000 0.000000
vn 1.000000 0.000000 0.000000
vn 1.000000 0.000000 0.000000
vn 1.000000 0.000000 0.000000
vn 1.000000 0.000000 0.000000
vn 1.000000 0.000000 0.000000
vn 1.000000 0.000000 0.000000
vn 1.000000 0.000000 0.000000
vn 1.000000 0.000000 0.000000
vn 1.000000 0.000000 0.000000
vn 1.000000 0.000000 0.000000
vn 1.000000 0.000000 0.000000
vn 1.000000 0.000000 0.000000
vn 1.000000 0.000000 0.000000
vn 1.000000 0.000000 0.000000
vn 1.000000 0.000000 0.000000
vn 1.000000 0.000000 0.000000
vn 1.000000 0.000000 0.000000
vn 1.000000 0.000000 0.000000
vn 1.000000 0.000000 0.000000
vn 1.000000 0.000000 0.000000
vn 1.000000 0.000000 0.000000
vn 1.000000 0.000000 0.000000
vn 1.000000 0.000000 0.000000
vn 1.000000 0.000000 0.000000
vn 1.000000 0.000000 0.000000
vn 1.000000 0.000000 0.000000
vn 1.000000 0.000000 0.000000
vn 1.000000 0.000000 0.000000
vn 1.000000 0.000000 0.000000
vn 1.000000 0.000000 0.000000
vn 1.000000 0.000000 0.000000
vn 1.000000 0.000000 0.000000
vn 1.000000 0.000000 0.000000
vn 1.000000 0.000000 0.000000
vn 1.000000 0.000000 0.000000
vn 1.000000 0.000000 0.000000
vn 1.000000 0.000000 0.000000
vn 1.000000 0.000000 0.000000
vn 1.000000 0.000000 0.000000
vn 1.000000 0.000000 0.000000
vn 1.000000 0.000000 0.000000
vn 1.000000 0.000000 0.000000
vn 1.000000 0.000000 0.000000
vn 1.000000 0.000000 0.000000
vn 1.000000 0.000000 0.000000
vn 1.000000 0.000000 0.000000
vn 1.000000 0.000000 0.000000
vn -1.000000 0.000000 0.000000
vn -1.000000 0.000000 0.000000
vn -1.000000 0.000000 0.000000
vn -1.000000 0.000000 0.000000
vn -1.000000 0.000000 0.000000
vn -1.000000 0.000000 0.000000
vn -1.000000 0.000000 0.000000
vn -1.000000 0.000000 0.000000
vn -1.000000 0.000000 0.000000
vn -1.000000 0.000000 0.000000
vn -1.000000 0.000000 0.000000
vn -1.000000 0.000000 0.000000
vn -1.000000 0.000000 0.000000
vn -1.000000 0.000000 0.000000
vn -1.000000 0.000000 0.000000
vn -1.000000 0.000000 0.000000
vn -1.000000 0.000000 0.000000
vn -1.000000 0.000000 0.000000
vn -1.000000 0.000000 0.000000
vn -1.000000 0.000000 0.000000
vn -1.000000 0.000000 0.000000
vn -1.000000 0.000000 0.000000
vn -1.000000 0.000000 0.000000
vn -1.000000 0.000000 0.000000
vn -1.000000 0.000000 0.000000
vn -1.000000 0.000000 0.000000
vn -1.000000 0.000000 0.000000
vn -1.000000 0.000000 0.000000
vn -1.000000 0.000000 0.000000
vn -1.000000 0.000000 0.000000
vn -1.000000 0.000000 0.000000
vn -1.000000 0.000000 0.000000
vn -1.000000 0.000000 0.000000
vn -1.000000 0.000000 0.000000
vn -1.000000 0.000000 0.000000
vn -1.000000 0.000000 0.000000
vn -1.000000 0.000000 0.000000
vn -1.000000 0.000000 0.000000
vn -1.000000 0.000000 0.000000
vn -1.000000 0.000000 0.000000
vn -1.000000 0.000000 0.000000
vn -1.000000 0.000000 0.000000
vn -1.000000 0.000000 0.000000
vn -1.000000 0.000000 0.000000
vn -1.000000 0.000000 0.000000
vn -1.000000 0.000000 0.000000
vn -1.000000 0.000000 0.000000
vn -1.000000 0.000000 0.000000
vn -1.000000 0.000000 0.000000
vn -1.000000 0.000000 0.000000
vn -1.000000 0.000000 0.000000
vn -1.000000 0.000000 0.000000
vn -1.000000 0.000000 0.000000
vn -1.000000 0.000000 0.000000
vn -1.000000 0.000000 0.000000
vn -1.000000 0.000000 0.000000
vn -1.000000 0.000000 0.000000
vn -1.000000 0.000000 0.000000
vn -1.000000 0.000000 0.000000
vn -1.000000 0.000000 0.000000
vn -1.000000 0.000000 0.000000
vn -1.000000 0.000000 0.000000
vn -1.000000 0.000000 0.000000
vn -1.000000 0.000000 0.000000
vn -1.000000 0.000000 0.000000
vn -1.000000 0.000000 0.000000
vn -1.000000 0.000000 0.000000
vn -1.000000 0.000000 0.000000
vn -1.000000 0.000000 0.000000
vn -1.000000 0.000000 0.000000
vn -1.000000 0.000000 0.000000
vn -1.000000 0.000000 0.000000
vn -1.000000 0.000000 0.000000
vn -1.000000 0.000000 0.000000
vn -1.000000 0.000000 0.000000
vn -1.000000 0.000000 0.000000
vn -1.000000 0.000000 0.000000
vn -1.000000 0.000000 0.000000
vn -1.000000 0.000000 0.000000
vn -1.000000 0.000000 0.000000
vn -1.000000 0.000000 0.000000
vn -1.000000 0.000000 0.000000
vn -1.000000 0.000000 0.000000
vn -1.000000 0.000000 0.000000
vn -1.000000 0.000000 0.000000
vn -1.000000 0.000000 0.000000
vn -1.000000 0.000000 0.000000
vn -1.000000 0.000000 0.000000
vn -1.000000 0.000000 0.000000
vn -1.000000 0.000000 0.000000
vn -1.000000 0.000000 0.000000
vn -1.000000 0.000000 0.000000
vn -1.000000 0.000000 0.000000
vn -1.000000 0.000000 0.000000
vn -1.000000 0.000000 0.000000
vn -1.000000 0.000000 0.000000
vn -1.000000 0.000000 0.000000
vn -1.000000 0.000000 0.000000
vn -1.000000 0.000000 0.000000
vn -1.000000 0.000000 0.000000
vn -1.000000 0.000000 0.000000
vn -1.000000 0.000000 0.000000
vn -1.000000 0.000000 0.000000
vn -1.000000 0.000000 0.000000
vn -1.000000 0.000000 0.000000
vn -1.000000 0.000000 0.000000
vn -1.000000 0.000000 0.000000
vn -1.000000 0.000000 0.000000
vn -1.000000 0.000000 0.000000
vn -1.000000 0.000000 0.000000
vn -1.000000 0.000000 0.000000
vn -1.000000 0.000000 0.000000
vn -1.000000 0.000000 0.000000
vn -1.000000 0.000000 0.000000
vn -1.000000 0.000000 0.000000
vn -1.000000 0.000000 0.000000
vn -1.000000 0.000000 0.000000
vn -1.000000 0.000000 0.000000
vn -1.000000 0.000000 0.000000
vn -1.000000 0.000000 0.000000
vn 0.000000 0.000000 1.000000
vn 0.000000 0.000000 1.000000
vn 0.000000 0.000000 1.000000
vn 0.000000 0.000000 1.000000
vn 0.000000 0.000000 1.000000
vn 0.000000 0.000000 1.000000
vn 0.000000 0.000000 1.000000
vn 1.000000 0.000000 0.000000
vn 1.000000 0.000000 0.000000
vn 1.000000 0.000000 0.000000
vn 1.000000 0.000000 0.000000
vn 1.000000 0.000000 0.000000
vn 1.000000 0.000000 0.000000
vn 1.000000 0.000000 0.000000
vn 0.000000 0.000000 -1.000000
vn 0.000000 0.000000 -1.000000
vn 0.000000 0.000000 -1.000000
vn 0.000000 0.000000 -1.000000
vn 0.000000 0.000000 -1.000000
vn 0.000000 0.000000 -1.000000
vn 0.000000 0.000000 -1.000000
vn -1.000000 0.000000 0.000000
vn -1.000000 0.000000 0.000000
vn -1.000000 0.000000 0.000000
vn -1.000000 0.000000 0.000000
vn -1.000000 0.000000 0.000000
vn -1.000000 0.000000 0.000000
vn -1.000000 0.000000 0.000000
vn 0.000000 0.799999 0.600001
vn 0.000000 0.799999 0.600002
vn 0.000000 0.799999 0.600002
vn 0.000000 0.799999 0.600002
vn 0.000000 0.799999 0.600001
vn 0.000000 0.799999 0.600001
vn 0.000000 0.799999 0.600002
vn 0.000000 0.799999 0.600002
vn 0.000000 0.799999 0.600002
vn 0.000000 0.799999 0.600002
vn 0.000000 0.799999 0.600001
vn 0.000000 0.799999 0.600002
vn 0.000000 0.799999 0.600002
vn 0.000000 0.799999 0.600002
vn 0.800001 0.000000 0.599998
vn 0.799999 0.000000 0.600001
vn 0.800001 0.000000 0.599999
vn 0.799999 0.000000 0.600001
vn -0.799998 0.000000 0.600003
vn -0.800000 0.000000 0.600000
vn -0.799999 0.000000 0.600002
vn -0.799999 0.000000 0.600001
vn 0.799999 0.000000 0.600002
vn 0.799998 0.000000 0.600002
vn -0.799997 0.000000 0.600004
vn -0.799997 0.000000 0.600004
vn 0.799998 0.000000 0.600002
vn 0.799998 0.000000 0.600002
vn -0.799998 0.000000 0.600002
vn -0.799998 0.000000 0.600002
vn 0.799998 0.000000 0.600003
vn 0.799997 0.000000 0.600004
vn -0.799999 0.000000 0.600001
vn -0.799999 0.000000 0.600002
vn 0.799997 0.000000 0.600004
vn 0.799999 0.000000 0.600002
vn -0.800000 0.000000 0.600000
vn -0.800001 0.000000 0.599998
vn 0.799999 0.000000 0.600001
vn 0.799994 0.000000 0.600008
vn 0.799994 0.000000 0.600008
vn 0.799998 0.000000 0.600002
vn -0.799995 0.000000 0.600007
vn -0.800002 0.000000 0.599998
vn -0.800000 0.000000 0.600000
vn -0.799995 0.000000 0.600007
vn 0.000000 -0.799999 0.600002
vn 0.000000 -0.799999 0.600002
vn 0.000000 -0.799999 0.600002
vn 0.000000 -0.799999 0.600002
vn 0.000000 -0.799999 0.600001
vn 0.000000 -0.799999 0.600002
vn 0.000000 -0.799999 0.600002
vn 0.000000 -0.799999 0.600002
vn 0.000000 -0.799999 0.600002
vn 0.000000 -0.799999 0.600002
vn 0.000000 -0.799999 0.600001
vn 0.000000 -0.799999 0.600002
vn 0.000000 -0.799999 0.600002
vn 0.000000 -0.799999 0.600002
vn 0.000000 0.600000 -0.800000
vn 0.000000 0.600000 -0.800000
vn 0.000000 0.600000 -0.800000
vn 0.000000 0.600000 -0.800000
vn 0.000000 0.600000 -0.800000
vn 0.000000 0.600000 -0.800000
vn 0.000000 0.600000 -0.800000
vn 0.000000 0.600000 -0.800000
vn 0.000000 0.600000 -0.800000
vn 0.000000 0.600000 -0.800000
vn 0.000000 0.600000 -0.800000
vn 0.000000 0.600000 -0.800000
vn 0.000000 0.600000 -0.800000
vn 0.000000 0.600000 -0.800000
vn 0.800000 0.600000 0.000000
vn 0.799999 0.600001 0.000000
vn 0.800000 0.600000 0.000000
vn 0.800000 0.600000 0.000000
vn -0.800000 0.600001 0.000000
vn -0.800001 0.599999 0.000000
vn -0.800001 0.599999 0.000000
vn -0.800000 0.600000 0.000000
vn 0.799999 0.600001 0.000000
vn 0.799999 0.600001 0.000000
vn -0.799999 0.600001 0.000000
vn -0.799999 0.600001 0.000000
vn 0.800000 0.600000 0.000000
vn 0.800000 0.600000 0.000000
vn -0.800000 0.600000 0.000000
vn -0.800000 0.600000 0.000000
vn 0.799999 0.600001 0.000000
vn 0.799999 0.600001 0.000000
vn -0.800000 0.600000 0.000000
vn -0.800000 0.600001 0.000000
vn 0.799999 0.600001 0.000000
vn 0.800000 0.600000 0.000000
vn -0.799999 0.600001 0.000000
vn -0.800000 0.600000 0.000000
vn 0.800000 0.600000 0.000000
vn 0.800000 0.600000 0.000000
vn -0.800001 0.599999 0.000000
vn -0.800001 0.599999 0.000000
vn 0.000000 0.600000 0.800000
vn 0.000000 0.600000 0.800000
vn 0.000000 0.600000 0.800000
vn 0.000000 0.600000 0.800000
vn 0.000000 0.600000 0.800000
vn 0.000000 0.600000 0.800000
vn 0.000000 0.600000 0.800000
vn 0.000000 0.600000 0.800000
vn 0.000000 0.600000 0.800000
vn 0.000000 0.600000 0.800000
vn 0.000000 0.600000 0.800000
vn 0.000000 0.600000 0.800000
vn 0.000000 0.600000 0.800000
vn 0.000000 0.600000 0.800000
vn 0.000000 -0.799999 -0.600001
vn 0.000000 -0.799999 -0.600002
vn 0.000000 -0.799999 -0.600002
vn 0.000000 -0.799999 -0.600002
vn 0.000000 -0.799999 -0.600001
vn 0.000000 -0.799999 -0.600001
vn 0.000000 -0.799999 -0.600002
vn 0.000000 -0.799999 -0.600002
vn 0.000000 -0.799999 -0.600002
vn 0.000000 -0.799999 -0.600002
vn 0.000000 -0.799999 -0.600001
vn 0.000000 -0.799999 -0.600002
vn 0.000000 -0.799999 -0.600002
vn 0.000000 -0.799999 -0.600002
vn 0.800002 0.000000 -0.599997
vn 0.799999 0.000000 -0.600002
vn 0.799999 0.000000 -0.600001
vn 0.800002 0.000000 -0.599997
vn -0.799999 0.000000 -0.600001
vn -0.800003 0.000000 -0.599997
vn -0.800003 0.000000 -0.599997
vn -0.800000 0.000000 -0.600000
vn 0.799998 0.000000 -0.600003
vn 0.799998 0.000000 -0.600003
vn 0.799998 0.000000 -0.600003
vn 0.799998 0.000000 -0.600003
vn -0.799997 0.000000 -0.600003
vn -0.799998 0.000000 -0.600003
vn -0.799998 0.000000 -0.600002
vn -0.799998 0.000000 -0.600003
vn 0.799998 0.000000 -0.600003
vn 0.799998 0.000000 -0.600003
vn -0.799998 0.000000 -0.600003
vn -0.799998 0.000000 -0.600003
vn 0.799998 0.000000 -0.600003
vn 0.799998 0.000000 -0.600003
vn -0.799998 0.000000 -0.600002
vn -0.799998 0.000000 -0.600002
vn 0.799998 0.000000 -0.600003
vn 0.799998 0.000000 -0.600003
vn -0.799998 0.000000 -0.600003
vn -0.799998 0.000000 -0.600002
vn 0.799999 0.000000 -0.600002
vn 0.799999 0.000000 -0.600001
vn -0.799999 0.000000 -0.600001
vn -0.800000 0.000000 -0.600000
vn 0.000000 0.799999 -0.600002
vn 0.000000 0.799999 -0.600002
vn 0.000000 0.799999 -0.600002
vn 0.000000 0.799999 -0.600002
vn 0.000000 0.799999 -0.600001
vn 0.000000 0.799999 -0.600002
vn 0.000000 0.799999 -0.600002
vn 0.000000 0.799999 -0.600002
vn 0.000000 0.799999 -0.600002
vn 0.000000 0.799999 -0.600002
vn 0.000000 0.799999 -0.600001
vn 0.000000 0.799999 -0.600002
vn 0.000000 0.799999 -0.600002
vn 0.000000 0.799999 -0.600002
vn 0.000000 -0.600000 0.800000
vn 0.000000 -0.600000 0.800000
vn 0.000000 -0.600000 0.800000
vn 0.000000 -0.600000 0.800000
vn 0.000000 -0.600000 0.800000
vn 0.000000 -0.600000 0.800000
vn 0.000000 -0.600000 0.800000
vn 0.000000 -0.600000 0.800000
vn 0.000000 -0.600000 0.800000
vn 0.000000 -0.600000 0.800000
vn 0.000000 -0.600000 0.800000
vn 0.000000 -0.600000 0.800000
vn 0.000000 -0.600000 0.800000
vn 0.000000 -0.600000 0.800000
vn 0.800000 -0.600000 0.000000
vn 0.799999 -0.600001 0.000000
vn 0.800000 -0.600000 0.000000
vn 0.800000 -0.600000 0.000000
vn -0.800000 -0.600001 0.000000
vn -0.800001 -0.599999 0.000000
vn -0.800001 -0.599999 0.000000
vn -0.800000 -0.600000 0.000000
vn 0.800000 -0.600001 0.000000
vn 0.799999 -0.600001 0.000000
vn -0.800000 -0.600000 0.000000
vn -0.800000 -0.600001 0.000000
vn 0.800000 -0.600000 0.000000
vn 0.800000 -0.600000 0.000000
vn -0.800000 -0.600000 0.000000
vn -0.800000 -0.600000 0.000000
vn 0.799999 -0.600001 0.000000
vn 0.799999 -0.600001 0.000000
vn -0.799999 -0.600001 0.000000
vn -0.799999 -0.600001 0.000000
vn 0.799999 -0.600001 0.000000
vn 0.800000 -0.600000 0.000000
vn -0.799999 -0.600001 0.000000
vn -0.800000 -0.600000 0.000000
vn 0.800000 -0.600000 0.000000
vn 0.800000 -0.600000 0.000000
vn -0.800001 -0.599999 0.000000
vn -0.800001 -0.599999 0.000000
vn 0.000000 -0.600000 -0.800000
vn 0.000000 -0.600000 -0.800000
vn 0.000000 -0.600000 -0.800000
vn 0.000000 -0.600000 -0.800000
vn 0.000000 -0.600000 -0.800000
vn 0.000000 -0.600000 -0.800000
vn 0.000000 -0.600000 -0.800000
vn 0.000000 -0.600000 -0.800000
vn 0.000000 -0.600000 -0.800000
vn 0.000000 -0.600000 -0.800000
vn 0.000000 -0.600000 -0.800000
vn 0.000000 -0.600000 -0.800000
vn 0.000000 -0.600000 -0.800000
vn 0.000000 -0.600000 -0.800000
vn 0.600003 0.799998 0.000000
vn 0.600001 0.799999 0.000000
vn 0.600002 0.799998 0.000000
vn 0.600003 0.799998 0.000000
vn 0.600002 0.799999 0.000000
vn 0.600001 0.799999 0.000000
vn 0.600003 0.799998 0.000000
vn 0.600003 0.799998 0.000000
vn 0.600001 0.799999 0.000000
vn 0.600001 0.799999 0.000000
vn 0.600001 0.799999 0.000000
vn 0.600002 0.799999 0.000000
vn 0.600003 0.799998 0.000000
vn 0.600003 0.799998 0.000000
vn 0.599998 0.000000 0.800001
vn 0.599996 0.000000 0.800003
vn 0.599993 0.000000 0.800005
vn 0.599998 0.000000 0.800002
vn 0.600003 0.000000 -0.799998
vn 0.600003 0.000000 -0.799998
vn 0.600002 0.000000 -0.799999
vn 0.600005 0.000000 -0.799996
vn 0.600000 0.000000 0.800000
vn 0.600000 0.000000 0.800000
vn 0.600002 0.000000 -0.799999
vn 0.600002 0.000000 -0.799999
vn 0.600000 0.000000 0.800000
vn 0.600000 0.000000 0.800000
vn 0.600001 0.000000 -0.799999
vn 0.600001 0.000000 -0.799999
vn 0.600000 0.000000 0.800000
vn 0.600001 0.000000 0.800000
vn 0.600001 0.000000 -0.800000
vn 0.600001 0.000000 -0.800000
vn 0.600001 0.000000 0.799999
vn 0.599999 0.000000 0.800000
vn 0.600001 0.000000 -0.799999
vn 0.600001 0.000000 -0.799999
vn 0.599998 0.000000 0.800001
vn 0.599998 0.000000 0.800002
vn 0.599998 0.000000 0.800001
vn 0.599998 0.000000 0.800001
vn 0.600001 0.000000 -0.799999
vn 0.599998 0.000000 -0.800001
vn 0.599998 0.000000 -0.800001
vn 0.600000 0.000000 -0.800000
vn 0.600001 -0.799999 0.000000
vn 0.600003 -0.799998 0.000000
vn 0.600003 -0.799998 0.000000
vn 0.600002 -0.799999 0.000000
vn 0.600001 -0.799999 0.000000
vn 0.600001 -0.799999 0.000000
vn 0.600003 -0.799998 0.000000
vn 0.600003 -0.799998 0.000000
vn 0.600002 -0.799999 0.000000
vn 0.600001 -0.799999 0.000000
vn 0.600001 -0.799999 0.000000
vn 0.600002 -0.799998 0.000000
vn 0.600003 -0.799998 0.000000
vn 0.600003 -0.799998 0.000000
vn -0.599999 0.800001 0.000000
vn -0.600000 0.800000 0.000000
vn -0.600000 0.800000 0.000000
vn -0.599999 0.800001 0.000000
vn -0.599999 0.800001 0.000000
vn -0.599999 0.800001 0.000000
vn -0.600000 0.800000 0.000000
vn -0.600000 0.800000 0.000000
vn -0.599999 0.800001 0.000000
vn -0.599999 0.800001 0.000000
vn -0.599999 0.800001 0.000000
vn -0.599999 0.800001 0.000000
vn -0.600000 0.800000 0.000000
vn -0.600000 0.800000 0.000000
vn -0.599996 0.000000 0.800003
vn -0.599999 0.000000 0.800001
vn -0.599997 0.000000 0.800002
vn -0.599996 0.000000 0.800003
vn -0.599999 0.000000 -0.800001
vn -0.599999 0.000000 -0.800001
vn -0.599998 0.000000 -0.800001
vn -0.599999 0.000000 -0.800001
vn -0.599998 0.000000 0.800002
vn -0.599998 0.000000 0.800001
vn -0.600000 0.000000 -0.800000
vn -0.600000 0.000000 -0.800000
vn -0.599999 0.000000 0.800001
vn -0.599999 0.000000 0.800001
vn -0.600000 0.000000 -0.800000
vn -0.600000 0.000000 -0.800000
vn -0.600000 0.000000 0.800000
vn -0.599999 0.000000 0.800000
vn -0.600000 0.000000 -0.800000
vn -0.600000 0.000000 -0.800000
vn -0.599996 0.000000 0.800003
vn -0.599996 0.000000 0.800003
vn -0.600000 0.000000 -0.800000
vn -0.600000 0.000000 -0.800000
vn -0.599994 0.000000 0.800004
vn -0.599982 0.000000 0.800014
vn -0.599982 0.000000 0.800014
vn -0.599991 0.000000 0.800007
vn -0.600010 0.000000 -0.799993
vn -0.600000 0.000000 -0.800000
vn -0.600003 0.000000 -0.799998
vn -0.600010 0.000000 -0.799993
vn -0.600000 -0.800000 0.000000
vn -0.599999 -0.800001 0.000000
vn -0.599999 -0.800001 0.000000
vn -0.600000 -0.800000 0.000000
vn -0.599999 -0.800001 0.000000
vn -0.599999 -0.800001 0.000000
vn -0.600000 -0.800000 0.000000
vn -0.600000 -0.800000 0.000000
vn -0.599999 -0.800001 0.000000
vn -0.599999 -0.800001 0.000000
vn -0.599999 -0.800001 0.000000
vn -0.599999 -0.800001 0.000000
vn -0.600000 -0.800000 0.000000
vn -0.600000 -0.800000 0.000000
vn 0.799994 0.000000 0.600008
vn 0.799994 0.000000 0.600008
vn -0.799995 0.000000 0.600007
vn -0.799995 0.000000 0.600007
vn 0.600012 0.000000 -0.799991
vn 0.600012 0.000000 -0.799991
vn 0.599984 0.000000 0.800012
vn 0.599984 0.000000 0.800012
vn -0.800003 0.000000 -0.599997
vn -0.800003 0.000000 -0.599997
vn 0.800002 0.000000 -0.599997
vn 0.800002 0.000000 -0.599997
vn -0.599996 0.000000 0.800003
vn -0.599996 0.000000 0.800003
vn -0.599996 0.000000 -0.800003
vn -0.599996 0.000000 -0.800003
s 1
g pCube4
usemtl initialShadingGroup
f 351/1/1 352/2/2 353/511/3 354/10/4
f 352/2/2 355/3/5 356/510/6 353/511/3
f 355/3/5 357/4/7 358/512/8 356/510/6
f 357/4/7 359/5/9 360/513/10 358/512/8
f 359/5/9 361/6/11 362/514/12 360/513/10
f 361/6/11 363/7/13 364/515/14 362/514/12
f 363/7/13 365/8/15 366/516/16 364/515/14
f 365/8/15 367/9/17 368/18/18 366/516/16
f 369/476/19 370/517/20 371/518/21 372/19/22
s 2
f 323/477/23 324/478/24 9/21/25 8/20/26
f 324/478/24 325/479/27 10/22/28 9/21/25
f 325/479/27 326/480/29 11/23/30 10/22/28
f 326/480/29 327/481/31 12/24/32 11/23/30
f 327/481/31 328/482/33 13/25/34 12/24/32
f 328/482/33 329/483/35 14/26/36 13/25/34
s 1
f 373/520/37 374/484/38 375/27/39 376/519/40
f 372/19/22 371/518/21 377/521/41 378/28/42
s 2
f 8/20/26 9/21/25 16/30/43 15/29/44
f 9/21/25 10/22/28 17/31/45 16/30/43
f 10/22/28 11/23/30 18/32/46 17/31/45
f 11/23/30 12/24/32 19/33/47 18/32/46
f 12/24/32 13/25/34 20/34/48 19/33/47
f 13/25/34 14/26/36 21/35/49 20/34/48
s 1
f 376/519/40 375/27/39 379/36/50 380/522/51
f 378/28/42 377/521/41 381/523/52 382/37/53
s 2
f 15/29/44 16/30/43 23/39/54 22/38/55
f 16/30/43 17/31/45 24/40/56 23/39/54
f 17/31/45 18/32/46 25/41/57 24/40/56
f 18/32/46 19/33/47 26/42/58 25/41/57
f 19/33/47 20/34/48 27/43/59 26/42/58
f 20/34/48 21/35/49 28/44/60 27/43/59
s 1
f 380/522/51 379/36/50 383/45/61 384/524/62
f 382/37/53 381/523/52 385/525/63 386/46/64
s 2
f 22/38/55 23/39/54 30/48/65 29/47/66
f 23/39/54 24/40/56 31/49/67 30/48/65
f 24/40/56 25/41/57 32/50/68 31/49/67
f 25/41/57 26/42/58 33/51/69 32/50/68
f 26/42/58 27/43/59 34/52/70 33/51/69
f 27/43/59 28/44/60 35/53/71 34/52/70
s 1
f 384/524/62 383/45/61 387/54/72 388/526/73
f 386/46/64 385/525/63 389/527/74 390/55/75
s 2
f 29/47/66 30/48/65 37/57/76 36/56/77
f 30/48/65 31/49/67 38/58/78 37/57/76
f 31/49/67 32/50/68 39/59/79 38/58/78
f 32/50/68 33/51/69 40/60/80 39/59/79
f 33/51/69 34/52/70 41/61/81 40/60/80
f 34/52/70 35/53/71 42/62/82 41/61/81
s 1
f 388/526/73 387/54/72 391/63/83 392/528/84
f 393/442/85 394/529/86 395/530/87 396/64/88
s 2
f 295/443/89 296/444/90 44/66/91 43/65/92
f 296/444/90 297/445/93 45/67/94 44/66/91
f 297/445/93 298/446/95 46/68/96 45/67/94
f 298/446/95 299/447/97 47/69/98 46/68/96
f 299/447/97 300/448/99 48/70/100 47/69/98
f 300/448/99 301/449/101 49/71/102 48/70/100
s 1
f 397/532/103 398/450/104 399/72/105 400/531/106
f 396/64/88 395/530/87 401/74/107 402/73/108
f 395/530/87 403/533/109 404/75/110 401/74/107
f 403/533/109 405/534/111 406/76/112 404/75/110
f 405/534/111 407/535/113 408/77/114 406/76/112
f 407/535/113 409/536/115 410/78/116 408/77/114
f 409/536/115 411/537/117 412/79/118 410/78/116
f 411/537/117 400/531/106 413/80/119 412/79/118
f 400/531/106 399/72/105 414/81/120 413/80/119
s 3
f 402/73/121 401/74/122 415/539/123 416/82/124
f 401/74/122 404/75/125 417/538/126 415/539/123
f 404/75/125 406/76/127 418/540/128 417/538/126
f 406/76/127 408/77/129 419/541/130 418/540/128
f 408/77/129 410/78/131 420/542/132 419/541/130
f 410/78/131 412/79/133 421/543/134 420/542/132
f 412/79/133 413/80/135 422/544/136 421/543/134
f 413/80/135 414/81/137 423/90/138 422/544/136
f 416/82/124 415/539/123 424/545/139 425/91/140
s 4
f 50/83/141 51/84/142 58/93/143 57/92/144
f 51/84/142 52/85/145 59/94/146 58/93/143
f 52/85/145 53/86/147 60/95/148 59/94/146
f 53/86/147 54/87/149 61/96/150 60/95/148
f 54/87/149 55/88/151 62/97/152 61/96/150
f 55/88/151 56/89/153 63/98/154 62/97/152
s 3
f 422/544/136 423/90/138 426/99/155 427/546/156
f 425/91/140 424/545/139 428/547/157 429/100/158
s 4
f 57/92/144 58/93/143 65/102/159 64/101/160
f 58/93/143 59/94/146 66/103/161 65/102/159
f 59/94/146 60/95/148 67/104/162 66/103/161
f 60/95/148 61/96/150 68/105/163 67/104/162
f 61/96/150 62/97/152 69/106/164 68/105/163
f 62/97/152 63/98/154 70/107/165 69/106/164
s 3
f 427/546/156 426/99/155 430/108/166 431/548/167
f 429/100/158 428/547/157 432/549/168 433/109/169
s 4
f 64/101/160 65/102/159 72/111/170 71/110/171
f 65/102/159 66/103/161 73/112/172 72/111/170
f 66/103/161 67/104/162 74/113/173 73/112/172
f 67/104/162 68/105/163 75/114/174 74/113/173
f 68/105/163 69/106/164 76/115/175 75/114/174
f 69/106/164 70/107/165 77/116/176 76/115/175
s 3
f 431/548/167 430/108/166 434/117/177 435/550/178
f 433/109/169 432/549/168 436/551/179 437/118/180
s 4
f 71/110/171 72/111/170 79/120/181 78/119/182
f 72/111/170 73/112/172 80/121/183 79/120/181
f 73/112/172 74/113/173 81/122/184 80/121/183
f 74/113/173 75/114/174 82/123/185 81/122/184
f 75/114/174 76/115/175 83/124/186 82/123/185
f 76/115/175 77/116/176 84/125/187 83/124/186
s 3
f 435/550/178 434/117/177 438/126/188 439/552/189
f 437/118/180 436/551/179 440/553/190 441/127/191
s 4
f 78/119/182 79/120/181 86/129/192 85/128/193
f 79/120/181 80/121/183 87/130/194 86/129/192
f 80/121/183 81/122/184 88/131/195 87/130/194
f 81/122/184 82/123/185 89/132/196 88/131/195
f 82/123/185 83/124/186 90/133/197 89/132/196
f 83/124/186 84/125/187 91/134/198 90/133/197
s 3
f 439/552/189 438/126/188 442/135/199 443/554/200
f 441/127/191 440/553/190 444/555/201 445/136/202
s 4
f 85/128/193 86/129/192 93/138/203 92/137/204
f 86/129/192 87/130/194 94/139/205 93/138/203
f 87/130/194 88/131/195 95/140/206 94/139/205
f 88/131/195 89/132/196 96/141/207 95/140/206
f 89/132/196 90/133/197 97/142/208 96/141/207
f 90/133/197 91/134/198 98/143/209 97/142/208
s 3
f 443/554/200 442/135/199 446/144/210 447/556/211
f 445/136/202 444/555/201 448/146/212 449/145/213
f 444/555/201 450/557/214 451/147/215 448/146/212
f 450/557/214 452/558/216 453/148/217 451/147/215
f 452/558/216 454/559/218 455/149/219 453/148/217
f 454/559/218 456/560/220 457/150/221 455/149/219
f 456/560/220 458/561/222 459/151/223 457/150/221
f 458/561/222 447/556/211 460/152/224 459/151/223
f 447/556/211 446/144/210 461/153/225 460/152/224
s 5
f 449/145/226 448/146/227 462/563/228 463/154/229
f 448/146/227 451/147/230 464/562/231 462/563/228
f 451/147/230 453/148/232 465/564/233 464/562/231
f 453/148/232 455/149/234 466/565/235 465/564/233
f 455/149/234 457/150/236 467/566/237 466/565/235
f 457/150/236 459/151/238 468/567/239 467/566/237
f 459/151/238 460/152/240 469/568/241 468/567/239
f 460/152/240 461/153/242 470/162/243 469/568/241
f 463/154/229 462/563/228 471/569/244 472/468/245
s 6
f 99/155/246 100/156/247 314/465/248 315/466/249
f 100/156/247 101/157/250 313/464/251 314/465/248
f 101/157/250 102/158/252 312/463/253 313/464/251
f 102/158/252 103/159/254 311/462/255 312/463/253
f 103/159/254 104/160/256 310/461/257 311/462/255
f 104/160/256 105/161/258 309/460/259 310/461/257
s 5
f 469/568/241 470/162/243 473/458/260 474/570/261
f 475/163/262 476/571/263 477/572/264 478/172/265
s 6
f 106/164/266 107/165/267 114/174/268 113/173/269
f 107/165/267 108/166/270 115/175/271 114/174/268
f 108/166/270 109/167/272 116/176/273 115/175/271
f 109/167/272 110/168/274 117/177/275 116/176/273
f 110/168/274 111/169/276 118/178/277 117/177/275
f 111/169/276 112/170/278 119/179/279 118/178/277
s 5
f 479/574/280 480/171/281 481/180/282 482/573/283
f 478/172/265 477/572/264 483/575/284 484/181/285
s 6
f 113/173/269 114/174/268 121/183/286 120/182/287
f 114/174/268 115/175/271 122/184/288 121/183/286
f 115/175/271 116/176/273 123/185/289 122/184/288
f 116/176/273 117/177/275 124/186/290 123/185/289
f 117/177/275 118/178/277 125/187/291 124/186/290
f 118/178/277 119/179/279 126/188/292 125/187/291
s 5
f 482/573/283 481/180/282 485/189/293 486/576/294
f 484/181/285 483/575/284 487/577/295 488/190/296
s 6
f 120/182/287 121/183/286 128/192/297 127/191/298
f 121/183/286 122/184/288 129/193/299 128/192/297
f 122/184/288 123/185/289 130/194/300 129/193/299
f 123/185/289 124/186/290 131/195/301 130/194/300
f 124/186/290 125/187/291 132/196/302 131/195/301
f 125/187/291 126/188/292 133/197/303 132/196/302
s 5
f 486/576/294 485/189/293 489/198/304 490/578/305
f 488/190/296 487/577/295 491/579/306 492/199/307
s 6
f 127/191/298 128/192/297 135/201/308 134/200/309
f 128/192/297 129/193/299 136/202/310 135/201/308
f 129/193/299 130/194/300 137/203/311 136/202/310
f 130/194/300 131/195/301 138/204/312 137/203/311
f 131/195/301 132/196/302 139/205/313 138/204/312
f 132/196/302 133/197/303 140/206/314 139/205/313
s 5
f 490/578/305 489/198/304 493/207/315 494/580/316
f 492/199/307 491/579/306 495/581/317 496/502/318
s 6
f 134/200/309 135/201/308 342/499/319 343/500/320
f 135/201/308 136/202/310 341/498/321 342/499/319
f 136/202/310 137/203/311 340/497/322 341/498/321
f 137/203/311 138/204/312 339/496/323 340/497/322
f 138/204/312 139/205/313 338/495/324 339/496/323
f 139/205/313 140/206/314 337/494/325 338/495/324
s 5
f 494/580/316 493/207/315 497/492/326 498/582/327
f 499/208/328 500/583/329 501/218/330 502/217/331
f 500/583/329 503/584/332 504/219/333 501/218/330
f 503/584/332 505/585/334 506/220/335 504/219/333
f 505/585/334 507/586/336 508/221/337 506/220/335
f 507/586/336 509/587/338 510/222/339 508/221/337
f 509/587/338 511/588/340 512/223/341 510/222/339
f 511/588/340 513/589/342 514/224/343 512/223/341
f 513/589/342 515/216/344 516/225/345 514/224/343
s 7
f 502/217/346 501/218/347 517/591/348 518/226/349
f 501/218/347 504/219/350 519/590/351 517/591/348
f 504/219/350 506/220/352 520/592/353 519/590/351
f 506/220/352 508/221/354 521/593/355 520/592/353
f 508/221/354 510/222/356 522/594/357 521/593/355
f 510/222/356 512/223/358 523/595/359 522/594/357
f 512/223/358 514/224/360 524/596/361 523/595/359
f 514/224/360 516/225/362 525/234/363 524/596/361
f 518/226/349 517/591/348 526/597/364 527/235/365
s 8
f 148/227/366 149/228/367 156/237/368 155/236/369
f 149/228/367 150/229/370 157/238/371 156/237/368
f 150/229/370 151/230/372 158/239/373 157/238/371
f 151/230/372 152/231/374 159/240/375 158/239/373
f 152/231/374 153/232/376 160/241/377 159/240/375
f 153/232/376 154/233/378 161/242/379 160/241/377
s 7
f 524/596/361 525/234/363 528/243/380 529/598/381
f 527/235/365 526/597/364 530/599/382 531/244/383
s 8
f 155/236/369 156/237/368 163/246/384 162/245/385
f 156/237/368 157/238/371 164/247/386 163/246/384
f 157/238/371 158/239/373 165/248/387 164/247/386
f 158/239/373 159/240/375 166/249/388 165/248/387
f 159/240/375 160/241/377 167/250/389 166/249/388
f 160/241/377 161/242/379 168/251/390 167/250/389
s 7
f 529/598/381 528/243/380 532/252/391 533/600/392
f 531/244/383 530/599/382 534/601/393 535/253/394
s 8
f 162/245/385 163/246/384 170/255/395 169/254/396
f 163/246/384 164/247/386 171/256/397 170/255/395
f 164/247/386 165/248/387 172/257/398 171/256/397
f 165/248/387 166/249/388 173/258/399 172/257/398
f 166/249/388 167/250/389 174/259/400 173/258/399
f 167/250/389 168/251/390 175/260/401 174/259/400
s 7
f 533/600/392 532/252/391 536/261/402 537/602/403
f 535/253/394 534/601/393 538/603/404 539/262/405
s 8
f 169/254/396 170/255/395 177/264/406 176/263/407
f 170/255/395 171/256/397 178/265/408 177/264/406
f 171/256/397 172/257/398 179/266/409 178/265/408
f 172/257/398 173/258/399 180/267/410 179/266/409
f 173/258/399 174/259/400 181/268/411 180/267/410
f 174/259/400 175/260/401 182/269/412 181/268/411
s 7
f 537/602/403 536/261/402 540/270/413 541/604/414
f 539/262/405 538/603/404 542/605/415 543/271/416
s 8
f 176/263/407 177/264/406 184/273/417 183/272/418
f 177/264/406 178/265/408 185/274/419 184/273/417
f 178/265/408 179/266/409 186/275/420 185/274/419
f 179/266/409 180/267/410 187/276/421 186/275/420
f 180/267/410 181/268/411 188/277/422 187/276/421
f 181/268/411 182/269/412 189/278/423 188/277/422
s 7
f 541/604/414 540/270/413 544/279/424 545/606/425
f 543/271/416 542/605/415 546/607/426 547/280/427
s 8
f 183/272/418 184/273/417 191/282/428 190/281/429
f 184/273/417 185/274/419 192/283/430 191/282/428
f 185/274/419 186/275/420 193/284/431 192/283/430
f 186/275/420 187/276/421 194/285/432 193/284/431
f 187/276/421 188/277/422 195/286/433 194/285/432
f 188/277/422 189/278/423 196/287/434 195/286/433
s 7
f 545/606/425 544/279/424 548/288/435 549/608/436
f 547/280/427 546/607/426 352/290/437 351/289/438
f 546/607/426 550/609/439 355/291/440 352/290/437
f 550/609/439 551/610/441 357/292/442 355/291/440
f 551/610/441 552/611/443 359/293/444 357/292/442
f 552/611/443 553/612/445 361/294/446 359/293/444
f 553/612/445 554/613/447 363/295/448 361/294/446
f 554/613/447 549/608/436 365/296/449 363/295/448
f 549/608/436 548/288/435 367/297/450 365/296/449
s 9
f 525/299/451 516/298/452 515/306/453 555/614/454
f 528/300/455 525/299/451 555/614/454 556/615/456
f 532/301/457 528/300/455 556/615/456 557/616/458
f 536/302/459 532/301/457 557/616/458 558/617/460
f 540/303/461 536/302/459 558/617/460 559/618/462
f 544/304/463 540/303/461 559/618/462 560/619/464
f 548/305/465 544/304/463 560/619/464 561/620/466
f 367/9/467 548/305/465 561/620/466 368/18/468
f 562/622/469 497/493/470 493/314/471 563/621/472
s 10
f 335/490/473 336/491/474 204/315/475 205/316/476
f 334/489/477 335/490/473 205/316/476 206/317/478
f 333/488/479 334/489/477 206/317/478 207/318/480
f 332/487/481 333/488/479 207/318/480 208/319/482
f 331/486/483 332/487/481 208/319/482 209/320/484
f 330/485/485 331/486/483 209/320/484 210/321/486
s 9
f 374/484/487 564/623/488 565/624/489 375/27/490
f 563/621/472 493/314/471 489/322/491 566/625/492
s 10
f 205/316/476 204/315/475 211/323/493 212/324/494
f 206/317/478 205/316/476 212/324/494 213/325/495
f 207/318/480 206/317/478 213/325/495 214/326/496
f 208/319/482 207/318/480 214/326/496 215/327/497
f 209/320/484 208/319/482 215/327/497 216/328/498
f 210/321/486 209/320/484 216/328/498 217/329/499
s 9
f 375/27/490 565/624/489 567/626/500 379/36/501
f 566/625/492 489/322/491 485/330/502 568/627/503
s 10
f 212/324/494 211/323/493 218/331/504 219/332/505
f 213/325/495 212/324/494 219/332/505 220/333/506
f 214/326/496 213/325/495 220/333/506 221/334/507
f 215/327/497 214/326/496 221/334/507 222/335/508
f 216/328/498 215/327/497 222/335/508 223/336/509
f 217/329/499 216/328/498 223/336/509 224/337/510
s 9
f 379/36/501 567/626/500 569/628/511 383/45/512
f 568/627/503 485/330/502 481/338/513 570/629/514
s 10
f 219/332/505 218/331/504 225/339/515 226/340/516
f 220/333/506 219/332/505 226/340/516 227/341/517
f 221/334/507 220/333/506 227/341/517 228/342/518
f 222/335/508 221/334/507 228/342/518 229/343/519
f 223/336/509 222/335/508 229/343/519 230/344/520
f 224/337/510 223/336/509 230/344/520 231/345/521
s 9
f 383/45/512 569/628/511 571/630/522 387/54/523
f 570/629/514 481/338/513 480/346/524 572/631/525
s 10
f 226/340/516 225/339/515 232/347/526 233/348/527
f 227/341/517 226/340/516 233/348/527 234/349/528
f 228/342/518 227/341/517 234/349/528 235/350/529
f 229/343/519 228/342/518 235/350/529 236/351/530
f 230/344/520 229/343/519 236/351/530 237/352/531
f 231/345/521 230/344/520 237/352/531 238/353/532
s 9
f 387/54/523 571/630/522 573/632/533 391/63/534
f 574/634/535 473/459/536 470/354/537 575/633/538
s 10
f 307/456/539 308/457/540 239/355/541 240/356/542
f 306/455/543 307/456/539 240/356/542 241/357/544
f 305/454/545 306/455/543 241/357/544 242/358/546
f 304/453/547 305/454/545 242/358/546 243/359/548
f 303/452/549 304/453/547 243/359/548 244/360/550
f 302/451/551 303/452/549 244/360/550 245/361/552
s 9
f 398/450/553 576/635/554 577/636/555 399/72/556
f 575/633/538 470/354/537 461/362/557 446/363/558
f 578/637/559 575/633/538 446/363/558 442/364/560
f 579/638/561 578/637/559 442/364/560 438/365/562
f 580/639/563 579/638/561 438/365/562 434/366/564
f 581/640/565 580/639/563 434/366/564 430/367/566
f 582/641/567 581/640/565 430/367/566 426/368/568
f 577/636/555 582/641/567 426/368/568 423/369/569
f 399/72/556 577/636/555 423/369/569 414/81/570
s 11
f 502/370/571 518/371/572 583/643/573 499/378/574
f 518/371/572 527/372/575 584/642/576 583/643/573
f 527/372/575 531/373/577 585/644/578 584/642/576
f 531/373/577 535/374/579 586/645/580 585/644/578
f 535/374/579 539/375/581 587/646/582 586/645/580
f 539/375/581 543/376/583 588/647/584 587/646/582
f 543/376/583 547/377/585 589/648/586 588/647/584
f 547/377/585 351/1/587 354/10/588 589/648/586
f 496/501/589 590/649/590 591/650/591 492/386/592
s 12
f 344/503/593 345/504/594 254/388/595 253/387/596
f 345/504/594 346/505/597 255/389/598 254/388/595
f 346/505/597 347/506/599 256/390/600 255/389/598
f 347/506/599 348/507/601 257/391/602 256/390/600
f 348/507/601 349/508/603 258/392/604 257/391/602
f 349/508/603 350/509/605 259/393/606 258/392/604
s 11
f 592/652/607 369/476/608 372/19/609 593/651/610
f 492/386/592 591/650/591 594/653/611 488/394/612
s 12
f 253/387/596 254/388/595 261/396/613 260/395/614
f 254/388/595 255/389/598 262/397/615 261/396/613
f 255/389/598 256/390/600 263/398/616 262/397/615
f 256/390/600 257/391/602 264/399/617 263/398/616
f 257/391/602 258/392/604 265/400/618 264/399/617
f 258/392/604 259/393/606 266/401/619 265/400/618
s 11
f 593/651/610 372/19/609 378/28/620 595/654/621
f 488/394/612 594/653/611 596/655/622 484/402/623
s 12
f 260/395/614 261/396/613 268/404/624 267/403/625
f 261/396/613 262/397/615 269/405/626 268/404/624
f 262/397/615 263/398/616 270/406/627 269/405/626
f 263/398/616 264/399/617 271/407/628 270/406/627
f 264/399/617 265/400/618 272/408/629 271/407/628
f 265/400/618 266/401/619 273/409/630 272/408/629
s 11
f 595/654/621 378/28/620 382/37/631 597/656/632
f 484/402/623 596/655/622 598/657/633 478/410/634
s 12
f 267/403/625 268/404/624 275/412/635 274/411/636
f 268/404/624 269/405/626 276/413/637 275/412/635
f 269/405/626 270/406/627 277/414/638 276/413/637
f 270/406/627 271/407/628 278/415/639 277/414/638
f 271/407/628 272/408/629 279/416/640 278/415/639
f 272/408/629 273/409/630 280/417/641 279/416/640
s 11
f 597/656/632 382/37/631 386/46/642 599/658/643
f 478/410/634 598/657/633 600/659/644 475/418/645
s 12
f 274/411/636 275/412/635 282/420/646 281/419/647
f 275/412/635 276/413/637 283/421/648 282/420/646
f 276/413/637 277/414/638 284/422/649 283/421/648
f 277/414/638 278/415/639 285/423/650 284/422/649
f 278/415/639 279/416/640 286/424/651 285/423/650
f 279/416/640 280/417/641 287/425/652 286/424/651
s 11
f 599/658/643 386/46/642 390/55/653 601/660/654
f 472/467/655 602/661/656 603/662/657 463/426/658
s 12
f 316/469/659 317/470/660 289/428/661 288/427/662
f 317/470/660 318/471/663 290/429/664 289/428/661
f 318/471/663 319/472/665 291/430/666 290/429/664
f 319/472/665 320/473/667 292/431/668 291/430/666
f 320/473/667 321/474/669 293/432/670 292/431/668
f 321/474/669 322/475/671 294/433/672 293/432/670
s 11
f 604/664/673 393/442/674 396/64/675 605/663/676
f 463/426/658 603/662/657 445/435/677 449/434/678
f 603/662/657 606/665/679 441/436/680 445/435/677
f 606/665/679 607/666/681 437/437/682 441/436/680
f 607/666/681 608/667/683 433/438/684 437/437/682
f 608/667/683 609/668/685 429/439/686 433/438/684
f 609/668/685 610/669/687 425/440/688 429/439/686
f 610/669/687 605/663/676 416/441/689 425/440/688
f 605/663/676 396/64/675 402/73/690 416/441/689
s 1
f 390/55/75 389/527/74 394/529/86 393/442/85
s 2
f 36/56/77 37/57/76 296/444/90 295/443/89
f 37/57/76 38/58/78 297/445/93 296/444/90
f 38/58/78 39/59/79 298/446/95 297/445/93
f 39/59/79 40/60/80 299/447/97 298/446/95
f 40/60/80 41/61/81 300/448/99 299/447/97
f 41/61/81 42/62/82 301/449/101 300/448/99
s 1
f 392/528/84 391/63/83 398/450/104 397/532/103
s 9
f 391/63/534 573/632/533 576/635/554 398/450/553
s 10
f 238/353/532 237/352/531 303/452/549 302/451/551
f 237/352/531 236/351/530 304/453/547 303/452/549
f 236/351/530 235/350/529 305/454/545 304/453/547
f 235/350/529 234/349/528 306/455/543 305/454/545
f 234/349/528 233/348/527 307/456/539 306/455/543
f 233/348/527 232/347/526 308/457/540 307/456/539
s 9
f 572/631/525 480/346/524 473/459/536 574/634/535
s 5
f 474/570/261 473/458/260 480/171/281 479/574/280
s 6
f 310/461/257 309/460/259 112/170/278 111/169/276
f 311/462/255 310/461/257 111/169/276 110/168/274
f 312/463/253 311/462/255 110/168/274 109/167/272
f 313/464/251 312/463/253 109/167/272 108/166/270
f 314/465/248 313/464/251 108/166/270 107/165/267
f 315/466/249 314/465/248 107/165/267 106/164/266
s 5
f 472/468/245 471/569/244 476/571/263 475/163/262
s 11
f 475/418/645 600/659/644 602/661/656 472/467/655
s 12
f 281/419/647 282/420/646 317/470/660 316/469/659
f 282/420/646 283/421/648 318/471/663 317/470/660
f 283/421/648 284/422/649 319/472/665 318/471/663
f 284/422/649 285/423/650 320/473/667 319/472/665
f 285/423/650 286/424/651 321/474/669 320/473/667
f 286/424/651 287/425/652 322/475/671 321/474/669
s 11
f 601/660/654 390/55/653 393/442/674 604/664/673
s 1
f 354/10/4 353/511/3 370/517/20 369/476/19
s 2
f 1/11/691 2/12/692 324/478/24 323/477/23
f 2/12/692 3/13/693 325/479/27 324/478/24
f 3/13/693 4/14/694 326/480/29 325/479/27
f 4/14/694 5/15/695 327/481/31 326/480/29
f 5/15/695 6/16/696 328/482/33 327/481/31
f 6/16/696 7/17/697 329/483/35 328/482/33
s 1
f 366/516/16 368/18/18 374/484/38 373/520/37
s 9
f 368/18/468 561/620/466 564/623/488 374/484/487
s 10
f 203/313/698 202/312/699 331/486/483 330/485/485
f 202/312/699 201/311/700 332/487/481 331/486/483
f 201/311/700 200/310/701 333/488/479 332/487/481
f 200/310/701 199/309/702 334/489/477 333/488/479
f 199/309/702 198/308/703 335/490/473 334/489/477
f 198/308/703 197/307/704 336/491/474 335/490/473
s 9
f 555/614/454 515/306/453 497/493/470 562/622/469
s 5
f 498/582/327 497/492/326 515/216/344 513/589/342
s 6
f 338/495/324 337/494/325 147/215/705 146/214/706
f 339/496/323 338/495/324 146/214/706 145/213/707
f 340/497/322 339/496/323 145/213/707 144/212/708
f 341/498/321 340/497/322 144/212/708 143/211/709
f 342/499/319 341/498/321 143/211/709 142/210/710
f 343/500/320 342/499/319 142/210/710 141/209/711
s 5
f 496/502/318 495/581/317 500/583/329 499/208/328
s 11
f 499/378/574 583/643/573 590/649/590 496/501/589
s 12
f 246/379/712 247/380/713 345/504/594 344/503/593
f 247/380/713 248/381/714 346/505/597 345/504/594
f 248/381/714 249/382/715 347/506/599 346/505/597
f 249/382/715 250/383/716 348/507/601 347/506/599
f 250/383/716 251/384/717 349/508/603 348/507/601
f 251/384/717 252/385/718 350/509/605 349/508/603
s 11
f 589/648/586 354/10/588 369/476/608 592/652/607
s 13
f 2/12/719 1/11/720 353/511/721 356/510/722
f 3/13/723 2/12/719 356/510/722 358/512/724
f 4/14/725 3/13/723 358/512/724 360/513/726
f 5/15/727 4/14/725 360/513/726 362/514/728
f 6/16/729 5/15/727 362/514/728 364/515/730
f 7/17/731 6/16/729 364/515/730 366/516/732
s 14
f 323/477/733 8/20/734 371/518/735 370/517/736
s 15
f 14/26/737 329/483/738 373/520/739 376/519/740
s 14
f 8/20/734 15/29/741 377/521/742 371/518/735
s 15
f 21/35/743 14/26/737 376/519/740 380/522/744
s 14
f 15/29/741 22/38/745 381/523/746 377/521/742
s 15
f 28/44/747 21/35/743 380/522/744 384/524/748
s 14
f 22/38/745 29/47/749 385/525/750 381/523/746
s 15
f 35/53/751 28/44/747 384/524/748 388/526/752
s 14
f 29/47/749 36/56/753 389/527/754 385/525/750
s 15
f 42/62/755 35/53/751 388/526/752 392/528/756
s 14
f 295/443/757 43/65/758 395/530/759 394/529/760
s 15
f 49/71/761 301/449/762 397/532/763 400/531/764
s 16
f 43/65/765 44/66/766 403/533/767 395/530/768
f 44/66/766 45/67/769 405/534/770 403/533/767
f 45/67/769 46/68/771 407/535/772 405/534/770
f 46/68/771 47/69/773 409/536/774 407/535/772
f 47/69/773 48/70/775 411/537/776 409/536/774
f 48/70/775 49/71/777 400/531/778 411/537/776
s 17
f 51/84/779 50/83/780 415/539/781 417/538/782
f 52/85/783 51/84/779 417/538/782 418/540/784
f 53/86/785 52/85/783 418/540/784 419/541/786
f 54/87/787 53/86/785 419/541/786 420/542/788
f 55/88/789 54/87/787 420/542/788 421/543/790
f 56/89/791 55/88/789 421/543/790 422/544/792
s 18
f 50/83/793 57/92/794 424/545/795 415/539/796
s 19
f 63/98/797 56/89/798 422/544/799 427/546/800
s 18
f 57/92/794 64/101/801 428/547/802 424/545/795
s 19
f 70/107/803 63/98/797 427/546/800 431/548/804
s 18
f 64/101/801 71/110/805 432/549/806 428/547/802
s 19
f 77/116/807 70/107/803 431/548/804 435/550/808
s 18
f 71/110/805 78/119/809 436/551/810 432/549/806
s 19
f 84/125/811 77/116/807 435/550/808 439/552/812
s 18
f 78/119/809 85/128/813 440/553/814 436/551/810
s 19
f 91/134/815 84/125/811 439/552/812 443/554/816
s 18
f 85/128/813 92/137/817 444/555/818 440/553/814
s 19
f 98/143/819 91/134/815 443/554/816 447/556/820
s 20
f 92/137/821 93/138/822 450/557/823 444/555/824
f 93/138/822 94/139/825 452/558/826 450/557/823
f 94/139/825 95/140/827 454/559/828 452/558/826
f 95/140/827 96/141/829 456/560/830 454/559/828
f 96/141/829 97/142/831 458/561/832 456/560/830
f 97/142/831 98/143/833 447/556/834 458/561/832
s 21
f 100/156/835 99/155/836 462/563/837 464/562/838
f 101/157/839 100/156/835 464/562/838 465/564/840
f 102/158/841 101/157/839 465/564/840 466/565/842
f 103/159/843 102/158/841 466/565/842 467/566/844
f 104/160/845 103/159/843 467/566/844 468/567/846
f 105/161/847 104/160/845 468/567/846 469/568/848
s 22
f 99/155/849 315/466/850 471/569/851 462/563/852
s 23
f 309/460/853 105/161/854 469/568/855 474/570/856
s 22
f 106/164/857 113/173/858 477/572/859 476/571/860
s 23
f 119/179/861 112/170/862 479/574/863 482/573/864
s 22
f 113/173/858 120/182/865 483/575/866 477/572/859
s 23
f 126/188/867 119/179/861 482/573/864 486/576/868
s 22
f 120/182/865 127/191/869 487/577/870 483/575/866
s 23
f 133/197/871 126/188/867 486/576/868 490/578/872
s 22
f 127/191/869 134/200/873 491/579/874 487/577/870
s 23
f 140/206/875 133/197/871 490/578/872 494/580/876
s 22
f 134/200/873 343/500/877 495/581/878 491/579/874
s 23
f 337/494/879 140/206/875 494/580/876 498/582/880
s 25
f 141/209/881 142/210/882 503/584/883 500/583/884
f 142/210/882 143/211/885 505/585/886 503/584/883
f 143/211/885 144/212/887 507/586/888 505/585/886
f 144/212/887 145/213/889 509/587/890 507/586/888
f 145/213/889 146/214/891 511/588/892 509/587/890
f 146/214/891 147/215/893 513/589/894 511/588/892
s 26
f 149/228/895 148/227/896 517/591/897 519/590/898
f 150/229/899 149/228/895 519/590/898 520/592/900
f 151/230/901 150/229/899 520/592/900 521/593/902
f 152/231/903 151/230/901 521/593/902 522/594/904
f 153/232/905 152/231/903 522/594/904 523/595/906
f 154/233/907 153/232/905 523/595/906 524/596/908
s 27
f 148/227/909 155/236/910 526/597/911 517/591/912
s 28
f 161/242/913 154/233/914 524/596/915 529/598/916
s 27
f 155/236/910 162/245/917 530/599/918 526/597/911
s 28
f 168/251/919 161/242/913 529/598/916 533/600/920
s 27
f 162/245/917 169/254/921 534/601/922 530/599/918
s 28
f 175/260/923 168/251/919 533/600/920 537/602/924
s 27
f 169/254/921 176/263/925 538/603/926 534/601/922
s 28
f 182/269/927 175/260/923 537/602/924 541/604/928
s 27
f 176/263/925 183/272/929 542/605/930 538/603/926
s 28
f 189/278/931 182/269/927 541/604/928 545/606/932
s 27
f 183/272/929 190/281/933 546/607/934 542/605/930
s 28
f 196/287/935 189/278/931 545/606/932 549/608/936
s 29
f 190/281/937 191/282/938 550/609/939 546/607/940
f 191/282/938 192/283/941 551/610/942 550/609/939
f 192/283/941 193/284/943 552/611/944 551/610/942
f 193/284/943 194/285/945 553/612/946 552/611/944
f 194/285/945 195/286/947 554/613/948 553/612/946
f 195/286/947 196/287/949 549/608/950 554/613/948
s 30
f 197/307/951 198/308/952 556/615/953 555/614/954
f 198/308/952 199/309/955 557/616/956 556/615/953
f 199/309/955 200/310/957 558/617/958 557/616/956
f 200/310/957 201/311/959 559/618/960 558/617/958
f 201/311/959 202/312/961 560/619/962 559/618/960
f 202/312/961 203/313/963 561/620/964 560/619/962
s 31
f 204/315/965 336/491/966 562/622/967 563/621/968
s 32
f 330/485/969 210/321/970 565/624/971 564/623/972
s 31
f 211/323/973 204/315/965 563/621/968 566/625/974
s 32
f 210/321/970 217/329/975 567/626/976 565/624/971
s 31
f 218/331/977 211/323/973 566/625/974 568/627/978
s 32
f 217/329/975 224/337/979 569/628/980 567/626/976
s 31
f 225/339/981 218/331/977 568/627/978 570/629/982
s 32
f 224/337/979 231/345/983 571/630/984 569/628/980
s 31
f 232/347/985 225/339/981 570/629/982 572/631/986
s 32
f 231/345/983 238/353/987 573/632/988 571/630/984
s 31
f 239/355/989 308/457/990 574/634/991 575/633/992
s 32
f 302/451/993 245/361/994 577/636/995 576/635/996
s 33
f 240/356/997 239/355/998 575/633/999 578/637/1000
f 241/357/1001 240/356/997 578/637/1000 579/638/1002
f 242/358/1003 241/357/1001 579/638/1002 580/639/1004
f 243/359/1005 242/358/1003 580/639/1004 581/640/1006
f 244/360/1007 243/359/1005 581/640/1006 582/641/1008
f 245/361/1009 244/360/1007 582/641/1008 577/636/1010
s 34
f 247/380/1011 246/379/1012 583/643/1013 584/642/1014
f 248/381/1015 247/380/1011 584/642/1014 585/644/1016
f 249/382/1017 248/381/1015 585/644/1016 586/645/1018
f 250/383/1019 249/382/1017 586/645/1018 587/646/1020
f 251/384/1021 250/383/1019 587/646/1020 588/647/1022
f 252/385/1023 251/384/1021 588/647/1022 589/648/1024
s 35
f 344/503/1025 253/387/1026 591/650/1027 590/649/1028
s 36
f 259/393/1029 350/509/1030 592/652/1031 593/651/1032
s 35
f 253/387/1026 260/395/1033 594/653/1034 591/650/1027
s 36
f 266/401/1035 259/393/1029 593/651/1032 595/654/1036
s 35
f 260/395/1033 267/403/1037 596/655/1038 594/653/1034
s 36
f 273/409/1039 266/401/1035 595/654/1036 597/656/1040
s 35
f 267/403/1037 274/411/1041 598/657/1042 596/655/1038
s 36
f 280/417/1043 273/409/1039 597/656/1040 599/658/1044
s 35
f 274/411/1041 281/419/1045 600/659/1046 598/657/1042
s 36
f 287/425/1047 280/417/1043 599/658/1044 601/660/1048
s 35
f 316/469/1049 288/427/1050 603/662/1051 602/661/1052
s 36
f 294/433/1053 322/475/1054 604/664/1055 605/663/1056
s 37
f 288/427/1057 289/428/1058 606/665/1059 603/662/1060
f 289/428/1058 290/429/1061 607/666/1062 606/665/1059
f 290/429/1061 291/430/1063 608/667/1064 607/666/1062
f 291/430/1063 292/431/1065 609/668/1066 608/667/1064
f 292/431/1065 293/432/1067 610/669/1068 609/668/1066
f 293/432/1067 294/433/1069 605/663/1070 610/669/1068
s 14
f 36/56/753 295/443/757 394/529/760 389/527/754
s 15
f 301/449/762 42/62/755 392/528/756 397/532/763
s 32
f 238/353/987 302/451/993 576/635/996 573/632/988
s 31
f 308/457/990 232/347/985 572/631/986 574/634/991
s 23
f 112/170/862 309/460/853 474/570/856 479/574/863
s 22
f 315/466/850 106/164/857 476/571/860 471/569/851
s 35
f 281/419/1045 316/469/1049 602/661/1052 600/659/1046
s 36
f 322/475/1054 287/425/1047 601/660/1048 604/664/1055
s 14
f 1/11/1071 323/477/733 370/517/736 353/511/1072
s 15
f 329/483/738 7/17/1073 366/516/1074 373/520/739
s 32
f 203/313/1075 330/485/969 564/623/972 561/620/1076
s 31
f 336/491/966 197/307/1077 555/614/1078 562/622/967
s 23
f 147/215/1079 337/494/879 498/582/880 513/589/1080
s 22
f 343/500/877 141/209/1081 500/583/1082 495/581/878
s 35
f 246/379/1083 344/503/1025 590/649/1028 583/643/1084
s 36
f 350/509/1030 252/385/1085 589/648/1086 592/652/1031
