# This file uses centimeters as units for non-parametric coordinates.

mtllib TutorialBlock_WIP2.mtl
g default
v -0.906977 -0.375000 0.647736
v -0.781977 -0.375000 0.647736
v -0.656977 -0.375000 0.647736
v -0.531977 -0.375000 0.647736
v -0.406977 -0.375000 0.647736
v -0.281977 -0.375000 0.647736
v -0.156977 -0.375000 0.647736
v -0.906977 -0.250000 0.647736
v -0.781977 -0.250000 0.647736
v -0.656977 -0.250000 0.647736
v -0.531977 -0.250000 0.647736
v -0.406977 -0.250000 0.647736
v -0.281977 -0.250000 0.647736
v -0.156977 -0.250000 0.647736
v -0.906977 -0.125000 0.647736
v -0.781977 -0.125000 0.647736
v -0.656977 -0.125000 0.647736
v -0.531977 -0.125000 0.647736
v -0.406977 -0.125000 0.647736
v -0.281977 -0.125000 0.647736
v -0.156977 -0.125000 0.647736
v -0.906977 0.000000 0.647736
v -0.781977 0.000000 0.647736
v -0.656977 0.000000 0.647736
v -0.531977 0.000000 0.647736
v -0.406977 0.000000 0.647736
v -0.281977 0.000000 0.647736
v -0.156977 0.000000 0.647736
v -0.906977 0.125000 0.647736
v -0.781977 0.125000 0.647736
v -0.656977 0.125000 0.647736
v -0.531977 0.125000 0.647736
v -0.406977 0.125000 0.647736
v -0.281977 0.125000 0.647736
v -0.156977 0.125000 0.647736
v -0.906977 0.250000 0.647736
v -0.781977 0.250000 0.647736
v -0.656977 0.250000 0.647736
v -0.531977 0.250000 0.647736
v -0.406977 0.250000 0.647736
v -0.281977 0.250000 0.647736
v -0.156977 0.250000 0.647736
v -0.906977 0.375000 0.647736
v -0.781977 0.375000 0.647736
v -0.656977 0.375000 0.647736
v -0.531977 0.375000 0.647736
v -0.406977 0.375000 0.647736
v -0.281977 0.375000 0.647736
v -0.156977 0.375000 0.647736
v -0.906977 0.500000 0.522736
v -0.781977 0.500000 0.522736
v -0.656977 0.500000 0.522736
v -0.531977 0.500000 0.522736
v -0.406977 0.500000 0.522736
v -0.281977 0.500000 0.522736
v -0.156977 0.500000 0.522736
v -0.906977 0.500000 0.397736
v -0.781977 0.500000 0.397736
v -0.656977 0.500000 0.397736
v -0.531977 0.500000 0.397736
v -0.406977 0.500000 0.397736
v -0.281977 0.500000 0.397736
v -0.156977 0.500000 0.397736
v -0.906977 0.500000 0.272736
v -0.781977 0.500000 0.272736
v -0.656977 0.500000 0.272736
v -0.531977 0.500000 0.272736
v -0.406977 0.500000 0.272736
v -0.281977 0.500000 0.272736
v -0.156977 0.500000 0.272736
v -0.906977 0.500000 0.147736
v -0.781977 0.500000 0.147736
v -0.656977 0.500000 0.147736
v -0.531977 0.500000 0.147736
v -0.406977 0.500000 0.147736
v -0.281977 0.500000 0.147736
v -0.156977 0.500000 0.147736
v -0.906977 0.500000 0.022736
v -0.781977 0.500000 0.022736
v -0.656977 0.500000 0.022736
v -0.531977 0.500000 0.022736
v -0.406977 0.500000 0.022736
v -0.281977 0.500000 0.022736
v -0.156977 0.500000 0.022736
v -0.906977 0.500000 -0.102264
v -0.781977 0.500000 -0.102264
v -0.656977 0.500000 -0.102264
v -0.531977 0.500000 -0.102264
v -0.406977 0.500000 -0.102264
v -0.281977 0.500000 -0.102264
v -0.156977 0.500000 -0.102264
v -0.906977 0.500000 -0.227264
v -0.781977 0.500000 -0.227264
v -0.656977 0.500000 -0.227264
v -0.531977 0.500000 -0.227264
v -0.406977 0.500000 -0.227264
v -0.281977 0.500000 -0.227264
v -0.156977 0.500000 -0.227264
v -0.906977 0.375000 -0.352264
v -0.781977 0.375000 -0.352264
v -0.656977 0.375000 -0.352264
v -0.531977 0.375000 -0.352264
v -0.406977 0.375000 -0.352264
v -0.281977 0.375000 -0.352264
v -0.156977 0.375000 -0.352264
v -0.906977 0.250000 -0.352264
v -0.781977 0.250000 -0.352264
v -0.656977 0.250000 -0.352264
v -0.531977 0.250000 -0.352264
v -0.406977 0.250000 -0.352264
v -0.281977 0.250000 -0.352264
v -0.156977 0.250000 -0.352264
v -0.906977 0.125000 -0.352264
v -0.781977 0.125000 -0.352264
v -0.656977 0.125000 -0.352264
v -0.531977 0.125000 -0.352264
v -0.406977 0.125000 -0.352264
v -0.281977 0.125000 -0.352264
v -0.156977 0.125000 -0.352264
v -0.906977 0.000000 -0.352264
v -0.781977 0.000000 -0.352264
v -0.656977 0.000000 -0.352264
v -0.531977 0.000000 -0.352264
v -0.406977 0.000000 -0.352264
v -0.281977 0.000000 -0.352264
v -0.156977 0.000000 -0.352264
v -0.906977 -0.125000 -0.352264
v -0.781977 -0.125000 -0.352264
v -0.656977 -0.125000 -0.352264
v -0.531977 -0.125000 -0.352264
v -0.406977 -0.125000 -0.352264
v -0.281977 -0.125000 -0.352264
v -0.156977 -0.125000 -0.352264
v -0.906977 -0.250000 -0.352264
v -0.781977 -0.250000 -0.352264
v -0.656977 -0.250000 -0.352264
v -0.531977 -0.250000 -0.352264
v -0.406977 -0.250000 -0.352264
v -0.281977 -0.250000 -0.352264
v -0.156977 -0.250000 -0.352264
v -0.906977 -0.375000 -0.352264
v -0.781977 -0.375000 -0.352264
v -0.656977 -0.375000 -0.352264
v -0.531977 -0.375000 -0.352264
v -0.406977 -0.375000 -0.352264
v -0.281977 -0.375000 -0.352264
v -0.156977 -0.375000 -0.352264
v -0.906977 -0.500000 -0.227264
v -0.781977 -0.500000 -0.227264
v -0.656977 -0.500000 -0.227264
v -0.531977 -0.500000 -0.227264
v -0.406977 -0.500000 -0.227264
v -0.281977 -0.500000 -0.227264
v -0.156977 -0.500000 -0.227264
v -0.906977 -0.500000 -0.102264
v -0.781977 -0.500000 -0.102264
v -0.656977 -0.500000 -0.102264
v -0.531977 -0.500000 -0.102264
v -0.406977 -0.500000 -0.102264
v -0.281977 -0.500000 -0.102264
v -0.156977 -0.500000 -0.102264
v -0.906977 -0.500000 0.022736
v -0.781977 -0.500000 0.022736
v -0.656977 -0.500000 0.022736
v -0.531977 -0.500000 0.022736
v -0.406977 -0.500000 0.022736
v -0.281977 -0.500000 0.022736
v -0.156977 -0.500000 0.022736
v -0.906977 -0.500000 0.147736
v -0.781977 -0.500000 0.147736
v -0.656977 -0.500000 0.147736
v -0.531977 -0.500000 0.147736
v -0.406977 -0.500000 0.147736
v -0.281977 -0.500000 0.147736
v -0.156977 -0.500000 0.147736
v -0.906977 -0.500000 0.272736
v -0.781977 -0.500000 0.272736
v -0.656977 -0.500000 0.272736
v -0.531977 -0.500000 0.272736
v -0.406977 -0.500000 0.272736
v -0.281977 -0.500000 0.272736
v -0.156977 -0.500000 0.272736
v -0.906977 -0.500000 0.397736
v -0.781977 -0.500000 0.397736
v -0.656977 -0.500000 0.397736
v -0.531977 -0.500000 0.397736
v -0.406977 -0.500000 0.397736
v -0.281977 -0.500000 0.397736
v -0.156977 -0.500000 0.397736
v -0.906977 -0.500000 0.522736
v -0.781977 -0.500000 0.522736
v -0.656977 -0.500000 0.522736
v -0.531977 -0.500000 0.522736
v -0.406977 -0.500000 0.522736
v -0.281977 -0.500000 0.522736
v -0.156977 -0.500000 0.522736
v -0.031977 -0.375000 -0.227264
v -0.031977 -0.375000 -0.102264
v -0.031977 -0.375000 0.022736
v -0.031977 -0.375000 0.147736
v -0.031977 -0.375000 0.272736
v -0.031977 -0.375000 0.397736
v -0.031977 -0.375000 0.522736
v -0.031977 -0.250000 -0.227264
v -0.031977 -0.250000 -0.102264
v -0.031977 -0.250000 0.022736
v -0.031977 -0.250000 0.147736
v -0.031977 -0.250000 0.272736
v -0.031977 -0.250000 0.397736
v -0.031977 -0.250000 0.522736
v -0.031977 -0.125000 -0.227264
v -0.031977 -0.125000 -0.102264
v -0.031977 -0.125000 0.022736
v -0.031977 -0.125000 0.147736
v -0.031977 -0.125000 0.272736
v -0.031977 -0.125000 0.397736
v -0.031977 -0.125000 0.522736
v -0.031977 0.000000 -0.227264
v -0.031977 0.000000 -0.102264
v -0.031977 0.000000 0.022736
v -0.031977 0.000000 0.147736
v -0.031977 0.000000 0.272736
v -0.031977 0.000000 0.397736
v -0.031977 0.000000 0.522736
v -0.031977 0.125000 -0.227264
v -0.031977 0.125000 -0.102264
v -0.031977 0.125000 0.022736
v -0.031977 0.125000 0.147736
v -0.031977 0.125000 0.272736
v -0.031977 0.125000 0.397736
v -0.031977 0.125000 0.522736
v -0.031977 0.250000 -0.227264
v -0.031977 0.250000 -0.102264
v -0.031977 0.250000 0.022736
v -0.031977 0.250000 0.147736
v -0.031977 0.250000 0.272736
v -0.031977 0.250000 0.397736
v -0.031977 0.250000 0.522736
v -0.031977 0.375000 -0.227264
v -0.031977 0.375000 -0.102264
v -0.031977 0.375000 0.022736
v -0.031977 0.375000 0.147736
v -0.031977 0.375000 0.272736
v -0.031977 0.375000 0.397736
v -0.031977 0.375000 0.522736
v -1.031977 -0.375000 -0.227264
v -1.031977 -0.375000 -0.102264
v -1.031977 -0.375000 0.022736
v -1.031977 -0.375000 0.147736
v -1.031977 -0.375000 0.272736
v -1.031977 -0.375000 0.397736
v -1.031977 -0.375000 0.522736
v -1.031977 -0.250000 -0.227264
v -1.031977 -0.250000 -0.102264
v -1.031977 -0.250000 0.022736
v -1.031977 -0.250000 0.147736
v -1.031977 -0.250000 0.272736
v -1.031977 -0.250000 0.397736
v -1.031977 -0.250000 0.522736
v -1.031977 -0.125000 -0.227264
v -1.031977 -0.125000 -0.102264
v -1.031977 -0.125000 0.022736
v -1.031977 -0.125000 0.147736
v -1.031977 -0.125000 0.272736
v -1.031977 -0.125000 0.397736
v -1.031977 -0.125000 0.522736
v -1.031977 0.000000 -0.227264
v -1.031977 0.000000 -0.102264
v -1.031977 0.000000 0.022736
v -1.031977 0.000000 0.147736
v -1.031977 0.000000 0.272736
v -1.031977 0.000000 0.397736
v -1.031977 0.000000 0.522736
v -1.031977 0.125000 -0.227264
v -1.031977 0.125000 -0.102264
v -1.031977 0.125000 0.022736
v -1.031977 0.125000 0.147736
v -1.031977 0.125000 0.272736
v -1.031977 0.125000 0.397736
v -1.031977 0.125000 0.522736
v -1.031977 0.250000 -0.227264
v -1.031977 0.250000 -0.102264
v -1.031977 0.250000 0.022736
v -1.031977 0.250000 0.147736
v -1.031977 0.250000 0.272736
v -1.031977 0.250000 0.397736
v -1.031977 0.250000 0.522736
v -1.031977 0.375000 -0.227264
v -1.031977 0.375000 -0.102264
v -1.031977 0.375000 0.022736
v -1.031977 0.375000 0.147736
v -1.031977 0.375000 0.272736
v -1.031977 0.375000 0.397736
v -1.031977 0.375000 0.522736
v -1.006602 -0.533521 0.633283
v -0.931173 -0.533521 0.668677
v -0.950715 -0.400140 0.688438
v -1.029838 -0.400140 0.651701
v -0.798107 -0.533521 0.668677
v -0.811136 -0.400140 0.688438
v -0.665042 -0.533521 0.668677
v -0.671556 -0.400140 0.688438
v -0.531977 -0.533521 0.668677
v -0.531977 -0.400140 0.688438
v -0.398911 -0.533521 0.668677
v -0.392397 -0.400140 0.688438
v -0.265846 -0.533521 0.668677
v -0.252817 -0.400140 0.688438
v -0.132781 -0.533521 0.668677
v -0.113238 -0.400140 0.688438
v -0.057351 -0.533521 0.633283
v -0.034116 -0.400140 0.651701
v -0.950715 -0.266760 0.688438
v -1.029838 -0.266760 0.651701
v -0.034116 -0.266760 0.651701
v -0.113238 -0.266760 0.688438
v -0.950715 -0.133380 0.688438
v -1.029838 -0.133380 0.651701
v -0.034116 -0.133380 0.651701
v -0.113238 -0.133380 0.688438
v -0.950715 0.000000 0.688438
v -1.029838 0.000000 0.651701
v -0.034116 0.000000 0.651701
v -0.113238 0.000000 0.688438
v -0.950715 0.133380 0.688438
v -1.029838 0.133380 0.651701
v -0.034116 0.133380 0.651701
v -0.113238 0.133380 0.688438
v -0.950715 0.266760 0.688438
v -1.029838 0.266760 0.651701
v -0.034116 0.266760 0.651701
v -0.113238 0.266760 0.688438
v -0.950715 0.400140 0.688438
v -1.029838 0.400140 0.651701
v -0.034116 0.400140 0.651701
v -0.113238 0.400140 0.688438
v -0.931173 0.533521 0.668677
v -1.006602 0.533521 0.633283
v -0.811136 0.400140 0.688438
v -0.798107 0.533521 0.668677
v -0.671556 0.400140 0.688438
v -0.665042 0.533521 0.668677
v -0.531977 0.400140 0.688438
v -0.531977 0.533521 0.668677
v -0.392397 0.400140 0.688438
v -0.398911 0.533521 0.668677
v -0.252817 0.400140 0.688438
v -0.265846 0.533521 0.668677
v -0.132781 0.533521 0.668677
v -0.057351 0.533521 0.633283
v -0.931743 0.533521 0.553263
v -1.064238 0.533521 0.538442
v -0.798487 0.533521 0.553263
v -0.665232 0.533521 0.553263
v -0.531977 0.533521 0.553263
v -0.398721 0.533521 0.553263
v -0.265466 0.533521 0.553263
v -0.132211 0.533521 0.553263
v 0.000284 0.533521 0.538442
v -0.931743 0.533521 0.418087
v -1.064238 0.533521 0.408207
v 0.000284 0.533521 0.408207
v -0.132211 0.533521 0.418087
v -0.931743 0.533521 0.282912
v -1.064238 0.533521 0.277971
v 0.000284 0.533521 0.277971
v -0.132211 0.533521 0.282912
v -0.931743 0.533521 0.147736
v -1.064238 0.533521 0.147736
v 0.000284 0.533521 0.147736
v -0.132211 0.533521 0.147736
v -0.931743 0.533521 0.012561
v -1.064238 0.533521 0.017501
v 0.000284 0.533521 0.017501
v -0.132211 0.533521 0.012561
v -0.931743 0.533521 -0.122615
v -1.064238 0.533521 -0.112734
v 0.000284 0.533521 -0.112734
v -0.132211 0.533521 -0.122615
v -0.931743 0.533521 -0.257790
v -1.064238 0.533521 -0.242970
v 0.000284 0.533521 -0.242970
v -0.132211 0.533521 -0.257790
v -0.931173 0.533521 -0.373205
v -1.006602 0.533521 -0.337811
v -0.798487 0.533521 -0.257790
v -0.798107 0.533521 -0.373205
v -0.665232 0.533521 -0.257790
v -0.665042 0.533521 -0.373205
v -0.531977 0.533521 -0.257790
v -0.531977 0.533521 -0.373205
v -0.398721 0.533521 -0.257790
v -0.398911 0.533521 -0.373205
v -0.265466 0.533521 -0.257790
v -0.265846 0.533521 -0.373205
v -0.132781 0.533521 -0.373205
v -0.057351 0.533521 -0.337811
v -0.950715 0.400140 -0.392966
v -1.029838 0.400140 -0.356229
v -0.811136 0.400140 -0.392966
v -0.671556 0.400140 -0.392966
v -0.531977 0.400140 -0.392966
v -0.392397 0.400140 -0.392966
v -0.252817 0.400140 -0.392966
v -0.113238 0.400140 -0.392966
v -0.034116 0.400140 -0.356229
v -0.950715 0.266760 -0.392966
v -1.029838 0.266760 -0.356229
v -0.034116 0.266760 -0.356229
v -0.113238 0.266760 -0.392966
v -0.950715 0.133380 -0.392966
v -1.029838 0.133380 -0.356229
v -0.034116 0.133380 -0.356229
v -0.113238 0.133380 -0.392966
v -0.950715 0.000000 -0.392966
v -1.029838 0.000000 -0.356229
v -0.034116 0.000000 -0.356229
v -0.113238 0.000000 -0.392966
v -0.950715 -0.133380 -0.392966
v -1.029838 -0.133380 -0.356229
v -0.034116 -0.133380 -0.356229
v -0.113238 -0.133380 -0.392966
v -0.950715 -0.266760 -0.392966
v -1.029838 -0.266760 -0.356229
v -0.034116 -0.266760 -0.356229
v -0.113238 -0.266760 -0.392966
v -0.950715 -0.400140 -0.392966
v -1.029838 -0.400140 -0.356229
v -0.034116 -0.400140 -0.356229
v -0.113238 -0.400140 -0.392966
v -0.931173 -0.533521 -0.373205
v -1.006602 -0.533521 -0.337811
v -0.811136 -0.400140 -0.392966
v -0.798107 -0.533521 -0.373205
v -0.671556 -0.400140 -0.392966
v -0.665042 -0.533521 -0.373205
v -0.531977 -0.400140 -0.392966
v -0.531977 -0.533521 -0.373205
v -0.392397 -0.400140 -0.392966
v -0.398911 -0.533521 -0.373205
v -0.252817 -0.400140 -0.392966
v -0.265846 -0.533521 -0.373205
v -0.132781 -0.533521 -0.373205
v -0.057351 -0.533521 -0.337811
v -0.931743 -0.533521 -0.257790
v -1.064238 -0.533521 -0.242970
v -0.798487 -0.533521 -0.257790
v -0.665232 -0.533521 -0.257790
v -0.531977 -0.533521 -0.257790
v -0.398721 -0.533521 -0.257790
v -0.265466 -0.533521 -0.257790
v -0.132211 -0.533521 -0.257790
v 0.000284 -0.533521 -0.242970
v -0.931743 -0.533521 -0.122615
v -1.064238 -0.533521 -0.112734
v 0.000284 -0.533521 -0.112734
v -0.132211 -0.533521 -0.122615
v -0.931743 -0.533521 0.012561
v -1.064238 -0.533521 0.017501
v 0.000284 -0.533521 0.017501
v -0.132211 -0.533521 0.012561
v -0.931743 -0.533521 0.147736
v -1.064238 -0.533521 0.147736
v 0.000284 -0.533521 0.147736
v -0.132211 -0.533521 0.147736
v -0.931743 -0.533521 0.282912
v -1.064238 -0.533521 0.277971
v 0.000284 -0.533521 0.277971
v -0.132211 -0.533521 0.282912
v -0.931743 -0.533521 0.418087
v -1.064238 -0.533521 0.408207
v 0.000284 -0.533521 0.408207
v -0.132211 -0.533521 0.418087
v -0.931743 -0.533521 0.553263
v -1.064238 -0.533521 0.538442
v 0.000284 -0.533521 0.538442
v -0.132211 -0.533521 0.553263
v -0.798487 -0.533521 0.553263
v -0.665232 -0.533521 0.553263
v -0.531977 -0.533521 0.553263
v -0.398721 -0.533521 0.553263
v -0.265466 -0.533521 0.553263
v 0.026342 -0.400140 -0.257790
v 0.026342 -0.400140 -0.122615
v 0.026342 -0.400140 0.012561
v 0.026342 -0.400140 0.147736
v 0.026342 -0.400140 0.282912
v 0.026342 -0.400140 0.418087
v 0.026342 -0.400140 0.553263
v 0.026342 -0.266760 -0.257790
v 0.026342 -0.266760 0.553263
v 0.026342 -0.133380 -0.257790
v 0.026342 -0.133380 0.553263
v 0.026342 0.000000 -0.257790
v 0.026342 0.000000 0.553263
v 0.026342 0.133380 -0.257790
v 0.026342 0.133380 0.553263
v 0.026342 0.266760 -0.257790
v 0.026342 0.266760 0.553263
v 0.026342 0.400140 -0.257790
v 0.026342 0.400140 0.553263
v 0.026342 0.400140 -0.122615
v 0.026342 0.400140 0.012561
v 0.026342 0.400140 0.147736
v 0.026342 0.400140 0.282912
v 0.026342 0.400140 0.418087
v -1.090295 -0.400140 -0.257790
v -1.090295 -0.400140 -0.122615
v -1.090295 -0.400140 0.012561
v -1.090295 -0.400140 0.147736
v -1.090295 -0.400140 0.282912
v -1.090295 -0.400140 0.418087
v -1.090295 -0.400140 0.553263
v -1.090295 -0.266760 -0.257790
v -1.090295 -0.266760 0.553263
v -1.090295 -0.133380 -0.257790
v -1.090295 -0.133380 0.553263
v -1.090295 0.000000 -0.257790
v -1.090295 0.000000 0.553263
v -1.090295 0.133380 -0.257790
v -1.090295 0.133380 0.553263
v -1.090295 0.266760 -0.257790
v -1.090295 0.266760 0.553263
v -1.090295 0.400140 -0.257790
v -1.090295 0.400140 0.553263
v -1.090295 0.400140 -0.122615
v -1.090295 0.400140 0.012561
v -1.090295 0.400140 0.147736
v -1.090295 0.400140 0.282912
v -1.090295 0.400140 0.418087
vt 0.375000 0.000000
vt 0.406250 0.000000
vt 0.437500 0.000000
vt 0.468750 0.000000
vt 0.500000 0.000000
vt 0.531250 0.000000
vt 0.562500 0.000000
vt 0.593750 0.000000
vt 0.625000 0.000000
vt 0.375000 0.031250
vt 0.406250 0.031250
vt 0.437500 0.031250
vt 0.468750 0.031250
vt 0.500000 0.031250
vt 0.531250 0.031250
vt 0.562500 0.031250
vt 0.593750 0.031250
vt 0.625000 0.031250
vt 0.375000 0.062500
vt 0.406250 0.062500
vt 0.437500 0.062500
vt 0.468750 0.062500
vt 0.500000 0.062500
vt 0.531250 0.062500
vt 0.562500 0.062500
vt 0.593750 0.062500
vt 0.625000 0.062500
vt 0.375000 0.093750
vt 0.406250 0.093750
vt 0.437500 0.093750
vt 0.468750 0.093750
vt 0.500000 0.093750
vt 0.531250 0.093750
vt 0.562500 0.093750
vt 0.593750 0.093750
vt 0.625000 0.093750
vt 0.375000 0.125000
vt 0.406250 0.125000
vt 0.437500 0.125000
vt 0.468750 0.125000
vt 0.500000 0.125000
vt 0.531250 0.125000
vt 0.562500 0.125000
vt 0.593750 0.125000
vt 0.625000 0.125000
vt 0.375000 0.156250
vt 0.406250 0.156250
vt 0.437500 0.156250
vt 0.468750 0.156250
vt 0.500000 0.156250
vt 0.531250 0.156250
vt 0.562500 0.156250
vt 0.593750 0.156250
vt 0.625000 0.156250
vt 0.375000 0.187500
vt 0.406250 0.187500
vt 0.437500 0.187500
vt 0.468750 0.187500
vt 0.500000 0.187500
vt 0.531250 0.187500
vt 0.562500 0.187500
vt 0.593750 0.187500
vt 0.625000 0.187500
vt 0.375000 0.218750
vt 0.406250 0.218750
vt 0.437500 0.218750
vt 0.468750 0.218750
vt 0.500000 0.218750
vt 0.531250 0.218750
vt 0.562500 0.218750
vt 0.593750 0.218750
vt 0.625000 0.218750
vt 0.375000 0.250000
vt 0.406250 0.250000
vt 0.437500 0.250000
vt 0.468750 0.250000
vt 0.500000 0.250000
vt 0.531250 0.250000
vt 0.562500 0.250000
vt 0.593750 0.250000
vt 0.625000 0.250000
vt 0.375000 0.281250
vt 0.406250 0.281250
vt 0.437500 0.281250
vt 0.468750 0.281250
vt 0.500000 0.281250
vt 0.531250 0.281250
vt 0.562500 0.281250
vt 0.593750 0.281250
vt 0.625000 0.281250
vt 0.375000 0.312500
vt 0.406250 0.312500
vt 0.437500 0.312500
vt 0.468750 0.312500
vt 0.500000 0.312500
vt 0.531250 0.312500
vt 0.562500 0.312500
vt 0.593750 0.312500
vt 0.625000 0.312500
vt 0.375000 0.343750
vt 0.406250 0.343750
vt 0.437500 0.343750
vt 0.468750 0.343750
vt 0.500000 0.343750
vt 0.531250 0.343750
vt 0.562500 0.343750
vt 0.593750 0.343750
vt 0.625000 0.343750
vt 0.375000 0.375000
vt 0.406250 0.375000
vt 0.437500 0.375000
vt 0.468750 0.375000
vt 0.500000 0.375000
vt 0.531250 0.375000
vt 0.562500 0.375000
vt 0.593750 0.375000
vt 0.625000 0.375000
vt 0.375000 0.406250
vt 0.406250 0.406250
vt 0.437500 0.406250
vt 0.468750 0.406250
vt 0.500000 0.406250
vt 0.531250 0.406250
vt 0.562500 0.406250
vt 0.593750 0.406250
vt 0.625000 0.406250
vt 0.375000 0.437500
vt 0.406250 0.437500
vt 0.437500 0.437500
vt 0.468750 0.437500
vt 0.500000 0.437500
vt 0.531250 0.437500
vt 0.562500 0.437500
vt 0.593750 0.437500
vt 0.625000 0.437500
vt 0.375000 0.468750
vt 0.406250 0.468750
vt 0.437500 0.468750
vt 0.468750 0.468750
vt 0.500000 0.468750
vt 0.531250 0.468750
vt 0.562500 0.468750
vt 0.593750 0.468750
vt 0.625000 0.468750
vt 0.375000 0.500000
vt 0.406250 0.500000
vt 0.437500 0.500000
vt 0.468750 0.500000
vt 0.500000 0.500000
vt 0.531250 0.500000
vt 0.562500 0.500000
vt 0.593750 0.500000
vt 0.625000 0.500000
vt 0.375000 0.531250
vt 0.406250 0.531250
vt 0.437500 0.531250
vt 0.468750 0.531250
vt 0.500000 0.531250
vt 0.531250 0.531250
vt 0.562500 0.531250
vt 0.593750 0.531250
vt 0.625000 0.531250
vt 0.375000 0.562500
vt 0.406250 0.562500
vt 0.437500 0.562500
vt 0.468750 0.562500
vt 0.500000 0.562500
vt 0.531250 0.562500
vt 0.562500 0.562500
vt 0.593750 0.562500
vt 0.625000 0.562500
vt 0.375000 0.593750
vt 0.406250 0.593750
vt 0.437500 0.593750
vt 0.468750 0.593750
vt 0.500000 0.593750
vt 0.531250 0.593750
vt 0.562500 0.593750
vt 0.593750 0.593750
vt 0.625000 0.593750
vt 0.375000 0.625000
vt 0.406250 0.625000
vt 0.437500 0.625000
vt 0.468750 0.625000
vt 0.500000 0.625000
vt 0.531250 0.625000
vt 0.562500 0.625000
vt 0.593750 0.625000
vt 0.625000 0.625000
vt 0.375000 0.656250
vt 0.406250 0.656250
vt 0.437500 0.656250
vt 0.468750 0.656250
vt 0.500000 0.656250
vt 0.531250 0.656250
vt 0.562500 0.656250
vt 0.593750 0.656250
vt 0.625000 0.656250
vt 0.375000 0.687500
vt 0.406250 0.687500
vt 0.437500 0.687500
vt 0.468750 0.687500
vt 0.500000 0.687500
vt 0.531250 0.687500
vt 0.562500 0.687500
vt 0.593750 0.687500
vt 0.625000 0.687500
vt 0.375000 0.718750
vt 0.406250 0.718750
vt 0.437500 0.718750
vt 0.468750 0.718750
vt 0.500000 0.718750
vt 0.531250 0.718750
vt 0.562500 0.718750
vt 0.593750 0.718750
vt 0.625000 0.718750
vt 0.375000 0.750000
vt 0.406250 0.750000
vt 0.437500 0.750000
vt 0.468750 0.750000
vt 0.500000 0.750000
vt 0.531250 0.750000
vt 0.562500 0.750000
vt 0.593750 0.750000
vt 0.625000 0.750000
vt 0.375000 0.781250
vt 0.406250 0.781250
vt 0.437500 0.781250
vt 0.468750 0.781250
vt 0.500000 0.781250
vt 0.531250 0.781250
vt 0.562500 0.781250
vt 0.593750 0.781250
vt 0.625000 0.781250
vt 0.375000 0.812500
vt 0.406250 0.812500
vt 0.437500 0.812500
vt 0.468750 0.812500
vt 0.500000 0.812500
vt 0.531250 0.812500
vt 0.562500 0.812500
vt 0.593750 0.812500
vt 0.625000 0.812500
vt 0.375000 0.843750
vt 0.406250 0.843750
vt 0.437500 0.843750
vt 0.468750 0.843750
vt 0.500000 0.843750
vt 0.531250 0.843750
vt 0.562500 0.843750
vt 0.593750 0.843750
vt 0.625000 0.843750
vt 0.375000 0.875000
vt 0.406250 0.875000
vt 0.437500 0.875000
vt 0.468750 0.875000
vt 0.500000 0.875000
vt 0.531250 0.875000
vt 0.562500 0.875000
vt 0.593750 0.875000
vt 0.625000 0.875000
vt 0.375000 0.906250
vt 0.406250 0.906250
vt 0.437500 0.906250
vt 0.468750 0.906250
vt 0.500000 0.906250
vt 0.531250 0.906250
vt 0.562500 0.906250
vt 0.593750 0.906250
vt 0.625000 0.906250
vt 0.375000 0.937500
vt 0.406250 0.937500
vt 0.437500 0.937500
vt 0.468750 0.937500
vt 0.500000 0.937500
vt 0.531250 0.937500
vt 0.562500 0.937500
vt 0.593750 0.937500
vt 0.625000 0.937500
vt 0.375000 0.968750
vt 0.406250 0.968750
vt 0.437500 0.968750
vt 0.468750 0.968750
vt 0.500000 0.968750
vt 0.531250 0.968750
vt 0.562500 0.968750
vt 0.593750 0.968750
vt 0.625000 0.968750
vt 0.375000 1.000000
vt 0.406250 1.000000
vt 0.437500 1.000000
vt 0.468750 1.000000
vt 0.500000 1.000000
vt 0.531250 1.000000
vt 0.562500 1.000000
vt 0.593750 1.000000
vt 0.625000 1.000000
vt 0.875000 0.000000
vt 0.843750 0.000000
vt 0.812500 0.000000
vt 0.781250 0.000000
vt 0.750000 0.000000
vt 0.718750 0.000000
vt 0.687500 0.000000
vt 0.656250 0.000000
vt 0.875000 0.031250
vt 0.843750 0.031250
vt 0.812500 0.031250
vt 0.781250 0.031250
vt 0.750000 0.031250
vt 0.718750 0.031250
vt 0.687500 0.031250
vt 0.656250 0.031250
vt 0.875000 0.062500
vt 0.843750 0.062500
vt 0.812500 0.062500
vt 0.781250 0.062500
vt 0.750000 0.062500
vt 0.718750 0.062500
vt 0.687500 0.062500
vt 0.656250 0.062500
vt 0.875000 0.093750
vt 0.843750 0.093750
vt 0.812500 0.093750
vt 0.781250 0.093750
vt 0.750000 0.093750
vt 0.718750 0.093750
vt 0.687500 0.093750
vt 0.656250 0.093750
vt 0.875000 0.125000
vt 0.843750 0.125000
vt 0.812500 0.125000
vt 0.781250 0.125000
vt 0.750000 0.125000
vt 0.718750 0.125000
vt 0.687500 0.125000
vt 0.656250 0.125000
vt 0.875000 0.156250
vt 0.843750 0.156250
vt 0.812500 0.156250
vt 0.781250 0.156250
vt 0.750000 0.156250
vt 0.718750 0.156250
vt 0.687500 0.156250
vt 0.656250 0.156250
vt 0.875000 0.187500
vt 0.843750 0.187500
vt 0.812500 0.187500
vt 0.781250 0.187500
vt 0.750000 0.187500
vt 0.718750 0.187500
vt 0.687500 0.187500
vt 0.656250 0.187500
vt 0.875000 0.218750
vt 0.843750 0.218750
vt 0.812500 0.218750
vt 0.781250 0.218750
vt 0.750000 0.218750
vt 0.718750 0.218750
vt 0.687500 0.218750
vt 0.656250 0.218750
vt 0.875000 0.250000
vt 0.843750 0.250000
vt 0.812500 0.250000
vt 0.781250 0.250000
vt 0.750000 0.250000
vt 0.718750 0.250000
vt 0.687500 0.250000
vt 0.656250 0.250000
vt 0.125000 0.000000
vt 0.156250 0.000000
vt 0.187500 0.000000
vt 0.218750 0.000000
vt 0.250000 0.000000
vt 0.281250 0.000000
vt 0.312500 0.000000
vt 0.343750 0.000000
vt 0.125000 0.031250
vt 0.156250 0.031250
vt 0.187500 0.031250
vt 0.218750 0.031250
vt 0.250000 0.031250
vt 0.281250 0.031250
vt 0.312500 0.031250
vt 0.343750 0.031250
vt 0.125000 0.062500
vt 0.156250 0.062500
vt 0.187500 0.062500
vt 0.218750 0.062500
vt 0.250000 0.062500
vt 0.281250 0.062500
vt 0.312500 0.062500
vt 0.343750 0.062500
vt 0.125000 0.093750
vt 0.156250 0.093750
vt 0.187500 0.093750
vt 0.218750 0.093750
vt 0.250000 0.093750
vt 0.281250 0.093750
vt 0.312500 0.093750
vt 0.343750 0.093750
vt 0.125000 0.125000
vt 0.156250 0.125000
vt 0.187500 0.125000
vt 0.218750 0.125000
vt 0.250000 0.125000
vt 0.281250 0.125000
vt 0.312500 0.125000
vt 0.343750 0.125000
vt 0.125000 0.156250
vt 0.156250 0.156250
vt 0.187500 0.156250
vt 0.218750 0.156250
vt 0.250000 0.156250
vt 0.281250 0.156250
vt 0.312500 0.156250
vt 0.343750 0.156250
vt 0.125000 0.187500
vt 0.156250 0.187500
vt 0.187500 0.187500
vt 0.218750 0.187500
vt 0.250000 0.187500
vt 0.281250 0.187500
vt 0.312500 0.187500
vt 0.343750 0.187500
vt 0.125000 0.218750
vt 0.156250 0.218750
vt 0.187500 0.218750
vt 0.218750 0.218750
vt 0.250000 0.218750
vt 0.281250 0.218750
vt 0.312500 0.218750
vt 0.343750 0.218750
vt 0.125000 0.250000
vt 0.156250 0.250000
vt 0.187500 0.250000
vt 0.218750 0.250000
vt 0.250000 0.250000
vt 0.281250 0.250000
vt 0.312500 0.250000
vt 0.343750 0.250000
vt 0.437500 0.031250
vt 0.406250 0.031250
vt 0.468750 0.031250
vt 0.500000 0.031250
vt 0.531250 0.031250
vt 0.562500 0.031250
vt 0.593750 0.031250
vt 0.406250 0.062500
vt 0.593750 0.062500
vt 0.406250 0.093750
vt 0.593750 0.093750
vt 0.406250 0.125000
vt 0.593750 0.125000
vt 0.406250 0.156250
vt 0.593750 0.156250
vt 0.406250 0.187500
vt 0.593750 0.187500
vt 0.406250 0.218750
vt 0.593750 0.218750
vt 0.437500 0.218750
vt 0.468750 0.218750
vt 0.500000 0.218750
vt 0.531250 0.218750
vt 0.562500 0.218750
vt 0.437500 0.281250
vt 0.406250 0.281250
vt 0.468750 0.281250
vt 0.500000 0.281250
vt 0.531250 0.281250
vt 0.562500 0.281250
vt 0.593750 0.281250
vt 0.406250 0.312500
vt 0.593750 0.312500
vt 0.406250 0.343750
vt 0.593750 0.343750
vt 0.406250 0.375000
vt 0.593750 0.375000
vt 0.406250 0.406250
vt 0.593750 0.406250
vt 0.406250 0.437500
vt 0.593750 0.437500
vt 0.406250 0.468750
vt 0.593750 0.468750
vt 0.437500 0.468750
vt 0.468750 0.468750
vt 0.500000 0.468750
vt 0.531250 0.468750
vt 0.562500 0.468750
vt 0.437500 0.531250
vt 0.406250 0.531250
vt 0.468750 0.531250
vt 0.500000 0.531250
vt 0.531250 0.531250
vt 0.562500 0.531250
vt 0.593750 0.531250
vt 0.406250 0.562500
vt 0.593750 0.562500
vt 0.406250 0.593750
vt 0.593750 0.593750
vt 0.406250 0.625000
vt 0.593750 0.625000
vt 0.406250 0.656250
vt 0.593750 0.656250
vt 0.406250 0.687500
vt 0.593750 0.687500
vt 0.406250 0.718750
vt 0.593750 0.718750
vt 0.437500 0.718750
vt 0.468750 0.718750
vt 0.500000 0.718750
vt 0.531250 0.718750
vt 0.562500 0.718750
vt 0.437500 0.781250
vt 0.406250 0.781250
vt 0.468750 0.781250
vt 0.500000 0.781250
vt 0.531250 0.781250
vt 0.562500 0.781250
vt 0.593750 0.781250
vt 0.406250 0.812500
vt 0.593750 0.812500
vt 0.406250 0.843750
vt 0.593750 0.843750
vt 0.406250 0.875000
vt 0.593750 0.875000
vt 0.406250 0.906250
vt 0.593750 0.906250
vt 0.406250 0.937500
vt 0.593750 0.937500
vt 0.406250 0.968750
vt 0.593750 0.968750
vt 0.437500 0.968750
vt 0.468750 0.968750
vt 0.500000 0.968750
vt 0.531250 0.968750
vt 0.562500 0.968750
vt 0.843750 0.031250
vt 0.812500 0.031250
vt 0.781250 0.031250
vt 0.750000 0.031250
vt 0.718750 0.031250
vt 0.687500 0.031250
vt 0.656250 0.031250
vt 0.843750 0.062500
vt 0.656250 0.062500
vt 0.843750 0.093750
vt 0.656250 0.093750
vt 0.843750 0.125000
vt 0.656250 0.125000
vt 0.843750 0.156250
vt 0.656250 0.156250
vt 0.843750 0.187500
vt 0.656250 0.187500
vt 0.843750 0.218750
vt 0.656250 0.218750
vt 0.812500 0.218750
vt 0.781250 0.218750
vt 0.750000 0.218750
vt 0.718750 0.218750
vt 0.687500 0.218750
vt 0.187500 0.031250
vt 0.156250 0.031250
vt 0.218750 0.031250
vt 0.250000 0.031250
vt 0.281250 0.031250
vt 0.312500 0.031250
vt 0.343750 0.031250
vt 0.156250 0.062500
vt 0.343750 0.062500
vt 0.156250 0.093750
vt 0.343750 0.093750
vt 0.156250 0.125000
vt 0.343750 0.125000
vt 0.156250 0.156250
vt 0.343750 0.156250
vt 0.156250 0.187500
vt 0.343750 0.187500
vt 0.156250 0.218750
vt 0.343750 0.218750
vt 0.187500 0.218750
vt 0.218750 0.218750
vt 0.250000 0.218750
vt 0.281250 0.218750
vt 0.312500 0.218750
vn -0.414903 -0.193771 0.888993
vn -0.150912 -0.166930 0.974351
vn -0.251811 -0.121628 0.960103
vn -0.420113 -0.094052 0.902585
vn 0.000000 -0.146557 0.989202
vn 0.000000 -0.146557 0.989202
vn 0.000000 -0.146557 0.989202
vn 0.000000 -0.146557 0.989202
vn 0.000000 -0.146557 0.989202
vn 0.000000 -0.146557 0.989202
vn 0.000000 -0.146557 0.989202
vn 0.000000 -0.146557 0.989202
vn 0.000000 -0.146557 0.989202
vn 0.000000 -0.146557 0.989202
vn 0.150912 -0.166930 0.974351
vn 0.251812 -0.121628 0.960103
vn 0.414904 -0.193771 0.888992
vn 0.420114 -0.094052 0.902584
vn -0.421125 0.000000 0.907003
vn -0.421125 0.000000 0.907003
vn 0.000000 0.000000 1.000000
vn 0.000000 0.000000 1.000000
vn 0.000000 0.000000 1.000000
vn 0.000000 0.000000 1.000000
vn 0.000000 0.000000 1.000000
vn 0.000000 0.000000 1.000000
vn 0.000000 0.000000 1.000000
vn 0.000000 0.000000 1.000000
vn 0.000000 0.000000 1.000000
vn 0.000000 0.000000 1.000000
vn 0.000000 0.000000 1.000000
vn 0.000000 0.000000 1.000000
vn 0.000000 0.000000 1.000000
vn 0.000000 0.000000 1.000000
vn 0.421126 0.000000 0.907002
vn 0.421126 0.000000 0.907002
vn -0.421125 0.000000 0.907003
vn -0.421125 0.000000 0.907003
vn 0.000000 0.000000 1.000000
vn 0.000000 0.000000 1.000000
vn 0.000000 0.000000 1.000000
vn 0.000000 0.000000 1.000000
vn 0.000000 0.000000 1.000000
vn 0.000000 0.000000 1.000000
vn 0.000000 0.000000 1.000000
vn 0.421126 0.000000 0.907002
vn 0.421126 0.000000 0.907002
vn -0.421125 0.000000 0.907003
vn -0.421125 0.000000 0.907003
vn 0.000000 0.000000 1.000000
vn 0.000000 0.000000 1.000000
vn 0.000000 0.000000 1.000000
vn 0.000000 0.000000 1.000000
vn 0.000000 0.000000 1.000000
vn 0.000000 0.000000 1.000000
vn 0.000000 0.000000 1.000000
vn 0.421126 0.000000 0.907002
vn 0.421126 0.000000 0.907002
vn -0.421125 0.000000 0.907003
vn -0.421125 0.000000 0.907003
vn 0.000000 0.000000 1.000000
vn 0.000000 0.000000 1.000000
vn 0.000000 0.000000 1.000000
vn 0.000000 0.000000 1.000000
vn 0.000000 0.000000 1.000000
vn 0.000000 0.000000 1.000000
vn 0.000000 0.000000 1.000000
vn 0.421126 0.000000 0.907002
vn 0.421126 0.000000 0.907002
vn -0.421125 0.000000 0.907003
vn -0.421125 0.000000 0.907003
vn 0.000000 0.000000 1.000000
vn 0.000000 0.000000 1.000000
vn 0.000000 0.000000 1.000000
vn 0.000000 0.000000 1.000000
vn 0.000000 0.000000 1.000000
vn 0.000000 0.000000 1.000000
vn 0.000000 0.000000 1.000000
vn 0.421126 0.000000 0.907002
vn 0.421126 0.000000 0.907002
vn -0.251811 0.121628 0.960103
vn -0.420113 0.094052 0.902585
vn 0.000000 0.000000 1.000000
vn 0.000000 0.000000 1.000000
vn 0.000000 0.000000 1.000000
vn 0.000000 0.000000 1.000000
vn 0.000000 0.000000 1.000000
vn 0.000000 0.000000 1.000000
vn 0.000000 0.000000 1.000000
vn 0.420114 0.094052 0.902584
vn 0.251812 0.121628 0.960103
vn -0.150912 0.166930 0.974351
vn -0.414903 0.193771 0.888993
vn 0.000000 0.146557 0.989202
vn 0.000000 0.146557 0.989202
vn 0.000000 0.146557 0.989202
vn 0.000000 0.146557 0.989202
vn 0.000000 0.146557 0.989202
vn 0.000000 0.146557 0.989202
vn 0.000000 0.146557 0.989202
vn 0.000000 0.146557 0.989202
vn 0.000000 0.146557 0.989202
vn 0.000000 0.146557 0.989202
vn 0.150912 0.166930 0.974351
vn 0.414904 0.193771 0.888992
vn 0.000000 1.000000 -0.000001
vn 0.000000 1.000000 -0.000000
vn 0.000000 1.000000 -0.000000
vn 0.000000 1.000000 -0.000000
vn 0.000000 1.000000 0.000000
vn 0.000000 1.000000 0.000000
vn 0.000000 1.000000 -0.000000
vn 0.000000 1.000000 -0.000000
vn 0.000000 1.000000 -0.000000
vn 0.000000 1.000000 -0.000000
vn 0.000000 1.000000 -0.000000
vn 0.000000 1.000000 -0.000000
vn 0.000000 1.000000 -0.000000
vn 0.000000 1.000000 -0.000000
vn 0.000000 1.000000 -0.000000
vn 0.000000 1.000000 -0.000000
vn 0.000000 1.000000 -0.000000
vn 0.000000 1.000000 -0.000000
vn 0.000000 1.000000 0.000000
vn 0.000000 1.000000 0.000000
vn 0.000000 1.000000 0.000000
vn 0.000000 1.000000 0.000000
vn 0.000000 1.000000 0.000000
vn 0.000000 1.000000 0.000000
vn 0.000000 1.000000 0.000000
vn 0.000000 1.000000 0.000000
vn 0.000000 1.000000 0.000000
vn 0.000000 1.000000 0.000000
vn 0.000000 1.000000 0.000000
vn 0.000000 1.000000 0.000000
vn 0.000000 1.000000 0.000000
vn 0.000000 1.000000 0.000000
vn 0.000000 1.000000 0.000000
vn 0.000000 1.000000 0.000000
vn 0.000000 1.000000 0.000000
vn 0.000000 1.000000 0.000000
vn 0.000000 1.000000 0.000000
vn 0.000000 1.000000 0.000000
vn 0.000000 1.000000 0.000000
vn 0.000000 1.000000 0.000000
vn 0.000000 1.000000 0.000000
vn 0.000000 1.000000 0.000000
vn 0.000000 1.000000 0.000000
vn 0.000000 1.000000 0.000000
vn 0.000000 1.000000 0.000000
vn 0.000000 1.000000 0.000000
vn 0.000000 1.000000 0.000000
vn 0.000000 1.000000 0.000000
vn 0.000000 1.000000 0.000000
vn 0.000000 1.000000 0.000000
vn 0.000000 1.000000 0.000000
vn 0.000000 1.000000 0.000000
vn 0.000000 1.000000 0.000000
vn 0.000000 1.000000 0.000000
vn 0.000000 1.000000 0.000000
vn 0.000000 1.000000 0.000000
vn 0.000000 1.000000 0.000000
vn 0.000000 1.000000 0.000000
vn 0.000000 1.000000 0.000000
vn 0.000000 1.000000 0.000000
vn 0.000000 1.000000 0.000000
vn 0.000000 1.000000 0.000000
vn 0.000000 1.000000 0.000000
vn 0.000000 1.000000 0.000000
vn 0.000000 1.000000 0.000000
vn 0.000000 1.000000 0.000000
vn 0.000000 1.000000 0.000000
vn 0.000000 1.000000 0.000000
vn 0.000000 1.000000 0.000000
vn 0.000000 1.000000 0.000000
vn 0.000000 1.000000 0.000000
vn 0.000000 1.000000 0.000000
vn 0.000000 1.000000 0.000000
vn 0.000000 1.000000 0.000000
vn 0.000000 1.000000 0.000000
vn 0.000000 1.000000 0.000000
vn 0.000000 1.000000 0.000000
vn 0.000000 1.000000 0.000000
vn 0.000000 1.000000 0.000000
vn 0.000000 1.000000 0.000000
vn 0.000000 1.000000 -0.000000
vn 0.000000 1.000000 0.000000
vn 0.000000 1.000000 0.000000
vn 0.000000 1.000000 0.000000
vn 0.000000 1.000000 0.000000
vn 0.000000 1.000000 0.000000
vn 0.000000 1.000000 0.000000
vn 0.000000 1.000000 0.000000
vn 0.000000 1.000000 0.000000
vn 0.000000 1.000000 0.000000
vn 0.000000 1.000000 0.000000
vn 0.000000 1.000000 -0.000000
vn 0.000000 1.000000 0.000000
vn 0.000000 1.000000 -0.000000
vn 0.000000 1.000000 -0.000000
vn 0.000000 1.000000 0.000000
vn 0.000000 1.000000 0.000000
vn 0.000000 1.000000 0.000000
vn 0.000000 1.000000 0.000000
vn 0.000000 1.000000 0.000000
vn 0.000000 1.000000 0.000000
vn 0.000000 1.000000 0.000000
vn 0.000000 1.000000 0.000000
vn 0.000000 1.000000 0.000000
vn 0.000000 1.000000 0.000000
vn -0.414903 0.193771 -0.888993
vn -0.150912 0.166930 -0.974351
vn -0.251811 0.121628 -0.960103
vn -0.420113 0.094052 -0.902585
vn 0.000000 0.146557 -0.989202
vn 0.000000 0.146557 -0.989202
vn 0.000000 0.146557 -0.989202
vn 0.000000 0.146557 -0.989202
vn 0.000000 0.146557 -0.989202
vn 0.000000 0.146557 -0.989202
vn 0.000000 0.146557 -0.989202
vn 0.000000 0.146557 -0.989202
vn 0.000000 0.146557 -0.989202
vn 0.000000 0.146557 -0.989202
vn 0.150912 0.166930 -0.974351
vn 0.251812 0.121628 -0.960103
vn 0.414904 0.193771 -0.888992
vn 0.420114 0.094052 -0.902584
vn -0.421125 0.000000 -0.907003
vn -0.421125 0.000000 -0.907003
vn 0.000000 0.000000 -1.000000
vn 0.000000 0.000000 -1.000000
vn 0.000000 0.000000 -1.000000
vn 0.000000 0.000000 -1.000000
vn 0.000000 0.000000 -1.000000
vn 0.000000 0.000000 -1.000000
vn 0.000000 0.000000 -1.000000
vn 0.000000 0.000000 -1.000000
vn 0.000000 0.000000 -1.000000
vn 0.000000 0.000000 -1.000000
vn 0.000000 0.000000 -1.000000
vn 0.000000 0.000000 -1.000000
vn 0.000000 0.000000 -1.000000
vn 0.000000 0.000000 -1.000000
vn 0.421126 0.000000 -0.907002
vn 0.421126 0.000000 -0.907002
vn -0.421125 0.000000 -0.907003
vn -0.421125 0.000000 -0.907003
vn 0.000000 0.000000 -1.000000
vn 0.000000 0.000000 -1.000000
vn 0.000000 0.000000 -1.000000
vn 0.000000 0.000000 -1.000000
vn 0.000000 0.000000 -1.000000
vn 0.000000 0.000000 -1.000000
vn 0.000000 0.000000 -1.000000
vn 0.421126 0.000000 -0.907002
vn 0.421126 0.000000 -0.907002
vn -0.421125 0.000000 -0.907003
vn -0.421125 0.000000 -0.907003
vn 0.000000 0.000000 -1.000000
vn 0.000000 0.000000 -1.000000
vn 0.000000 0.000000 -1.000000
vn 0.000000 0.000000 -1.000000
vn 0.000000 0.000000 -1.000000
vn 0.000000 0.000000 -1.000000
vn 0.000000 0.000000 -1.000000
vn 0.421126 0.000000 -0.907002
vn 0.421126 0.000000 -0.907002
vn -0.421125 0.000000 -0.907003
vn -0.421125 0.000000 -0.907003
vn 0.000000 0.000000 -1.000000
vn 0.000000 0.000000 -1.000000
vn 0.000000 0.000000 -1.000000
vn 0.000000 0.000000 -1.000000
vn 0.000000 0.000000 -1.000000
vn 0.000000 0.000000 -1.000000
vn 0.000000 0.000000 -1.000000
vn 0.421126 0.000000 -0.907002
vn 0.421126 0.000000 -0.907002
vn -0.421125 0.000000 -0.907003
vn -0.421125 0.000000 -0.907003
vn 0.000000 0.000000 -1.000000
vn 0.000000 0.000000 -1.000000
vn 0.000000 0.000000 -1.000000
vn 0.000000 0.000000 -1.000000
vn 0.000000 0.000000 -1.000000
vn 0.000000 0.000000 -1.000000
vn 0.000000 0.000000 -1.000000
vn 0.421126 0.000000 -0.907002
vn 0.421126 0.000000 -0.907002
vn -0.251811 -0.121628 -0.960103
vn -0.420113 -0.094052 -0.902585
vn 0.000000 0.000000 -1.000000
vn 0.000000 0.000000 -1.000000
vn 0.000000 0.000000 -1.000000
vn 0.000000 0.000000 -1.000000
vn 0.000000 0.000000 -1.000000
vn 0.000000 0.000000 -1.000000
vn 0.000000 0.000000 -1.000000
vn 0.420114 -0.094052 -0.902584
vn 0.251812 -0.121628 -0.960103
vn -0.150912 -0.166930 -0.974351
vn -0.414903 -0.193771 -0.888993
vn 0.000000 -0.146557 -0.989202
vn 0.000000 -0.146557 -0.989202
vn 0.000000 -0.146557 -0.989202
vn 0.000000 -0.146557 -0.989202
vn 0.000000 -0.146557 -0.989202
vn 0.000000 -0.146557 -0.989202
vn 0.000000 -0.146557 -0.989202
vn 0.000000 -0.146557 -0.989202
vn 0.000000 -0.146557 -0.989202
vn 0.000000 -0.146557 -0.989202
vn 0.150912 -0.166930 -0.974351
vn 0.414904 -0.193771 -0.888992
vn 0.000000 -1.000000 0.000001
vn 0.000000 -1.000000 0.000000
vn 0.000000 -1.000000 0.000000
vn 0.000000 -1.000000 0.000000
vn 0.000000 -1.000000 -0.000000
vn 0.000000 -1.000000 -0.000000
vn 0.000000 -1.000000 0.000000
vn 0.000000 -1.000000 0.000000
vn 0.000000 -1.000000 0.000000
vn 0.000000 -1.000000 0.000000
vn 0.000000 -1.000000 0.000000
vn 0.000000 -1.000000 0.000000
vn 0.000000 -1.000000 0.000000
vn 0.000000 -1.000000 0.000000
vn 0.000000 -1.000000 0.000000
vn 0.000000 -1.000000 0.000000
vn 0.000000 -1.000000 0.000000
vn 0.000000 -1.000000 0.000000
vn 0.000000 -1.000000 0.000000
vn 0.000000 -1.000000 0.000000
vn 0.000000 -1.000000 0.000000
vn 0.000000 -1.000000 0.000000
vn 0.000000 -1.000000 0.000000
vn 0.000000 -1.000000 0.000000
vn 0.000000 -1.000000 0.000000
vn 0.000000 -1.000000 0.000000
vn 0.000000 -1.000000 0.000000
vn 0.000000 -1.000000 0.000000
vn 0.000000 -1.000000 0.000000
vn 0.000000 -1.000000 0.000000
vn 0.000000 -1.000000 0.000000
vn 0.000000 -1.000000 0.000000
vn 0.000000 -1.000000 0.000000
vn 0.000000 -1.000000 0.000000
vn 0.000000 -1.000000 0.000000
vn 0.000000 -1.000000 0.000000
vn 0.000000 -1.000000 0.000000
vn 0.000000 -1.000000 0.000000
vn 0.000000 -1.000000 0.000000
vn 0.000000 -1.000000 0.000000
vn 0.000000 -1.000000 0.000000
vn 0.000000 -1.000000 0.000000
vn 0.000000 -1.000000 0.000000
vn 0.000000 -1.000000 0.000000
vn 0.000000 -1.000000 0.000000
vn 0.000000 -1.000000 0.000000
vn 0.000000 -1.000000 0.000000
vn 0.000000 -1.000000 0.000000
vn 0.000000 -1.000000 0.000000
vn 0.000000 -1.000000 0.000000
vn 0.000000 -1.000000 0.000000
vn 0.000000 -1.000000 0.000000
vn 0.000000 -1.000000 0.000000
vn 0.000000 -1.000000 0.000000
vn 0.000000 -1.000000 0.000000
vn 0.000000 -1.000000 0.000000
vn 0.000000 -1.000000 0.000000
vn 0.000000 -1.000000 0.000000
vn 0.000000 -1.000000 0.000000
vn 0.000000 -1.000000 0.000000
vn 0.000000 -1.000000 0.000000
vn 0.000000 -1.000000 0.000000
vn 0.000000 -1.000000 0.000000
vn 0.000000 -1.000000 0.000000
vn 0.000000 -1.000000 0.000000
vn 0.000000 -1.000000 0.000000
vn 0.000000 -1.000000 0.000000
vn 0.000000 -1.000000 0.000000
vn 0.000000 -1.000000 0.000000
vn 0.000000 -1.000000 0.000000
vn 0.000000 -1.000000 0.000000
vn 0.000000 -1.000000 0.000000
vn 0.000000 -1.000000 0.000000
vn 0.000000 -1.000000 0.000000
vn 0.000000 -1.000000 0.000000
vn 0.000000 -1.000000 0.000000
vn 0.000000 -1.000000 0.000000
vn 0.000000 -1.000000 0.000000
vn 0.000000 -1.000000 0.000000
vn 0.000000 -1.000000 0.000000
vn 0.000000 -1.000000 0.000000
vn 0.000000 -1.000000 -0.000000
vn 0.000000 -1.000000 0.000000
vn 0.000000 -1.000000 0.000000
vn 0.000000 -1.000000 0.000000
vn 0.000000 -1.000000 0.000000
vn 0.000000 -1.000000 0.000000
vn 0.000000 -1.000000 0.000000
vn 0.000000 -1.000000 0.000000
vn 0.000000 -1.000000 -0.000000
vn 0.000000 -1.000000 -0.000000
vn 0.000000 -1.000000 0.000000
vn 0.000000 -1.000000 -0.000000
vn 0.000000 -1.000000 0.000000
vn 0.000000 -1.000000 0.000000
vn 0.000000 -1.000000 -0.000000
vn 0.000000 -1.000000 -0.000000
vn 0.000000 -1.000000 -0.000000
vn 0.000000 -1.000000 -0.000000
vn 0.000000 -1.000000 -0.000000
vn 0.000000 -1.000000 -0.000000
vn 0.000000 -1.000000 -0.000000
vn 0.000000 -1.000000 -0.000000
vn 0.000000 -1.000000 -0.000000
vn 0.000000 -1.000000 -0.000000
vn 0.948794 -0.210617 -0.235438
vn 0.832931 -0.217324 -0.508916
vn 0.847667 -0.108647 -0.519285
vn 0.926730 -0.143396 -0.347288
vn 0.981447 -0.191735 0.000000
vn 0.981447 -0.191735 0.000000
vn 0.981447 -0.191735 0.000000
vn 0.981447 -0.191735 0.000000
vn 0.981447 -0.191735 0.000000
vn 0.981447 -0.191735 0.000000
vn 0.981447 -0.191735 0.000000
vn 0.981447 -0.191735 0.000000
vn 0.981447 -0.191735 0.000000
vn 0.981447 -0.191735 0.000000
vn 0.948794 -0.210617 0.235438
vn 0.926730 -0.143396 0.347288
vn 0.832931 -0.217324 0.508916
vn 0.847667 -0.108647 0.519285
vn 0.852123 0.000000 -0.523341
vn 0.852123 0.000000 -0.523341
vn 1.000000 0.000000 0.000000
vn 1.000000 0.000000 0.000000
vn 1.000000 0.000000 0.000000
vn 1.000000 0.000000 0.000000
vn 1.000000 0.000000 0.000000
vn 1.000000 0.000000 0.000000
vn 1.000000 0.000000 0.000000
vn 1.000000 0.000000 0.000000
vn 1.000000 0.000000 0.000000
vn 1.000000 0.000000 0.000000
vn 1.000000 0.000000 0.000000
vn 1.000000 0.000000 0.000000
vn 1.000000 0.000000 0.000000
vn 1.000000 0.000000 0.000000
vn 0.852123 0.000000 0.523341
vn 0.852123 0.000000 0.523341
vn 0.852124 0.000000 -0.523341
vn 0.852124 0.000000 -0.523341
vn 1.000000 0.000000 0.000000
vn 1.000000 0.000000 0.000000
vn 1.000000 0.000000 0.000000
vn 1.000000 0.000000 0.000000
vn 1.000000 0.000000 0.000000
vn 1.000000 0.000000 0.000000
vn 1.000000 0.000000 0.000000
vn 0.852124 0.000000 0.523341
vn 0.852124 0.000000 0.523341
vn 0.852124 0.000000 -0.523341
vn 0.852124 0.000000 -0.523341
vn 1.000000 0.000000 0.000000
vn 1.000000 0.000000 0.000000
vn 1.000000 0.000000 0.000000
vn 1.000000 0.000000 0.000000
vn 1.000000 0.000000 0.000000
vn 1.000000 0.000000 0.000000
vn 1.000000 0.000000 0.000000
vn 0.852124 0.000000 0.523341
vn 0.852124 0.000000 0.523341
vn 0.852124 0.000000 -0.523341
vn 0.852124 0.000000 -0.523341
vn 1.000000 0.000000 0.000000
vn 1.000000 0.000000 0.000000
vn 1.000000 0.000000 0.000000
vn 1.000000 0.000000 0.000000
vn 1.000000 0.000000 0.000000
vn 1.000000 0.000000 0.000000
vn 1.000000 0.000000 0.000000
vn 0.852124 0.000000 0.523341
vn 0.852124 0.000000 0.523341
vn 0.852123 0.000000 -0.523341
vn 0.852123 0.000000 -0.523341
vn 1.000000 0.000000 0.000000
vn 1.000000 0.000000 0.000000
vn 1.000000 0.000000 0.000000
vn 1.000000 0.000000 0.000000
vn 1.000000 0.000000 0.000000
vn 1.000000 0.000000 0.000000
vn 1.000000 0.000000 0.000000
vn 0.852123 0.000000 0.523341
vn 0.852123 0.000000 0.523341
vn 0.847667 0.108647 -0.519285
vn 0.926730 0.143396 -0.347288
vn 1.000000 0.000000 0.000000
vn 1.000000 0.000000 0.000000
vn 1.000000 0.000000 0.000000
vn 1.000000 0.000000 0.000000
vn 1.000000 0.000000 0.000000
vn 1.000000 0.000000 0.000000
vn 1.000000 0.000000 0.000000
vn 0.926730 0.143396 0.347288
vn 0.847667 0.108647 0.519285
vn 0.832931 0.217324 -0.508916
vn 0.948794 0.210617 -0.235438
vn 0.981447 0.191735 0.000000
vn 0.981447 0.191735 0.000000
vn 0.981447 0.191735 0.000000
vn 0.981447 0.191735 0.000000
vn 0.981447 0.191735 0.000000
vn 0.981447 0.191735 0.000000
vn 0.981447 0.191735 0.000000
vn 0.981447 0.191735 0.000000
vn 0.981447 0.191735 0.000000
vn 0.981447 0.191735 0.000000
vn 0.948794 0.210617 0.235438
vn 0.832931 0.217324 0.508916
vn -0.832931 -0.217325 -0.508916
vn -0.948794 -0.210617 -0.235438
vn -0.926730 -0.143396 -0.347288
vn -0.847667 -0.108647 -0.519285
vn -0.981447 -0.191736 0.000000
vn -0.981447 -0.191736 0.000000
vn -0.981447 -0.191736 0.000000
vn -0.981447 -0.191736 0.000000
vn -0.981447 -0.191736 0.000000
vn -0.981447 -0.191736 0.000000
vn -0.981447 -0.191736 0.000000
vn -0.981447 -0.191736 0.000000
vn -0.981447 -0.191736 0.000000
vn -0.981447 -0.191736 0.000000
vn -0.948794 -0.210617 0.235438
vn -0.926730 -0.143396 0.347288
vn -0.832931 -0.217324 0.508916
vn -0.847667 -0.108647 0.519285
vn -0.852123 0.000000 -0.523341
vn -0.852123 0.000000 -0.523341
vn -1.000000 0.000000 0.000000
vn -1.000000 0.000000 0.000000
vn -1.000000 0.000000 0.000000
vn -1.000000 0.000000 0.000000
vn -1.000000 0.000000 0.000000
vn -1.000000 0.000000 0.000000
vn -1.000000 0.000000 0.000000
vn -1.000000 0.000000 0.000000
vn -1.000000 0.000000 0.000000
vn -1.000000 0.000000 0.000000
vn -1.000000 0.000000 0.000000
vn -1.000000 0.000000 0.000000
vn -1.000000 0.000000 0.000000
vn -1.000000 0.000000 0.000000
vn -0.852123 0.000000 0.523341
vn -0.852123 0.000000 0.523341
vn -0.852124 0.000000 -0.523341
vn -0.852124 0.000000 -0.523341
vn -1.000000 0.000000 0.000000
vn -1.000000 0.000000 0.000000
vn -1.000000 0.000000 0.000000
vn -1.000000 0.000000 0.000000
vn -1.000000 0.000000 0.000000
vn -1.000000 0.000000 0.000000
vn -1.000000 0.000000 0.000000
vn -0.852124 0.000000 0.523341
vn -0.852124 0.000000 0.523341
vn -0.852124 0.000000 -0.523341
vn -0.852124 0.000000 -0.523341
vn -1.000000 0.000000 0.000000
vn -1.000000 0.000000 0.000000
vn -1.000000 0.000000 0.000000
vn -1.000000 0.000000 0.000000
vn -1.000000 0.000000 0.000000
vn -1.000000 0.000000 0.000000
vn -1.000000 0.000000 0.000000
vn -0.852124 0.000000 0.523341
vn -0.852124 0.000000 0.523341
vn -0.852124 0.000000 -0.523341
vn -0.852124 0.000000 -0.523341
vn -1.000000 0.000000 0.000000
vn -1.000000 0.000000 0.000000
vn -1.000000 0.000000 0.000000
vn -1.000000 0.000000 0.000000
vn -1.000000 0.000000 0.000000
vn -1.000000 0.000000 0.000000
vn -1.000000 0.000000 0.000000
vn -0.852124 0.000000 0.523341
vn -0.852124 0.000000 0.523341
vn -0.852123 0.000000 -0.523341
vn -0.852123 0.000000 -0.523341
vn -1.000000 0.000000 0.000000
vn -1.000000 0.000000 0.000000
vn -1.000000 0.000000 0.000000
vn -1.000000 0.000000 0.000000
vn -1.000000 0.000000 0.000000
vn -1.000000 0.000000 0.000000
vn -1.000000 0.000000 0.000000
vn -0.852123 0.000000 0.523341
vn -0.852123 0.000000 0.523341
vn -0.926730 0.143396 -0.347288
vn -0.847667 0.108647 -0.519285
vn -1.000000 0.000000 0.000000
vn -1.000000 0.000000 0.000000
vn -1.000000 0.000000 0.000000
vn -1.000000 0.000000 0.000000
vn -1.000000 0.000000 0.000000
vn -1.000000 0.000000 0.000000
vn -1.000000 0.000000 0.000000
vn -0.847667 0.108647 0.519285
vn -0.926730 0.143396 0.347288
vn -0.948794 0.210617 -0.235438
vn -0.832931 0.217325 -0.508916
vn -0.981447 0.191736 0.000000
vn -0.981447 0.191736 0.000000
vn -0.981447 0.191736 0.000000
vn -0.981447 0.191736 0.000000
vn -0.981447 0.191736 0.000000
vn -0.981447 0.191736 0.000000
vn -0.981447 0.191736 0.000000
vn -0.981447 0.191736 0.000000
vn -0.981447 0.191736 0.000000
vn -0.981447 0.191736 0.000000
vn -0.948794 0.210617 0.235438
vn -0.832931 0.217324 0.508916
vn 0.000000 0.850789 0.525507
vn 0.000000 0.850790 0.525507
vn 0.000000 0.850789 0.525507
vn 0.000000 0.850789 0.525507
vn 0.000000 0.850789 0.525507
vn 0.000000 0.850790 0.525507
vn 0.000000 0.850789 0.525507
vn 0.000000 0.850789 0.525507
vn 0.000000 0.850789 0.525507
vn 0.000000 0.850789 0.525507
vn 0.000000 0.850789 0.525507
vn 0.000000 0.850789 0.525507
vn 0.000000 0.850789 0.525507
vn 0.000000 0.850789 0.525507
vn 0.681237 0.000000 0.732063
vn 0.681237 0.000000 0.732063
vn 0.681237 0.000000 0.732063
vn 0.681237 0.000000 0.732063
vn -0.681237 0.000000 0.732063
vn -0.681237 0.000000 0.732063
vn -0.681237 0.000000 0.732063
vn -0.681237 0.000000 0.732063
vn 0.681237 0.000000 0.732063
vn 0.681237 0.000000 0.732063
vn -0.681237 0.000000 0.732063
vn -0.681237 0.000000 0.732063
vn 0.681237 0.000000 0.732063
vn 0.681237 0.000000 0.732063
vn -0.681237 0.000000 0.732063
vn -0.681237 0.000000 0.732063
vn 0.681237 0.000000 0.732063
vn 0.681237 0.000000 0.732063
vn -0.681237 0.000000 0.732063
vn -0.681237 0.000000 0.732063
vn 0.681237 0.000000 0.732063
vn 0.681237 0.000000 0.732063
vn -0.681237 0.000000 0.732063
vn -0.681237 0.000000 0.732063
vn 0.681237 0.000000 0.732063
vn 0.681237 0.000000 0.732063
vn -0.681237 0.000000 0.732063
vn -0.681237 0.000000 0.732063
vn 0.000000 -0.850789 0.525507
vn 0.000000 -0.850789 0.525507
vn 0.000000 -0.850789 0.525507
vn 0.000000 -0.850789 0.525507
vn 0.000000 -0.850789 0.525507
vn 0.000000 -0.850789 0.525507
vn 0.000000 -0.850789 0.525507
vn 0.000000 -0.850789 0.525507
vn 0.000000 -0.850790 0.525507
vn 0.000000 -0.850789 0.525507
vn 0.000000 -0.850789 0.525507
vn 0.000000 -0.850789 0.525507
vn 0.000000 -0.850790 0.525507
vn 0.000000 -0.850789 0.525507
vn 0.000000 0.673316 -0.739355
vn 0.000000 0.673316 -0.739355
vn 0.000000 0.673316 -0.739355
vn 0.000000 0.673316 -0.739355
vn 0.000000 0.673316 -0.739355
vn 0.000000 0.673316 -0.739355
vn 0.000000 0.673316 -0.739355
vn 0.000000 0.673316 -0.739355
vn 0.000000 0.673316 -0.739355
vn 0.000000 0.673316 -0.739355
vn 0.000000 0.673316 -0.739355
vn 0.000000 0.673316 -0.739355
vn 0.000000 0.673316 -0.739355
vn 0.000000 0.673316 -0.739355
vn 0.804292 0.594234 0.000000
vn 0.804292 0.594234 0.000000
vn 0.804292 0.594234 0.000000
vn 0.804292 0.594234 0.000000
vn -0.804292 0.594234 0.000000
vn -0.804292 0.594234 0.000000
vn -0.804292 0.594234 0.000000
vn -0.804292 0.594234 0.000000
vn 0.804292 0.594234 0.000000
vn 0.804292 0.594234 0.000000
vn -0.804292 0.594234 0.000000
vn -0.804292 0.594234 0.000000
vn 0.804292 0.594234 0.000000
vn 0.804292 0.594234 0.000000
vn -0.804292 0.594234 0.000000
vn -0.804292 0.594234 0.000000
vn 0.804292 0.594234 0.000000
vn 0.804292 0.594234 0.000000
vn -0.804292 0.594234 0.000000
vn -0.804292 0.594234 0.000000
vn 0.804292 0.594234 0.000000
vn 0.804292 0.594234 0.000000
vn -0.804292 0.594234 0.000000
vn -0.804292 0.594234 0.000000
vn 0.804292 0.594234 0.000000
vn 0.804292 0.594234 0.000000
vn -0.804292 0.594234 0.000000
vn -0.804292 0.594234 0.000000
vn 0.000000 0.673316 0.739355
vn 0.000000 0.673316 0.739355
vn 0.000000 0.673316 0.739355
vn 0.000000 0.673316 0.739355
vn 0.000000 0.673316 0.739355
vn 0.000000 0.673316 0.739355
vn 0.000000 0.673316 0.739355
vn 0.000000 0.673316 0.739355
vn 0.000000 0.673316 0.739355
vn 0.000000 0.673316 0.739355
vn 0.000000 0.673316 0.739355
vn 0.000000 0.673316 0.739355
vn 0.000000 0.673316 0.739355
vn 0.000000 0.673316 0.739355
vn 0.000000 -0.850789 -0.525507
vn 0.000000 -0.850790 -0.525507
vn 0.000000 -0.850789 -0.525507
vn 0.000000 -0.850789 -0.525507
vn 0.000000 -0.850789 -0.525507
vn 0.000000 -0.850790 -0.525507
vn 0.000000 -0.850789 -0.525507
vn 0.000000 -0.850789 -0.525507
vn 0.000000 -0.850789 -0.525507
vn 0.000000 -0.850789 -0.525507
vn 0.000000 -0.850789 -0.525507
vn 0.000000 -0.850789 -0.525507
vn 0.000000 -0.850789 -0.525507
vn 0.000000 -0.850789 -0.525507
vn 0.681237 0.000000 -0.732063
vn 0.681237 0.000000 -0.732063
vn 0.681237 0.000000 -0.732063
vn 0.681237 0.000000 -0.732063
vn -0.681237 0.000000 -0.732063
vn -0.681237 0.000000 -0.732063
vn -0.681237 0.000000 -0.732063
vn -0.681237 0.000000 -0.732063
vn 0.681237 0.000000 -0.732063
vn 0.681237 0.000000 -0.732063
vn -0.681237 0.000000 -0.732063
vn -0.681237 0.000000 -0.732063
vn 0.681237 0.000000 -0.732063
vn 0.681237 0.000000 -0.732063
vn -0.681237 0.000000 -0.732063
vn -0.681237 0.000000 -0.732063
vn 0.681237 0.000000 -0.732063
vn 0.681237 0.000000 -0.732063
vn -0.681237 0.000000 -0.732063
vn -0.681237 0.000000 -0.732063
vn 0.681237 0.000000 -0.732063
vn 0.681237 0.000000 -0.732063
vn -0.681237 0.000000 -0.732063
vn -0.681237 0.000000 -0.732063
vn 0.681237 0.000000 -0.732063
vn 0.681237 0.000000 -0.732063
vn -0.681237 0.000000 -0.732063
vn -0.681237 0.000000 -0.732063
vn 0.000000 0.850789 -0.525507
vn 0.000000 0.850789 -0.525507
vn 0.000000 0.850789 -0.525507
vn 0.000000 0.850789 -0.525507
vn 0.000000 0.850789 -0.525507
vn 0.000000 0.850789 -0.525507
vn 0.000000 0.850789 -0.525507
vn 0.000000 0.850789 -0.525507
vn 0.000000 0.850790 -0.525507
vn 0.000000 0.850789 -0.525507
vn 0.000000 0.850789 -0.525507
vn 0.000000 0.850789 -0.525507
vn 0.000000 0.850790 -0.525507
vn 0.000000 0.850789 -0.525507
vn 0.000000 -0.673316 0.739355
vn 0.000000 -0.673316 0.739355
vn 0.000000 -0.673316 0.739355
vn 0.000000 -0.673316 0.739355
vn 0.000000 -0.673316 0.739355
vn 0.000000 -0.673316 0.739355
vn 0.000000 -0.673316 0.739355
vn 0.000000 -0.673316 0.739355
vn 0.000000 -0.673316 0.739355
vn 0.000000 -0.673316 0.739355
vn 0.000000 -0.673316 0.739355
vn 0.000000 -0.673316 0.739355
vn 0.000000 -0.673316 0.739355
vn 0.000000 -0.673316 0.739355
vn 0.804292 -0.594234 0.000000
vn 0.804292 -0.594234 0.000000
vn 0.804292 -0.594234 0.000000
vn 0.804292 -0.594234 0.000000
vn -0.804292 -0.594234 0.000000
vn -0.804292 -0.594234 0.000000
vn -0.804292 -0.594234 0.000000
vn -0.804292 -0.594234 0.000000
vn 0.804292 -0.594234 0.000000
vn 0.804292 -0.594234 0.000000
vn -0.804292 -0.594234 0.000000
vn -0.804292 -0.594234 0.000000
vn 0.804292 -0.594234 0.000000
vn 0.804292 -0.594234 0.000000
vn -0.804292 -0.594234 0.000000
vn -0.804292 -0.594234 0.000000
vn 0.804292 -0.594234 0.000000
vn 0.804292 -0.594234 0.000000
vn -0.804292 -0.594234 0.000000
vn -0.804292 -0.594234 0.000000
vn 0.804292 -0.594234 0.000000
vn 0.804292 -0.594234 0.000000
vn -0.804292 -0.594234 0.000000
vn -0.804292 -0.594234 0.000000
vn 0.804292 -0.594234 0.000000
vn 0.804292 -0.594234 0.000000
vn -0.804292 -0.594234 0.000000
vn -0.804292 -0.594234 0.000000
vn 0.000000 -0.673316 -0.739355
vn 0.000000 -0.673316 -0.739355
vn 0.000000 -0.673316 -0.739355
vn 0.000000 -0.673316 -0.739355
vn 0.000000 -0.673316 -0.739355
vn 0.000000 -0.673316 -0.739355
vn 0.000000 -0.673316 -0.739355
vn 0.000000 -0.673316 -0.739355
vn 0.000000 -0.673316 -0.739355
vn 0.000000 -0.673316 -0.739355
vn 0.000000 -0.673316 -0.739355
vn 0.000000 -0.673316 -0.739355
vn 0.000000 -0.673316 -0.739355
vn 0.000000 -0.673316 -0.739355
vn 0.395874 0.918305 0.000000
vn 0.395874 0.918305 0.000000
vn 0.395874 0.918305 0.000000
vn 0.395874 0.918305 0.000000
vn 0.395874 0.918305 0.000000
vn 0.395874 0.918305 0.000000
vn 0.395874 0.918305 0.000000
vn 0.395874 0.918305 0.000000
vn 0.395874 0.918305 0.000000
vn 0.395874 0.918305 0.000000
vn 0.395874 0.918305 0.000000
vn 0.395874 0.918305 0.000000
vn 0.395874 0.918305 0.000000
vn 0.395874 0.918305 0.000000
vn 0.463756 0.000000 0.885963
vn 0.463756 0.000000 0.885963
vn 0.463756 0.000000 0.885963
vn 0.463756 0.000000 0.885963
vn 0.463757 0.000000 -0.885963
vn 0.463757 0.000000 -0.885963
vn 0.463757 0.000000 -0.885963
vn 0.463757 0.000000 -0.885963
vn 0.463756 0.000000 0.885963
vn 0.463756 0.000000 0.885963
vn 0.463756 0.000000 -0.885963
vn 0.463756 0.000000 -0.885963
vn 0.463756 0.000000 0.885963
vn 0.463756 0.000000 0.885963
vn 0.463756 0.000000 -0.885963
vn 0.463756 0.000000 -0.885963
vn 0.463756 0.000000 0.885963
vn 0.463756 0.000000 0.885963
vn 0.463756 0.000000 -0.885963
vn 0.463756 0.000000 -0.885963
vn 0.463757 0.000000 0.885963
vn 0.463757 0.000000 0.885963
vn 0.463756 0.000000 -0.885963
vn 0.463756 0.000000 -0.885963
vn 0.463757 0.000000 0.885963
vn 0.463757 0.000000 0.885963
vn 0.463756 0.000000 -0.885963
vn 0.463756 0.000000 -0.885963
vn 0.395874 -0.918305 0.000000
vn 0.395874 -0.918305 0.000000
vn 0.395874 -0.918305 0.000000
vn 0.395874 -0.918305 0.000000
vn 0.395874 -0.918305 0.000000
vn 0.395874 -0.918305 0.000000
vn 0.395874 -0.918305 0.000000
vn 0.395874 -0.918305 0.000000
vn 0.395874 -0.918305 0.000000
vn 0.395874 -0.918305 0.000000
vn 0.395874 -0.918305 0.000000
vn 0.395874 -0.918305 0.000000
vn 0.395874 -0.918305 0.000000
vn 0.395874 -0.918305 0.000000
vn -0.395872 0.918306 0.000000
vn -0.395872 0.918306 0.000000
vn -0.395872 0.918306 0.000000
vn -0.395872 0.918306 0.000000
vn -0.395872 0.918306 0.000000
vn -0.395872 0.918306 0.000000
vn -0.395872 0.918306 0.000000
vn -0.395872 0.918306 0.000000
vn -0.395872 0.918306 0.000000
vn -0.395872 0.918306 0.000000
vn -0.395872 0.918306 0.000000
vn -0.395872 0.918306 0.000000
vn -0.395872 0.918306 0.000000
vn -0.395872 0.918306 0.000000
vn -0.463755 0.000000 0.885963
vn -0.463755 0.000000 0.885963
vn -0.463755 0.000000 0.885963
vn -0.463755 0.000000 0.885964
vn -0.463755 0.000000 -0.885964
vn -0.463755 0.000000 -0.885964
vn -0.463755 0.000000 -0.885964
vn -0.463755 0.000000 -0.885964
vn -0.463755 0.000000 0.885964
vn -0.463755 0.000000 0.885963
vn -0.463755 0.000000 -0.885964
vn -0.463755 0.000000 -0.885964
vn -0.463755 0.000000 0.885964
vn -0.463755 0.000000 0.885964
vn -0.463755 0.000000 -0.885964
vn -0.463755 0.000000 -0.885964
vn -0.463755 0.000000 0.885964
vn -0.463755 0.000000 0.885964
vn -0.463755 0.000000 -0.885964
vn -0.463755 0.000000 -0.885963
vn -0.463755 0.000000 0.885964
vn -0.463755 0.000000 0.885964
vn -0.463755 0.000000 -0.885963
vn -0.463755 0.000000 -0.885963
vn -0.463755 0.000000 0.885964
vn -0.463755 0.000000 0.885964
vn -0.463755 0.000000 -0.885963
vn -0.463755 0.000000 -0.885964
vn -0.395872 -0.918306 0.000000
vn -0.395872 -0.918306 0.000000
vn -0.395872 -0.918306 0.000000
vn -0.395872 -0.918306 0.000000
vn -0.395872 -0.918306 0.000000
vn -0.395872 -0.918306 0.000000
vn -0.395872 -0.918306 0.000000
vn -0.395872 -0.918306 0.000000
vn -0.395872 -0.918306 0.000000
vn -0.395872 -0.918306 0.000000
vn -0.395872 -0.918306 0.000000
vn -0.395872 -0.918306 0.000000
vn -0.395872 -0.918306 0.000000
vn -0.395872 -0.918306 0.000000
s 1
g pCube3
usemtl initialShadingGroup
f 295/1/1 296/2/2 297/443/3 298/10/4
f 296/2/2 299/3/5 300/442/6 297/443/3
f 299/3/5 301/4/7 302/444/8 300/442/6
f 301/4/7 303/5/9 304/445/10 302/444/8
f 303/5/9 305/6/11 306/446/12 304/445/10
f 305/6/11 307/7/13 308/447/14 306/446/12
f 307/7/13 309/8/15 310/448/16 308/447/14
f 309/8/15 311/9/17 312/18/18 310/448/16
f 298/10/4 297/443/3 313/449/19 314/19/20
s 2
f 1/11/21 2/12/22 9/21/23 8/20/24
f 2/12/22 3/13/25 10/22/26 9/21/23
f 3/13/25 4/14/27 11/23/28 10/22/26
f 4/14/27 5/15/29 12/24/30 11/23/28
f 5/15/29 6/16/31 13/25/32 12/24/30
f 6/16/31 7/17/33 14/26/34 13/25/32
s 1
f 310/448/16 312/18/18 315/27/35 316/450/36
f 314/19/20 313/449/19 317/451/37 318/28/38
s 2
f 8/20/24 9/21/23 16/30/39 15/29/40
f 9/21/23 10/22/26 17/31/41 16/30/39
f 10/22/26 11/23/28 18/32/42 17/31/41
f 11/23/28 12/24/30 19/33/43 18/32/42
f 12/24/30 13/25/32 20/34/44 19/33/43
f 13/25/32 14/26/34 21/35/45 20/34/44
s 1
f 316/450/36 315/27/35 319/36/46 320/452/47
f 318/28/38 317/451/37 321/453/48 322/37/49
s 2
f 15/29/40 16/30/39 23/39/50 22/38/51
f 16/30/39 17/31/41 24/40/52 23/39/50
f 17/31/41 18/32/42 25/41/53 24/40/52
f 18/32/42 19/33/43 26/42/54 25/41/53
f 19/33/43 20/34/44 27/43/55 26/42/54
f 20/34/44 21/35/45 28/44/56 27/43/55
s 1
f 320/452/47 319/36/46 323/45/57 324/454/58
f 322/37/49 321/453/48 325/455/59 326/46/60
s 2
f 22/38/51 23/39/50 30/48/61 29/47/62
f 23/39/50 24/40/52 31/49/63 30/48/61
f 24/40/52 25/41/53 32/50/64 31/49/63
f 25/41/53 26/42/54 33/51/65 32/50/64
f 26/42/54 27/43/55 34/52/66 33/51/65
f 27/43/55 28/44/56 35/53/67 34/52/66
s 1
f 324/454/58 323/45/57 327/54/68 328/456/69
f 326/46/60 325/455/59 329/457/70 330/55/71
s 2
f 29/47/62 30/48/61 37/57/72 36/56/73
f 30/48/61 31/49/63 38/58/74 37/57/72
f 31/49/63 32/50/64 39/59/75 38/58/74
f 32/50/64 33/51/65 40/60/76 39/59/75
f 33/51/65 34/52/66 41/61/77 40/60/76
f 34/52/66 35/53/67 42/62/78 41/61/77
s 1
f 328/456/69 327/54/68 331/63/79 332/458/80
f 330/55/71 329/457/70 333/459/81 334/64/82
s 2
f 36/56/73 37/57/72 44/66/83 43/65/84
f 37/57/72 38/58/74 45/67/85 44/66/83
f 38/58/74 39/59/75 46/68/86 45/67/85
f 39/59/75 40/60/76 47/69/87 46/68/86
f 40/60/76 41/61/77 48/70/88 47/69/87
f 41/61/77 42/62/78 49/71/89 48/70/88
s 1
f 332/458/80 331/63/79 335/72/90 336/460/91
f 334/64/82 333/459/81 337/74/92 338/73/93
f 333/459/81 339/461/94 340/75/95 337/74/92
f 339/461/94 341/462/96 342/76/97 340/75/95
f 341/462/96 343/463/98 344/77/99 342/76/97
f 343/463/98 345/464/100 346/78/101 344/77/99
f 345/464/100 347/465/102 348/79/103 346/78/101
f 347/465/102 336/460/91 349/80/104 348/79/103
f 336/460/91 335/72/90 350/81/105 349/80/104
s 3
f 338/73/106 337/74/107 351/467/108 352/82/109
f 337/74/107 340/75/110 353/466/111 351/467/108
f 340/75/110 342/76/112 354/468/113 353/466/111
f 342/76/112 344/77/114 355/469/115 354/468/113
f 344/77/114 346/78/116 356/470/117 355/469/115
f 346/78/116 348/79/118 357/471/119 356/470/117
f 348/79/118 349/80/120 358/472/121 357/471/119
f 349/80/120 350/81/122 359/90/123 358/472/121
f 352/82/109 351/467/108 360/473/124 361/91/125
s 4
f 50/83/126 51/84/127 58/93/128 57/92/129
f 51/84/127 52/85/130 59/94/131 58/93/128
f 52/85/130 53/86/132 60/95/133 59/94/131
f 53/86/132 54/87/134 61/96/135 60/95/133
f 54/87/134 55/88/136 62/97/137 61/96/135
f 55/88/136 56/89/138 63/98/139 62/97/137
s 3
f 358/472/121 359/90/123 362/99/140 363/474/141
f 361/91/125 360/473/124 364/475/142 365/100/143
s 4
f 57/92/129 58/93/128 65/102/144 64/101/145
f 58/93/128 59/94/131 66/103/146 65/102/144
f 59/94/131 60/95/133 67/104/147 66/103/146
f 60/95/133 61/96/135 68/105/148 67/104/147
f 61/96/135 62/97/137 69/106/149 68/105/148
f 62/97/137 63/98/139 70/107/150 69/106/149
s 3
f 363/474/141 362/99/140 366/108/151 367/476/152
f 365/100/143 364/475/142 368/477/153 369/109/154
s 4
f 64/101/145 65/102/144 72/111/155 71/110/156
f 65/102/144 66/103/146 73/112/157 72/111/155
f 66/103/146 67/104/147 74/113/158 73/112/157
f 67/104/147 68/105/148 75/114/159 74/113/158
f 68/105/148 69/106/149 76/115/160 75/114/159
f 69/106/149 70/107/150 77/116/161 76/115/160
s 3
f 367/476/152 366/108/151 370/117/162 371/478/163
f 369/109/154 368/477/153 372/479/164 373/118/165
s 4
f 71/110/156 72/111/155 79/120/166 78/119/167
f 72/111/155 73/112/157 80/121/168 79/120/166
f 73/112/157 74/113/158 81/122/169 80/121/168
f 74/113/158 75/114/159 82/123/170 81/122/169
f 75/114/159 76/115/160 83/124/171 82/123/170
f 76/115/160 77/116/161 84/125/172 83/124/171
s 3
f 371/478/163 370/117/162 374/126/173 375/480/174
f 373/118/165 372/479/164 376/481/175 377/127/176
s 4
f 78/119/167 79/120/166 86/129/177 85/128/178
f 79/120/166 80/121/168 87/130/179 86/129/177
f 80/121/168 81/122/169 88/131/180 87/130/179
f 81/122/169 82/123/170 89/132/181 88/131/180
f 82/123/170 83/124/171 90/133/182 89/132/181
f 83/124/171 84/125/172 91/134/183 90/133/182
s 3
f 375/480/174 374/126/173 378/135/184 379/482/185
f 377/127/176 376/481/175 380/483/186 381/136/187
s 4
f 85/128/178 86/129/177 93/138/188 92/137/189
f 86/129/177 87/130/179 94/139/190 93/138/188
f 87/130/179 88/131/180 95/140/191 94/139/190
f 88/131/180 89/132/181 96/141/192 95/140/191
f 89/132/181 90/133/182 97/142/193 96/141/192
f 90/133/182 91/134/183 98/143/194 97/142/193
s 3
f 379/482/185 378/135/184 382/144/195 383/484/196
f 381/136/187 380/483/186 384/146/197 385/145/198
f 380/483/186 386/485/199 387/147/200 384/146/197
f 386/485/199 388/486/201 389/148/202 387/147/200
f 388/486/201 390/487/203 391/149/204 389/148/202
f 390/487/203 392/488/205 393/150/206 391/149/204
f 392/488/205 394/489/207 395/151/208 393/150/206
f 394/489/207 383/484/196 396/152/209 395/151/208
f 383/484/196 382/144/195 397/153/210 396/152/209
s 5
f 385/145/211 384/146/212 398/491/213 399/154/214
f 384/146/212 387/147/215 400/490/216 398/491/213
f 387/147/215 389/148/217 401/492/218 400/490/216
f 389/148/217 391/149/219 402/493/220 401/492/218
f 391/149/219 393/150/221 403/494/222 402/493/220
f 393/150/221 395/151/223 404/495/224 403/494/222
f 395/151/223 396/152/225 405/496/226 404/495/224
f 396/152/225 397/153/227 406/162/228 405/496/226
f 399/154/214 398/491/213 407/497/229 408/163/230
s 6
f 99/155/231 100/156/232 107/165/233 106/164/234
f 100/156/232 101/157/235 108/166/236 107/165/233
f 101/157/235 102/158/237 109/167/238 108/166/236
f 102/158/237 103/159/239 110/168/240 109/167/238
f 103/159/239 104/160/241 111/169/242 110/168/240
f 104/160/241 105/161/243 112/170/244 111/169/242
s 5
f 405/496/226 406/162/228 409/171/245 410/498/246
f 408/163/230 407/497/229 411/499/247 412/172/248
s 6
f 106/164/234 107/165/233 114/174/249 113/173/250
f 107/165/233 108/166/236 115/175/251 114/174/249
f 108/166/236 109/167/238 116/176/252 115/175/251
f 109/167/238 110/168/240 117/177/253 116/176/252
f 110/168/240 111/169/242 118/178/254 117/177/253
f 111/169/242 112/170/244 119/179/255 118/178/254
s 5
f 410/498/246 409/171/245 413/180/256 414/500/257
f 412/172/248 411/499/247 415/501/258 416/181/259
s 6
f 113/173/250 114/174/249 121/183/260 120/182/261
f 114/174/249 115/175/251 122/184/262 121/183/260
f 115/175/251 116/176/252 123/185/263 122/184/262
f 116/176/252 117/177/253 124/186/264 123/185/263
f 117/177/253 118/178/254 125/187/265 124/186/264
f 118/178/254 119/179/255 126/188/266 125/187/265
s 5
f 414/500/257 413/180/256 417/189/267 418/502/268
f 416/181/259 415/501/258 419/503/269 420/190/270
s 6
f 120/182/261 121/183/260 128/192/271 127/191/272
f 121/183/260 122/184/262 129/193/273 128/192/271
f 122/184/262 123/185/263 130/194/274 129/193/273
f 123/185/263 124/186/264 131/195/275 130/194/274
f 124/186/264 125/187/265 132/196/276 131/195/275
f 125/187/265 126/188/266 133/197/277 132/196/276
s 5
f 418/502/268 417/189/267 421/198/278 422/504/279
f 420/190/270 419/503/269 423/505/280 424/199/281
s 6
f 127/191/272 128/192/271 135/201/282 134/200/283
f 128/192/271 129/193/273 136/202/284 135/201/282
f 129/193/273 130/194/274 137/203/285 136/202/284
f 130/194/274 131/195/275 138/204/286 137/203/285
f 131/195/275 132/196/276 139/205/287 138/204/286
f 132/196/276 133/197/277 140/206/288 139/205/287
s 5
f 422/504/279 421/198/278 425/207/289 426/506/290
f 424/199/281 423/505/280 427/507/291 428/208/292
s 6
f 134/200/283 135/201/282 142/210/293 141/209/294
f 135/201/282 136/202/284 143/211/295 142/210/293
f 136/202/284 137/203/285 144/212/296 143/211/295
f 137/203/285 138/204/286 145/213/297 144/212/296
f 138/204/286 139/205/287 146/214/298 145/213/297
f 139/205/287 140/206/288 147/215/299 146/214/298
s 5
f 426/506/290 425/207/289 429/216/300 430/508/301
f 428/208/292 427/507/291 431/218/302 432/217/303
f 427/507/291 433/509/304 434/219/305 431/218/302
f 433/509/304 435/510/306 436/220/307 434/219/305
f 435/510/306 437/511/308 438/221/309 436/220/307
f 437/511/308 439/512/310 440/222/311 438/221/309
f 439/512/310 441/513/312 442/223/313 440/222/311
f 441/513/312 430/508/301 443/224/314 442/223/313
f 430/508/301 429/216/300 444/225/315 443/224/314
s 7
f 432/217/316 431/218/317 445/515/318 446/226/319
f 431/218/317 434/219/320 447/514/321 445/515/318
f 434/219/320 436/220/322 448/516/323 447/514/321
f 436/220/322 438/221/324 449/517/325 448/516/323
f 438/221/324 440/222/326 450/518/327 449/517/325
f 440/222/326 442/223/328 451/519/329 450/518/327
f 442/223/328 443/224/330 452/520/331 451/519/329
f 443/224/330 444/225/332 453/234/333 452/520/331
f 446/226/319 445/515/318 454/521/334 455/235/335
s 8
f 148/227/336 149/228/337 156/237/338 155/236/339
f 149/228/337 150/229/340 157/238/341 156/237/338
f 150/229/340 151/230/342 158/239/343 157/238/341
f 151/230/342 152/231/344 159/240/345 158/239/343
f 152/231/344 153/232/346 160/241/347 159/240/345
f 153/232/346 154/233/348 161/242/349 160/241/347
s 7
f 452/520/331 453/234/333 456/243/350 457/522/351
f 455/235/335 454/521/334 458/523/352 459/244/353
s 8
f 155/236/339 156/237/338 163/246/354 162/245/355
f 156/237/338 157/238/341 164/247/356 163/246/354
f 157/238/341 158/239/343 165/248/357 164/247/356
f 158/239/343 159/240/345 166/249/358 165/248/357
f 159/240/345 160/241/347 167/250/359 166/249/358
f 160/241/347 161/242/349 168/251/360 167/250/359
s 7
f 457/522/351 456/243/350 460/252/361 461/524/362
f 459/244/353 458/523/352 462/525/363 463/253/364
s 8
f 162/245/355 163/246/354 170/255/365 169/254/366
f 163/246/354 164/247/356 171/256/367 170/255/365
f 164/247/356 165/248/357 172/257/368 171/256/367
f 165/248/357 166/249/358 173/258/369 172/257/368
f 166/249/358 167/250/359 174/259/370 173/258/369
f 167/250/359 168/251/360 175/260/371 174/259/370
s 7
f 461/524/362 460/252/361 464/261/372 465/526/373
f 463/253/364 462/525/363 466/527/374 467/262/375
s 8
f 169/254/366 170/255/365 177/264/376 176/263/377
f 170/255/365 171/256/367 178/265/378 177/264/376
f 171/256/367 172/257/368 179/266/379 178/265/378
f 172/257/368 173/258/369 180/267/380 179/266/379
f 173/258/369 174/259/370 181/268/381 180/267/380
f 174/259/370 175/260/371 182/269/382 181/268/381
s 7
f 465/526/373 464/261/372 468/270/383 469/528/384
f 467/262/375 466/527/374 470/529/385 471/271/386
s 8
f 176/263/377 177/264/376 184/273/387 183/272/388
f 177/264/376 178/265/378 185/274/389 184/273/387
f 178/265/378 179/266/379 186/275/390 185/274/389
f 179/266/379 180/267/380 187/276/391 186/275/390
f 180/267/380 181/268/381 188/277/392 187/276/391
f 181/268/381 182/269/382 189/278/393 188/277/392
s 7
f 469/528/384 468/270/383 472/279/394 473/530/395
f 471/271/386 470/529/385 474/531/396 475/280/397
s 8
f 183/272/388 184/273/387 191/282/398 190/281/399
f 184/273/387 185/274/389 192/283/400 191/282/398
f 185/274/389 186/275/390 193/284/401 192/283/400
f 186/275/390 187/276/391 194/285/402 193/284/401
f 187/276/391 188/277/392 195/286/403 194/285/402
f 188/277/392 189/278/393 196/287/404 195/286/403
s 7
f 473/530/395 472/279/394 476/288/405 477/532/406
f 475/280/397 474/531/396 296/290/407 295/289/408
f 474/531/396 478/533/409 299/291/410 296/290/407
f 478/533/409 479/534/411 301/292/412 299/291/410
f 479/534/411 480/535/413 303/293/414 301/292/412
f 480/535/413 481/536/415 305/294/416 303/293/414
f 481/536/415 482/537/417 307/295/418 305/294/416
f 482/537/417 477/532/406 309/296/419 307/295/418
f 477/532/406 476/288/405 311/297/420 309/296/419
s 9
f 453/299/421 444/298/422 429/306/423 483/538/424
f 456/300/425 453/299/421 483/538/424 484/539/426
f 460/301/427 456/300/425 484/539/426 485/540/428
f 464/302/429 460/301/427 485/540/428 486/541/430
f 468/303/431 464/302/429 486/541/430 487/542/432
f 472/304/433 468/303/431 487/542/432 488/543/434
f 476/305/435 472/304/433 488/543/434 489/544/436
f 311/9/437 476/305/435 489/544/436 312/18/438
f 483/538/424 429/306/423 425/314/439 490/545/440
s 10
f 198/308/441 197/307/442 204/315/443 205/316/444
f 199/309/445 198/308/441 205/316/444 206/317/446
f 200/310/447 199/309/445 206/317/446 207/318/448
f 201/311/449 200/310/447 207/318/448 208/319/450
f 202/312/451 201/311/449 208/319/450 209/320/452
f 203/313/453 202/312/451 209/320/452 210/321/454
s 9
f 312/18/438 489/544/436 491/546/455 315/27/456
f 490/545/440 425/314/439 421/322/457 492/547/458
s 10
f 205/316/444 204/315/443 211/323/459 212/324/460
f 206/317/446 205/316/444 212/324/460 213/325/461
f 207/318/448 206/317/446 213/325/461 214/326/462
f 208/319/450 207/318/448 214/326/462 215/327/463
f 209/320/452 208/319/450 215/327/463 216/328/464
f 210/321/454 209/320/452 216/328/464 217/329/465
s 9
f 315/27/456 491/546/455 493/548/466 319/36/467
f 492/547/458 421/322/457 417/330/468 494/549/469
s 10
f 212/324/460 211/323/459 218/331/470 219/332/471
f 213/325/461 212/324/460 219/332/471 220/333/472
f 214/326/462 213/325/461 220/333/472 221/334/473
f 215/327/463 214/326/462 221/334/473 222/335/474
f 216/328/464 215/327/463 222/335/474 223/336/475
f 217/329/465 216/328/464 223/336/475 224/337/476
s 9
f 319/36/467 493/548/466 495/550/477 323/45/478
f 494/549/469 417/330/468 413/338/479 496/551/480
s 10
f 219/332/471 218/331/470 225/339/481 226/340/482
f 220/333/472 219/332/471 226/340/482 227/341/483
f 221/334/473 220/333/472 227/341/483 228/342/484
f 222/335/474 221/334/473 228/342/484 229/343/485
f 223/336/475 222/335/474 229/343/485 230/344/486
f 224/337/476 223/336/475 230/344/486 231/345/487
s 9
f 323/45/478 495/550/477 497/552/488 327/54/489
f 496/551/480 413/338/479 409/346/490 498/553/491
s 10
f 226/340/482 225/339/481 232/347/492 233/348/493
f 227/341/483 226/340/482 233/348/493 234/349/494
f 228/342/484 227/341/483 234/349/494 235/350/495
f 229/343/485 228/342/484 235/350/495 236/351/496
f 230/344/486 229/343/485 236/351/496 237/352/497
f 231/345/487 230/344/486 237/352/497 238/353/498
s 9
f 327/54/489 497/552/488 499/554/499 331/63/500
f 498/553/491 409/346/490 406/354/501 500/555/502
s 10
f 233/348/493 232/347/492 239/355/503 240/356/504
f 234/349/494 233/348/493 240/356/504 241/357/505
f 235/350/495 234/349/494 241/357/505 242/358/506
f 236/351/496 235/350/495 242/358/506 243/359/507
f 237/352/497 236/351/496 243/359/507 244/360/508
f 238/353/498 237/352/497 244/360/508 245/361/509
s 9
f 331/63/500 499/554/499 501/556/510 335/72/511
f 500/555/502 406/354/501 397/362/512 382/363/513
f 502/557/514 500/555/502 382/363/513 378/364/515
f 503/558/516 502/557/514 378/364/515 374/365/517
f 504/559/518 503/558/516 374/365/517 370/366/519
f 505/560/520 504/559/518 370/366/519 366/367/521
f 506/561/522 505/560/520 366/367/521 362/368/523
f 501/556/510 506/561/522 362/368/523 359/369/524
f 335/72/511 501/556/510 359/369/524 350/81/525
s 11
f 432/370/526 446/371/527 507/563/528 428/378/529
f 446/371/527 455/372/530 508/562/531 507/563/528
f 455/372/530 459/373/532 509/564/533 508/562/531
f 459/373/532 463/374/534 510/565/535 509/564/533
f 463/374/534 467/375/536 511/566/537 510/565/535
f 467/375/536 471/376/538 512/567/539 511/566/537
f 471/376/538 475/377/540 513/568/541 512/567/539
f 475/377/540 295/1/542 298/10/543 513/568/541
f 428/378/529 507/563/528 514/569/544 424/386/545
s 12
f 246/379/546 247/380/547 254/388/548 253/387/549
f 247/380/547 248/381/550 255/389/551 254/388/548
f 248/381/550 249/382/552 256/390/553 255/389/551
f 249/382/552 250/383/554 257/391/555 256/390/553
f 250/383/554 251/384/556 258/392/557 257/391/555
f 251/384/556 252/385/558 259/393/559 258/392/557
s 11
f 513/568/541 298/10/543 314/19/560 515/570/561
f 424/386/545 514/569/544 516/571/562 420/394/563
s 12
f 253/387/549 254/388/548 261/396/564 260/395/565
f 254/388/548 255/389/551 262/397/566 261/396/564
f 255/389/551 256/390/553 263/398/567 262/397/566
f 256/390/553 257/391/555 264/399/568 263/398/567
f 257/391/555 258/392/557 265/400/569 264/399/568
f 258/392/557 259/393/559 266/401/570 265/400/569
s 11
f 515/570/561 314/19/560 318/28/571 517/572/572
f 420/394/563 516/571/562 518/573/573 416/402/574
s 12
f 260/395/565 261/396/564 268/404/575 267/403/576
f 261/396/564 262/397/566 269/405/577 268/404/575
f 262/397/566 263/398/567 270/406/578 269/405/577
f 263/398/567 264/399/568 271/407/579 270/406/578
f 264/399/568 265/400/569 272/408/580 271/407/579
f 265/400/569 266/401/570 273/409/581 272/408/580
s 11
f 517/572/572 318/28/571 322/37/582 519/574/583
f 416/402/574 518/573/573 520/575/584 412/410/585
s 12
f 267/403/576 268/404/575 275/412/586 274/411/587
f 268/404/575 269/405/577 276/413/588 275/412/586
f 269/405/577 270/406/578 277/414/589 276/413/588
f 270/406/578 271/407/579 278/415/590 277/414/589
f 271/407/579 272/408/580 279/416/591 278/415/590
f 272/408/580 273/409/581 280/417/592 279/416/591
s 11
f 519/574/583 322/37/582 326/46/593 521/576/594
f 412/410/585 520/575/584 522/577/595 408/418/596
s 12
f 274/411/587 275/412/586 282/420/597 281/419/598
f 275/412/586 276/413/588 283/421/599 282/420/597
f 276/413/588 277/414/589 284/422/600 283/421/599
f 277/414/589 278/415/590 285/423/601 284/422/600
f 278/415/590 279/416/591 286/424/602 285/423/601
f 279/416/591 280/417/592 287/425/603 286/424/602
s 11
f 521/576/594 326/46/593 330/55/604 523/578/605
f 408/418/596 522/577/595 524/579/606 399/426/607
s 12
f 281/419/598 282/420/597 289/428/608 288/427/609
f 282/420/597 283/421/599 290/429/610 289/428/608
f 283/421/599 284/422/600 291/430/611 290/429/610
f 284/422/600 285/423/601 292/431/612 291/430/611
f 285/423/601 286/424/602 293/432/613 292/431/612
f 286/424/602 287/425/603 294/433/614 293/432/613
s 11
f 523/578/605 330/55/604 334/64/615 525/580/616
f 399/426/607 524/579/606 381/435/617 385/434/618
f 524/579/606 526/581/619 377/436/620 381/435/617
f 526/581/619 527/582/621 373/437/622 377/436/620
f 527/582/621 528/583/623 369/438/624 373/437/622
f 528/583/623 529/584/625 365/439/626 369/438/624
f 529/584/625 530/585/627 361/440/628 365/439/626
f 530/585/627 525/580/616 352/441/629 361/440/628
f 525/580/616 334/64/615 338/73/630 352/441/629
s 13
f 2/12/631 1/11/632 297/443/633 300/442/634
f 3/13/635 2/12/631 300/442/634 302/444/636
f 4/14/637 3/13/635 302/444/636 304/445/638
f 5/15/639 4/14/637 304/445/638 306/446/640
f 6/16/641 5/15/639 306/446/640 308/447/642
f 7/17/643 6/16/641 308/447/642 310/448/644
s 14
f 1/11/645 8/20/646 313/449/647 297/443/648
s 15
f 14/26/649 7/17/650 310/448/651 316/450/652
s 14
f 8/20/646 15/29/653 317/451/654 313/449/647
s 15
f 21/35/655 14/26/649 316/450/652 320/452/656
s 14
f 15/29/653 22/38/657 321/453/658 317/451/654
s 15
f 28/44/659 21/35/655 320/452/656 324/454/660
s 14
f 22/38/657 29/47/661 325/455/662 321/453/658
s 15
f 35/53/663 28/44/659 324/454/660 328/456/664
s 14
f 29/47/661 36/56/665 329/457/666 325/455/662
s 15
f 42/62/667 35/53/663 328/456/664 332/458/668
s 14
f 36/56/665 43/65/669 333/459/670 329/457/666
s 15
f 49/71/671 42/62/667 332/458/668 336/460/672
s 16
f 43/65/673 44/66/674 339/461/675 333/459/676
f 44/66/674 45/67/677 341/462/678 339/461/675
f 45/67/677 46/68/679 343/463/680 341/462/678
f 46/68/679 47/69/681 345/464/682 343/463/680
f 47/69/681 48/70/683 347/465/684 345/464/682
f 48/70/683 49/71/685 336/460/686 347/465/684
s 17
f 51/84/687 50/83/688 351/467/689 353/466/690
f 52/85/691 51/84/687 353/466/690 354/468/692
f 53/86/693 52/85/691 354/468/692 355/469/694
f 54/87/695 53/86/693 355/469/694 356/470/696
f 55/88/697 54/87/695 356/470/696 357/471/698
f 56/89/699 55/88/697 357/471/698 358/472/700
s 18
f 50/83/701 57/92/702 360/473/703 351/467/704
s 19
f 63/98/705 56/89/706 358/472/707 363/474/708
s 18
f 57/92/702 64/101/709 364/475/710 360/473/703
s 19
f 70/107/711 63/98/705 363/474/708 367/476/712
s 18
f 64/101/709 71/110/713 368/477/714 364/475/710
s 19
f 77/116/715 70/107/711 367/476/712 371/478/716
s 18
f 71/110/713 78/119/717 372/479/718 368/477/714
s 19
f 84/125/719 77/116/715 371/478/716 375/480/720
s 18
f 78/119/717 85/128/721 376/481/722 372/479/718
s 19
f 91/134/723 84/125/719 375/480/720 379/482/724
s 18
f 85/128/721 92/137/725 380/483/726 376/481/722
s 19
f 98/143/727 91/134/723 379/482/724 383/484/728
s 20
f 92/137/729 93/138/730 386/485/731 380/483/732
f 93/138/730 94/139/733 388/486/734 386/485/731
f 94/139/733 95/140/735 390/487/736 388/486/734
f 95/140/735 96/141/737 392/488/738 390/487/736
f 96/141/737 97/142/739 394/489/740 392/488/738
f 97/142/739 98/143/741 383/484/742 394/489/740
s 21
f 100/156/743 99/155/744 398/491/745 400/490/746
f 101/157/747 100/156/743 400/490/746 401/492/748
f 102/158/749 101/157/747 401/492/748 402/493/750
f 103/159/751 102/158/749 402/493/750 403/494/752
f 104/160/753 103/159/751 403/494/752 404/495/754
f 105/161/755 104/160/753 404/495/754 405/496/756
s 22
f 99/155/757 106/164/758 407/497/759 398/491/760
s 23
f 112/170/761 105/161/762 405/496/763 410/498/764
s 22
f 106/164/758 113/173/765 411/499/766 407/497/759
s 23
f 119/179/767 112/170/761 410/498/764 414/500/768
s 22
f 113/173/765 120/182/769 415/501/770 411/499/766
s 23
f 126/188/771 119/179/767 414/500/768 418/502/772
s 22
f 120/182/769 127/191/773 419/503/774 415/501/770
s 23
f 133/197/775 126/188/771 418/502/772 422/504/776
s 22
f 127/191/773 134/200/777 423/505/778 419/503/774
s 23
f 140/206/779 133/197/775 422/504/776 426/506/780
s 22
f 134/200/777 141/209/781 427/507/782 423/505/778
s 23
f 147/215/783 140/206/779 426/506/780 430/508/784
s 24
f 141/209/785 142/210/786 433/509/787 427/507/788
f 142/210/786 143/211/789 435/510/790 433/509/787
f 143/211/789 144/212/791 437/511/792 435/510/790
f 144/212/791 145/213/793 439/512/794 437/511/792
f 145/213/793 146/214/795 441/513/796 439/512/794
f 146/214/795 147/215/797 430/508/798 441/513/796
s 25
f 149/228/799 148/227/800 445/515/801 447/514/802
f 150/229/803 149/228/799 447/514/802 448/516/804
f 151/230/805 150/229/803 448/516/804 449/517/806
f 152/231/807 151/230/805 449/517/806 450/518/808
f 153/232/809 152/231/807 450/518/808 451/519/810
f 154/233/811 153/232/809 451/519/810 452/520/812
s 26
f 148/227/813 155/236/814 454/521/815 445/515/816
s 27
f 161/242/817 154/233/818 452/520/819 457/522/820
s 26
f 155/236/814 162/245/821 458/523/822 454/521/815
s 27
f 168/251/823 161/242/817 457/522/820 461/524/824
s 26
f 162/245/821 169/254/825 462/525/826 458/523/822
s 27
f 175/260/827 168/251/823 461/524/824 465/526/828
s 26
f 169/254/825 176/263/829 466/527/830 462/525/826
s 27
f 182/269/831 175/260/827 465/526/828 469/528/832
s 26
f 176/263/829 183/272/833 470/529/834 466/527/830
s 27
f 189/278/835 182/269/831 469/528/832 473/530/836
s 26
f 183/272/833 190/281/837 474/531/838 470/529/834
s 27
f 196/287/839 189/278/835 473/530/836 477/532/840
s 28
f 190/281/841 191/282/842 478/533/843 474/531/844
f 191/282/842 192/283/845 479/534/846 478/533/843
f 192/283/845 193/284/847 480/535/848 479/534/846
f 193/284/847 194/285/849 481/536/850 480/535/848
f 194/285/849 195/286/851 482/537/852 481/536/850
f 195/286/851 196/287/853 477/532/854 482/537/852
s 29
f 197/307/855 198/308/856 484/539/857 483/538/858
f 198/308/856 199/309/859 485/540/860 484/539/857
f 199/309/859 200/310/861 486/541/862 485/540/860
f 200/310/861 201/311/863 487/542/864 486/541/862
f 201/311/863 202/312/865 488/543/866 487/542/864
f 202/312/865 203/313/867 489/544/868 488/543/866
s 30
f 204/315/869 197/307/870 483/538/871 490/545/872
s 31
f 203/313/873 210/321/874 491/546/875 489/544/876
s 30
f 211/323/877 204/315/869 490/545/872 492/547/878
s 31
f 210/321/874 217/329/879 493/548/880 491/546/875
s 30
f 218/331/881 211/323/877 492/547/878 494/549/882
s 31
f 217/329/879 224/337/883 495/550/884 493/548/880
s 30
f 225/339/885 218/331/881 494/549/882 496/551/886
s 31
f 224/337/883 231/345/887 497/552/888 495/550/884
s 30
f 232/347/889 225/339/885 496/551/886 498/553/890
s 31
f 231/345/887 238/353/891 499/554/892 497/552/888
s 30
f 239/355/893 232/347/889 498/553/890 500/555/894
s 31
f 238/353/891 245/361/895 501/556/896 499/554/892
s 32
f 240/356/897 239/355/898 500/555/899 502/557/900
f 241/357/901 240/356/897 502/557/900 503/558/902
f 242/358/903 241/357/901 503/558/902 504/559/904
f 243/359/905 242/358/903 504/559/904 505/560/906
f 244/360/907 243/359/905 505/560/906 506/561/908
f 245/361/909 244/360/907 506/561/908 501/556/910
s 33
f 247/380/911 246/379/912 507/563/913 508/562/914
f 248/381/915 247/380/911 508/562/914 509/564/916
f 249/382/917 248/381/915 509/564/916 510/565/918
f 250/383/919 249/382/917 510/565/918 511/566/920
f 251/384/921 250/383/919 511/566/920 512/567/922
f 252/385/923 251/384/921 512/567/922 513/568/924
s 34
f 246/379/925 253/387/926 514/569/927 507/563/928
s 35
f 259/393/929 252/385/930 513/568/931 515/570/932
s 34
f 253/387/926 260/395/933 516/571/934 514/569/927
s 35
f 266/401/935 259/393/929 515/570/932 517/572/936
s 34
f 260/395/933 267/403/937 518/573/938 516/571/934
s 35
f 273/409/939 266/401/935 517/572/936 519/574/940
s 34
f 267/403/937 274/411/941 520/575/942 518/573/938
s 35
f 280/417/943 273/409/939 519/574/940 521/576/944
s 34
f 274/411/941 281/419/945 522/577/946 520/575/942
s 35
f 287/425/947 280/417/943 521/576/944 523/578/948
s 34
f 281/419/945 288/427/949 524/579/950 522/577/946
s 35
f 294/433/951 287/425/947 523/578/948 525/580/952
s 36
f 288/427/953 289/428/954 526/581/955 524/579/956
f 289/428/954 290/429/957 527/582/958 526/581/955
f 290/429/957 291/430/959 528/583/960 527/582/958
f 291/430/959 292/431/961 529/584/962 528/583/960
f 292/431/961 293/432/963 530/585/964 529/584/962
f 293/432/963 294/433/965 525/580/966 530/585/964
